<?xml version="1.0" encoding="utf-8" standalone="no"?>
<!DOCTYPE svg PUBLIC "-//W3C//DTD SVG 1.1//EN"
  "http://www.w3.org/Graphics/SVG/1.1/DTD/svg11.dtd">
<svg xmlns:xlink="http://www.w3.org/1999/xlink" width="492.082812pt" height="614.274375pt" viewBox="0 0 492.082812 614.274375" xmlns="http://www.w3.org/2000/svg" version="1.1">
 <metadata>
  <rdf:RDF xmlns:dc="http://purl.org/dc/elements/1.1/" xmlns:cc="http://creativecommons.org/ns#" xmlns:rdf="http://www.w3.org/1999/02/22-rdf-syntax-ns#">
   <cc:Work>
    <dc:type rdf:resource="http://purl.org/dc/dcmitype/StillImage"/>
    <dc:date>2024-12-15T15:58:01.186069</dc:date>
    <dc:format>image/svg+xml</dc:format>
    <dc:creator>
     <cc:Agent>
      <dc:title>Matplotlib v3.7.1, https://matplotlib.org/</dc:title>
     </cc:Agent>
    </dc:creator>
   </cc:Work>
  </rdf:RDF>
 </metadata>
 <defs>
  <style type="text/css">*{stroke-linejoin: round; stroke-linecap: butt}</style>
 </defs>
 <g id="figure_1">
  <g id="patch_1">
   <path d="M 0 614.274375 
L 492.082812 614.274375 
L 492.082812 0 
L 0 0 
z
" style="fill: #ffffff"/>
  </g>
  <g id="axes_1">
   <g id="patch_2">
    <path d="M 38.482813 274.318125 
L 484.882812 274.318125 
L 484.882812 22.318125 
L 38.482813 22.318125 
z
" style="fill: #ffffff"/>
   </g>
   <g id="matplotlib.axis_1">
    <g id="xtick_1">
     <g id="line2d_1">
      <path d="M 105.598896 274.318125 
L 105.598896 22.318125 
" clip-path="url(#p25e888f8dd)" style="fill: none; stroke: #b0b0b0; stroke-width: 0.8; stroke-linecap: square"/>
     </g>
     <g id="line2d_2">
      <defs>
       <path id="mfef5c1ef1f" d="M 0 0 
L 0 3.5 
" style="stroke: #000000; stroke-width: 0.8"/>
      </defs>
      <g>
       <use xlink:href="#mfef5c1ef1f" x="105.598896" y="274.318125" style="stroke: #000000; stroke-width: 0.8"/>
      </g>
     </g>
     <g id="text_1">
      <!-- −100 -->
      <g transform="translate(91.865303 288.916562) scale(0.1 -0.1)">
       <defs>
        <path id="DejaVuSans-2212" d="M 678 2272 
L 4684 2272 
L 4684 1741 
L 678 1741 
L 678 2272 
z
" transform="scale(0.015625)"/>
        <path id="DejaVuSans-31" d="M 794 531 
L 1825 531 
L 1825 4091 
L 703 3866 
L 703 4441 
L 1819 4666 
L 2450 4666 
L 2450 531 
L 3481 531 
L 3481 0 
L 794 0 
L 794 531 
z
" transform="scale(0.015625)"/>
        <path id="DejaVuSans-30" d="M 2034 4250 
Q 1547 4250 1301 3770 
Q 1056 3291 1056 2328 
Q 1056 1369 1301 889 
Q 1547 409 2034 409 
Q 2525 409 2770 889 
Q 3016 1369 3016 2328 
Q 3016 3291 2770 3770 
Q 2525 4250 2034 4250 
z
M 2034 4750 
Q 2819 4750 3233 4129 
Q 3647 3509 3647 2328 
Q 3647 1150 3233 529 
Q 2819 -91 2034 -91 
Q 1250 -91 836 529 
Q 422 1150 422 2328 
Q 422 3509 836 4129 
Q 1250 4750 2034 4750 
z
" transform="scale(0.015625)"/>
       </defs>
       <use xlink:href="#DejaVuSans-2212"/>
       <use xlink:href="#DejaVuSans-31" x="83.789062"/>
       <use xlink:href="#DejaVuSans-30" x="147.412109"/>
       <use xlink:href="#DejaVuSans-30" x="211.035156"/>
      </g>
     </g>
    </g>
    <g id="xtick_2">
     <g id="line2d_3">
      <path d="M 183.640854 274.318125 
L 183.640854 22.318125 
" clip-path="url(#p25e888f8dd)" style="fill: none; stroke: #b0b0b0; stroke-width: 0.8; stroke-linecap: square"/>
     </g>
     <g id="line2d_4">
      <g>
       <use xlink:href="#mfef5c1ef1f" x="183.640854" y="274.318125" style="stroke: #000000; stroke-width: 0.8"/>
      </g>
     </g>
     <g id="text_2">
      <!-- −50 -->
      <g transform="translate(173.088511 288.916562) scale(0.1 -0.1)">
       <defs>
        <path id="DejaVuSans-35" d="M 691 4666 
L 3169 4666 
L 3169 4134 
L 1269 4134 
L 1269 2991 
Q 1406 3038 1543 3061 
Q 1681 3084 1819 3084 
Q 2600 3084 3056 2656 
Q 3513 2228 3513 1497 
Q 3513 744 3044 326 
Q 2575 -91 1722 -91 
Q 1428 -91 1123 -41 
Q 819 9 494 109 
L 494 744 
Q 775 591 1075 516 
Q 1375 441 1709 441 
Q 2250 441 2565 725 
Q 2881 1009 2881 1497 
Q 2881 1984 2565 2268 
Q 2250 2553 1709 2553 
Q 1456 2553 1204 2497 
Q 953 2441 691 2322 
L 691 4666 
z
" transform="scale(0.015625)"/>
       </defs>
       <use xlink:href="#DejaVuSans-2212"/>
       <use xlink:href="#DejaVuSans-35" x="83.789062"/>
       <use xlink:href="#DejaVuSans-30" x="147.412109"/>
      </g>
     </g>
    </g>
    <g id="xtick_3">
     <g id="line2d_5">
      <path d="M 261.682813 274.318125 
L 261.682813 22.318125 
" clip-path="url(#p25e888f8dd)" style="fill: none; stroke: #b0b0b0; stroke-width: 0.8; stroke-linecap: square"/>
     </g>
     <g id="line2d_6">
      <g>
       <use xlink:href="#mfef5c1ef1f" x="261.682813" y="274.318125" style="stroke: #000000; stroke-width: 0.8"/>
      </g>
     </g>
     <g id="text_3">
      <!-- 0 -->
      <g transform="translate(258.501563 288.916562) scale(0.1 -0.1)">
       <use xlink:href="#DejaVuSans-30"/>
      </g>
     </g>
    </g>
    <g id="xtick_4">
     <g id="line2d_7">
      <path d="M 339.724771 274.318125 
L 339.724771 22.318125 
" clip-path="url(#p25e888f8dd)" style="fill: none; stroke: #b0b0b0; stroke-width: 0.8; stroke-linecap: square"/>
     </g>
     <g id="line2d_8">
      <g>
       <use xlink:href="#mfef5c1ef1f" x="339.724771" y="274.318125" style="stroke: #000000; stroke-width: 0.8"/>
      </g>
     </g>
     <g id="text_4">
      <!-- 50 -->
      <g transform="translate(333.362271 288.916562) scale(0.1 -0.1)">
       <use xlink:href="#DejaVuSans-35"/>
       <use xlink:href="#DejaVuSans-30" x="63.623047"/>
      </g>
     </g>
    </g>
    <g id="xtick_5">
     <g id="line2d_9">
      <path d="M 417.766729 274.318125 
L 417.766729 22.318125 
" clip-path="url(#p25e888f8dd)" style="fill: none; stroke: #b0b0b0; stroke-width: 0.8; stroke-linecap: square"/>
     </g>
     <g id="line2d_10">
      <g>
       <use xlink:href="#mfef5c1ef1f" x="417.766729" y="274.318125" style="stroke: #000000; stroke-width: 0.8"/>
      </g>
     </g>
     <g id="text_5">
      <!-- 100 -->
      <g transform="translate(408.222979 288.916562) scale(0.1 -0.1)">
       <use xlink:href="#DejaVuSans-31"/>
       <use xlink:href="#DejaVuSans-30" x="63.623047"/>
       <use xlink:href="#DejaVuSans-30" x="127.246094"/>
      </g>
     </g>
    </g>
    <g id="text_6">
     <!-- Theta -->
     <g transform="translate(247.359375 302.594687) scale(0.1 -0.1)">
      <defs>
       <path id="DejaVuSans-54" d="M -19 4666 
L 3928 4666 
L 3928 4134 
L 2272 4134 
L 2272 0 
L 1638 0 
L 1638 4134 
L -19 4134 
L -19 4666 
z
" transform="scale(0.015625)"/>
       <path id="DejaVuSans-68" d="M 3513 2113 
L 3513 0 
L 2938 0 
L 2938 2094 
Q 2938 2591 2744 2837 
Q 2550 3084 2163 3084 
Q 1697 3084 1428 2787 
Q 1159 2491 1159 1978 
L 1159 0 
L 581 0 
L 581 4863 
L 1159 4863 
L 1159 2956 
Q 1366 3272 1645 3428 
Q 1925 3584 2291 3584 
Q 2894 3584 3203 3211 
Q 3513 2838 3513 2113 
z
" transform="scale(0.015625)"/>
       <path id="DejaVuSans-65" d="M 3597 1894 
L 3597 1613 
L 953 1613 
Q 991 1019 1311 708 
Q 1631 397 2203 397 
Q 2534 397 2845 478 
Q 3156 559 3463 722 
L 3463 178 
Q 3153 47 2828 -22 
Q 2503 -91 2169 -91 
Q 1331 -91 842 396 
Q 353 884 353 1716 
Q 353 2575 817 3079 
Q 1281 3584 2069 3584 
Q 2775 3584 3186 3129 
Q 3597 2675 3597 1894 
z
M 3022 2063 
Q 3016 2534 2758 2815 
Q 2500 3097 2075 3097 
Q 1594 3097 1305 2825 
Q 1016 2553 972 2059 
L 3022 2063 
z
" transform="scale(0.015625)"/>
       <path id="DejaVuSans-74" d="M 1172 4494 
L 1172 3500 
L 2356 3500 
L 2356 3053 
L 1172 3053 
L 1172 1153 
Q 1172 725 1289 603 
Q 1406 481 1766 481 
L 2356 481 
L 2356 0 
L 1766 0 
Q 1100 0 847 248 
Q 594 497 594 1153 
L 594 3053 
L 172 3053 
L 172 3500 
L 594 3500 
L 594 4494 
L 1172 4494 
z
" transform="scale(0.015625)"/>
       <path id="DejaVuSans-61" d="M 2194 1759 
Q 1497 1759 1228 1600 
Q 959 1441 959 1056 
Q 959 750 1161 570 
Q 1363 391 1709 391 
Q 2188 391 2477 730 
Q 2766 1069 2766 1631 
L 2766 1759 
L 2194 1759 
z
M 3341 1997 
L 3341 0 
L 2766 0 
L 2766 531 
Q 2569 213 2275 61 
Q 1981 -91 1556 -91 
Q 1019 -91 701 211 
Q 384 513 384 1019 
Q 384 1609 779 1909 
Q 1175 2209 1959 2209 
L 2766 2209 
L 2766 2266 
Q 2766 2663 2505 2880 
Q 2244 3097 1772 3097 
Q 1472 3097 1187 3025 
Q 903 2953 641 2809 
L 641 3341 
Q 956 3463 1253 3523 
Q 1550 3584 1831 3584 
Q 2591 3584 2966 3190 
Q 3341 2797 3341 1997 
z
" transform="scale(0.015625)"/>
      </defs>
      <use xlink:href="#DejaVuSans-54"/>
      <use xlink:href="#DejaVuSans-68" x="61.083984"/>
      <use xlink:href="#DejaVuSans-65" x="124.462891"/>
      <use xlink:href="#DejaVuSans-74" x="185.986328"/>
      <use xlink:href="#DejaVuSans-61" x="225.195312"/>
     </g>
    </g>
   </g>
   <g id="matplotlib.axis_2">
    <g id="ytick_1">
     <g id="line2d_11">
      <path d="M 38.482813 261.507449 
L 484.882812 261.507449 
" clip-path="url(#p25e888f8dd)" style="fill: none; stroke: #b0b0b0; stroke-width: 0.8; stroke-linecap: square"/>
     </g>
     <g id="line2d_12">
      <defs>
       <path id="m1fcb3d7d82" d="M 0 0 
L -3.5 0 
" style="stroke: #000000; stroke-width: 0.8"/>
      </defs>
      <g>
       <use xlink:href="#m1fcb3d7d82" x="38.482813" y="261.507449" style="stroke: #000000; stroke-width: 0.8"/>
      </g>
     </g>
     <g id="text_7">
      <!-- −3.0 -->
      <g transform="translate(7.2 265.306668) scale(0.1 -0.1)">
       <defs>
        <path id="DejaVuSans-33" d="M 2597 2516 
Q 3050 2419 3304 2112 
Q 3559 1806 3559 1356 
Q 3559 666 3084 287 
Q 2609 -91 1734 -91 
Q 1441 -91 1130 -33 
Q 819 25 488 141 
L 488 750 
Q 750 597 1062 519 
Q 1375 441 1716 441 
Q 2309 441 2620 675 
Q 2931 909 2931 1356 
Q 2931 1769 2642 2001 
Q 2353 2234 1838 2234 
L 1294 2234 
L 1294 2753 
L 1863 2753 
Q 2328 2753 2575 2939 
Q 2822 3125 2822 3475 
Q 2822 3834 2567 4026 
Q 2313 4219 1838 4219 
Q 1578 4219 1281 4162 
Q 984 4106 628 3988 
L 628 4550 
Q 988 4650 1302 4700 
Q 1616 4750 1894 4750 
Q 2613 4750 3031 4423 
Q 3450 4097 3450 3541 
Q 3450 3153 3228 2886 
Q 3006 2619 2597 2516 
z
" transform="scale(0.015625)"/>
        <path id="DejaVuSans-2e" d="M 684 794 
L 1344 794 
L 1344 0 
L 684 0 
L 684 794 
z
" transform="scale(0.015625)"/>
       </defs>
       <use xlink:href="#DejaVuSans-2212"/>
       <use xlink:href="#DejaVuSans-33" x="83.789062"/>
       <use xlink:href="#DejaVuSans-2e" x="147.412109"/>
       <use xlink:href="#DejaVuSans-30" x="179.199219"/>
      </g>
     </g>
    </g>
    <g id="ytick_2">
     <g id="line2d_13">
      <path d="M 38.482813 223.551653 
L 484.882812 223.551653 
" clip-path="url(#p25e888f8dd)" style="fill: none; stroke: #b0b0b0; stroke-width: 0.8; stroke-linecap: square"/>
     </g>
     <g id="line2d_14">
      <g>
       <use xlink:href="#m1fcb3d7d82" x="38.482813" y="223.551653" style="stroke: #000000; stroke-width: 0.8"/>
      </g>
     </g>
     <g id="text_8">
      <!-- −2.5 -->
      <g transform="translate(7.2 227.350872) scale(0.1 -0.1)">
       <defs>
        <path id="DejaVuSans-32" d="M 1228 531 
L 3431 531 
L 3431 0 
L 469 0 
L 469 531 
Q 828 903 1448 1529 
Q 2069 2156 2228 2338 
Q 2531 2678 2651 2914 
Q 2772 3150 2772 3378 
Q 2772 3750 2511 3984 
Q 2250 4219 1831 4219 
Q 1534 4219 1204 4116 
Q 875 4013 500 3803 
L 500 4441 
Q 881 4594 1212 4672 
Q 1544 4750 1819 4750 
Q 2544 4750 2975 4387 
Q 3406 4025 3406 3419 
Q 3406 3131 3298 2873 
Q 3191 2616 2906 2266 
Q 2828 2175 2409 1742 
Q 1991 1309 1228 531 
z
" transform="scale(0.015625)"/>
       </defs>
       <use xlink:href="#DejaVuSans-2212"/>
       <use xlink:href="#DejaVuSans-32" x="83.789062"/>
       <use xlink:href="#DejaVuSans-2e" x="147.412109"/>
       <use xlink:href="#DejaVuSans-35" x="179.199219"/>
      </g>
     </g>
    </g>
    <g id="ytick_3">
     <g id="line2d_15">
      <path d="M 38.482813 185.595856 
L 484.882812 185.595856 
" clip-path="url(#p25e888f8dd)" style="fill: none; stroke: #b0b0b0; stroke-width: 0.8; stroke-linecap: square"/>
     </g>
     <g id="line2d_16">
      <g>
       <use xlink:href="#m1fcb3d7d82" x="38.482813" y="185.595856" style="stroke: #000000; stroke-width: 0.8"/>
      </g>
     </g>
     <g id="text_9">
      <!-- −2.0 -->
      <g transform="translate(7.2 189.395075) scale(0.1 -0.1)">
       <use xlink:href="#DejaVuSans-2212"/>
       <use xlink:href="#DejaVuSans-32" x="83.789062"/>
       <use xlink:href="#DejaVuSans-2e" x="147.412109"/>
       <use xlink:href="#DejaVuSans-30" x="179.199219"/>
      </g>
     </g>
    </g>
    <g id="ytick_4">
     <g id="line2d_17">
      <path d="M 38.482813 147.64006 
L 484.882812 147.64006 
" clip-path="url(#p25e888f8dd)" style="fill: none; stroke: #b0b0b0; stroke-width: 0.8; stroke-linecap: square"/>
     </g>
     <g id="line2d_18">
      <g>
       <use xlink:href="#m1fcb3d7d82" x="38.482813" y="147.64006" style="stroke: #000000; stroke-width: 0.8"/>
      </g>
     </g>
     <g id="text_10">
      <!-- −1.5 -->
      <g transform="translate(7.2 151.439279) scale(0.1 -0.1)">
       <use xlink:href="#DejaVuSans-2212"/>
       <use xlink:href="#DejaVuSans-31" x="83.789062"/>
       <use xlink:href="#DejaVuSans-2e" x="147.412109"/>
       <use xlink:href="#DejaVuSans-35" x="179.199219"/>
      </g>
     </g>
    </g>
    <g id="ytick_5">
     <g id="line2d_19">
      <path d="M 38.482813 109.684263 
L 484.882812 109.684263 
" clip-path="url(#p25e888f8dd)" style="fill: none; stroke: #b0b0b0; stroke-width: 0.8; stroke-linecap: square"/>
     </g>
     <g id="line2d_20">
      <g>
       <use xlink:href="#m1fcb3d7d82" x="38.482813" y="109.684263" style="stroke: #000000; stroke-width: 0.8"/>
      </g>
     </g>
     <g id="text_11">
      <!-- −1.0 -->
      <g transform="translate(7.2 113.483482) scale(0.1 -0.1)">
       <use xlink:href="#DejaVuSans-2212"/>
       <use xlink:href="#DejaVuSans-31" x="83.789062"/>
       <use xlink:href="#DejaVuSans-2e" x="147.412109"/>
       <use xlink:href="#DejaVuSans-30" x="179.199219"/>
      </g>
     </g>
    </g>
    <g id="ytick_6">
     <g id="line2d_21">
      <path d="M 38.482813 71.728467 
L 484.882812 71.728467 
" clip-path="url(#p25e888f8dd)" style="fill: none; stroke: #b0b0b0; stroke-width: 0.8; stroke-linecap: square"/>
     </g>
     <g id="line2d_22">
      <g>
       <use xlink:href="#m1fcb3d7d82" x="38.482813" y="71.728467" style="stroke: #000000; stroke-width: 0.8"/>
      </g>
     </g>
     <g id="text_12">
      <!-- −0.5 -->
      <g transform="translate(7.2 75.527686) scale(0.1 -0.1)">
       <use xlink:href="#DejaVuSans-2212"/>
       <use xlink:href="#DejaVuSans-30" x="83.789062"/>
       <use xlink:href="#DejaVuSans-2e" x="147.412109"/>
       <use xlink:href="#DejaVuSans-35" x="179.199219"/>
      </g>
     </g>
    </g>
    <g id="ytick_7">
     <g id="line2d_23">
      <path d="M 38.482813 33.77267 
L 484.882812 33.77267 
" clip-path="url(#p25e888f8dd)" style="fill: none; stroke: #b0b0b0; stroke-width: 0.8; stroke-linecap: square"/>
     </g>
     <g id="line2d_24">
      <g>
       <use xlink:href="#m1fcb3d7d82" x="38.482813" y="33.77267" style="stroke: #000000; stroke-width: 0.8"/>
      </g>
     </g>
     <g id="text_13">
      <!-- 0.0 -->
      <g transform="translate(15.579688 37.571889) scale(0.1 -0.1)">
       <use xlink:href="#DejaVuSans-30"/>
       <use xlink:href="#DejaVuSans-2e" x="63.623047"/>
       <use xlink:href="#DejaVuSans-30" x="95.410156"/>
      </g>
     </g>
    </g>
    <g id="text_14">
     <!-- 1e13 -->
     <g transform="translate(38.482813 19.318125) scale(0.1 -0.1)">
      <use xlink:href="#DejaVuSans-31"/>
      <use xlink:href="#DejaVuSans-65" x="63.623047"/>
      <use xlink:href="#DejaVuSans-31" x="125.146484"/>
      <use xlink:href="#DejaVuSans-33" x="188.769531"/>
     </g>
    </g>
   </g>
   <g id="line2d_25">
    <path d="M 58.773722 33.77267 
L 66.577917 33.77267 
L 74.382113 33.77267 
L 82.186309 33.77267 
L 89.990505 33.77267 
L 97.794701 33.77267 
L 105.598896 33.77267 
L 113.403092 33.77267 
L 121.207288 33.77267 
L 129.011484 33.77267 
L 136.81568 33.77267 
L 144.619875 33.77267 
L 152.424071 33.77267 
L 160.228267 33.77267 
L 168.032463 33.77267 
L 175.836659 33.77267 
L 183.640854 33.77267 
L 191.44505 33.77267 
L 199.249246 33.77267 
L 207.053442 33.77267 
L 214.857638 33.77267 
L 222.661833 33.77267 
L 230.466029 33.77267 
L 238.270225 33.77267 
L 246.074421 33.77267 
L 253.878617 33.77267 
L 261.682813 33.77267 
L 269.487008 33.77267 
L 277.291204 33.77267 
L 285.0954 33.77267 
L 292.899596 33.77267 
L 300.703792 33.77267 
L 308.507987 33.77267 
L 316.312183 33.77267 
L 324.116379 33.77267 
L 331.920575 33.77267 
L 339.724771 33.77267 
L 347.528966 33.77267 
L 355.333162 33.77267 
L 363.137358 33.77267 
L 370.941554 33.77267 
L 378.74575 33.77267 
L 386.549945 33.77267 
L 394.354141 33.77267 
L 402.158337 33.77267 
L 409.962533 33.77267 
L 417.766729 33.77267 
L 425.570924 33.77267 
L 433.37512 33.77267 
L 441.179316 33.77267 
L 448.983512 33.77267 
L 456.787708 33.77267 
L 464.591903 33.77267 
" clip-path="url(#p25e888f8dd)" style="fill: none; stroke: #1f77b4; stroke-opacity: 0.7; stroke-width: 1.5; stroke-linecap: square"/>
   </g>
   <g id="line2d_26">
    <path d="M 58.773722 51.819991 
L 66.577917 62.838685 
L 74.382113 67.635375 
L 82.186309 113.94507 
L 89.990505 193.636438 
L 97.794701 44.596269 
L 105.598896 116.541734 
L 113.403092 35.655295 
L 121.207288 50.126997 
L 129.011484 78.349497 
L 136.81568 100.381582 
L 144.619875 213.516941 
L 152.424071 242.638786 
L 160.228267 33.970575 
L 168.032463 262.86358 
L 175.836659 43.510129 
L 183.640854 66.485255 
L 191.44505 169.775064 
L 199.249246 47.552108 
L 207.053442 108.983741 
L 214.857638 101.963186 
L 222.661833 68.051878 
L 230.466029 48.287341 
L 238.270225 49.475786 
L 246.074421 35.649536 
L 253.878617 44.780347 
L 261.682813 33.77267 
L 269.487008 36.033145 
L 277.291204 36.87144 
L 285.0954 35.227519 
L 292.899596 77.219006 
L 300.703792 60.210828 
L 308.507987 41.332284 
L 316.312183 34.523043 
L 324.116379 69.750848 
L 331.920575 49.757789 
L 339.724771 159.880076 
L 347.528966 69.019963 
L 355.333162 52.878462 
L 363.137358 173.781547 
L 370.941554 252.532948 
L 378.74575 203.093419 
L 386.549945 218.748438 
L 394.354141 134.671835 
L 402.158337 176.128065 
L 409.962533 125.963351 
L 417.766729 115.028658 
L 425.570924 172.212102 
L 433.37512 139.496392 
L 441.179316 177.55532 
L 448.983512 102.043293 
L 456.787708 137.437344 
L 464.591903 66.63887 
" clip-path="url(#p25e888f8dd)" style="fill: none; stroke: #ff7f0e; stroke-opacity: 0.7; stroke-width: 1.5; stroke-linecap: square"/>
   </g>
   <g id="patch_3">
    <path d="M 38.482813 274.318125 
L 38.482813 22.318125 
" style="fill: none; stroke: #000000; stroke-width: 0.8; stroke-linejoin: miter; stroke-linecap: square"/>
   </g>
   <g id="patch_4">
    <path d="M 484.882812 274.318125 
L 484.882812 22.318125 
" style="fill: none; stroke: #000000; stroke-width: 0.8; stroke-linejoin: miter; stroke-linecap: square"/>
   </g>
   <g id="patch_5">
    <path d="M 38.482813 274.318125 
L 484.882812 274.318125 
" style="fill: none; stroke: #000000; stroke-width: 0.8; stroke-linejoin: miter; stroke-linecap: square"/>
   </g>
   <g id="patch_6">
    <path d="M 38.482813 22.318125 
L 484.882812 22.318125 
" style="fill: none; stroke: #000000; stroke-width: 0.8; stroke-linejoin: miter; stroke-linecap: square"/>
   </g>
   <g id="text_15">
    <!-- Diff radiation of transform w/o error H-plane (Phi = 90.0) -->
    <g transform="translate(91.421563 16.318125) scale(0.12 -0.12)">
     <defs>
      <path id="DejaVuSans-44" d="M 1259 4147 
L 1259 519 
L 2022 519 
Q 2988 519 3436 956 
Q 3884 1394 3884 2338 
Q 3884 3275 3436 3711 
Q 2988 4147 2022 4147 
L 1259 4147 
z
M 628 4666 
L 1925 4666 
Q 3281 4666 3915 4102 
Q 4550 3538 4550 2338 
Q 4550 1131 3912 565 
Q 3275 0 1925 0 
L 628 0 
L 628 4666 
z
" transform="scale(0.015625)"/>
      <path id="DejaVuSans-69" d="M 603 3500 
L 1178 3500 
L 1178 0 
L 603 0 
L 603 3500 
z
M 603 4863 
L 1178 4863 
L 1178 4134 
L 603 4134 
L 603 4863 
z
" transform="scale(0.015625)"/>
      <path id="DejaVuSans-66" d="M 2375 4863 
L 2375 4384 
L 1825 4384 
Q 1516 4384 1395 4259 
Q 1275 4134 1275 3809 
L 1275 3500 
L 2222 3500 
L 2222 3053 
L 1275 3053 
L 1275 0 
L 697 0 
L 697 3053 
L 147 3053 
L 147 3500 
L 697 3500 
L 697 3744 
Q 697 4328 969 4595 
Q 1241 4863 1831 4863 
L 2375 4863 
z
" transform="scale(0.015625)"/>
      <path id="DejaVuSans-20" transform="scale(0.015625)"/>
      <path id="DejaVuSans-72" d="M 2631 2963 
Q 2534 3019 2420 3045 
Q 2306 3072 2169 3072 
Q 1681 3072 1420 2755 
Q 1159 2438 1159 1844 
L 1159 0 
L 581 0 
L 581 3500 
L 1159 3500 
L 1159 2956 
Q 1341 3275 1631 3429 
Q 1922 3584 2338 3584 
Q 2397 3584 2469 3576 
Q 2541 3569 2628 3553 
L 2631 2963 
z
" transform="scale(0.015625)"/>
      <path id="DejaVuSans-64" d="M 2906 2969 
L 2906 4863 
L 3481 4863 
L 3481 0 
L 2906 0 
L 2906 525 
Q 2725 213 2448 61 
Q 2172 -91 1784 -91 
Q 1150 -91 751 415 
Q 353 922 353 1747 
Q 353 2572 751 3078 
Q 1150 3584 1784 3584 
Q 2172 3584 2448 3432 
Q 2725 3281 2906 2969 
z
M 947 1747 
Q 947 1113 1208 752 
Q 1469 391 1925 391 
Q 2381 391 2643 752 
Q 2906 1113 2906 1747 
Q 2906 2381 2643 2742 
Q 2381 3103 1925 3103 
Q 1469 3103 1208 2742 
Q 947 2381 947 1747 
z
" transform="scale(0.015625)"/>
      <path id="DejaVuSans-6f" d="M 1959 3097 
Q 1497 3097 1228 2736 
Q 959 2375 959 1747 
Q 959 1119 1226 758 
Q 1494 397 1959 397 
Q 2419 397 2687 759 
Q 2956 1122 2956 1747 
Q 2956 2369 2687 2733 
Q 2419 3097 1959 3097 
z
M 1959 3584 
Q 2709 3584 3137 3096 
Q 3566 2609 3566 1747 
Q 3566 888 3137 398 
Q 2709 -91 1959 -91 
Q 1206 -91 779 398 
Q 353 888 353 1747 
Q 353 2609 779 3096 
Q 1206 3584 1959 3584 
z
" transform="scale(0.015625)"/>
      <path id="DejaVuSans-6e" d="M 3513 2113 
L 3513 0 
L 2938 0 
L 2938 2094 
Q 2938 2591 2744 2837 
Q 2550 3084 2163 3084 
Q 1697 3084 1428 2787 
Q 1159 2491 1159 1978 
L 1159 0 
L 581 0 
L 581 3500 
L 1159 3500 
L 1159 2956 
Q 1366 3272 1645 3428 
Q 1925 3584 2291 3584 
Q 2894 3584 3203 3211 
Q 3513 2838 3513 2113 
z
" transform="scale(0.015625)"/>
      <path id="DejaVuSans-73" d="M 2834 3397 
L 2834 2853 
Q 2591 2978 2328 3040 
Q 2066 3103 1784 3103 
Q 1356 3103 1142 2972 
Q 928 2841 928 2578 
Q 928 2378 1081 2264 
Q 1234 2150 1697 2047 
L 1894 2003 
Q 2506 1872 2764 1633 
Q 3022 1394 3022 966 
Q 3022 478 2636 193 
Q 2250 -91 1575 -91 
Q 1294 -91 989 -36 
Q 684 19 347 128 
L 347 722 
Q 666 556 975 473 
Q 1284 391 1588 391 
Q 1994 391 2212 530 
Q 2431 669 2431 922 
Q 2431 1156 2273 1281 
Q 2116 1406 1581 1522 
L 1381 1569 
Q 847 1681 609 1914 
Q 372 2147 372 2553 
Q 372 3047 722 3315 
Q 1072 3584 1716 3584 
Q 2034 3584 2315 3537 
Q 2597 3491 2834 3397 
z
" transform="scale(0.015625)"/>
      <path id="DejaVuSans-6d" d="M 3328 2828 
Q 3544 3216 3844 3400 
Q 4144 3584 4550 3584 
Q 5097 3584 5394 3201 
Q 5691 2819 5691 2113 
L 5691 0 
L 5113 0 
L 5113 2094 
Q 5113 2597 4934 2840 
Q 4756 3084 4391 3084 
Q 3944 3084 3684 2787 
Q 3425 2491 3425 1978 
L 3425 0 
L 2847 0 
L 2847 2094 
Q 2847 2600 2669 2842 
Q 2491 3084 2119 3084 
Q 1678 3084 1418 2786 
Q 1159 2488 1159 1978 
L 1159 0 
L 581 0 
L 581 3500 
L 1159 3500 
L 1159 2956 
Q 1356 3278 1631 3431 
Q 1906 3584 2284 3584 
Q 2666 3584 2933 3390 
Q 3200 3197 3328 2828 
z
" transform="scale(0.015625)"/>
      <path id="DejaVuSans-77" d="M 269 3500 
L 844 3500 
L 1563 769 
L 2278 3500 
L 2956 3500 
L 3675 769 
L 4391 3500 
L 4966 3500 
L 4050 0 
L 3372 0 
L 2619 2869 
L 1863 0 
L 1184 0 
L 269 3500 
z
" transform="scale(0.015625)"/>
      <path id="DejaVuSans-2f" d="M 1625 4666 
L 2156 4666 
L 531 -594 
L 0 -594 
L 1625 4666 
z
" transform="scale(0.015625)"/>
      <path id="DejaVuSans-48" d="M 628 4666 
L 1259 4666 
L 1259 2753 
L 3553 2753 
L 3553 4666 
L 4184 4666 
L 4184 0 
L 3553 0 
L 3553 2222 
L 1259 2222 
L 1259 0 
L 628 0 
L 628 4666 
z
" transform="scale(0.015625)"/>
      <path id="DejaVuSans-2d" d="M 313 2009 
L 1997 2009 
L 1997 1497 
L 313 1497 
L 313 2009 
z
" transform="scale(0.015625)"/>
      <path id="DejaVuSans-70" d="M 1159 525 
L 1159 -1331 
L 581 -1331 
L 581 3500 
L 1159 3500 
L 1159 2969 
Q 1341 3281 1617 3432 
Q 1894 3584 2278 3584 
Q 2916 3584 3314 3078 
Q 3713 2572 3713 1747 
Q 3713 922 3314 415 
Q 2916 -91 2278 -91 
Q 1894 -91 1617 61 
Q 1341 213 1159 525 
z
M 3116 1747 
Q 3116 2381 2855 2742 
Q 2594 3103 2138 3103 
Q 1681 3103 1420 2742 
Q 1159 2381 1159 1747 
Q 1159 1113 1420 752 
Q 1681 391 2138 391 
Q 2594 391 2855 752 
Q 3116 1113 3116 1747 
z
" transform="scale(0.015625)"/>
      <path id="DejaVuSans-6c" d="M 603 4863 
L 1178 4863 
L 1178 0 
L 603 0 
L 603 4863 
z
" transform="scale(0.015625)"/>
      <path id="DejaVuSans-28" d="M 1984 4856 
Q 1566 4138 1362 3434 
Q 1159 2731 1159 2009 
Q 1159 1288 1364 580 
Q 1569 -128 1984 -844 
L 1484 -844 
Q 1016 -109 783 600 
Q 550 1309 550 2009 
Q 550 2706 781 3412 
Q 1013 4119 1484 4856 
L 1984 4856 
z
" transform="scale(0.015625)"/>
      <path id="DejaVuSans-50" d="M 1259 4147 
L 1259 2394 
L 2053 2394 
Q 2494 2394 2734 2622 
Q 2975 2850 2975 3272 
Q 2975 3691 2734 3919 
Q 2494 4147 2053 4147 
L 1259 4147 
z
M 628 4666 
L 2053 4666 
Q 2838 4666 3239 4311 
Q 3641 3956 3641 3272 
Q 3641 2581 3239 2228 
Q 2838 1875 2053 1875 
L 1259 1875 
L 1259 0 
L 628 0 
L 628 4666 
z
" transform="scale(0.015625)"/>
      <path id="DejaVuSans-3d" d="M 678 2906 
L 4684 2906 
L 4684 2381 
L 678 2381 
L 678 2906 
z
M 678 1631 
L 4684 1631 
L 4684 1100 
L 678 1100 
L 678 1631 
z
" transform="scale(0.015625)"/>
      <path id="DejaVuSans-39" d="M 703 97 
L 703 672 
Q 941 559 1184 500 
Q 1428 441 1663 441 
Q 2288 441 2617 861 
Q 2947 1281 2994 2138 
Q 2813 1869 2534 1725 
Q 2256 1581 1919 1581 
Q 1219 1581 811 2004 
Q 403 2428 403 3163 
Q 403 3881 828 4315 
Q 1253 4750 1959 4750 
Q 2769 4750 3195 4129 
Q 3622 3509 3622 2328 
Q 3622 1225 3098 567 
Q 2575 -91 1691 -91 
Q 1453 -91 1209 -44 
Q 966 3 703 97 
z
M 1959 2075 
Q 2384 2075 2632 2365 
Q 2881 2656 2881 3163 
Q 2881 3666 2632 3958 
Q 2384 4250 1959 4250 
Q 1534 4250 1286 3958 
Q 1038 3666 1038 3163 
Q 1038 2656 1286 2365 
Q 1534 2075 1959 2075 
z
" transform="scale(0.015625)"/>
      <path id="DejaVuSans-29" d="M 513 4856 
L 1013 4856 
Q 1481 4119 1714 3412 
Q 1947 2706 1947 2009 
Q 1947 1309 1714 600 
Q 1481 -109 1013 -844 
L 513 -844 
Q 928 -128 1133 580 
Q 1338 1288 1338 2009 
Q 1338 2731 1133 3434 
Q 928 4138 513 4856 
z
" transform="scale(0.015625)"/>
     </defs>
     <use xlink:href="#DejaVuSans-44"/>
     <use xlink:href="#DejaVuSans-69" x="77.001953"/>
     <use xlink:href="#DejaVuSans-66" x="104.785156"/>
     <use xlink:href="#DejaVuSans-66" x="139.990234"/>
     <use xlink:href="#DejaVuSans-20" x="175.195312"/>
     <use xlink:href="#DejaVuSans-72" x="206.982422"/>
     <use xlink:href="#DejaVuSans-61" x="248.095703"/>
     <use xlink:href="#DejaVuSans-64" x="309.375"/>
     <use xlink:href="#DejaVuSans-69" x="372.851562"/>
     <use xlink:href="#DejaVuSans-61" x="400.634766"/>
     <use xlink:href="#DejaVuSans-74" x="461.914062"/>
     <use xlink:href="#DejaVuSans-69" x="501.123047"/>
     <use xlink:href="#DejaVuSans-6f" x="528.90625"/>
     <use xlink:href="#DejaVuSans-6e" x="590.087891"/>
     <use xlink:href="#DejaVuSans-20" x="653.466797"/>
     <use xlink:href="#DejaVuSans-6f" x="685.253906"/>
     <use xlink:href="#DejaVuSans-66" x="746.435547"/>
     <use xlink:href="#DejaVuSans-20" x="781.640625"/>
     <use xlink:href="#DejaVuSans-74" x="813.427734"/>
     <use xlink:href="#DejaVuSans-72" x="852.636719"/>
     <use xlink:href="#DejaVuSans-61" x="893.75"/>
     <use xlink:href="#DejaVuSans-6e" x="955.029297"/>
     <use xlink:href="#DejaVuSans-73" x="1018.408203"/>
     <use xlink:href="#DejaVuSans-66" x="1070.507812"/>
     <use xlink:href="#DejaVuSans-6f" x="1105.712891"/>
     <use xlink:href="#DejaVuSans-72" x="1166.894531"/>
     <use xlink:href="#DejaVuSans-6d" x="1206.257812"/>
     <use xlink:href="#DejaVuSans-20" x="1303.669922"/>
     <use xlink:href="#DejaVuSans-77" x="1335.457031"/>
     <use xlink:href="#DejaVuSans-2f" x="1417.244141"/>
     <use xlink:href="#DejaVuSans-6f" x="1450.935547"/>
     <use xlink:href="#DejaVuSans-20" x="1512.117188"/>
     <use xlink:href="#DejaVuSans-65" x="1543.904297"/>
     <use xlink:href="#DejaVuSans-72" x="1605.427734"/>
     <use xlink:href="#DejaVuSans-72" x="1644.791016"/>
     <use xlink:href="#DejaVuSans-6f" x="1683.654297"/>
     <use xlink:href="#DejaVuSans-72" x="1744.835938"/>
     <use xlink:href="#DejaVuSans-20" x="1785.949219"/>
     <use xlink:href="#DejaVuSans-48" x="1817.736328"/>
     <use xlink:href="#DejaVuSans-2d" x="1892.931641"/>
     <use xlink:href="#DejaVuSans-70" x="1929.015625"/>
     <use xlink:href="#DejaVuSans-6c" x="1992.492188"/>
     <use xlink:href="#DejaVuSans-61" x="2020.275391"/>
     <use xlink:href="#DejaVuSans-6e" x="2081.554688"/>
     <use xlink:href="#DejaVuSans-65" x="2144.933594"/>
     <use xlink:href="#DejaVuSans-20" x="2206.457031"/>
     <use xlink:href="#DejaVuSans-28" x="2238.244141"/>
     <use xlink:href="#DejaVuSans-50" x="2277.257812"/>
     <use xlink:href="#DejaVuSans-68" x="2337.560547"/>
     <use xlink:href="#DejaVuSans-69" x="2400.939453"/>
     <use xlink:href="#DejaVuSans-20" x="2428.722656"/>
     <use xlink:href="#DejaVuSans-3d" x="2460.509766"/>
     <use xlink:href="#DejaVuSans-20" x="2544.298828"/>
     <use xlink:href="#DejaVuSans-39" x="2576.085938"/>
     <use xlink:href="#DejaVuSans-30" x="2639.708984"/>
     <use xlink:href="#DejaVuSans-2e" x="2703.332031"/>
     <use xlink:href="#DejaVuSans-30" x="2735.119141"/>
     <use xlink:href="#DejaVuSans-29" x="2798.742188"/>
    </g>
   </g>
   <g id="legend_1">
    <g id="patch_7">
     <path d="M 187.270312 269.318125 
L 336.095312 269.318125 
Q 338.095312 269.318125 338.095312 267.318125 
L 338.095312 238.961875 
Q 338.095312 236.961875 336.095312 236.961875 
L 187.270312 236.961875 
Q 185.270312 236.961875 185.270312 238.961875 
L 185.270312 267.318125 
Q 185.270312 269.318125 187.270312 269.318125 
z
" style="fill: #ffffff; opacity: 0.8; stroke: #cccccc; stroke-linejoin: miter"/>
    </g>
    <g id="line2d_27">
     <path d="M 189.270312 245.060312 
L 199.270312 245.060312 
L 209.270312 245.060312 
" style="fill: none; stroke: #1f77b4; stroke-opacity: 0.7; stroke-width: 1.5; stroke-linecap: square"/>
    </g>
    <g id="text_16">
     <!-- Dif plot (smoothed) -->
     <g transform="translate(217.270312 248.560312) scale(0.1 -0.1)">
      <use xlink:href="#DejaVuSans-44"/>
      <use xlink:href="#DejaVuSans-69" x="77.001953"/>
      <use xlink:href="#DejaVuSans-66" x="104.785156"/>
      <use xlink:href="#DejaVuSans-20" x="139.990234"/>
      <use xlink:href="#DejaVuSans-70" x="171.777344"/>
      <use xlink:href="#DejaVuSans-6c" x="235.253906"/>
      <use xlink:href="#DejaVuSans-6f" x="263.037109"/>
      <use xlink:href="#DejaVuSans-74" x="324.21875"/>
      <use xlink:href="#DejaVuSans-20" x="363.427734"/>
      <use xlink:href="#DejaVuSans-28" x="395.214844"/>
      <use xlink:href="#DejaVuSans-73" x="434.228516"/>
      <use xlink:href="#DejaVuSans-6d" x="486.328125"/>
      <use xlink:href="#DejaVuSans-6f" x="583.740234"/>
      <use xlink:href="#DejaVuSans-6f" x="644.921875"/>
      <use xlink:href="#DejaVuSans-74" x="706.103516"/>
      <use xlink:href="#DejaVuSans-68" x="745.3125"/>
      <use xlink:href="#DejaVuSans-65" x="808.691406"/>
      <use xlink:href="#DejaVuSans-64" x="870.214844"/>
      <use xlink:href="#DejaVuSans-29" x="933.691406"/>
     </g>
    </g>
    <g id="line2d_28">
     <path d="M 189.270312 259.738437 
L 199.270312 259.738437 
L 209.270312 259.738437 
" style="fill: none; stroke: #ff7f0e; stroke-opacity: 0.7; stroke-width: 1.5; stroke-linecap: square"/>
    </g>
    <g id="text_17">
     <!-- Dif plot (not smoothed) -->
     <g transform="translate(217.270312 263.238437) scale(0.1 -0.1)">
      <use xlink:href="#DejaVuSans-44"/>
      <use xlink:href="#DejaVuSans-69" x="77.001953"/>
      <use xlink:href="#DejaVuSans-66" x="104.785156"/>
      <use xlink:href="#DejaVuSans-20" x="139.990234"/>
      <use xlink:href="#DejaVuSans-70" x="171.777344"/>
      <use xlink:href="#DejaVuSans-6c" x="235.253906"/>
      <use xlink:href="#DejaVuSans-6f" x="263.037109"/>
      <use xlink:href="#DejaVuSans-74" x="324.21875"/>
      <use xlink:href="#DejaVuSans-20" x="363.427734"/>
      <use xlink:href="#DejaVuSans-28" x="395.214844"/>
      <use xlink:href="#DejaVuSans-6e" x="434.228516"/>
      <use xlink:href="#DejaVuSans-6f" x="497.607422"/>
      <use xlink:href="#DejaVuSans-74" x="558.789062"/>
      <use xlink:href="#DejaVuSans-20" x="597.998047"/>
      <use xlink:href="#DejaVuSans-73" x="629.785156"/>
      <use xlink:href="#DejaVuSans-6d" x="681.884766"/>
      <use xlink:href="#DejaVuSans-6f" x="779.296875"/>
      <use xlink:href="#DejaVuSans-6f" x="840.478516"/>
      <use xlink:href="#DejaVuSans-74" x="901.660156"/>
      <use xlink:href="#DejaVuSans-68" x="940.869141"/>
      <use xlink:href="#DejaVuSans-65" x="1004.248047"/>
      <use xlink:href="#DejaVuSans-64" x="1065.771484"/>
      <use xlink:href="#DejaVuSans-29" x="1129.248047"/>
     </g>
    </g>
   </g>
  </g>
  <g id="axes_2">
   <g id="patch_8">
    <path d="M 38.482813 576.718125 
L 484.882812 576.718125 
L 484.882812 324.718125 
L 38.482813 324.718125 
z
" style="fill: #ffffff"/>
   </g>
   <g id="matplotlib.axis_3">
    <g id="xtick_6">
     <g id="line2d_29">
      <path d="M 105.598896 576.718125 
L 105.598896 324.718125 
" clip-path="url(#p2d2f23fd68)" style="fill: none; stroke: #b0b0b0; stroke-width: 0.8; stroke-linecap: square"/>
     </g>
     <g id="line2d_30">
      <g>
       <use xlink:href="#mfef5c1ef1f" x="105.598896" y="576.718125" style="stroke: #000000; stroke-width: 0.8"/>
      </g>
     </g>
     <g id="text_18">
      <!-- −100 -->
      <g transform="translate(91.865303 591.316562) scale(0.1 -0.1)">
       <use xlink:href="#DejaVuSans-2212"/>
       <use xlink:href="#DejaVuSans-31" x="83.789062"/>
       <use xlink:href="#DejaVuSans-30" x="147.412109"/>
       <use xlink:href="#DejaVuSans-30" x="211.035156"/>
      </g>
     </g>
    </g>
    <g id="xtick_7">
     <g id="line2d_31">
      <path d="M 183.640854 576.718125 
L 183.640854 324.718125 
" clip-path="url(#p2d2f23fd68)" style="fill: none; stroke: #b0b0b0; stroke-width: 0.8; stroke-linecap: square"/>
     </g>
     <g id="line2d_32">
      <g>
       <use xlink:href="#mfef5c1ef1f" x="183.640854" y="576.718125" style="stroke: #000000; stroke-width: 0.8"/>
      </g>
     </g>
     <g id="text_19">
      <!-- −50 -->
      <g transform="translate(173.088511 591.316562) scale(0.1 -0.1)">
       <use xlink:href="#DejaVuSans-2212"/>
       <use xlink:href="#DejaVuSans-35" x="83.789062"/>
       <use xlink:href="#DejaVuSans-30" x="147.412109"/>
      </g>
     </g>
    </g>
    <g id="xtick_8">
     <g id="line2d_33">
      <path d="M 261.682813 576.718125 
L 261.682813 324.718125 
" clip-path="url(#p2d2f23fd68)" style="fill: none; stroke: #b0b0b0; stroke-width: 0.8; stroke-linecap: square"/>
     </g>
     <g id="line2d_34">
      <g>
       <use xlink:href="#mfef5c1ef1f" x="261.682813" y="576.718125" style="stroke: #000000; stroke-width: 0.8"/>
      </g>
     </g>
     <g id="text_20">
      <!-- 0 -->
      <g transform="translate(258.501563 591.316562) scale(0.1 -0.1)">
       <use xlink:href="#DejaVuSans-30"/>
      </g>
     </g>
    </g>
    <g id="xtick_9">
     <g id="line2d_35">
      <path d="M 339.724771 576.718125 
L 339.724771 324.718125 
" clip-path="url(#p2d2f23fd68)" style="fill: none; stroke: #b0b0b0; stroke-width: 0.8; stroke-linecap: square"/>
     </g>
     <g id="line2d_36">
      <g>
       <use xlink:href="#mfef5c1ef1f" x="339.724771" y="576.718125" style="stroke: #000000; stroke-width: 0.8"/>
      </g>
     </g>
     <g id="text_21">
      <!-- 50 -->
      <g transform="translate(333.362271 591.316562) scale(0.1 -0.1)">
       <use xlink:href="#DejaVuSans-35"/>
       <use xlink:href="#DejaVuSans-30" x="63.623047"/>
      </g>
     </g>
    </g>
    <g id="xtick_10">
     <g id="line2d_37">
      <path d="M 417.766729 576.718125 
L 417.766729 324.718125 
" clip-path="url(#p2d2f23fd68)" style="fill: none; stroke: #b0b0b0; stroke-width: 0.8; stroke-linecap: square"/>
     </g>
     <g id="line2d_38">
      <g>
       <use xlink:href="#mfef5c1ef1f" x="417.766729" y="576.718125" style="stroke: #000000; stroke-width: 0.8"/>
      </g>
     </g>
     <g id="text_22">
      <!-- 100 -->
      <g transform="translate(408.222979 591.316562) scale(0.1 -0.1)">
       <use xlink:href="#DejaVuSans-31"/>
       <use xlink:href="#DejaVuSans-30" x="63.623047"/>
       <use xlink:href="#DejaVuSans-30" x="127.246094"/>
      </g>
     </g>
    </g>
    <g id="text_23">
     <!-- Theta -->
     <g transform="translate(247.359375 604.994687) scale(0.1 -0.1)">
      <use xlink:href="#DejaVuSans-54"/>
      <use xlink:href="#DejaVuSans-68" x="61.083984"/>
      <use xlink:href="#DejaVuSans-65" x="124.462891"/>
      <use xlink:href="#DejaVuSans-74" x="185.986328"/>
      <use xlink:href="#DejaVuSans-61" x="225.195312"/>
     </g>
    </g>
   </g>
   <g id="matplotlib.axis_4">
    <g id="ytick_8">
     <g id="line2d_39">
      <path d="M 38.482813 540.874271 
L 484.882812 540.874271 
" clip-path="url(#p2d2f23fd68)" style="fill: none; stroke: #b0b0b0; stroke-width: 0.8; stroke-linecap: square"/>
     </g>
     <g id="line2d_40">
      <g>
       <use xlink:href="#m1fcb3d7d82" x="38.482813" y="540.874271" style="stroke: #000000; stroke-width: 0.8"/>
      </g>
     </g>
     <g id="text_24">
      <!-- −2.5 -->
      <g transform="translate(7.2 544.67349) scale(0.1 -0.1)">
       <use xlink:href="#DejaVuSans-2212"/>
       <use xlink:href="#DejaVuSans-32" x="83.789062"/>
       <use xlink:href="#DejaVuSans-2e" x="147.412109"/>
       <use xlink:href="#DejaVuSans-35" x="179.199219"/>
      </g>
     </g>
    </g>
    <g id="ytick_9">
     <g id="line2d_41">
      <path d="M 38.482813 499.933951 
L 484.882812 499.933951 
" clip-path="url(#p2d2f23fd68)" style="fill: none; stroke: #b0b0b0; stroke-width: 0.8; stroke-linecap: square"/>
     </g>
     <g id="line2d_42">
      <g>
       <use xlink:href="#m1fcb3d7d82" x="38.482813" y="499.933951" style="stroke: #000000; stroke-width: 0.8"/>
      </g>
     </g>
     <g id="text_25">
      <!-- −2.0 -->
      <g transform="translate(7.2 503.73317) scale(0.1 -0.1)">
       <use xlink:href="#DejaVuSans-2212"/>
       <use xlink:href="#DejaVuSans-32" x="83.789062"/>
       <use xlink:href="#DejaVuSans-2e" x="147.412109"/>
       <use xlink:href="#DejaVuSans-30" x="179.199219"/>
      </g>
     </g>
    </g>
    <g id="ytick_10">
     <g id="line2d_43">
      <path d="M 38.482813 458.993631 
L 484.882812 458.993631 
" clip-path="url(#p2d2f23fd68)" style="fill: none; stroke: #b0b0b0; stroke-width: 0.8; stroke-linecap: square"/>
     </g>
     <g id="line2d_44">
      <g>
       <use xlink:href="#m1fcb3d7d82" x="38.482813" y="458.993631" style="stroke: #000000; stroke-width: 0.8"/>
      </g>
     </g>
     <g id="text_26">
      <!-- −1.5 -->
      <g transform="translate(7.2 462.79285) scale(0.1 -0.1)">
       <use xlink:href="#DejaVuSans-2212"/>
       <use xlink:href="#DejaVuSans-31" x="83.789062"/>
       <use xlink:href="#DejaVuSans-2e" x="147.412109"/>
       <use xlink:href="#DejaVuSans-35" x="179.199219"/>
      </g>
     </g>
    </g>
    <g id="ytick_11">
     <g id="line2d_45">
      <path d="M 38.482813 418.053311 
L 484.882812 418.053311 
" clip-path="url(#p2d2f23fd68)" style="fill: none; stroke: #b0b0b0; stroke-width: 0.8; stroke-linecap: square"/>
     </g>
     <g id="line2d_46">
      <g>
       <use xlink:href="#m1fcb3d7d82" x="38.482813" y="418.053311" style="stroke: #000000; stroke-width: 0.8"/>
      </g>
     </g>
     <g id="text_27">
      <!-- −1.0 -->
      <g transform="translate(7.2 421.85253) scale(0.1 -0.1)">
       <use xlink:href="#DejaVuSans-2212"/>
       <use xlink:href="#DejaVuSans-31" x="83.789062"/>
       <use xlink:href="#DejaVuSans-2e" x="147.412109"/>
       <use xlink:href="#DejaVuSans-30" x="179.199219"/>
      </g>
     </g>
    </g>
    <g id="ytick_12">
     <g id="line2d_47">
      <path d="M 38.482813 377.112991 
L 484.882812 377.112991 
" clip-path="url(#p2d2f23fd68)" style="fill: none; stroke: #b0b0b0; stroke-width: 0.8; stroke-linecap: square"/>
     </g>
     <g id="line2d_48">
      <g>
       <use xlink:href="#m1fcb3d7d82" x="38.482813" y="377.112991" style="stroke: #000000; stroke-width: 0.8"/>
      </g>
     </g>
     <g id="text_28">
      <!-- −0.5 -->
      <g transform="translate(7.2 380.912209) scale(0.1 -0.1)">
       <use xlink:href="#DejaVuSans-2212"/>
       <use xlink:href="#DejaVuSans-30" x="83.789062"/>
       <use xlink:href="#DejaVuSans-2e" x="147.412109"/>
       <use xlink:href="#DejaVuSans-35" x="179.199219"/>
      </g>
     </g>
    </g>
    <g id="ytick_13">
     <g id="line2d_49">
      <path d="M 38.482813 336.17267 
L 484.882812 336.17267 
" clip-path="url(#p2d2f23fd68)" style="fill: none; stroke: #b0b0b0; stroke-width: 0.8; stroke-linecap: square"/>
     </g>
     <g id="line2d_50">
      <g>
       <use xlink:href="#m1fcb3d7d82" x="38.482813" y="336.17267" style="stroke: #000000; stroke-width: 0.8"/>
      </g>
     </g>
     <g id="text_29">
      <!-- 0.0 -->
      <g transform="translate(15.579688 339.971889) scale(0.1 -0.1)">
       <use xlink:href="#DejaVuSans-30"/>
       <use xlink:href="#DejaVuSans-2e" x="63.623047"/>
       <use xlink:href="#DejaVuSans-30" x="95.410156"/>
      </g>
     </g>
    </g>
    <g id="text_30">
     <!-- 1e13 -->
     <g transform="translate(38.482813 321.718125) scale(0.1 -0.1)">
      <use xlink:href="#DejaVuSans-31"/>
      <use xlink:href="#DejaVuSans-65" x="63.623047"/>
      <use xlink:href="#DejaVuSans-31" x="125.146484"/>
      <use xlink:href="#DejaVuSans-33" x="188.769531"/>
     </g>
    </g>
   </g>
   <g id="line2d_51">
    <path d="M 58.773722 336.17267 
L 66.577917 336.17267 
L 74.382113 336.17267 
L 82.186309 336.17267 
L 89.990505 336.17267 
L 97.794701 336.17267 
L 105.598896 336.17267 
L 113.403092 336.17267 
L 121.207288 336.17267 
L 129.011484 336.17267 
L 136.81568 336.17267 
L 144.619875 336.17267 
L 152.424071 336.17267 
L 160.228267 336.17267 
L 168.032463 336.17267 
L 175.836659 336.17267 
L 183.640854 336.17267 
L 191.44505 336.17267 
L 199.249246 336.17267 
L 207.053442 336.17267 
L 214.857638 336.17267 
L 222.661833 336.17267 
L 230.466029 336.17267 
L 238.270225 336.17267 
L 246.074421 336.17267 
L 253.878617 336.17267 
L 261.682813 336.17267 
L 269.487008 336.17267 
L 277.291204 336.17267 
L 285.0954 336.17267 
L 292.899596 336.17267 
L 300.703792 336.17267 
L 308.507987 336.17267 
L 316.312183 336.17267 
L 324.116379 336.17267 
L 331.920575 336.17267 
L 339.724771 336.17267 
L 347.528966 336.17267 
L 355.333162 336.17267 
L 363.137358 336.17267 
L 370.941554 336.17267 
L 378.74575 336.17267 
L 386.549945 336.17267 
L 394.354141 336.17267 
L 402.158337 336.17267 
L 409.962533 336.17267 
L 417.766729 336.17267 
L 425.570924 336.17267 
L 433.37512 336.17267 
L 441.179316 336.17267 
L 448.983512 336.17267 
L 456.787708 336.17267 
L 464.591903 336.17267 
" clip-path="url(#p2d2f23fd68)" style="fill: none; stroke: #1f77b4; stroke-opacity: 0.7; stroke-width: 1.5; stroke-linecap: square"/>
   </g>
   <g id="line2d_52">
    <path d="M 58.773722 408.878725 
L 66.577917 376.01069 
L 74.382113 342.144495 
L 82.186309 424.093344 
L 89.990505 398.253063 
L 97.794701 465.337592 
L 105.598896 383.866477 
L 113.403092 454.744709 
L 121.207288 522.792443 
L 129.011484 395.49448 
L 136.81568 439.638481 
L 144.619875 361.276919 
L 152.424071 371.498634 
L 160.228267 384.92696 
L 168.032463 392.007942 
L 175.836659 466.829011 
L 183.640854 466.042672 
L 191.44505 354.29287 
L 199.249246 383.275721 
L 207.053442 371.723154 
L 214.857638 352.336871 
L 222.661833 346.541326 
L 230.466029 346.354062 
L 238.270225 338.252263 
L 246.074421 345.856929 
L 253.878617 345.513002 
L 261.682813 336.17267 
L 269.487008 339.16938 
L 277.291204 341.67893 
L 285.0954 344.868514 
L 292.899596 348.044455 
L 300.703792 337.765717 
L 308.507987 363.198561 
L 316.312183 364.835218 
L 324.116379 343.211327 
L 331.920575 404.955652 
L 339.724771 373.695496 
L 347.528966 496.887835 
L 355.333162 376.275007 
L 363.137358 360.113864 
L 370.941554 460.472602 
L 378.74575 535.062954 
L 386.549945 516.521822 
L 394.354141 432.077727 
L 402.158337 565.26358 
L 409.962533 413.346927 
L 417.766729 355.178176 
L 425.570924 358.144863 
L 433.37512 390.057675 
L 441.179316 357.459115 
L 448.983512 454.248022 
L 456.787708 415.778297 
L 464.591903 337.217005 
" clip-path="url(#p2d2f23fd68)" style="fill: none; stroke: #ff7f0e; stroke-opacity: 0.7; stroke-width: 1.5; stroke-linecap: square"/>
   </g>
   <g id="patch_9">
    <path d="M 38.482813 576.718125 
L 38.482813 324.718125 
" style="fill: none; stroke: #000000; stroke-width: 0.8; stroke-linejoin: miter; stroke-linecap: square"/>
   </g>
   <g id="patch_10">
    <path d="M 484.882812 576.718125 
L 484.882812 324.718125 
" style="fill: none; stroke: #000000; stroke-width: 0.8; stroke-linejoin: miter; stroke-linecap: square"/>
   </g>
   <g id="patch_11">
    <path d="M 38.482813 576.718125 
L 484.882812 576.718125 
" style="fill: none; stroke: #000000; stroke-width: 0.8; stroke-linejoin: miter; stroke-linecap: square"/>
   </g>
   <g id="patch_12">
    <path d="M 38.482813 324.718125 
L 484.882812 324.718125 
" style="fill: none; stroke: #000000; stroke-width: 0.8; stroke-linejoin: miter; stroke-linecap: square"/>
   </g>
   <g id="text_31">
    <!-- Diff radiation of transform w/o error E-plane (Phi = 0.0) -->
    <g transform="translate(95.96 318.718125) scale(0.12 -0.12)">
     <defs>
      <path id="DejaVuSans-45" d="M 628 4666 
L 3578 4666 
L 3578 4134 
L 1259 4134 
L 1259 2753 
L 3481 2753 
L 3481 2222 
L 1259 2222 
L 1259 531 
L 3634 531 
L 3634 0 
L 628 0 
L 628 4666 
z
" transform="scale(0.015625)"/>
     </defs>
     <use xlink:href="#DejaVuSans-44"/>
     <use xlink:href="#DejaVuSans-69" x="77.001953"/>
     <use xlink:href="#DejaVuSans-66" x="104.785156"/>
     <use xlink:href="#DejaVuSans-66" x="139.990234"/>
     <use xlink:href="#DejaVuSans-20" x="175.195312"/>
     <use xlink:href="#DejaVuSans-72" x="206.982422"/>
     <use xlink:href="#DejaVuSans-61" x="248.095703"/>
     <use xlink:href="#DejaVuSans-64" x="309.375"/>
     <use xlink:href="#DejaVuSans-69" x="372.851562"/>
     <use xlink:href="#DejaVuSans-61" x="400.634766"/>
     <use xlink:href="#DejaVuSans-74" x="461.914062"/>
     <use xlink:href="#DejaVuSans-69" x="501.123047"/>
     <use xlink:href="#DejaVuSans-6f" x="528.90625"/>
     <use xlink:href="#DejaVuSans-6e" x="590.087891"/>
     <use xlink:href="#DejaVuSans-20" x="653.466797"/>
     <use xlink:href="#DejaVuSans-6f" x="685.253906"/>
     <use xlink:href="#DejaVuSans-66" x="746.435547"/>
     <use xlink:href="#DejaVuSans-20" x="781.640625"/>
     <use xlink:href="#DejaVuSans-74" x="813.427734"/>
     <use xlink:href="#DejaVuSans-72" x="852.636719"/>
     <use xlink:href="#DejaVuSans-61" x="893.75"/>
     <use xlink:href="#DejaVuSans-6e" x="955.029297"/>
     <use xlink:href="#DejaVuSans-73" x="1018.408203"/>
     <use xlink:href="#DejaVuSans-66" x="1070.507812"/>
     <use xlink:href="#DejaVuSans-6f" x="1105.712891"/>
     <use xlink:href="#DejaVuSans-72" x="1166.894531"/>
     <use xlink:href="#DejaVuSans-6d" x="1206.257812"/>
     <use xlink:href="#DejaVuSans-20" x="1303.669922"/>
     <use xlink:href="#DejaVuSans-77" x="1335.457031"/>
     <use xlink:href="#DejaVuSans-2f" x="1417.244141"/>
     <use xlink:href="#DejaVuSans-6f" x="1450.935547"/>
     <use xlink:href="#DejaVuSans-20" x="1512.117188"/>
     <use xlink:href="#DejaVuSans-65" x="1543.904297"/>
     <use xlink:href="#DejaVuSans-72" x="1605.427734"/>
     <use xlink:href="#DejaVuSans-72" x="1644.791016"/>
     <use xlink:href="#DejaVuSans-6f" x="1683.654297"/>
     <use xlink:href="#DejaVuSans-72" x="1744.835938"/>
     <use xlink:href="#DejaVuSans-20" x="1785.949219"/>
     <use xlink:href="#DejaVuSans-45" x="1817.736328"/>
     <use xlink:href="#DejaVuSans-2d" x="1880.919922"/>
     <use xlink:href="#DejaVuSans-70" x="1917.003906"/>
     <use xlink:href="#DejaVuSans-6c" x="1980.480469"/>
     <use xlink:href="#DejaVuSans-61" x="2008.263672"/>
     <use xlink:href="#DejaVuSans-6e" x="2069.542969"/>
     <use xlink:href="#DejaVuSans-65" x="2132.921875"/>
     <use xlink:href="#DejaVuSans-20" x="2194.445312"/>
     <use xlink:href="#DejaVuSans-28" x="2226.232422"/>
     <use xlink:href="#DejaVuSans-50" x="2265.246094"/>
     <use xlink:href="#DejaVuSans-68" x="2325.548828"/>
     <use xlink:href="#DejaVuSans-69" x="2388.927734"/>
     <use xlink:href="#DejaVuSans-20" x="2416.710938"/>
     <use xlink:href="#DejaVuSans-3d" x="2448.498047"/>
     <use xlink:href="#DejaVuSans-20" x="2532.287109"/>
     <use xlink:href="#DejaVuSans-30" x="2564.074219"/>
     <use xlink:href="#DejaVuSans-2e" x="2627.697266"/>
     <use xlink:href="#DejaVuSans-30" x="2659.484375"/>
     <use xlink:href="#DejaVuSans-29" x="2723.107422"/>
    </g>
   </g>
   <g id="legend_2">
    <g id="patch_13">
     <path d="M 45.482813 571.718125 
L 194.307813 571.718125 
Q 196.307813 571.718125 196.307813 569.718125 
L 196.307813 541.361875 
Q 196.307813 539.361875 194.307813 539.361875 
L 45.482813 539.361875 
Q 43.482813 539.361875 43.482813 541.361875 
L 43.482813 569.718125 
Q 43.482813 571.718125 45.482813 571.718125 
z
" style="fill: #ffffff; opacity: 0.8; stroke: #cccccc; stroke-linejoin: miter"/>
    </g>
    <g id="line2d_53">
     <path d="M 47.482813 547.460312 
L 57.482813 547.460312 
L 67.482813 547.460312 
" style="fill: none; stroke: #1f77b4; stroke-opacity: 0.7; stroke-width: 1.5; stroke-linecap: square"/>
    </g>
    <g id="text_32">
     <!-- Dif plot (smoothed) -->
     <g transform="translate(75.482813 550.960312) scale(0.1 -0.1)">
      <use xlink:href="#DejaVuSans-44"/>
      <use xlink:href="#DejaVuSans-69" x="77.001953"/>
      <use xlink:href="#DejaVuSans-66" x="104.785156"/>
      <use xlink:href="#DejaVuSans-20" x="139.990234"/>
      <use xlink:href="#DejaVuSans-70" x="171.777344"/>
      <use xlink:href="#DejaVuSans-6c" x="235.253906"/>
      <use xlink:href="#DejaVuSans-6f" x="263.037109"/>
      <use xlink:href="#DejaVuSans-74" x="324.21875"/>
      <use xlink:href="#DejaVuSans-20" x="363.427734"/>
      <use xlink:href="#DejaVuSans-28" x="395.214844"/>
      <use xlink:href="#DejaVuSans-73" x="434.228516"/>
      <use xlink:href="#DejaVuSans-6d" x="486.328125"/>
      <use xlink:href="#DejaVuSans-6f" x="583.740234"/>
      <use xlink:href="#DejaVuSans-6f" x="644.921875"/>
      <use xlink:href="#DejaVuSans-74" x="706.103516"/>
      <use xlink:href="#DejaVuSans-68" x="745.3125"/>
      <use xlink:href="#DejaVuSans-65" x="808.691406"/>
      <use xlink:href="#DejaVuSans-64" x="870.214844"/>
      <use xlink:href="#DejaVuSans-29" x="933.691406"/>
     </g>
    </g>
    <g id="line2d_54">
     <path d="M 47.482813 562.138438 
L 57.482813 562.138438 
L 67.482813 562.138438 
" style="fill: none; stroke: #ff7f0e; stroke-opacity: 0.7; stroke-width: 1.5; stroke-linecap: square"/>
    </g>
    <g id="text_33">
     <!-- Dif plot (not smoothed) -->
     <g transform="translate(75.482813 565.638438) scale(0.1 -0.1)">
      <use xlink:href="#DejaVuSans-44"/>
      <use xlink:href="#DejaVuSans-69" x="77.001953"/>
      <use xlink:href="#DejaVuSans-66" x="104.785156"/>
      <use xlink:href="#DejaVuSans-20" x="139.990234"/>
      <use xlink:href="#DejaVuSans-70" x="171.777344"/>
      <use xlink:href="#DejaVuSans-6c" x="235.253906"/>
      <use xlink:href="#DejaVuSans-6f" x="263.037109"/>
      <use xlink:href="#DejaVuSans-74" x="324.21875"/>
      <use xlink:href="#DejaVuSans-20" x="363.427734"/>
      <use xlink:href="#DejaVuSans-28" x="395.214844"/>
      <use xlink:href="#DejaVuSans-6e" x="434.228516"/>
      <use xlink:href="#DejaVuSans-6f" x="497.607422"/>
      <use xlink:href="#DejaVuSans-74" x="558.789062"/>
      <use xlink:href="#DejaVuSans-20" x="597.998047"/>
      <use xlink:href="#DejaVuSans-73" x="629.785156"/>
      <use xlink:href="#DejaVuSans-6d" x="681.884766"/>
      <use xlink:href="#DejaVuSans-6f" x="779.296875"/>
      <use xlink:href="#DejaVuSans-6f" x="840.478516"/>
      <use xlink:href="#DejaVuSans-74" x="901.660156"/>
      <use xlink:href="#DejaVuSans-68" x="940.869141"/>
      <use xlink:href="#DejaVuSans-65" x="1004.248047"/>
      <use xlink:href="#DejaVuSans-64" x="1065.771484"/>
      <use xlink:href="#DejaVuSans-29" x="1129.248047"/>
     </g>
    </g>
   </g>
  </g>
 </g>
 <defs>
  <clipPath id="p25e888f8dd">
   <rect x="38.482813" y="22.318125" width="446.4" height="252"/>
  </clipPath>
  <clipPath id="p2d2f23fd68">
   <rect x="38.482813" y="324.718125" width="446.4" height="252"/>
  </clipPath>
 </defs>
</svg>
