<?xml version="1.0" encoding="utf-8" standalone="no"?>
<!DOCTYPE svg PUBLIC "-//W3C//DTD SVG 1.1//EN"
  "http://www.w3.org/Graphics/SVG/1.1/DTD/svg11.dtd">
<svg xmlns:xlink="http://www.w3.org/1999/xlink" width="417.245pt" height="229.523523pt" viewBox="0 0 417.245 229.523523" xmlns="http://www.w3.org/2000/svg" version="1.1">
 <metadata>
  <rdf:RDF xmlns:dc="http://purl.org/dc/elements/1.1/" xmlns:cc="http://creativecommons.org/ns#" xmlns:rdf="http://www.w3.org/1999/02/22-rdf-syntax-ns#">
   <cc:Work>
    <dc:type rdf:resource="http://purl.org/dc/dcmitype/StillImage"/>
    <dc:date>2024-12-13T11:53:39.910125</dc:date>
    <dc:format>image/svg+xml</dc:format>
    <dc:creator>
     <cc:Agent>
      <dc:title>Matplotlib v3.8.3, https://matplotlib.org/</dc:title>
     </cc:Agent>
    </dc:creator>
   </cc:Work>
  </rdf:RDF>
 </metadata>
 <defs>
  <style type="text/css">*{stroke-linejoin: round; stroke-linecap: butt}</style>
 </defs>
 <g id="figure_1">
  <g id="patch_1">
   <path d="M 0 229.523523 
L 417.245 229.523523 
L 417.245 0 
L 0 0 
z
" style="fill: #ffffff"/>
  </g>
  <g id="axes_1">
   <g id="patch_2">
    <path d="M 195.571023 122.320824 
C 195.571023 111.662513 193.471568 101.10784 189.392809 91.260845 
C 185.31405 81.413849 179.335308 72.46603 171.798744 64.929466 
C 164.26218 57.392902 155.314361 51.414161 145.467365 47.335401 
C 135.62037 43.256642 125.065697 41.157188 114.407386 41.157188 
C 103.749075 41.157188 93.194403 43.256642 83.347407 47.335401 
C 73.500412 51.414161 64.552593 57.392902 57.016029 64.929466 
C 49.479465 72.46603 43.500723 81.413849 39.421964 91.260845 
C 35.343205 101.10784 33.24375 111.662513 33.24375 122.320824 
C 33.24375 132.979135 35.343205 143.533807 39.421964 153.380803 
C 43.500723 163.227798 49.479465 172.175617 57.016029 179.712182 
C 64.552593 187.248746 73.500412 193.227487 83.347407 197.306246 
C 93.194403 201.385005 103.749075 203.48446 114.407386 203.48446 
C 125.065697 203.48446 135.62037 201.385005 145.467365 197.306246 
C 155.314361 193.227487 164.26218 187.248746 171.798744 179.712182 
C 179.335308 172.175617 185.31405 163.227798 189.392809 153.380803 
C 193.471568 143.533807 195.571023 132.979135 195.571023 122.320824 
M 114.407386 122.320824 
C 114.407386 122.320824 114.407386 122.320824 114.407386 122.320824 
C 114.407386 122.320824 114.407386 122.320824 114.407386 122.320824 
C 114.407386 122.320824 114.407386 122.320824 114.407386 122.320824 
C 114.407386 122.320824 114.407386 122.320824 114.407386 122.320824 
C 114.407386 122.320824 114.407386 122.320824 114.407386 122.320824 
C 114.407386 122.320824 114.407386 122.320824 114.407386 122.320824 
C 114.407386 122.320824 114.407386 122.320824 114.407386 122.320824 
C 114.407386 122.320824 114.407386 122.320824 114.407386 122.320824 
C 114.407386 122.320824 114.407386 122.320824 114.407386 122.320824 
C 114.407386 122.320824 114.407386 122.320824 114.407386 122.320824 
C 114.407386 122.320824 114.407386 122.320824 114.407386 122.320824 
C 114.407386 122.320824 114.407386 122.320824 114.407386 122.320824 
C 114.407386 122.320824 114.407386 122.320824 114.407386 122.320824 
C 114.407386 122.320824 114.407386 122.320824 114.407386 122.320824 
C 114.407386 122.320824 114.407386 122.320824 114.407386 122.320824 
C 114.407386 122.320824 114.407386 122.320824 114.407386 122.320824 
z
" style="fill: #ffffff"/>
   </g>
   <g id="matplotlib.axis_1">
    <g id="xtick_1">
     <g id="line2d_1">
      <path d="M 114.407386 122.320824 
L 195.571023 122.320824 
" clip-path="url(#p18b9ea5e04)" style="fill: none; stroke: #b0b0b0; stroke-width: 0.8; stroke-linecap: square"/>
     </g>
     <g id="text_1">
      <!-- 0° -->
      <g transform="translate(203.889773 125.080199) scale(0.1 -0.1)">
       <defs>
        <path id="DejaVuSans-30" d="M 2034 4250 
Q 1547 4250 1301 3770 
Q 1056 3291 1056 2328 
Q 1056 1369 1301 889 
Q 1547 409 2034 409 
Q 2525 409 2770 889 
Q 3016 1369 3016 2328 
Q 3016 3291 2770 3770 
Q 2525 4250 2034 4250 
z
M 2034 4750 
Q 2819 4750 3233 4129 
Q 3647 3509 3647 2328 
Q 3647 1150 3233 529 
Q 2819 -91 2034 -91 
Q 1250 -91 836 529 
Q 422 1150 422 2328 
Q 422 3509 836 4129 
Q 1250 4750 2034 4750 
z
" transform="scale(0.015625)"/>
        <path id="DejaVuSans-b0" d="M 1600 4347 
Q 1350 4347 1178 4173 
Q 1006 4000 1006 3750 
Q 1006 3503 1178 3333 
Q 1350 3163 1600 3163 
Q 1850 3163 2022 3333 
Q 2194 3503 2194 3750 
Q 2194 3997 2020 4172 
Q 1847 4347 1600 4347 
z
M 1600 4750 
Q 1800 4750 1984 4673 
Q 2169 4597 2303 4453 
Q 2447 4313 2519 4134 
Q 2591 3956 2591 3750 
Q 2591 3338 2302 3052 
Q 2013 2766 1594 2766 
Q 1172 2766 890 3047 
Q 609 3328 609 3750 
Q 609 4169 896 4459 
Q 1184 4750 1600 4750 
z
" transform="scale(0.015625)"/>
       </defs>
       <use xlink:href="#DejaVuSans-30"/>
       <use xlink:href="#DejaVuSans-b0" x="63.623047"/>
      </g>
     </g>
    </g>
    <g id="xtick_2">
     <g id="line2d_2">
      <path d="M 114.407386 122.320824 
L 171.798744 64.929466 
" clip-path="url(#p18b9ea5e04)" style="fill: none; stroke: #b0b0b0; stroke-width: 0.8; stroke-linecap: square"/>
     </g>
     <g id="text_2">
      <!-- 45° -->
      <g transform="translate(172.835739 57.789346) scale(0.1 -0.1)">
       <defs>
        <path id="DejaVuSans-34" d="M 2419 4116 
L 825 1625 
L 2419 1625 
L 2419 4116 
z
M 2253 4666 
L 3047 4666 
L 3047 1625 
L 3713 1625 
L 3713 1100 
L 3047 1100 
L 3047 0 
L 2419 0 
L 2419 1100 
L 313 1100 
L 313 1709 
L 2253 4666 
z
" transform="scale(0.015625)"/>
        <path id="DejaVuSans-35" d="M 691 4666 
L 3169 4666 
L 3169 4134 
L 1269 4134 
L 1269 2991 
Q 1406 3038 1543 3061 
Q 1681 3084 1819 3084 
Q 2600 3084 3056 2656 
Q 3513 2228 3513 1497 
Q 3513 744 3044 326 
Q 2575 -91 1722 -91 
Q 1428 -91 1123 -41 
Q 819 9 494 109 
L 494 744 
Q 775 591 1075 516 
Q 1375 441 1709 441 
Q 2250 441 2565 725 
Q 2881 1009 2881 1497 
Q 2881 1984 2565 2268 
Q 2250 2553 1709 2553 
Q 1456 2553 1204 2497 
Q 953 2441 691 2322 
L 691 4666 
z
" transform="scale(0.015625)"/>
       </defs>
       <use xlink:href="#DejaVuSans-34"/>
       <use xlink:href="#DejaVuSans-35" x="63.623047"/>
       <use xlink:href="#DejaVuSans-b0" x="127.246094"/>
      </g>
     </g>
    </g>
    <g id="xtick_3">
     <g id="line2d_3">
      <path d="M 114.407386 122.320824 
L 114.407386 41.157188 
" clip-path="url(#p18b9ea5e04)" style="fill: none; stroke: #b0b0b0; stroke-width: 0.8; stroke-linecap: square"/>
     </g>
     <g id="text_3">
      <!-- 90° -->
      <g transform="translate(105.544886 29.916563) scale(0.1 -0.1)">
       <defs>
        <path id="DejaVuSans-39" d="M 703 97 
L 703 672 
Q 941 559 1184 500 
Q 1428 441 1663 441 
Q 2288 441 2617 861 
Q 2947 1281 2994 2138 
Q 2813 1869 2534 1725 
Q 2256 1581 1919 1581 
Q 1219 1581 811 2004 
Q 403 2428 403 3163 
Q 403 3881 828 4315 
Q 1253 4750 1959 4750 
Q 2769 4750 3195 4129 
Q 3622 3509 3622 2328 
Q 3622 1225 3098 567 
Q 2575 -91 1691 -91 
Q 1453 -91 1209 -44 
Q 966 3 703 97 
z
M 1959 2075 
Q 2384 2075 2632 2365 
Q 2881 2656 2881 3163 
Q 2881 3666 2632 3958 
Q 2384 4250 1959 4250 
Q 1534 4250 1286 3958 
Q 1038 3666 1038 3163 
Q 1038 2656 1286 2365 
Q 1534 2075 1959 2075 
z
" transform="scale(0.015625)"/>
       </defs>
       <use xlink:href="#DejaVuSans-39"/>
       <use xlink:href="#DejaVuSans-30" x="63.623047"/>
       <use xlink:href="#DejaVuSans-b0" x="127.246094"/>
      </g>
     </g>
    </g>
    <g id="xtick_4">
     <g id="line2d_4">
      <path d="M 114.407386 122.320824 
L 57.016029 64.929466 
" clip-path="url(#p18b9ea5e04)" style="fill: none; stroke: #b0b0b0; stroke-width: 0.8; stroke-linecap: square"/>
     </g>
     <g id="text_4">
      <!-- 135° -->
      <g transform="translate(35.072784 57.789346) scale(0.1 -0.1)">
       <defs>
        <path id="DejaVuSans-31" d="M 794 531 
L 1825 531 
L 1825 4091 
L 703 3866 
L 703 4441 
L 1819 4666 
L 2450 4666 
L 2450 531 
L 3481 531 
L 3481 0 
L 794 0 
L 794 531 
z
" transform="scale(0.015625)"/>
        <path id="DejaVuSans-33" d="M 2597 2516 
Q 3050 2419 3304 2112 
Q 3559 1806 3559 1356 
Q 3559 666 3084 287 
Q 2609 -91 1734 -91 
Q 1441 -91 1130 -33 
Q 819 25 488 141 
L 488 750 
Q 750 597 1062 519 
Q 1375 441 1716 441 
Q 2309 441 2620 675 
Q 2931 909 2931 1356 
Q 2931 1769 2642 2001 
Q 2353 2234 1838 2234 
L 1294 2234 
L 1294 2753 
L 1863 2753 
Q 2328 2753 2575 2939 
Q 2822 3125 2822 3475 
Q 2822 3834 2567 4026 
Q 2313 4219 1838 4219 
Q 1578 4219 1281 4162 
Q 984 4106 628 3988 
L 628 4550 
Q 988 4650 1302 4700 
Q 1616 4750 1894 4750 
Q 2613 4750 3031 4423 
Q 3450 4097 3450 3541 
Q 3450 3153 3228 2886 
Q 3006 2619 2597 2516 
z
" transform="scale(0.015625)"/>
       </defs>
       <use xlink:href="#DejaVuSans-31"/>
       <use xlink:href="#DejaVuSans-33" x="63.623047"/>
       <use xlink:href="#DejaVuSans-35" x="127.246094"/>
       <use xlink:href="#DejaVuSans-b0" x="190.869141"/>
      </g>
     </g>
    </g>
    <g id="xtick_5">
     <g id="line2d_5">
      <path d="M 114.407386 122.320824 
L 33.24375 122.320824 
" clip-path="url(#p18b9ea5e04)" style="fill: none; stroke: #b0b0b0; stroke-width: 0.8; stroke-linecap: square"/>
     </g>
     <g id="text_5">
      <!-- 180° -->
      <g transform="translate(7.2 125.080199) scale(0.1 -0.1)">
       <defs>
        <path id="DejaVuSans-38" d="M 2034 2216 
Q 1584 2216 1326 1975 
Q 1069 1734 1069 1313 
Q 1069 891 1326 650 
Q 1584 409 2034 409 
Q 2484 409 2743 651 
Q 3003 894 3003 1313 
Q 3003 1734 2745 1975 
Q 2488 2216 2034 2216 
z
M 1403 2484 
Q 997 2584 770 2862 
Q 544 3141 544 3541 
Q 544 4100 942 4425 
Q 1341 4750 2034 4750 
Q 2731 4750 3128 4425 
Q 3525 4100 3525 3541 
Q 3525 3141 3298 2862 
Q 3072 2584 2669 2484 
Q 3125 2378 3379 2068 
Q 3634 1759 3634 1313 
Q 3634 634 3220 271 
Q 2806 -91 2034 -91 
Q 1263 -91 848 271 
Q 434 634 434 1313 
Q 434 1759 690 2068 
Q 947 2378 1403 2484 
z
M 1172 3481 
Q 1172 3119 1398 2916 
Q 1625 2713 2034 2713 
Q 2441 2713 2670 2916 
Q 2900 3119 2900 3481 
Q 2900 3844 2670 4047 
Q 2441 4250 2034 4250 
Q 1625 4250 1398 4047 
Q 1172 3844 1172 3481 
z
" transform="scale(0.015625)"/>
       </defs>
       <use xlink:href="#DejaVuSans-31"/>
       <use xlink:href="#DejaVuSans-38" x="63.623047"/>
       <use xlink:href="#DejaVuSans-30" x="127.246094"/>
       <use xlink:href="#DejaVuSans-b0" x="190.869141"/>
      </g>
     </g>
    </g>
    <g id="xtick_6">
     <g id="line2d_6">
      <path d="M 114.407386 122.320824 
L 57.016029 179.712182 
" clip-path="url(#p18b9ea5e04)" style="fill: none; stroke: #b0b0b0; stroke-width: 0.8; stroke-linecap: square"/>
     </g>
     <g id="text_6">
      <!-- 225° -->
      <g transform="translate(35.072784 192.371051) scale(0.1 -0.1)">
       <defs>
        <path id="DejaVuSans-32" d="M 1228 531 
L 3431 531 
L 3431 0 
L 469 0 
L 469 531 
Q 828 903 1448 1529 
Q 2069 2156 2228 2338 
Q 2531 2678 2651 2914 
Q 2772 3150 2772 3378 
Q 2772 3750 2511 3984 
Q 2250 4219 1831 4219 
Q 1534 4219 1204 4116 
Q 875 4013 500 3803 
L 500 4441 
Q 881 4594 1212 4672 
Q 1544 4750 1819 4750 
Q 2544 4750 2975 4387 
Q 3406 4025 3406 3419 
Q 3406 3131 3298 2873 
Q 3191 2616 2906 2266 
Q 2828 2175 2409 1742 
Q 1991 1309 1228 531 
z
" transform="scale(0.015625)"/>
       </defs>
       <use xlink:href="#DejaVuSans-32"/>
       <use xlink:href="#DejaVuSans-32" x="63.623047"/>
       <use xlink:href="#DejaVuSans-35" x="127.246094"/>
       <use xlink:href="#DejaVuSans-b0" x="190.869141"/>
      </g>
     </g>
    </g>
    <g id="xtick_7">
     <g id="line2d_7">
      <path d="M 114.407386 122.320824 
L 114.407386 203.48446 
" clip-path="url(#p18b9ea5e04)" style="fill: none; stroke: #b0b0b0; stroke-width: 0.8; stroke-linecap: square"/>
     </g>
     <g id="text_7">
      <!-- 270° -->
      <g transform="translate(102.363636 220.243835) scale(0.1 -0.1)">
       <defs>
        <path id="DejaVuSans-37" d="M 525 4666 
L 3525 4666 
L 3525 4397 
L 1831 0 
L 1172 0 
L 2766 4134 
L 525 4134 
L 525 4666 
z
" transform="scale(0.015625)"/>
       </defs>
       <use xlink:href="#DejaVuSans-32"/>
       <use xlink:href="#DejaVuSans-37" x="63.623047"/>
       <use xlink:href="#DejaVuSans-30" x="127.246094"/>
       <use xlink:href="#DejaVuSans-b0" x="190.869141"/>
      </g>
     </g>
    </g>
    <g id="xtick_8">
     <g id="line2d_8">
      <path d="M 114.407386 122.320824 
L 171.798744 179.712182 
" clip-path="url(#p18b9ea5e04)" style="fill: none; stroke: #b0b0b0; stroke-width: 0.8; stroke-linecap: square"/>
     </g>
     <g id="text_8">
      <!-- 315° -->
      <g transform="translate(169.654489 192.371051) scale(0.1 -0.1)">
       <use xlink:href="#DejaVuSans-33"/>
       <use xlink:href="#DejaVuSans-31" x="63.623047"/>
       <use xlink:href="#DejaVuSans-35" x="127.246094"/>
       <use xlink:href="#DejaVuSans-b0" x="190.869141"/>
      </g>
     </g>
    </g>
   </g>
   <g id="matplotlib.axis_2">
    <g id="ytick_1">
     <g id="line2d_9">
      <path d="M 120.518096 122.320824 
C 120.518096 121.518373 120.36003 120.723725 120.052946 119.982357 
C 119.745861 119.240989 119.295729 118.567318 118.72831 117.9999 
C 118.160892 117.432481 117.487222 116.982349 116.745854 116.675265 
C 116.004486 116.36818 115.209837 116.210115 114.407386 116.210115 
C 113.604935 116.210115 112.810287 116.36818 112.068919 116.675265 
C 111.327551 116.982349 110.653881 117.432481 110.086462 117.9999 
C 109.519044 118.567318 109.068912 119.240989 108.761827 119.982357 
C 108.454742 120.723725 108.296677 121.518373 108.296677 122.320824 
C 108.296677 123.123275 108.454742 123.917923 108.761827 124.659291 
C 109.068912 125.400659 109.519044 126.074329 110.086462 126.641748 
C 110.653881 127.209166 111.327551 127.659298 112.068919 127.966383 
C 112.810287 128.273468 113.604935 128.431533 114.407386 128.431533 
C 115.209837 128.431533 116.004486 128.273468 116.745854 127.966383 
C 117.487222 127.659298 118.160892 127.209166 118.72831 126.641748 
C 119.295729 126.074329 119.745861 125.400659 120.052946 124.659291 
C 120.36003 123.917923 120.518096 123.123275 120.518096 122.320824 
" clip-path="url(#p18b9ea5e04)" style="fill: none; stroke: #b0b0b0; stroke-width: 0.8; stroke-linecap: square"/>
     </g>
     <g id="text_9">
      <!-- −25 -->
      <g transform="translate(120.052946 117.902669) scale(0.1 -0.1)">
       <defs>
        <path id="DejaVuSans-2212" d="M 678 2272 
L 4684 2272 
L 4684 1741 
L 678 1741 
L 678 2272 
z
" transform="scale(0.015625)"/>
       </defs>
       <use xlink:href="#DejaVuSans-2212"/>
       <use xlink:href="#DejaVuSans-32" x="83.789062"/>
       <use xlink:href="#DejaVuSans-35" x="147.412109"/>
      </g>
     </g>
    </g>
    <g id="ytick_2">
     <g id="line2d_10">
      <path d="M 135.528681 122.320824 
C 135.528681 119.547201 134.982338 116.800548 133.920918 114.238054 
C 132.859499 111.675561 131.303645 109.347061 129.342397 107.385813 
C 127.381149 105.424566 125.052649 103.868712 122.490156 102.807292 
C 119.927662 101.745872 117.181009 101.199529 114.407386 101.199529 
C 111.633763 101.199529 108.88711 101.745872 106.324617 102.807292 
C 103.762123 103.868712 101.433623 105.424566 99.472376 107.385813 
C 97.511128 109.347061 95.955274 111.675561 94.893855 114.238054 
C 93.832435 116.800548 93.286092 119.547201 93.286092 122.320824 
C 93.286092 125.094447 93.832435 127.8411 94.893855 130.403593 
C 95.955274 132.966087 97.511128 135.294587 99.472376 137.255835 
C 101.433623 139.217082 103.762123 140.772936 106.324617 141.834356 
C 108.88711 142.895775 111.633763 143.442119 114.407386 143.442119 
C 117.181009 143.442119 119.927662 142.895775 122.490156 141.834356 
C 125.052649 140.772936 127.381149 139.217082 129.342397 137.255835 
C 131.303645 135.294587 132.859499 132.966087 133.920918 130.403593 
C 134.982338 127.8411 135.528681 125.094447 135.528681 122.320824 
" clip-path="url(#p18b9ea5e04)" style="fill: none; stroke: #b0b0b0; stroke-width: 0.8; stroke-linecap: square"/>
     </g>
     <g id="text_10">
      <!-- −20 -->
      <g transform="translate(133.920918 112.158367) scale(0.1 -0.1)">
       <use xlink:href="#DejaVuSans-2212"/>
       <use xlink:href="#DejaVuSans-32" x="83.789062"/>
       <use xlink:href="#DejaVuSans-30" x="147.412109"/>
      </g>
     </g>
    </g>
    <g id="ytick_3">
     <g id="line2d_11">
      <path d="M 150.539266 122.320824 
C 150.539266 117.576029 149.604645 112.877371 147.788891 108.493752 
C 145.973136 104.110133 143.311561 100.126803 139.956484 96.771726 
C 136.601407 93.41665 132.618077 90.755074 128.234458 88.939319 
C 123.850839 87.123565 119.152181 86.188944 114.407386 86.188944 
C 109.662591 86.188944 104.963933 87.123565 100.580314 88.939319 
C 96.196695 90.755074 92.213366 93.41665 88.858289 96.771726 
C 85.503212 100.126803 82.841636 104.110133 81.025882 108.493752 
C 79.210127 112.877371 78.275506 117.576029 78.275506 122.320824 
C 78.275506 127.065619 79.210127 131.764277 81.025882 136.147896 
C 82.841636 140.531515 85.503212 144.514845 88.858289 147.869921 
C 92.213366 151.224998 96.196695 153.886574 100.580314 155.702328 
C 104.963933 157.518083 109.662591 158.452704 114.407386 158.452704 
C 119.152181 158.452704 123.850839 157.518083 128.234458 155.702328 
C 132.618077 153.886574 136.601407 151.224998 139.956484 147.869921 
C 143.311561 144.514845 145.973136 140.531515 147.788891 136.147896 
C 149.604645 131.764277 150.539266 127.065619 150.539266 122.320824 
" clip-path="url(#p18b9ea5e04)" style="fill: none; stroke: #b0b0b0; stroke-width: 0.8; stroke-linecap: square"/>
     </g>
     <g id="text_11">
      <!-- −15 -->
      <g transform="translate(147.788891 106.414064) scale(0.1 -0.1)">
       <use xlink:href="#DejaVuSans-2212"/>
       <use xlink:href="#DejaVuSans-31" x="83.789062"/>
       <use xlink:href="#DejaVuSans-35" x="147.412109"/>
      </g>
     </g>
    </g>
    <g id="ytick_4">
     <g id="line2d_12">
      <path d="M 165.549852 122.320824 
C 165.549852 115.604857 164.226953 108.954194 161.656863 102.74945 
C 159.086774 96.544705 155.319476 90.906546 150.570571 86.15764 
C 145.821665 81.408734 140.183505 77.641436 133.978761 75.071347 
C 127.774016 72.501257 121.123353 71.178358 114.407386 71.178358 
C 107.691419 71.178358 101.040757 72.501257 94.836012 75.071347 
C 88.631268 77.641436 82.993108 81.408734 78.244202 86.15764 
C 73.495296 90.906546 69.727999 96.544705 67.157909 102.74945 
C 64.58782 108.954194 63.264921 115.604857 63.264921 122.320824 
C 63.264921 129.036791 64.58782 135.687454 67.157909 141.892198 
C 69.727999 148.096943 73.495296 153.735102 78.244202 158.484008 
C 82.993108 163.232914 88.631268 167.000212 94.836012 169.570301 
C 101.040757 172.14039 107.691419 173.463289 114.407386 173.463289 
C 121.123353 173.463289 127.774016 172.14039 133.978761 169.570301 
C 140.183505 167.000212 145.821665 163.232914 150.570571 158.484008 
C 155.319476 153.735102 159.086774 148.096943 161.656863 141.892198 
C 164.226953 135.687454 165.549852 129.036791 165.549852 122.320824 
" clip-path="url(#p18b9ea5e04)" style="fill: none; stroke: #b0b0b0; stroke-width: 0.8; stroke-linecap: square"/>
     </g>
     <g id="text_12">
      <!-- −10 -->
      <g transform="translate(161.656863 100.669762) scale(0.1 -0.1)">
       <use xlink:href="#DejaVuSans-2212"/>
       <use xlink:href="#DejaVuSans-31" x="83.789062"/>
       <use xlink:href="#DejaVuSans-30" x="147.412109"/>
      </g>
     </g>
    </g>
    <g id="ytick_5">
     <g id="line2d_13">
      <path d="M 180.560437 122.320824 
C 180.560437 113.633685 178.84926 105.031017 175.524836 97.005147 
C 172.200412 88.979277 167.327392 81.686288 161.184657 75.543553 
C 155.041922 69.400818 147.748933 64.527798 139.723063 61.203374 
C 131.697193 57.87895 123.094525 56.167773 114.407386 56.167773 
C 105.720247 56.167773 97.11758 57.87895 89.09171 61.203374 
C 81.06584 64.527798 73.77285 69.400818 67.630115 75.543553 
C 61.487381 81.686288 56.614361 88.979277 53.289937 97.005147 
C 49.965512 105.031017 48.254335 113.633685 48.254335 122.320824 
C 48.254335 131.007963 49.965512 139.61063 53.289937 147.6365 
C 56.614361 155.66237 61.487381 162.95536 67.630115 169.098095 
C 73.77285 175.24083 81.06584 180.113849 89.09171 183.438274 
C 97.11758 186.762698 105.720247 188.473875 114.407386 188.473875 
C 123.094525 188.473875 131.697193 186.762698 139.723063 183.438274 
C 147.748933 180.113849 155.041922 175.24083 161.184657 169.098095 
C 167.327392 162.95536 172.200412 155.66237 175.524836 147.6365 
C 178.84926 139.61063 180.560437 131.007963 180.560437 122.320824 
" clip-path="url(#p18b9ea5e04)" style="fill: none; stroke: #b0b0b0; stroke-width: 0.8; stroke-linecap: square"/>
     </g>
     <g id="text_13">
      <!-- −5 -->
      <g transform="translate(175.524836 94.92546) scale(0.1 -0.1)">
       <use xlink:href="#DejaVuSans-2212"/>
       <use xlink:href="#DejaVuSans-35" x="83.789062"/>
      </g>
     </g>
    </g>
    <g id="ytick_6">
     <g id="line2d_14">
      <path d="M 195.571023 122.320824 
C 195.571023 111.662513 193.471568 101.10784 189.392809 91.260845 
C 185.31405 81.413849 179.335308 72.46603 171.798744 64.929466 
C 164.26218 57.392902 155.314361 51.414161 145.467365 47.335401 
C 135.62037 43.256642 125.065697 41.157188 114.407386 41.157188 
C 103.749075 41.157188 93.194403 43.256642 83.347407 47.335401 
C 73.500412 51.414161 64.552593 57.392902 57.016029 64.929466 
C 49.479465 72.46603 43.500723 81.413849 39.421964 91.260845 
C 35.343205 101.10784 33.24375 111.662513 33.24375 122.320824 
C 33.24375 132.979135 35.343205 143.533807 39.421964 153.380803 
C 43.500723 163.227798 49.479465 172.175617 57.016029 179.712182 
C 64.552593 187.248746 73.500412 193.227487 83.347407 197.306246 
C 93.194403 201.385005 103.749075 203.48446 114.407386 203.48446 
C 125.065697 203.48446 135.62037 201.385005 145.467365 197.306246 
C 155.314361 193.227487 164.26218 187.248746 171.798744 179.712182 
C 179.335308 172.175617 185.31405 163.227798 189.392809 153.380803 
C 193.471568 143.533807 195.571023 132.979135 195.571023 122.320824 
" clip-path="url(#p18b9ea5e04)" style="fill: none; stroke: #b0b0b0; stroke-width: 0.8; stroke-linecap: square"/>
     </g>
     <g id="text_14">
      <!-- 0 -->
      <g transform="translate(189.392809 89.181157) scale(0.1 -0.1)">
       <use xlink:href="#DejaVuSans-30"/>
      </g>
     </g>
    </g>
   </g>
   <g id="line2d_15">
    <path d="M 95.176722 145.239037 
L 100.262531 142.521771 
L 102.823248 142.385141 
L 102.496011 147.864851 
L 104.175258 150.433366 
L 109.331489 141.264332 
L 113.28854 128.666118 
L 114.049741 126.408732 
L 114.407386 135.512163 
L 116.091296 141.568001 
L 117.381595 139.188398 
L 118.10951 136.137337 
L 119.840116 137.247127 
L 122.742081 140.194634 
L 123.789772 138.571592 
L 118.592077 128.297181 
L 116.886691 125.275544 
L 124.808026 132.721464 
L 139.276804 143.188743 
L 147.29678 145.350225 
L 146.979482 141.126332 
L 141.889892 135.136127 
L 147.321146 134.300453 
L 165.722215 136.070591 
L 184.183663 134.624264 
L 192.67744 129.168566 
L 195.406767 122.320824 
L 192.792482 115.463017 
L 184.664862 109.932535 
L 166.70051 108.308924 
L 147.672319 110.213378 
L 141.520864 109.677602 
L 146.303116 103.905816 
L 147.216729 99.347474 
L 139.667682 101.124919 
L 125.340338 111.387872 
L 116.950932 119.289545 
L 118.347514 116.693739 
L 123.765104 106.112782 
L 122.99144 103.912261 
L 119.94115 107.116932 
L 118.027992 108.80854 
L 117.305184 105.886599 
L 116.117532 102.773774 
L 114.407386 107.636178 
L 114.014299 117.827815 
L 113.510566 117.234704 
L 109.834634 105.255078 
L 104.348625 94.684604 
L 102.295558 96.346925 
L 102.40973 101.540273 
L 99.874213 101.565301 
L 95.18168 99.40852 
" clip-path="url(#p18b9ea5e04)" style="fill: none; stroke: #1f77b4; stroke-width: 1.5; stroke-linecap: square"/>
   </g>
   <g id="patch_3">
    <path d="M 195.571023 122.320824 
C 195.571023 111.662513 193.471568 101.10784 189.392809 91.260845 
C 185.31405 81.413849 179.335308 72.46603 171.798744 64.929466 
C 164.26218 57.392902 155.314361 51.414161 145.467365 47.335401 
C 135.62037 43.256642 125.065697 41.157188 114.407386 41.157188 
C 103.749075 41.157188 93.194403 43.256642 83.347407 47.335401 
C 73.500412 51.414161 64.552593 57.392902 57.016029 64.929466 
C 49.479465 72.46603 43.500723 81.413849 39.421964 91.260845 
C 35.343205 101.10784 33.24375 111.662513 33.24375 122.320824 
C 33.24375 132.979135 35.343205 143.533807 39.421964 153.380803 
C 43.500723 163.227798 49.479465 172.175617 57.016029 179.712182 
C 64.552593 187.248746 73.500412 193.227487 83.347407 197.306246 
C 93.194403 201.385005 103.749075 203.48446 114.407386 203.48446 
C 125.065697 203.48446 135.62037 201.385005 145.467365 197.306246 
C 155.314361 193.227487 164.26218 187.248746 171.798744 179.712182 
C 179.335308 172.175617 185.31405 163.227798 189.392809 153.380803 
C 193.471568 143.533807 195.571023 132.979135 195.571023 122.320824 
" style="fill: none; stroke: #000000; stroke-width: 0.8; stroke-linejoin: miter; stroke-linecap: square"/>
   </g>
   <g id="text_15">
    <!-- E-Plane (Phi = 0.0) -->
    <g transform="translate(57.936136 16.318125) scale(0.12 -0.12)">
     <defs>
      <path id="DejaVuSans-45" d="M 628 4666 
L 3578 4666 
L 3578 4134 
L 1259 4134 
L 1259 2753 
L 3481 2753 
L 3481 2222 
L 1259 2222 
L 1259 531 
L 3634 531 
L 3634 0 
L 628 0 
L 628 4666 
z
" transform="scale(0.015625)"/>
      <path id="DejaVuSans-2d" d="M 313 2009 
L 1997 2009 
L 1997 1497 
L 313 1497 
L 313 2009 
z
" transform="scale(0.015625)"/>
      <path id="DejaVuSans-50" d="M 1259 4147 
L 1259 2394 
L 2053 2394 
Q 2494 2394 2734 2622 
Q 2975 2850 2975 3272 
Q 2975 3691 2734 3919 
Q 2494 4147 2053 4147 
L 1259 4147 
z
M 628 4666 
L 2053 4666 
Q 2838 4666 3239 4311 
Q 3641 3956 3641 3272 
Q 3641 2581 3239 2228 
Q 2838 1875 2053 1875 
L 1259 1875 
L 1259 0 
L 628 0 
L 628 4666 
z
" transform="scale(0.015625)"/>
      <path id="DejaVuSans-6c" d="M 603 4863 
L 1178 4863 
L 1178 0 
L 603 0 
L 603 4863 
z
" transform="scale(0.015625)"/>
      <path id="DejaVuSans-61" d="M 2194 1759 
Q 1497 1759 1228 1600 
Q 959 1441 959 1056 
Q 959 750 1161 570 
Q 1363 391 1709 391 
Q 2188 391 2477 730 
Q 2766 1069 2766 1631 
L 2766 1759 
L 2194 1759 
z
M 3341 1997 
L 3341 0 
L 2766 0 
L 2766 531 
Q 2569 213 2275 61 
Q 1981 -91 1556 -91 
Q 1019 -91 701 211 
Q 384 513 384 1019 
Q 384 1609 779 1909 
Q 1175 2209 1959 2209 
L 2766 2209 
L 2766 2266 
Q 2766 2663 2505 2880 
Q 2244 3097 1772 3097 
Q 1472 3097 1187 3025 
Q 903 2953 641 2809 
L 641 3341 
Q 956 3463 1253 3523 
Q 1550 3584 1831 3584 
Q 2591 3584 2966 3190 
Q 3341 2797 3341 1997 
z
" transform="scale(0.015625)"/>
      <path id="DejaVuSans-6e" d="M 3513 2113 
L 3513 0 
L 2938 0 
L 2938 2094 
Q 2938 2591 2744 2837 
Q 2550 3084 2163 3084 
Q 1697 3084 1428 2787 
Q 1159 2491 1159 1978 
L 1159 0 
L 581 0 
L 581 3500 
L 1159 3500 
L 1159 2956 
Q 1366 3272 1645 3428 
Q 1925 3584 2291 3584 
Q 2894 3584 3203 3211 
Q 3513 2838 3513 2113 
z
" transform="scale(0.015625)"/>
      <path id="DejaVuSans-65" d="M 3597 1894 
L 3597 1613 
L 953 1613 
Q 991 1019 1311 708 
Q 1631 397 2203 397 
Q 2534 397 2845 478 
Q 3156 559 3463 722 
L 3463 178 
Q 3153 47 2828 -22 
Q 2503 -91 2169 -91 
Q 1331 -91 842 396 
Q 353 884 353 1716 
Q 353 2575 817 3079 
Q 1281 3584 2069 3584 
Q 2775 3584 3186 3129 
Q 3597 2675 3597 1894 
z
M 3022 2063 
Q 3016 2534 2758 2815 
Q 2500 3097 2075 3097 
Q 1594 3097 1305 2825 
Q 1016 2553 972 2059 
L 3022 2063 
z
" transform="scale(0.015625)"/>
      <path id="DejaVuSans-20" transform="scale(0.015625)"/>
      <path id="DejaVuSans-28" d="M 1984 4856 
Q 1566 4138 1362 3434 
Q 1159 2731 1159 2009 
Q 1159 1288 1364 580 
Q 1569 -128 1984 -844 
L 1484 -844 
Q 1016 -109 783 600 
Q 550 1309 550 2009 
Q 550 2706 781 3412 
Q 1013 4119 1484 4856 
L 1984 4856 
z
" transform="scale(0.015625)"/>
      <path id="DejaVuSans-68" d="M 3513 2113 
L 3513 0 
L 2938 0 
L 2938 2094 
Q 2938 2591 2744 2837 
Q 2550 3084 2163 3084 
Q 1697 3084 1428 2787 
Q 1159 2491 1159 1978 
L 1159 0 
L 581 0 
L 581 4863 
L 1159 4863 
L 1159 2956 
Q 1366 3272 1645 3428 
Q 1925 3584 2291 3584 
Q 2894 3584 3203 3211 
Q 3513 2838 3513 2113 
z
" transform="scale(0.015625)"/>
      <path id="DejaVuSans-69" d="M 603 3500 
L 1178 3500 
L 1178 0 
L 603 0 
L 603 3500 
z
M 603 4863 
L 1178 4863 
L 1178 4134 
L 603 4134 
L 603 4863 
z
" transform="scale(0.015625)"/>
      <path id="DejaVuSans-3d" d="M 678 2906 
L 4684 2906 
L 4684 2381 
L 678 2381 
L 678 2906 
z
M 678 1631 
L 4684 1631 
L 4684 1100 
L 678 1100 
L 678 1631 
z
" transform="scale(0.015625)"/>
      <path id="DejaVuSans-2e" d="M 684 794 
L 1344 794 
L 1344 0 
L 684 0 
L 684 794 
z
" transform="scale(0.015625)"/>
      <path id="DejaVuSans-29" d="M 513 4856 
L 1013 4856 
Q 1481 4119 1714 3412 
Q 1947 2706 1947 2009 
Q 1947 1309 1714 600 
Q 1481 -109 1013 -844 
L 513 -844 
Q 928 -128 1133 580 
Q 1338 1288 1338 2009 
Q 1338 2731 1133 3434 
Q 928 4138 513 4856 
z
" transform="scale(0.015625)"/>
     </defs>
     <use xlink:href="#DejaVuSans-45"/>
     <use xlink:href="#DejaVuSans-2d" x="63.183594"/>
     <use xlink:href="#DejaVuSans-50" x="99.267578"/>
     <use xlink:href="#DejaVuSans-6c" x="159.570312"/>
     <use xlink:href="#DejaVuSans-61" x="187.353516"/>
     <use xlink:href="#DejaVuSans-6e" x="248.632812"/>
     <use xlink:href="#DejaVuSans-65" x="312.011719"/>
     <use xlink:href="#DejaVuSans-20" x="373.535156"/>
     <use xlink:href="#DejaVuSans-28" x="405.322266"/>
     <use xlink:href="#DejaVuSans-50" x="444.335938"/>
     <use xlink:href="#DejaVuSans-68" x="504.638672"/>
     <use xlink:href="#DejaVuSans-69" x="568.017578"/>
     <use xlink:href="#DejaVuSans-20" x="595.800781"/>
     <use xlink:href="#DejaVuSans-3d" x="627.587891"/>
     <use xlink:href="#DejaVuSans-20" x="711.376953"/>
     <use xlink:href="#DejaVuSans-30" x="743.164062"/>
     <use xlink:href="#DejaVuSans-2e" x="806.787109"/>
     <use xlink:href="#DejaVuSans-30" x="838.574219"/>
     <use xlink:href="#DejaVuSans-29" x="902.197266"/>
    </g>
   </g>
  </g>
  <g id="axes_2">
   <g id="patch_4">
    <path d="M 390.36375 122.320824 
C 390.36375 111.662513 388.264295 101.10784 384.185536 91.260845 
C 380.106777 81.413849 374.128035 72.46603 366.591471 64.929466 
C 359.054907 57.392902 350.107088 51.414161 340.260093 47.335401 
C 330.413097 43.256642 319.858425 41.157188 309.200114 41.157188 
C 298.541803 41.157188 287.98713 43.256642 278.140135 47.335401 
C 268.293139 51.414161 259.34532 57.392902 251.808756 64.929466 
C 244.272192 72.46603 238.29345 81.413849 234.214691 91.260845 
C 230.135932 101.10784 228.036477 111.662513 228.036477 122.320824 
C 228.036477 132.979135 230.135932 143.533807 234.214691 153.380803 
C 238.29345 163.227798 244.272192 172.175617 251.808756 179.712182 
C 259.34532 187.248746 268.293139 193.227487 278.140135 197.306246 
C 287.98713 201.385005 298.541803 203.48446 309.200114 203.48446 
C 319.858425 203.48446 330.413097 201.385005 340.260093 197.306246 
C 350.107088 193.227487 359.054907 187.248746 366.591471 179.712182 
C 374.128035 172.175617 380.106777 163.227798 384.185536 153.380803 
C 388.264295 143.533807 390.36375 132.979135 390.36375 122.320824 
M 309.200114 122.320824 
C 309.200114 122.320824 309.200114 122.320824 309.200114 122.320824 
C 309.200114 122.320824 309.200114 122.320824 309.200114 122.320824 
C 309.200114 122.320824 309.200114 122.320824 309.200114 122.320824 
C 309.200114 122.320824 309.200114 122.320824 309.200114 122.320824 
C 309.200114 122.320824 309.200114 122.320824 309.200114 122.320824 
C 309.200114 122.320824 309.200114 122.320824 309.200114 122.320824 
C 309.200114 122.320824 309.200114 122.320824 309.200114 122.320824 
C 309.200114 122.320824 309.200114 122.320824 309.200114 122.320824 
C 309.200114 122.320824 309.200114 122.320824 309.200114 122.320824 
C 309.200114 122.320824 309.200114 122.320824 309.200114 122.320824 
C 309.200114 122.320824 309.200114 122.320824 309.200114 122.320824 
C 309.200114 122.320824 309.200114 122.320824 309.200114 122.320824 
C 309.200114 122.320824 309.200114 122.320824 309.200114 122.320824 
C 309.200114 122.320824 309.200114 122.320824 309.200114 122.320824 
C 309.200114 122.320824 309.200114 122.320824 309.200114 122.320824 
C 309.200114 122.320824 309.200114 122.320824 309.200114 122.320824 
z
" style="fill: #ffffff"/>
   </g>
   <g id="matplotlib.axis_3">
    <g id="xtick_9">
     <g id="line2d_16">
      <path d="M 309.200114 122.320824 
L 390.36375 122.320824 
" clip-path="url(#p7979beb2fb)" style="fill: none; stroke: #b0b0b0; stroke-width: 0.8; stroke-linecap: square"/>
     </g>
     <g id="text_16">
      <!-- 0° -->
      <g transform="translate(398.6825 125.080199) scale(0.1 -0.1)">
       <use xlink:href="#DejaVuSans-30"/>
       <use xlink:href="#DejaVuSans-b0" x="63.623047"/>
      </g>
     </g>
    </g>
    <g id="xtick_10">
     <g id="line2d_17">
      <path d="M 309.200114 122.320824 
L 366.591471 64.929466 
" clip-path="url(#p7979beb2fb)" style="fill: none; stroke: #b0b0b0; stroke-width: 0.8; stroke-linecap: square"/>
     </g>
     <g id="text_17">
      <!-- 45° -->
      <g transform="translate(367.628466 57.789346) scale(0.1 -0.1)">
       <use xlink:href="#DejaVuSans-34"/>
       <use xlink:href="#DejaVuSans-35" x="63.623047"/>
       <use xlink:href="#DejaVuSans-b0" x="127.246094"/>
      </g>
     </g>
    </g>
    <g id="xtick_11">
     <g id="line2d_18">
      <path d="M 309.200114 122.320824 
L 309.200114 41.157188 
" clip-path="url(#p7979beb2fb)" style="fill: none; stroke: #b0b0b0; stroke-width: 0.8; stroke-linecap: square"/>
     </g>
     <g id="text_18">
      <!-- 90° -->
      <g transform="translate(300.337614 29.916563) scale(0.1 -0.1)">
       <use xlink:href="#DejaVuSans-39"/>
       <use xlink:href="#DejaVuSans-30" x="63.623047"/>
       <use xlink:href="#DejaVuSans-b0" x="127.246094"/>
      </g>
     </g>
    </g>
    <g id="xtick_12">
     <g id="line2d_19">
      <path d="M 309.200114 122.320824 
L 251.808756 64.929466 
" clip-path="url(#p7979beb2fb)" style="fill: none; stroke: #b0b0b0; stroke-width: 0.8; stroke-linecap: square"/>
     </g>
     <g id="text_19">
      <!-- 135° -->
      <g transform="translate(229.865511 57.789346) scale(0.1 -0.1)">
       <use xlink:href="#DejaVuSans-31"/>
       <use xlink:href="#DejaVuSans-33" x="63.623047"/>
       <use xlink:href="#DejaVuSans-35" x="127.246094"/>
       <use xlink:href="#DejaVuSans-b0" x="190.869141"/>
      </g>
     </g>
    </g>
    <g id="xtick_13">
     <g id="line2d_20">
      <path d="M 309.200114 122.320824 
L 228.036477 122.320824 
" clip-path="url(#p7979beb2fb)" style="fill: none; stroke: #b0b0b0; stroke-width: 0.8; stroke-linecap: square"/>
     </g>
     <g id="text_20">
      <!-- 180° -->
      <g transform="translate(201.992727 125.080199) scale(0.1 -0.1)">
       <use xlink:href="#DejaVuSans-31"/>
       <use xlink:href="#DejaVuSans-38" x="63.623047"/>
       <use xlink:href="#DejaVuSans-30" x="127.246094"/>
       <use xlink:href="#DejaVuSans-b0" x="190.869141"/>
      </g>
     </g>
    </g>
    <g id="xtick_14">
     <g id="line2d_21">
      <path d="M 309.200114 122.320824 
L 251.808756 179.712182 
" clip-path="url(#p7979beb2fb)" style="fill: none; stroke: #b0b0b0; stroke-width: 0.8; stroke-linecap: square"/>
     </g>
     <g id="text_21">
      <!-- 225° -->
      <g transform="translate(229.865511 192.371051) scale(0.1 -0.1)">
       <use xlink:href="#DejaVuSans-32"/>
       <use xlink:href="#DejaVuSans-32" x="63.623047"/>
       <use xlink:href="#DejaVuSans-35" x="127.246094"/>
       <use xlink:href="#DejaVuSans-b0" x="190.869141"/>
      </g>
     </g>
    </g>
    <g id="xtick_15">
     <g id="line2d_22">
      <path d="M 309.200114 122.320824 
L 309.200114 203.48446 
" clip-path="url(#p7979beb2fb)" style="fill: none; stroke: #b0b0b0; stroke-width: 0.8; stroke-linecap: square"/>
     </g>
     <g id="text_22">
      <!-- 270° -->
      <g transform="translate(297.156364 220.243835) scale(0.1 -0.1)">
       <use xlink:href="#DejaVuSans-32"/>
       <use xlink:href="#DejaVuSans-37" x="63.623047"/>
       <use xlink:href="#DejaVuSans-30" x="127.246094"/>
       <use xlink:href="#DejaVuSans-b0" x="190.869141"/>
      </g>
     </g>
    </g>
    <g id="xtick_16">
     <g id="line2d_23">
      <path d="M 309.200114 122.320824 
L 366.591471 179.712182 
" clip-path="url(#p7979beb2fb)" style="fill: none; stroke: #b0b0b0; stroke-width: 0.8; stroke-linecap: square"/>
     </g>
     <g id="text_23">
      <!-- 315° -->
      <g transform="translate(364.447216 192.371051) scale(0.1 -0.1)">
       <use xlink:href="#DejaVuSans-33"/>
       <use xlink:href="#DejaVuSans-31" x="63.623047"/>
       <use xlink:href="#DejaVuSans-35" x="127.246094"/>
       <use xlink:href="#DejaVuSans-b0" x="190.869141"/>
      </g>
     </g>
    </g>
   </g>
   <g id="matplotlib.axis_4">
    <g id="ytick_7">
     <g id="line2d_24">
      <path d="M 312.307363 122.320824 
C 312.307363 121.912784 312.226988 121.508711 312.070838 121.131731 
C 311.914688 120.754751 311.685799 120.412195 311.397271 120.123667 
C 311.108743 119.835139 310.766187 119.60625 310.389207 119.4501 
C 310.012226 119.293949 309.608154 119.213574 309.200114 119.213574 
C 308.792073 119.213574 308.388001 119.293949 308.011021 119.4501 
C 307.634041 119.60625 307.291484 119.835139 307.002956 120.123667 
C 306.714428 120.412195 306.48554 120.754751 306.329389 121.131731 
C 306.173239 121.508711 306.092864 121.912784 306.092864 122.320824 
C 306.092864 122.728864 306.173239 123.132937 306.329389 123.509917 
C 306.48554 123.886897 306.714428 124.229453 307.002956 124.517981 
C 307.291484 124.806509 307.634041 125.035398 308.011021 125.191548 
C 308.388001 125.347698 308.792073 125.428073 309.200114 125.428073 
C 309.608154 125.428073 310.012226 125.347698 310.389207 125.191548 
C 310.766187 125.035398 311.108743 124.806509 311.397271 124.517981 
C 311.685799 124.229453 311.914688 123.886897 312.070838 123.509917 
C 312.226988 123.132937 312.307363 122.728864 312.307363 122.320824 
" clip-path="url(#p7979beb2fb)" style="fill: none; stroke: #b0b0b0; stroke-width: 0.8; stroke-linecap: square"/>
     </g>
     <g id="text_24">
      <!-- −30 -->
      <g transform="translate(312.070838 119.052043) scale(0.1 -0.1)">
       <use xlink:href="#DejaVuSans-2212"/>
       <use xlink:href="#DejaVuSans-33" x="83.789062"/>
       <use xlink:href="#DejaVuSans-30" x="147.412109"/>
      </g>
     </g>
    </g>
    <g id="ytick_8">
     <g id="line2d_25">
      <path d="M 325.316761 122.320824 
C 325.316761 120.204405 324.899873 118.108566 324.089954 116.15325 
C 323.280036 114.197934 322.092838 112.421167 320.596304 110.924633 
C 319.09977 109.428099 317.323004 108.240902 315.367688 107.430983 
C 313.412372 106.621065 311.316532 106.204177 309.200114 106.204177 
C 307.083695 106.204177 304.987856 106.621065 303.03254 107.430983 
C 301.077224 108.240902 299.300457 109.428099 297.803923 110.924633 
C 296.307389 112.421167 295.120191 114.197934 294.310273 116.15325 
C 293.500355 118.108566 293.083466 120.204405 293.083466 122.320824 
C 293.083466 124.437243 293.500355 126.533082 294.310273 128.488398 
C 295.120191 130.443714 296.307389 132.22048 297.803923 133.717014 
C 299.300457 135.213549 301.077224 136.400746 303.03254 137.210664 
C 304.987856 138.020583 307.083695 138.437471 309.200114 138.437471 
C 311.316532 138.437471 313.412372 138.020583 315.367688 137.210664 
C 317.323004 136.400746 319.09977 135.213549 320.596304 133.717014 
C 322.092838 132.22048 323.280036 130.443714 324.089954 128.488398 
C 324.899873 126.533082 325.316761 124.437243 325.316761 122.320824 
" clip-path="url(#p7979beb2fb)" style="fill: none; stroke: #b0b0b0; stroke-width: 0.8; stroke-linecap: square"/>
     </g>
     <g id="text_25">
      <!-- −25 -->
      <g transform="translate(324.089954 114.073562) scale(0.1 -0.1)">
       <use xlink:href="#DejaVuSans-2212"/>
       <use xlink:href="#DejaVuSans-32" x="83.789062"/>
       <use xlink:href="#DejaVuSans-35" x="147.412109"/>
      </g>
     </g>
    </g>
    <g id="ytick_9">
     <g id="line2d_26">
      <path d="M 338.326159 122.320824 
C 338.326159 118.496027 337.572757 114.708421 336.109071 111.174769 
C 334.645384 107.641117 332.499878 104.43014 329.795338 101.7256 
C 327.090798 99.02106 323.87982 96.875553 320.346169 95.411867 
C 316.812517 93.94818 313.024911 93.194779 309.200114 93.194779 
C 305.375316 93.194779 301.587711 93.94818 298.054059 95.411867 
C 294.520407 96.875553 291.30943 99.02106 288.60489 101.7256 
C 285.90035 104.43014 283.754843 107.641117 282.291157 111.174769 
C 280.82747 114.708421 280.074069 118.496027 280.074069 122.320824 
C 280.074069 126.145621 280.82747 129.933227 282.291157 133.466879 
C 283.754843 137.000531 285.90035 140.211508 288.60489 142.916048 
C 291.30943 145.620588 294.520407 147.766094 298.054059 149.229781 
C 301.587711 150.693467 305.375316 151.446869 309.200114 151.446869 
C 313.024911 151.446869 316.812517 150.693467 320.346169 149.229781 
C 323.87982 147.766094 327.090798 145.620588 329.795338 142.916048 
C 332.499878 140.211508 334.645384 137.000531 336.109071 133.466879 
C 337.572757 129.933227 338.326159 126.145621 338.326159 122.320824 
" clip-path="url(#p7979beb2fb)" style="fill: none; stroke: #b0b0b0; stroke-width: 0.8; stroke-linecap: square"/>
     </g>
     <g id="text_26">
      <!-- −20 -->
      <g transform="translate(336.109071 109.095081) scale(0.1 -0.1)">
       <use xlink:href="#DejaVuSans-2212"/>
       <use xlink:href="#DejaVuSans-32" x="83.789062"/>
       <use xlink:href="#DejaVuSans-30" x="147.412109"/>
      </g>
     </g>
    </g>
    <g id="ytick_10">
     <g id="line2d_27">
      <path d="M 351.335557 122.320824 
C 351.335557 116.787648 350.245642 111.308276 348.128187 106.196288 
C 346.010732 101.0843 342.906917 96.439112 338.994371 92.526566 
C 335.081825 88.61402 330.436637 85.510205 325.32465 83.392751 
C 320.212662 81.275296 314.733289 80.185381 309.200114 80.185381 
C 303.666938 80.185381 298.187565 81.275296 293.075578 83.392751 
C 287.96359 85.510205 283.318402 88.61402 279.405856 92.526566 
C 275.49331 96.439112 272.389495 101.0843 270.27204 106.196288 
C 268.154586 111.308276 267.064671 116.787648 267.064671 122.320824 
C 267.064671 127.854 268.154586 133.333372 270.27204 138.44536 
C 272.389495 143.557348 275.49331 148.202535 279.405856 152.115081 
C 283.318402 156.027627 287.96359 159.131443 293.075578 161.248897 
C 298.187565 163.366352 303.666938 164.456267 309.200114 164.456267 
C 314.733289 164.456267 320.212662 163.366352 325.32465 161.248897 
C 330.436637 159.131443 335.081825 156.027627 338.994371 152.115081 
C 342.906917 148.202535 346.010732 143.557348 348.128187 138.44536 
C 350.245642 133.333372 351.335557 127.854 351.335557 122.320824 
" clip-path="url(#p7979beb2fb)" style="fill: none; stroke: #b0b0b0; stroke-width: 0.8; stroke-linecap: square"/>
     </g>
     <g id="text_27">
      <!-- −15 -->
      <g transform="translate(348.128187 104.1166) scale(0.1 -0.1)">
       <use xlink:href="#DejaVuSans-2212"/>
       <use xlink:href="#DejaVuSans-31" x="83.789062"/>
       <use xlink:href="#DejaVuSans-35" x="147.412109"/>
      </g>
     </g>
    </g>
    <g id="ytick_11">
     <g id="line2d_28">
      <path d="M 364.344954 122.320824 
C 364.344954 115.07927 362.918526 107.908131 360.147303 101.217807 
C 357.376081 94.527483 353.313957 88.448085 348.193404 83.327533 
C 343.072852 78.206981 336.993454 74.144857 330.303131 71.373634 
C 323.612807 68.602411 316.441668 67.175983 309.200114 67.175983 
C 301.958559 67.175983 294.78742 68.602411 288.097097 71.373634 
C 281.406773 74.144857 275.327375 78.206981 270.206823 83.327533 
C 265.086271 88.448085 261.024147 94.527483 258.252924 101.217807 
C 255.481701 107.908131 254.055273 115.07927 254.055273 122.320824 
C 254.055273 129.562378 255.481701 136.733517 258.252924 143.423841 
C 261.024147 150.114164 265.086271 156.193563 270.206823 161.314115 
C 275.327375 166.434667 281.406773 170.496791 288.097097 173.268014 
C 294.78742 176.039236 301.958559 177.465665 309.200114 177.465665 
C 316.441668 177.465665 323.612807 176.039236 330.303131 173.268014 
C 336.993454 170.496791 343.072852 166.434667 348.193404 161.314115 
C 353.313957 156.193563 357.376081 150.114164 360.147303 143.423841 
C 362.918526 136.733517 364.344954 129.562378 364.344954 122.320824 
" clip-path="url(#p7979beb2fb)" style="fill: none; stroke: #b0b0b0; stroke-width: 0.8; stroke-linecap: square"/>
     </g>
     <g id="text_28">
      <!-- −10 -->
      <g transform="translate(360.147303 99.138119) scale(0.1 -0.1)">
       <use xlink:href="#DejaVuSans-2212"/>
       <use xlink:href="#DejaVuSans-31" x="83.789062"/>
       <use xlink:href="#DejaVuSans-30" x="147.412109"/>
      </g>
     </g>
    </g>
    <g id="ytick_12">
     <g id="line2d_29">
      <path d="M 377.354352 122.320824 
C 377.354352 113.370891 375.591411 104.507985 372.16642 96.239326 
C 368.741429 87.970666 363.720996 80.457058 357.392438 74.1285 
C 351.06388 67.799942 343.550271 62.779509 335.281612 59.354518 
C 327.012952 55.929527 318.150046 54.166585 309.200114 54.166585 
C 300.250181 54.166585 291.387275 55.929527 283.118616 59.354518 
C 274.849956 62.779509 267.336347 67.799942 261.007789 74.1285 
C 254.679231 80.457058 249.658799 87.970666 246.233808 96.239326 
C 242.808817 104.507985 241.045875 113.370891 241.045875 122.320824 
C 241.045875 131.270756 242.808817 140.133662 246.233808 148.402322 
C 249.658799 156.670981 254.679231 164.18459 261.007789 170.513148 
C 267.336347 176.841706 274.849956 181.862139 283.118616 185.28713 
C 291.387275 188.712121 300.250181 190.475062 309.200114 190.475062 
C 318.150046 190.475062 327.012952 188.712121 335.281612 185.28713 
C 343.550271 181.862139 351.06388 176.841706 357.392438 170.513148 
C 363.720996 164.18459 368.741429 156.670981 372.16642 148.402322 
C 375.591411 140.133662 377.354352 131.270756 377.354352 122.320824 
" clip-path="url(#p7979beb2fb)" style="fill: none; stroke: #b0b0b0; stroke-width: 0.8; stroke-linecap: square"/>
     </g>
     <g id="text_29">
      <!-- −5 -->
      <g transform="translate(372.16642 94.159638) scale(0.1 -0.1)">
       <use xlink:href="#DejaVuSans-2212"/>
       <use xlink:href="#DejaVuSans-35" x="83.789062"/>
      </g>
     </g>
    </g>
    <g id="ytick_13">
     <g id="line2d_30">
      <path d="M 390.36375 122.320824 
C 390.36375 111.662513 388.264295 101.10784 384.185536 91.260845 
C 380.106777 81.413849 374.128035 72.46603 366.591471 64.929466 
C 359.054907 57.392902 350.107088 51.414161 340.260093 47.335401 
C 330.413097 43.256642 319.858425 41.157188 309.200114 41.157188 
C 298.541803 41.157188 287.98713 43.256642 278.140135 47.335401 
C 268.293139 51.414161 259.34532 57.392902 251.808756 64.929466 
C 244.272192 72.46603 238.29345 81.413849 234.214691 91.260845 
C 230.135932 101.10784 228.036477 111.662513 228.036477 122.320824 
C 228.036477 132.979135 230.135932 143.533807 234.214691 153.380803 
C 238.29345 163.227798 244.272192 172.175617 251.808756 179.712182 
C 259.34532 187.248746 268.293139 193.227487 278.140135 197.306246 
C 287.98713 201.385005 298.541803 203.48446 309.200114 203.48446 
C 319.858425 203.48446 330.413097 201.385005 340.260093 197.306246 
C 350.107088 193.227487 359.054907 187.248746 366.591471 179.712182 
C 374.128035 172.175617 380.106777 163.227798 384.185536 153.380803 
C 388.264295 143.533807 390.36375 132.979135 390.36375 122.320824 
" clip-path="url(#p7979beb2fb)" style="fill: none; stroke: #b0b0b0; stroke-width: 0.8; stroke-linecap: square"/>
     </g>
     <g id="text_30">
      <!-- 0 -->
      <g transform="translate(384.185536 89.181157) scale(0.1 -0.1)">
       <use xlink:href="#DejaVuSans-30"/>
      </g>
     </g>
    </g>
   </g>
   <g id="line2d_31">
    <path d="M 289.456837 145.849945 
L 291.854828 147.092459 
L 294.878279 147.12697 
L 298.171942 145.970815 
L 301.588428 143.233759 
L 304.299429 140.610427 
L 306.324456 138.629488 
L 308.061343 135.33703 
L 309.200114 132.852443 
L 310.068505 132.246587 
L 310.938455 132.179447 
L 310.995727 129.022145 
L 310.52779 125.968583 
L 310.935169 126.041663 
L 312.623937 128.251059 
L 313.994956 129.168569 
L 313.672646 127.650981 
L 312.35104 125.471751 
L 315.624991 127.711936 
L 324.515734 133.044937 
L 333.060183 136.096441 
L 339.641004 136.515644 
L 351.076152 137.562455 
L 367.214572 137.865751 
L 380.409487 134.876958 
L 388.002573 129.215146 
L 390.135378 122.320824 
L 387.545512 115.46649 
L 379.441642 109.935347 
L 365.537739 107.225203 
L 349.172745 107.771976 
L 338.149344 108.821576 
L 332.287188 108.991495 
L 323.772946 112.116817 
L 315.073199 117.39272 
L 311.925346 119.595592 
L 313.369924 117.351438 
L 313.674583 115.930619 
L 312.45146 116.689326 
L 310.917187 118.638548 
L 310.586528 118.511683 
L 311.046772 115.429002 
L 310.943587 112.433096 
L 310.07682 112.300026 
L 309.200114 111.313424 
L 308.011592 108.735962 
L 306.252703 105.605226 
L 304.173157 103.559967 
L 301.336037 100.714452 
L 297.854435 97.989938 
L 294.714187 97.230463 
L 291.573673 97.147658 
L 288.824859 98.038541 
" clip-path="url(#p7979beb2fb)" style="fill: none; stroke: #1f77b4; stroke-width: 1.5; stroke-linecap: square"/>
   </g>
   <g id="patch_5">
    <path d="M 390.36375 122.320824 
C 390.36375 111.662513 388.264295 101.10784 384.185536 91.260845 
C 380.106777 81.413849 374.128035 72.46603 366.591471 64.929466 
C 359.054907 57.392902 350.107088 51.414161 340.260093 47.335401 
C 330.413097 43.256642 319.858425 41.157188 309.200114 41.157188 
C 298.541803 41.157188 287.98713 43.256642 278.140135 47.335401 
C 268.293139 51.414161 259.34532 57.392902 251.808756 64.929466 
C 244.272192 72.46603 238.29345 81.413849 234.214691 91.260845 
C 230.135932 101.10784 228.036477 111.662513 228.036477 122.320824 
C 228.036477 132.979135 230.135932 143.533807 234.214691 153.380803 
C 238.29345 163.227798 244.272192 172.175617 251.808756 179.712182 
C 259.34532 187.248746 268.293139 193.227487 278.140135 197.306246 
C 287.98713 201.385005 298.541803 203.48446 309.200114 203.48446 
C 319.858425 203.48446 330.413097 201.385005 340.260093 197.306246 
C 350.107088 193.227487 359.054907 187.248746 366.591471 179.712182 
C 374.128035 172.175617 380.106777 163.227798 384.185536 153.380803 
C 388.264295 143.533807 390.36375 132.979135 390.36375 122.320824 
" style="fill: none; stroke: #000000; stroke-width: 0.8; stroke-linejoin: miter; stroke-linecap: square"/>
   </g>
   <g id="text_31">
    <!-- H-Plane (Phi = 90.0) -->
    <g transform="translate(248.190426 16.318125) scale(0.12 -0.12)">
     <defs>
      <path id="DejaVuSans-48" d="M 628 4666 
L 1259 4666 
L 1259 2753 
L 3553 2753 
L 3553 4666 
L 4184 4666 
L 4184 0 
L 3553 0 
L 3553 2222 
L 1259 2222 
L 1259 0 
L 628 0 
L 628 4666 
z
" transform="scale(0.015625)"/>
     </defs>
     <use xlink:href="#DejaVuSans-48"/>
     <use xlink:href="#DejaVuSans-2d" x="75.195312"/>
     <use xlink:href="#DejaVuSans-50" x="111.279297"/>
     <use xlink:href="#DejaVuSans-6c" x="171.582031"/>
     <use xlink:href="#DejaVuSans-61" x="199.365234"/>
     <use xlink:href="#DejaVuSans-6e" x="260.644531"/>
     <use xlink:href="#DejaVuSans-65" x="324.023438"/>
     <use xlink:href="#DejaVuSans-20" x="385.546875"/>
     <use xlink:href="#DejaVuSans-28" x="417.333984"/>
     <use xlink:href="#DejaVuSans-50" x="456.347656"/>
     <use xlink:href="#DejaVuSans-68" x="516.650391"/>
     <use xlink:href="#DejaVuSans-69" x="580.029297"/>
     <use xlink:href="#DejaVuSans-20" x="607.8125"/>
     <use xlink:href="#DejaVuSans-3d" x="639.599609"/>
     <use xlink:href="#DejaVuSans-20" x="723.388672"/>
     <use xlink:href="#DejaVuSans-39" x="755.175781"/>
     <use xlink:href="#DejaVuSans-30" x="818.798828"/>
     <use xlink:href="#DejaVuSans-2e" x="882.421875"/>
     <use xlink:href="#DejaVuSans-30" x="914.208984"/>
     <use xlink:href="#DejaVuSans-29" x="977.832031"/>
    </g>
   </g>
  </g>
 </g>
 <defs>
  <clipPath id="p18b9ea5e04">
   <path d="M 195.571023 122.320824 
C 195.571023 111.662513 193.471568 101.10784 189.392809 91.260845 
C 185.31405 81.413849 179.335308 72.46603 171.798744 64.929466 
C 164.26218 57.392902 155.314361 51.414161 145.467365 47.335401 
C 135.62037 43.256642 125.065697 41.157188 114.407386 41.157188 
C 103.749075 41.157188 93.194403 43.256642 83.347407 47.335401 
C 73.500412 51.414161 64.552593 57.392902 57.016029 64.929466 
C 49.479465 72.46603 43.500723 81.413849 39.421964 91.260845 
C 35.343205 101.10784 33.24375 111.662513 33.24375 122.320824 
C 33.24375 132.979135 35.343205 143.533807 39.421964 153.380803 
C 43.500723 163.227798 49.479465 172.175617 57.016029 179.712182 
C 64.552593 187.248746 73.500412 193.227487 83.347407 197.306246 
C 93.194403 201.385005 103.749075 203.48446 114.407386 203.48446 
C 125.065697 203.48446 135.62037 201.385005 145.467365 197.306246 
C 155.314361 193.227487 164.26218 187.248746 171.798744 179.712182 
C 179.335308 172.175617 185.31405 163.227798 189.392809 153.380803 
C 193.471568 143.533807 195.571023 132.979135 195.571023 122.320824 
M 114.407386 122.320824 
C 114.407386 122.320824 114.407386 122.320824 114.407386 122.320824 
C 114.407386 122.320824 114.407386 122.320824 114.407386 122.320824 
C 114.407386 122.320824 114.407386 122.320824 114.407386 122.320824 
C 114.407386 122.320824 114.407386 122.320824 114.407386 122.320824 
C 114.407386 122.320824 114.407386 122.320824 114.407386 122.320824 
C 114.407386 122.320824 114.407386 122.320824 114.407386 122.320824 
C 114.407386 122.320824 114.407386 122.320824 114.407386 122.320824 
C 114.407386 122.320824 114.407386 122.320824 114.407386 122.320824 
C 114.407386 122.320824 114.407386 122.320824 114.407386 122.320824 
C 114.407386 122.320824 114.407386 122.320824 114.407386 122.320824 
C 114.407386 122.320824 114.407386 122.320824 114.407386 122.320824 
C 114.407386 122.320824 114.407386 122.320824 114.407386 122.320824 
C 114.407386 122.320824 114.407386 122.320824 114.407386 122.320824 
C 114.407386 122.320824 114.407386 122.320824 114.407386 122.320824 
C 114.407386 122.320824 114.407386 122.320824 114.407386 122.320824 
C 114.407386 122.320824 114.407386 122.320824 114.407386 122.320824 
z
"/>
  </clipPath>
  <clipPath id="p7979beb2fb">
   <path d="M 390.36375 122.320824 
C 390.36375 111.662513 388.264295 101.10784 384.185536 91.260845 
C 380.106777 81.413849 374.128035 72.46603 366.591471 64.929466 
C 359.054907 57.392902 350.107088 51.414161 340.260093 47.335401 
C 330.413097 43.256642 319.858425 41.157188 309.200114 41.157188 
C 298.541803 41.157188 287.98713 43.256642 278.140135 47.335401 
C 268.293139 51.414161 259.34532 57.392902 251.808756 64.929466 
C 244.272192 72.46603 238.29345 81.413849 234.214691 91.260845 
C 230.135932 101.10784 228.036477 111.662513 228.036477 122.320824 
C 228.036477 132.979135 230.135932 143.533807 234.214691 153.380803 
C 238.29345 163.227798 244.272192 172.175617 251.808756 179.712182 
C 259.34532 187.248746 268.293139 193.227487 278.140135 197.306246 
C 287.98713 201.385005 298.541803 203.48446 309.200114 203.48446 
C 319.858425 203.48446 330.413097 201.385005 340.260093 197.306246 
C 350.107088 193.227487 359.054907 187.248746 366.591471 179.712182 
C 374.128035 172.175617 380.106777 163.227798 384.185536 153.380803 
C 388.264295 143.533807 390.36375 132.979135 390.36375 122.320824 
M 309.200114 122.320824 
C 309.200114 122.320824 309.200114 122.320824 309.200114 122.320824 
C 309.200114 122.320824 309.200114 122.320824 309.200114 122.320824 
C 309.200114 122.320824 309.200114 122.320824 309.200114 122.320824 
C 309.200114 122.320824 309.200114 122.320824 309.200114 122.320824 
C 309.200114 122.320824 309.200114 122.320824 309.200114 122.320824 
C 309.200114 122.320824 309.200114 122.320824 309.200114 122.320824 
C 309.200114 122.320824 309.200114 122.320824 309.200114 122.320824 
C 309.200114 122.320824 309.200114 122.320824 309.200114 122.320824 
C 309.200114 122.320824 309.200114 122.320824 309.200114 122.320824 
C 309.200114 122.320824 309.200114 122.320824 309.200114 122.320824 
C 309.200114 122.320824 309.200114 122.320824 309.200114 122.320824 
C 309.200114 122.320824 309.200114 122.320824 309.200114 122.320824 
C 309.200114 122.320824 309.200114 122.320824 309.200114 122.320824 
C 309.200114 122.320824 309.200114 122.320824 309.200114 122.320824 
C 309.200114 122.320824 309.200114 122.320824 309.200114 122.320824 
C 309.200114 122.320824 309.200114 122.320824 309.200114 122.320824 
z
"/>
  </clipPath>
 </defs>
</svg>
