<?xml version="1.0" encoding="utf-8" standalone="no"?>
<!DOCTYPE svg PUBLIC "-//W3C//DTD SVG 1.1//EN"
  "http://www.w3.org/Graphics/SVG/1.1/DTD/svg11.dtd">
<svg xmlns:xlink="http://www.w3.org/1999/xlink" width="417.245pt" height="229.523523pt" viewBox="0 0 417.245 229.523523" xmlns="http://www.w3.org/2000/svg" version="1.1">
 <metadata>
  <rdf:RDF xmlns:dc="http://purl.org/dc/elements/1.1/" xmlns:cc="http://creativecommons.org/ns#" xmlns:rdf="http://www.w3.org/1999/02/22-rdf-syntax-ns#">
   <cc:Work>
    <dc:type rdf:resource="http://purl.org/dc/dcmitype/StillImage"/>
    <dc:date>2024-12-11T14:53:57.222277</dc:date>
    <dc:format>image/svg+xml</dc:format>
    <dc:creator>
     <cc:Agent>
      <dc:title>Matplotlib v3.8.3, https://matplotlib.org/</dc:title>
     </cc:Agent>
    </dc:creator>
   </cc:Work>
  </rdf:RDF>
 </metadata>
 <defs>
  <style type="text/css">*{stroke-linejoin: round; stroke-linecap: butt}</style>
 </defs>
 <g id="figure_1">
  <g id="patch_1">
   <path d="M 0 229.523523 
L 417.245 229.523523 
L 417.245 0 
L 0 0 
z
" style="fill: #ffffff"/>
  </g>
  <g id="axes_1">
   <g id="patch_2">
    <path d="M 195.571023 122.320824 
C 195.571023 111.662513 193.471568 101.10784 189.392809 91.260845 
C 185.31405 81.413849 179.335308 72.46603 171.798744 64.929466 
C 164.26218 57.392902 155.314361 51.414161 145.467365 47.335401 
C 135.62037 43.256642 125.065697 41.157188 114.407386 41.157188 
C 103.749075 41.157188 93.194403 43.256642 83.347407 47.335401 
C 73.500412 51.414161 64.552593 57.392902 57.016029 64.929466 
C 49.479465 72.46603 43.500723 81.413849 39.421964 91.260845 
C 35.343205 101.10784 33.24375 111.662513 33.24375 122.320824 
C 33.24375 132.979135 35.343205 143.533807 39.421964 153.380803 
C 43.500723 163.227798 49.479465 172.175617 57.016029 179.712182 
C 64.552593 187.248746 73.500412 193.227487 83.347407 197.306246 
C 93.194403 201.385005 103.749075 203.48446 114.407386 203.48446 
C 125.065697 203.48446 135.62037 201.385005 145.467365 197.306246 
C 155.314361 193.227487 164.26218 187.248746 171.798744 179.712182 
C 179.335308 172.175617 185.31405 163.227798 189.392809 153.380803 
C 193.471568 143.533807 195.571023 132.979135 195.571023 122.320824 
M 114.407386 122.320824 
C 114.407386 122.320824 114.407386 122.320824 114.407386 122.320824 
C 114.407386 122.320824 114.407386 122.320824 114.407386 122.320824 
C 114.407386 122.320824 114.407386 122.320824 114.407386 122.320824 
C 114.407386 122.320824 114.407386 122.320824 114.407386 122.320824 
C 114.407386 122.320824 114.407386 122.320824 114.407386 122.320824 
C 114.407386 122.320824 114.407386 122.320824 114.407386 122.320824 
C 114.407386 122.320824 114.407386 122.320824 114.407386 122.320824 
C 114.407386 122.320824 114.407386 122.320824 114.407386 122.320824 
C 114.407386 122.320824 114.407386 122.320824 114.407386 122.320824 
C 114.407386 122.320824 114.407386 122.320824 114.407386 122.320824 
C 114.407386 122.320824 114.407386 122.320824 114.407386 122.320824 
C 114.407386 122.320824 114.407386 122.320824 114.407386 122.320824 
C 114.407386 122.320824 114.407386 122.320824 114.407386 122.320824 
C 114.407386 122.320824 114.407386 122.320824 114.407386 122.320824 
C 114.407386 122.320824 114.407386 122.320824 114.407386 122.320824 
C 114.407386 122.320824 114.407386 122.320824 114.407386 122.320824 
z
" style="fill: #ffffff"/>
   </g>
   <g id="matplotlib.axis_1">
    <g id="xtick_1">
     <g id="line2d_1">
      <path d="M 114.407386 122.320824 
L 195.571023 122.320824 
" clip-path="url(#p4d96d91fb5)" style="fill: none; stroke: #b0b0b0; stroke-width: 0.8; stroke-linecap: square"/>
     </g>
     <g id="text_1">
      <!-- 0° -->
      <g transform="translate(203.889773 125.080199) scale(0.1 -0.1)">
       <defs>
        <path id="DejaVuSans-30" d="M 2034 4250 
Q 1547 4250 1301 3770 
Q 1056 3291 1056 2328 
Q 1056 1369 1301 889 
Q 1547 409 2034 409 
Q 2525 409 2770 889 
Q 3016 1369 3016 2328 
Q 3016 3291 2770 3770 
Q 2525 4250 2034 4250 
z
M 2034 4750 
Q 2819 4750 3233 4129 
Q 3647 3509 3647 2328 
Q 3647 1150 3233 529 
Q 2819 -91 2034 -91 
Q 1250 -91 836 529 
Q 422 1150 422 2328 
Q 422 3509 836 4129 
Q 1250 4750 2034 4750 
z
" transform="scale(0.015625)"/>
        <path id="DejaVuSans-b0" d="M 1600 4347 
Q 1350 4347 1178 4173 
Q 1006 4000 1006 3750 
Q 1006 3503 1178 3333 
Q 1350 3163 1600 3163 
Q 1850 3163 2022 3333 
Q 2194 3503 2194 3750 
Q 2194 3997 2020 4172 
Q 1847 4347 1600 4347 
z
M 1600 4750 
Q 1800 4750 1984 4673 
Q 2169 4597 2303 4453 
Q 2447 4313 2519 4134 
Q 2591 3956 2591 3750 
Q 2591 3338 2302 3052 
Q 2013 2766 1594 2766 
Q 1172 2766 890 3047 
Q 609 3328 609 3750 
Q 609 4169 896 4459 
Q 1184 4750 1600 4750 
z
" transform="scale(0.015625)"/>
       </defs>
       <use xlink:href="#DejaVuSans-30"/>
       <use xlink:href="#DejaVuSans-b0" x="63.623047"/>
      </g>
     </g>
    </g>
    <g id="xtick_2">
     <g id="line2d_2">
      <path d="M 114.407386 122.320824 
L 171.798744 64.929466 
" clip-path="url(#p4d96d91fb5)" style="fill: none; stroke: #b0b0b0; stroke-width: 0.8; stroke-linecap: square"/>
     </g>
     <g id="text_2">
      <!-- 45° -->
      <g transform="translate(172.835739 57.789346) scale(0.1 -0.1)">
       <defs>
        <path id="DejaVuSans-34" d="M 2419 4116 
L 825 1625 
L 2419 1625 
L 2419 4116 
z
M 2253 4666 
L 3047 4666 
L 3047 1625 
L 3713 1625 
L 3713 1100 
L 3047 1100 
L 3047 0 
L 2419 0 
L 2419 1100 
L 313 1100 
L 313 1709 
L 2253 4666 
z
" transform="scale(0.015625)"/>
        <path id="DejaVuSans-35" d="M 691 4666 
L 3169 4666 
L 3169 4134 
L 1269 4134 
L 1269 2991 
Q 1406 3038 1543 3061 
Q 1681 3084 1819 3084 
Q 2600 3084 3056 2656 
Q 3513 2228 3513 1497 
Q 3513 744 3044 326 
Q 2575 -91 1722 -91 
Q 1428 -91 1123 -41 
Q 819 9 494 109 
L 494 744 
Q 775 591 1075 516 
Q 1375 441 1709 441 
Q 2250 441 2565 725 
Q 2881 1009 2881 1497 
Q 2881 1984 2565 2268 
Q 2250 2553 1709 2553 
Q 1456 2553 1204 2497 
Q 953 2441 691 2322 
L 691 4666 
z
" transform="scale(0.015625)"/>
       </defs>
       <use xlink:href="#DejaVuSans-34"/>
       <use xlink:href="#DejaVuSans-35" x="63.623047"/>
       <use xlink:href="#DejaVuSans-b0" x="127.246094"/>
      </g>
     </g>
    </g>
    <g id="xtick_3">
     <g id="line2d_3">
      <path d="M 114.407386 122.320824 
L 114.407386 41.157188 
" clip-path="url(#p4d96d91fb5)" style="fill: none; stroke: #b0b0b0; stroke-width: 0.8; stroke-linecap: square"/>
     </g>
     <g id="text_3">
      <!-- 90° -->
      <g transform="translate(105.544886 29.916563) scale(0.1 -0.1)">
       <defs>
        <path id="DejaVuSans-39" d="M 703 97 
L 703 672 
Q 941 559 1184 500 
Q 1428 441 1663 441 
Q 2288 441 2617 861 
Q 2947 1281 2994 2138 
Q 2813 1869 2534 1725 
Q 2256 1581 1919 1581 
Q 1219 1581 811 2004 
Q 403 2428 403 3163 
Q 403 3881 828 4315 
Q 1253 4750 1959 4750 
Q 2769 4750 3195 4129 
Q 3622 3509 3622 2328 
Q 3622 1225 3098 567 
Q 2575 -91 1691 -91 
Q 1453 -91 1209 -44 
Q 966 3 703 97 
z
M 1959 2075 
Q 2384 2075 2632 2365 
Q 2881 2656 2881 3163 
Q 2881 3666 2632 3958 
Q 2384 4250 1959 4250 
Q 1534 4250 1286 3958 
Q 1038 3666 1038 3163 
Q 1038 2656 1286 2365 
Q 1534 2075 1959 2075 
z
" transform="scale(0.015625)"/>
       </defs>
       <use xlink:href="#DejaVuSans-39"/>
       <use xlink:href="#DejaVuSans-30" x="63.623047"/>
       <use xlink:href="#DejaVuSans-b0" x="127.246094"/>
      </g>
     </g>
    </g>
    <g id="xtick_4">
     <g id="line2d_4">
      <path d="M 114.407386 122.320824 
L 57.016029 64.929466 
" clip-path="url(#p4d96d91fb5)" style="fill: none; stroke: #b0b0b0; stroke-width: 0.8; stroke-linecap: square"/>
     </g>
     <g id="text_4">
      <!-- 135° -->
      <g transform="translate(35.072784 57.789346) scale(0.1 -0.1)">
       <defs>
        <path id="DejaVuSans-31" d="M 794 531 
L 1825 531 
L 1825 4091 
L 703 3866 
L 703 4441 
L 1819 4666 
L 2450 4666 
L 2450 531 
L 3481 531 
L 3481 0 
L 794 0 
L 794 531 
z
" transform="scale(0.015625)"/>
        <path id="DejaVuSans-33" d="M 2597 2516 
Q 3050 2419 3304 2112 
Q 3559 1806 3559 1356 
Q 3559 666 3084 287 
Q 2609 -91 1734 -91 
Q 1441 -91 1130 -33 
Q 819 25 488 141 
L 488 750 
Q 750 597 1062 519 
Q 1375 441 1716 441 
Q 2309 441 2620 675 
Q 2931 909 2931 1356 
Q 2931 1769 2642 2001 
Q 2353 2234 1838 2234 
L 1294 2234 
L 1294 2753 
L 1863 2753 
Q 2328 2753 2575 2939 
Q 2822 3125 2822 3475 
Q 2822 3834 2567 4026 
Q 2313 4219 1838 4219 
Q 1578 4219 1281 4162 
Q 984 4106 628 3988 
L 628 4550 
Q 988 4650 1302 4700 
Q 1616 4750 1894 4750 
Q 2613 4750 3031 4423 
Q 3450 4097 3450 3541 
Q 3450 3153 3228 2886 
Q 3006 2619 2597 2516 
z
" transform="scale(0.015625)"/>
       </defs>
       <use xlink:href="#DejaVuSans-31"/>
       <use xlink:href="#DejaVuSans-33" x="63.623047"/>
       <use xlink:href="#DejaVuSans-35" x="127.246094"/>
       <use xlink:href="#DejaVuSans-b0" x="190.869141"/>
      </g>
     </g>
    </g>
    <g id="xtick_5">
     <g id="line2d_5">
      <path d="M 114.407386 122.320824 
L 33.24375 122.320824 
" clip-path="url(#p4d96d91fb5)" style="fill: none; stroke: #b0b0b0; stroke-width: 0.8; stroke-linecap: square"/>
     </g>
     <g id="text_5">
      <!-- 180° -->
      <g transform="translate(7.2 125.080199) scale(0.1 -0.1)">
       <defs>
        <path id="DejaVuSans-38" d="M 2034 2216 
Q 1584 2216 1326 1975 
Q 1069 1734 1069 1313 
Q 1069 891 1326 650 
Q 1584 409 2034 409 
Q 2484 409 2743 651 
Q 3003 894 3003 1313 
Q 3003 1734 2745 1975 
Q 2488 2216 2034 2216 
z
M 1403 2484 
Q 997 2584 770 2862 
Q 544 3141 544 3541 
Q 544 4100 942 4425 
Q 1341 4750 2034 4750 
Q 2731 4750 3128 4425 
Q 3525 4100 3525 3541 
Q 3525 3141 3298 2862 
Q 3072 2584 2669 2484 
Q 3125 2378 3379 2068 
Q 3634 1759 3634 1313 
Q 3634 634 3220 271 
Q 2806 -91 2034 -91 
Q 1263 -91 848 271 
Q 434 634 434 1313 
Q 434 1759 690 2068 
Q 947 2378 1403 2484 
z
M 1172 3481 
Q 1172 3119 1398 2916 
Q 1625 2713 2034 2713 
Q 2441 2713 2670 2916 
Q 2900 3119 2900 3481 
Q 2900 3844 2670 4047 
Q 2441 4250 2034 4250 
Q 1625 4250 1398 4047 
Q 1172 3844 1172 3481 
z
" transform="scale(0.015625)"/>
       </defs>
       <use xlink:href="#DejaVuSans-31"/>
       <use xlink:href="#DejaVuSans-38" x="63.623047"/>
       <use xlink:href="#DejaVuSans-30" x="127.246094"/>
       <use xlink:href="#DejaVuSans-b0" x="190.869141"/>
      </g>
     </g>
    </g>
    <g id="xtick_6">
     <g id="line2d_6">
      <path d="M 114.407386 122.320824 
L 57.016029 179.712182 
" clip-path="url(#p4d96d91fb5)" style="fill: none; stroke: #b0b0b0; stroke-width: 0.8; stroke-linecap: square"/>
     </g>
     <g id="text_6">
      <!-- 225° -->
      <g transform="translate(35.072784 192.371051) scale(0.1 -0.1)">
       <defs>
        <path id="DejaVuSans-32" d="M 1228 531 
L 3431 531 
L 3431 0 
L 469 0 
L 469 531 
Q 828 903 1448 1529 
Q 2069 2156 2228 2338 
Q 2531 2678 2651 2914 
Q 2772 3150 2772 3378 
Q 2772 3750 2511 3984 
Q 2250 4219 1831 4219 
Q 1534 4219 1204 4116 
Q 875 4013 500 3803 
L 500 4441 
Q 881 4594 1212 4672 
Q 1544 4750 1819 4750 
Q 2544 4750 2975 4387 
Q 3406 4025 3406 3419 
Q 3406 3131 3298 2873 
Q 3191 2616 2906 2266 
Q 2828 2175 2409 1742 
Q 1991 1309 1228 531 
z
" transform="scale(0.015625)"/>
       </defs>
       <use xlink:href="#DejaVuSans-32"/>
       <use xlink:href="#DejaVuSans-32" x="63.623047"/>
       <use xlink:href="#DejaVuSans-35" x="127.246094"/>
       <use xlink:href="#DejaVuSans-b0" x="190.869141"/>
      </g>
     </g>
    </g>
    <g id="xtick_7">
     <g id="line2d_7">
      <path d="M 114.407386 122.320824 
L 114.407386 203.48446 
" clip-path="url(#p4d96d91fb5)" style="fill: none; stroke: #b0b0b0; stroke-width: 0.8; stroke-linecap: square"/>
     </g>
     <g id="text_7">
      <!-- 270° -->
      <g transform="translate(102.363636 220.243835) scale(0.1 -0.1)">
       <defs>
        <path id="DejaVuSans-37" d="M 525 4666 
L 3525 4666 
L 3525 4397 
L 1831 0 
L 1172 0 
L 2766 4134 
L 525 4134 
L 525 4666 
z
" transform="scale(0.015625)"/>
       </defs>
       <use xlink:href="#DejaVuSans-32"/>
       <use xlink:href="#DejaVuSans-37" x="63.623047"/>
       <use xlink:href="#DejaVuSans-30" x="127.246094"/>
       <use xlink:href="#DejaVuSans-b0" x="190.869141"/>
      </g>
     </g>
    </g>
    <g id="xtick_8">
     <g id="line2d_8">
      <path d="M 114.407386 122.320824 
L 171.798744 179.712182 
" clip-path="url(#p4d96d91fb5)" style="fill: none; stroke: #b0b0b0; stroke-width: 0.8; stroke-linecap: square"/>
     </g>
     <g id="text_8">
      <!-- 315° -->
      <g transform="translate(169.654489 192.371051) scale(0.1 -0.1)">
       <use xlink:href="#DejaVuSans-33"/>
       <use xlink:href="#DejaVuSans-31" x="63.623047"/>
       <use xlink:href="#DejaVuSans-35" x="127.246094"/>
       <use xlink:href="#DejaVuSans-b0" x="190.869141"/>
      </g>
     </g>
    </g>
   </g>
   <g id="matplotlib.axis_2">
    <g id="ytick_1">
     <g id="line2d_9">
      <path d="M 121.493448 122.320824 
C 121.493448 121.390291 121.310154 120.468806 120.954054 119.609105 
C 120.597954 118.749405 120.075975 117.968208 119.417989 117.310221 
C 118.760003 116.652235 117.978805 116.130256 117.119105 115.774156 
C 116.259404 115.418057 115.33792 115.234762 114.407386 115.234762 
C 113.476853 115.234762 112.555368 115.418057 111.695668 115.774156 
C 110.835967 116.130256 110.05477 116.652235 109.396784 117.310221 
C 108.738798 117.968208 108.216818 118.749405 107.860719 119.609105 
C 107.504619 120.468806 107.321324 121.390291 107.321324 122.320824 
C 107.321324 123.251357 107.504619 124.172842 107.860719 125.032542 
C 108.216818 125.892243 108.738798 126.67344 109.396784 127.331426 
C 110.05477 127.989413 110.835967 128.511392 111.695668 128.867492 
C 112.555368 129.223591 113.476853 129.406886 114.407386 129.406886 
C 115.33792 129.406886 116.259404 129.223591 117.119105 128.867492 
C 117.978805 128.511392 118.760003 127.989413 119.417989 127.331426 
C 120.075975 126.67344 120.597954 125.892243 120.954054 125.032542 
C 121.310154 124.172842 121.493448 123.251357 121.493448 122.320824 
" clip-path="url(#p4d96d91fb5)" style="fill: none; stroke: #b0b0b0; stroke-width: 0.8; stroke-linecap: square"/>
     </g>
     <g id="text_9">
      <!-- −25 -->
      <g transform="translate(120.954054 117.529418) scale(0.1 -0.1)">
       <defs>
        <path id="DejaVuSans-2212" d="M 678 2272 
L 4684 2272 
L 4684 1741 
L 678 1741 
L 678 2272 
z
" transform="scale(0.015625)"/>
       </defs>
       <use xlink:href="#DejaVuSans-2212"/>
       <use xlink:href="#DejaVuSans-32" x="83.789062"/>
       <use xlink:href="#DejaVuSans-35" x="147.412109"/>
      </g>
     </g>
    </g>
    <g id="ytick_2">
     <g id="line2d_10">
      <path d="M 135.558759 122.320824 
C 135.558759 119.543251 135.011638 116.792687 133.948707 114.226544 
C 132.885776 111.660401 131.327706 109.328585 129.363665 107.364545 
C 127.399625 105.400504 125.067809 103.842435 122.501666 102.779504 
C 119.935524 101.716572 117.184959 101.169451 114.407386 101.169451 
C 111.629814 101.169451 108.879249 101.716572 106.313106 102.779504 
C 103.746964 103.842435 101.415148 105.400504 99.451107 107.364545 
C 97.487067 109.328585 95.928997 111.660401 94.866066 114.226544 
C 93.803135 116.792687 93.256014 119.543251 93.256014 122.320824 
C 93.256014 125.098397 93.803135 127.848961 94.866066 130.415104 
C 95.928997 132.981246 97.487067 135.313062 99.451107 137.277103 
C 101.415148 139.241144 103.746964 140.799213 106.313106 141.862144 
C 108.879249 142.925075 111.629814 143.472197 114.407386 143.472197 
C 117.184959 143.472197 119.935524 142.925075 122.501666 141.862144 
C 125.067809 140.799213 127.399625 139.241144 129.363665 137.277103 
C 131.327706 135.313062 132.885776 132.981246 133.948707 130.415104 
C 135.011638 127.848961 135.558759 125.098397 135.558759 122.320824 
" clip-path="url(#p4d96d91fb5)" style="fill: none; stroke: #b0b0b0; stroke-width: 0.8; stroke-linecap: square"/>
     </g>
     <g id="text_10">
      <!-- −20 -->
      <g transform="translate(133.948707 112.146856) scale(0.1 -0.1)">
       <use xlink:href="#DejaVuSans-2212"/>
       <use xlink:href="#DejaVuSans-32" x="83.789062"/>
       <use xlink:href="#DejaVuSans-30" x="147.412109"/>
      </g>
     </g>
    </g>
    <g id="ytick_3">
     <g id="line2d_11">
      <path d="M 149.62407 122.320824 
C 149.62407 117.696211 148.713122 113.116567 146.943359 108.843983 
C 145.173597 104.571398 142.579437 100.688963 139.309342 97.418868 
C 136.039247 94.148773 132.156812 91.554613 127.884228 89.784851 
C 123.611643 88.015088 119.031999 87.10414 114.407386 87.10414 
C 109.782774 87.10414 105.20313 88.015088 100.930545 89.784851 
C 96.65796 91.554613 92.775526 94.148773 89.505431 97.418868 
C 86.235336 100.688963 83.641176 104.571398 81.871413 108.843983 
C 80.101651 113.116567 79.190703 117.696211 79.190703 122.320824 
C 79.190703 126.945436 80.101651 131.52508 81.871413 135.797665 
C 83.641176 140.07025 86.235336 143.952685 89.505431 147.22278 
C 92.775526 150.492874 96.65796 153.087034 100.930545 154.856797 
C 105.20313 156.626559 109.782774 157.537507 114.407386 157.537507 
C 119.031999 157.537507 123.611643 156.626559 127.884228 154.856797 
C 132.156812 153.087034 136.039247 150.492874 139.309342 147.22278 
C 142.579437 143.952685 145.173597 140.07025 146.943359 135.797665 
C 148.713122 131.52508 149.62407 126.945436 149.62407 122.320824 
" clip-path="url(#p4d96d91fb5)" style="fill: none; stroke: #b0b0b0; stroke-width: 0.8; stroke-linecap: square"/>
     </g>
     <g id="text_11">
      <!-- −15 -->
      <g transform="translate(146.943359 106.764295) scale(0.1 -0.1)">
       <use xlink:href="#DejaVuSans-2212"/>
       <use xlink:href="#DejaVuSans-31" x="83.789062"/>
       <use xlink:href="#DejaVuSans-35" x="147.412109"/>
      </g>
     </g>
    </g>
    <g id="ytick_4">
     <g id="line2d_12">
      <path d="M 163.68938 122.320824 
C 163.68938 115.849172 162.414606 109.440448 159.938012 103.461421 
C 157.461418 97.482394 153.831168 92.049341 149.255019 87.473192 
C 144.678869 82.897043 139.245816 79.266792 133.266789 76.790198 
C 127.287762 74.313604 120.879039 73.03883 114.407386 73.03883 
C 107.935734 73.03883 101.527011 74.313604 95.547984 76.790198 
C 89.568957 79.266792 84.135903 82.897043 79.559754 87.473192 
C 74.983605 92.049341 71.353355 97.482394 68.876761 103.461421 
C 66.400167 109.440448 65.125392 115.849172 65.125392 122.320824 
C 65.125392 128.792476 66.400167 135.2012 68.876761 141.180227 
C 71.353355 147.159253 74.983605 152.592307 79.559754 157.168456 
C 84.135903 161.744605 89.568957 165.374855 95.547984 167.85145 
C 101.527011 170.328044 107.935734 171.602818 114.407386 171.602818 
C 120.879039 171.602818 127.287762 170.328044 133.266789 167.85145 
C 139.245816 165.374855 144.678869 161.744605 149.255019 157.168456 
C 153.831168 152.592307 157.461418 147.159253 159.938012 141.180227 
C 162.414606 135.2012 163.68938 128.792476 163.68938 122.320824 
" clip-path="url(#p4d96d91fb5)" style="fill: none; stroke: #b0b0b0; stroke-width: 0.8; stroke-linecap: square"/>
     </g>
     <g id="text_12">
      <!-- −10 -->
      <g transform="translate(159.938012 101.381734) scale(0.1 -0.1)">
       <use xlink:href="#DejaVuSans-2212"/>
       <use xlink:href="#DejaVuSans-31" x="83.789062"/>
       <use xlink:href="#DejaVuSans-30" x="147.412109"/>
      </g>
     </g>
    </g>
    <g id="ytick_5">
     <g id="line2d_13">
      <path d="M 177.754691 122.320824 
C 177.754691 114.002132 176.11609 105.764329 172.932665 98.07886 
C 169.749239 90.393391 165.082899 83.409719 159.200695 77.527515 
C 153.318492 71.645312 146.33482 66.978971 138.64935 63.795546 
C 130.963881 60.61212 122.726078 58.973519 114.407386 58.973519 
C 106.088695 58.973519 97.850891 60.61212 90.165422 63.795546 
C 82.479953 66.978971 75.496281 71.645312 69.614078 77.527515 
C 63.731874 83.409719 59.065534 90.393391 55.882108 98.07886 
C 52.698683 105.764329 51.060082 114.002132 51.060082 122.320824 
C 51.060082 130.639516 52.698683 138.877319 55.882108 146.562788 
C 59.065534 154.248257 63.731874 161.231929 69.614078 167.114133 
C 75.496281 172.996336 82.479953 177.662677 90.165422 180.846102 
C 97.850891 184.029528 106.088695 185.668129 114.407386 185.668129 
C 122.726078 185.668129 130.963881 184.029528 138.64935 180.846102 
C 146.33482 177.662677 153.318492 172.996336 159.200695 167.114133 
C 165.082899 161.231929 169.749239 154.248257 172.932665 146.562788 
C 176.11609 138.877319 177.754691 130.639516 177.754691 122.320824 
" clip-path="url(#p4d96d91fb5)" style="fill: none; stroke: #b0b0b0; stroke-width: 0.8; stroke-linecap: square"/>
     </g>
     <g id="text_13">
      <!-- −5 -->
      <g transform="translate(172.932665 95.999172) scale(0.1 -0.1)">
       <use xlink:href="#DejaVuSans-2212"/>
       <use xlink:href="#DejaVuSans-35" x="83.789062"/>
      </g>
     </g>
    </g>
    <g id="ytick_6">
     <g id="line2d_14">
      <path d="M 191.820002 122.320824 
C 191.820002 112.155092 189.817574 102.08821 185.927317 92.696298 
C 182.03706 83.304387 176.334629 74.770096 169.146372 67.581839 
C 161.958114 60.393581 153.423823 54.69115 144.031912 50.800893 
C 134.64 46.910636 124.573118 44.908208 114.407386 44.908208 
C 104.241655 44.908208 94.174772 46.910636 84.782861 50.800893 
C 75.39095 54.69115 66.856659 60.393581 59.668401 67.581839 
C 52.480143 74.770096 46.777712 83.304387 42.887455 92.696298 
C 38.997198 102.08821 36.994771 112.155092 36.994771 122.320824 
C 36.994771 132.486555 38.997198 142.553438 42.887455 151.945349 
C 46.777712 161.337261 52.480143 169.871551 59.668401 177.059809 
C 66.856659 184.248067 75.39095 189.950498 84.782861 193.840755 
C 94.174772 197.731012 104.241655 199.733439 114.407386 199.733439 
C 124.573118 199.733439 134.64 197.731012 144.031912 193.840755 
C 153.423823 189.950498 161.958114 184.248067 169.146372 177.059809 
C 176.334629 169.871551 182.03706 161.337261 185.927317 151.945349 
C 189.817574 142.553438 191.820002 132.486555 191.820002 122.320824 
" clip-path="url(#p4d96d91fb5)" style="fill: none; stroke: #b0b0b0; stroke-width: 0.8; stroke-linecap: square"/>
     </g>
     <g id="text_14">
      <!-- 0 -->
      <g transform="translate(185.927317 90.616611) scale(0.1 -0.1)">
       <use xlink:href="#DejaVuSans-30"/>
      </g>
     </g>
    </g>
   </g>
   <g id="line2d_15">
    <path d="M 94.339603 146.236677 
L 100.440436 142.267697 
L 103.322708 141.52005 
L 102.444024 147.976338 
L 104.385394 149.856023 
L 109.006548 142.477026 
L 113.173335 129.319479 
L 113.995247 127.0316 
L 114.407386 135.598964 
L 116.186418 142.655247 
L 117.418921 139.400087 
L 118.244227 136.640107 
L 119.786816 137.100684 
L 122.943933 140.627507 
L 123.385141 137.870751 
L 119.406472 129.460258 
L 117.975045 126.572594 
L 125.904562 133.818 
L 139.167925 143.097383 
L 146.920919 145.087044 
L 146.142447 140.64307 
L 139.43724 133.992436 
L 145.127524 133.50204 
L 163.142943 135.379477 
L 181.882588 134.218522 
L 189.154389 128.860339 
L 191.881767 122.320824 
L 189.166201 115.780275 
L 181.461778 110.497325 
L 163.659877 109.123659 
L 144.69191 111.298159 
L 139.380225 110.675798 
L 146.057476 104.047636 
L 147.090923 99.435565 
L 140.347516 100.554471 
L 124.611835 112.116375 
L 116.778795 119.49469 
L 118.159788 116.961838 
L 124.338475 105.119673 
L 123.048262 103.790406 
L 120.121326 106.621904 
L 118.142112 108.382636 
L 117.20396 106.460665 
L 116.13071 102.623141 
L 114.407386 106.846184 
L 113.834726 115.775292 
L 113.242809 115.716178 
L 109.587847 104.334059 
L 104.523189 95.164214 
L 102.281902 96.317639 
L 102.274121 101.305393 
L 99.883772 101.578952 
L 95.578997 99.882024 
" clip-path="url(#p4d96d91fb5)" style="fill: none; stroke: #1f77b4; stroke-width: 1.5; stroke-linecap: square"/>
   </g>
   <g id="patch_3">
    <path d="M 195.571023 122.320824 
C 195.571023 111.662513 193.471568 101.10784 189.392809 91.260845 
C 185.31405 81.413849 179.335308 72.46603 171.798744 64.929466 
C 164.26218 57.392902 155.314361 51.414161 145.467365 47.335401 
C 135.62037 43.256642 125.065697 41.157188 114.407386 41.157188 
C 103.749075 41.157188 93.194403 43.256642 83.347407 47.335401 
C 73.500412 51.414161 64.552593 57.392902 57.016029 64.929466 
C 49.479465 72.46603 43.500723 81.413849 39.421964 91.260845 
C 35.343205 101.10784 33.24375 111.662513 33.24375 122.320824 
C 33.24375 132.979135 35.343205 143.533807 39.421964 153.380803 
C 43.500723 163.227798 49.479465 172.175617 57.016029 179.712182 
C 64.552593 187.248746 73.500412 193.227487 83.347407 197.306246 
C 93.194403 201.385005 103.749075 203.48446 114.407386 203.48446 
C 125.065697 203.48446 135.62037 201.385005 145.467365 197.306246 
C 155.314361 193.227487 164.26218 187.248746 171.798744 179.712182 
C 179.335308 172.175617 185.31405 163.227798 189.392809 153.380803 
C 193.471568 143.533807 195.571023 132.979135 195.571023 122.320824 
" style="fill: none; stroke: #000000; stroke-width: 0.8; stroke-linejoin: miter; stroke-linecap: square"/>
   </g>
   <g id="text_15">
    <!-- E-Plane (Phi = 0.0) -->
    <g transform="translate(57.936136 16.318125) scale(0.12 -0.12)">
     <defs>
      <path id="DejaVuSans-45" d="M 628 4666 
L 3578 4666 
L 3578 4134 
L 1259 4134 
L 1259 2753 
L 3481 2753 
L 3481 2222 
L 1259 2222 
L 1259 531 
L 3634 531 
L 3634 0 
L 628 0 
L 628 4666 
z
" transform="scale(0.015625)"/>
      <path id="DejaVuSans-2d" d="M 313 2009 
L 1997 2009 
L 1997 1497 
L 313 1497 
L 313 2009 
z
" transform="scale(0.015625)"/>
      <path id="DejaVuSans-50" d="M 1259 4147 
L 1259 2394 
L 2053 2394 
Q 2494 2394 2734 2622 
Q 2975 2850 2975 3272 
Q 2975 3691 2734 3919 
Q 2494 4147 2053 4147 
L 1259 4147 
z
M 628 4666 
L 2053 4666 
Q 2838 4666 3239 4311 
Q 3641 3956 3641 3272 
Q 3641 2581 3239 2228 
Q 2838 1875 2053 1875 
L 1259 1875 
L 1259 0 
L 628 0 
L 628 4666 
z
" transform="scale(0.015625)"/>
      <path id="DejaVuSans-6c" d="M 603 4863 
L 1178 4863 
L 1178 0 
L 603 0 
L 603 4863 
z
" transform="scale(0.015625)"/>
      <path id="DejaVuSans-61" d="M 2194 1759 
Q 1497 1759 1228 1600 
Q 959 1441 959 1056 
Q 959 750 1161 570 
Q 1363 391 1709 391 
Q 2188 391 2477 730 
Q 2766 1069 2766 1631 
L 2766 1759 
L 2194 1759 
z
M 3341 1997 
L 3341 0 
L 2766 0 
L 2766 531 
Q 2569 213 2275 61 
Q 1981 -91 1556 -91 
Q 1019 -91 701 211 
Q 384 513 384 1019 
Q 384 1609 779 1909 
Q 1175 2209 1959 2209 
L 2766 2209 
L 2766 2266 
Q 2766 2663 2505 2880 
Q 2244 3097 1772 3097 
Q 1472 3097 1187 3025 
Q 903 2953 641 2809 
L 641 3341 
Q 956 3463 1253 3523 
Q 1550 3584 1831 3584 
Q 2591 3584 2966 3190 
Q 3341 2797 3341 1997 
z
" transform="scale(0.015625)"/>
      <path id="DejaVuSans-6e" d="M 3513 2113 
L 3513 0 
L 2938 0 
L 2938 2094 
Q 2938 2591 2744 2837 
Q 2550 3084 2163 3084 
Q 1697 3084 1428 2787 
Q 1159 2491 1159 1978 
L 1159 0 
L 581 0 
L 581 3500 
L 1159 3500 
L 1159 2956 
Q 1366 3272 1645 3428 
Q 1925 3584 2291 3584 
Q 2894 3584 3203 3211 
Q 3513 2838 3513 2113 
z
" transform="scale(0.015625)"/>
      <path id="DejaVuSans-65" d="M 3597 1894 
L 3597 1613 
L 953 1613 
Q 991 1019 1311 708 
Q 1631 397 2203 397 
Q 2534 397 2845 478 
Q 3156 559 3463 722 
L 3463 178 
Q 3153 47 2828 -22 
Q 2503 -91 2169 -91 
Q 1331 -91 842 396 
Q 353 884 353 1716 
Q 353 2575 817 3079 
Q 1281 3584 2069 3584 
Q 2775 3584 3186 3129 
Q 3597 2675 3597 1894 
z
M 3022 2063 
Q 3016 2534 2758 2815 
Q 2500 3097 2075 3097 
Q 1594 3097 1305 2825 
Q 1016 2553 972 2059 
L 3022 2063 
z
" transform="scale(0.015625)"/>
      <path id="DejaVuSans-20" transform="scale(0.015625)"/>
      <path id="DejaVuSans-28" d="M 1984 4856 
Q 1566 4138 1362 3434 
Q 1159 2731 1159 2009 
Q 1159 1288 1364 580 
Q 1569 -128 1984 -844 
L 1484 -844 
Q 1016 -109 783 600 
Q 550 1309 550 2009 
Q 550 2706 781 3412 
Q 1013 4119 1484 4856 
L 1984 4856 
z
" transform="scale(0.015625)"/>
      <path id="DejaVuSans-68" d="M 3513 2113 
L 3513 0 
L 2938 0 
L 2938 2094 
Q 2938 2591 2744 2837 
Q 2550 3084 2163 3084 
Q 1697 3084 1428 2787 
Q 1159 2491 1159 1978 
L 1159 0 
L 581 0 
L 581 4863 
L 1159 4863 
L 1159 2956 
Q 1366 3272 1645 3428 
Q 1925 3584 2291 3584 
Q 2894 3584 3203 3211 
Q 3513 2838 3513 2113 
z
" transform="scale(0.015625)"/>
      <path id="DejaVuSans-69" d="M 603 3500 
L 1178 3500 
L 1178 0 
L 603 0 
L 603 3500 
z
M 603 4863 
L 1178 4863 
L 1178 4134 
L 603 4134 
L 603 4863 
z
" transform="scale(0.015625)"/>
      <path id="DejaVuSans-3d" d="M 678 2906 
L 4684 2906 
L 4684 2381 
L 678 2381 
L 678 2906 
z
M 678 1631 
L 4684 1631 
L 4684 1100 
L 678 1100 
L 678 1631 
z
" transform="scale(0.015625)"/>
      <path id="DejaVuSans-2e" d="M 684 794 
L 1344 794 
L 1344 0 
L 684 0 
L 684 794 
z
" transform="scale(0.015625)"/>
      <path id="DejaVuSans-29" d="M 513 4856 
L 1013 4856 
Q 1481 4119 1714 3412 
Q 1947 2706 1947 2009 
Q 1947 1309 1714 600 
Q 1481 -109 1013 -844 
L 513 -844 
Q 928 -128 1133 580 
Q 1338 1288 1338 2009 
Q 1338 2731 1133 3434 
Q 928 4138 513 4856 
z
" transform="scale(0.015625)"/>
     </defs>
     <use xlink:href="#DejaVuSans-45"/>
     <use xlink:href="#DejaVuSans-2d" x="63.183594"/>
     <use xlink:href="#DejaVuSans-50" x="99.267578"/>
     <use xlink:href="#DejaVuSans-6c" x="159.570312"/>
     <use xlink:href="#DejaVuSans-61" x="187.353516"/>
     <use xlink:href="#DejaVuSans-6e" x="248.632812"/>
     <use xlink:href="#DejaVuSans-65" x="312.011719"/>
     <use xlink:href="#DejaVuSans-20" x="373.535156"/>
     <use xlink:href="#DejaVuSans-28" x="405.322266"/>
     <use xlink:href="#DejaVuSans-50" x="444.335938"/>
     <use xlink:href="#DejaVuSans-68" x="504.638672"/>
     <use xlink:href="#DejaVuSans-69" x="568.017578"/>
     <use xlink:href="#DejaVuSans-20" x="595.800781"/>
     <use xlink:href="#DejaVuSans-3d" x="627.587891"/>
     <use xlink:href="#DejaVuSans-20" x="711.376953"/>
     <use xlink:href="#DejaVuSans-30" x="743.164062"/>
     <use xlink:href="#DejaVuSans-2e" x="806.787109"/>
     <use xlink:href="#DejaVuSans-30" x="838.574219"/>
     <use xlink:href="#DejaVuSans-29" x="902.197266"/>
    </g>
   </g>
  </g>
  <g id="axes_2">
   <g id="patch_4">
    <path d="M 390.36375 122.320824 
C 390.36375 111.662513 388.264295 101.10784 384.185536 91.260845 
C 380.106777 81.413849 374.128035 72.46603 366.591471 64.929466 
C 359.054907 57.392902 350.107088 51.414161 340.260093 47.335401 
C 330.413097 43.256642 319.858425 41.157188 309.200114 41.157188 
C 298.541803 41.157188 287.98713 43.256642 278.140135 47.335401 
C 268.293139 51.414161 259.34532 57.392902 251.808756 64.929466 
C 244.272192 72.46603 238.29345 81.413849 234.214691 91.260845 
C 230.135932 101.10784 228.036477 111.662513 228.036477 122.320824 
C 228.036477 132.979135 230.135932 143.533807 234.214691 153.380803 
C 238.29345 163.227798 244.272192 172.175617 251.808756 179.712182 
C 259.34532 187.248746 268.293139 193.227487 278.140135 197.306246 
C 287.98713 201.385005 298.541803 203.48446 309.200114 203.48446 
C 319.858425 203.48446 330.413097 201.385005 340.260093 197.306246 
C 350.107088 193.227487 359.054907 187.248746 366.591471 179.712182 
C 374.128035 172.175617 380.106777 163.227798 384.185536 153.380803 
C 388.264295 143.533807 390.36375 132.979135 390.36375 122.320824 
M 309.200114 122.320824 
C 309.200114 122.320824 309.200114 122.320824 309.200114 122.320824 
C 309.200114 122.320824 309.200114 122.320824 309.200114 122.320824 
C 309.200114 122.320824 309.200114 122.320824 309.200114 122.320824 
C 309.200114 122.320824 309.200114 122.320824 309.200114 122.320824 
C 309.200114 122.320824 309.200114 122.320824 309.200114 122.320824 
C 309.200114 122.320824 309.200114 122.320824 309.200114 122.320824 
C 309.200114 122.320824 309.200114 122.320824 309.200114 122.320824 
C 309.200114 122.320824 309.200114 122.320824 309.200114 122.320824 
C 309.200114 122.320824 309.200114 122.320824 309.200114 122.320824 
C 309.200114 122.320824 309.200114 122.320824 309.200114 122.320824 
C 309.200114 122.320824 309.200114 122.320824 309.200114 122.320824 
C 309.200114 122.320824 309.200114 122.320824 309.200114 122.320824 
C 309.200114 122.320824 309.200114 122.320824 309.200114 122.320824 
C 309.200114 122.320824 309.200114 122.320824 309.200114 122.320824 
C 309.200114 122.320824 309.200114 122.320824 309.200114 122.320824 
C 309.200114 122.320824 309.200114 122.320824 309.200114 122.320824 
z
" style="fill: #ffffff"/>
   </g>
   <g id="matplotlib.axis_3">
    <g id="xtick_9">
     <g id="line2d_16">
      <path d="M 309.200114 122.320824 
L 390.36375 122.320824 
" clip-path="url(#pd484f803c7)" style="fill: none; stroke: #b0b0b0; stroke-width: 0.8; stroke-linecap: square"/>
     </g>
     <g id="text_16">
      <!-- 0° -->
      <g transform="translate(398.6825 125.080199) scale(0.1 -0.1)">
       <use xlink:href="#DejaVuSans-30"/>
       <use xlink:href="#DejaVuSans-b0" x="63.623047"/>
      </g>
     </g>
    </g>
    <g id="xtick_10">
     <g id="line2d_17">
      <path d="M 309.200114 122.320824 
L 366.591471 64.929466 
" clip-path="url(#pd484f803c7)" style="fill: none; stroke: #b0b0b0; stroke-width: 0.8; stroke-linecap: square"/>
     </g>
     <g id="text_17">
      <!-- 45° -->
      <g transform="translate(367.628466 57.789346) scale(0.1 -0.1)">
       <use xlink:href="#DejaVuSans-34"/>
       <use xlink:href="#DejaVuSans-35" x="63.623047"/>
       <use xlink:href="#DejaVuSans-b0" x="127.246094"/>
      </g>
     </g>
    </g>
    <g id="xtick_11">
     <g id="line2d_18">
      <path d="M 309.200114 122.320824 
L 309.200114 41.157188 
" clip-path="url(#pd484f803c7)" style="fill: none; stroke: #b0b0b0; stroke-width: 0.8; stroke-linecap: square"/>
     </g>
     <g id="text_18">
      <!-- 90° -->
      <g transform="translate(300.337614 29.916563) scale(0.1 -0.1)">
       <use xlink:href="#DejaVuSans-39"/>
       <use xlink:href="#DejaVuSans-30" x="63.623047"/>
       <use xlink:href="#DejaVuSans-b0" x="127.246094"/>
      </g>
     </g>
    </g>
    <g id="xtick_12">
     <g id="line2d_19">
      <path d="M 309.200114 122.320824 
L 251.808756 64.929466 
" clip-path="url(#pd484f803c7)" style="fill: none; stroke: #b0b0b0; stroke-width: 0.8; stroke-linecap: square"/>
     </g>
     <g id="text_19">
      <!-- 135° -->
      <g transform="translate(229.865511 57.789346) scale(0.1 -0.1)">
       <use xlink:href="#DejaVuSans-31"/>
       <use xlink:href="#DejaVuSans-33" x="63.623047"/>
       <use xlink:href="#DejaVuSans-35" x="127.246094"/>
       <use xlink:href="#DejaVuSans-b0" x="190.869141"/>
      </g>
     </g>
    </g>
    <g id="xtick_13">
     <g id="line2d_20">
      <path d="M 309.200114 122.320824 
L 228.036477 122.320824 
" clip-path="url(#pd484f803c7)" style="fill: none; stroke: #b0b0b0; stroke-width: 0.8; stroke-linecap: square"/>
     </g>
     <g id="text_20">
      <!-- 180° -->
      <g transform="translate(201.992727 125.080199) scale(0.1 -0.1)">
       <use xlink:href="#DejaVuSans-31"/>
       <use xlink:href="#DejaVuSans-38" x="63.623047"/>
       <use xlink:href="#DejaVuSans-30" x="127.246094"/>
       <use xlink:href="#DejaVuSans-b0" x="190.869141"/>
      </g>
     </g>
    </g>
    <g id="xtick_14">
     <g id="line2d_21">
      <path d="M 309.200114 122.320824 
L 251.808756 179.712182 
" clip-path="url(#pd484f803c7)" style="fill: none; stroke: #b0b0b0; stroke-width: 0.8; stroke-linecap: square"/>
     </g>
     <g id="text_21">
      <!-- 225° -->
      <g transform="translate(229.865511 192.371051) scale(0.1 -0.1)">
       <use xlink:href="#DejaVuSans-32"/>
       <use xlink:href="#DejaVuSans-32" x="63.623047"/>
       <use xlink:href="#DejaVuSans-35" x="127.246094"/>
       <use xlink:href="#DejaVuSans-b0" x="190.869141"/>
      </g>
     </g>
    </g>
    <g id="xtick_15">
     <g id="line2d_22">
      <path d="M 309.200114 122.320824 
L 309.200114 203.48446 
" clip-path="url(#pd484f803c7)" style="fill: none; stroke: #b0b0b0; stroke-width: 0.8; stroke-linecap: square"/>
     </g>
     <g id="text_22">
      <!-- 270° -->
      <g transform="translate(297.156364 220.243835) scale(0.1 -0.1)">
       <use xlink:href="#DejaVuSans-32"/>
       <use xlink:href="#DejaVuSans-37" x="63.623047"/>
       <use xlink:href="#DejaVuSans-30" x="127.246094"/>
       <use xlink:href="#DejaVuSans-b0" x="190.869141"/>
      </g>
     </g>
    </g>
    <g id="xtick_16">
     <g id="line2d_23">
      <path d="M 309.200114 122.320824 
L 366.591471 179.712182 
" clip-path="url(#pd484f803c7)" style="fill: none; stroke: #b0b0b0; stroke-width: 0.8; stroke-linecap: square"/>
     </g>
     <g id="text_23">
      <!-- 315° -->
      <g transform="translate(364.447216 192.371051) scale(0.1 -0.1)">
       <use xlink:href="#DejaVuSans-33"/>
       <use xlink:href="#DejaVuSans-31" x="63.623047"/>
       <use xlink:href="#DejaVuSans-35" x="127.246094"/>
       <use xlink:href="#DejaVuSans-b0" x="190.869141"/>
      </g>
     </g>
    </g>
   </g>
   <g id="matplotlib.axis_4">
    <g id="ytick_7">
     <g id="line2d_24">
      <path d="M 312.602988 122.320824 
C 312.602988 121.873963 312.514966 121.431446 312.343959 121.0186 
C 312.172953 120.605754 311.922288 120.230607 311.606309 119.914629 
C 311.29033 119.59865 310.915183 119.347985 310.502337 119.176978 
C 310.089491 119.005972 309.646975 118.91795 309.200114 118.91795 
C 308.753252 118.91795 308.310736 119.005972 307.89789 119.176978 
C 307.485044 119.347985 307.109897 119.59865 306.793918 119.914629 
C 306.47794 120.230607 306.227274 120.605754 306.056268 121.0186 
C 305.885262 121.431446 305.79724 121.873963 305.79724 122.320824 
C 305.79724 122.767685 305.885262 123.210201 306.056268 123.623047 
C 306.227274 124.035893 306.47794 124.41104 306.793918 124.727019 
C 307.109897 125.042998 307.485044 125.293663 307.89789 125.464669 
C 308.310736 125.635676 308.753252 125.723698 309.200114 125.723698 
C 309.646975 125.723698 310.089491 125.635676 310.502337 125.464669 
C 310.915183 125.293663 311.29033 125.042998 311.606309 124.727019 
C 311.922288 124.41104 312.172953 124.035893 312.343959 123.623047 
C 312.514966 123.210201 312.602988 122.767685 312.602988 122.320824 
" clip-path="url(#pd484f803c7)" style="fill: none; stroke: #b0b0b0; stroke-width: 0.8; stroke-linecap: square"/>
     </g>
     <g id="text_24">
      <!-- −30 -->
      <g transform="translate(312.343959 118.938913) scale(0.1 -0.1)">
       <use xlink:href="#DejaVuSans-2212"/>
       <use xlink:href="#DejaVuSans-33" x="83.789062"/>
       <use xlink:href="#DejaVuSans-30" x="147.412109"/>
      </g>
     </g>
    </g>
    <g id="ytick_8">
     <g id="line2d_25">
      <path d="M 325.563115 122.320824 
C 325.563115 120.172054 325.139854 118.044179 324.317555 116.058974 
C 323.495257 114.07377 322.289912 112.269844 320.770503 110.750435 
C 319.251093 109.231025 317.447167 108.025681 315.461963 107.203382 
C 313.476759 106.381084 311.348883 105.957823 309.200114 105.957823 
C 307.051344 105.957823 304.923469 106.381084 302.938264 107.203382 
C 300.95306 108.025681 299.149134 109.231025 297.629725 110.750435 
C 296.110315 112.269844 294.90497 114.07377 294.082672 116.058974 
C 293.260373 118.044179 292.837113 120.172054 292.837113 122.320824 
C 292.837113 124.469593 293.260373 126.597469 294.082672 128.582673 
C 294.90497 130.567878 296.110315 132.371803 297.629725 133.891213 
C 299.149134 135.410622 300.95306 136.615967 302.938264 137.438266 
C 304.923469 138.260564 307.051344 138.683825 309.200114 138.683825 
C 311.348883 138.683825 313.476759 138.260564 315.461963 137.438266 
C 317.447167 136.615967 319.251093 135.410622 320.770503 133.891213 
C 322.289912 132.371803 323.495257 130.567878 324.317555 128.582673 
C 325.139854 126.597469 325.563115 124.469593 325.563115 122.320824 
" clip-path="url(#pd484f803c7)" style="fill: none; stroke: #b0b0b0; stroke-width: 0.8; stroke-linecap: square"/>
     </g>
     <g id="text_25">
      <!-- −25 -->
      <g transform="translate(324.317555 113.979287) scale(0.1 -0.1)">
       <use xlink:href="#DejaVuSans-2212"/>
       <use xlink:href="#DejaVuSans-32" x="83.789062"/>
       <use xlink:href="#DejaVuSans-35" x="147.412109"/>
      </g>
     </g>
    </g>
    <g id="ytick_9">
     <g id="line2d_26">
      <path d="M 338.523242 122.320824 
C 338.523242 118.470146 337.764742 114.656911 336.291152 111.099349 
C 334.817561 107.541786 332.657537 104.309082 329.934696 101.586241 
C 327.211856 98.863401 323.979151 96.703377 320.421589 95.229786 
C 316.864026 93.756195 313.050792 92.997696 309.200114 92.997696 
C 305.349436 92.997696 301.536201 93.756195 297.978638 95.229786 
C 294.421076 96.703377 291.188371 98.863401 288.465531 101.586241 
C 285.74269 104.309082 283.582666 107.541786 282.109076 111.099349 
C 280.635485 114.656911 279.876986 118.470146 279.876986 122.320824 
C 279.876986 126.171502 280.635485 129.984737 282.109076 133.542299 
C 283.582666 137.099862 285.74269 140.332566 288.465531 143.055407 
C 291.188371 145.778247 294.421076 147.938271 297.978638 149.411862 
C 301.536201 150.885452 305.349436 151.643952 309.200114 151.643952 
C 313.050792 151.643952 316.864026 150.885452 320.421589 149.411862 
C 323.979151 147.938271 327.211856 145.778247 329.934696 143.055407 
C 332.657537 140.332566 334.817561 137.099862 336.291152 133.542299 
C 337.764742 129.984737 338.523242 126.171502 338.523242 122.320824 
" clip-path="url(#pd484f803c7)" style="fill: none; stroke: #b0b0b0; stroke-width: 0.8; stroke-linecap: square"/>
     </g>
     <g id="text_26">
      <!-- −20 -->
      <g transform="translate(336.291152 109.019661) scale(0.1 -0.1)">
       <use xlink:href="#DejaVuSans-2212"/>
       <use xlink:href="#DejaVuSans-32" x="83.789062"/>
       <use xlink:href="#DejaVuSans-30" x="147.412109"/>
      </g>
     </g>
    </g>
    <g id="ytick_10">
     <g id="line2d_27">
      <path d="M 351.483369 122.320824 
C 351.483369 116.768238 350.38963 111.269643 348.264748 106.139723 
C 346.139865 101.009802 343.025161 96.348319 339.09889 92.422047 
C 335.172619 88.495776 330.511136 85.381073 325.381215 83.25619 
C 320.251294 81.131307 314.7527 80.037569 309.200114 80.037569 
C 303.647527 80.037569 298.148933 81.131307 293.019012 83.25619 
C 287.889092 85.381073 283.227609 88.495776 279.301337 92.422047 
C 275.375066 96.348319 272.260362 101.009802 270.13548 106.139723 
C 268.010597 111.269643 266.916858 116.768238 266.916858 122.320824 
C 266.916858 127.87341 268.010597 133.372004 270.13548 138.501925 
C 272.260362 143.631846 275.375066 148.293329 279.301337 152.2196 
C 283.227609 156.145872 287.889092 159.260575 293.019012 161.385458 
C 298.148933 163.510341 303.647527 164.604079 309.200114 164.604079 
C 314.7527 164.604079 320.251294 163.510341 325.381215 161.385458 
C 330.511136 159.260575 335.172619 156.145872 339.09889 152.2196 
C 343.025161 148.293329 346.139865 143.631846 348.264748 138.501925 
C 350.38963 133.372004 351.483369 127.87341 351.483369 122.320824 
" clip-path="url(#pd484f803c7)" style="fill: none; stroke: #b0b0b0; stroke-width: 0.8; stroke-linecap: square"/>
     </g>
     <g id="text_27">
      <!-- −15 -->
      <g transform="translate(348.264748 104.060035) scale(0.1 -0.1)">
       <use xlink:href="#DejaVuSans-2212"/>
       <use xlink:href="#DejaVuSans-31" x="83.789062"/>
       <use xlink:href="#DejaVuSans-35" x="147.412109"/>
      </g>
     </g>
    </g>
    <g id="ytick_11">
     <g id="line2d_28">
      <path d="M 364.443496 122.320824 
C 364.443496 115.066329 363.014519 107.882376 360.238344 101.180097 
C 357.462169 94.477818 353.392786 88.387556 348.263084 83.257854 
C 343.133382 78.128151 337.04312 74.058769 330.340841 71.282594 
C 323.638562 68.506419 316.454608 67.077442 309.200114 67.077442 
C 301.945619 67.077442 294.761665 68.506419 288.059387 71.282594 
C 281.357108 74.058769 275.266846 78.128151 270.137143 83.257854 
C 265.007441 88.387556 260.938058 94.477818 258.161883 101.180097 
C 255.385709 107.882376 253.956731 115.066329 253.956731 122.320824 
C 253.956731 129.575318 255.385709 136.759272 258.161883 143.461551 
C 260.938058 150.16383 265.007441 156.254092 270.137143 161.383794 
C 275.266846 166.513496 281.357108 170.582879 288.059387 173.359054 
C 294.761665 176.135229 301.945619 177.564206 309.200114 177.564206 
C 316.454608 177.564206 323.638562 176.135229 330.340841 173.359054 
C 337.04312 170.582879 343.133382 166.513496 348.263084 161.383794 
C 353.392786 156.254092 357.462169 150.16383 360.238344 143.461551 
C 363.014519 136.759272 364.443496 129.575318 364.443496 122.320824 
" clip-path="url(#pd484f803c7)" style="fill: none; stroke: #b0b0b0; stroke-width: 0.8; stroke-linecap: square"/>
     </g>
     <g id="text_28">
      <!-- −10 -->
      <g transform="translate(360.238344 99.100409) scale(0.1 -0.1)">
       <use xlink:href="#DejaVuSans-2212"/>
       <use xlink:href="#DejaVuSans-31" x="83.789062"/>
       <use xlink:href="#DejaVuSans-30" x="147.412109"/>
      </g>
     </g>
    </g>
    <g id="ytick_12">
     <g id="line2d_29">
      <path d="M 377.403623 122.320824 
C 377.403623 113.364421 375.639407 104.495108 372.21194 96.220471 
C 368.784473 87.945834 363.760411 80.426793 357.427278 74.09366 
C 351.094144 67.760527 343.575104 62.736465 335.300467 59.308998 
C 327.025829 55.881531 318.156516 54.117315 309.200114 54.117315 
C 300.243711 54.117315 291.374398 55.881531 283.099761 59.308998 
C 274.825123 62.736465 267.306083 67.760527 260.97295 74.09366 
C 254.639817 80.426793 249.615754 87.945834 246.188287 96.220471 
C 242.76082 104.495108 240.996604 113.364421 240.996604 122.320824 
C 240.996604 131.277227 242.76082 140.14654 246.188287 148.421177 
C 249.615754 156.695814 254.639817 164.214855 260.97295 170.547988 
C 267.306083 176.881121 274.825123 181.905183 283.099761 185.33265 
C 291.374398 188.760117 300.243711 190.524333 309.200114 190.524333 
C 318.156516 190.524333 327.025829 188.760117 335.300467 185.33265 
C 343.575104 181.905183 351.094144 176.881121 357.427278 170.547988 
C 363.760411 164.214855 368.784473 156.695814 372.21194 148.421177 
C 375.639407 140.14654 377.403623 131.277227 377.403623 122.320824 
" clip-path="url(#pd484f803c7)" style="fill: none; stroke: #b0b0b0; stroke-width: 0.8; stroke-linecap: square"/>
     </g>
     <g id="text_29">
      <!-- −5 -->
      <g transform="translate(372.21194 94.140783) scale(0.1 -0.1)">
       <use xlink:href="#DejaVuSans-2212"/>
       <use xlink:href="#DejaVuSans-35" x="83.789062"/>
      </g>
     </g>
    </g>
    <g id="ytick_13">
     <g id="line2d_30">
      <path d="M 390.36375 122.320824 
C 390.36375 111.662513 388.264295 101.10784 384.185536 91.260845 
C 380.106777 81.413849 374.128035 72.46603 366.591471 64.929466 
C 359.054907 57.392902 350.107088 51.414161 340.260093 47.335401 
C 330.413097 43.256642 319.858425 41.157188 309.200114 41.157188 
C 298.541803 41.157188 287.98713 43.256642 278.140135 47.335401 
C 268.293139 51.414161 259.34532 57.392902 251.808756 64.929466 
C 244.272192 72.46603 238.29345 81.413849 234.214691 91.260845 
C 230.135932 101.10784 228.036477 111.662513 228.036477 122.320824 
C 228.036477 132.979135 230.135932 143.533807 234.214691 153.380803 
C 238.29345 163.227798 244.272192 172.175617 251.808756 179.712182 
C 259.34532 187.248746 268.293139 193.227487 278.140135 197.306246 
C 287.98713 201.385005 298.541803 203.48446 309.200114 203.48446 
C 319.858425 203.48446 330.413097 201.385005 340.260093 197.306246 
C 350.107088 193.227487 359.054907 187.248746 366.591471 179.712182 
C 374.128035 172.175617 380.106777 163.227798 384.185536 153.380803 
C 388.264295 143.533807 390.36375 132.979135 390.36375 122.320824 
" clip-path="url(#pd484f803c7)" style="fill: none; stroke: #b0b0b0; stroke-width: 0.8; stroke-linecap: square"/>
     </g>
     <g id="text_30">
      <!-- 0 -->
      <g transform="translate(384.185536 89.181157) scale(0.1 -0.1)">
       <use xlink:href="#DejaVuSans-30"/>
      </g>
     </g>
    </g>
   </g>
   <g id="line2d_31">
    <path d="M 288.645964 146.816305 
L 291.721602 147.282725 
L 294.948198 147.005866 
L 297.955035 146.435973 
L 301.601625 143.197501 
L 304.122588 141.270406 
L 306.317271 138.670238 
L 307.988291 136.172022 
L 309.200114 133.038524 
L 310.117185 132.802993 
L 310.91742 132.06015 
L 311.150568 129.600019 
L 310.517608 125.940609 
L 310.876345 125.915513 
L 312.619821 128.24393 
L 314.896977 130.456788 
L 313.607576 127.573433 
L 312.437143 125.557853 
L 317.353392 129.162237 
L 327.528288 135.15435 
L 333.528733 136.366959 
L 338.530362 135.997743 
L 349.921916 137.142348 
L 366.309814 137.623322 
L 379.696288 134.751201 
L 387.817272 129.198934 
L 390.094104 122.320824 
L 387.733639 115.450031 
L 380.414559 109.763796 
L 366.249098 107.034594 
L 349.335837 107.712615 
L 337.874164 108.949894 
L 331.653668 109.357258 
L 324.191594 111.823676 
L 315.993709 116.620321 
L 312.23591 119.285028 
L 313.347293 117.378408 
L 314.225528 115.143788 
L 312.803248 116.080012 
L 310.838781 118.806691 
L 310.662988 118.30161 
L 311.243907 114.693285 
L 310.954561 112.370861 
L 310.105728 111.9696 
L 309.200114 111.439206 
L 307.969414 108.253868 
L 306.292297 105.829778 
L 304.101598 103.292906 
L 301.334673 100.710703 
L 297.65205 97.555922 
L 294.672839 97.158845 
L 291.705351 97.335714 
L 289.177463 98.458758 
" clip-path="url(#pd484f803c7)" style="fill: none; stroke: #1f77b4; stroke-width: 1.5; stroke-linecap: square"/>
   </g>
   <g id="patch_5">
    <path d="M 390.36375 122.320824 
C 390.36375 111.662513 388.264295 101.10784 384.185536 91.260845 
C 380.106777 81.413849 374.128035 72.46603 366.591471 64.929466 
C 359.054907 57.392902 350.107088 51.414161 340.260093 47.335401 
C 330.413097 43.256642 319.858425 41.157188 309.200114 41.157188 
C 298.541803 41.157188 287.98713 43.256642 278.140135 47.335401 
C 268.293139 51.414161 259.34532 57.392902 251.808756 64.929466 
C 244.272192 72.46603 238.29345 81.413849 234.214691 91.260845 
C 230.135932 101.10784 228.036477 111.662513 228.036477 122.320824 
C 228.036477 132.979135 230.135932 143.533807 234.214691 153.380803 
C 238.29345 163.227798 244.272192 172.175617 251.808756 179.712182 
C 259.34532 187.248746 268.293139 193.227487 278.140135 197.306246 
C 287.98713 201.385005 298.541803 203.48446 309.200114 203.48446 
C 319.858425 203.48446 330.413097 201.385005 340.260093 197.306246 
C 350.107088 193.227487 359.054907 187.248746 366.591471 179.712182 
C 374.128035 172.175617 380.106777 163.227798 384.185536 153.380803 
C 388.264295 143.533807 390.36375 132.979135 390.36375 122.320824 
" style="fill: none; stroke: #000000; stroke-width: 0.8; stroke-linejoin: miter; stroke-linecap: square"/>
   </g>
   <g id="text_31">
    <!-- H-Plane (Phi = 90.0) -->
    <g transform="translate(248.190426 16.318125) scale(0.12 -0.12)">
     <defs>
      <path id="DejaVuSans-48" d="M 628 4666 
L 1259 4666 
L 1259 2753 
L 3553 2753 
L 3553 4666 
L 4184 4666 
L 4184 0 
L 3553 0 
L 3553 2222 
L 1259 2222 
L 1259 0 
L 628 0 
L 628 4666 
z
" transform="scale(0.015625)"/>
     </defs>
     <use xlink:href="#DejaVuSans-48"/>
     <use xlink:href="#DejaVuSans-2d" x="75.195312"/>
     <use xlink:href="#DejaVuSans-50" x="111.279297"/>
     <use xlink:href="#DejaVuSans-6c" x="171.582031"/>
     <use xlink:href="#DejaVuSans-61" x="199.365234"/>
     <use xlink:href="#DejaVuSans-6e" x="260.644531"/>
     <use xlink:href="#DejaVuSans-65" x="324.023438"/>
     <use xlink:href="#DejaVuSans-20" x="385.546875"/>
     <use xlink:href="#DejaVuSans-28" x="417.333984"/>
     <use xlink:href="#DejaVuSans-50" x="456.347656"/>
     <use xlink:href="#DejaVuSans-68" x="516.650391"/>
     <use xlink:href="#DejaVuSans-69" x="580.029297"/>
     <use xlink:href="#DejaVuSans-20" x="607.8125"/>
     <use xlink:href="#DejaVuSans-3d" x="639.599609"/>
     <use xlink:href="#DejaVuSans-20" x="723.388672"/>
     <use xlink:href="#DejaVuSans-39" x="755.175781"/>
     <use xlink:href="#DejaVuSans-30" x="818.798828"/>
     <use xlink:href="#DejaVuSans-2e" x="882.421875"/>
     <use xlink:href="#DejaVuSans-30" x="914.208984"/>
     <use xlink:href="#DejaVuSans-29" x="977.832031"/>
    </g>
   </g>
  </g>
 </g>
 <defs>
  <clipPath id="p4d96d91fb5">
   <path d="M 195.571023 122.320824 
C 195.571023 111.662513 193.471568 101.10784 189.392809 91.260845 
C 185.31405 81.413849 179.335308 72.46603 171.798744 64.929466 
C 164.26218 57.392902 155.314361 51.414161 145.467365 47.335401 
C 135.62037 43.256642 125.065697 41.157188 114.407386 41.157188 
C 103.749075 41.157188 93.194403 43.256642 83.347407 47.335401 
C 73.500412 51.414161 64.552593 57.392902 57.016029 64.929466 
C 49.479465 72.46603 43.500723 81.413849 39.421964 91.260845 
C 35.343205 101.10784 33.24375 111.662513 33.24375 122.320824 
C 33.24375 132.979135 35.343205 143.533807 39.421964 153.380803 
C 43.500723 163.227798 49.479465 172.175617 57.016029 179.712182 
C 64.552593 187.248746 73.500412 193.227487 83.347407 197.306246 
C 93.194403 201.385005 103.749075 203.48446 114.407386 203.48446 
C 125.065697 203.48446 135.62037 201.385005 145.467365 197.306246 
C 155.314361 193.227487 164.26218 187.248746 171.798744 179.712182 
C 179.335308 172.175617 185.31405 163.227798 189.392809 153.380803 
C 193.471568 143.533807 195.571023 132.979135 195.571023 122.320824 
M 114.407386 122.320824 
C 114.407386 122.320824 114.407386 122.320824 114.407386 122.320824 
C 114.407386 122.320824 114.407386 122.320824 114.407386 122.320824 
C 114.407386 122.320824 114.407386 122.320824 114.407386 122.320824 
C 114.407386 122.320824 114.407386 122.320824 114.407386 122.320824 
C 114.407386 122.320824 114.407386 122.320824 114.407386 122.320824 
C 114.407386 122.320824 114.407386 122.320824 114.407386 122.320824 
C 114.407386 122.320824 114.407386 122.320824 114.407386 122.320824 
C 114.407386 122.320824 114.407386 122.320824 114.407386 122.320824 
C 114.407386 122.320824 114.407386 122.320824 114.407386 122.320824 
C 114.407386 122.320824 114.407386 122.320824 114.407386 122.320824 
C 114.407386 122.320824 114.407386 122.320824 114.407386 122.320824 
C 114.407386 122.320824 114.407386 122.320824 114.407386 122.320824 
C 114.407386 122.320824 114.407386 122.320824 114.407386 122.320824 
C 114.407386 122.320824 114.407386 122.320824 114.407386 122.320824 
C 114.407386 122.320824 114.407386 122.320824 114.407386 122.320824 
C 114.407386 122.320824 114.407386 122.320824 114.407386 122.320824 
z
"/>
  </clipPath>
  <clipPath id="pd484f803c7">
   <path d="M 390.36375 122.320824 
C 390.36375 111.662513 388.264295 101.10784 384.185536 91.260845 
C 380.106777 81.413849 374.128035 72.46603 366.591471 64.929466 
C 359.054907 57.392902 350.107088 51.414161 340.260093 47.335401 
C 330.413097 43.256642 319.858425 41.157188 309.200114 41.157188 
C 298.541803 41.157188 287.98713 43.256642 278.140135 47.335401 
C 268.293139 51.414161 259.34532 57.392902 251.808756 64.929466 
C 244.272192 72.46603 238.29345 81.413849 234.214691 91.260845 
C 230.135932 101.10784 228.036477 111.662513 228.036477 122.320824 
C 228.036477 132.979135 230.135932 143.533807 234.214691 153.380803 
C 238.29345 163.227798 244.272192 172.175617 251.808756 179.712182 
C 259.34532 187.248746 268.293139 193.227487 278.140135 197.306246 
C 287.98713 201.385005 298.541803 203.48446 309.200114 203.48446 
C 319.858425 203.48446 330.413097 201.385005 340.260093 197.306246 
C 350.107088 193.227487 359.054907 187.248746 366.591471 179.712182 
C 374.128035 172.175617 380.106777 163.227798 384.185536 153.380803 
C 388.264295 143.533807 390.36375 132.979135 390.36375 122.320824 
M 309.200114 122.320824 
C 309.200114 122.320824 309.200114 122.320824 309.200114 122.320824 
C 309.200114 122.320824 309.200114 122.320824 309.200114 122.320824 
C 309.200114 122.320824 309.200114 122.320824 309.200114 122.320824 
C 309.200114 122.320824 309.200114 122.320824 309.200114 122.320824 
C 309.200114 122.320824 309.200114 122.320824 309.200114 122.320824 
C 309.200114 122.320824 309.200114 122.320824 309.200114 122.320824 
C 309.200114 122.320824 309.200114 122.320824 309.200114 122.320824 
C 309.200114 122.320824 309.200114 122.320824 309.200114 122.320824 
C 309.200114 122.320824 309.200114 122.320824 309.200114 122.320824 
C 309.200114 122.320824 309.200114 122.320824 309.200114 122.320824 
C 309.200114 122.320824 309.200114 122.320824 309.200114 122.320824 
C 309.200114 122.320824 309.200114 122.320824 309.200114 122.320824 
C 309.200114 122.320824 309.200114 122.320824 309.200114 122.320824 
C 309.200114 122.320824 309.200114 122.320824 309.200114 122.320824 
C 309.200114 122.320824 309.200114 122.320824 309.200114 122.320824 
C 309.200114 122.320824 309.200114 122.320824 309.200114 122.320824 
z
"/>
  </clipPath>
 </defs>
</svg>
