<?xml version="1.0" encoding="utf-8" standalone="no"?>
<!DOCTYPE svg PUBLIC "-//W3C//DTD SVG 1.1//EN"
  "http://www.w3.org/Graphics/SVG/1.1/DTD/svg11.dtd">
<svg xmlns:xlink="http://www.w3.org/1999/xlink" width="417.245pt" height="229.523523pt" viewBox="0 0 417.245 229.523523" xmlns="http://www.w3.org/2000/svg" version="1.1">
 <metadata>
  <rdf:RDF xmlns:dc="http://purl.org/dc/elements/1.1/" xmlns:cc="http://creativecommons.org/ns#" xmlns:rdf="http://www.w3.org/1999/02/22-rdf-syntax-ns#">
   <cc:Work>
    <dc:type rdf:resource="http://purl.org/dc/dcmitype/StillImage"/>
    <dc:date>2024-12-16T13:05:55.637190</dc:date>
    <dc:format>image/svg+xml</dc:format>
    <dc:creator>
     <cc:Agent>
      <dc:title>Matplotlib v3.8.3, https://matplotlib.org/</dc:title>
     </cc:Agent>
    </dc:creator>
   </cc:Work>
  </rdf:RDF>
 </metadata>
 <defs>
  <style type="text/css">*{stroke-linejoin: round; stroke-linecap: butt}</style>
 </defs>
 <g id="figure_1">
  <g id="patch_1">
   <path d="M 0 229.523523 
L 417.245 229.523523 
L 417.245 0 
L 0 0 
z
" style="fill: #ffffff"/>
  </g>
  <g id="axes_1">
   <g id="patch_2">
    <path d="M 195.571023 122.320824 
C 195.571023 111.662513 193.471568 101.10784 189.392809 91.260845 
C 185.31405 81.413849 179.335308 72.46603 171.798744 64.929466 
C 164.26218 57.392902 155.314361 51.414161 145.467365 47.335401 
C 135.62037 43.256642 125.065697 41.157188 114.407386 41.157188 
C 103.749075 41.157188 93.194403 43.256642 83.347407 47.335401 
C 73.500412 51.414161 64.552593 57.392902 57.016029 64.929466 
C 49.479465 72.46603 43.500723 81.413849 39.421964 91.260845 
C 35.343205 101.10784 33.24375 111.662513 33.24375 122.320824 
C 33.24375 132.979135 35.343205 143.533807 39.421964 153.380803 
C 43.500723 163.227798 49.479465 172.175617 57.016029 179.712182 
C 64.552593 187.248746 73.500412 193.227487 83.347407 197.306246 
C 93.194403 201.385005 103.749075 203.48446 114.407386 203.48446 
C 125.065697 203.48446 135.62037 201.385005 145.467365 197.306246 
C 155.314361 193.227487 164.26218 187.248746 171.798744 179.712182 
C 179.335308 172.175617 185.31405 163.227798 189.392809 153.380803 
C 193.471568 143.533807 195.571023 132.979135 195.571023 122.320824 
M 114.407386 122.320824 
C 114.407386 122.320824 114.407386 122.320824 114.407386 122.320824 
C 114.407386 122.320824 114.407386 122.320824 114.407386 122.320824 
C 114.407386 122.320824 114.407386 122.320824 114.407386 122.320824 
C 114.407386 122.320824 114.407386 122.320824 114.407386 122.320824 
C 114.407386 122.320824 114.407386 122.320824 114.407386 122.320824 
C 114.407386 122.320824 114.407386 122.320824 114.407386 122.320824 
C 114.407386 122.320824 114.407386 122.320824 114.407386 122.320824 
C 114.407386 122.320824 114.407386 122.320824 114.407386 122.320824 
C 114.407386 122.320824 114.407386 122.320824 114.407386 122.320824 
C 114.407386 122.320824 114.407386 122.320824 114.407386 122.320824 
C 114.407386 122.320824 114.407386 122.320824 114.407386 122.320824 
C 114.407386 122.320824 114.407386 122.320824 114.407386 122.320824 
C 114.407386 122.320824 114.407386 122.320824 114.407386 122.320824 
C 114.407386 122.320824 114.407386 122.320824 114.407386 122.320824 
C 114.407386 122.320824 114.407386 122.320824 114.407386 122.320824 
C 114.407386 122.320824 114.407386 122.320824 114.407386 122.320824 
z
" style="fill: #ffffff"/>
   </g>
   <g id="matplotlib.axis_1">
    <g id="xtick_1">
     <g id="line2d_1">
      <path d="M 114.407386 122.320824 
L 195.571023 122.320824 
" clip-path="url(#pae70e06ae5)" style="fill: none; stroke: #b0b0b0; stroke-width: 0.8; stroke-linecap: square"/>
     </g>
     <g id="text_1">
      <!-- 0° -->
      <g transform="translate(203.889773 125.080199) scale(0.1 -0.1)">
       <defs>
        <path id="DejaVuSans-30" d="M 2034 4250 
Q 1547 4250 1301 3770 
Q 1056 3291 1056 2328 
Q 1056 1369 1301 889 
Q 1547 409 2034 409 
Q 2525 409 2770 889 
Q 3016 1369 3016 2328 
Q 3016 3291 2770 3770 
Q 2525 4250 2034 4250 
z
M 2034 4750 
Q 2819 4750 3233 4129 
Q 3647 3509 3647 2328 
Q 3647 1150 3233 529 
Q 2819 -91 2034 -91 
Q 1250 -91 836 529 
Q 422 1150 422 2328 
Q 422 3509 836 4129 
Q 1250 4750 2034 4750 
z
" transform="scale(0.015625)"/>
        <path id="DejaVuSans-b0" d="M 1600 4347 
Q 1350 4347 1178 4173 
Q 1006 4000 1006 3750 
Q 1006 3503 1178 3333 
Q 1350 3163 1600 3163 
Q 1850 3163 2022 3333 
Q 2194 3503 2194 3750 
Q 2194 3997 2020 4172 
Q 1847 4347 1600 4347 
z
M 1600 4750 
Q 1800 4750 1984 4673 
Q 2169 4597 2303 4453 
Q 2447 4313 2519 4134 
Q 2591 3956 2591 3750 
Q 2591 3338 2302 3052 
Q 2013 2766 1594 2766 
Q 1172 2766 890 3047 
Q 609 3328 609 3750 
Q 609 4169 896 4459 
Q 1184 4750 1600 4750 
z
" transform="scale(0.015625)"/>
       </defs>
       <use xlink:href="#DejaVuSans-30"/>
       <use xlink:href="#DejaVuSans-b0" x="63.623047"/>
      </g>
     </g>
    </g>
    <g id="xtick_2">
     <g id="line2d_2">
      <path d="M 114.407386 122.320824 
L 171.798744 64.929466 
" clip-path="url(#pae70e06ae5)" style="fill: none; stroke: #b0b0b0; stroke-width: 0.8; stroke-linecap: square"/>
     </g>
     <g id="text_2">
      <!-- 45° -->
      <g transform="translate(172.835739 57.789346) scale(0.1 -0.1)">
       <defs>
        <path id="DejaVuSans-34" d="M 2419 4116 
L 825 1625 
L 2419 1625 
L 2419 4116 
z
M 2253 4666 
L 3047 4666 
L 3047 1625 
L 3713 1625 
L 3713 1100 
L 3047 1100 
L 3047 0 
L 2419 0 
L 2419 1100 
L 313 1100 
L 313 1709 
L 2253 4666 
z
" transform="scale(0.015625)"/>
        <path id="DejaVuSans-35" d="M 691 4666 
L 3169 4666 
L 3169 4134 
L 1269 4134 
L 1269 2991 
Q 1406 3038 1543 3061 
Q 1681 3084 1819 3084 
Q 2600 3084 3056 2656 
Q 3513 2228 3513 1497 
Q 3513 744 3044 326 
Q 2575 -91 1722 -91 
Q 1428 -91 1123 -41 
Q 819 9 494 109 
L 494 744 
Q 775 591 1075 516 
Q 1375 441 1709 441 
Q 2250 441 2565 725 
Q 2881 1009 2881 1497 
Q 2881 1984 2565 2268 
Q 2250 2553 1709 2553 
Q 1456 2553 1204 2497 
Q 953 2441 691 2322 
L 691 4666 
z
" transform="scale(0.015625)"/>
       </defs>
       <use xlink:href="#DejaVuSans-34"/>
       <use xlink:href="#DejaVuSans-35" x="63.623047"/>
       <use xlink:href="#DejaVuSans-b0" x="127.246094"/>
      </g>
     </g>
    </g>
    <g id="xtick_3">
     <g id="line2d_3">
      <path d="M 114.407386 122.320824 
L 114.407386 41.157188 
" clip-path="url(#pae70e06ae5)" style="fill: none; stroke: #b0b0b0; stroke-width: 0.8; stroke-linecap: square"/>
     </g>
     <g id="text_3">
      <!-- 90° -->
      <g transform="translate(105.544886 29.916563) scale(0.1 -0.1)">
       <defs>
        <path id="DejaVuSans-39" d="M 703 97 
L 703 672 
Q 941 559 1184 500 
Q 1428 441 1663 441 
Q 2288 441 2617 861 
Q 2947 1281 2994 2138 
Q 2813 1869 2534 1725 
Q 2256 1581 1919 1581 
Q 1219 1581 811 2004 
Q 403 2428 403 3163 
Q 403 3881 828 4315 
Q 1253 4750 1959 4750 
Q 2769 4750 3195 4129 
Q 3622 3509 3622 2328 
Q 3622 1225 3098 567 
Q 2575 -91 1691 -91 
Q 1453 -91 1209 -44 
Q 966 3 703 97 
z
M 1959 2075 
Q 2384 2075 2632 2365 
Q 2881 2656 2881 3163 
Q 2881 3666 2632 3958 
Q 2384 4250 1959 4250 
Q 1534 4250 1286 3958 
Q 1038 3666 1038 3163 
Q 1038 2656 1286 2365 
Q 1534 2075 1959 2075 
z
" transform="scale(0.015625)"/>
       </defs>
       <use xlink:href="#DejaVuSans-39"/>
       <use xlink:href="#DejaVuSans-30" x="63.623047"/>
       <use xlink:href="#DejaVuSans-b0" x="127.246094"/>
      </g>
     </g>
    </g>
    <g id="xtick_4">
     <g id="line2d_4">
      <path d="M 114.407386 122.320824 
L 57.016029 64.929466 
" clip-path="url(#pae70e06ae5)" style="fill: none; stroke: #b0b0b0; stroke-width: 0.8; stroke-linecap: square"/>
     </g>
     <g id="text_4">
      <!-- 135° -->
      <g transform="translate(35.072784 57.789346) scale(0.1 -0.1)">
       <defs>
        <path id="DejaVuSans-31" d="M 794 531 
L 1825 531 
L 1825 4091 
L 703 3866 
L 703 4441 
L 1819 4666 
L 2450 4666 
L 2450 531 
L 3481 531 
L 3481 0 
L 794 0 
L 794 531 
z
" transform="scale(0.015625)"/>
        <path id="DejaVuSans-33" d="M 2597 2516 
Q 3050 2419 3304 2112 
Q 3559 1806 3559 1356 
Q 3559 666 3084 287 
Q 2609 -91 1734 -91 
Q 1441 -91 1130 -33 
Q 819 25 488 141 
L 488 750 
Q 750 597 1062 519 
Q 1375 441 1716 441 
Q 2309 441 2620 675 
Q 2931 909 2931 1356 
Q 2931 1769 2642 2001 
Q 2353 2234 1838 2234 
L 1294 2234 
L 1294 2753 
L 1863 2753 
Q 2328 2753 2575 2939 
Q 2822 3125 2822 3475 
Q 2822 3834 2567 4026 
Q 2313 4219 1838 4219 
Q 1578 4219 1281 4162 
Q 984 4106 628 3988 
L 628 4550 
Q 988 4650 1302 4700 
Q 1616 4750 1894 4750 
Q 2613 4750 3031 4423 
Q 3450 4097 3450 3541 
Q 3450 3153 3228 2886 
Q 3006 2619 2597 2516 
z
" transform="scale(0.015625)"/>
       </defs>
       <use xlink:href="#DejaVuSans-31"/>
       <use xlink:href="#DejaVuSans-33" x="63.623047"/>
       <use xlink:href="#DejaVuSans-35" x="127.246094"/>
       <use xlink:href="#DejaVuSans-b0" x="190.869141"/>
      </g>
     </g>
    </g>
    <g id="xtick_5">
     <g id="line2d_5">
      <path d="M 114.407386 122.320824 
L 33.24375 122.320824 
" clip-path="url(#pae70e06ae5)" style="fill: none; stroke: #b0b0b0; stroke-width: 0.8; stroke-linecap: square"/>
     </g>
     <g id="text_5">
      <!-- 180° -->
      <g transform="translate(7.2 125.080199) scale(0.1 -0.1)">
       <defs>
        <path id="DejaVuSans-38" d="M 2034 2216 
Q 1584 2216 1326 1975 
Q 1069 1734 1069 1313 
Q 1069 891 1326 650 
Q 1584 409 2034 409 
Q 2484 409 2743 651 
Q 3003 894 3003 1313 
Q 3003 1734 2745 1975 
Q 2488 2216 2034 2216 
z
M 1403 2484 
Q 997 2584 770 2862 
Q 544 3141 544 3541 
Q 544 4100 942 4425 
Q 1341 4750 2034 4750 
Q 2731 4750 3128 4425 
Q 3525 4100 3525 3541 
Q 3525 3141 3298 2862 
Q 3072 2584 2669 2484 
Q 3125 2378 3379 2068 
Q 3634 1759 3634 1313 
Q 3634 634 3220 271 
Q 2806 -91 2034 -91 
Q 1263 -91 848 271 
Q 434 634 434 1313 
Q 434 1759 690 2068 
Q 947 2378 1403 2484 
z
M 1172 3481 
Q 1172 3119 1398 2916 
Q 1625 2713 2034 2713 
Q 2441 2713 2670 2916 
Q 2900 3119 2900 3481 
Q 2900 3844 2670 4047 
Q 2441 4250 2034 4250 
Q 1625 4250 1398 4047 
Q 1172 3844 1172 3481 
z
" transform="scale(0.015625)"/>
       </defs>
       <use xlink:href="#DejaVuSans-31"/>
       <use xlink:href="#DejaVuSans-38" x="63.623047"/>
       <use xlink:href="#DejaVuSans-30" x="127.246094"/>
       <use xlink:href="#DejaVuSans-b0" x="190.869141"/>
      </g>
     </g>
    </g>
    <g id="xtick_6">
     <g id="line2d_6">
      <path d="M 114.407386 122.320824 
L 57.016029 179.712182 
" clip-path="url(#pae70e06ae5)" style="fill: none; stroke: #b0b0b0; stroke-width: 0.8; stroke-linecap: square"/>
     </g>
     <g id="text_6">
      <!-- 225° -->
      <g transform="translate(35.072784 192.371051) scale(0.1 -0.1)">
       <defs>
        <path id="DejaVuSans-32" d="M 1228 531 
L 3431 531 
L 3431 0 
L 469 0 
L 469 531 
Q 828 903 1448 1529 
Q 2069 2156 2228 2338 
Q 2531 2678 2651 2914 
Q 2772 3150 2772 3378 
Q 2772 3750 2511 3984 
Q 2250 4219 1831 4219 
Q 1534 4219 1204 4116 
Q 875 4013 500 3803 
L 500 4441 
Q 881 4594 1212 4672 
Q 1544 4750 1819 4750 
Q 2544 4750 2975 4387 
Q 3406 4025 3406 3419 
Q 3406 3131 3298 2873 
Q 3191 2616 2906 2266 
Q 2828 2175 2409 1742 
Q 1991 1309 1228 531 
z
" transform="scale(0.015625)"/>
       </defs>
       <use xlink:href="#DejaVuSans-32"/>
       <use xlink:href="#DejaVuSans-32" x="63.623047"/>
       <use xlink:href="#DejaVuSans-35" x="127.246094"/>
       <use xlink:href="#DejaVuSans-b0" x="190.869141"/>
      </g>
     </g>
    </g>
    <g id="xtick_7">
     <g id="line2d_7">
      <path d="M 114.407386 122.320824 
L 114.407386 203.48446 
" clip-path="url(#pae70e06ae5)" style="fill: none; stroke: #b0b0b0; stroke-width: 0.8; stroke-linecap: square"/>
     </g>
     <g id="text_7">
      <!-- 270° -->
      <g transform="translate(102.363636 220.243835) scale(0.1 -0.1)">
       <defs>
        <path id="DejaVuSans-37" d="M 525 4666 
L 3525 4666 
L 3525 4397 
L 1831 0 
L 1172 0 
L 2766 4134 
L 525 4134 
L 525 4666 
z
" transform="scale(0.015625)"/>
       </defs>
       <use xlink:href="#DejaVuSans-32"/>
       <use xlink:href="#DejaVuSans-37" x="63.623047"/>
       <use xlink:href="#DejaVuSans-30" x="127.246094"/>
       <use xlink:href="#DejaVuSans-b0" x="190.869141"/>
      </g>
     </g>
    </g>
    <g id="xtick_8">
     <g id="line2d_8">
      <path d="M 114.407386 122.320824 
L 171.798744 179.712182 
" clip-path="url(#pae70e06ae5)" style="fill: none; stroke: #b0b0b0; stroke-width: 0.8; stroke-linecap: square"/>
     </g>
     <g id="text_8">
      <!-- 315° -->
      <g transform="translate(169.654489 192.371051) scale(0.1 -0.1)">
       <use xlink:href="#DejaVuSans-33"/>
       <use xlink:href="#DejaVuSans-31" x="63.623047"/>
       <use xlink:href="#DejaVuSans-35" x="127.246094"/>
       <use xlink:href="#DejaVuSans-b0" x="190.869141"/>
      </g>
     </g>
    </g>
   </g>
   <g id="matplotlib.axis_2">
    <g id="ytick_1">
     <g id="line2d_9">
      <path d="M 117.532946 122.320824 
C 117.532946 121.910379 117.452097 121.503925 117.295027 121.124724 
C 117.137957 120.745523 116.907719 120.400948 116.617491 120.110719 
C 116.327262 119.820491 115.982688 119.590254 115.603486 119.433183 
C 115.224285 119.276113 114.817831 119.195264 114.407386 119.195264 
C 113.996942 119.195264 113.590488 119.276113 113.211286 119.433183 
C 112.832085 119.590254 112.48751 119.820491 112.197282 120.110719 
C 111.907054 120.400948 111.676816 120.745523 111.519746 121.124724 
C 111.362675 121.503925 111.281827 121.910379 111.281827 122.320824 
C 111.281827 122.731269 111.362675 123.137722 111.519746 123.516924 
C 111.676816 123.896125 111.907054 124.2407 112.197282 124.530928 
C 112.48751 124.821156 112.832085 125.051394 113.211286 125.208464 
C 113.590488 125.365535 113.996942 125.446383 114.407386 125.446383 
C 114.817831 125.446383 115.224285 125.365535 115.603486 125.208464 
C 115.982688 125.051394 116.327262 124.821156 116.617491 124.530928 
C 116.907719 124.2407 117.137957 123.896125 117.295027 123.516924 
C 117.452097 123.137722 117.532946 122.731269 117.532946 122.320824 
" clip-path="url(#pae70e06ae5)" style="fill: none; stroke: #b0b0b0; stroke-width: 0.8; stroke-linecap: square"/>
     </g>
     <g id="text_9">
      <!-- −25 -->
      <g transform="translate(117.295027 119.045036) scale(0.1 -0.1)">
       <defs>
        <path id="DejaVuSans-2212" d="M 678 2272 
L 4684 2272 
L 4684 1741 
L 678 1741 
L 678 2272 
z
" transform="scale(0.015625)"/>
       </defs>
       <use xlink:href="#DejaVuSans-2212"/>
       <use xlink:href="#DejaVuSans-32" x="83.789062"/>
       <use xlink:href="#DejaVuSans-35" x="147.412109"/>
      </g>
     </g>
    </g>
    <g id="ytick_2">
     <g id="line2d_10">
      <path d="M 132.400177 122.320824 
C 132.400177 119.958032 131.934759 117.618216 131.030558 115.435281 
C 130.126356 113.252346 128.800957 111.268745 127.130211 109.597999 
C 125.459465 107.927253 123.475864 106.601854 121.292929 105.697653 
C 119.109995 104.793451 116.770178 104.328033 114.407386 104.328033 
C 112.044595 104.328033 109.704778 104.793451 107.521843 105.697653 
C 105.338908 106.601854 103.355308 107.927253 101.684562 109.597999 
C 100.013816 111.268745 98.688416 113.252346 97.784215 115.435281 
C 96.880014 117.618216 96.414595 119.958032 96.414595 122.320824 
C 96.414595 124.683616 96.880014 127.023432 97.784215 129.206367 
C 98.688416 131.389302 100.013816 133.372902 101.684562 135.043648 
C 103.355308 136.714394 105.338908 138.039794 107.521843 138.943995 
C 109.704778 139.848196 112.044595 140.313615 114.407386 140.313615 
C 116.770178 140.313615 119.109995 139.848196 121.292929 138.943995 
C 123.475864 138.039794 125.459465 136.714394 127.130211 135.043648 
C 128.800957 133.372902 130.126356 131.389302 131.030558 129.206367 
C 131.934759 127.023432 132.400177 124.683616 132.400177 122.320824 
" clip-path="url(#pae70e06ae5)" style="fill: none; stroke: #b0b0b0; stroke-width: 0.8; stroke-linecap: square"/>
     </g>
     <g id="text_10">
      <!-- −20 -->
      <g transform="translate(131.030558 113.355593) scale(0.1 -0.1)">
       <use xlink:href="#DejaVuSans-2212"/>
       <use xlink:href="#DejaVuSans-32" x="83.789062"/>
       <use xlink:href="#DejaVuSans-30" x="147.412109"/>
      </g>
     </g>
    </g>
    <g id="ytick_3">
     <g id="line2d_11">
      <path d="M 147.267409 122.320824 
C 147.267409 118.005685 146.417421 113.732506 144.766089 109.745838 
C 143.114756 105.759169 140.694195 102.136543 137.642931 99.085279 
C 134.591667 96.034015 130.969041 93.613454 126.982373 91.962122 
C 122.995704 90.31079 118.722525 89.460801 114.407386 89.460801 
C 110.092248 89.460801 105.819068 90.31079 101.8324 91.962122 
C 97.845732 93.613454 94.223105 96.034015 91.171842 99.085279 
C 88.120578 102.136543 85.700016 105.759169 84.048684 109.745838 
C 82.397352 113.732506 81.547364 118.005685 81.547364 122.320824 
C 81.547364 126.635962 82.397352 130.909142 84.048684 134.89581 
C 85.700016 138.882478 88.120578 142.505105 91.171842 145.556369 
C 94.223105 148.607632 97.845732 151.028194 101.8324 152.679526 
C 105.819068 154.330858 110.092248 155.180846 114.407386 155.180846 
C 118.722525 155.180846 122.995704 154.330858 126.982373 152.679526 
C 130.969041 151.028194 134.591667 148.607632 137.642931 145.556369 
C 140.694195 142.505105 143.114756 138.882478 144.766089 134.89581 
C 146.417421 130.909142 147.267409 126.635962 147.267409 122.320824 
" clip-path="url(#pae70e06ae5)" style="fill: none; stroke: #b0b0b0; stroke-width: 0.8; stroke-linecap: square"/>
     </g>
     <g id="text_11">
      <!-- −15 -->
      <g transform="translate(144.766089 107.66615) scale(0.1 -0.1)">
       <use xlink:href="#DejaVuSans-2212"/>
       <use xlink:href="#DejaVuSans-31" x="83.789062"/>
       <use xlink:href="#DejaVuSans-35" x="147.412109"/>
      </g>
     </g>
    </g>
    <g id="ytick_4">
     <g id="line2d_12">
      <path d="M 162.13464 122.320824 
C 162.13464 116.053338 160.900082 109.846796 158.501619 104.056395 
C 156.103156 98.265993 152.587433 93.004341 148.155651 88.572559 
C 143.72387 84.140777 138.462217 80.625054 132.671816 78.226591 
C 126.881414 75.828128 120.674872 74.59357 114.407386 74.59357 
C 108.139901 74.59357 101.933359 75.828128 96.142957 78.226591 
C 90.352555 80.625054 85.090903 84.140777 80.659122 88.572559 
C 76.22734 93.004341 72.711616 98.265993 70.313153 104.056395 
C 67.914691 109.846796 66.680133 116.053338 66.680133 122.320824 
C 66.680133 128.588309 67.914691 134.794852 70.313153 140.585253 
C 72.711616 146.375655 76.22734 151.637307 80.659122 156.069089 
C 85.090903 160.50087 90.352555 164.016594 96.142957 166.415057 
C 101.933359 168.81352 108.139901 170.048078 114.407386 170.048078 
C 120.674872 170.048078 126.881414 168.81352 132.671816 166.415057 
C 138.462217 164.016594 143.72387 160.50087 148.155651 156.069089 
C 152.587433 151.637307 156.103156 146.375655 158.501619 140.585253 
C 160.900082 134.794852 162.13464 128.588309 162.13464 122.320824 
" clip-path="url(#pae70e06ae5)" style="fill: none; stroke: #b0b0b0; stroke-width: 0.8; stroke-linecap: square"/>
     </g>
     <g id="text_12">
      <!-- −10 -->
      <g transform="translate(158.501619 101.976707) scale(0.1 -0.1)">
       <use xlink:href="#DejaVuSans-2212"/>
       <use xlink:href="#DejaVuSans-31" x="83.789062"/>
       <use xlink:href="#DejaVuSans-30" x="147.412109"/>
      </g>
     </g>
    </g>
    <g id="ytick_5">
     <g id="line2d_13">
      <path d="M 177.001872 122.320824 
C 177.001872 114.100991 175.382744 105.961086 172.23715 98.366951 
C 169.091556 90.772816 164.480671 83.872138 158.668371 78.059839 
C 152.856072 72.24754 145.955394 67.636654 138.361259 64.49106 
C 130.767124 61.345466 122.627219 59.726339 114.407386 59.726339 
C 106.187554 59.726339 98.047649 61.345466 90.453514 64.49106 
C 82.859379 67.636654 75.958701 72.24754 70.146401 78.059839 
C 64.334102 83.872138 59.723216 90.772816 56.577623 98.366951 
C 53.432029 105.961086 51.812901 114.100991 51.812901 122.320824 
C 51.812901 130.540656 53.432029 138.680561 56.577623 146.274696 
C 59.723216 153.868831 64.334102 160.76951 70.146401 166.581809 
C 75.958701 172.394108 82.859379 177.004994 90.453514 180.150588 
C 98.047649 183.296181 106.187554 184.915309 114.407386 184.915309 
C 122.627219 184.915309 130.767124 183.296181 138.361259 180.150588 
C 145.955394 177.004994 152.856072 172.394108 158.668371 166.581809 
C 164.480671 160.76951 169.091556 153.868831 172.23715 146.274696 
C 175.382744 138.680561 177.001872 130.540656 177.001872 122.320824 
" clip-path="url(#pae70e06ae5)" style="fill: none; stroke: #b0b0b0; stroke-width: 0.8; stroke-linecap: square"/>
     </g>
     <g id="text_13">
      <!-- −5 -->
      <g transform="translate(172.23715 96.287264) scale(0.1 -0.1)">
       <use xlink:href="#DejaVuSans-2212"/>
       <use xlink:href="#DejaVuSans-35" x="83.789062"/>
      </g>
     </g>
    </g>
    <g id="ytick_6">
     <g id="line2d_14">
      <path d="M 191.869103 122.320824 
C 191.869103 112.148644 189.865406 102.075377 185.972681 92.677508 
C 182.079956 83.27964 176.373909 74.739936 169.181092 67.547119 
C 161.988274 60.354302 153.44857 54.648254 144.050702 50.755529 
C 134.652834 46.862805 124.579566 44.859107 114.407386 44.859107 
C 104.235207 44.859107 94.161939 46.862805 84.764071 50.755529 
C 75.366202 54.648254 66.826498 60.354302 59.633681 67.547119 
C 52.440864 74.739936 46.734816 83.27964 42.842092 92.677508 
C 38.949367 102.075377 36.94567 112.148644 36.94567 122.320824 
C 36.94567 132.493003 38.949367 142.566271 42.842092 151.964139 
C 46.734816 161.362008 52.440864 169.901712 59.633681 177.094529 
C 66.826498 184.287346 75.366202 189.993394 84.764071 193.886118 
C 94.161939 197.778843 104.235207 199.782541 114.407386 199.782541 
C 124.579566 199.782541 134.652834 197.778843 144.050702 193.886118 
C 153.44857 189.993394 161.988274 184.287346 169.181092 177.094529 
C 176.373909 169.901712 182.079956 161.362008 185.972681 151.964139 
C 189.865406 142.566271 191.869103 132.493003 191.869103 122.320824 
" clip-path="url(#pae70e06ae5)" style="fill: none; stroke: #b0b0b0; stroke-width: 0.8; stroke-linecap: square"/>
     </g>
     <g id="text_14">
      <!-- 0 -->
      <g transform="translate(185.972681 90.597821) scale(0.1 -0.1)">
       <use xlink:href="#DejaVuSans-30"/>
      </g>
     </g>
    </g>
   </g>
   <g id="line2d_15">
    <path d="M 93.950728 146.70012 
L 96.843476 147.404687 
L 101.924 143.942684 
L 109.499755 132.845274 
L 112.779478 126.793466 
L 111.877899 131.761001 
L 111.637865 138.027562 
L 113.407677 133.747559 
L 114.407386 128.078977 
L 114.992472 129.008381 
L 116.490195 134.13302 
L 118.082521 136.036613 
L 119.40168 136.042534 
L 120.589223 135.577816 
L 120.306764 132.538846 
L 116.895058 125.873587 
L 116.778795 125.146958 
L 124.56067 132.474108 
L 136.527852 140.882098 
L 144.462906 143.365925 
L 144.355212 139.611209 
L 139.302005 133.929375 
L 144.226592 133.174127 
L 162.679287 135.255241 
L 181.432239 134.139114 
L 189.331087 128.875798 
L 191.881767 122.320824 
L 189.491301 115.751833 
L 181.595898 110.473676 
L 163.812392 109.082793 
L 144.496437 111.369305 
L 138.452436 111.108433 
L 143.091338 105.760137 
L 144.771724 101.059486 
L 136.933089 103.419515 
L 124.917685 111.810526 
L 117.068375 119.149581 
L 117.310361 118.174946 
L 120.424805 111.898349 
L 120.622659 108.99213 
L 119.196357 109.163235 
L 117.926388 109.187732 
L 116.494514 110.484137 
L 115.05526 114.915589 
L 114.407386 116.827145 
L 113.493431 111.874262 
L 111.617679 106.499609 
L 111.622541 111.927641 
L 112.56115 117.24833 
L 109.844194 112.535026 
L 102.331246 101.404335 
L 96.977118 97.427821 
L 93.293487 97.158259 
" clip-path="url(#pae70e06ae5)" style="fill: none; stroke: #1f77b4; stroke-width: 1.5; stroke-linecap: square"/>
   </g>
   <g id="patch_3">
    <path d="M 195.571023 122.320824 
C 195.571023 111.662513 193.471568 101.10784 189.392809 91.260845 
C 185.31405 81.413849 179.335308 72.46603 171.798744 64.929466 
C 164.26218 57.392902 155.314361 51.414161 145.467365 47.335401 
C 135.62037 43.256642 125.065697 41.157188 114.407386 41.157188 
C 103.749075 41.157188 93.194403 43.256642 83.347407 47.335401 
C 73.500412 51.414161 64.552593 57.392902 57.016029 64.929466 
C 49.479465 72.46603 43.500723 81.413849 39.421964 91.260845 
C 35.343205 101.10784 33.24375 111.662513 33.24375 122.320824 
C 33.24375 132.979135 35.343205 143.533807 39.421964 153.380803 
C 43.500723 163.227798 49.479465 172.175617 57.016029 179.712182 
C 64.552593 187.248746 73.500412 193.227487 83.347407 197.306246 
C 93.194403 201.385005 103.749075 203.48446 114.407386 203.48446 
C 125.065697 203.48446 135.62037 201.385005 145.467365 197.306246 
C 155.314361 193.227487 164.26218 187.248746 171.798744 179.712182 
C 179.335308 172.175617 185.31405 163.227798 189.392809 153.380803 
C 193.471568 143.533807 195.571023 132.979135 195.571023 122.320824 
" style="fill: none; stroke: #000000; stroke-width: 0.8; stroke-linejoin: miter; stroke-linecap: square"/>
   </g>
   <g id="text_15">
    <!-- E-Plane (Phi = 0.0) -->
    <g transform="translate(57.936136 16.318125) scale(0.12 -0.12)">
     <defs>
      <path id="DejaVuSans-45" d="M 628 4666 
L 3578 4666 
L 3578 4134 
L 1259 4134 
L 1259 2753 
L 3481 2753 
L 3481 2222 
L 1259 2222 
L 1259 531 
L 3634 531 
L 3634 0 
L 628 0 
L 628 4666 
z
" transform="scale(0.015625)"/>
      <path id="DejaVuSans-2d" d="M 313 2009 
L 1997 2009 
L 1997 1497 
L 313 1497 
L 313 2009 
z
" transform="scale(0.015625)"/>
      <path id="DejaVuSans-50" d="M 1259 4147 
L 1259 2394 
L 2053 2394 
Q 2494 2394 2734 2622 
Q 2975 2850 2975 3272 
Q 2975 3691 2734 3919 
Q 2494 4147 2053 4147 
L 1259 4147 
z
M 628 4666 
L 2053 4666 
Q 2838 4666 3239 4311 
Q 3641 3956 3641 3272 
Q 3641 2581 3239 2228 
Q 2838 1875 2053 1875 
L 1259 1875 
L 1259 0 
L 628 0 
L 628 4666 
z
" transform="scale(0.015625)"/>
      <path id="DejaVuSans-6c" d="M 603 4863 
L 1178 4863 
L 1178 0 
L 603 0 
L 603 4863 
z
" transform="scale(0.015625)"/>
      <path id="DejaVuSans-61" d="M 2194 1759 
Q 1497 1759 1228 1600 
Q 959 1441 959 1056 
Q 959 750 1161 570 
Q 1363 391 1709 391 
Q 2188 391 2477 730 
Q 2766 1069 2766 1631 
L 2766 1759 
L 2194 1759 
z
M 3341 1997 
L 3341 0 
L 2766 0 
L 2766 531 
Q 2569 213 2275 61 
Q 1981 -91 1556 -91 
Q 1019 -91 701 211 
Q 384 513 384 1019 
Q 384 1609 779 1909 
Q 1175 2209 1959 2209 
L 2766 2209 
L 2766 2266 
Q 2766 2663 2505 2880 
Q 2244 3097 1772 3097 
Q 1472 3097 1187 3025 
Q 903 2953 641 2809 
L 641 3341 
Q 956 3463 1253 3523 
Q 1550 3584 1831 3584 
Q 2591 3584 2966 3190 
Q 3341 2797 3341 1997 
z
" transform="scale(0.015625)"/>
      <path id="DejaVuSans-6e" d="M 3513 2113 
L 3513 0 
L 2938 0 
L 2938 2094 
Q 2938 2591 2744 2837 
Q 2550 3084 2163 3084 
Q 1697 3084 1428 2787 
Q 1159 2491 1159 1978 
L 1159 0 
L 581 0 
L 581 3500 
L 1159 3500 
L 1159 2956 
Q 1366 3272 1645 3428 
Q 1925 3584 2291 3584 
Q 2894 3584 3203 3211 
Q 3513 2838 3513 2113 
z
" transform="scale(0.015625)"/>
      <path id="DejaVuSans-65" d="M 3597 1894 
L 3597 1613 
L 953 1613 
Q 991 1019 1311 708 
Q 1631 397 2203 397 
Q 2534 397 2845 478 
Q 3156 559 3463 722 
L 3463 178 
Q 3153 47 2828 -22 
Q 2503 -91 2169 -91 
Q 1331 -91 842 396 
Q 353 884 353 1716 
Q 353 2575 817 3079 
Q 1281 3584 2069 3584 
Q 2775 3584 3186 3129 
Q 3597 2675 3597 1894 
z
M 3022 2063 
Q 3016 2534 2758 2815 
Q 2500 3097 2075 3097 
Q 1594 3097 1305 2825 
Q 1016 2553 972 2059 
L 3022 2063 
z
" transform="scale(0.015625)"/>
      <path id="DejaVuSans-20" transform="scale(0.015625)"/>
      <path id="DejaVuSans-28" d="M 1984 4856 
Q 1566 4138 1362 3434 
Q 1159 2731 1159 2009 
Q 1159 1288 1364 580 
Q 1569 -128 1984 -844 
L 1484 -844 
Q 1016 -109 783 600 
Q 550 1309 550 2009 
Q 550 2706 781 3412 
Q 1013 4119 1484 4856 
L 1984 4856 
z
" transform="scale(0.015625)"/>
      <path id="DejaVuSans-68" d="M 3513 2113 
L 3513 0 
L 2938 0 
L 2938 2094 
Q 2938 2591 2744 2837 
Q 2550 3084 2163 3084 
Q 1697 3084 1428 2787 
Q 1159 2491 1159 1978 
L 1159 0 
L 581 0 
L 581 4863 
L 1159 4863 
L 1159 2956 
Q 1366 3272 1645 3428 
Q 1925 3584 2291 3584 
Q 2894 3584 3203 3211 
Q 3513 2838 3513 2113 
z
" transform="scale(0.015625)"/>
      <path id="DejaVuSans-69" d="M 603 3500 
L 1178 3500 
L 1178 0 
L 603 0 
L 603 3500 
z
M 603 4863 
L 1178 4863 
L 1178 4134 
L 603 4134 
L 603 4863 
z
" transform="scale(0.015625)"/>
      <path id="DejaVuSans-3d" d="M 678 2906 
L 4684 2906 
L 4684 2381 
L 678 2381 
L 678 2906 
z
M 678 1631 
L 4684 1631 
L 4684 1100 
L 678 1100 
L 678 1631 
z
" transform="scale(0.015625)"/>
      <path id="DejaVuSans-2e" d="M 684 794 
L 1344 794 
L 1344 0 
L 684 0 
L 684 794 
z
" transform="scale(0.015625)"/>
      <path id="DejaVuSans-29" d="M 513 4856 
L 1013 4856 
Q 1481 4119 1714 3412 
Q 1947 2706 1947 2009 
Q 1947 1309 1714 600 
Q 1481 -109 1013 -844 
L 513 -844 
Q 928 -128 1133 580 
Q 1338 1288 1338 2009 
Q 1338 2731 1133 3434 
Q 928 4138 513 4856 
z
" transform="scale(0.015625)"/>
     </defs>
     <use xlink:href="#DejaVuSans-45"/>
     <use xlink:href="#DejaVuSans-2d" x="63.183594"/>
     <use xlink:href="#DejaVuSans-50" x="99.267578"/>
     <use xlink:href="#DejaVuSans-6c" x="159.570312"/>
     <use xlink:href="#DejaVuSans-61" x="187.353516"/>
     <use xlink:href="#DejaVuSans-6e" x="248.632812"/>
     <use xlink:href="#DejaVuSans-65" x="312.011719"/>
     <use xlink:href="#DejaVuSans-20" x="373.535156"/>
     <use xlink:href="#DejaVuSans-28" x="405.322266"/>
     <use xlink:href="#DejaVuSans-50" x="444.335938"/>
     <use xlink:href="#DejaVuSans-68" x="504.638672"/>
     <use xlink:href="#DejaVuSans-69" x="568.017578"/>
     <use xlink:href="#DejaVuSans-20" x="595.800781"/>
     <use xlink:href="#DejaVuSans-3d" x="627.587891"/>
     <use xlink:href="#DejaVuSans-20" x="711.376953"/>
     <use xlink:href="#DejaVuSans-30" x="743.164062"/>
     <use xlink:href="#DejaVuSans-2e" x="806.787109"/>
     <use xlink:href="#DejaVuSans-30" x="838.574219"/>
     <use xlink:href="#DejaVuSans-29" x="902.197266"/>
    </g>
   </g>
  </g>
  <g id="axes_2">
   <g id="patch_4">
    <path d="M 390.36375 122.320824 
C 390.36375 111.662513 388.264295 101.10784 384.185536 91.260845 
C 380.106777 81.413849 374.128035 72.46603 366.591471 64.929466 
C 359.054907 57.392902 350.107088 51.414161 340.260093 47.335401 
C 330.413097 43.256642 319.858425 41.157188 309.200114 41.157188 
C 298.541803 41.157188 287.98713 43.256642 278.140135 47.335401 
C 268.293139 51.414161 259.34532 57.392902 251.808756 64.929466 
C 244.272192 72.46603 238.29345 81.413849 234.214691 91.260845 
C 230.135932 101.10784 228.036477 111.662513 228.036477 122.320824 
C 228.036477 132.979135 230.135932 143.533807 234.214691 153.380803 
C 238.29345 163.227798 244.272192 172.175617 251.808756 179.712182 
C 259.34532 187.248746 268.293139 193.227487 278.140135 197.306246 
C 287.98713 201.385005 298.541803 203.48446 309.200114 203.48446 
C 319.858425 203.48446 330.413097 201.385005 340.260093 197.306246 
C 350.107088 193.227487 359.054907 187.248746 366.591471 179.712182 
C 374.128035 172.175617 380.106777 163.227798 384.185536 153.380803 
C 388.264295 143.533807 390.36375 132.979135 390.36375 122.320824 
M 309.200114 122.320824 
C 309.200114 122.320824 309.200114 122.320824 309.200114 122.320824 
C 309.200114 122.320824 309.200114 122.320824 309.200114 122.320824 
C 309.200114 122.320824 309.200114 122.320824 309.200114 122.320824 
C 309.200114 122.320824 309.200114 122.320824 309.200114 122.320824 
C 309.200114 122.320824 309.200114 122.320824 309.200114 122.320824 
C 309.200114 122.320824 309.200114 122.320824 309.200114 122.320824 
C 309.200114 122.320824 309.200114 122.320824 309.200114 122.320824 
C 309.200114 122.320824 309.200114 122.320824 309.200114 122.320824 
C 309.200114 122.320824 309.200114 122.320824 309.200114 122.320824 
C 309.200114 122.320824 309.200114 122.320824 309.200114 122.320824 
C 309.200114 122.320824 309.200114 122.320824 309.200114 122.320824 
C 309.200114 122.320824 309.200114 122.320824 309.200114 122.320824 
C 309.200114 122.320824 309.200114 122.320824 309.200114 122.320824 
C 309.200114 122.320824 309.200114 122.320824 309.200114 122.320824 
C 309.200114 122.320824 309.200114 122.320824 309.200114 122.320824 
C 309.200114 122.320824 309.200114 122.320824 309.200114 122.320824 
z
" style="fill: #ffffff"/>
   </g>
   <g id="matplotlib.axis_3">
    <g id="xtick_9">
     <g id="line2d_16">
      <path d="M 309.200114 122.320824 
L 390.36375 122.320824 
" clip-path="url(#p5f193fd6af)" style="fill: none; stroke: #b0b0b0; stroke-width: 0.8; stroke-linecap: square"/>
     </g>
     <g id="text_16">
      <!-- 0° -->
      <g transform="translate(398.6825 125.080199) scale(0.1 -0.1)">
       <use xlink:href="#DejaVuSans-30"/>
       <use xlink:href="#DejaVuSans-b0" x="63.623047"/>
      </g>
     </g>
    </g>
    <g id="xtick_10">
     <g id="line2d_17">
      <path d="M 309.200114 122.320824 
L 366.591471 64.929466 
" clip-path="url(#p5f193fd6af)" style="fill: none; stroke: #b0b0b0; stroke-width: 0.8; stroke-linecap: square"/>
     </g>
     <g id="text_17">
      <!-- 45° -->
      <g transform="translate(367.628466 57.789346) scale(0.1 -0.1)">
       <use xlink:href="#DejaVuSans-34"/>
       <use xlink:href="#DejaVuSans-35" x="63.623047"/>
       <use xlink:href="#DejaVuSans-b0" x="127.246094"/>
      </g>
     </g>
    </g>
    <g id="xtick_11">
     <g id="line2d_18">
      <path d="M 309.200114 122.320824 
L 309.200114 41.157188 
" clip-path="url(#p5f193fd6af)" style="fill: none; stroke: #b0b0b0; stroke-width: 0.8; stroke-linecap: square"/>
     </g>
     <g id="text_18">
      <!-- 90° -->
      <g transform="translate(300.337614 29.916563) scale(0.1 -0.1)">
       <use xlink:href="#DejaVuSans-39"/>
       <use xlink:href="#DejaVuSans-30" x="63.623047"/>
       <use xlink:href="#DejaVuSans-b0" x="127.246094"/>
      </g>
     </g>
    </g>
    <g id="xtick_12">
     <g id="line2d_19">
      <path d="M 309.200114 122.320824 
L 251.808756 64.929466 
" clip-path="url(#p5f193fd6af)" style="fill: none; stroke: #b0b0b0; stroke-width: 0.8; stroke-linecap: square"/>
     </g>
     <g id="text_19">
      <!-- 135° -->
      <g transform="translate(229.865511 57.789346) scale(0.1 -0.1)">
       <use xlink:href="#DejaVuSans-31"/>
       <use xlink:href="#DejaVuSans-33" x="63.623047"/>
       <use xlink:href="#DejaVuSans-35" x="127.246094"/>
       <use xlink:href="#DejaVuSans-b0" x="190.869141"/>
      </g>
     </g>
    </g>
    <g id="xtick_13">
     <g id="line2d_20">
      <path d="M 309.200114 122.320824 
L 228.036477 122.320824 
" clip-path="url(#p5f193fd6af)" style="fill: none; stroke: #b0b0b0; stroke-width: 0.8; stroke-linecap: square"/>
     </g>
     <g id="text_20">
      <!-- 180° -->
      <g transform="translate(201.992727 125.080199) scale(0.1 -0.1)">
       <use xlink:href="#DejaVuSans-31"/>
       <use xlink:href="#DejaVuSans-38" x="63.623047"/>
       <use xlink:href="#DejaVuSans-30" x="127.246094"/>
       <use xlink:href="#DejaVuSans-b0" x="190.869141"/>
      </g>
     </g>
    </g>
    <g id="xtick_14">
     <g id="line2d_21">
      <path d="M 309.200114 122.320824 
L 251.808756 179.712182 
" clip-path="url(#p5f193fd6af)" style="fill: none; stroke: #b0b0b0; stroke-width: 0.8; stroke-linecap: square"/>
     </g>
     <g id="text_21">
      <!-- 225° -->
      <g transform="translate(229.865511 192.371051) scale(0.1 -0.1)">
       <use xlink:href="#DejaVuSans-32"/>
       <use xlink:href="#DejaVuSans-32" x="63.623047"/>
       <use xlink:href="#DejaVuSans-35" x="127.246094"/>
       <use xlink:href="#DejaVuSans-b0" x="190.869141"/>
      </g>
     </g>
    </g>
    <g id="xtick_15">
     <g id="line2d_22">
      <path d="M 309.200114 122.320824 
L 309.200114 203.48446 
" clip-path="url(#p5f193fd6af)" style="fill: none; stroke: #b0b0b0; stroke-width: 0.8; stroke-linecap: square"/>
     </g>
     <g id="text_22">
      <!-- 270° -->
      <g transform="translate(297.156364 220.243835) scale(0.1 -0.1)">
       <use xlink:href="#DejaVuSans-32"/>
       <use xlink:href="#DejaVuSans-37" x="63.623047"/>
       <use xlink:href="#DejaVuSans-30" x="127.246094"/>
       <use xlink:href="#DejaVuSans-b0" x="190.869141"/>
      </g>
     </g>
    </g>
    <g id="xtick_16">
     <g id="line2d_23">
      <path d="M 309.200114 122.320824 
L 366.591471 179.712182 
" clip-path="url(#p5f193fd6af)" style="fill: none; stroke: #b0b0b0; stroke-width: 0.8; stroke-linecap: square"/>
     </g>
     <g id="text_23">
      <!-- 315° -->
      <g transform="translate(364.447216 192.371051) scale(0.1 -0.1)">
       <use xlink:href="#DejaVuSans-33"/>
       <use xlink:href="#DejaVuSans-31" x="63.623047"/>
       <use xlink:href="#DejaVuSans-35" x="127.246094"/>
       <use xlink:href="#DejaVuSans-b0" x="190.869141"/>
      </g>
     </g>
    </g>
   </g>
   <g id="matplotlib.axis_4">
    <g id="ytick_7">
     <g id="line2d_24">
      <path d="M 311.21411 122.320824 
C 311.21411 122.056348 311.162014 121.794444 311.060804 121.550101 
C 310.959593 121.305757 310.811237 121.083726 310.624224 120.896713 
C 310.437212 120.709701 310.21518 120.561344 309.970837 120.460134 
C 309.726493 120.358923 309.464589 120.306827 309.200114 120.306827 
C 308.935638 120.306827 308.673734 120.358923 308.429391 120.460134 
C 308.185047 120.561344 307.963016 120.709701 307.776003 120.896713 
C 307.588991 121.083726 307.440634 121.305757 307.339423 121.550101 
C 307.238213 121.794444 307.186117 122.056348 307.186117 122.320824 
C 307.186117 122.585299 307.238213 122.847203 307.339423 123.091547 
C 307.440634 123.335891 307.588991 123.557922 307.776003 123.744934 
C 307.963016 123.931947 308.185047 124.080304 308.429391 124.181514 
C 308.673734 124.282724 308.935638 124.33482 309.200114 124.33482 
C 309.464589 124.33482 309.726493 124.282724 309.970837 124.181514 
C 310.21518 124.080304 310.437212 123.931947 310.624224 123.744934 
C 310.811237 123.557922 310.959593 123.335891 311.060804 123.091547 
C 311.162014 122.847203 311.21411 122.585299 311.21411 122.320824 
" clip-path="url(#p5f193fd6af)" style="fill: none; stroke: #b0b0b0; stroke-width: 0.8; stroke-linecap: square"/>
     </g>
     <g id="text_24">
      <!-- −30 -->
      <g transform="translate(311.060804 119.470413) scale(0.1 -0.1)">
       <use xlink:href="#DejaVuSans-2212"/>
       <use xlink:href="#DejaVuSans-33" x="83.789062"/>
       <use xlink:href="#DejaVuSans-30" x="147.412109"/>
      </g>
     </g>
    </g>
    <g id="ytick_8">
     <g id="line2d_25">
      <path d="M 324.405717 122.320824 
C 324.405717 120.324042 324.012394 118.346677 323.248259 116.501891 
C 322.484124 114.657106 321.364036 112.980776 319.952099 111.568839 
C 318.540161 110.156901 316.863832 109.036814 315.019046 108.272678 
C 313.17426 107.508543 311.196895 107.115221 309.200114 107.115221 
C 307.203332 107.115221 305.225967 107.508543 303.381181 108.272678 
C 301.536396 109.036814 299.860066 110.156901 298.448129 111.568839 
C 297.036191 112.980776 295.916103 114.657106 295.151968 116.501891 
C 294.387833 118.346677 293.99451 120.324042 293.99451 122.320824 
C 293.99451 124.317605 294.387833 126.294971 295.151968 128.139756 
C 295.916103 129.984542 297.036191 131.660871 298.448129 133.072809 
C 299.860066 134.484747 301.536396 135.604834 303.381181 136.368969 
C 305.225967 137.133105 307.203332 137.526427 309.200114 137.526427 
C 311.196895 137.526427 313.17426 137.133105 315.019046 136.368969 
C 316.863832 135.604834 318.540161 134.484747 319.952099 133.072809 
C 321.364036 131.660871 322.484124 129.984542 323.248259 128.139756 
C 324.012394 126.294971 324.405717 124.317605 324.405717 122.320824 
" clip-path="url(#p5f193fd6af)" style="fill: none; stroke: #b0b0b0; stroke-width: 0.8; stroke-linecap: square"/>
     </g>
     <g id="text_25">
      <!-- −25 -->
      <g transform="translate(323.248259 114.422204) scale(0.1 -0.1)">
       <use xlink:href="#DejaVuSans-2212"/>
       <use xlink:href="#DejaVuSans-32" x="83.789062"/>
       <use xlink:href="#DejaVuSans-35" x="147.412109"/>
      </g>
     </g>
    </g>
    <g id="ytick_9">
     <g id="line2d_26">
      <path d="M 337.597323 122.320824 
C 337.597323 118.591736 336.862775 114.89891 335.435715 111.453682 
C 334.008655 108.008455 331.916836 104.877827 329.279973 102.240964 
C 326.64311 99.604101 323.512483 97.512283 320.067255 96.085223 
C 316.622028 94.658163 312.929201 93.923614 309.200114 93.923614 
C 305.471026 93.923614 301.778199 94.658163 298.332972 96.085223 
C 294.887744 97.512283 291.757117 99.604101 289.120254 102.240964 
C 286.483391 104.877827 284.391573 108.008455 282.964513 111.453682 
C 281.537453 114.89891 280.802904 118.591736 280.802904 122.320824 
C 280.802904 126.049911 281.537453 129.742738 282.964513 133.187966 
C 284.391573 136.633193 286.483391 139.76382 289.120254 142.400683 
C 291.757117 145.037546 294.887744 147.129365 298.332972 148.556425 
C 301.778199 149.983485 305.471026 150.718034 309.200114 150.718034 
C 312.929201 150.718034 316.622028 149.983485 320.067255 148.556425 
C 323.512483 147.129365 326.64311 145.037546 329.279973 142.400683 
C 331.916836 139.76382 334.008655 136.633193 335.435715 133.187966 
C 336.862775 129.742738 337.597323 126.049911 337.597323 122.320824 
" clip-path="url(#p5f193fd6af)" style="fill: none; stroke: #b0b0b0; stroke-width: 0.8; stroke-linecap: square"/>
     </g>
     <g id="text_26">
      <!-- −20 -->
      <g transform="translate(335.435715 109.373995) scale(0.1 -0.1)">
       <use xlink:href="#DejaVuSans-2212"/>
       <use xlink:href="#DejaVuSans-32" x="83.789062"/>
       <use xlink:href="#DejaVuSans-30" x="147.412109"/>
      </g>
     </g>
    </g>
    <g id="ytick_10">
     <g id="line2d_27">
      <path d="M 350.78893 122.320824 
C 350.78893 116.859431 349.713155 111.451142 347.62317 106.405473 
C 345.533185 101.359803 342.469636 96.774878 338.607848 92.91309 
C 334.74606 89.051301 330.161134 85.987752 325.115465 83.897768 
C 320.069795 81.807783 314.661507 80.732007 309.200114 80.732007 
C 303.73872 80.732007 298.330432 81.807783 293.284763 83.897768 
C 288.239093 85.987752 283.654168 89.051301 279.79238 92.91309 
C 275.930591 96.774878 272.867042 101.359803 270.777057 106.405473 
C 268.687073 111.451142 267.611297 116.859431 267.611297 122.320824 
C 267.611297 127.782217 268.687073 133.190505 270.777057 138.236175 
C 272.867042 143.281844 275.930591 147.86677 279.79238 151.728558 
C 283.654168 155.590346 288.239093 158.653895 293.284763 160.74388 
C 298.330432 162.833865 303.73872 163.90964 309.200114 163.90964 
C 314.661507 163.90964 320.069795 162.833865 325.115465 160.74388 
C 330.161134 158.653895 334.74606 155.590346 338.607848 151.728558 
C 342.469636 147.86677 345.533185 143.281844 347.62317 138.236175 
C 349.713155 133.190505 350.78893 127.782217 350.78893 122.320824 
" clip-path="url(#p5f193fd6af)" style="fill: none; stroke: #b0b0b0; stroke-width: 0.8; stroke-linecap: square"/>
     </g>
     <g id="text_27">
      <!-- −15 -->
      <g transform="translate(347.62317 104.325785) scale(0.1 -0.1)">
       <use xlink:href="#DejaVuSans-2212"/>
       <use xlink:href="#DejaVuSans-31" x="83.789062"/>
       <use xlink:href="#DejaVuSans-35" x="147.412109"/>
      </g>
     </g>
    </g>
    <g id="ytick_11">
     <g id="line2d_28">
      <path d="M 363.980537 122.320824 
C 363.980537 115.127125 362.563535 108.003375 359.810625 101.357264 
C 357.057716 94.711152 353.022436 88.671929 347.935722 83.585215 
C 342.849009 78.498502 336.809785 74.463222 330.163674 71.710312 
C 323.517562 68.957403 316.393813 67.540401 309.200114 67.540401 
C 302.006414 67.540401 294.882665 68.957403 288.236553 71.710312 
C 281.590442 74.463222 275.551219 78.498502 270.464505 83.585215 
C 265.377791 88.671929 261.342511 94.711152 258.589602 101.357264 
C 255.836692 108.003375 254.419691 115.127125 254.419691 122.320824 
C 254.419691 129.514523 255.836692 136.638273 258.589602 143.284384 
C 261.342511 149.930496 265.377791 155.969719 270.464505 161.056433 
C 275.551219 166.143146 281.590442 170.178426 288.236553 172.931336 
C 294.882665 175.684245 302.006414 177.101247 309.200114 177.101247 
C 316.393813 177.101247 323.517562 175.684245 330.163674 172.931336 
C 336.809785 170.178426 342.849009 166.143146 347.935722 161.056433 
C 353.022436 155.969719 357.057716 149.930496 359.810625 143.284384 
C 362.563535 136.638273 363.980537 129.514523 363.980537 122.320824 
" clip-path="url(#p5f193fd6af)" style="fill: none; stroke: #b0b0b0; stroke-width: 0.8; stroke-linecap: square"/>
     </g>
     <g id="text_28">
      <!-- −10 -->
      <g transform="translate(359.810625 99.277576) scale(0.1 -0.1)">
       <use xlink:href="#DejaVuSans-2212"/>
       <use xlink:href="#DejaVuSans-31" x="83.789062"/>
       <use xlink:href="#DejaVuSans-30" x="147.412109"/>
      </g>
     </g>
    </g>
    <g id="ytick_12">
     <g id="line2d_29">
      <path d="M 377.172143 122.320824 
C 377.172143 113.394819 375.413915 104.555608 371.998081 96.309054 
C 368.582246 88.062501 363.575236 80.568979 357.263597 74.257341 
C 350.951958 67.945702 343.458437 62.938691 335.211883 59.522857 
C 326.96533 56.107023 318.126119 54.348794 309.200114 54.348794 
C 300.274108 54.348794 291.434897 56.107023 283.188344 59.522857 
C 274.941791 62.938691 267.448269 67.945702 261.13663 74.257341 
C 254.824992 80.568979 249.817981 88.062501 246.402147 96.309054 
C 242.986312 104.555608 241.228084 113.394819 241.228084 122.320824 
C 241.228084 131.246829 242.986312 140.08604 246.402147 148.332594 
C 249.817981 156.579147 254.824992 164.072668 261.13663 170.384307 
C 267.448269 176.695946 274.941791 181.702957 283.188344 185.118791 
C 291.434897 188.534625 300.274108 190.292854 309.200114 190.292854 
C 318.126119 190.292854 326.96533 188.534625 335.211883 185.118791 
C 343.458437 181.702957 350.951958 176.695946 357.263597 170.384307 
C 363.575236 164.072668 368.582246 156.579147 371.998081 148.332594 
C 375.413915 140.08604 377.172143 131.246829 377.172143 122.320824 
" clip-path="url(#p5f193fd6af)" style="fill: none; stroke: #b0b0b0; stroke-width: 0.8; stroke-linecap: square"/>
     </g>
     <g id="text_29">
      <!-- −5 -->
      <g transform="translate(371.998081 94.229367) scale(0.1 -0.1)">
       <use xlink:href="#DejaVuSans-2212"/>
       <use xlink:href="#DejaVuSans-35" x="83.789062"/>
      </g>
     </g>
    </g>
    <g id="ytick_13">
     <g id="line2d_30">
      <path d="M 390.36375 122.320824 
C 390.36375 111.662513 388.264295 101.10784 384.185536 91.260845 
C 380.106777 81.413849 374.128035 72.46603 366.591471 64.929466 
C 359.054907 57.392902 350.107088 51.414161 340.260093 47.335401 
C 330.413097 43.256642 319.858425 41.157188 309.200114 41.157188 
C 298.541803 41.157188 287.98713 43.256642 278.140135 47.335401 
C 268.293139 51.414161 259.34532 57.392902 251.808756 64.929466 
C 244.272192 72.46603 238.29345 81.413849 234.214691 91.260845 
C 230.135932 101.10784 228.036477 111.662513 228.036477 122.320824 
C 228.036477 132.979135 230.135932 143.533807 234.214691 153.380803 
C 238.29345 163.227798 244.272192 172.175617 251.808756 179.712182 
C 259.34532 187.248746 268.293139 193.227487 278.140135 197.306246 
C 287.98713 201.385005 298.541803 203.48446 309.200114 203.48446 
C 319.858425 203.48446 330.413097 201.385005 340.260093 197.306246 
C 350.107088 193.227487 359.054907 187.248746 366.591471 179.712182 
C 374.128035 172.175617 380.106777 163.227798 384.185536 153.380803 
C 388.264295 143.533807 390.36375 132.979135 390.36375 122.320824 
" clip-path="url(#p5f193fd6af)" style="fill: none; stroke: #b0b0b0; stroke-width: 0.8; stroke-linecap: square"/>
     </g>
     <g id="text_30">
      <!-- 0 -->
      <g transform="translate(384.185536 89.181157) scale(0.1 -0.1)">
       <use xlink:href="#DejaVuSans-30"/>
      </g>
     </g>
    </g>
   </g>
   <g id="line2d_31">
    <path d="M 288.145643 147.412565 
L 292.221533 146.568751 
L 295.955032 145.261978 
L 299.234066 143.693082 
L 302.444342 140.882154 
L 304.669203 139.230411 
L 306.454618 137.891301 
L 307.984664 136.213479 
L 309.200114 133.014729 
L 309.983261 131.27224 
L 310.475374 129.553184 
L 310.753634 128.118642 
L 310.547825 126.023629 
L 310.897205 125.960249 
L 311.912683 127.019132 
L 313.744031 128.810211 
L 313.44452 127.37911 
L 312.402621 125.523331 
L 315.729191 127.799371 
L 324.266263 132.870255 
L 332.248494 135.627813 
L 339.022454 136.22721 
L 350.892371 137.495565 
L 367.045592 137.820473 
L 380.524208 134.897186 
L 388.027163 129.217297 
L 390.137537 122.320824 
L 387.62892 115.459192 
L 379.370354 109.947917 
L 365.090056 107.345159 
L 348.018226 108.192186 
L 336.810567 109.445858 
L 331.86643 109.23442 
L 324.273716 111.766174 
L 315.408368 117.11148 
L 311.925418 119.595519 
L 313.495051 117.202317 
L 313.629439 115.995092 
L 312.195355 117.132913 
L 311.017807 118.422768 
L 310.63024 118.391583 
L 310.721457 116.643093 
L 310.541009 114.716227 
L 309.994223 113.244112 
L 309.200114 111.330767 
L 307.980832 108.384372 
L 306.400887 106.44562 
L 304.608635 105.185193 
L 302.201293 103.091722 
L 298.974408 100.391727 
L 295.733108 98.995285 
L 291.855839 97.550633 
L 287.513758 96.476031 
" clip-path="url(#p5f193fd6af)" style="fill: none; stroke: #1f77b4; stroke-width: 1.5; stroke-linecap: square"/>
   </g>
   <g id="patch_5">
    <path d="M 390.36375 122.320824 
C 390.36375 111.662513 388.264295 101.10784 384.185536 91.260845 
C 380.106777 81.413849 374.128035 72.46603 366.591471 64.929466 
C 359.054907 57.392902 350.107088 51.414161 340.260093 47.335401 
C 330.413097 43.256642 319.858425 41.157188 309.200114 41.157188 
C 298.541803 41.157188 287.98713 43.256642 278.140135 47.335401 
C 268.293139 51.414161 259.34532 57.392902 251.808756 64.929466 
C 244.272192 72.46603 238.29345 81.413849 234.214691 91.260845 
C 230.135932 101.10784 228.036477 111.662513 228.036477 122.320824 
C 228.036477 132.979135 230.135932 143.533807 234.214691 153.380803 
C 238.29345 163.227798 244.272192 172.175617 251.808756 179.712182 
C 259.34532 187.248746 268.293139 193.227487 278.140135 197.306246 
C 287.98713 201.385005 298.541803 203.48446 309.200114 203.48446 
C 319.858425 203.48446 330.413097 201.385005 340.260093 197.306246 
C 350.107088 193.227487 359.054907 187.248746 366.591471 179.712182 
C 374.128035 172.175617 380.106777 163.227798 384.185536 153.380803 
C 388.264295 143.533807 390.36375 132.979135 390.36375 122.320824 
" style="fill: none; stroke: #000000; stroke-width: 0.8; stroke-linejoin: miter; stroke-linecap: square"/>
   </g>
   <g id="text_31">
    <!-- H-Plane (Phi = 90.0) -->
    <g transform="translate(248.190426 16.318125) scale(0.12 -0.12)">
     <defs>
      <path id="DejaVuSans-48" d="M 628 4666 
L 1259 4666 
L 1259 2753 
L 3553 2753 
L 3553 4666 
L 4184 4666 
L 4184 0 
L 3553 0 
L 3553 2222 
L 1259 2222 
L 1259 0 
L 628 0 
L 628 4666 
z
" transform="scale(0.015625)"/>
     </defs>
     <use xlink:href="#DejaVuSans-48"/>
     <use xlink:href="#DejaVuSans-2d" x="75.195312"/>
     <use xlink:href="#DejaVuSans-50" x="111.279297"/>
     <use xlink:href="#DejaVuSans-6c" x="171.582031"/>
     <use xlink:href="#DejaVuSans-61" x="199.365234"/>
     <use xlink:href="#DejaVuSans-6e" x="260.644531"/>
     <use xlink:href="#DejaVuSans-65" x="324.023438"/>
     <use xlink:href="#DejaVuSans-20" x="385.546875"/>
     <use xlink:href="#DejaVuSans-28" x="417.333984"/>
     <use xlink:href="#DejaVuSans-50" x="456.347656"/>
     <use xlink:href="#DejaVuSans-68" x="516.650391"/>
     <use xlink:href="#DejaVuSans-69" x="580.029297"/>
     <use xlink:href="#DejaVuSans-20" x="607.8125"/>
     <use xlink:href="#DejaVuSans-3d" x="639.599609"/>
     <use xlink:href="#DejaVuSans-20" x="723.388672"/>
     <use xlink:href="#DejaVuSans-39" x="755.175781"/>
     <use xlink:href="#DejaVuSans-30" x="818.798828"/>
     <use xlink:href="#DejaVuSans-2e" x="882.421875"/>
     <use xlink:href="#DejaVuSans-30" x="914.208984"/>
     <use xlink:href="#DejaVuSans-29" x="977.832031"/>
    </g>
   </g>
  </g>
 </g>
 <defs>
  <clipPath id="pae70e06ae5">
   <path d="M 195.571023 122.320824 
C 195.571023 111.662513 193.471568 101.10784 189.392809 91.260845 
C 185.31405 81.413849 179.335308 72.46603 171.798744 64.929466 
C 164.26218 57.392902 155.314361 51.414161 145.467365 47.335401 
C 135.62037 43.256642 125.065697 41.157188 114.407386 41.157188 
C 103.749075 41.157188 93.194403 43.256642 83.347407 47.335401 
C 73.500412 51.414161 64.552593 57.392902 57.016029 64.929466 
C 49.479465 72.46603 43.500723 81.413849 39.421964 91.260845 
C 35.343205 101.10784 33.24375 111.662513 33.24375 122.320824 
C 33.24375 132.979135 35.343205 143.533807 39.421964 153.380803 
C 43.500723 163.227798 49.479465 172.175617 57.016029 179.712182 
C 64.552593 187.248746 73.500412 193.227487 83.347407 197.306246 
C 93.194403 201.385005 103.749075 203.48446 114.407386 203.48446 
C 125.065697 203.48446 135.62037 201.385005 145.467365 197.306246 
C 155.314361 193.227487 164.26218 187.248746 171.798744 179.712182 
C 179.335308 172.175617 185.31405 163.227798 189.392809 153.380803 
C 193.471568 143.533807 195.571023 132.979135 195.571023 122.320824 
M 114.407386 122.320824 
C 114.407386 122.320824 114.407386 122.320824 114.407386 122.320824 
C 114.407386 122.320824 114.407386 122.320824 114.407386 122.320824 
C 114.407386 122.320824 114.407386 122.320824 114.407386 122.320824 
C 114.407386 122.320824 114.407386 122.320824 114.407386 122.320824 
C 114.407386 122.320824 114.407386 122.320824 114.407386 122.320824 
C 114.407386 122.320824 114.407386 122.320824 114.407386 122.320824 
C 114.407386 122.320824 114.407386 122.320824 114.407386 122.320824 
C 114.407386 122.320824 114.407386 122.320824 114.407386 122.320824 
C 114.407386 122.320824 114.407386 122.320824 114.407386 122.320824 
C 114.407386 122.320824 114.407386 122.320824 114.407386 122.320824 
C 114.407386 122.320824 114.407386 122.320824 114.407386 122.320824 
C 114.407386 122.320824 114.407386 122.320824 114.407386 122.320824 
C 114.407386 122.320824 114.407386 122.320824 114.407386 122.320824 
C 114.407386 122.320824 114.407386 122.320824 114.407386 122.320824 
C 114.407386 122.320824 114.407386 122.320824 114.407386 122.320824 
C 114.407386 122.320824 114.407386 122.320824 114.407386 122.320824 
z
"/>
  </clipPath>
  <clipPath id="p5f193fd6af">
   <path d="M 390.36375 122.320824 
C 390.36375 111.662513 388.264295 101.10784 384.185536 91.260845 
C 380.106777 81.413849 374.128035 72.46603 366.591471 64.929466 
C 359.054907 57.392902 350.107088 51.414161 340.260093 47.335401 
C 330.413097 43.256642 319.858425 41.157188 309.200114 41.157188 
C 298.541803 41.157188 287.98713 43.256642 278.140135 47.335401 
C 268.293139 51.414161 259.34532 57.392902 251.808756 64.929466 
C 244.272192 72.46603 238.29345 81.413849 234.214691 91.260845 
C 230.135932 101.10784 228.036477 111.662513 228.036477 122.320824 
C 228.036477 132.979135 230.135932 143.533807 234.214691 153.380803 
C 238.29345 163.227798 244.272192 172.175617 251.808756 179.712182 
C 259.34532 187.248746 268.293139 193.227487 278.140135 197.306246 
C 287.98713 201.385005 298.541803 203.48446 309.200114 203.48446 
C 319.858425 203.48446 330.413097 201.385005 340.260093 197.306246 
C 350.107088 193.227487 359.054907 187.248746 366.591471 179.712182 
C 374.128035 172.175617 380.106777 163.227798 384.185536 153.380803 
C 388.264295 143.533807 390.36375 132.979135 390.36375 122.320824 
M 309.200114 122.320824 
C 309.200114 122.320824 309.200114 122.320824 309.200114 122.320824 
C 309.200114 122.320824 309.200114 122.320824 309.200114 122.320824 
C 309.200114 122.320824 309.200114 122.320824 309.200114 122.320824 
C 309.200114 122.320824 309.200114 122.320824 309.200114 122.320824 
C 309.200114 122.320824 309.200114 122.320824 309.200114 122.320824 
C 309.200114 122.320824 309.200114 122.320824 309.200114 122.320824 
C 309.200114 122.320824 309.200114 122.320824 309.200114 122.320824 
C 309.200114 122.320824 309.200114 122.320824 309.200114 122.320824 
C 309.200114 122.320824 309.200114 122.320824 309.200114 122.320824 
C 309.200114 122.320824 309.200114 122.320824 309.200114 122.320824 
C 309.200114 122.320824 309.200114 122.320824 309.200114 122.320824 
C 309.200114 122.320824 309.200114 122.320824 309.200114 122.320824 
C 309.200114 122.320824 309.200114 122.320824 309.200114 122.320824 
C 309.200114 122.320824 309.200114 122.320824 309.200114 122.320824 
C 309.200114 122.320824 309.200114 122.320824 309.200114 122.320824 
C 309.200114 122.320824 309.200114 122.320824 309.200114 122.320824 
z
"/>
  </clipPath>
 </defs>
</svg>
