<?xml version="1.0" encoding="utf-8" standalone="no"?>
<!DOCTYPE svg PUBLIC "-//W3C//DTD SVG 1.1//EN"
  "http://www.w3.org/Graphics/SVG/1.1/DTD/svg11.dtd">
<svg xmlns:xlink="http://www.w3.org/1999/xlink" width="417.245pt" height="214.405398pt" viewBox="0 0 417.245 214.405398" xmlns="http://www.w3.org/2000/svg" version="1.1">
 <metadata>
  <rdf:RDF xmlns:dc="http://purl.org/dc/elements/1.1/" xmlns:cc="http://creativecommons.org/ns#" xmlns:rdf="http://www.w3.org/1999/02/22-rdf-syntax-ns#">
   <cc:Work>
    <dc:type rdf:resource="http://purl.org/dc/dcmitype/StillImage"/>
    <dc:date>2025-01-19T18:01:21.963596</dc:date>
    <dc:format>image/svg+xml</dc:format>
    <dc:creator>
     <cc:Agent>
      <dc:title>Matplotlib v3.10.0, https://matplotlib.org/</dc:title>
     </cc:Agent>
    </dc:creator>
   </cc:Work>
  </rdf:RDF>
 </metadata>
 <defs>
  <style type="text/css">*{stroke-linejoin: round; stroke-linecap: butt}</style>
 </defs>
 <g id="figure_1">
  <g id="patch_1">
   <path d="M 0 214.405398 
L 417.245 214.405398 
L 417.245 -0 
L 0 -0 
z
" style="fill: #ffffff"/>
  </g>
  <g id="axes_1">
   <g id="patch_2">
    <path d="M 195.571023 107.202699 
C 195.571023 96.544388 193.471568 85.989715 189.392809 76.14272 
C 185.31405 66.295724 179.335308 57.347905 171.798744 49.811341 
C 164.26218 42.274777 155.314361 36.296036 145.467365 32.217276 
C 135.62037 28.138517 125.065697 26.039063 114.407386 26.039063 
C 103.749075 26.039063 93.194403 28.138517 83.347407 32.217276 
C 73.500412 36.296036 64.552593 42.274777 57.016029 49.811341 
C 49.479465 57.347905 43.500723 66.295724 39.421964 76.14272 
C 35.343205 85.989715 33.24375 96.544388 33.24375 107.202699 
C 33.24375 117.86101 35.343205 128.415682 39.421964 138.262678 
C 43.500723 148.109673 49.479465 157.057492 57.016029 164.594057 
C 64.552593 172.130621 73.500412 178.109362 83.347407 182.188121 
C 93.194403 186.26688 103.749075 188.366335 114.407386 188.366335 
C 125.065697 188.366335 135.62037 186.26688 145.467365 182.188121 
C 155.314361 178.109362 164.26218 172.130621 171.798744 164.594057 
C 179.335308 157.057492 185.31405 148.109673 189.392809 138.262678 
C 193.471568 128.415682 195.571023 117.86101 195.571023 107.202699 
M 114.407386 107.202699 
C 114.407386 107.202699 114.407386 107.202699 114.407386 107.202699 
C 114.407386 107.202699 114.407386 107.202699 114.407386 107.202699 
C 114.407386 107.202699 114.407386 107.202699 114.407386 107.202699 
C 114.407386 107.202699 114.407386 107.202699 114.407386 107.202699 
C 114.407386 107.202699 114.407386 107.202699 114.407386 107.202699 
C 114.407386 107.202699 114.407386 107.202699 114.407386 107.202699 
C 114.407386 107.202699 114.407386 107.202699 114.407386 107.202699 
C 114.407386 107.202699 114.407386 107.202699 114.407386 107.202699 
C 114.407386 107.202699 114.407386 107.202699 114.407386 107.202699 
C 114.407386 107.202699 114.407386 107.202699 114.407386 107.202699 
C 114.407386 107.202699 114.407386 107.202699 114.407386 107.202699 
C 114.407386 107.202699 114.407386 107.202699 114.407386 107.202699 
C 114.407386 107.202699 114.407386 107.202699 114.407386 107.202699 
C 114.407386 107.202699 114.407386 107.202699 114.407386 107.202699 
C 114.407386 107.202699 114.407386 107.202699 114.407386 107.202699 
C 114.407386 107.202699 114.407386 107.202699 114.407386 107.202699 
z
" style="fill: #ffffff"/>
   </g>
   <g id="matplotlib.axis_1">
    <g id="xtick_1">
     <g id="line2d_1">
      <path d="M 114.407386 107.202699 
L 195.571023 107.202699 
" clip-path="url(#p08a418ec4e)" style="fill: none; stroke: #b0b0b0; stroke-width: 0.8; stroke-linecap: square"/>
     </g>
     <g id="text_1">
      <!-- 0° -->
      <g transform="translate(203.889773 109.962074) scale(0.1 -0.1)">
       <defs>
        <path id="DejaVuSans-30" d="M 2034 4250 
Q 1547 4250 1301 3770 
Q 1056 3291 1056 2328 
Q 1056 1369 1301 889 
Q 1547 409 2034 409 
Q 2525 409 2770 889 
Q 3016 1369 3016 2328 
Q 3016 3291 2770 3770 
Q 2525 4250 2034 4250 
z
M 2034 4750 
Q 2819 4750 3233 4129 
Q 3647 3509 3647 2328 
Q 3647 1150 3233 529 
Q 2819 -91 2034 -91 
Q 1250 -91 836 529 
Q 422 1150 422 2328 
Q 422 3509 836 4129 
Q 1250 4750 2034 4750 
z
" transform="scale(0.015625)"/>
        <path id="DejaVuSans-b0" d="M 1600 4347 
Q 1350 4347 1178 4173 
Q 1006 4000 1006 3750 
Q 1006 3503 1178 3333 
Q 1350 3163 1600 3163 
Q 1850 3163 2022 3333 
Q 2194 3503 2194 3750 
Q 2194 3997 2020 4172 
Q 1847 4347 1600 4347 
z
M 1600 4750 
Q 1800 4750 1984 4673 
Q 2169 4597 2303 4453 
Q 2447 4313 2519 4134 
Q 2591 3956 2591 3750 
Q 2591 3338 2302 3052 
Q 2013 2766 1594 2766 
Q 1172 2766 890 3047 
Q 609 3328 609 3750 
Q 609 4169 896 4459 
Q 1184 4750 1600 4750 
z
" transform="scale(0.015625)"/>
       </defs>
       <use xlink:href="#DejaVuSans-30"/>
       <use xlink:href="#DejaVuSans-b0" transform="translate(63.623047 0)"/>
      </g>
     </g>
    </g>
    <g id="xtick_2">
     <g id="line2d_2">
      <path d="M 114.407386 107.202699 
L 171.798744 49.811341 
" clip-path="url(#p08a418ec4e)" style="fill: none; stroke: #b0b0b0; stroke-width: 0.8; stroke-linecap: square"/>
     </g>
     <g id="text_2">
      <!-- 45° -->
      <g transform="translate(172.835739 42.671221) scale(0.1 -0.1)">
       <defs>
        <path id="DejaVuSans-34" d="M 2419 4116 
L 825 1625 
L 2419 1625 
L 2419 4116 
z
M 2253 4666 
L 3047 4666 
L 3047 1625 
L 3713 1625 
L 3713 1100 
L 3047 1100 
L 3047 0 
L 2419 0 
L 2419 1100 
L 313 1100 
L 313 1709 
L 2253 4666 
z
" transform="scale(0.015625)"/>
        <path id="DejaVuSans-35" d="M 691 4666 
L 3169 4666 
L 3169 4134 
L 1269 4134 
L 1269 2991 
Q 1406 3038 1543 3061 
Q 1681 3084 1819 3084 
Q 2600 3084 3056 2656 
Q 3513 2228 3513 1497 
Q 3513 744 3044 326 
Q 2575 -91 1722 -91 
Q 1428 -91 1123 -41 
Q 819 9 494 109 
L 494 744 
Q 775 591 1075 516 
Q 1375 441 1709 441 
Q 2250 441 2565 725 
Q 2881 1009 2881 1497 
Q 2881 1984 2565 2268 
Q 2250 2553 1709 2553 
Q 1456 2553 1204 2497 
Q 953 2441 691 2322 
L 691 4666 
z
" transform="scale(0.015625)"/>
       </defs>
       <use xlink:href="#DejaVuSans-34"/>
       <use xlink:href="#DejaVuSans-35" transform="translate(63.623047 0)"/>
       <use xlink:href="#DejaVuSans-b0" transform="translate(127.246094 0)"/>
      </g>
     </g>
    </g>
    <g id="xtick_3">
     <g id="line2d_3">
      <path d="M 114.407386 107.202699 
L 114.407386 26.039063 
" clip-path="url(#p08a418ec4e)" style="fill: none; stroke: #b0b0b0; stroke-width: 0.8; stroke-linecap: square"/>
     </g>
     <g id="text_3">
      <!-- 90° -->
      <g transform="translate(105.544886 14.798438) scale(0.1 -0.1)">
       <defs>
        <path id="DejaVuSans-39" d="M 703 97 
L 703 672 
Q 941 559 1184 500 
Q 1428 441 1663 441 
Q 2288 441 2617 861 
Q 2947 1281 2994 2138 
Q 2813 1869 2534 1725 
Q 2256 1581 1919 1581 
Q 1219 1581 811 2004 
Q 403 2428 403 3163 
Q 403 3881 828 4315 
Q 1253 4750 1959 4750 
Q 2769 4750 3195 4129 
Q 3622 3509 3622 2328 
Q 3622 1225 3098 567 
Q 2575 -91 1691 -91 
Q 1453 -91 1209 -44 
Q 966 3 703 97 
z
M 1959 2075 
Q 2384 2075 2632 2365 
Q 2881 2656 2881 3163 
Q 2881 3666 2632 3958 
Q 2384 4250 1959 4250 
Q 1534 4250 1286 3958 
Q 1038 3666 1038 3163 
Q 1038 2656 1286 2365 
Q 1534 2075 1959 2075 
z
" transform="scale(0.015625)"/>
       </defs>
       <use xlink:href="#DejaVuSans-39"/>
       <use xlink:href="#DejaVuSans-30" transform="translate(63.623047 0)"/>
       <use xlink:href="#DejaVuSans-b0" transform="translate(127.246094 0)"/>
      </g>
     </g>
    </g>
    <g id="xtick_4">
     <g id="line2d_4">
      <path d="M 114.407386 107.202699 
L 57.016029 49.811341 
" clip-path="url(#p08a418ec4e)" style="fill: none; stroke: #b0b0b0; stroke-width: 0.8; stroke-linecap: square"/>
     </g>
     <g id="text_4">
      <!-- 135° -->
      <g transform="translate(35.072784 42.671221) scale(0.1 -0.1)">
       <defs>
        <path id="DejaVuSans-31" d="M 794 531 
L 1825 531 
L 1825 4091 
L 703 3866 
L 703 4441 
L 1819 4666 
L 2450 4666 
L 2450 531 
L 3481 531 
L 3481 0 
L 794 0 
L 794 531 
z
" transform="scale(0.015625)"/>
        <path id="DejaVuSans-33" d="M 2597 2516 
Q 3050 2419 3304 2112 
Q 3559 1806 3559 1356 
Q 3559 666 3084 287 
Q 2609 -91 1734 -91 
Q 1441 -91 1130 -33 
Q 819 25 488 141 
L 488 750 
Q 750 597 1062 519 
Q 1375 441 1716 441 
Q 2309 441 2620 675 
Q 2931 909 2931 1356 
Q 2931 1769 2642 2001 
Q 2353 2234 1838 2234 
L 1294 2234 
L 1294 2753 
L 1863 2753 
Q 2328 2753 2575 2939 
Q 2822 3125 2822 3475 
Q 2822 3834 2567 4026 
Q 2313 4219 1838 4219 
Q 1578 4219 1281 4162 
Q 984 4106 628 3988 
L 628 4550 
Q 988 4650 1302 4700 
Q 1616 4750 1894 4750 
Q 2613 4750 3031 4423 
Q 3450 4097 3450 3541 
Q 3450 3153 3228 2886 
Q 3006 2619 2597 2516 
z
" transform="scale(0.015625)"/>
       </defs>
       <use xlink:href="#DejaVuSans-31"/>
       <use xlink:href="#DejaVuSans-33" transform="translate(63.623047 0)"/>
       <use xlink:href="#DejaVuSans-35" transform="translate(127.246094 0)"/>
       <use xlink:href="#DejaVuSans-b0" transform="translate(190.869141 0)"/>
      </g>
     </g>
    </g>
    <g id="xtick_5">
     <g id="line2d_5">
      <path d="M 114.407386 107.202699 
L 33.24375 107.202699 
" clip-path="url(#p08a418ec4e)" style="fill: none; stroke: #b0b0b0; stroke-width: 0.8; stroke-linecap: square"/>
     </g>
     <g id="text_5">
      <!-- 180° -->
      <g transform="translate(7.2 109.962074) scale(0.1 -0.1)">
       <defs>
        <path id="DejaVuSans-38" d="M 2034 2216 
Q 1584 2216 1326 1975 
Q 1069 1734 1069 1313 
Q 1069 891 1326 650 
Q 1584 409 2034 409 
Q 2484 409 2743 651 
Q 3003 894 3003 1313 
Q 3003 1734 2745 1975 
Q 2488 2216 2034 2216 
z
M 1403 2484 
Q 997 2584 770 2862 
Q 544 3141 544 3541 
Q 544 4100 942 4425 
Q 1341 4750 2034 4750 
Q 2731 4750 3128 4425 
Q 3525 4100 3525 3541 
Q 3525 3141 3298 2862 
Q 3072 2584 2669 2484 
Q 3125 2378 3379 2068 
Q 3634 1759 3634 1313 
Q 3634 634 3220 271 
Q 2806 -91 2034 -91 
Q 1263 -91 848 271 
Q 434 634 434 1313 
Q 434 1759 690 2068 
Q 947 2378 1403 2484 
z
M 1172 3481 
Q 1172 3119 1398 2916 
Q 1625 2713 2034 2713 
Q 2441 2713 2670 2916 
Q 2900 3119 2900 3481 
Q 2900 3844 2670 4047 
Q 2441 4250 2034 4250 
Q 1625 4250 1398 4047 
Q 1172 3844 1172 3481 
z
" transform="scale(0.015625)"/>
       </defs>
       <use xlink:href="#DejaVuSans-31"/>
       <use xlink:href="#DejaVuSans-38" transform="translate(63.623047 0)"/>
       <use xlink:href="#DejaVuSans-30" transform="translate(127.246094 0)"/>
       <use xlink:href="#DejaVuSans-b0" transform="translate(190.869141 0)"/>
      </g>
     </g>
    </g>
    <g id="xtick_6">
     <g id="line2d_6">
      <path d="M 114.407386 107.202699 
L 57.016029 164.594057 
" clip-path="url(#p08a418ec4e)" style="fill: none; stroke: #b0b0b0; stroke-width: 0.8; stroke-linecap: square"/>
     </g>
     <g id="text_6">
      <!-- 225° -->
      <g transform="translate(35.072784 177.252926) scale(0.1 -0.1)">
       <defs>
        <path id="DejaVuSans-32" d="M 1228 531 
L 3431 531 
L 3431 0 
L 469 0 
L 469 531 
Q 828 903 1448 1529 
Q 2069 2156 2228 2338 
Q 2531 2678 2651 2914 
Q 2772 3150 2772 3378 
Q 2772 3750 2511 3984 
Q 2250 4219 1831 4219 
Q 1534 4219 1204 4116 
Q 875 4013 500 3803 
L 500 4441 
Q 881 4594 1212 4672 
Q 1544 4750 1819 4750 
Q 2544 4750 2975 4387 
Q 3406 4025 3406 3419 
Q 3406 3131 3298 2873 
Q 3191 2616 2906 2266 
Q 2828 2175 2409 1742 
Q 1991 1309 1228 531 
z
" transform="scale(0.015625)"/>
       </defs>
       <use xlink:href="#DejaVuSans-32"/>
       <use xlink:href="#DejaVuSans-32" transform="translate(63.623047 0)"/>
       <use xlink:href="#DejaVuSans-35" transform="translate(127.246094 0)"/>
       <use xlink:href="#DejaVuSans-b0" transform="translate(190.869141 0)"/>
      </g>
     </g>
    </g>
    <g id="xtick_7">
     <g id="line2d_7">
      <path d="M 114.407386 107.202699 
L 114.407386 188.366335 
" clip-path="url(#p08a418ec4e)" style="fill: none; stroke: #b0b0b0; stroke-width: 0.8; stroke-linecap: square"/>
     </g>
     <g id="text_7">
      <!-- 270° -->
      <g transform="translate(102.363636 205.12571) scale(0.1 -0.1)">
       <defs>
        <path id="DejaVuSans-37" d="M 525 4666 
L 3525 4666 
L 3525 4397 
L 1831 0 
L 1172 0 
L 2766 4134 
L 525 4134 
L 525 4666 
z
" transform="scale(0.015625)"/>
       </defs>
       <use xlink:href="#DejaVuSans-32"/>
       <use xlink:href="#DejaVuSans-37" transform="translate(63.623047 0)"/>
       <use xlink:href="#DejaVuSans-30" transform="translate(127.246094 0)"/>
       <use xlink:href="#DejaVuSans-b0" transform="translate(190.869141 0)"/>
      </g>
     </g>
    </g>
    <g id="xtick_8">
     <g id="line2d_8">
      <path d="M 114.407386 107.202699 
L 171.798744 164.594057 
" clip-path="url(#p08a418ec4e)" style="fill: none; stroke: #b0b0b0; stroke-width: 0.8; stroke-linecap: square"/>
     </g>
     <g id="text_8">
      <!-- 315° -->
      <g transform="translate(169.654489 177.252926) scale(0.1 -0.1)">
       <use xlink:href="#DejaVuSans-33"/>
       <use xlink:href="#DejaVuSans-31" transform="translate(63.623047 0)"/>
       <use xlink:href="#DejaVuSans-35" transform="translate(127.246094 0)"/>
       <use xlink:href="#DejaVuSans-b0" transform="translate(190.869141 0)"/>
      </g>
     </g>
    </g>
   </g>
   <g id="matplotlib.axis_2">
    <g id="ytick_1">
     <g id="line2d_9">
      <path d="M 118.11814 107.202699 
C 118.11814 106.715407 118.022154 106.232854 117.835676 105.782655 
C 117.649197 105.332456 117.375853 104.923367 117.031286 104.5788 
C 116.686718 104.234232 116.277629 103.960888 115.82743 103.774409 
C 115.377232 103.587931 114.894678 103.491945 114.407386 103.491945 
C 113.920095 103.491945 113.437541 103.587931 112.987342 103.774409 
C 112.537143 103.960888 112.128054 104.234232 111.783487 104.5788 
C 111.43892 104.923367 111.165575 105.332456 110.979097 105.782655 
C 110.792618 106.232854 110.696632 106.715407 110.696632 107.202699 
C 110.696632 107.689991 110.792618 108.172544 110.979097 108.622743 
C 111.165575 109.072942 111.43892 109.482031 111.783487 109.826598 
C 112.128054 110.171165 112.537143 110.44451 112.987342 110.630988 
C 113.437541 110.817467 113.920095 110.913453 114.407386 110.913453 
C 114.894678 110.913453 115.377232 110.817467 115.82743 110.630988 
C 116.277629 110.44451 116.686718 110.171165 117.031286 109.826598 
C 117.375853 109.482031 117.649197 109.072942 117.835676 108.622743 
C 118.022154 108.172544 118.11814 107.689991 118.11814 107.202699 
" clip-path="url(#p08a418ec4e)" style="fill: none; stroke: #b0b0b0; stroke-width: 0.8; stroke-linecap: square"/>
     </g>
     <g id="text_9">
      <!-- −25 -->
      <g transform="translate(117.835676 103.702967) scale(0.1 -0.1)">
       <defs>
        <path id="DejaVuSans-2212" d="M 678 2272 
L 4684 2272 
L 4684 1741 
L 678 1741 
L 678 2272 
z
" transform="scale(0.015625)"/>
       </defs>
       <use xlink:href="#DejaVuSans-2212"/>
       <use xlink:href="#DejaVuSans-32" transform="translate(83.789062 0)"/>
       <use xlink:href="#DejaVuSans-35" transform="translate(147.412109 0)"/>
      </g>
     </g>
    </g>
    <g id="ytick_2">
     <g id="line2d_10">
      <path d="M 133.608717 107.202699 
C 133.608717 104.681203 133.112037 102.184226 132.147103 99.854668 
C 131.182168 97.52511 129.767744 95.408275 127.984777 93.625308 
C 126.201811 91.842341 124.084976 90.427917 121.755417 89.462983 
C 119.425859 88.498048 116.928882 88.001368 114.407386 88.001368 
C 111.885891 88.001368 109.388914 88.498048 107.059355 89.462983 
C 104.729797 90.427917 102.612962 91.842341 100.829995 93.625308 
C 99.047029 95.408275 97.632605 97.52511 96.66767 99.854668 
C 95.702736 102.184226 95.206056 104.681203 95.206056 107.202699 
C 95.206056 109.724194 95.702736 112.221172 96.66767 114.55073 
C 97.632605 116.880288 99.047029 118.997123 100.829995 120.78009 
C 102.612962 122.563056 104.729797 123.97748 107.059355 124.942415 
C 109.388914 125.90735 111.885891 126.404029 114.407386 126.404029 
C 116.928882 126.404029 119.425859 125.90735 121.755417 124.942415 
C 124.084976 123.97748 126.201811 122.563056 127.984777 120.78009 
C 129.767744 118.997123 131.182168 116.880288 132.147103 114.55073 
C 133.112037 112.221172 133.608717 109.724194 133.608717 107.202699 
" clip-path="url(#p08a418ec4e)" style="fill: none; stroke: #b0b0b0; stroke-width: 0.8; stroke-linecap: square"/>
     </g>
     <g id="text_10">
      <!-- −20 -->
      <g transform="translate(132.147103 97.77498) scale(0.1 -0.1)">
       <use xlink:href="#DejaVuSans-2212"/>
       <use xlink:href="#DejaVuSans-32" transform="translate(83.789062 0)"/>
       <use xlink:href="#DejaVuSans-30" transform="translate(147.412109 0)"/>
      </g>
     </g>
    </g>
    <g id="ytick_3">
     <g id="line2d_11">
      <path d="M 149.099293 107.202699 
C 149.099293 102.646999 148.20192 98.135598 146.458529 93.926681 
C 144.715138 89.717763 142.159635 85.893182 138.938269 82.671816 
C 135.716903 79.45045 131.892322 76.894947 127.683404 75.151556 
C 123.474487 73.408165 118.963086 72.510792 114.407386 72.510792 
C 109.851687 72.510792 105.340286 73.408165 101.131368 75.151556 
C 96.922451 76.894947 93.09787 79.45045 89.876504 82.671816 
C 86.655138 85.893182 84.099634 89.717763 82.356244 93.926681 
C 80.612853 98.135598 79.715479 102.646999 79.715479 107.202699 
C 79.715479 111.758398 80.612853 116.269799 82.356244 120.478717 
C 84.099634 124.687634 86.655138 128.512215 89.876504 131.733581 
C 93.09787 134.954947 96.922451 137.510451 101.131368 139.253842 
C 105.340286 140.997232 109.851687 141.894606 114.407386 141.894606 
C 118.963086 141.894606 123.474487 140.997232 127.683404 139.253842 
C 131.892322 137.510451 135.716903 134.954947 138.938269 131.733581 
C 142.159635 128.512215 144.715138 124.687634 146.458529 120.478717 
C 148.20192 116.269799 149.099293 111.758398 149.099293 107.202699 
" clip-path="url(#p08a418ec4e)" style="fill: none; stroke: #b0b0b0; stroke-width: 0.8; stroke-linecap: square"/>
     </g>
     <g id="text_11">
      <!-- −15 -->
      <g transform="translate(146.458529 91.846993) scale(0.1 -0.1)">
       <use xlink:href="#DejaVuSans-2212"/>
       <use xlink:href="#DejaVuSans-31" transform="translate(83.789062 0)"/>
       <use xlink:href="#DejaVuSans-35" transform="translate(147.412109 0)"/>
      </g>
     </g>
    </g>
    <g id="ytick_4">
     <g id="line2d_12">
      <path d="M 164.58987 107.202699 
C 164.58987 100.612796 163.291802 94.086971 160.769956 87.998694 
C 158.248109 81.910417 154.551526 76.37809 149.891761 71.718325 
C 145.231995 67.058559 139.699668 63.361976 133.611391 60.84013 
C 127.523115 58.318283 120.99729 57.020215 114.407386 57.020215 
C 107.817483 57.020215 101.291658 58.318283 95.203381 60.84013 
C 89.115105 63.361976 83.582777 67.058559 78.923012 71.718325 
C 74.263247 76.37809 70.566664 81.910417 68.044817 87.998694 
C 65.52297 94.086971 64.224903 100.612796 64.224903 107.202699 
C 64.224903 113.792602 65.52297 120.318427 68.044817 126.406704 
C 70.566664 132.494981 74.263247 138.027308 78.923012 142.687073 
C 83.582777 147.346838 89.115105 151.043421 95.203381 153.565268 
C 101.291658 156.087115 107.817483 157.385182 114.407386 157.385182 
C 120.99729 157.385182 127.523115 156.087115 133.611391 153.565268 
C 139.699668 151.043421 145.231995 147.346838 149.891761 142.687073 
C 154.551526 138.027308 158.248109 132.494981 160.769956 126.406704 
C 163.291802 120.318427 164.58987 113.792602 164.58987 107.202699 
" clip-path="url(#p08a418ec4e)" style="fill: none; stroke: #b0b0b0; stroke-width: 0.8; stroke-linecap: square"/>
     </g>
     <g id="text_12">
      <!-- −10 -->
      <g transform="translate(160.769956 85.919006) scale(0.1 -0.1)">
       <use xlink:href="#DejaVuSans-2212"/>
       <use xlink:href="#DejaVuSans-31" transform="translate(83.789062 0)"/>
       <use xlink:href="#DejaVuSans-30" transform="translate(147.412109 0)"/>
      </g>
     </g>
    </g>
    <g id="ytick_5">
     <g id="line2d_13">
      <path d="M 180.080446 107.202699 
C 180.080446 98.578592 178.381685 90.038343 175.081382 82.070707 
C 171.781079 74.103071 166.943417 66.862998 160.845252 60.764833 
C 154.747088 54.666668 147.507014 49.829006 139.539378 46.528703 
C 131.571742 43.2284 123.031494 41.529639 114.407386 41.529639 
C 105.783279 41.529639 97.243031 43.2284 89.275394 46.528703 
C 81.307758 49.829006 74.067685 54.666668 67.96952 60.764833 
C 61.871356 66.862998 57.033693 74.103071 53.733391 82.070707 
C 50.433088 90.038343 48.734326 98.578592 48.734326 107.202699 
C 48.734326 115.826806 50.433088 124.367055 53.733391 132.334691 
C 57.033693 140.302327 61.871356 147.5424 67.96952 153.640565 
C 74.067685 159.73873 81.307758 164.576392 89.275394 167.876695 
C 97.243031 171.176998 105.783279 172.875759 114.407386 172.875759 
C 123.031494 172.875759 131.571742 171.176998 139.539378 167.876695 
C 147.507014 164.576392 154.747088 159.73873 160.845252 153.640565 
C 166.943417 147.5424 171.781079 140.302327 175.081382 132.334691 
C 178.381685 124.367055 180.080446 115.826806 180.080446 107.202699 
" clip-path="url(#p08a418ec4e)" style="fill: none; stroke: #b0b0b0; stroke-width: 0.8; stroke-linecap: square"/>
     </g>
     <g id="text_13">
      <!-- −5 -->
      <g transform="translate(175.081382 79.991019) scale(0.1 -0.1)">
       <use xlink:href="#DejaVuSans-2212"/>
       <use xlink:href="#DejaVuSans-35" transform="translate(83.789062 0)"/>
      </g>
     </g>
    </g>
    <g id="ytick_6">
     <g id="line2d_14">
      <path d="M 195.571023 107.202699 
C 195.571023 96.544388 193.471568 85.989715 189.392809 76.14272 
C 185.31405 66.295724 179.335308 57.347905 171.798744 49.811341 
C 164.26218 42.274777 155.314361 36.296036 145.467365 32.217276 
C 135.62037 28.138517 125.065697 26.039063 114.407386 26.039063 
C 103.749075 26.039063 93.194403 28.138517 83.347407 32.217276 
C 73.500412 36.296036 64.552593 42.274777 57.016029 49.811341 
C 49.479465 57.347905 43.500723 66.295724 39.421964 76.14272 
C 35.343205 85.989715 33.24375 96.544388 33.24375 107.202699 
C 33.24375 117.86101 35.343205 128.415682 39.421964 138.262678 
C 43.500723 148.109673 49.479465 157.057492 57.016029 164.594057 
C 64.552593 172.130621 73.500412 178.109362 83.347407 182.188121 
C 93.194403 186.26688 103.749075 188.366335 114.407386 188.366335 
C 125.065697 188.366335 135.62037 186.26688 145.467365 182.188121 
C 155.314361 178.109362 164.26218 172.130621 171.798744 164.594057 
C 179.335308 157.057492 185.31405 148.109673 189.392809 138.262678 
C 193.471568 128.415682 195.571023 117.86101 195.571023 107.202699 
" clip-path="url(#p08a418ec4e)" style="fill: none; stroke: #b0b0b0; stroke-width: 0.8; stroke-linecap: square"/>
     </g>
     <g id="text_14">
      <!-- 0 -->
      <g transform="translate(189.392809 74.063032) scale(0.1 -0.1)">
       <use xlink:href="#DejaVuSans-30"/>
      </g>
     </g>
    </g>
   </g>
   <g id="line2d_15">
    <path d="M 92.869146 132.870974 
L 95.980961 133.518362 
L 101.226874 130.032017 
L 108.901849 119.009362 
L 112.334691 112.897382 
L 111.64956 117.495048 
L 111.498834 123.697921 
L 113.373443 119.02072 
L 114.407386 112.995085 
L 115.004707 114.030104 
L 116.585866 119.557469 
L 118.253548 121.55677 
L 119.710209 121.772085 
L 120.979582 121.296818 
L 120.536289 117.81827 
L 117.13653 111.100319 
L 116.926387 110.204727 
L 124.778941 117.574253 
L 137.478135 126.561355 
L 146.218164 129.476845 
L 145.792435 125.322865 
L 140.382641 119.315159 
L 145.902579 118.666012 
L 164.889069 120.729225 
L 183.918351 119.459357 
L 192.60358 114.043979 
L 195.415546 107.202699 
L 192.724492 100.35084 
L 184.364265 94.867414 
L 165.883657 93.409674 
L 146.169216 95.642338 
L 139.936337 95.298354 
L 145.042945 89.515251 
L 146.170211 84.96213 
L 137.806862 87.568208 
L 124.970839 96.639247 
L 116.88696 104.247658 
L 117.03551 103.44935 
L 120.598791 96.478871 
L 120.974929 93.118557 
L 119.655206 92.784432 
L 118.285958 92.727674 
L 116.706065 94.166242 
L 115.051128 99.844699 
L 114.407386 102.012615 
L 113.464823 96.429152 
L 111.491376 90.665184 
L 111.364857 95.847824 
L 112.275622 101.345725 
L 109.328175 96.310294 
L 101.83507 85.426809 
L 96.37499 81.449769 
L 92.434866 81.016869 
" clip-path="url(#p08a418ec4e)" style="fill: none; stroke: #1f77b4; stroke-width: 1.5; stroke-linecap: square"/>
   </g>
   <g id="patch_3">
    <path d="M 195.571023 107.202699 
C 195.571023 96.544388 193.471568 85.989715 189.392809 76.14272 
C 185.31405 66.295724 179.335308 57.347905 171.798744 49.811341 
C 164.26218 42.274777 155.314361 36.296036 145.467365 32.217276 
C 135.62037 28.138517 125.065697 26.039063 114.407386 26.039063 
C 103.749075 26.039063 93.194403 28.138517 83.347407 32.217276 
C 73.500412 36.296036 64.552593 42.274777 57.016029 49.811341 
C 49.479465 57.347905 43.500723 66.295724 39.421964 76.14272 
C 35.343205 85.989715 33.24375 96.544388 33.24375 107.202699 
C 33.24375 117.86101 35.343205 128.415682 39.421964 138.262678 
C 43.500723 148.109673 49.479465 157.057492 57.016029 164.594057 
C 64.552593 172.130621 73.500412 178.109362 83.347407 182.188121 
C 93.194403 186.26688 103.749075 188.366335 114.407386 188.366335 
C 125.065697 188.366335 135.62037 186.26688 145.467365 182.188121 
C 155.314361 178.109362 164.26218 172.130621 171.798744 164.594057 
C 179.335308 157.057492 185.31405 148.109673 189.392809 138.262678 
C 193.471568 128.415682 195.571023 117.86101 195.571023 107.202699 
" style="fill: none; stroke: #000000; stroke-width: 0.8; stroke-linejoin: miter; stroke-linecap: square"/>
   </g>
   <g id="text_15">
    <!-- E-Plane (Phi = 0.0) -->
    <g transform="translate(57.936136 20.039063) scale(0.12 -0.12)">
     <defs>
      <path id="DejaVuSans-45" d="M 628 4666 
L 3578 4666 
L 3578 4134 
L 1259 4134 
L 1259 2753 
L 3481 2753 
L 3481 2222 
L 1259 2222 
L 1259 531 
L 3634 531 
L 3634 0 
L 628 0 
L 628 4666 
z
" transform="scale(0.015625)"/>
      <path id="DejaVuSans-2d" d="M 313 2009 
L 1997 2009 
L 1997 1497 
L 313 1497 
L 313 2009 
z
" transform="scale(0.015625)"/>
      <path id="DejaVuSans-50" d="M 1259 4147 
L 1259 2394 
L 2053 2394 
Q 2494 2394 2734 2622 
Q 2975 2850 2975 3272 
Q 2975 3691 2734 3919 
Q 2494 4147 2053 4147 
L 1259 4147 
z
M 628 4666 
L 2053 4666 
Q 2838 4666 3239 4311 
Q 3641 3956 3641 3272 
Q 3641 2581 3239 2228 
Q 2838 1875 2053 1875 
L 1259 1875 
L 1259 0 
L 628 0 
L 628 4666 
z
" transform="scale(0.015625)"/>
      <path id="DejaVuSans-6c" d="M 603 4863 
L 1178 4863 
L 1178 0 
L 603 0 
L 603 4863 
z
" transform="scale(0.015625)"/>
      <path id="DejaVuSans-61" d="M 2194 1759 
Q 1497 1759 1228 1600 
Q 959 1441 959 1056 
Q 959 750 1161 570 
Q 1363 391 1709 391 
Q 2188 391 2477 730 
Q 2766 1069 2766 1631 
L 2766 1759 
L 2194 1759 
z
M 3341 1997 
L 3341 0 
L 2766 0 
L 2766 531 
Q 2569 213 2275 61 
Q 1981 -91 1556 -91 
Q 1019 -91 701 211 
Q 384 513 384 1019 
Q 384 1609 779 1909 
Q 1175 2209 1959 2209 
L 2766 2209 
L 2766 2266 
Q 2766 2663 2505 2880 
Q 2244 3097 1772 3097 
Q 1472 3097 1187 3025 
Q 903 2953 641 2809 
L 641 3341 
Q 956 3463 1253 3523 
Q 1550 3584 1831 3584 
Q 2591 3584 2966 3190 
Q 3341 2797 3341 1997 
z
" transform="scale(0.015625)"/>
      <path id="DejaVuSans-6e" d="M 3513 2113 
L 3513 0 
L 2938 0 
L 2938 2094 
Q 2938 2591 2744 2837 
Q 2550 3084 2163 3084 
Q 1697 3084 1428 2787 
Q 1159 2491 1159 1978 
L 1159 0 
L 581 0 
L 581 3500 
L 1159 3500 
L 1159 2956 
Q 1366 3272 1645 3428 
Q 1925 3584 2291 3584 
Q 2894 3584 3203 3211 
Q 3513 2838 3513 2113 
z
" transform="scale(0.015625)"/>
      <path id="DejaVuSans-65" d="M 3597 1894 
L 3597 1613 
L 953 1613 
Q 991 1019 1311 708 
Q 1631 397 2203 397 
Q 2534 397 2845 478 
Q 3156 559 3463 722 
L 3463 178 
Q 3153 47 2828 -22 
Q 2503 -91 2169 -91 
Q 1331 -91 842 396 
Q 353 884 353 1716 
Q 353 2575 817 3079 
Q 1281 3584 2069 3584 
Q 2775 3584 3186 3129 
Q 3597 2675 3597 1894 
z
M 3022 2063 
Q 3016 2534 2758 2815 
Q 2500 3097 2075 3097 
Q 1594 3097 1305 2825 
Q 1016 2553 972 2059 
L 3022 2063 
z
" transform="scale(0.015625)"/>
      <path id="DejaVuSans-20" transform="scale(0.015625)"/>
      <path id="DejaVuSans-28" d="M 1984 4856 
Q 1566 4138 1362 3434 
Q 1159 2731 1159 2009 
Q 1159 1288 1364 580 
Q 1569 -128 1984 -844 
L 1484 -844 
Q 1016 -109 783 600 
Q 550 1309 550 2009 
Q 550 2706 781 3412 
Q 1013 4119 1484 4856 
L 1984 4856 
z
" transform="scale(0.015625)"/>
      <path id="DejaVuSans-68" d="M 3513 2113 
L 3513 0 
L 2938 0 
L 2938 2094 
Q 2938 2591 2744 2837 
Q 2550 3084 2163 3084 
Q 1697 3084 1428 2787 
Q 1159 2491 1159 1978 
L 1159 0 
L 581 0 
L 581 4863 
L 1159 4863 
L 1159 2956 
Q 1366 3272 1645 3428 
Q 1925 3584 2291 3584 
Q 2894 3584 3203 3211 
Q 3513 2838 3513 2113 
z
" transform="scale(0.015625)"/>
      <path id="DejaVuSans-69" d="M 603 3500 
L 1178 3500 
L 1178 0 
L 603 0 
L 603 3500 
z
M 603 4863 
L 1178 4863 
L 1178 4134 
L 603 4134 
L 603 4863 
z
" transform="scale(0.015625)"/>
      <path id="DejaVuSans-3d" d="M 678 2906 
L 4684 2906 
L 4684 2381 
L 678 2381 
L 678 2906 
z
M 678 1631 
L 4684 1631 
L 4684 1100 
L 678 1100 
L 678 1631 
z
" transform="scale(0.015625)"/>
      <path id="DejaVuSans-2e" d="M 684 794 
L 1344 794 
L 1344 0 
L 684 0 
L 684 794 
z
" transform="scale(0.015625)"/>
      <path id="DejaVuSans-29" d="M 513 4856 
L 1013 4856 
Q 1481 4119 1714 3412 
Q 1947 2706 1947 2009 
Q 1947 1309 1714 600 
Q 1481 -109 1013 -844 
L 513 -844 
Q 928 -128 1133 580 
Q 1338 1288 1338 2009 
Q 1338 2731 1133 3434 
Q 928 4138 513 4856 
z
" transform="scale(0.015625)"/>
     </defs>
     <use xlink:href="#DejaVuSans-45"/>
     <use xlink:href="#DejaVuSans-2d" transform="translate(63.183594 0)"/>
     <use xlink:href="#DejaVuSans-50" transform="translate(99.267578 0)"/>
     <use xlink:href="#DejaVuSans-6c" transform="translate(159.570312 0)"/>
     <use xlink:href="#DejaVuSans-61" transform="translate(187.353516 0)"/>
     <use xlink:href="#DejaVuSans-6e" transform="translate(248.632812 0)"/>
     <use xlink:href="#DejaVuSans-65" transform="translate(312.011719 0)"/>
     <use xlink:href="#DejaVuSans-20" transform="translate(373.535156 0)"/>
     <use xlink:href="#DejaVuSans-28" transform="translate(405.322266 0)"/>
     <use xlink:href="#DejaVuSans-50" transform="translate(444.335938 0)"/>
     <use xlink:href="#DejaVuSans-68" transform="translate(504.638672 0)"/>
     <use xlink:href="#DejaVuSans-69" transform="translate(568.017578 0)"/>
     <use xlink:href="#DejaVuSans-20" transform="translate(595.800781 0)"/>
     <use xlink:href="#DejaVuSans-3d" transform="translate(627.587891 0)"/>
     <use xlink:href="#DejaVuSans-20" transform="translate(711.376953 0)"/>
     <use xlink:href="#DejaVuSans-30" transform="translate(743.164062 0)"/>
     <use xlink:href="#DejaVuSans-2e" transform="translate(806.787109 0)"/>
     <use xlink:href="#DejaVuSans-30" transform="translate(838.574219 0)"/>
     <use xlink:href="#DejaVuSans-29" transform="translate(902.197266 0)"/>
    </g>
   </g>
  </g>
  <g id="axes_2">
   <g id="patch_4">
    <path d="M 390.36375 107.202699 
C 390.36375 96.544388 388.264295 85.989715 384.185536 76.14272 
C 380.106777 66.295724 374.128035 57.347905 366.591471 49.811341 
C 359.054907 42.274777 350.107088 36.296036 340.260093 32.217276 
C 330.413097 28.138517 319.858425 26.039062 309.200114 26.039062 
C 298.541803 26.039062 287.98713 28.138517 278.140135 32.217276 
C 268.293139 36.296036 259.34532 42.274777 251.808756 49.811341 
C 244.272192 57.347905 238.29345 66.295724 234.214691 76.14272 
C 230.135932 85.989715 228.036477 96.544388 228.036477 107.202699 
C 228.036477 117.86101 230.135932 128.415682 234.214691 138.262678 
C 238.29345 148.109673 244.272192 157.057492 251.808756 164.594057 
C 259.34532 172.130621 268.293139 178.109362 278.140135 182.188121 
C 287.98713 186.26688 298.541803 188.366335 309.200114 188.366335 
C 319.858425 188.366335 330.413097 186.26688 340.260093 182.188121 
C 350.107088 178.109362 359.054907 172.130621 366.591471 164.594057 
C 374.128035 157.057492 380.106777 148.109673 384.185536 138.262678 
C 388.264295 128.415682 390.36375 117.86101 390.36375 107.202699 
M 309.200114 107.202699 
C 309.200114 107.202699 309.200114 107.202699 309.200114 107.202699 
C 309.200114 107.202699 309.200114 107.202699 309.200114 107.202699 
C 309.200114 107.202699 309.200114 107.202699 309.200114 107.202699 
C 309.200114 107.202699 309.200114 107.202699 309.200114 107.202699 
C 309.200114 107.202699 309.200114 107.202699 309.200114 107.202699 
C 309.200114 107.202699 309.200114 107.202699 309.200114 107.202699 
C 309.200114 107.202699 309.200114 107.202699 309.200114 107.202699 
C 309.200114 107.202699 309.200114 107.202699 309.200114 107.202699 
C 309.200114 107.202699 309.200114 107.202699 309.200114 107.202699 
C 309.200114 107.202699 309.200114 107.202699 309.200114 107.202699 
C 309.200114 107.202699 309.200114 107.202699 309.200114 107.202699 
C 309.200114 107.202699 309.200114 107.202699 309.200114 107.202699 
C 309.200114 107.202699 309.200114 107.202699 309.200114 107.202699 
C 309.200114 107.202699 309.200114 107.202699 309.200114 107.202699 
C 309.200114 107.202699 309.200114 107.202699 309.200114 107.202699 
C 309.200114 107.202699 309.200114 107.202699 309.200114 107.202699 
z
" style="fill: #ffffff"/>
   </g>
   <g id="matplotlib.axis_3">
    <g id="xtick_9">
     <g id="line2d_16">
      <path d="M 309.200114 107.202699 
L 390.36375 107.202699 
" clip-path="url(#p6be4bcb4ca)" style="fill: none; stroke: #b0b0b0; stroke-width: 0.8; stroke-linecap: square"/>
     </g>
     <g id="text_16">
      <!-- 0° -->
      <g transform="translate(398.6825 109.962074) scale(0.1 -0.1)">
       <use xlink:href="#DejaVuSans-30"/>
       <use xlink:href="#DejaVuSans-b0" transform="translate(63.623047 0)"/>
      </g>
     </g>
    </g>
    <g id="xtick_10">
     <g id="line2d_17">
      <path d="M 309.200114 107.202699 
L 366.591471 49.811341 
" clip-path="url(#p6be4bcb4ca)" style="fill: none; stroke: #b0b0b0; stroke-width: 0.8; stroke-linecap: square"/>
     </g>
     <g id="text_17">
      <!-- 45° -->
      <g transform="translate(367.628466 42.671221) scale(0.1 -0.1)">
       <use xlink:href="#DejaVuSans-34"/>
       <use xlink:href="#DejaVuSans-35" transform="translate(63.623047 0)"/>
       <use xlink:href="#DejaVuSans-b0" transform="translate(127.246094 0)"/>
      </g>
     </g>
    </g>
    <g id="xtick_11">
     <g id="line2d_18">
      <path d="M 309.200114 107.202699 
L 309.200114 26.039063 
" clip-path="url(#p6be4bcb4ca)" style="fill: none; stroke: #b0b0b0; stroke-width: 0.8; stroke-linecap: square"/>
     </g>
     <g id="text_18">
      <!-- 90° -->
      <g transform="translate(300.337614 14.798438) scale(0.1 -0.1)">
       <use xlink:href="#DejaVuSans-39"/>
       <use xlink:href="#DejaVuSans-30" transform="translate(63.623047 0)"/>
       <use xlink:href="#DejaVuSans-b0" transform="translate(127.246094 0)"/>
      </g>
     </g>
    </g>
    <g id="xtick_12">
     <g id="line2d_19">
      <path d="M 309.200114 107.202699 
L 251.808756 49.811341 
" clip-path="url(#p6be4bcb4ca)" style="fill: none; stroke: #b0b0b0; stroke-width: 0.8; stroke-linecap: square"/>
     </g>
     <g id="text_19">
      <!-- 135° -->
      <g transform="translate(229.865511 42.671221) scale(0.1 -0.1)">
       <use xlink:href="#DejaVuSans-31"/>
       <use xlink:href="#DejaVuSans-33" transform="translate(63.623047 0)"/>
       <use xlink:href="#DejaVuSans-35" transform="translate(127.246094 0)"/>
       <use xlink:href="#DejaVuSans-b0" transform="translate(190.869141 0)"/>
      </g>
     </g>
    </g>
    <g id="xtick_13">
     <g id="line2d_20">
      <path d="M 309.200114 107.202699 
L 228.036477 107.202699 
" clip-path="url(#p6be4bcb4ca)" style="fill: none; stroke: #b0b0b0; stroke-width: 0.8; stroke-linecap: square"/>
     </g>
     <g id="text_20">
      <!-- 180° -->
      <g transform="translate(201.992727 109.962074) scale(0.1 -0.1)">
       <use xlink:href="#DejaVuSans-31"/>
       <use xlink:href="#DejaVuSans-38" transform="translate(63.623047 0)"/>
       <use xlink:href="#DejaVuSans-30" transform="translate(127.246094 0)"/>
       <use xlink:href="#DejaVuSans-b0" transform="translate(190.869141 0)"/>
      </g>
     </g>
    </g>
    <g id="xtick_14">
     <g id="line2d_21">
      <path d="M 309.200114 107.202699 
L 251.808756 164.594057 
" clip-path="url(#p6be4bcb4ca)" style="fill: none; stroke: #b0b0b0; stroke-width: 0.8; stroke-linecap: square"/>
     </g>
     <g id="text_21">
      <!-- 225° -->
      <g transform="translate(229.865511 177.252926) scale(0.1 -0.1)">
       <use xlink:href="#DejaVuSans-32"/>
       <use xlink:href="#DejaVuSans-32" transform="translate(63.623047 0)"/>
       <use xlink:href="#DejaVuSans-35" transform="translate(127.246094 0)"/>
       <use xlink:href="#DejaVuSans-b0" transform="translate(190.869141 0)"/>
      </g>
     </g>
    </g>
    <g id="xtick_15">
     <g id="line2d_22">
      <path d="M 309.200114 107.202699 
L 309.200114 188.366335 
" clip-path="url(#p6be4bcb4ca)" style="fill: none; stroke: #b0b0b0; stroke-width: 0.8; stroke-linecap: square"/>
     </g>
     <g id="text_22">
      <!-- 270° -->
      <g transform="translate(297.156364 205.12571) scale(0.1 -0.1)">
       <use xlink:href="#DejaVuSans-32"/>
       <use xlink:href="#DejaVuSans-37" transform="translate(63.623047 0)"/>
       <use xlink:href="#DejaVuSans-30" transform="translate(127.246094 0)"/>
       <use xlink:href="#DejaVuSans-b0" transform="translate(190.869141 0)"/>
      </g>
     </g>
    </g>
    <g id="xtick_16">
     <g id="line2d_23">
      <path d="M 309.200114 107.202699 
L 366.591471 164.594057 
" clip-path="url(#p6be4bcb4ca)" style="fill: none; stroke: #b0b0b0; stroke-width: 0.8; stroke-linecap: square"/>
     </g>
     <g id="text_23">
      <!-- 315° -->
      <g transform="translate(364.447216 177.252926) scale(0.1 -0.1)">
       <use xlink:href="#DejaVuSans-33"/>
       <use xlink:href="#DejaVuSans-31" transform="translate(63.623047 0)"/>
       <use xlink:href="#DejaVuSans-35" transform="translate(127.246094 0)"/>
       <use xlink:href="#DejaVuSans-b0" transform="translate(190.869141 0)"/>
      </g>
     </g>
    </g>
   </g>
   <g id="matplotlib.axis_4">
    <g id="ytick_7">
     <g id="line2d_24">
      <path d="M 311.52321 107.202699 
C 311.52321 106.897633 311.463119 106.595533 311.346375 106.313688 
C 311.229631 106.031844 311.058505 105.775736 310.842791 105.560022 
C 310.627077 105.344307 310.370969 105.173181 310.089124 105.056437 
C 309.80728 104.939694 309.50518 104.879602 309.200114 104.879602 
C 308.895047 104.879602 308.592948 104.939694 308.311103 105.056437 
C 308.029259 105.173181 307.773151 105.344307 307.557436 105.560022 
C 307.341722 105.775736 307.170596 106.031844 307.053852 106.313688 
C 306.937108 106.595533 306.877017 106.897633 306.877017 107.202699 
C 306.877017 107.507765 306.937108 107.809865 307.053852 108.091709 
C 307.170596 108.373554 307.341722 108.629662 307.557436 108.845376 
C 307.773151 109.061091 308.029259 109.232216 308.311103 109.34896 
C 308.592948 109.465704 308.895047 109.525795 309.200114 109.525795 
C 309.50518 109.525795 309.80728 109.465704 310.089124 109.34896 
C 310.370969 109.232216 310.627077 109.061091 310.842791 108.845376 
C 311.058505 108.629662 311.229631 108.373554 311.346375 108.091709 
C 311.463119 107.809865 311.52321 107.507765 311.52321 107.202699 
" clip-path="url(#p6be4bcb4ca)" style="fill: none; stroke: #b0b0b0; stroke-width: 0.8; stroke-linecap: square"/>
     </g>
     <g id="text_24">
      <!-- −30 -->
      <g transform="translate(311.346375 104.234001) scale(0.1 -0.1)">
       <use xlink:href="#DejaVuSans-2212"/>
       <use xlink:href="#DejaVuSans-33" transform="translate(83.789062 0)"/>
       <use xlink:href="#DejaVuSans-30" transform="translate(147.412109 0)"/>
      </g>
     </g>
    </g>
    <g id="ytick_8">
     <g id="line2d_25">
      <path d="M 324.6633 107.202699 
C 324.6633 105.172092 324.263315 103.16123 323.486235 101.285194 
C 322.709156 99.409157 321.570094 97.704431 320.134238 96.268575 
C 318.698382 94.832719 316.993655 93.693657 315.117619 92.916577 
C 313.241583 92.139498 311.230721 91.739512 309.200114 91.739512 
C 307.169507 91.739512 305.158645 92.139498 303.282608 92.916577 
C 301.406572 93.693657 299.701846 94.832719 298.26599 96.268575 
C 296.830134 97.704431 295.691072 99.409157 294.913992 101.285194 
C 294.136912 103.16123 293.736927 105.172092 293.736927 107.202699 
C 293.736927 109.233306 294.136912 111.244168 294.913992 113.120204 
C 295.691072 114.99624 296.830134 116.700967 298.26599 118.136823 
C 299.701846 119.572679 301.406572 120.711741 303.282608 121.48882 
C 305.158645 122.2659 307.169507 122.665885 309.200114 122.665885 
C 311.230721 122.665885 313.241583 122.2659 315.117619 121.48882 
C 316.993655 120.711741 318.698382 119.572679 320.134238 118.136823 
C 321.570094 116.700967 322.709156 114.99624 323.486235 113.120204 
C 324.263315 111.244168 324.6633 109.233306 324.6633 107.202699 
" clip-path="url(#p6be4bcb4ca)" style="fill: none; stroke: #b0b0b0; stroke-width: 0.8; stroke-linecap: square"/>
     </g>
     <g id="text_25">
      <!-- −25 -->
      <g transform="translate(323.486235 99.205506) scale(0.1 -0.1)">
       <use xlink:href="#DejaVuSans-2212"/>
       <use xlink:href="#DejaVuSans-32" transform="translate(83.789062 0)"/>
       <use xlink:href="#DejaVuSans-35" transform="translate(147.412109 0)"/>
      </g>
     </g>
    </g>
    <g id="ytick_9">
     <g id="line2d_26">
      <path d="M 337.80339 107.202699 
C 337.80339 103.446551 337.063511 99.726927 335.626095 96.256699 
C 334.18868 92.786471 332.081682 89.633126 329.425684 86.977128 
C 326.769687 84.32113 323.616342 82.214133 320.146114 80.776717 
C 316.675886 79.339302 312.956261 78.599422 309.200114 78.599422 
C 305.443966 78.599422 301.724342 79.339302 298.254114 80.776717 
C 294.783885 82.214133 291.63054 84.32113 288.974543 86.977128 
C 286.318545 89.633126 284.211547 92.786471 282.774132 96.256699 
C 281.336716 99.726927 280.596837 103.446551 280.596837 107.202699 
C 280.596837 110.958847 281.336716 114.678471 282.774132 118.148699 
C 284.211547 121.618927 286.318545 124.772272 288.974543 127.42827 
C 291.63054 130.084267 294.783885 132.191265 298.254114 133.628681 
C 301.724342 135.066096 305.443966 135.805975 309.200114 135.805975 
C 312.956261 135.805975 316.675886 135.066096 320.146114 133.628681 
C 323.616342 132.191265 326.769687 130.084267 329.425684 127.42827 
C 332.081682 124.772272 334.18868 121.618927 335.626095 118.148699 
C 337.063511 114.678471 337.80339 110.958847 337.80339 107.202699 
" clip-path="url(#p6be4bcb4ca)" style="fill: none; stroke: #b0b0b0; stroke-width: 0.8; stroke-linecap: square"/>
     </g>
     <g id="text_26">
      <!-- −20 -->
      <g transform="translate(335.626095 94.177011) scale(0.1 -0.1)">
       <use xlink:href="#DejaVuSans-2212"/>
       <use xlink:href="#DejaVuSans-32" transform="translate(83.789062 0)"/>
       <use xlink:href="#DejaVuSans-30" transform="translate(147.412109 0)"/>
      </g>
     </g>
    </g>
    <g id="ytick_10">
     <g id="line2d_27">
      <path d="M 350.94348 107.202699 
C 350.94348 101.72101 349.863707 96.292624 347.765956 91.228204 
C 345.668204 86.163784 342.59327 81.561821 338.717131 77.685681 
C 334.840992 73.809542 330.239028 70.734608 325.174608 68.636857 
C 320.110188 66.539106 314.681802 65.459332 309.200114 65.459332 
C 303.718425 65.459332 298.290039 66.539106 293.225619 68.636857 
C 288.161199 70.734608 283.559235 73.809542 279.683096 77.685681 
C 275.806957 81.561821 272.732023 86.163784 270.634272 91.228204 
C 268.53652 96.292624 267.456747 101.72101 267.456747 107.202699 
C 267.456747 112.684388 268.53652 118.112774 270.634272 123.177194 
C 272.732023 128.241614 275.806957 132.843577 279.683096 136.719716 
C 283.559235 140.595856 288.161199 143.670789 293.225619 145.768541 
C 298.290039 147.866292 303.718425 148.946065 309.200114 148.946065 
C 314.681802 148.946065 320.110188 147.866292 325.174608 145.768541 
C 330.239028 143.670789 334.840992 140.595856 338.717131 136.719716 
C 342.59327 132.843577 345.668204 128.241614 347.765956 123.177194 
C 349.863707 118.112774 350.94348 112.684388 350.94348 107.202699 
" clip-path="url(#p6be4bcb4ca)" style="fill: none; stroke: #b0b0b0; stroke-width: 0.8; stroke-linecap: square"/>
     </g>
     <g id="text_27">
      <!-- −15 -->
      <g transform="translate(347.765956 89.148517) scale(0.1 -0.1)">
       <use xlink:href="#DejaVuSans-2212"/>
       <use xlink:href="#DejaVuSans-31" transform="translate(83.789062 0)"/>
       <use xlink:href="#DejaVuSans-35" transform="translate(147.412109 0)"/>
      </g>
     </g>
    </g>
    <g id="ytick_11">
     <g id="line2d_28">
      <path d="M 364.08357 107.202699 
C 364.08357 99.995469 362.663903 92.858321 359.905816 86.199709 
C 357.147728 79.541098 353.104859 73.490515 348.008578 68.394235 
C 342.912297 63.297954 336.861715 59.255084 330.203103 56.496997 
C 323.544491 53.738909 316.407343 52.319242 309.200114 52.319242 
C 301.992884 52.319242 294.855736 53.738909 288.197124 56.496997 
C 281.538512 59.255084 275.48793 63.297954 270.391649 68.394235 
C 265.295369 73.490515 261.252499 79.541098 258.494412 86.199709 
C 255.736324 92.858321 254.316657 99.995469 254.316657 107.202699 
C 254.316657 114.409928 255.736324 121.547077 258.494412 128.205688 
C 261.252499 134.8643 265.295369 140.914882 270.391649 146.011163 
C 275.48793 151.107444 281.538512 155.150314 288.197124 157.908401 
C 294.855736 160.666488 301.992884 162.086155 309.200114 162.086155 
C 316.407343 162.086155 323.544491 160.666488 330.203103 157.908401 
C 336.861715 155.150314 342.912297 151.107444 348.008578 146.011163 
C 353.104859 140.914882 357.147728 134.8643 359.905816 128.205688 
C 362.663903 121.547077 364.08357 114.409928 364.08357 107.202699 
" clip-path="url(#p6be4bcb4ca)" style="fill: none; stroke: #b0b0b0; stroke-width: 0.8; stroke-linecap: square"/>
     </g>
     <g id="text_28">
      <!-- −10 -->
      <g transform="translate(359.905816 84.120022) scale(0.1 -0.1)">
       <use xlink:href="#DejaVuSans-2212"/>
       <use xlink:href="#DejaVuSans-31" transform="translate(83.789062 0)"/>
       <use xlink:href="#DejaVuSans-30" transform="translate(147.412109 0)"/>
      </g>
     </g>
    </g>
    <g id="ytick_12">
     <g id="line2d_29">
      <path d="M 377.22366 107.202699 
C 377.22366 98.269929 375.464099 89.424018 372.045676 81.171215 
C 368.627253 72.918411 363.616447 65.41921 357.300025 59.102788 
C 350.983602 52.786365 343.484401 47.77556 335.231598 44.357137 
C 326.978794 40.938713 318.132884 39.179152 309.200114 39.179152 
C 300.267343 39.179152 291.421433 40.938713 283.168629 44.357137 
C 274.915826 47.77556 267.416625 52.786365 261.100203 59.102788 
C 254.78378 65.41921 249.772975 72.918411 246.354551 81.171215 
C 242.936128 89.424018 241.176567 98.269929 241.176567 107.202699 
C 241.176567 116.135469 242.936128 124.981379 246.354551 133.234183 
C 249.772975 141.486987 254.78378 148.986187 261.100203 155.30261 
C 267.416625 161.619032 274.915826 166.629838 283.168629 170.048261 
C 291.421433 173.466684 300.267343 175.226245 309.200114 175.226245 
C 318.132884 175.226245 326.978794 173.466684 335.231598 170.048261 
C 343.484401 166.629838 350.983602 161.619032 357.300025 155.30261 
C 363.616447 148.986187 368.627253 141.486987 372.045676 133.234183 
C 375.464099 124.981379 377.22366 116.135469 377.22366 107.202699 
" clip-path="url(#p6be4bcb4ca)" style="fill: none; stroke: #b0b0b0; stroke-width: 0.8; stroke-linecap: square"/>
     </g>
     <g id="text_29">
      <!-- −5 -->
      <g transform="translate(372.045676 79.091527) scale(0.1 -0.1)">
       <use xlink:href="#DejaVuSans-2212"/>
       <use xlink:href="#DejaVuSans-35" transform="translate(83.789062 0)"/>
      </g>
     </g>
    </g>
    <g id="ytick_13">
     <g id="line2d_30">
      <path d="M 390.36375 107.202699 
C 390.36375 96.544388 388.264295 85.989715 384.185536 76.14272 
C 380.106777 66.295724 374.128035 57.347905 366.591471 49.811341 
C 359.054907 42.274777 350.107088 36.296036 340.260093 32.217276 
C 330.413097 28.138517 319.858425 26.039063 309.200114 26.039063 
C 298.541803 26.039063 287.98713 28.138517 278.140135 32.217276 
C 268.293139 36.296036 259.34532 42.274777 251.808756 49.811341 
C 244.272192 57.347905 238.29345 66.295724 234.214691 76.14272 
C 230.135932 85.989715 228.036477 96.544388 228.036477 107.202699 
C 228.036477 117.86101 230.135932 128.415682 234.214691 138.262678 
C 238.29345 148.109673 244.272192 157.057492 251.808756 164.594057 
C 259.34532 172.130621 268.293139 178.109362 278.140135 182.188121 
C 287.98713 186.26688 298.541803 188.366335 309.200114 188.366335 
C 319.858425 188.366335 330.413097 186.26688 340.260093 182.188121 
C 350.107088 178.109362 359.054907 172.130621 366.591471 164.594057 
C 374.128035 157.057492 380.106777 148.109673 384.185536 138.262678 
C 388.264295 128.415682 390.36375 117.86101 390.36375 107.202699 
" clip-path="url(#p6be4bcb4ca)" style="fill: none; stroke: #b0b0b0; stroke-width: 0.8; stroke-linecap: square"/>
     </g>
     <g id="text_30">
      <!-- 0 -->
      <g transform="translate(384.185536 74.063032) scale(0.1 -0.1)">
       <use xlink:href="#DejaVuSans-30"/>
      </g>
     </g>
    </g>
   </g>
   <g id="line2d_31">
    <path d="M 288.222999 132.202251 
L 292.267947 131.38434 
L 295.97788 130.104279 
L 299.202432 128.642797 
L 302.471005 125.690773 
L 304.710077 123.959742 
L 306.495637 122.540546 
L 307.986667 121.072457 
L 309.200114 117.826423 
L 309.986364 116.189582 
L 310.449735 114.289651 
L 310.71942 112.872829 
L 310.518581 110.825158 
L 310.999891 111.062335 
L 311.887969 111.8582 
L 313.565311 113.436847 
L 313.095204 111.844687 
L 312.114468 110.117054 
L 315.293425 112.315594 
L 324.456936 117.885641 
L 332.492034 120.650296 
L 339.268383 121.223763 
L 350.75108 122.326014 
L 367.014365 122.693981 
L 380.300828 119.739673 
L 387.967572 114.093959 
L 390.153859 107.202699 
L 387.566292 100.346547 
L 379.324202 94.83793 
L 365.22808 92.19005 
L 348.623316 92.853827 
L 337.653332 93.934745 
L 331.765081 94.174809 
L 323.615632 97.108844 
L 314.73377 102.559409 
L 311.980355 104.422457 
L 313.449934 102.13796 
L 313.557193 100.980144 
L 311.961762 102.419384 
L 311.015665 103.309237 
L 310.632814 103.266386 
L 310.753307 101.406102 
L 310.511014 99.768211 
L 310.005396 97.998283 
L 309.200114 96.337243 
L 307.962553 93.057313 
L 306.415344 91.409483 
L 304.558818 89.881146 
L 302.261396 88.138729 
L 298.934468 85.187951 
L 295.743475 83.895116 
L 291.838025 82.407067 
L 287.394334 81.215583 
" clip-path="url(#p6be4bcb4ca)" style="fill: none; stroke: #1f77b4; stroke-width: 1.5; stroke-linecap: square"/>
   </g>
   <g id="patch_5">
    <path d="M 390.36375 107.202699 
C 390.36375 96.544388 388.264295 85.989715 384.185536 76.14272 
C 380.106777 66.295724 374.128035 57.347905 366.591471 49.811341 
C 359.054907 42.274777 350.107088 36.296036 340.260093 32.217276 
C 330.413097 28.138517 319.858425 26.039063 309.200114 26.039063 
C 298.541803 26.039063 287.98713 28.138517 278.140135 32.217276 
C 268.293139 36.296036 259.34532 42.274777 251.808756 49.811341 
C 244.272192 57.347905 238.29345 66.295724 234.214691 76.14272 
C 230.135932 85.989715 228.036477 96.544388 228.036477 107.202699 
C 228.036477 117.86101 230.135932 128.415682 234.214691 138.262678 
C 238.29345 148.109673 244.272192 157.057492 251.808756 164.594057 
C 259.34532 172.130621 268.293139 178.109362 278.140135 182.188121 
C 287.98713 186.26688 298.541803 188.366335 309.200114 188.366335 
C 319.858425 188.366335 330.413097 186.26688 340.260093 182.188121 
C 350.107088 178.109362 359.054907 172.130621 366.591471 164.594057 
C 374.128035 157.057492 380.106777 148.109673 384.185536 138.262678 
C 388.264295 128.415682 390.36375 117.86101 390.36375 107.202699 
" style="fill: none; stroke: #000000; stroke-width: 0.8; stroke-linejoin: miter; stroke-linecap: square"/>
   </g>
   <g id="text_31">
    <!-- H-Plane (Phi = 90.0) -->
    <g transform="translate(248.190426 20.039062) scale(0.12 -0.12)">
     <defs>
      <path id="DejaVuSans-48" d="M 628 4666 
L 1259 4666 
L 1259 2753 
L 3553 2753 
L 3553 4666 
L 4184 4666 
L 4184 0 
L 3553 0 
L 3553 2222 
L 1259 2222 
L 1259 0 
L 628 0 
L 628 4666 
z
" transform="scale(0.015625)"/>
     </defs>
     <use xlink:href="#DejaVuSans-48"/>
     <use xlink:href="#DejaVuSans-2d" transform="translate(75.195312 0)"/>
     <use xlink:href="#DejaVuSans-50" transform="translate(111.279297 0)"/>
     <use xlink:href="#DejaVuSans-6c" transform="translate(171.582031 0)"/>
     <use xlink:href="#DejaVuSans-61" transform="translate(199.365234 0)"/>
     <use xlink:href="#DejaVuSans-6e" transform="translate(260.644531 0)"/>
     <use xlink:href="#DejaVuSans-65" transform="translate(324.023438 0)"/>
     <use xlink:href="#DejaVuSans-20" transform="translate(385.546875 0)"/>
     <use xlink:href="#DejaVuSans-28" transform="translate(417.333984 0)"/>
     <use xlink:href="#DejaVuSans-50" transform="translate(456.347656 0)"/>
     <use xlink:href="#DejaVuSans-68" transform="translate(516.650391 0)"/>
     <use xlink:href="#DejaVuSans-69" transform="translate(580.029297 0)"/>
     <use xlink:href="#DejaVuSans-20" transform="translate(607.8125 0)"/>
     <use xlink:href="#DejaVuSans-3d" transform="translate(639.599609 0)"/>
     <use xlink:href="#DejaVuSans-20" transform="translate(723.388672 0)"/>
     <use xlink:href="#DejaVuSans-39" transform="translate(755.175781 0)"/>
     <use xlink:href="#DejaVuSans-30" transform="translate(818.798828 0)"/>
     <use xlink:href="#DejaVuSans-2e" transform="translate(882.421875 0)"/>
     <use xlink:href="#DejaVuSans-30" transform="translate(914.208984 0)"/>
     <use xlink:href="#DejaVuSans-29" transform="translate(977.832031 0)"/>
    </g>
   </g>
  </g>
 </g>
 <defs>
  <clipPath id="p08a418ec4e">
   <path d="M 195.571023 107.202699 
C 195.571023 96.544388 193.471568 85.989715 189.392809 76.14272 
C 185.31405 66.295724 179.335308 57.347905 171.798744 49.811341 
C 164.26218 42.274777 155.314361 36.296036 145.467365 32.217276 
C 135.62037 28.138517 125.065697 26.039063 114.407386 26.039063 
C 103.749075 26.039063 93.194403 28.138517 83.347407 32.217276 
C 73.500412 36.296036 64.552593 42.274777 57.016029 49.811341 
C 49.479465 57.347905 43.500723 66.295724 39.421964 76.14272 
C 35.343205 85.989715 33.24375 96.544388 33.24375 107.202699 
C 33.24375 117.86101 35.343205 128.415682 39.421964 138.262678 
C 43.500723 148.109673 49.479465 157.057492 57.016029 164.594057 
C 64.552593 172.130621 73.500412 178.109362 83.347407 182.188121 
C 93.194403 186.26688 103.749075 188.366335 114.407386 188.366335 
C 125.065697 188.366335 135.62037 186.26688 145.467365 182.188121 
C 155.314361 178.109362 164.26218 172.130621 171.798744 164.594057 
C 179.335308 157.057492 185.31405 148.109673 189.392809 138.262678 
C 193.471568 128.415682 195.571023 117.86101 195.571023 107.202699 
M 114.407386 107.202699 
C 114.407386 107.202699 114.407386 107.202699 114.407386 107.202699 
C 114.407386 107.202699 114.407386 107.202699 114.407386 107.202699 
C 114.407386 107.202699 114.407386 107.202699 114.407386 107.202699 
C 114.407386 107.202699 114.407386 107.202699 114.407386 107.202699 
C 114.407386 107.202699 114.407386 107.202699 114.407386 107.202699 
C 114.407386 107.202699 114.407386 107.202699 114.407386 107.202699 
C 114.407386 107.202699 114.407386 107.202699 114.407386 107.202699 
C 114.407386 107.202699 114.407386 107.202699 114.407386 107.202699 
C 114.407386 107.202699 114.407386 107.202699 114.407386 107.202699 
C 114.407386 107.202699 114.407386 107.202699 114.407386 107.202699 
C 114.407386 107.202699 114.407386 107.202699 114.407386 107.202699 
C 114.407386 107.202699 114.407386 107.202699 114.407386 107.202699 
C 114.407386 107.202699 114.407386 107.202699 114.407386 107.202699 
C 114.407386 107.202699 114.407386 107.202699 114.407386 107.202699 
C 114.407386 107.202699 114.407386 107.202699 114.407386 107.202699 
C 114.407386 107.202699 114.407386 107.202699 114.407386 107.202699 
z
"/>
  </clipPath>
  <clipPath id="p6be4bcb4ca">
   <path d="M 390.36375 107.202699 
C 390.36375 96.544388 388.264295 85.989715 384.185536 76.14272 
C 380.106777 66.295724 374.128035 57.347905 366.591471 49.811341 
C 359.054907 42.274777 350.107088 36.296036 340.260093 32.217276 
C 330.413097 28.138517 319.858425 26.039062 309.200114 26.039062 
C 298.541803 26.039062 287.98713 28.138517 278.140135 32.217276 
C 268.293139 36.296036 259.34532 42.274777 251.808756 49.811341 
C 244.272192 57.347905 238.29345 66.295724 234.214691 76.14272 
C 230.135932 85.989715 228.036477 96.544388 228.036477 107.202699 
C 228.036477 117.86101 230.135932 128.415682 234.214691 138.262678 
C 238.29345 148.109673 244.272192 157.057492 251.808756 164.594057 
C 259.34532 172.130621 268.293139 178.109362 278.140135 182.188121 
C 287.98713 186.26688 298.541803 188.366335 309.200114 188.366335 
C 319.858425 188.366335 330.413097 186.26688 340.260093 182.188121 
C 350.107088 178.109362 359.054907 172.130621 366.591471 164.594057 
C 374.128035 157.057492 380.106777 148.109673 384.185536 138.262678 
C 388.264295 128.415682 390.36375 117.86101 390.36375 107.202699 
M 309.200114 107.202699 
C 309.200114 107.202699 309.200114 107.202699 309.200114 107.202699 
C 309.200114 107.202699 309.200114 107.202699 309.200114 107.202699 
C 309.200114 107.202699 309.200114 107.202699 309.200114 107.202699 
C 309.200114 107.202699 309.200114 107.202699 309.200114 107.202699 
C 309.200114 107.202699 309.200114 107.202699 309.200114 107.202699 
C 309.200114 107.202699 309.200114 107.202699 309.200114 107.202699 
C 309.200114 107.202699 309.200114 107.202699 309.200114 107.202699 
C 309.200114 107.202699 309.200114 107.202699 309.200114 107.202699 
C 309.200114 107.202699 309.200114 107.202699 309.200114 107.202699 
C 309.200114 107.202699 309.200114 107.202699 309.200114 107.202699 
C 309.200114 107.202699 309.200114 107.202699 309.200114 107.202699 
C 309.200114 107.202699 309.200114 107.202699 309.200114 107.202699 
C 309.200114 107.202699 309.200114 107.202699 309.200114 107.202699 
C 309.200114 107.202699 309.200114 107.202699 309.200114 107.202699 
C 309.200114 107.202699 309.200114 107.202699 309.200114 107.202699 
C 309.200114 107.202699 309.200114 107.202699 309.200114 107.202699 
z
"/>
  </clipPath>
 </defs>
</svg>
