<?xml version="1.0" encoding="utf-8" standalone="no"?>
<!DOCTYPE svg PUBLIC "-//W3C//DTD SVG 1.1//EN"
  "http://www.w3.org/Graphics/SVG/1.1/DTD/svg11.dtd">
<svg xmlns:xlink="http://www.w3.org/1999/xlink" width="488.904687pt" height="614.274375pt" viewBox="0 0 488.904687 614.274375" xmlns="http://www.w3.org/2000/svg" version="1.1">
 <metadata>
  <rdf:RDF xmlns:dc="http://purl.org/dc/elements/1.1/" xmlns:cc="http://creativecommons.org/ns#" xmlns:rdf="http://www.w3.org/1999/02/22-rdf-syntax-ns#">
   <cc:Work>
    <dc:type rdf:resource="http://purl.org/dc/dcmitype/StillImage"/>
    <dc:date>2024-12-12T08:32:23.942011</dc:date>
    <dc:format>image/svg+xml</dc:format>
    <dc:creator>
     <cc:Agent>
      <dc:title>Matplotlib v3.8.3, https://matplotlib.org/</dc:title>
     </cc:Agent>
    </dc:creator>
   </cc:Work>
  </rdf:RDF>
 </metadata>
 <defs>
  <style type="text/css">*{stroke-linejoin: round; stroke-linecap: butt}</style>
 </defs>
 <g id="figure_1">
  <g id="patch_1">
   <path d="M 0 614.274375 
L 488.904687 614.274375 
L 488.904687 0 
L 0 0 
z
" style="fill: #ffffff"/>
  </g>
  <g id="axes_1">
   <g id="patch_2">
    <path d="M 35.304688 274.318125 
L 481.704687 274.318125 
L 481.704687 22.318125 
L 35.304688 22.318125 
z
" style="fill: #ffffff"/>
   </g>
   <g id="matplotlib.axis_1">
    <g id="xtick_1">
     <g id="line2d_1">
      <path d="M 102.420771 274.318125 
L 102.420771 22.318125 
" clip-path="url(#p0372360fb2)" style="fill: none; stroke: #b0b0b0; stroke-width: 0.8; stroke-linecap: square"/>
     </g>
     <g id="line2d_2">
      <defs>
       <path id="ma0696c6c6e" d="M 0 0 
L 0 3.5 
" style="stroke: #000000; stroke-width: 0.8"/>
      </defs>
      <g>
       <use xlink:href="#ma0696c6c6e" x="102.420771" y="274.318125" style="stroke: #000000; stroke-width: 0.8"/>
      </g>
     </g>
     <g id="text_1">
      <!-- −100 -->
      <g transform="translate(88.687178 288.916562) scale(0.1 -0.1)">
       <defs>
        <path id="DejaVuSans-2212" d="M 678 2272 
L 4684 2272 
L 4684 1741 
L 678 1741 
L 678 2272 
z
" transform="scale(0.015625)"/>
        <path id="DejaVuSans-31" d="M 794 531 
L 1825 531 
L 1825 4091 
L 703 3866 
L 703 4441 
L 1819 4666 
L 2450 4666 
L 2450 531 
L 3481 531 
L 3481 0 
L 794 0 
L 794 531 
z
" transform="scale(0.015625)"/>
        <path id="DejaVuSans-30" d="M 2034 4250 
Q 1547 4250 1301 3770 
Q 1056 3291 1056 2328 
Q 1056 1369 1301 889 
Q 1547 409 2034 409 
Q 2525 409 2770 889 
Q 3016 1369 3016 2328 
Q 3016 3291 2770 3770 
Q 2525 4250 2034 4250 
z
M 2034 4750 
Q 2819 4750 3233 4129 
Q 3647 3509 3647 2328 
Q 3647 1150 3233 529 
Q 2819 -91 2034 -91 
Q 1250 -91 836 529 
Q 422 1150 422 2328 
Q 422 3509 836 4129 
Q 1250 4750 2034 4750 
z
" transform="scale(0.015625)"/>
       </defs>
       <use xlink:href="#DejaVuSans-2212"/>
       <use xlink:href="#DejaVuSans-31" x="83.789062"/>
       <use xlink:href="#DejaVuSans-30" x="147.412109"/>
       <use xlink:href="#DejaVuSans-30" x="211.035156"/>
      </g>
     </g>
    </g>
    <g id="xtick_2">
     <g id="line2d_3">
      <path d="M 180.462729 274.318125 
L 180.462729 22.318125 
" clip-path="url(#p0372360fb2)" style="fill: none; stroke: #b0b0b0; stroke-width: 0.8; stroke-linecap: square"/>
     </g>
     <g id="line2d_4">
      <g>
       <use xlink:href="#ma0696c6c6e" x="180.462729" y="274.318125" style="stroke: #000000; stroke-width: 0.8"/>
      </g>
     </g>
     <g id="text_2">
      <!-- −50 -->
      <g transform="translate(169.910386 288.916562) scale(0.1 -0.1)">
       <defs>
        <path id="DejaVuSans-35" d="M 691 4666 
L 3169 4666 
L 3169 4134 
L 1269 4134 
L 1269 2991 
Q 1406 3038 1543 3061 
Q 1681 3084 1819 3084 
Q 2600 3084 3056 2656 
Q 3513 2228 3513 1497 
Q 3513 744 3044 326 
Q 2575 -91 1722 -91 
Q 1428 -91 1123 -41 
Q 819 9 494 109 
L 494 744 
Q 775 591 1075 516 
Q 1375 441 1709 441 
Q 2250 441 2565 725 
Q 2881 1009 2881 1497 
Q 2881 1984 2565 2268 
Q 2250 2553 1709 2553 
Q 1456 2553 1204 2497 
Q 953 2441 691 2322 
L 691 4666 
z
" transform="scale(0.015625)"/>
       </defs>
       <use xlink:href="#DejaVuSans-2212"/>
       <use xlink:href="#DejaVuSans-35" x="83.789062"/>
       <use xlink:href="#DejaVuSans-30" x="147.412109"/>
      </g>
     </g>
    </g>
    <g id="xtick_3">
     <g id="line2d_5">
      <path d="M 258.504687 274.318125 
L 258.504687 22.318125 
" clip-path="url(#p0372360fb2)" style="fill: none; stroke: #b0b0b0; stroke-width: 0.8; stroke-linecap: square"/>
     </g>
     <g id="line2d_6">
      <g>
       <use xlink:href="#ma0696c6c6e" x="258.504687" y="274.318125" style="stroke: #000000; stroke-width: 0.8"/>
      </g>
     </g>
     <g id="text_3">
      <!-- 0 -->
      <g transform="translate(255.323437 288.916562) scale(0.1 -0.1)">
       <use xlink:href="#DejaVuSans-30"/>
      </g>
     </g>
    </g>
    <g id="xtick_4">
     <g id="line2d_7">
      <path d="M 336.546646 274.318125 
L 336.546646 22.318125 
" clip-path="url(#p0372360fb2)" style="fill: none; stroke: #b0b0b0; stroke-width: 0.8; stroke-linecap: square"/>
     </g>
     <g id="line2d_8">
      <g>
       <use xlink:href="#ma0696c6c6e" x="336.546646" y="274.318125" style="stroke: #000000; stroke-width: 0.8"/>
      </g>
     </g>
     <g id="text_4">
      <!-- 50 -->
      <g transform="translate(330.184146 288.916562) scale(0.1 -0.1)">
       <use xlink:href="#DejaVuSans-35"/>
       <use xlink:href="#DejaVuSans-30" x="63.623047"/>
      </g>
     </g>
    </g>
    <g id="xtick_5">
     <g id="line2d_9">
      <path d="M 414.588604 274.318125 
L 414.588604 22.318125 
" clip-path="url(#p0372360fb2)" style="fill: none; stroke: #b0b0b0; stroke-width: 0.8; stroke-linecap: square"/>
     </g>
     <g id="line2d_10">
      <g>
       <use xlink:href="#ma0696c6c6e" x="414.588604" y="274.318125" style="stroke: #000000; stroke-width: 0.8"/>
      </g>
     </g>
     <g id="text_5">
      <!-- 100 -->
      <g transform="translate(405.044854 288.916562) scale(0.1 -0.1)">
       <use xlink:href="#DejaVuSans-31"/>
       <use xlink:href="#DejaVuSans-30" x="63.623047"/>
       <use xlink:href="#DejaVuSans-30" x="127.246094"/>
      </g>
     </g>
    </g>
    <g id="text_6">
     <!-- Theta -->
     <g transform="translate(244.18125 302.594687) scale(0.1 -0.1)">
      <defs>
       <path id="DejaVuSans-54" d="M -19 4666 
L 3928 4666 
L 3928 4134 
L 2272 4134 
L 2272 0 
L 1638 0 
L 1638 4134 
L -19 4134 
L -19 4666 
z
" transform="scale(0.015625)"/>
       <path id="DejaVuSans-68" d="M 3513 2113 
L 3513 0 
L 2938 0 
L 2938 2094 
Q 2938 2591 2744 2837 
Q 2550 3084 2163 3084 
Q 1697 3084 1428 2787 
Q 1159 2491 1159 1978 
L 1159 0 
L 581 0 
L 581 4863 
L 1159 4863 
L 1159 2956 
Q 1366 3272 1645 3428 
Q 1925 3584 2291 3584 
Q 2894 3584 3203 3211 
Q 3513 2838 3513 2113 
z
" transform="scale(0.015625)"/>
       <path id="DejaVuSans-65" d="M 3597 1894 
L 3597 1613 
L 953 1613 
Q 991 1019 1311 708 
Q 1631 397 2203 397 
Q 2534 397 2845 478 
Q 3156 559 3463 722 
L 3463 178 
Q 3153 47 2828 -22 
Q 2503 -91 2169 -91 
Q 1331 -91 842 396 
Q 353 884 353 1716 
Q 353 2575 817 3079 
Q 1281 3584 2069 3584 
Q 2775 3584 3186 3129 
Q 3597 2675 3597 1894 
z
M 3022 2063 
Q 3016 2534 2758 2815 
Q 2500 3097 2075 3097 
Q 1594 3097 1305 2825 
Q 1016 2553 972 2059 
L 3022 2063 
z
" transform="scale(0.015625)"/>
       <path id="DejaVuSans-74" d="M 1172 4494 
L 1172 3500 
L 2356 3500 
L 2356 3053 
L 1172 3053 
L 1172 1153 
Q 1172 725 1289 603 
Q 1406 481 1766 481 
L 2356 481 
L 2356 0 
L 1766 0 
Q 1100 0 847 248 
Q 594 497 594 1153 
L 594 3053 
L 172 3053 
L 172 3500 
L 594 3500 
L 594 4494 
L 1172 4494 
z
" transform="scale(0.015625)"/>
       <path id="DejaVuSans-61" d="M 2194 1759 
Q 1497 1759 1228 1600 
Q 959 1441 959 1056 
Q 959 750 1161 570 
Q 1363 391 1709 391 
Q 2188 391 2477 730 
Q 2766 1069 2766 1631 
L 2766 1759 
L 2194 1759 
z
M 3341 1997 
L 3341 0 
L 2766 0 
L 2766 531 
Q 2569 213 2275 61 
Q 1981 -91 1556 -91 
Q 1019 -91 701 211 
Q 384 513 384 1019 
Q 384 1609 779 1909 
Q 1175 2209 1959 2209 
L 2766 2209 
L 2766 2266 
Q 2766 2663 2505 2880 
Q 2244 3097 1772 3097 
Q 1472 3097 1187 3025 
Q 903 2953 641 2809 
L 641 3341 
Q 956 3463 1253 3523 
Q 1550 3584 1831 3584 
Q 2591 3584 2966 3190 
Q 3341 2797 3341 1997 
z
" transform="scale(0.015625)"/>
      </defs>
      <use xlink:href="#DejaVuSans-54"/>
      <use xlink:href="#DejaVuSans-68" x="61.083984"/>
      <use xlink:href="#DejaVuSans-65" x="124.462891"/>
      <use xlink:href="#DejaVuSans-74" x="185.986328"/>
      <use xlink:href="#DejaVuSans-61" x="225.195312"/>
     </g>
    </g>
   </g>
   <g id="matplotlib.axis_2">
    <g id="ytick_1">
     <g id="line2d_11">
      <path d="M 35.304688 260.831989 
L 481.704687 260.831989 
" clip-path="url(#p0372360fb2)" style="fill: none; stroke: #b0b0b0; stroke-width: 0.8; stroke-linecap: square"/>
     </g>
     <g id="line2d_12">
      <defs>
       <path id="m0ff459402d" d="M 0 0 
L -3.5 0 
" style="stroke: #000000; stroke-width: 0.8"/>
      </defs>
      <g>
       <use xlink:href="#m0ff459402d" x="35.304688" y="260.831989" style="stroke: #000000; stroke-width: 0.8"/>
      </g>
     </g>
     <g id="text_7">
      <!-- −35 -->
      <g transform="translate(7.2 264.631208) scale(0.1 -0.1)">
       <defs>
        <path id="DejaVuSans-33" d="M 2597 2516 
Q 3050 2419 3304 2112 
Q 3559 1806 3559 1356 
Q 3559 666 3084 287 
Q 2609 -91 1734 -91 
Q 1441 -91 1130 -33 
Q 819 25 488 141 
L 488 750 
Q 750 597 1062 519 
Q 1375 441 1716 441 
Q 2309 441 2620 675 
Q 2931 909 2931 1356 
Q 2931 1769 2642 2001 
Q 2353 2234 1838 2234 
L 1294 2234 
L 1294 2753 
L 1863 2753 
Q 2328 2753 2575 2939 
Q 2822 3125 2822 3475 
Q 2822 3834 2567 4026 
Q 2313 4219 1838 4219 
Q 1578 4219 1281 4162 
Q 984 4106 628 3988 
L 628 4550 
Q 988 4650 1302 4700 
Q 1616 4750 1894 4750 
Q 2613 4750 3031 4423 
Q 3450 4097 3450 3541 
Q 3450 3153 3228 2886 
Q 3006 2619 2597 2516 
z
" transform="scale(0.015625)"/>
       </defs>
       <use xlink:href="#DejaVuSans-2212"/>
       <use xlink:href="#DejaVuSans-33" x="83.789062"/>
       <use xlink:href="#DejaVuSans-35" x="147.412109"/>
      </g>
     </g>
    </g>
    <g id="ytick_2">
     <g id="line2d_13">
      <path d="M 35.304688 228.394944 
L 481.704687 228.394944 
" clip-path="url(#p0372360fb2)" style="fill: none; stroke: #b0b0b0; stroke-width: 0.8; stroke-linecap: square"/>
     </g>
     <g id="line2d_14">
      <g>
       <use xlink:href="#m0ff459402d" x="35.304688" y="228.394944" style="stroke: #000000; stroke-width: 0.8"/>
      </g>
     </g>
     <g id="text_8">
      <!-- −30 -->
      <g transform="translate(7.2 232.194162) scale(0.1 -0.1)">
       <use xlink:href="#DejaVuSans-2212"/>
       <use xlink:href="#DejaVuSans-33" x="83.789062"/>
       <use xlink:href="#DejaVuSans-30" x="147.412109"/>
      </g>
     </g>
    </g>
    <g id="ytick_3">
     <g id="line2d_15">
      <path d="M 35.304688 195.957898 
L 481.704687 195.957898 
" clip-path="url(#p0372360fb2)" style="fill: none; stroke: #b0b0b0; stroke-width: 0.8; stroke-linecap: square"/>
     </g>
     <g id="line2d_16">
      <g>
       <use xlink:href="#m0ff459402d" x="35.304688" y="195.957898" style="stroke: #000000; stroke-width: 0.8"/>
      </g>
     </g>
     <g id="text_9">
      <!-- −25 -->
      <g transform="translate(7.2 199.757117) scale(0.1 -0.1)">
       <defs>
        <path id="DejaVuSans-32" d="M 1228 531 
L 3431 531 
L 3431 0 
L 469 0 
L 469 531 
Q 828 903 1448 1529 
Q 2069 2156 2228 2338 
Q 2531 2678 2651 2914 
Q 2772 3150 2772 3378 
Q 2772 3750 2511 3984 
Q 2250 4219 1831 4219 
Q 1534 4219 1204 4116 
Q 875 4013 500 3803 
L 500 4441 
Q 881 4594 1212 4672 
Q 1544 4750 1819 4750 
Q 2544 4750 2975 4387 
Q 3406 4025 3406 3419 
Q 3406 3131 3298 2873 
Q 3191 2616 2906 2266 
Q 2828 2175 2409 1742 
Q 1991 1309 1228 531 
z
" transform="scale(0.015625)"/>
       </defs>
       <use xlink:href="#DejaVuSans-2212"/>
       <use xlink:href="#DejaVuSans-32" x="83.789062"/>
       <use xlink:href="#DejaVuSans-35" x="147.412109"/>
      </g>
     </g>
    </g>
    <g id="ytick_4">
     <g id="line2d_17">
      <path d="M 35.304688 163.520853 
L 481.704687 163.520853 
" clip-path="url(#p0372360fb2)" style="fill: none; stroke: #b0b0b0; stroke-width: 0.8; stroke-linecap: square"/>
     </g>
     <g id="line2d_18">
      <g>
       <use xlink:href="#m0ff459402d" x="35.304688" y="163.520853" style="stroke: #000000; stroke-width: 0.8"/>
      </g>
     </g>
     <g id="text_10">
      <!-- −20 -->
      <g transform="translate(7.2 167.320071) scale(0.1 -0.1)">
       <use xlink:href="#DejaVuSans-2212"/>
       <use xlink:href="#DejaVuSans-32" x="83.789062"/>
       <use xlink:href="#DejaVuSans-30" x="147.412109"/>
      </g>
     </g>
    </g>
    <g id="ytick_5">
     <g id="line2d_19">
      <path d="M 35.304688 131.083807 
L 481.704687 131.083807 
" clip-path="url(#p0372360fb2)" style="fill: none; stroke: #b0b0b0; stroke-width: 0.8; stroke-linecap: square"/>
     </g>
     <g id="line2d_20">
      <g>
       <use xlink:href="#m0ff459402d" x="35.304688" y="131.083807" style="stroke: #000000; stroke-width: 0.8"/>
      </g>
     </g>
     <g id="text_11">
      <!-- −15 -->
      <g transform="translate(7.2 134.883026) scale(0.1 -0.1)">
       <use xlink:href="#DejaVuSans-2212"/>
       <use xlink:href="#DejaVuSans-31" x="83.789062"/>
       <use xlink:href="#DejaVuSans-35" x="147.412109"/>
      </g>
     </g>
    </g>
    <g id="ytick_6">
     <g id="line2d_21">
      <path d="M 35.304688 98.646762 
L 481.704687 98.646762 
" clip-path="url(#p0372360fb2)" style="fill: none; stroke: #b0b0b0; stroke-width: 0.8; stroke-linecap: square"/>
     </g>
     <g id="line2d_22">
      <g>
       <use xlink:href="#m0ff459402d" x="35.304688" y="98.646762" style="stroke: #000000; stroke-width: 0.8"/>
      </g>
     </g>
     <g id="text_12">
      <!-- −10 -->
      <g transform="translate(7.2 102.44598) scale(0.1 -0.1)">
       <use xlink:href="#DejaVuSans-2212"/>
       <use xlink:href="#DejaVuSans-31" x="83.789062"/>
       <use xlink:href="#DejaVuSans-30" x="147.412109"/>
      </g>
     </g>
    </g>
    <g id="ytick_7">
     <g id="line2d_23">
      <path d="M 35.304688 66.209716 
L 481.704687 66.209716 
" clip-path="url(#p0372360fb2)" style="fill: none; stroke: #b0b0b0; stroke-width: 0.8; stroke-linecap: square"/>
     </g>
     <g id="line2d_24">
      <g>
       <use xlink:href="#m0ff459402d" x="35.304688" y="66.209716" style="stroke: #000000; stroke-width: 0.8"/>
      </g>
     </g>
     <g id="text_13">
      <!-- −5 -->
      <g transform="translate(13.5625 70.008935) scale(0.1 -0.1)">
       <use xlink:href="#DejaVuSans-2212"/>
       <use xlink:href="#DejaVuSans-35" x="83.789062"/>
      </g>
     </g>
    </g>
    <g id="ytick_8">
     <g id="line2d_25">
      <path d="M 35.304688 33.77267 
L 481.704687 33.77267 
" clip-path="url(#p0372360fb2)" style="fill: none; stroke: #b0b0b0; stroke-width: 0.8; stroke-linecap: square"/>
     </g>
     <g id="line2d_26">
      <g>
       <use xlink:href="#m0ff459402d" x="35.304688" y="33.77267" style="stroke: #000000; stroke-width: 0.8"/>
      </g>
     </g>
     <g id="text_14">
      <!-- 0 -->
      <g transform="translate(21.942187 37.571889) scale(0.1 -0.1)">
       <use xlink:href="#DejaVuSans-30"/>
      </g>
     </g>
    </g>
   </g>
   <g id="line2d_27">
    <path d="M 55.595597 158.471915 
L 63.399792 162.984488 
L 71.203988 163.99772 
L 79.008184 170.046839 
L 86.81238 181.772058 
L 94.616576 188.810254 
L 102.420771 194.783953 
L 110.224967 202.124242 
L 118.029163 211.884876 
L 125.833359 210.409143 
L 133.637555 210.788874 
L 141.44175 217.577492 
L 149.245946 229.341204 
L 157.050142 226.211149 
L 164.854338 217.901674 
L 172.658534 215.901266 
L 180.462729 217.910189 
L 188.266925 224.697733 
L 196.071121 221.24134 
L 203.875317 185.25679 
L 211.679513 164.420384 
L 219.483708 156.81493 
L 227.287904 125.50782 
L 235.0921 85.030909 
L 242.896296 55.129819 
L 250.700492 39.565174 
L 258.504687 33.77267 
L 266.308883 40.876462 
L 274.113079 57.372282 
L 281.917275 89.211975 
L 289.721471 131.220819 
L 297.525667 160.514612 
L 305.329862 166.961954 
L 313.134058 186.835132 
L 320.938254 224.362399 
L 328.74245 225.064331 
L 336.546646 218.826764 
L 344.350841 217.167245 
L 352.155037 218.534009 
L 359.959233 226.253462 
L 367.763429 228.024415 
L 375.567625 216.500834 
L 383.37182 210.742012 
L 391.176016 210.23865 
L 398.980212 211.11851 
L 406.784408 200.783225 
L 414.588604 193.599662 
L 422.392799 187.959281 
L 430.196995 179.887107 
L 438.001191 168.187235 
L 445.805387 163.129743 
L 453.609583 162.795835 
L 461.413778 155.660362 
" clip-path="url(#p0372360fb2)" style="fill: none; stroke: #1f77b4; stroke-opacity: 0.7; stroke-width: 1.5; stroke-linecap: square"/>
   </g>
   <g id="line2d_28">
    <path d="M 55.595597 246.365136 
L 63.399792 169.213701 
L 71.203988 204.38799 
L 79.008184 167.682576 
L 86.81238 226.676423 
L 94.616576 183.762191 
L 102.420771 244.951118 
L 110.224967 199.32126 
L 118.029163 257.124807 
L 125.833359 204.565381 
L 133.637555 248.501442 
L 141.44175 204.651769 
L 149.245946 262.86358 
L 157.050142 205.012129 
L 164.854338 235.067198 
L 172.658534 217.321896 
L 180.462729 209.488816 
L 188.266925 205.832009 
L 196.071121 199.881725 
L 203.875317 191.411226 
L 211.679513 152.919031 
L 219.483708 209.421965 
L 227.287904 134.382323 
L 235.0921 164.298137 
L 242.896296 63.544946 
L 250.700492 52.069957 
L 258.504687 33.77267 
L 266.308883 52.649016 
L 274.113079 62.574253 
L 281.917275 133.244497 
L 289.721471 160.419399 
L 297.525667 197.034627 
L 305.329862 213.723687 
L 313.134058 184.411505 
L 320.938254 179.487699 
L 328.74245 180.372468 
L 336.546646 193.961602 
L 344.350841 216.841146 
L 352.155037 247.651172 
L 359.959233 215.188956 
L 367.763429 243.498891 
L 375.567625 210.732084 
L 383.37182 243.096592 
L 391.176016 207.79342 
L 398.980212 239.925553 
L 406.784408 206.507749 
L 414.588604 229.758981 
L 422.392799 188.6528 
L 430.196995 210.782412 
L 438.001191 171.162896 
L 445.805387 198.430718 
L 453.609583 174.398671 
L 461.413778 200.098007 
" clip-path="url(#p0372360fb2)" style="fill: none; stroke: #ff7f0e; stroke-opacity: 0.7; stroke-width: 1.5; stroke-linecap: square"/>
   </g>
   <g id="line2d_29">
    <path d="M 55.595597 158.033682 
L 63.399792 161.4354 
L 71.203988 164.013703 
L 79.008184 168.192201 
L 86.81238 182.519542 
L 94.616576 186.802161 
L 102.420771 195.421752 
L 110.224967 199.914561 
L 118.029163 213.025849 
L 125.833359 208.217571 
L 133.637555 211.682523 
L 141.44175 214.886144 
L 149.245946 230.638484 
L 157.050142 222.476328 
L 164.854338 217.74119 
L 172.658534 216.900957 
L 180.462729 216.234292 
L 188.266925 225.053379 
L 196.071121 212.000123 
L 203.875317 189.353587 
L 211.679513 165.549641 
L 219.483708 146.953198 
L 227.287904 127.098034 
L 235.0921 87.516253 
L 242.896296 53.717513 
L 250.700492 39.093226 
L 258.504687 33.77267 
L 266.308883 41.171032 
L 274.113079 58.868461 
L 281.917275 93.160252 
L 289.721471 124.705137 
L 297.525667 164.242155 
L 305.329862 169.973378 
L 313.134058 187.483198 
L 320.938254 218.318493 
L 328.74245 225.223609 
L 336.546646 218.842297 
L 344.350841 215.389573 
L 352.155037 217.666769 
L 359.959233 223.458947 
L 367.763429 228.230413 
L 375.567625 214.731124 
L 383.37182 211.253453 
L 391.176016 207.942962 
L 398.980212 211.685858 
L 406.784408 198.873226 
L 414.588604 193.651955 
L 422.392799 186.241393 
L 430.196995 180.254251 
L 438.001191 166.17685 
L 445.805387 164.303501 
L 453.609583 160.544559 
L 461.413778 155.722392 
" clip-path="url(#p0372360fb2)" style="fill: none; stroke: #2ca02c; stroke-opacity: 0.7; stroke-width: 1.5; stroke-linecap: square"/>
   </g>
   <g id="line2d_30">
    <path d="M 55.595597 157.909451 
L 63.399792 162.966286 
L 71.203988 163.632949 
L 79.008184 170.035183 
L 86.81238 181.482952 
L 94.616576 188.699177 
L 102.420771 194.605361 
L 110.224967 201.937193 
L 118.029163 211.620017 
L 125.833359 210.217531 
L 133.637555 210.668594 
L 141.44175 217.29899 
L 149.245946 229.2938 
L 157.050142 225.870717 
L 164.854338 217.704756 
L 172.658534 215.802999 
L 180.462729 217.721503 
L 188.266925 224.675811 
L 196.071121 220.394858 
L 203.875317 185.183226 
L 211.679513 164.614842 
L 219.483708 157.202625 
L 227.287904 125.391273 
L 235.0921 84.866653 
L 242.896296 55.012971 
L 250.700492 39.395093 
L 258.504687 33.77267 
L 266.308883 40.836912 
L 274.113079 57.180624 
L 281.917275 89.122432 
L 289.721471 130.709409 
L 297.525667 160.649384 
L 305.329862 167.148291 
L 313.134058 186.79305 
L 320.938254 223.641333 
L 328.74245 224.827699 
L 336.546646 218.9593 
L 344.350841 216.638837 
L 352.155037 218.372827 
L 359.959233 226.184626 
L 367.763429 227.871639 
L 375.567625 216.119076 
L 383.37182 210.671424 
L 391.176016 209.961436 
L 398.980212 211.037941 
L 406.784408 200.490311 
L 414.588604 193.634341 
L 422.392799 187.684753 
L 430.196995 179.885538 
L 438.001191 167.971032 
L 445.805387 163.072636 
L 453.609583 162.561486 
L 461.413778 155.498645 
" clip-path="url(#p0372360fb2)" style="fill: none; stroke: #d62728; stroke-opacity: 0.7; stroke-width: 1.5; stroke-linecap: square"/>
   </g>
   <g id="line2d_31">
    <path d="M 55.595597 163.885863 
L 63.399792 162.079262 
L 71.203988 164.684237 
L 79.008184 169.085662 
L 86.81238 183.015203 
L 94.616576 188.408763 
L 102.420771 196.344166 
L 110.224967 199.725371 
L 118.029163 214.829103 
L 125.833359 205.397864 
L 133.637555 216.249363 
L 141.44175 212.81779 
L 149.245946 233.183243 
L 157.050142 211.021711 
L 164.854338 217.675857 
L 172.658534 220.134117 
L 180.462729 193.06302 
L 188.266925 211.140872 
L 196.071121 196.221846 
L 203.875317 174.281099 
L 211.679513 210.08274 
L 219.483708 130.119316 
L 227.287904 118.786206 
L 235.0921 93.6906 
L 242.896296 55.423833 
L 250.700492 41.268552 
L 258.504687 33.77267 
L 266.308883 39.248199 
L 274.113079 52.163834 
L 281.917275 102.420801 
L 289.721471 128.947836 
L 297.525667 163.092683 
L 305.329862 165.134284 
L 313.134058 176.641125 
L 320.938254 215.881786 
L 328.74245 221.364619 
L 336.546646 218.285951 
L 344.350841 212.372421 
L 352.155037 223.563386 
L 359.959233 217.316003 
L 367.763429 236.780148 
L 375.567625 211.476073 
L 383.37182 216.121597 
L 391.176016 207.185666 
L 398.980212 216.456891 
L 406.784408 195.278553 
L 414.588604 199.626106 
L 422.392799 182.786721 
L 430.196995 185.603316 
L 438.001191 161.185927 
L 445.805387 173.604588 
L 453.609583 151.627182 
L 461.413778 170.741742 
" clip-path="url(#p0372360fb2)" style="fill: none; stroke: #9467bd; stroke-opacity: 0.7; stroke-width: 1.5; stroke-linecap: square"/>
   </g>
   <g id="line2d_32">
    <path d="M 55.595597 163.648744 
L 63.399792 161.177325 
L 71.203988 168.997849 
L 79.008184 167.383638 
L 86.81238 187.687665 
L 94.616576 186.866619 
L 102.420771 199.608793 
L 110.224967 199.528753 
L 118.029163 215.076215 
L 125.833359 209.126793 
L 133.637555 214.323195 
L 141.44175 216.140857 
L 149.245946 234.420709 
L 157.050142 223.502579 
L 164.854338 221.215787 
L 172.658534 215.220102 
L 180.462729 220.142664 
L 188.266925 221.900608 
L 196.071121 235.570063 
L 203.875317 175.886449 
L 211.679513 153.145442 
L 219.483708 182.16269 
L 227.287904 117.403305 
L 235.0921 87.814747 
L 242.896296 54.080923 
L 250.700492 39.260847 
L 258.504687 33.77267 
L 266.308883 43.016373 
L 274.113079 58.664823 
L 281.917275 91.559666 
L 289.721471 133.106712 
L 297.525667 149.511626 
L 305.329862 160.461498 
L 313.134058 205.379752 
L 320.938254 226.074438 
L 328.74245 224.004582 
L 336.546646 214.539407 
L 344.350841 218.718766 
L 352.155037 221.050046 
L 359.959233 220.712181 
L 367.763429 232.904761 
L 375.567625 214.510494 
L 383.37182 215.240778 
L 391.176016 208.771535 
L 398.980212 216.598195 
L 406.784408 199.018775 
L 414.588604 198.300267 
L 422.392799 186.838887 
L 430.196995 182.662123 
L 438.001191 168.749176 
L 445.805387 165.396255 
L 453.609583 163.074095 
L 461.413778 158.041352 
" clip-path="url(#p0372360fb2)" style="fill: none; stroke: #8c564b; stroke-opacity: 0.7; stroke-width: 1.5; stroke-linecap: square"/>
   </g>
   <g id="line2d_33">
    <path d="M 55.595597 150.451936 
L 63.399792 160.236757 
L 71.203988 158.595663 
L 79.008184 170.679423 
L 86.81238 178.174218 
L 94.616576 186.578753 
L 102.420771 190.66022 
L 110.224967 206.924251 
L 118.029163 204.470505 
L 125.833359 215.488777 
L 133.637555 200.326059 
L 141.44175 224.902987 
L 149.245946 216.855985 
L 157.050142 225.557028 
L 164.854338 212.151872 
L 172.658534 213.693552 
L 180.462729 213.331486 
L 188.266925 240.127844 
L 196.071121 212.077077 
L 203.875317 178.305359 
L 211.679513 202.140923 
L 219.483708 156.365289 
L 227.287904 130.939992 
L 235.0921 75.276875 
L 242.896296 47.523419 
L 250.700492 35.516841 
L 258.504687 33.77267 
L 266.308883 41.949201 
L 274.113079 57.51411 
L 281.917275 94.49462 
L 289.721471 127.016823 
L 297.525667 155.538217 
L 305.329862 157.8062 
L 313.134058 184.965494 
L 320.938254 211.241625 
L 328.74245 193.701916 
L 336.546646 213.723903 
L 344.350841 221.52197 
L 352.155037 215.27388 
L 359.959233 228.778353 
L 367.763429 223.812053 
L 375.567625 218.712548 
L 383.37182 208.455561 
L 391.176016 208.453345 
L 398.980212 214.231325 
L 406.784408 201.508416 
L 414.588604 187.290398 
L 422.392799 195.188159 
L 430.196995 173.420151 
L 438.001191 166.894964 
L 445.805387 164.924292 
L 453.609583 171.718656 
L 461.413778 152.878305 
" clip-path="url(#p0372360fb2)" style="fill: none; stroke: #e377c2; stroke-opacity: 0.7; stroke-width: 1.5; stroke-linecap: square"/>
   </g>
   <g id="patch_3">
    <path d="M 35.304688 274.318125 
L 35.304688 22.318125 
" style="fill: none; stroke: #000000; stroke-width: 0.8; stroke-linejoin: miter; stroke-linecap: square"/>
   </g>
   <g id="patch_4">
    <path d="M 481.704687 274.318125 
L 481.704687 22.318125 
" style="fill: none; stroke: #000000; stroke-width: 0.8; stroke-linejoin: miter; stroke-linecap: square"/>
   </g>
   <g id="patch_5">
    <path d="M 35.304688 274.318125 
L 481.704687 274.318125 
" style="fill: none; stroke: #000000; stroke-width: 0.8; stroke-linejoin: miter; stroke-linecap: square"/>
   </g>
   <g id="patch_6">
    <path d="M 35.304688 22.318125 
L 481.704687 22.318125 
" style="fill: none; stroke: #000000; stroke-width: 0.8; stroke-linejoin: miter; stroke-linecap: square"/>
   </g>
   <g id="text_15">
    <!-- Radiation comparison of transform w/o error H-plane Phi = 90.0 -->
    <g transform="translate(66.835625 16.318125) scale(0.12 -0.12)">
     <defs>
      <path id="DejaVuSans-52" d="M 2841 2188 
Q 3044 2119 3236 1894 
Q 3428 1669 3622 1275 
L 4263 0 
L 3584 0 
L 2988 1197 
Q 2756 1666 2539 1819 
Q 2322 1972 1947 1972 
L 1259 1972 
L 1259 0 
L 628 0 
L 628 4666 
L 2053 4666 
Q 2853 4666 3247 4331 
Q 3641 3997 3641 3322 
Q 3641 2881 3436 2590 
Q 3231 2300 2841 2188 
z
M 1259 4147 
L 1259 2491 
L 2053 2491 
Q 2509 2491 2742 2702 
Q 2975 2913 2975 3322 
Q 2975 3731 2742 3939 
Q 2509 4147 2053 4147 
L 1259 4147 
z
" transform="scale(0.015625)"/>
      <path id="DejaVuSans-64" d="M 2906 2969 
L 2906 4863 
L 3481 4863 
L 3481 0 
L 2906 0 
L 2906 525 
Q 2725 213 2448 61 
Q 2172 -91 1784 -91 
Q 1150 -91 751 415 
Q 353 922 353 1747 
Q 353 2572 751 3078 
Q 1150 3584 1784 3584 
Q 2172 3584 2448 3432 
Q 2725 3281 2906 2969 
z
M 947 1747 
Q 947 1113 1208 752 
Q 1469 391 1925 391 
Q 2381 391 2643 752 
Q 2906 1113 2906 1747 
Q 2906 2381 2643 2742 
Q 2381 3103 1925 3103 
Q 1469 3103 1208 2742 
Q 947 2381 947 1747 
z
" transform="scale(0.015625)"/>
      <path id="DejaVuSans-69" d="M 603 3500 
L 1178 3500 
L 1178 0 
L 603 0 
L 603 3500 
z
M 603 4863 
L 1178 4863 
L 1178 4134 
L 603 4134 
L 603 4863 
z
" transform="scale(0.015625)"/>
      <path id="DejaVuSans-6f" d="M 1959 3097 
Q 1497 3097 1228 2736 
Q 959 2375 959 1747 
Q 959 1119 1226 758 
Q 1494 397 1959 397 
Q 2419 397 2687 759 
Q 2956 1122 2956 1747 
Q 2956 2369 2687 2733 
Q 2419 3097 1959 3097 
z
M 1959 3584 
Q 2709 3584 3137 3096 
Q 3566 2609 3566 1747 
Q 3566 888 3137 398 
Q 2709 -91 1959 -91 
Q 1206 -91 779 398 
Q 353 888 353 1747 
Q 353 2609 779 3096 
Q 1206 3584 1959 3584 
z
" transform="scale(0.015625)"/>
      <path id="DejaVuSans-6e" d="M 3513 2113 
L 3513 0 
L 2938 0 
L 2938 2094 
Q 2938 2591 2744 2837 
Q 2550 3084 2163 3084 
Q 1697 3084 1428 2787 
Q 1159 2491 1159 1978 
L 1159 0 
L 581 0 
L 581 3500 
L 1159 3500 
L 1159 2956 
Q 1366 3272 1645 3428 
Q 1925 3584 2291 3584 
Q 2894 3584 3203 3211 
Q 3513 2838 3513 2113 
z
" transform="scale(0.015625)"/>
      <path id="DejaVuSans-20" transform="scale(0.015625)"/>
      <path id="DejaVuSans-63" d="M 3122 3366 
L 3122 2828 
Q 2878 2963 2633 3030 
Q 2388 3097 2138 3097 
Q 1578 3097 1268 2742 
Q 959 2388 959 1747 
Q 959 1106 1268 751 
Q 1578 397 2138 397 
Q 2388 397 2633 464 
Q 2878 531 3122 666 
L 3122 134 
Q 2881 22 2623 -34 
Q 2366 -91 2075 -91 
Q 1284 -91 818 406 
Q 353 903 353 1747 
Q 353 2603 823 3093 
Q 1294 3584 2113 3584 
Q 2378 3584 2631 3529 
Q 2884 3475 3122 3366 
z
" transform="scale(0.015625)"/>
      <path id="DejaVuSans-6d" d="M 3328 2828 
Q 3544 3216 3844 3400 
Q 4144 3584 4550 3584 
Q 5097 3584 5394 3201 
Q 5691 2819 5691 2113 
L 5691 0 
L 5113 0 
L 5113 2094 
Q 5113 2597 4934 2840 
Q 4756 3084 4391 3084 
Q 3944 3084 3684 2787 
Q 3425 2491 3425 1978 
L 3425 0 
L 2847 0 
L 2847 2094 
Q 2847 2600 2669 2842 
Q 2491 3084 2119 3084 
Q 1678 3084 1418 2786 
Q 1159 2488 1159 1978 
L 1159 0 
L 581 0 
L 581 3500 
L 1159 3500 
L 1159 2956 
Q 1356 3278 1631 3431 
Q 1906 3584 2284 3584 
Q 2666 3584 2933 3390 
Q 3200 3197 3328 2828 
z
" transform="scale(0.015625)"/>
      <path id="DejaVuSans-70" d="M 1159 525 
L 1159 -1331 
L 581 -1331 
L 581 3500 
L 1159 3500 
L 1159 2969 
Q 1341 3281 1617 3432 
Q 1894 3584 2278 3584 
Q 2916 3584 3314 3078 
Q 3713 2572 3713 1747 
Q 3713 922 3314 415 
Q 2916 -91 2278 -91 
Q 1894 -91 1617 61 
Q 1341 213 1159 525 
z
M 3116 1747 
Q 3116 2381 2855 2742 
Q 2594 3103 2138 3103 
Q 1681 3103 1420 2742 
Q 1159 2381 1159 1747 
Q 1159 1113 1420 752 
Q 1681 391 2138 391 
Q 2594 391 2855 752 
Q 3116 1113 3116 1747 
z
" transform="scale(0.015625)"/>
      <path id="DejaVuSans-72" d="M 2631 2963 
Q 2534 3019 2420 3045 
Q 2306 3072 2169 3072 
Q 1681 3072 1420 2755 
Q 1159 2438 1159 1844 
L 1159 0 
L 581 0 
L 581 3500 
L 1159 3500 
L 1159 2956 
Q 1341 3275 1631 3429 
Q 1922 3584 2338 3584 
Q 2397 3584 2469 3576 
Q 2541 3569 2628 3553 
L 2631 2963 
z
" transform="scale(0.015625)"/>
      <path id="DejaVuSans-73" d="M 2834 3397 
L 2834 2853 
Q 2591 2978 2328 3040 
Q 2066 3103 1784 3103 
Q 1356 3103 1142 2972 
Q 928 2841 928 2578 
Q 928 2378 1081 2264 
Q 1234 2150 1697 2047 
L 1894 2003 
Q 2506 1872 2764 1633 
Q 3022 1394 3022 966 
Q 3022 478 2636 193 
Q 2250 -91 1575 -91 
Q 1294 -91 989 -36 
Q 684 19 347 128 
L 347 722 
Q 666 556 975 473 
Q 1284 391 1588 391 
Q 1994 391 2212 530 
Q 2431 669 2431 922 
Q 2431 1156 2273 1281 
Q 2116 1406 1581 1522 
L 1381 1569 
Q 847 1681 609 1914 
Q 372 2147 372 2553 
Q 372 3047 722 3315 
Q 1072 3584 1716 3584 
Q 2034 3584 2315 3537 
Q 2597 3491 2834 3397 
z
" transform="scale(0.015625)"/>
      <path id="DejaVuSans-66" d="M 2375 4863 
L 2375 4384 
L 1825 4384 
Q 1516 4384 1395 4259 
Q 1275 4134 1275 3809 
L 1275 3500 
L 2222 3500 
L 2222 3053 
L 1275 3053 
L 1275 0 
L 697 0 
L 697 3053 
L 147 3053 
L 147 3500 
L 697 3500 
L 697 3744 
Q 697 4328 969 4595 
Q 1241 4863 1831 4863 
L 2375 4863 
z
" transform="scale(0.015625)"/>
      <path id="DejaVuSans-77" d="M 269 3500 
L 844 3500 
L 1563 769 
L 2278 3500 
L 2956 3500 
L 3675 769 
L 4391 3500 
L 4966 3500 
L 4050 0 
L 3372 0 
L 2619 2869 
L 1863 0 
L 1184 0 
L 269 3500 
z
" transform="scale(0.015625)"/>
      <path id="DejaVuSans-2f" d="M 1625 4666 
L 2156 4666 
L 531 -594 
L 0 -594 
L 1625 4666 
z
" transform="scale(0.015625)"/>
      <path id="DejaVuSans-48" d="M 628 4666 
L 1259 4666 
L 1259 2753 
L 3553 2753 
L 3553 4666 
L 4184 4666 
L 4184 0 
L 3553 0 
L 3553 2222 
L 1259 2222 
L 1259 0 
L 628 0 
L 628 4666 
z
" transform="scale(0.015625)"/>
      <path id="DejaVuSans-2d" d="M 313 2009 
L 1997 2009 
L 1997 1497 
L 313 1497 
L 313 2009 
z
" transform="scale(0.015625)"/>
      <path id="DejaVuSans-6c" d="M 603 4863 
L 1178 4863 
L 1178 0 
L 603 0 
L 603 4863 
z
" transform="scale(0.015625)"/>
      <path id="DejaVuSans-50" d="M 1259 4147 
L 1259 2394 
L 2053 2394 
Q 2494 2394 2734 2622 
Q 2975 2850 2975 3272 
Q 2975 3691 2734 3919 
Q 2494 4147 2053 4147 
L 1259 4147 
z
M 628 4666 
L 2053 4666 
Q 2838 4666 3239 4311 
Q 3641 3956 3641 3272 
Q 3641 2581 3239 2228 
Q 2838 1875 2053 1875 
L 1259 1875 
L 1259 0 
L 628 0 
L 628 4666 
z
" transform="scale(0.015625)"/>
      <path id="DejaVuSans-3d" d="M 678 2906 
L 4684 2906 
L 4684 2381 
L 678 2381 
L 678 2906 
z
M 678 1631 
L 4684 1631 
L 4684 1100 
L 678 1100 
L 678 1631 
z
" transform="scale(0.015625)"/>
      <path id="DejaVuSans-39" d="M 703 97 
L 703 672 
Q 941 559 1184 500 
Q 1428 441 1663 441 
Q 2288 441 2617 861 
Q 2947 1281 2994 2138 
Q 2813 1869 2534 1725 
Q 2256 1581 1919 1581 
Q 1219 1581 811 2004 
Q 403 2428 403 3163 
Q 403 3881 828 4315 
Q 1253 4750 1959 4750 
Q 2769 4750 3195 4129 
Q 3622 3509 3622 2328 
Q 3622 1225 3098 567 
Q 2575 -91 1691 -91 
Q 1453 -91 1209 -44 
Q 966 3 703 97 
z
M 1959 2075 
Q 2384 2075 2632 2365 
Q 2881 2656 2881 3163 
Q 2881 3666 2632 3958 
Q 2384 4250 1959 4250 
Q 1534 4250 1286 3958 
Q 1038 3666 1038 3163 
Q 1038 2656 1286 2365 
Q 1534 2075 1959 2075 
z
" transform="scale(0.015625)"/>
      <path id="DejaVuSans-2e" d="M 684 794 
L 1344 794 
L 1344 0 
L 684 0 
L 684 794 
z
" transform="scale(0.015625)"/>
     </defs>
     <use xlink:href="#DejaVuSans-52"/>
     <use xlink:href="#DejaVuSans-61" x="67.232422"/>
     <use xlink:href="#DejaVuSans-64" x="128.511719"/>
     <use xlink:href="#DejaVuSans-69" x="191.988281"/>
     <use xlink:href="#DejaVuSans-61" x="219.771484"/>
     <use xlink:href="#DejaVuSans-74" x="281.050781"/>
     <use xlink:href="#DejaVuSans-69" x="320.259766"/>
     <use xlink:href="#DejaVuSans-6f" x="348.042969"/>
     <use xlink:href="#DejaVuSans-6e" x="409.224609"/>
     <use xlink:href="#DejaVuSans-20" x="472.603516"/>
     <use xlink:href="#DejaVuSans-63" x="504.390625"/>
     <use xlink:href="#DejaVuSans-6f" x="559.371094"/>
     <use xlink:href="#DejaVuSans-6d" x="620.552734"/>
     <use xlink:href="#DejaVuSans-70" x="717.964844"/>
     <use xlink:href="#DejaVuSans-61" x="781.441406"/>
     <use xlink:href="#DejaVuSans-72" x="842.720703"/>
     <use xlink:href="#DejaVuSans-69" x="883.833984"/>
     <use xlink:href="#DejaVuSans-73" x="911.617188"/>
     <use xlink:href="#DejaVuSans-6f" x="963.716797"/>
     <use xlink:href="#DejaVuSans-6e" x="1024.898438"/>
     <use xlink:href="#DejaVuSans-20" x="1088.277344"/>
     <use xlink:href="#DejaVuSans-6f" x="1120.064453"/>
     <use xlink:href="#DejaVuSans-66" x="1181.246094"/>
     <use xlink:href="#DejaVuSans-20" x="1216.451172"/>
     <use xlink:href="#DejaVuSans-74" x="1248.238281"/>
     <use xlink:href="#DejaVuSans-72" x="1287.447266"/>
     <use xlink:href="#DejaVuSans-61" x="1328.560547"/>
     <use xlink:href="#DejaVuSans-6e" x="1389.839844"/>
     <use xlink:href="#DejaVuSans-73" x="1453.21875"/>
     <use xlink:href="#DejaVuSans-66" x="1505.318359"/>
     <use xlink:href="#DejaVuSans-6f" x="1540.523438"/>
     <use xlink:href="#DejaVuSans-72" x="1601.705078"/>
     <use xlink:href="#DejaVuSans-6d" x="1641.068359"/>
     <use xlink:href="#DejaVuSans-20" x="1738.480469"/>
     <use xlink:href="#DejaVuSans-77" x="1770.267578"/>
     <use xlink:href="#DejaVuSans-2f" x="1852.054688"/>
     <use xlink:href="#DejaVuSans-6f" x="1885.746094"/>
     <use xlink:href="#DejaVuSans-20" x="1946.927734"/>
     <use xlink:href="#DejaVuSans-65" x="1978.714844"/>
     <use xlink:href="#DejaVuSans-72" x="2040.238281"/>
     <use xlink:href="#DejaVuSans-72" x="2079.601562"/>
     <use xlink:href="#DejaVuSans-6f" x="2118.464844"/>
     <use xlink:href="#DejaVuSans-72" x="2179.646484"/>
     <use xlink:href="#DejaVuSans-20" x="2220.759766"/>
     <use xlink:href="#DejaVuSans-48" x="2252.546875"/>
     <use xlink:href="#DejaVuSans-2d" x="2327.742188"/>
     <use xlink:href="#DejaVuSans-70" x="2363.826172"/>
     <use xlink:href="#DejaVuSans-6c" x="2427.302734"/>
     <use xlink:href="#DejaVuSans-61" x="2455.085938"/>
     <use xlink:href="#DejaVuSans-6e" x="2516.365234"/>
     <use xlink:href="#DejaVuSans-65" x="2579.744141"/>
     <use xlink:href="#DejaVuSans-20" x="2641.267578"/>
     <use xlink:href="#DejaVuSans-50" x="2673.054688"/>
     <use xlink:href="#DejaVuSans-68" x="2733.357422"/>
     <use xlink:href="#DejaVuSans-69" x="2796.736328"/>
     <use xlink:href="#DejaVuSans-20" x="2824.519531"/>
     <use xlink:href="#DejaVuSans-3d" x="2856.306641"/>
     <use xlink:href="#DejaVuSans-20" x="2940.095703"/>
     <use xlink:href="#DejaVuSans-39" x="2971.882812"/>
     <use xlink:href="#DejaVuSans-30" x="3035.505859"/>
     <use xlink:href="#DejaVuSans-2e" x="3099.128906"/>
     <use xlink:href="#DejaVuSans-30" x="3130.916016"/>
    </g>
   </g>
   <g id="legend_1">
    <g id="patch_7">
     <path d="M 295.271875 133.065 
L 474.704687 133.065 
Q 476.704687 133.065 476.704687 131.065 
L 476.704687 29.318125 
Q 476.704687 27.318125 474.704687 27.318125 
L 295.271875 27.318125 
Q 293.271875 27.318125 293.271875 29.318125 
L 293.271875 131.065 
Q 293.271875 133.065 295.271875 133.065 
z
" style="fill: #ffffff; opacity: 0.8; stroke: #cccccc; stroke-linejoin: miter"/>
    </g>
    <g id="line2d_34">
     <path d="M 297.271875 35.416562 
L 307.271875 35.416562 
L 317.271875 35.416562 
" style="fill: none; stroke: #1f77b4; stroke-opacity: 0.7; stroke-width: 1.5; stroke-linecap: square"/>
    </g>
    <g id="text_16">
     <!-- Radiation without errors -->
     <g transform="translate(325.271875 38.916562) scale(0.1 -0.1)">
      <defs>
       <path id="DejaVuSans-75" d="M 544 1381 
L 544 3500 
L 1119 3500 
L 1119 1403 
Q 1119 906 1312 657 
Q 1506 409 1894 409 
Q 2359 409 2629 706 
Q 2900 1003 2900 1516 
L 2900 3500 
L 3475 3500 
L 3475 0 
L 2900 0 
L 2900 538 
Q 2691 219 2414 64 
Q 2138 -91 1772 -91 
Q 1169 -91 856 284 
Q 544 659 544 1381 
z
M 1991 3584 
L 1991 3584 
z
" transform="scale(0.015625)"/>
      </defs>
      <use xlink:href="#DejaVuSans-52"/>
      <use xlink:href="#DejaVuSans-61" x="67.232422"/>
      <use xlink:href="#DejaVuSans-64" x="128.511719"/>
      <use xlink:href="#DejaVuSans-69" x="191.988281"/>
      <use xlink:href="#DejaVuSans-61" x="219.771484"/>
      <use xlink:href="#DejaVuSans-74" x="281.050781"/>
      <use xlink:href="#DejaVuSans-69" x="320.259766"/>
      <use xlink:href="#DejaVuSans-6f" x="348.042969"/>
      <use xlink:href="#DejaVuSans-6e" x="409.224609"/>
      <use xlink:href="#DejaVuSans-20" x="472.603516"/>
      <use xlink:href="#DejaVuSans-77" x="504.390625"/>
      <use xlink:href="#DejaVuSans-69" x="586.177734"/>
      <use xlink:href="#DejaVuSans-74" x="613.960938"/>
      <use xlink:href="#DejaVuSans-68" x="653.169922"/>
      <use xlink:href="#DejaVuSans-6f" x="716.548828"/>
      <use xlink:href="#DejaVuSans-75" x="777.730469"/>
      <use xlink:href="#DejaVuSans-74" x="841.109375"/>
      <use xlink:href="#DejaVuSans-20" x="880.318359"/>
      <use xlink:href="#DejaVuSans-65" x="912.105469"/>
      <use xlink:href="#DejaVuSans-72" x="973.628906"/>
      <use xlink:href="#DejaVuSans-72" x="1012.992188"/>
      <use xlink:href="#DejaVuSans-6f" x="1051.855469"/>
      <use xlink:href="#DejaVuSans-72" x="1113.037109"/>
      <use xlink:href="#DejaVuSans-73" x="1154.150391"/>
     </g>
    </g>
    <g id="line2d_35">
     <path d="M 297.271875 50.094687 
L 307.271875 50.094687 
L 317.271875 50.094687 
" style="fill: none; stroke: #ff7f0e; stroke-opacity: 0.7; stroke-width: 1.5; stroke-linecap: square"/>
    </g>
    <g id="text_17">
     <!-- Radiation with errors (1mm) -->
     <g transform="translate(325.271875 53.594687) scale(0.1 -0.1)">
      <defs>
       <path id="DejaVuSans-28" d="M 1984 4856 
Q 1566 4138 1362 3434 
Q 1159 2731 1159 2009 
Q 1159 1288 1364 580 
Q 1569 -128 1984 -844 
L 1484 -844 
Q 1016 -109 783 600 
Q 550 1309 550 2009 
Q 550 2706 781 3412 
Q 1013 4119 1484 4856 
L 1984 4856 
z
" transform="scale(0.015625)"/>
       <path id="DejaVuSans-29" d="M 513 4856 
L 1013 4856 
Q 1481 4119 1714 3412 
Q 1947 2706 1947 2009 
Q 1947 1309 1714 600 
Q 1481 -109 1013 -844 
L 513 -844 
Q 928 -128 1133 580 
Q 1338 1288 1338 2009 
Q 1338 2731 1133 3434 
Q 928 4138 513 4856 
z
" transform="scale(0.015625)"/>
      </defs>
      <use xlink:href="#DejaVuSans-52"/>
      <use xlink:href="#DejaVuSans-61" x="67.232422"/>
      <use xlink:href="#DejaVuSans-64" x="128.511719"/>
      <use xlink:href="#DejaVuSans-69" x="191.988281"/>
      <use xlink:href="#DejaVuSans-61" x="219.771484"/>
      <use xlink:href="#DejaVuSans-74" x="281.050781"/>
      <use xlink:href="#DejaVuSans-69" x="320.259766"/>
      <use xlink:href="#DejaVuSans-6f" x="348.042969"/>
      <use xlink:href="#DejaVuSans-6e" x="409.224609"/>
      <use xlink:href="#DejaVuSans-20" x="472.603516"/>
      <use xlink:href="#DejaVuSans-77" x="504.390625"/>
      <use xlink:href="#DejaVuSans-69" x="586.177734"/>
      <use xlink:href="#DejaVuSans-74" x="613.960938"/>
      <use xlink:href="#DejaVuSans-68" x="653.169922"/>
      <use xlink:href="#DejaVuSans-20" x="716.548828"/>
      <use xlink:href="#DejaVuSans-65" x="748.335938"/>
      <use xlink:href="#DejaVuSans-72" x="809.859375"/>
      <use xlink:href="#DejaVuSans-72" x="849.222656"/>
      <use xlink:href="#DejaVuSans-6f" x="888.085938"/>
      <use xlink:href="#DejaVuSans-72" x="949.267578"/>
      <use xlink:href="#DejaVuSans-73" x="990.380859"/>
      <use xlink:href="#DejaVuSans-20" x="1042.480469"/>
      <use xlink:href="#DejaVuSans-28" x="1074.267578"/>
      <use xlink:href="#DejaVuSans-31" x="1113.28125"/>
      <use xlink:href="#DejaVuSans-6d" x="1176.904297"/>
      <use xlink:href="#DejaVuSans-6d" x="1274.316406"/>
      <use xlink:href="#DejaVuSans-29" x="1371.728516"/>
     </g>
    </g>
    <g id="line2d_36">
     <path d="M 297.271875 64.772812 
L 307.271875 64.772812 
L 317.271875 64.772812 
" style="fill: none; stroke: #2ca02c; stroke-opacity: 0.7; stroke-width: 1.5; stroke-linecap: square"/>
    </g>
    <g id="text_18">
     <!-- Radiation with errors (5mm) -->
     <g transform="translate(325.271875 68.272812) scale(0.1 -0.1)">
      <use xlink:href="#DejaVuSans-52"/>
      <use xlink:href="#DejaVuSans-61" x="67.232422"/>
      <use xlink:href="#DejaVuSans-64" x="128.511719"/>
      <use xlink:href="#DejaVuSans-69" x="191.988281"/>
      <use xlink:href="#DejaVuSans-61" x="219.771484"/>
      <use xlink:href="#DejaVuSans-74" x="281.050781"/>
      <use xlink:href="#DejaVuSans-69" x="320.259766"/>
      <use xlink:href="#DejaVuSans-6f" x="348.042969"/>
      <use xlink:href="#DejaVuSans-6e" x="409.224609"/>
      <use xlink:href="#DejaVuSans-20" x="472.603516"/>
      <use xlink:href="#DejaVuSans-77" x="504.390625"/>
      <use xlink:href="#DejaVuSans-69" x="586.177734"/>
      <use xlink:href="#DejaVuSans-74" x="613.960938"/>
      <use xlink:href="#DejaVuSans-68" x="653.169922"/>
      <use xlink:href="#DejaVuSans-20" x="716.548828"/>
      <use xlink:href="#DejaVuSans-65" x="748.335938"/>
      <use xlink:href="#DejaVuSans-72" x="809.859375"/>
      <use xlink:href="#DejaVuSans-72" x="849.222656"/>
      <use xlink:href="#DejaVuSans-6f" x="888.085938"/>
      <use xlink:href="#DejaVuSans-72" x="949.267578"/>
      <use xlink:href="#DejaVuSans-73" x="990.380859"/>
      <use xlink:href="#DejaVuSans-20" x="1042.480469"/>
      <use xlink:href="#DejaVuSans-28" x="1074.267578"/>
      <use xlink:href="#DejaVuSans-35" x="1113.28125"/>
      <use xlink:href="#DejaVuSans-6d" x="1176.904297"/>
      <use xlink:href="#DejaVuSans-6d" x="1274.316406"/>
      <use xlink:href="#DejaVuSans-29" x="1371.728516"/>
     </g>
    </g>
    <g id="line2d_37">
     <path d="M 297.271875 79.450937 
L 307.271875 79.450937 
L 317.271875 79.450937 
" style="fill: none; stroke: #d62728; stroke-opacity: 0.7; stroke-width: 1.5; stroke-linecap: square"/>
    </g>
    <g id="text_19">
     <!-- Radiation with errors (10mm) -->
     <g transform="translate(325.271875 82.950937) scale(0.1 -0.1)">
      <use xlink:href="#DejaVuSans-52"/>
      <use xlink:href="#DejaVuSans-61" x="67.232422"/>
      <use xlink:href="#DejaVuSans-64" x="128.511719"/>
      <use xlink:href="#DejaVuSans-69" x="191.988281"/>
      <use xlink:href="#DejaVuSans-61" x="219.771484"/>
      <use xlink:href="#DejaVuSans-74" x="281.050781"/>
      <use xlink:href="#DejaVuSans-69" x="320.259766"/>
      <use xlink:href="#DejaVuSans-6f" x="348.042969"/>
      <use xlink:href="#DejaVuSans-6e" x="409.224609"/>
      <use xlink:href="#DejaVuSans-20" x="472.603516"/>
      <use xlink:href="#DejaVuSans-77" x="504.390625"/>
      <use xlink:href="#DejaVuSans-69" x="586.177734"/>
      <use xlink:href="#DejaVuSans-74" x="613.960938"/>
      <use xlink:href="#DejaVuSans-68" x="653.169922"/>
      <use xlink:href="#DejaVuSans-20" x="716.548828"/>
      <use xlink:href="#DejaVuSans-65" x="748.335938"/>
      <use xlink:href="#DejaVuSans-72" x="809.859375"/>
      <use xlink:href="#DejaVuSans-72" x="849.222656"/>
      <use xlink:href="#DejaVuSans-6f" x="888.085938"/>
      <use xlink:href="#DejaVuSans-72" x="949.267578"/>
      <use xlink:href="#DejaVuSans-73" x="990.380859"/>
      <use xlink:href="#DejaVuSans-20" x="1042.480469"/>
      <use xlink:href="#DejaVuSans-28" x="1074.267578"/>
      <use xlink:href="#DejaVuSans-31" x="1113.28125"/>
      <use xlink:href="#DejaVuSans-30" x="1176.904297"/>
      <use xlink:href="#DejaVuSans-6d" x="1240.527344"/>
      <use xlink:href="#DejaVuSans-6d" x="1337.939453"/>
      <use xlink:href="#DejaVuSans-29" x="1435.351562"/>
     </g>
    </g>
    <g id="line2d_38">
     <path d="M 297.271875 94.129062 
L 307.271875 94.129062 
L 317.271875 94.129062 
" style="fill: none; stroke: #9467bd; stroke-opacity: 0.7; stroke-width: 1.5; stroke-linecap: square"/>
    </g>
    <g id="text_20">
     <!-- Radiation with errors (20mm) -->
     <g transform="translate(325.271875 97.629062) scale(0.1 -0.1)">
      <use xlink:href="#DejaVuSans-52"/>
      <use xlink:href="#DejaVuSans-61" x="67.232422"/>
      <use xlink:href="#DejaVuSans-64" x="128.511719"/>
      <use xlink:href="#DejaVuSans-69" x="191.988281"/>
      <use xlink:href="#DejaVuSans-61" x="219.771484"/>
      <use xlink:href="#DejaVuSans-74" x="281.050781"/>
      <use xlink:href="#DejaVuSans-69" x="320.259766"/>
      <use xlink:href="#DejaVuSans-6f" x="348.042969"/>
      <use xlink:href="#DejaVuSans-6e" x="409.224609"/>
      <use xlink:href="#DejaVuSans-20" x="472.603516"/>
      <use xlink:href="#DejaVuSans-77" x="504.390625"/>
      <use xlink:href="#DejaVuSans-69" x="586.177734"/>
      <use xlink:href="#DejaVuSans-74" x="613.960938"/>
      <use xlink:href="#DejaVuSans-68" x="653.169922"/>
      <use xlink:href="#DejaVuSans-20" x="716.548828"/>
      <use xlink:href="#DejaVuSans-65" x="748.335938"/>
      <use xlink:href="#DejaVuSans-72" x="809.859375"/>
      <use xlink:href="#DejaVuSans-72" x="849.222656"/>
      <use xlink:href="#DejaVuSans-6f" x="888.085938"/>
      <use xlink:href="#DejaVuSans-72" x="949.267578"/>
      <use xlink:href="#DejaVuSans-73" x="990.380859"/>
      <use xlink:href="#DejaVuSans-20" x="1042.480469"/>
      <use xlink:href="#DejaVuSans-28" x="1074.267578"/>
      <use xlink:href="#DejaVuSans-32" x="1113.28125"/>
      <use xlink:href="#DejaVuSans-30" x="1176.904297"/>
      <use xlink:href="#DejaVuSans-6d" x="1240.527344"/>
      <use xlink:href="#DejaVuSans-6d" x="1337.939453"/>
      <use xlink:href="#DejaVuSans-29" x="1435.351562"/>
     </g>
    </g>
    <g id="line2d_39">
     <path d="M 297.271875 108.807187 
L 307.271875 108.807187 
L 317.271875 108.807187 
" style="fill: none; stroke: #8c564b; stroke-opacity: 0.7; stroke-width: 1.5; stroke-linecap: square"/>
    </g>
    <g id="text_21">
     <!-- Radiation with errors (30mm) -->
     <g transform="translate(325.271875 112.307187) scale(0.1 -0.1)">
      <use xlink:href="#DejaVuSans-52"/>
      <use xlink:href="#DejaVuSans-61" x="67.232422"/>
      <use xlink:href="#DejaVuSans-64" x="128.511719"/>
      <use xlink:href="#DejaVuSans-69" x="191.988281"/>
      <use xlink:href="#DejaVuSans-61" x="219.771484"/>
      <use xlink:href="#DejaVuSans-74" x="281.050781"/>
      <use xlink:href="#DejaVuSans-69" x="320.259766"/>
      <use xlink:href="#DejaVuSans-6f" x="348.042969"/>
      <use xlink:href="#DejaVuSans-6e" x="409.224609"/>
      <use xlink:href="#DejaVuSans-20" x="472.603516"/>
      <use xlink:href="#DejaVuSans-77" x="504.390625"/>
      <use xlink:href="#DejaVuSans-69" x="586.177734"/>
      <use xlink:href="#DejaVuSans-74" x="613.960938"/>
      <use xlink:href="#DejaVuSans-68" x="653.169922"/>
      <use xlink:href="#DejaVuSans-20" x="716.548828"/>
      <use xlink:href="#DejaVuSans-65" x="748.335938"/>
      <use xlink:href="#DejaVuSans-72" x="809.859375"/>
      <use xlink:href="#DejaVuSans-72" x="849.222656"/>
      <use xlink:href="#DejaVuSans-6f" x="888.085938"/>
      <use xlink:href="#DejaVuSans-72" x="949.267578"/>
      <use xlink:href="#DejaVuSans-73" x="990.380859"/>
      <use xlink:href="#DejaVuSans-20" x="1042.480469"/>
      <use xlink:href="#DejaVuSans-28" x="1074.267578"/>
      <use xlink:href="#DejaVuSans-33" x="1113.28125"/>
      <use xlink:href="#DejaVuSans-30" x="1176.904297"/>
      <use xlink:href="#DejaVuSans-6d" x="1240.527344"/>
      <use xlink:href="#DejaVuSans-6d" x="1337.939453"/>
      <use xlink:href="#DejaVuSans-29" x="1435.351562"/>
     </g>
    </g>
    <g id="line2d_40">
     <path d="M 297.271875 123.485312 
L 307.271875 123.485312 
L 317.271875 123.485312 
" style="fill: none; stroke: #e377c2; stroke-opacity: 0.7; stroke-width: 1.5; stroke-linecap: square"/>
    </g>
    <g id="text_22">
     <!-- Radiation with errors (50mm) -->
     <g transform="translate(325.271875 126.985312) scale(0.1 -0.1)">
      <use xlink:href="#DejaVuSans-52"/>
      <use xlink:href="#DejaVuSans-61" x="67.232422"/>
      <use xlink:href="#DejaVuSans-64" x="128.511719"/>
      <use xlink:href="#DejaVuSans-69" x="191.988281"/>
      <use xlink:href="#DejaVuSans-61" x="219.771484"/>
      <use xlink:href="#DejaVuSans-74" x="281.050781"/>
      <use xlink:href="#DejaVuSans-69" x="320.259766"/>
      <use xlink:href="#DejaVuSans-6f" x="348.042969"/>
      <use xlink:href="#DejaVuSans-6e" x="409.224609"/>
      <use xlink:href="#DejaVuSans-20" x="472.603516"/>
      <use xlink:href="#DejaVuSans-77" x="504.390625"/>
      <use xlink:href="#DejaVuSans-69" x="586.177734"/>
      <use xlink:href="#DejaVuSans-74" x="613.960938"/>
      <use xlink:href="#DejaVuSans-68" x="653.169922"/>
      <use xlink:href="#DejaVuSans-20" x="716.548828"/>
      <use xlink:href="#DejaVuSans-65" x="748.335938"/>
      <use xlink:href="#DejaVuSans-72" x="809.859375"/>
      <use xlink:href="#DejaVuSans-72" x="849.222656"/>
      <use xlink:href="#DejaVuSans-6f" x="888.085938"/>
      <use xlink:href="#DejaVuSans-72" x="949.267578"/>
      <use xlink:href="#DejaVuSans-73" x="990.380859"/>
      <use xlink:href="#DejaVuSans-20" x="1042.480469"/>
      <use xlink:href="#DejaVuSans-28" x="1074.267578"/>
      <use xlink:href="#DejaVuSans-35" x="1113.28125"/>
      <use xlink:href="#DejaVuSans-30" x="1176.904297"/>
      <use xlink:href="#DejaVuSans-6d" x="1240.527344"/>
      <use xlink:href="#DejaVuSans-6d" x="1337.939453"/>
      <use xlink:href="#DejaVuSans-29" x="1435.351562"/>
     </g>
    </g>
   </g>
  </g>
  <g id="axes_2">
   <g id="patch_8">
    <path d="M 35.304688 576.718125 
L 481.704687 576.718125 
L 481.704687 324.718125 
L 35.304688 324.718125 
z
" style="fill: #ffffff"/>
   </g>
   <g id="matplotlib.axis_3">
    <g id="xtick_6">
     <g id="line2d_41">
      <path d="M 102.420771 576.718125 
L 102.420771 324.718125 
" clip-path="url(#p7460a6b52c)" style="fill: none; stroke: #b0b0b0; stroke-width: 0.8; stroke-linecap: square"/>
     </g>
     <g id="line2d_42">
      <g>
       <use xlink:href="#ma0696c6c6e" x="102.420771" y="576.718125" style="stroke: #000000; stroke-width: 0.8"/>
      </g>
     </g>
     <g id="text_23">
      <!-- −100 -->
      <g transform="translate(88.687178 591.316562) scale(0.1 -0.1)">
       <use xlink:href="#DejaVuSans-2212"/>
       <use xlink:href="#DejaVuSans-31" x="83.789062"/>
       <use xlink:href="#DejaVuSans-30" x="147.412109"/>
       <use xlink:href="#DejaVuSans-30" x="211.035156"/>
      </g>
     </g>
    </g>
    <g id="xtick_7">
     <g id="line2d_43">
      <path d="M 180.462729 576.718125 
L 180.462729 324.718125 
" clip-path="url(#p7460a6b52c)" style="fill: none; stroke: #b0b0b0; stroke-width: 0.8; stroke-linecap: square"/>
     </g>
     <g id="line2d_44">
      <g>
       <use xlink:href="#ma0696c6c6e" x="180.462729" y="576.718125" style="stroke: #000000; stroke-width: 0.8"/>
      </g>
     </g>
     <g id="text_24">
      <!-- −50 -->
      <g transform="translate(169.910386 591.316562) scale(0.1 -0.1)">
       <use xlink:href="#DejaVuSans-2212"/>
       <use xlink:href="#DejaVuSans-35" x="83.789062"/>
       <use xlink:href="#DejaVuSans-30" x="147.412109"/>
      </g>
     </g>
    </g>
    <g id="xtick_8">
     <g id="line2d_45">
      <path d="M 258.504687 576.718125 
L 258.504687 324.718125 
" clip-path="url(#p7460a6b52c)" style="fill: none; stroke: #b0b0b0; stroke-width: 0.8; stroke-linecap: square"/>
     </g>
     <g id="line2d_46">
      <g>
       <use xlink:href="#ma0696c6c6e" x="258.504687" y="576.718125" style="stroke: #000000; stroke-width: 0.8"/>
      </g>
     </g>
     <g id="text_25">
      <!-- 0 -->
      <g transform="translate(255.323437 591.316562) scale(0.1 -0.1)">
       <use xlink:href="#DejaVuSans-30"/>
      </g>
     </g>
    </g>
    <g id="xtick_9">
     <g id="line2d_47">
      <path d="M 336.546646 576.718125 
L 336.546646 324.718125 
" clip-path="url(#p7460a6b52c)" style="fill: none; stroke: #b0b0b0; stroke-width: 0.8; stroke-linecap: square"/>
     </g>
     <g id="line2d_48">
      <g>
       <use xlink:href="#ma0696c6c6e" x="336.546646" y="576.718125" style="stroke: #000000; stroke-width: 0.8"/>
      </g>
     </g>
     <g id="text_26">
      <!-- 50 -->
      <g transform="translate(330.184146 591.316562) scale(0.1 -0.1)">
       <use xlink:href="#DejaVuSans-35"/>
       <use xlink:href="#DejaVuSans-30" x="63.623047"/>
      </g>
     </g>
    </g>
    <g id="xtick_10">
     <g id="line2d_49">
      <path d="M 414.588604 576.718125 
L 414.588604 324.718125 
" clip-path="url(#p7460a6b52c)" style="fill: none; stroke: #b0b0b0; stroke-width: 0.8; stroke-linecap: square"/>
     </g>
     <g id="line2d_50">
      <g>
       <use xlink:href="#ma0696c6c6e" x="414.588604" y="576.718125" style="stroke: #000000; stroke-width: 0.8"/>
      </g>
     </g>
     <g id="text_27">
      <!-- 100 -->
      <g transform="translate(405.044854 591.316562) scale(0.1 -0.1)">
       <use xlink:href="#DejaVuSans-31"/>
       <use xlink:href="#DejaVuSans-30" x="63.623047"/>
       <use xlink:href="#DejaVuSans-30" x="127.246094"/>
      </g>
     </g>
    </g>
    <g id="text_28">
     <!-- Theta -->
     <g transform="translate(244.18125 604.994687) scale(0.1 -0.1)">
      <use xlink:href="#DejaVuSans-54"/>
      <use xlink:href="#DejaVuSans-68" x="61.083984"/>
      <use xlink:href="#DejaVuSans-65" x="124.462891"/>
      <use xlink:href="#DejaVuSans-74" x="185.986328"/>
      <use xlink:href="#DejaVuSans-61" x="225.195312"/>
     </g>
    </g>
   </g>
   <g id="matplotlib.axis_4">
    <g id="ytick_9">
     <g id="line2d_51">
      <path d="M 35.304688 568.971506 
L 481.704687 568.971506 
" clip-path="url(#p7460a6b52c)" style="fill: none; stroke: #b0b0b0; stroke-width: 0.8; stroke-linecap: square"/>
     </g>
     <g id="line2d_52">
      <g>
       <use xlink:href="#m0ff459402d" x="35.304688" y="568.971506" style="stroke: #000000; stroke-width: 0.8"/>
      </g>
     </g>
     <g id="text_29">
      <!-- −30 -->
      <g transform="translate(7.2 572.770725) scale(0.1 -0.1)">
       <use xlink:href="#DejaVuSans-2212"/>
       <use xlink:href="#DejaVuSans-33" x="83.789062"/>
       <use xlink:href="#DejaVuSans-30" x="147.412109"/>
      </g>
     </g>
    </g>
    <g id="ytick_10">
     <g id="line2d_53">
      <path d="M 35.304688 530.1717 
L 481.704687 530.1717 
" clip-path="url(#p7460a6b52c)" style="fill: none; stroke: #b0b0b0; stroke-width: 0.8; stroke-linecap: square"/>
     </g>
     <g id="line2d_54">
      <g>
       <use xlink:href="#m0ff459402d" x="35.304688" y="530.1717" style="stroke: #000000; stroke-width: 0.8"/>
      </g>
     </g>
     <g id="text_30">
      <!-- −25 -->
      <g transform="translate(7.2 533.970919) scale(0.1 -0.1)">
       <use xlink:href="#DejaVuSans-2212"/>
       <use xlink:href="#DejaVuSans-32" x="83.789062"/>
       <use xlink:href="#DejaVuSans-35" x="147.412109"/>
      </g>
     </g>
    </g>
    <g id="ytick_11">
     <g id="line2d_55">
      <path d="M 35.304688 491.371894 
L 481.704687 491.371894 
" clip-path="url(#p7460a6b52c)" style="fill: none; stroke: #b0b0b0; stroke-width: 0.8; stroke-linecap: square"/>
     </g>
     <g id="line2d_56">
      <g>
       <use xlink:href="#m0ff459402d" x="35.304688" y="491.371894" style="stroke: #000000; stroke-width: 0.8"/>
      </g>
     </g>
     <g id="text_31">
      <!-- −20 -->
      <g transform="translate(7.2 495.171113) scale(0.1 -0.1)">
       <use xlink:href="#DejaVuSans-2212"/>
       <use xlink:href="#DejaVuSans-32" x="83.789062"/>
       <use xlink:href="#DejaVuSans-30" x="147.412109"/>
      </g>
     </g>
    </g>
    <g id="ytick_12">
     <g id="line2d_57">
      <path d="M 35.304688 452.572088 
L 481.704687 452.572088 
" clip-path="url(#p7460a6b52c)" style="fill: none; stroke: #b0b0b0; stroke-width: 0.8; stroke-linecap: square"/>
     </g>
     <g id="line2d_58">
      <g>
       <use xlink:href="#m0ff459402d" x="35.304688" y="452.572088" style="stroke: #000000; stroke-width: 0.8"/>
      </g>
     </g>
     <g id="text_32">
      <!-- −15 -->
      <g transform="translate(7.2 456.371307) scale(0.1 -0.1)">
       <use xlink:href="#DejaVuSans-2212"/>
       <use xlink:href="#DejaVuSans-31" x="83.789062"/>
       <use xlink:href="#DejaVuSans-35" x="147.412109"/>
      </g>
     </g>
    </g>
    <g id="ytick_13">
     <g id="line2d_59">
      <path d="M 35.304688 413.772282 
L 481.704687 413.772282 
" clip-path="url(#p7460a6b52c)" style="fill: none; stroke: #b0b0b0; stroke-width: 0.8; stroke-linecap: square"/>
     </g>
     <g id="line2d_60">
      <g>
       <use xlink:href="#m0ff459402d" x="35.304688" y="413.772282" style="stroke: #000000; stroke-width: 0.8"/>
      </g>
     </g>
     <g id="text_33">
      <!-- −10 -->
      <g transform="translate(7.2 417.571501) scale(0.1 -0.1)">
       <use xlink:href="#DejaVuSans-2212"/>
       <use xlink:href="#DejaVuSans-31" x="83.789062"/>
       <use xlink:href="#DejaVuSans-30" x="147.412109"/>
      </g>
     </g>
    </g>
    <g id="ytick_14">
     <g id="line2d_61">
      <path d="M 35.304688 374.972476 
L 481.704687 374.972476 
" clip-path="url(#p7460a6b52c)" style="fill: none; stroke: #b0b0b0; stroke-width: 0.8; stroke-linecap: square"/>
     </g>
     <g id="line2d_62">
      <g>
       <use xlink:href="#m0ff459402d" x="35.304688" y="374.972476" style="stroke: #000000; stroke-width: 0.8"/>
      </g>
     </g>
     <g id="text_34">
      <!-- −5 -->
      <g transform="translate(13.5625 378.771695) scale(0.1 -0.1)">
       <use xlink:href="#DejaVuSans-2212"/>
       <use xlink:href="#DejaVuSans-35" x="83.789062"/>
      </g>
     </g>
    </g>
    <g id="ytick_15">
     <g id="line2d_63">
      <path d="M 35.304688 336.17267 
L 481.704687 336.17267 
" clip-path="url(#p7460a6b52c)" style="fill: none; stroke: #b0b0b0; stroke-width: 0.8; stroke-linecap: square"/>
     </g>
     <g id="line2d_64">
      <g>
       <use xlink:href="#m0ff459402d" x="35.304688" y="336.17267" style="stroke: #000000; stroke-width: 0.8"/>
      </g>
     </g>
     <g id="text_35">
      <!-- 0 -->
      <g transform="translate(21.942187 339.971889) scale(0.1 -0.1)">
       <use xlink:href="#DejaVuSans-30"/>
      </g>
     </g>
    </g>
   </g>
   <g id="line2d_65">
    <path d="M 55.595597 465.061122 
L 63.399792 488.611359 
L 71.203988 489.038312 
L 79.008184 469.900208 
L 86.81238 469.034816 
L 94.616576 488.788541 
L 102.420771 536.27656 
L 110.224967 540.348361 
L 118.029163 506.147104 
L 125.833359 494.987161 
L 133.637555 501.715489 
L 141.44175 510.506401 
L 149.245946 506.608744 
L 157.050142 493.533388 
L 164.854338 495.19163 
L 172.658534 520.328739 
L 180.462729 552.558673 
L 188.266925 498.831009 
L 196.071121 462.349885 
L 203.875317 442.602552 
L 211.679513 442.703321 
L 219.483708 470.71063 
L 227.287904 464.902043 
L 235.0921 400.426669 
L 242.896296 363.25961 
L 250.700492 343.496192 
L 258.504687 336.17267 
L 266.308883 343.341095 
L 274.113079 362.020289 
L 281.917275 398.074854 
L 289.721471 462.525566 
L 297.525667 473.599763 
L 305.329862 443.795112 
L 313.134058 443.331332 
L 320.938254 461.002609 
L 328.74245 496.620269 
L 336.546646 552.662925 
L 344.350841 521.99872 
L 352.155037 495.194122 
L 359.959233 492.292643 
L 367.763429 505.070193 
L 375.567625 511.869783 
L 383.37182 503.043291 
L 391.176016 494.597599 
L 398.980212 503.013418 
L 406.784408 536.020147 
L 414.588604 543.003168 
L 422.392799 492.331226 
L 430.196995 470.335085 
L 438.001191 469.38209 
L 445.805387 486.094011 
L 453.609583 487.615405 
L 461.413778 464.747287 
" clip-path="url(#p7460a6b52c)" style="fill: none; stroke: #1f77b4; stroke-opacity: 0.7; stroke-width: 1.5; stroke-linecap: square"/>
   </g>
   <g id="line2d_66">
    <path d="M 55.595597 496.668154 
L 63.399792 484.686704 
L 71.203988 496.834208 
L 79.008184 501.018011 
L 86.81238 492.238633 
L 94.616576 510.035195 
L 102.420771 530.955939 
L 110.224967 548.300871 
L 118.029163 565.26358 
L 125.833359 527.400064 
L 133.637555 519.617591 
L 141.44175 537.549714 
L 149.245946 501.028802 
L 157.050142 487.033578 
L 164.854338 521.995595 
L 172.658534 529.429129 
L 180.462729 529.702305 
L 188.266925 545.088816 
L 196.071121 516.552993 
L 203.875317 464.61728 
L 211.679513 425.730955 
L 219.483708 475.709113 
L 227.287904 447.520468 
L 235.0921 434.53253 
L 242.896296 372.975861 
L 250.700492 360.217671 
L 258.504687 336.17267 
L 266.308883 355.888968 
L 274.113079 385.89339 
L 281.917275 417.304062 
L 289.721471 446.228631 
L 297.525667 509.322898 
L 305.329862 442.039568 
L 313.134058 433.328266 
L 320.938254 462.898853 
L 328.74245 482.96391 
L 336.546646 561.813025 
L 344.350841 502.711627 
L 352.155037 529.690464 
L 359.959233 508.06659 
L 367.763429 517.171332 
L 375.567625 511.074042 
L 383.37182 510.912362 
L 391.176016 518.172708 
L 398.980212 548.14453 
L 406.784408 540.021784 
L 414.588604 517.74201 
L 422.392799 527.93672 
L 430.196995 487.427615 
L 438.001191 483.246084 
L 445.805387 529.433042 
L 453.609583 497.240535 
L 461.413778 504.686786 
" clip-path="url(#p7460a6b52c)" style="fill: none; stroke: #ff7f0e; stroke-opacity: 0.7; stroke-width: 1.5; stroke-linecap: square"/>
   </g>
   <g id="line2d_67">
    <path d="M 55.595597 462.546663 
L 63.399792 488.750291 
L 71.203988 487.7997 
L 79.008184 470.297966 
L 86.81238 467.284393 
L 94.616576 490.081437 
L 102.420771 533.549261 
L 110.224967 547.938785 
L 118.029163 502.635296 
L 125.833359 493.423356 
L 133.637555 501.772061 
L 141.44175 509.371351 
L 149.245946 503.247579 
L 157.050142 495.790228 
L 164.854338 493.440772 
L 172.658534 517.376301 
L 180.462729 556.412677 
L 188.266925 490.399682 
L 196.071121 462.484901 
L 203.875317 441.851204 
L 211.679513 443.554472 
L 219.483708 470.957551 
L 227.287904 462.930728 
L 235.0921 395.713663 
L 242.896296 362.958518 
L 250.700492 342.772552 
L 258.504687 336.17267 
L 266.308883 341.788577 
L 274.113079 361.371462 
L 281.917275 394.09852 
L 289.721471 463.448867 
L 297.525667 470.261813 
L 305.329862 442.403672 
L 313.134058 441.922975 
L 320.938254 466.581864 
L 328.74245 489.696014 
L 336.546646 550.783174 
L 344.350841 517.847863 
L 352.155037 493.803553 
L 359.959233 491.975608 
L 367.763429 500.416649 
L 375.567625 512.02934 
L 383.37182 501.505095 
L 391.176016 495.70851 
L 398.980212 501.088052 
L 406.784408 536.616218 
L 414.588604 536.835614 
L 422.392799 491.721826 
L 430.196995 469.105167 
L 438.001191 470.803284 
L 445.805387 483.218576 
L 453.609583 489.562033 
L 461.413778 460.02502 
" clip-path="url(#p7460a6b52c)" style="fill: none; stroke: #2ca02c; stroke-opacity: 0.7; stroke-width: 1.5; stroke-linecap: square"/>
   </g>
   <g id="line2d_68">
    <path d="M 55.595597 464.959692 
L 63.399792 488.636846 
L 71.203988 487.754473 
L 79.008184 469.586465 
L 86.81238 468.579947 
L 94.616576 488.55466 
L 102.420771 535.158486 
L 110.224967 540.933583 
L 118.029163 505.715318 
L 125.833359 494.899616 
L 133.637555 501.446779 
L 141.44175 510.140359 
L 149.245946 505.77213 
L 157.050142 493.484722 
L 164.854338 495.033598 
L 172.658534 519.970535 
L 180.462729 556.474214 
L 188.266925 499.417173 
L 196.071121 462.182611 
L 203.875317 441.995792 
L 211.679513 442.275008 
L 219.483708 470.563953 
L 227.287904 465.347128 
L 235.0921 399.884532 
L 242.896296 363.156091 
L 250.700492 343.235562 
L 258.504687 336.17267 
L 266.308883 343.372211 
L 274.113079 362.118277 
L 281.917275 397.782444 
L 289.721471 461.239483 
L 297.525667 474.377133 
L 305.329862 443.348392 
L 313.134058 442.914111 
L 320.938254 461.436661 
L 328.74245 496.308837 
L 336.546646 551.165951 
L 344.350841 521.203393 
L 352.155037 494.414683 
L 359.959233 492.21189 
L 367.763429 505.082251 
L 375.567625 512.629895 
L 383.37182 503.110492 
L 391.176016 494.335859 
L 398.980212 502.153182 
L 406.784408 536.486843 
L 414.588604 542.5999 
L 422.392799 492.07903 
L 430.196995 469.713615 
L 438.001191 469.377205 
L 445.805387 485.733107 
L 453.609583 487.886169 
L 461.413778 464.176967 
" clip-path="url(#p7460a6b52c)" style="fill: none; stroke: #d62728; stroke-opacity: 0.7; stroke-width: 1.5; stroke-linecap: square"/>
   </g>
   <g id="line2d_69">
    <path d="M 55.595597 462.23993 
L 63.399792 485.69355 
L 71.203988 482.516383 
L 79.008184 464.829393 
L 86.81238 463.781689 
L 94.616576 487.512008 
L 102.420771 521.162413 
L 110.224967 540.22608 
L 118.029163 513.262383 
L 125.833359 493.092296 
L 133.637555 502.926624 
L 141.44175 518.579687 
L 149.245946 522.669573 
L 157.050142 487.905448 
L 164.854338 488.370087 
L 172.658534 526.206533 
L 180.462729 553.984877 
L 188.266925 491.245496 
L 196.071121 447.357632 
L 203.875317 439.000877 
L 211.679513 444.941197 
L 219.483708 488.445496 
L 227.287904 462.30676 
L 235.0921 397.600013 
L 242.896296 357.345718 
L 250.700492 341.451225 
L 258.504687 336.17267 
L 266.308883 343.760496 
L 274.113079 361.322303 
L 281.917275 399.597673 
L 289.721471 459.722955 
L 297.525667 491.155017 
L 305.329862 440.763336 
L 313.134058 448.017471 
L 320.938254 462.217552 
L 328.74245 486.398734 
L 336.546646 514.599312 
L 344.350841 523.527518 
L 352.155037 495.678589 
L 359.959233 489.262652 
L 367.763429 510.958041 
L 375.567625 530.987624 
L 383.37182 505.674325 
L 391.176016 488.83233 
L 398.980212 500.217438 
L 406.784408 523.705809 
L 414.588604 532.651562 
L 422.392799 488.75075 
L 430.196995 478.137993 
L 438.001191 468.681978 
L 445.805387 494.564021 
L 453.609583 484.964487 
L 461.413778 459.855586 
" clip-path="url(#p7460a6b52c)" style="fill: none; stroke: #9467bd; stroke-opacity: 0.7; stroke-width: 1.5; stroke-linecap: square"/>
   </g>
   <g id="line2d_70">
    <path d="M 55.595597 464.322537 
L 63.399792 490.041151 
L 71.203988 488.847563 
L 79.008184 469.240057 
L 86.81238 469.93306 
L 94.616576 491.562516 
L 102.420771 531.843391 
L 110.224967 545.543289 
L 118.029163 511.395608 
L 125.833359 498.931126 
L 133.637555 499.734873 
L 141.44175 512.249345 
L 149.245946 509.792094 
L 157.050142 497.807146 
L 164.854338 502.051437 
L 172.658534 512.955008 
L 180.462729 547.007506 
L 188.266925 504.323741 
L 196.071121 457.708735 
L 203.875317 448.504249 
L 211.679513 440.32426 
L 219.483708 466.046737 
L 227.287904 469.255079 
L 235.0921 402.968589 
L 242.896296 364.892623 
L 250.700492 343.442751 
L 258.504687 336.17267 
L 266.308883 344.238599 
L 274.113079 364.39148 
L 281.917275 401.161819 
L 289.721471 451.605436 
L 297.525667 487.958231 
L 305.329862 440.401525 
L 313.134058 443.880132 
L 320.938254 462.448539 
L 328.74245 495.110822 
L 336.546646 558.392486 
L 344.350841 521.622947 
L 352.155037 495.457306 
L 359.959233 497.018595 
L 367.763429 507.686148 
L 375.567625 513.963744 
L 383.37182 499.985452 
L 391.176016 496.70816 
L 398.980212 503.40807 
L 406.784408 538.599634 
L 414.588604 547.699657 
L 422.392799 492.285934 
L 430.196995 469.494281 
L 438.001191 472.154835 
L 445.805387 486.642081 
L 453.609583 485.443026 
L 461.413778 469.690134 
" clip-path="url(#p7460a6b52c)" style="fill: none; stroke: #8c564b; stroke-opacity: 0.7; stroke-width: 1.5; stroke-linecap: square"/>
   </g>
   <g id="line2d_71">
    <path d="M 55.595597 461.044208 
L 63.399792 474.218038 
L 71.203988 513.431673 
L 79.008184 459.248174 
L 86.81238 473.448335 
L 94.616576 489.239469 
L 102.420771 514.899604 
L 110.224967 543.876017 
L 118.029163 506.909297 
L 125.833359 500.354746 
L 133.637555 506.357224 
L 141.44175 510.620585 
L 149.245946 497.755366 
L 157.050142 479.506466 
L 164.854338 503.270545 
L 172.658534 511.244676 
L 180.462729 521.155783 
L 188.266925 489.802366 
L 196.071121 437.884769 
L 203.875317 461.386324 
L 211.679513 443.746894 
L 219.483708 424.78014 
L 227.287904 491.027192 
L 235.0921 405.09899 
L 242.896296 362.969836 
L 250.700492 345.649252 
L 258.504687 336.17267 
L 266.308883 341.957735 
L 274.113079 358.748191 
L 281.917275 421.084331 
L 289.721471 445.059964 
L 297.525667 498.716192 
L 305.329862 432.036157 
L 313.134058 470.828895 
L 320.938254 453.961724 
L 328.74245 472.00126 
L 336.546646 514.412946 
L 344.350841 513.003532 
L 352.155037 493.31163 
L 359.959233 483.663543 
L 367.763429 508.331438 
L 375.567625 539.550013 
L 383.37182 489.655465 
L 391.176016 487.093479 
L 398.980212 508.133476 
L 406.784408 539.681716 
L 414.588604 533.526836 
L 422.392799 497.106031 
L 430.196995 463.814882 
L 438.001191 457.001046 
L 445.805387 487.024801 
L 453.609583 463.422533 
L 461.413778 484.271835 
" clip-path="url(#p7460a6b52c)" style="fill: none; stroke: #e377c2; stroke-opacity: 0.7; stroke-width: 1.5; stroke-linecap: square"/>
   </g>
   <g id="patch_9">
    <path d="M 35.304688 576.718125 
L 35.304688 324.718125 
" style="fill: none; stroke: #000000; stroke-width: 0.8; stroke-linejoin: miter; stroke-linecap: square"/>
   </g>
   <g id="patch_10">
    <path d="M 481.704687 576.718125 
L 481.704687 324.718125 
" style="fill: none; stroke: #000000; stroke-width: 0.8; stroke-linejoin: miter; stroke-linecap: square"/>
   </g>
   <g id="patch_11">
    <path d="M 35.304688 576.718125 
L 481.704687 576.718125 
" style="fill: none; stroke: #000000; stroke-width: 0.8; stroke-linejoin: miter; stroke-linecap: square"/>
   </g>
   <g id="patch_12">
    <path d="M 35.304688 324.718125 
L 481.704687 324.718125 
" style="fill: none; stroke: #000000; stroke-width: 0.8; stroke-linejoin: miter; stroke-linecap: square"/>
   </g>
   <g id="text_36">
    <!-- Radiation comparison of transform w/o error E-plane Phi = 0.0 -->
    <g transform="translate(71.374063 318.718125) scale(0.12 -0.12)">
     <defs>
      <path id="DejaVuSans-45" d="M 628 4666 
L 3578 4666 
L 3578 4134 
L 1259 4134 
L 1259 2753 
L 3481 2753 
L 3481 2222 
L 1259 2222 
L 1259 531 
L 3634 531 
L 3634 0 
L 628 0 
L 628 4666 
z
" transform="scale(0.015625)"/>
     </defs>
     <use xlink:href="#DejaVuSans-52"/>
     <use xlink:href="#DejaVuSans-61" x="67.232422"/>
     <use xlink:href="#DejaVuSans-64" x="128.511719"/>
     <use xlink:href="#DejaVuSans-69" x="191.988281"/>
     <use xlink:href="#DejaVuSans-61" x="219.771484"/>
     <use xlink:href="#DejaVuSans-74" x="281.050781"/>
     <use xlink:href="#DejaVuSans-69" x="320.259766"/>
     <use xlink:href="#DejaVuSans-6f" x="348.042969"/>
     <use xlink:href="#DejaVuSans-6e" x="409.224609"/>
     <use xlink:href="#DejaVuSans-20" x="472.603516"/>
     <use xlink:href="#DejaVuSans-63" x="504.390625"/>
     <use xlink:href="#DejaVuSans-6f" x="559.371094"/>
     <use xlink:href="#DejaVuSans-6d" x="620.552734"/>
     <use xlink:href="#DejaVuSans-70" x="717.964844"/>
     <use xlink:href="#DejaVuSans-61" x="781.441406"/>
     <use xlink:href="#DejaVuSans-72" x="842.720703"/>
     <use xlink:href="#DejaVuSans-69" x="883.833984"/>
     <use xlink:href="#DejaVuSans-73" x="911.617188"/>
     <use xlink:href="#DejaVuSans-6f" x="963.716797"/>
     <use xlink:href="#DejaVuSans-6e" x="1024.898438"/>
     <use xlink:href="#DejaVuSans-20" x="1088.277344"/>
     <use xlink:href="#DejaVuSans-6f" x="1120.064453"/>
     <use xlink:href="#DejaVuSans-66" x="1181.246094"/>
     <use xlink:href="#DejaVuSans-20" x="1216.451172"/>
     <use xlink:href="#DejaVuSans-74" x="1248.238281"/>
     <use xlink:href="#DejaVuSans-72" x="1287.447266"/>
     <use xlink:href="#DejaVuSans-61" x="1328.560547"/>
     <use xlink:href="#DejaVuSans-6e" x="1389.839844"/>
     <use xlink:href="#DejaVuSans-73" x="1453.21875"/>
     <use xlink:href="#DejaVuSans-66" x="1505.318359"/>
     <use xlink:href="#DejaVuSans-6f" x="1540.523438"/>
     <use xlink:href="#DejaVuSans-72" x="1601.705078"/>
     <use xlink:href="#DejaVuSans-6d" x="1641.068359"/>
     <use xlink:href="#DejaVuSans-20" x="1738.480469"/>
     <use xlink:href="#DejaVuSans-77" x="1770.267578"/>
     <use xlink:href="#DejaVuSans-2f" x="1852.054688"/>
     <use xlink:href="#DejaVuSans-6f" x="1885.746094"/>
     <use xlink:href="#DejaVuSans-20" x="1946.927734"/>
     <use xlink:href="#DejaVuSans-65" x="1978.714844"/>
     <use xlink:href="#DejaVuSans-72" x="2040.238281"/>
     <use xlink:href="#DejaVuSans-72" x="2079.601562"/>
     <use xlink:href="#DejaVuSans-6f" x="2118.464844"/>
     <use xlink:href="#DejaVuSans-72" x="2179.646484"/>
     <use xlink:href="#DejaVuSans-20" x="2220.759766"/>
     <use xlink:href="#DejaVuSans-45" x="2252.546875"/>
     <use xlink:href="#DejaVuSans-2d" x="2315.730469"/>
     <use xlink:href="#DejaVuSans-70" x="2351.814453"/>
     <use xlink:href="#DejaVuSans-6c" x="2415.291016"/>
     <use xlink:href="#DejaVuSans-61" x="2443.074219"/>
     <use xlink:href="#DejaVuSans-6e" x="2504.353516"/>
     <use xlink:href="#DejaVuSans-65" x="2567.732422"/>
     <use xlink:href="#DejaVuSans-20" x="2629.255859"/>
     <use xlink:href="#DejaVuSans-50" x="2661.042969"/>
     <use xlink:href="#DejaVuSans-68" x="2721.345703"/>
     <use xlink:href="#DejaVuSans-69" x="2784.724609"/>
     <use xlink:href="#DejaVuSans-20" x="2812.507812"/>
     <use xlink:href="#DejaVuSans-3d" x="2844.294922"/>
     <use xlink:href="#DejaVuSans-20" x="2928.083984"/>
     <use xlink:href="#DejaVuSans-30" x="2959.871094"/>
     <use xlink:href="#DejaVuSans-2e" x="3023.494141"/>
     <use xlink:href="#DejaVuSans-30" x="3055.28125"/>
    </g>
   </g>
   <g id="legend_2">
    <g id="patch_13">
     <path d="M 295.271875 435.465 
L 474.704687 435.465 
Q 476.704687 435.465 476.704687 433.465 
L 476.704687 331.718125 
Q 476.704687 329.718125 474.704687 329.718125 
L 295.271875 329.718125 
Q 293.271875 329.718125 293.271875 331.718125 
L 293.271875 433.465 
Q 293.271875 435.465 295.271875 435.465 
z
" style="fill: #ffffff; opacity: 0.8; stroke: #cccccc; stroke-linejoin: miter"/>
    </g>
    <g id="line2d_72">
     <path d="M 297.271875 337.816562 
L 307.271875 337.816562 
L 317.271875 337.816562 
" style="fill: none; stroke: #1f77b4; stroke-opacity: 0.7; stroke-width: 1.5; stroke-linecap: square"/>
    </g>
    <g id="text_37">
     <!-- Radiation without errors -->
     <g transform="translate(325.271875 341.316562) scale(0.1 -0.1)">
      <use xlink:href="#DejaVuSans-52"/>
      <use xlink:href="#DejaVuSans-61" x="67.232422"/>
      <use xlink:href="#DejaVuSans-64" x="128.511719"/>
      <use xlink:href="#DejaVuSans-69" x="191.988281"/>
      <use xlink:href="#DejaVuSans-61" x="219.771484"/>
      <use xlink:href="#DejaVuSans-74" x="281.050781"/>
      <use xlink:href="#DejaVuSans-69" x="320.259766"/>
      <use xlink:href="#DejaVuSans-6f" x="348.042969"/>
      <use xlink:href="#DejaVuSans-6e" x="409.224609"/>
      <use xlink:href="#DejaVuSans-20" x="472.603516"/>
      <use xlink:href="#DejaVuSans-77" x="504.390625"/>
      <use xlink:href="#DejaVuSans-69" x="586.177734"/>
      <use xlink:href="#DejaVuSans-74" x="613.960938"/>
      <use xlink:href="#DejaVuSans-68" x="653.169922"/>
      <use xlink:href="#DejaVuSans-6f" x="716.548828"/>
      <use xlink:href="#DejaVuSans-75" x="777.730469"/>
      <use xlink:href="#DejaVuSans-74" x="841.109375"/>
      <use xlink:href="#DejaVuSans-20" x="880.318359"/>
      <use xlink:href="#DejaVuSans-65" x="912.105469"/>
      <use xlink:href="#DejaVuSans-72" x="973.628906"/>
      <use xlink:href="#DejaVuSans-72" x="1012.992188"/>
      <use xlink:href="#DejaVuSans-6f" x="1051.855469"/>
      <use xlink:href="#DejaVuSans-72" x="1113.037109"/>
      <use xlink:href="#DejaVuSans-73" x="1154.150391"/>
     </g>
    </g>
    <g id="line2d_73">
     <path d="M 297.271875 352.494687 
L 307.271875 352.494687 
L 317.271875 352.494687 
" style="fill: none; stroke: #ff7f0e; stroke-opacity: 0.7; stroke-width: 1.5; stroke-linecap: square"/>
    </g>
    <g id="text_38">
     <!-- Radiation with errors (1mm) -->
     <g transform="translate(325.271875 355.994687) scale(0.1 -0.1)">
      <use xlink:href="#DejaVuSans-52"/>
      <use xlink:href="#DejaVuSans-61" x="67.232422"/>
      <use xlink:href="#DejaVuSans-64" x="128.511719"/>
      <use xlink:href="#DejaVuSans-69" x="191.988281"/>
      <use xlink:href="#DejaVuSans-61" x="219.771484"/>
      <use xlink:href="#DejaVuSans-74" x="281.050781"/>
      <use xlink:href="#DejaVuSans-69" x="320.259766"/>
      <use xlink:href="#DejaVuSans-6f" x="348.042969"/>
      <use xlink:href="#DejaVuSans-6e" x="409.224609"/>
      <use xlink:href="#DejaVuSans-20" x="472.603516"/>
      <use xlink:href="#DejaVuSans-77" x="504.390625"/>
      <use xlink:href="#DejaVuSans-69" x="586.177734"/>
      <use xlink:href="#DejaVuSans-74" x="613.960938"/>
      <use xlink:href="#DejaVuSans-68" x="653.169922"/>
      <use xlink:href="#DejaVuSans-20" x="716.548828"/>
      <use xlink:href="#DejaVuSans-65" x="748.335938"/>
      <use xlink:href="#DejaVuSans-72" x="809.859375"/>
      <use xlink:href="#DejaVuSans-72" x="849.222656"/>
      <use xlink:href="#DejaVuSans-6f" x="888.085938"/>
      <use xlink:href="#DejaVuSans-72" x="949.267578"/>
      <use xlink:href="#DejaVuSans-73" x="990.380859"/>
      <use xlink:href="#DejaVuSans-20" x="1042.480469"/>
      <use xlink:href="#DejaVuSans-28" x="1074.267578"/>
      <use xlink:href="#DejaVuSans-31" x="1113.28125"/>
      <use xlink:href="#DejaVuSans-6d" x="1176.904297"/>
      <use xlink:href="#DejaVuSans-6d" x="1274.316406"/>
      <use xlink:href="#DejaVuSans-29" x="1371.728516"/>
     </g>
    </g>
    <g id="line2d_74">
     <path d="M 297.271875 367.172812 
L 307.271875 367.172812 
L 317.271875 367.172812 
" style="fill: none; stroke: #2ca02c; stroke-opacity: 0.7; stroke-width: 1.5; stroke-linecap: square"/>
    </g>
    <g id="text_39">
     <!-- Radiation with errors (5mm) -->
     <g transform="translate(325.271875 370.672812) scale(0.1 -0.1)">
      <use xlink:href="#DejaVuSans-52"/>
      <use xlink:href="#DejaVuSans-61" x="67.232422"/>
      <use xlink:href="#DejaVuSans-64" x="128.511719"/>
      <use xlink:href="#DejaVuSans-69" x="191.988281"/>
      <use xlink:href="#DejaVuSans-61" x="219.771484"/>
      <use xlink:href="#DejaVuSans-74" x="281.050781"/>
      <use xlink:href="#DejaVuSans-69" x="320.259766"/>
      <use xlink:href="#DejaVuSans-6f" x="348.042969"/>
      <use xlink:href="#DejaVuSans-6e" x="409.224609"/>
      <use xlink:href="#DejaVuSans-20" x="472.603516"/>
      <use xlink:href="#DejaVuSans-77" x="504.390625"/>
      <use xlink:href="#DejaVuSans-69" x="586.177734"/>
      <use xlink:href="#DejaVuSans-74" x="613.960938"/>
      <use xlink:href="#DejaVuSans-68" x="653.169922"/>
      <use xlink:href="#DejaVuSans-20" x="716.548828"/>
      <use xlink:href="#DejaVuSans-65" x="748.335938"/>
      <use xlink:href="#DejaVuSans-72" x="809.859375"/>
      <use xlink:href="#DejaVuSans-72" x="849.222656"/>
      <use xlink:href="#DejaVuSans-6f" x="888.085938"/>
      <use xlink:href="#DejaVuSans-72" x="949.267578"/>
      <use xlink:href="#DejaVuSans-73" x="990.380859"/>
      <use xlink:href="#DejaVuSans-20" x="1042.480469"/>
      <use xlink:href="#DejaVuSans-28" x="1074.267578"/>
      <use xlink:href="#DejaVuSans-35" x="1113.28125"/>
      <use xlink:href="#DejaVuSans-6d" x="1176.904297"/>
      <use xlink:href="#DejaVuSans-6d" x="1274.316406"/>
      <use xlink:href="#DejaVuSans-29" x="1371.728516"/>
     </g>
    </g>
    <g id="line2d_75">
     <path d="M 297.271875 381.850937 
L 307.271875 381.850937 
L 317.271875 381.850937 
" style="fill: none; stroke: #d62728; stroke-opacity: 0.7; stroke-width: 1.5; stroke-linecap: square"/>
    </g>
    <g id="text_40">
     <!-- Radiation with errors (10mm) -->
     <g transform="translate(325.271875 385.350937) scale(0.1 -0.1)">
      <use xlink:href="#DejaVuSans-52"/>
      <use xlink:href="#DejaVuSans-61" x="67.232422"/>
      <use xlink:href="#DejaVuSans-64" x="128.511719"/>
      <use xlink:href="#DejaVuSans-69" x="191.988281"/>
      <use xlink:href="#DejaVuSans-61" x="219.771484"/>
      <use xlink:href="#DejaVuSans-74" x="281.050781"/>
      <use xlink:href="#DejaVuSans-69" x="320.259766"/>
      <use xlink:href="#DejaVuSans-6f" x="348.042969"/>
      <use xlink:href="#DejaVuSans-6e" x="409.224609"/>
      <use xlink:href="#DejaVuSans-20" x="472.603516"/>
      <use xlink:href="#DejaVuSans-77" x="504.390625"/>
      <use xlink:href="#DejaVuSans-69" x="586.177734"/>
      <use xlink:href="#DejaVuSans-74" x="613.960938"/>
      <use xlink:href="#DejaVuSans-68" x="653.169922"/>
      <use xlink:href="#DejaVuSans-20" x="716.548828"/>
      <use xlink:href="#DejaVuSans-65" x="748.335938"/>
      <use xlink:href="#DejaVuSans-72" x="809.859375"/>
      <use xlink:href="#DejaVuSans-72" x="849.222656"/>
      <use xlink:href="#DejaVuSans-6f" x="888.085938"/>
      <use xlink:href="#DejaVuSans-72" x="949.267578"/>
      <use xlink:href="#DejaVuSans-73" x="990.380859"/>
      <use xlink:href="#DejaVuSans-20" x="1042.480469"/>
      <use xlink:href="#DejaVuSans-28" x="1074.267578"/>
      <use xlink:href="#DejaVuSans-31" x="1113.28125"/>
      <use xlink:href="#DejaVuSans-30" x="1176.904297"/>
      <use xlink:href="#DejaVuSans-6d" x="1240.527344"/>
      <use xlink:href="#DejaVuSans-6d" x="1337.939453"/>
      <use xlink:href="#DejaVuSans-29" x="1435.351562"/>
     </g>
    </g>
    <g id="line2d_76">
     <path d="M 297.271875 396.529063 
L 307.271875 396.529063 
L 317.271875 396.529063 
" style="fill: none; stroke: #9467bd; stroke-opacity: 0.7; stroke-width: 1.5; stroke-linecap: square"/>
    </g>
    <g id="text_41">
     <!-- Radiation with errors (20mm) -->
     <g transform="translate(325.271875 400.029063) scale(0.1 -0.1)">
      <use xlink:href="#DejaVuSans-52"/>
      <use xlink:href="#DejaVuSans-61" x="67.232422"/>
      <use xlink:href="#DejaVuSans-64" x="128.511719"/>
      <use xlink:href="#DejaVuSans-69" x="191.988281"/>
      <use xlink:href="#DejaVuSans-61" x="219.771484"/>
      <use xlink:href="#DejaVuSans-74" x="281.050781"/>
      <use xlink:href="#DejaVuSans-69" x="320.259766"/>
      <use xlink:href="#DejaVuSans-6f" x="348.042969"/>
      <use xlink:href="#DejaVuSans-6e" x="409.224609"/>
      <use xlink:href="#DejaVuSans-20" x="472.603516"/>
      <use xlink:href="#DejaVuSans-77" x="504.390625"/>
      <use xlink:href="#DejaVuSans-69" x="586.177734"/>
      <use xlink:href="#DejaVuSans-74" x="613.960938"/>
      <use xlink:href="#DejaVuSans-68" x="653.169922"/>
      <use xlink:href="#DejaVuSans-20" x="716.548828"/>
      <use xlink:href="#DejaVuSans-65" x="748.335938"/>
      <use xlink:href="#DejaVuSans-72" x="809.859375"/>
      <use xlink:href="#DejaVuSans-72" x="849.222656"/>
      <use xlink:href="#DejaVuSans-6f" x="888.085938"/>
      <use xlink:href="#DejaVuSans-72" x="949.267578"/>
      <use xlink:href="#DejaVuSans-73" x="990.380859"/>
      <use xlink:href="#DejaVuSans-20" x="1042.480469"/>
      <use xlink:href="#DejaVuSans-28" x="1074.267578"/>
      <use xlink:href="#DejaVuSans-32" x="1113.28125"/>
      <use xlink:href="#DejaVuSans-30" x="1176.904297"/>
      <use xlink:href="#DejaVuSans-6d" x="1240.527344"/>
      <use xlink:href="#DejaVuSans-6d" x="1337.939453"/>
      <use xlink:href="#DejaVuSans-29" x="1435.351562"/>
     </g>
    </g>
    <g id="line2d_77">
     <path d="M 297.271875 411.207187 
L 307.271875 411.207187 
L 317.271875 411.207187 
" style="fill: none; stroke: #8c564b; stroke-opacity: 0.7; stroke-width: 1.5; stroke-linecap: square"/>
    </g>
    <g id="text_42">
     <!-- Radiation with errors (30mm) -->
     <g transform="translate(325.271875 414.707187) scale(0.1 -0.1)">
      <use xlink:href="#DejaVuSans-52"/>
      <use xlink:href="#DejaVuSans-61" x="67.232422"/>
      <use xlink:href="#DejaVuSans-64" x="128.511719"/>
      <use xlink:href="#DejaVuSans-69" x="191.988281"/>
      <use xlink:href="#DejaVuSans-61" x="219.771484"/>
      <use xlink:href="#DejaVuSans-74" x="281.050781"/>
      <use xlink:href="#DejaVuSans-69" x="320.259766"/>
      <use xlink:href="#DejaVuSans-6f" x="348.042969"/>
      <use xlink:href="#DejaVuSans-6e" x="409.224609"/>
      <use xlink:href="#DejaVuSans-20" x="472.603516"/>
      <use xlink:href="#DejaVuSans-77" x="504.390625"/>
      <use xlink:href="#DejaVuSans-69" x="586.177734"/>
      <use xlink:href="#DejaVuSans-74" x="613.960938"/>
      <use xlink:href="#DejaVuSans-68" x="653.169922"/>
      <use xlink:href="#DejaVuSans-20" x="716.548828"/>
      <use xlink:href="#DejaVuSans-65" x="748.335938"/>
      <use xlink:href="#DejaVuSans-72" x="809.859375"/>
      <use xlink:href="#DejaVuSans-72" x="849.222656"/>
      <use xlink:href="#DejaVuSans-6f" x="888.085938"/>
      <use xlink:href="#DejaVuSans-72" x="949.267578"/>
      <use xlink:href="#DejaVuSans-73" x="990.380859"/>
      <use xlink:href="#DejaVuSans-20" x="1042.480469"/>
      <use xlink:href="#DejaVuSans-28" x="1074.267578"/>
      <use xlink:href="#DejaVuSans-33" x="1113.28125"/>
      <use xlink:href="#DejaVuSans-30" x="1176.904297"/>
      <use xlink:href="#DejaVuSans-6d" x="1240.527344"/>
      <use xlink:href="#DejaVuSans-6d" x="1337.939453"/>
      <use xlink:href="#DejaVuSans-29" x="1435.351562"/>
     </g>
    </g>
    <g id="line2d_78">
     <path d="M 297.271875 425.885312 
L 307.271875 425.885312 
L 317.271875 425.885312 
" style="fill: none; stroke: #e377c2; stroke-opacity: 0.7; stroke-width: 1.5; stroke-linecap: square"/>
    </g>
    <g id="text_43">
     <!-- Radiation with errors (50mm) -->
     <g transform="translate(325.271875 429.385312) scale(0.1 -0.1)">
      <use xlink:href="#DejaVuSans-52"/>
      <use xlink:href="#DejaVuSans-61" x="67.232422"/>
      <use xlink:href="#DejaVuSans-64" x="128.511719"/>
      <use xlink:href="#DejaVuSans-69" x="191.988281"/>
      <use xlink:href="#DejaVuSans-61" x="219.771484"/>
      <use xlink:href="#DejaVuSans-74" x="281.050781"/>
      <use xlink:href="#DejaVuSans-69" x="320.259766"/>
      <use xlink:href="#DejaVuSans-6f" x="348.042969"/>
      <use xlink:href="#DejaVuSans-6e" x="409.224609"/>
      <use xlink:href="#DejaVuSans-20" x="472.603516"/>
      <use xlink:href="#DejaVuSans-77" x="504.390625"/>
      <use xlink:href="#DejaVuSans-69" x="586.177734"/>
      <use xlink:href="#DejaVuSans-74" x="613.960938"/>
      <use xlink:href="#DejaVuSans-68" x="653.169922"/>
      <use xlink:href="#DejaVuSans-20" x="716.548828"/>
      <use xlink:href="#DejaVuSans-65" x="748.335938"/>
      <use xlink:href="#DejaVuSans-72" x="809.859375"/>
      <use xlink:href="#DejaVuSans-72" x="849.222656"/>
      <use xlink:href="#DejaVuSans-6f" x="888.085938"/>
      <use xlink:href="#DejaVuSans-72" x="949.267578"/>
      <use xlink:href="#DejaVuSans-73" x="990.380859"/>
      <use xlink:href="#DejaVuSans-20" x="1042.480469"/>
      <use xlink:href="#DejaVuSans-28" x="1074.267578"/>
      <use xlink:href="#DejaVuSans-35" x="1113.28125"/>
      <use xlink:href="#DejaVuSans-30" x="1176.904297"/>
      <use xlink:href="#DejaVuSans-6d" x="1240.527344"/>
      <use xlink:href="#DejaVuSans-6d" x="1337.939453"/>
      <use xlink:href="#DejaVuSans-29" x="1435.351562"/>
     </g>
    </g>
   </g>
  </g>
 </g>
 <defs>
  <clipPath id="p0372360fb2">
   <rect x="35.304688" y="22.318125" width="446.4" height="252"/>
  </clipPath>
  <clipPath id="p7460a6b52c">
   <rect x="35.304688" y="324.718125" width="446.4" height="252"/>
  </clipPath>
 </defs>
</svg>
