<?xml version="1.0" encoding="utf-8" standalone="no"?>
<!DOCTYPE svg PUBLIC "-//W3C//DTD SVG 1.1//EN"
  "http://www.w3.org/Graphics/SVG/1.1/DTD/svg11.dtd">
<svg xmlns:xlink="http://www.w3.org/1999/xlink" width="720pt" height="432pt" viewBox="0 0 720 432" xmlns="http://www.w3.org/2000/svg" version="1.1">
 <metadata>
  <rdf:RDF xmlns:dc="http://purl.org/dc/elements/1.1/" xmlns:cc="http://creativecommons.org/ns#" xmlns:rdf="http://www.w3.org/1999/02/22-rdf-syntax-ns#">
   <cc:Work>
    <dc:type rdf:resource="http://purl.org/dc/dcmitype/StillImage"/>
    <dc:date>2024-12-16T10:32:07.897491</dc:date>
    <dc:format>image/svg+xml</dc:format>
    <dc:creator>
     <cc:Agent>
      <dc:title>Matplotlib v3.8.3, https://matplotlib.org/</dc:title>
     </cc:Agent>
    </dc:creator>
   </cc:Work>
  </rdf:RDF>
 </metadata>
 <defs>
  <style type="text/css">*{stroke-linejoin: round; stroke-linecap: butt}</style>
 </defs>
 <g id="figure_1">
  <g id="patch_1">
   <path d="M 0 432 
L 720 432 
L 720 0 
L 0 0 
z
" style="fill: #ffffff"/>
  </g>
  <g id="axes_1">
   <g id="patch_2">
    <path d="M 90 384.48 
L 648 384.48 
L 648 51.84 
L 90 51.84 
z
" style="fill: #ffffff"/>
   </g>
   <g id="matplotlib.axis_1">
    <g id="xtick_1">
     <g id="line2d_1">
      <path d="M 115.363636 384.48 
L 115.363636 51.84 
" clip-path="url(#p81550db4c1)" style="fill: none; stroke: #b0b0b0; stroke-width: 0.8; stroke-linecap: square"/>
     </g>
     <g id="line2d_2">
      <defs>
       <path id="m7fa2355839" d="M 0 0 
L 0 3.5 
" style="stroke: #000000; stroke-width: 0.8"/>
      </defs>
      <g>
       <use xlink:href="#m7fa2355839" x="115.363636" y="384.48" style="stroke: #000000; stroke-width: 0.8"/>
      </g>
     </g>
     <g id="text_1">
      <!-- 0 -->
      <g transform="translate(112.182386 399.078438) scale(0.1 -0.1)">
       <defs>
        <path id="DejaVuSans-30" d="M 2034 4250 
Q 1547 4250 1301 3770 
Q 1056 3291 1056 2328 
Q 1056 1369 1301 889 
Q 1547 409 2034 409 
Q 2525 409 2770 889 
Q 3016 1369 3016 2328 
Q 3016 3291 2770 3770 
Q 2525 4250 2034 4250 
z
M 2034 4750 
Q 2819 4750 3233 4129 
Q 3647 3509 3647 2328 
Q 3647 1150 3233 529 
Q 2819 -91 2034 -91 
Q 1250 -91 836 529 
Q 422 1150 422 2328 
Q 422 3509 836 4129 
Q 1250 4750 2034 4750 
z
" transform="scale(0.015625)"/>
       </defs>
       <use xlink:href="#DejaVuSans-30"/>
      </g>
     </g>
    </g>
    <g id="xtick_2">
     <g id="line2d_3">
      <path d="M 217.842975 384.48 
L 217.842975 51.84 
" clip-path="url(#p81550db4c1)" style="fill: none; stroke: #b0b0b0; stroke-width: 0.8; stroke-linecap: square"/>
     </g>
     <g id="line2d_4">
      <g>
       <use xlink:href="#m7fa2355839" x="217.842975" y="384.48" style="stroke: #000000; stroke-width: 0.8"/>
      </g>
     </g>
     <g id="text_2">
      <!-- 20 -->
      <g transform="translate(211.480475 399.078438) scale(0.1 -0.1)">
       <defs>
        <path id="DejaVuSans-32" d="M 1228 531 
L 3431 531 
L 3431 0 
L 469 0 
L 469 531 
Q 828 903 1448 1529 
Q 2069 2156 2228 2338 
Q 2531 2678 2651 2914 
Q 2772 3150 2772 3378 
Q 2772 3750 2511 3984 
Q 2250 4219 1831 4219 
Q 1534 4219 1204 4116 
Q 875 4013 500 3803 
L 500 4441 
Q 881 4594 1212 4672 
Q 1544 4750 1819 4750 
Q 2544 4750 2975 4387 
Q 3406 4025 3406 3419 
Q 3406 3131 3298 2873 
Q 3191 2616 2906 2266 
Q 2828 2175 2409 1742 
Q 1991 1309 1228 531 
z
" transform="scale(0.015625)"/>
       </defs>
       <use xlink:href="#DejaVuSans-32"/>
       <use xlink:href="#DejaVuSans-30" x="63.623047"/>
      </g>
     </g>
    </g>
    <g id="xtick_3">
     <g id="line2d_5">
      <path d="M 320.322314 384.48 
L 320.322314 51.84 
" clip-path="url(#p81550db4c1)" style="fill: none; stroke: #b0b0b0; stroke-width: 0.8; stroke-linecap: square"/>
     </g>
     <g id="line2d_6">
      <g>
       <use xlink:href="#m7fa2355839" x="320.322314" y="384.48" style="stroke: #000000; stroke-width: 0.8"/>
      </g>
     </g>
     <g id="text_3">
      <!-- 40 -->
      <g transform="translate(313.959814 399.078438) scale(0.1 -0.1)">
       <defs>
        <path id="DejaVuSans-34" d="M 2419 4116 
L 825 1625 
L 2419 1625 
L 2419 4116 
z
M 2253 4666 
L 3047 4666 
L 3047 1625 
L 3713 1625 
L 3713 1100 
L 3047 1100 
L 3047 0 
L 2419 0 
L 2419 1100 
L 313 1100 
L 313 1709 
L 2253 4666 
z
" transform="scale(0.015625)"/>
       </defs>
       <use xlink:href="#DejaVuSans-34"/>
       <use xlink:href="#DejaVuSans-30" x="63.623047"/>
      </g>
     </g>
    </g>
    <g id="xtick_4">
     <g id="line2d_7">
      <path d="M 422.801653 384.48 
L 422.801653 51.84 
" clip-path="url(#p81550db4c1)" style="fill: none; stroke: #b0b0b0; stroke-width: 0.8; stroke-linecap: square"/>
     </g>
     <g id="line2d_8">
      <g>
       <use xlink:href="#m7fa2355839" x="422.801653" y="384.48" style="stroke: #000000; stroke-width: 0.8"/>
      </g>
     </g>
     <g id="text_4">
      <!-- 60 -->
      <g transform="translate(416.439153 399.078438) scale(0.1 -0.1)">
       <defs>
        <path id="DejaVuSans-36" d="M 2113 2584 
Q 1688 2584 1439 2293 
Q 1191 2003 1191 1497 
Q 1191 994 1439 701 
Q 1688 409 2113 409 
Q 2538 409 2786 701 
Q 3034 994 3034 1497 
Q 3034 2003 2786 2293 
Q 2538 2584 2113 2584 
z
M 3366 4563 
L 3366 3988 
Q 3128 4100 2886 4159 
Q 2644 4219 2406 4219 
Q 1781 4219 1451 3797 
Q 1122 3375 1075 2522 
Q 1259 2794 1537 2939 
Q 1816 3084 2150 3084 
Q 2853 3084 3261 2657 
Q 3669 2231 3669 1497 
Q 3669 778 3244 343 
Q 2819 -91 2113 -91 
Q 1303 -91 875 529 
Q 447 1150 447 2328 
Q 447 3434 972 4092 
Q 1497 4750 2381 4750 
Q 2619 4750 2861 4703 
Q 3103 4656 3366 4563 
z
" transform="scale(0.015625)"/>
       </defs>
       <use xlink:href="#DejaVuSans-36"/>
       <use xlink:href="#DejaVuSans-30" x="63.623047"/>
      </g>
     </g>
    </g>
    <g id="xtick_5">
     <g id="line2d_9">
      <path d="M 525.280992 384.48 
L 525.280992 51.84 
" clip-path="url(#p81550db4c1)" style="fill: none; stroke: #b0b0b0; stroke-width: 0.8; stroke-linecap: square"/>
     </g>
     <g id="line2d_10">
      <g>
       <use xlink:href="#m7fa2355839" x="525.280992" y="384.48" style="stroke: #000000; stroke-width: 0.8"/>
      </g>
     </g>
     <g id="text_5">
      <!-- 80 -->
      <g transform="translate(518.918492 399.078438) scale(0.1 -0.1)">
       <defs>
        <path id="DejaVuSans-38" d="M 2034 2216 
Q 1584 2216 1326 1975 
Q 1069 1734 1069 1313 
Q 1069 891 1326 650 
Q 1584 409 2034 409 
Q 2484 409 2743 651 
Q 3003 894 3003 1313 
Q 3003 1734 2745 1975 
Q 2488 2216 2034 2216 
z
M 1403 2484 
Q 997 2584 770 2862 
Q 544 3141 544 3541 
Q 544 4100 942 4425 
Q 1341 4750 2034 4750 
Q 2731 4750 3128 4425 
Q 3525 4100 3525 3541 
Q 3525 3141 3298 2862 
Q 3072 2584 2669 2484 
Q 3125 2378 3379 2068 
Q 3634 1759 3634 1313 
Q 3634 634 3220 271 
Q 2806 -91 2034 -91 
Q 1263 -91 848 271 
Q 434 634 434 1313 
Q 434 1759 690 2068 
Q 947 2378 1403 2484 
z
M 1172 3481 
Q 1172 3119 1398 2916 
Q 1625 2713 2034 2713 
Q 2441 2713 2670 2916 
Q 2900 3119 2900 3481 
Q 2900 3844 2670 4047 
Q 2441 4250 2034 4250 
Q 1625 4250 1398 4047 
Q 1172 3844 1172 3481 
z
" transform="scale(0.015625)"/>
       </defs>
       <use xlink:href="#DejaVuSans-38"/>
       <use xlink:href="#DejaVuSans-30" x="63.623047"/>
      </g>
     </g>
    </g>
    <g id="xtick_6">
     <g id="line2d_11">
      <path d="M 627.760331 384.48 
L 627.760331 51.84 
" clip-path="url(#p81550db4c1)" style="fill: none; stroke: #b0b0b0; stroke-width: 0.8; stroke-linecap: square"/>
     </g>
     <g id="line2d_12">
      <g>
       <use xlink:href="#m7fa2355839" x="627.760331" y="384.48" style="stroke: #000000; stroke-width: 0.8"/>
      </g>
     </g>
     <g id="text_6">
      <!-- 100 -->
      <g transform="translate(618.216581 399.078438) scale(0.1 -0.1)">
       <defs>
        <path id="DejaVuSans-31" d="M 794 531 
L 1825 531 
L 1825 4091 
L 703 3866 
L 703 4441 
L 1819 4666 
L 2450 4666 
L 2450 531 
L 3481 531 
L 3481 0 
L 794 0 
L 794 531 
z
" transform="scale(0.015625)"/>
       </defs>
       <use xlink:href="#DejaVuSans-31"/>
       <use xlink:href="#DejaVuSans-30" x="63.623047"/>
       <use xlink:href="#DejaVuSans-30" x="127.246094"/>
      </g>
     </g>
    </g>
    <g id="text_7">
     <!-- Step -->
     <g transform="translate(357.614844 412.756563) scale(0.1 -0.1)">
      <defs>
       <path id="DejaVuSans-53" d="M 3425 4513 
L 3425 3897 
Q 3066 4069 2747 4153 
Q 2428 4238 2131 4238 
Q 1616 4238 1336 4038 
Q 1056 3838 1056 3469 
Q 1056 3159 1242 3001 
Q 1428 2844 1947 2747 
L 2328 2669 
Q 3034 2534 3370 2195 
Q 3706 1856 3706 1288 
Q 3706 609 3251 259 
Q 2797 -91 1919 -91 
Q 1588 -91 1214 -16 
Q 841 59 441 206 
L 441 856 
Q 825 641 1194 531 
Q 1563 422 1919 422 
Q 2459 422 2753 634 
Q 3047 847 3047 1241 
Q 3047 1584 2836 1778 
Q 2625 1972 2144 2069 
L 1759 2144 
Q 1053 2284 737 2584 
Q 422 2884 422 3419 
Q 422 4038 858 4394 
Q 1294 4750 2059 4750 
Q 2388 4750 2728 4690 
Q 3069 4631 3425 4513 
z
" transform="scale(0.015625)"/>
       <path id="DejaVuSans-74" d="M 1172 4494 
L 1172 3500 
L 2356 3500 
L 2356 3053 
L 1172 3053 
L 1172 1153 
Q 1172 725 1289 603 
Q 1406 481 1766 481 
L 2356 481 
L 2356 0 
L 1766 0 
Q 1100 0 847 248 
Q 594 497 594 1153 
L 594 3053 
L 172 3053 
L 172 3500 
L 594 3500 
L 594 4494 
L 1172 4494 
z
" transform="scale(0.015625)"/>
       <path id="DejaVuSans-65" d="M 3597 1894 
L 3597 1613 
L 953 1613 
Q 991 1019 1311 708 
Q 1631 397 2203 397 
Q 2534 397 2845 478 
Q 3156 559 3463 722 
L 3463 178 
Q 3153 47 2828 -22 
Q 2503 -91 2169 -91 
Q 1331 -91 842 396 
Q 353 884 353 1716 
Q 353 2575 817 3079 
Q 1281 3584 2069 3584 
Q 2775 3584 3186 3129 
Q 3597 2675 3597 1894 
z
M 3022 2063 
Q 3016 2534 2758 2815 
Q 2500 3097 2075 3097 
Q 1594 3097 1305 2825 
Q 1016 2553 972 2059 
L 3022 2063 
z
" transform="scale(0.015625)"/>
       <path id="DejaVuSans-70" d="M 1159 525 
L 1159 -1331 
L 581 -1331 
L 581 3500 
L 1159 3500 
L 1159 2969 
Q 1341 3281 1617 3432 
Q 1894 3584 2278 3584 
Q 2916 3584 3314 3078 
Q 3713 2572 3713 1747 
Q 3713 922 3314 415 
Q 2916 -91 2278 -91 
Q 1894 -91 1617 61 
Q 1341 213 1159 525 
z
M 3116 1747 
Q 3116 2381 2855 2742 
Q 2594 3103 2138 3103 
Q 1681 3103 1420 2742 
Q 1159 2381 1159 1747 
Q 1159 1113 1420 752 
Q 1681 391 2138 391 
Q 2594 391 2855 752 
Q 3116 1113 3116 1747 
z
" transform="scale(0.015625)"/>
      </defs>
      <use xlink:href="#DejaVuSans-53"/>
      <use xlink:href="#DejaVuSans-74" x="63.476562"/>
      <use xlink:href="#DejaVuSans-65" x="102.685547"/>
      <use xlink:href="#DejaVuSans-70" x="164.208984"/>
     </g>
    </g>
   </g>
   <g id="matplotlib.axis_2">
    <g id="ytick_1">
     <g id="line2d_13">
      <path d="M 90 369.65566 
L 648 369.65566 
" clip-path="url(#p81550db4c1)" style="fill: none; stroke: #b0b0b0; stroke-width: 0.8; stroke-linecap: square"/>
     </g>
     <g id="line2d_14">
      <defs>
       <path id="m8849b630b2" d="M 0 0 
L -3.5 0 
" style="stroke: #000000; stroke-width: 0.8"/>
      </defs>
      <g>
       <use xlink:href="#m8849b630b2" x="90" y="369.65566" style="stroke: #000000; stroke-width: 0.8"/>
      </g>
     </g>
     <g id="text_8">
      <!-- 0.900 -->
      <g transform="translate(54.371875 373.454878) scale(0.1 -0.1)">
       <defs>
        <path id="DejaVuSans-2e" d="M 684 794 
L 1344 794 
L 1344 0 
L 684 0 
L 684 794 
z
" transform="scale(0.015625)"/>
        <path id="DejaVuSans-39" d="M 703 97 
L 703 672 
Q 941 559 1184 500 
Q 1428 441 1663 441 
Q 2288 441 2617 861 
Q 2947 1281 2994 2138 
Q 2813 1869 2534 1725 
Q 2256 1581 1919 1581 
Q 1219 1581 811 2004 
Q 403 2428 403 3163 
Q 403 3881 828 4315 
Q 1253 4750 1959 4750 
Q 2769 4750 3195 4129 
Q 3622 3509 3622 2328 
Q 3622 1225 3098 567 
Q 2575 -91 1691 -91 
Q 1453 -91 1209 -44 
Q 966 3 703 97 
z
M 1959 2075 
Q 2384 2075 2632 2365 
Q 2881 2656 2881 3163 
Q 2881 3666 2632 3958 
Q 2384 4250 1959 4250 
Q 1534 4250 1286 3958 
Q 1038 3666 1038 3163 
Q 1038 2656 1286 2365 
Q 1534 2075 1959 2075 
z
" transform="scale(0.015625)"/>
       </defs>
       <use xlink:href="#DejaVuSans-30"/>
       <use xlink:href="#DejaVuSans-2e" x="63.623047"/>
       <use xlink:href="#DejaVuSans-39" x="95.410156"/>
       <use xlink:href="#DejaVuSans-30" x="159.033203"/>
       <use xlink:href="#DejaVuSans-30" x="222.65625"/>
      </g>
     </g>
    </g>
    <g id="ytick_2">
     <g id="line2d_15">
      <path d="M 90 331.811218 
L 648 331.811218 
" clip-path="url(#p81550db4c1)" style="fill: none; stroke: #b0b0b0; stroke-width: 0.8; stroke-linecap: square"/>
     </g>
     <g id="line2d_16">
      <g>
       <use xlink:href="#m8849b630b2" x="90" y="331.811218" style="stroke: #000000; stroke-width: 0.8"/>
      </g>
     </g>
     <g id="text_9">
      <!-- 0.925 -->
      <g transform="translate(54.371875 335.610437) scale(0.1 -0.1)">
       <defs>
        <path id="DejaVuSans-35" d="M 691 4666 
L 3169 4666 
L 3169 4134 
L 1269 4134 
L 1269 2991 
Q 1406 3038 1543 3061 
Q 1681 3084 1819 3084 
Q 2600 3084 3056 2656 
Q 3513 2228 3513 1497 
Q 3513 744 3044 326 
Q 2575 -91 1722 -91 
Q 1428 -91 1123 -41 
Q 819 9 494 109 
L 494 744 
Q 775 591 1075 516 
Q 1375 441 1709 441 
Q 2250 441 2565 725 
Q 2881 1009 2881 1497 
Q 2881 1984 2565 2268 
Q 2250 2553 1709 2553 
Q 1456 2553 1204 2497 
Q 953 2441 691 2322 
L 691 4666 
z
" transform="scale(0.015625)"/>
       </defs>
       <use xlink:href="#DejaVuSans-30"/>
       <use xlink:href="#DejaVuSans-2e" x="63.623047"/>
       <use xlink:href="#DejaVuSans-39" x="95.410156"/>
       <use xlink:href="#DejaVuSans-32" x="159.033203"/>
       <use xlink:href="#DejaVuSans-35" x="222.65625"/>
      </g>
     </g>
    </g>
    <g id="ytick_3">
     <g id="line2d_17">
      <path d="M 90 293.966776 
L 648 293.966776 
" clip-path="url(#p81550db4c1)" style="fill: none; stroke: #b0b0b0; stroke-width: 0.8; stroke-linecap: square"/>
     </g>
     <g id="line2d_18">
      <g>
       <use xlink:href="#m8849b630b2" x="90" y="293.966776" style="stroke: #000000; stroke-width: 0.8"/>
      </g>
     </g>
     <g id="text_10">
      <!-- 0.950 -->
      <g transform="translate(54.371875 297.765995) scale(0.1 -0.1)">
       <use xlink:href="#DejaVuSans-30"/>
       <use xlink:href="#DejaVuSans-2e" x="63.623047"/>
       <use xlink:href="#DejaVuSans-39" x="95.410156"/>
       <use xlink:href="#DejaVuSans-35" x="159.033203"/>
       <use xlink:href="#DejaVuSans-30" x="222.65625"/>
      </g>
     </g>
    </g>
    <g id="ytick_4">
     <g id="line2d_19">
      <path d="M 90 256.122334 
L 648 256.122334 
" clip-path="url(#p81550db4c1)" style="fill: none; stroke: #b0b0b0; stroke-width: 0.8; stroke-linecap: square"/>
     </g>
     <g id="line2d_20">
      <g>
       <use xlink:href="#m8849b630b2" x="90" y="256.122334" style="stroke: #000000; stroke-width: 0.8"/>
      </g>
     </g>
     <g id="text_11">
      <!-- 0.975 -->
      <g transform="translate(54.371875 259.921553) scale(0.1 -0.1)">
       <defs>
        <path id="DejaVuSans-37" d="M 525 4666 
L 3525 4666 
L 3525 4397 
L 1831 0 
L 1172 0 
L 2766 4134 
L 525 4134 
L 525 4666 
z
" transform="scale(0.015625)"/>
       </defs>
       <use xlink:href="#DejaVuSans-30"/>
       <use xlink:href="#DejaVuSans-2e" x="63.623047"/>
       <use xlink:href="#DejaVuSans-39" x="95.410156"/>
       <use xlink:href="#DejaVuSans-37" x="159.033203"/>
       <use xlink:href="#DejaVuSans-35" x="222.65625"/>
      </g>
     </g>
    </g>
    <g id="ytick_5">
     <g id="line2d_21">
      <path d="M 90 218.277893 
L 648 218.277893 
" clip-path="url(#p81550db4c1)" style="fill: none; stroke: #b0b0b0; stroke-width: 0.8; stroke-linecap: square"/>
     </g>
     <g id="line2d_22">
      <g>
       <use xlink:href="#m8849b630b2" x="90" y="218.277893" style="stroke: #000000; stroke-width: 0.8"/>
      </g>
     </g>
     <g id="text_12">
      <!-- 1.000 -->
      <g transform="translate(54.371875 222.077111) scale(0.1 -0.1)">
       <use xlink:href="#DejaVuSans-31"/>
       <use xlink:href="#DejaVuSans-2e" x="63.623047"/>
       <use xlink:href="#DejaVuSans-30" x="95.410156"/>
       <use xlink:href="#DejaVuSans-30" x="159.033203"/>
       <use xlink:href="#DejaVuSans-30" x="222.65625"/>
      </g>
     </g>
    </g>
    <g id="ytick_6">
     <g id="line2d_23">
      <path d="M 90 180.433451 
L 648 180.433451 
" clip-path="url(#p81550db4c1)" style="fill: none; stroke: #b0b0b0; stroke-width: 0.8; stroke-linecap: square"/>
     </g>
     <g id="line2d_24">
      <g>
       <use xlink:href="#m8849b630b2" x="90" y="180.433451" style="stroke: #000000; stroke-width: 0.8"/>
      </g>
     </g>
     <g id="text_13">
      <!-- 1.025 -->
      <g transform="translate(54.371875 184.23267) scale(0.1 -0.1)">
       <use xlink:href="#DejaVuSans-31"/>
       <use xlink:href="#DejaVuSans-2e" x="63.623047"/>
       <use xlink:href="#DejaVuSans-30" x="95.410156"/>
       <use xlink:href="#DejaVuSans-32" x="159.033203"/>
       <use xlink:href="#DejaVuSans-35" x="222.65625"/>
      </g>
     </g>
    </g>
    <g id="ytick_7">
     <g id="line2d_25">
      <path d="M 90 142.589009 
L 648 142.589009 
" clip-path="url(#p81550db4c1)" style="fill: none; stroke: #b0b0b0; stroke-width: 0.8; stroke-linecap: square"/>
     </g>
     <g id="line2d_26">
      <g>
       <use xlink:href="#m8849b630b2" x="90" y="142.589009" style="stroke: #000000; stroke-width: 0.8"/>
      </g>
     </g>
     <g id="text_14">
      <!-- 1.050 -->
      <g transform="translate(54.371875 146.388228) scale(0.1 -0.1)">
       <use xlink:href="#DejaVuSans-31"/>
       <use xlink:href="#DejaVuSans-2e" x="63.623047"/>
       <use xlink:href="#DejaVuSans-30" x="95.410156"/>
       <use xlink:href="#DejaVuSans-35" x="159.033203"/>
       <use xlink:href="#DejaVuSans-30" x="222.65625"/>
      </g>
     </g>
    </g>
    <g id="ytick_8">
     <g id="line2d_27">
      <path d="M 90 104.744567 
L 648 104.744567 
" clip-path="url(#p81550db4c1)" style="fill: none; stroke: #b0b0b0; stroke-width: 0.8; stroke-linecap: square"/>
     </g>
     <g id="line2d_28">
      <g>
       <use xlink:href="#m8849b630b2" x="90" y="104.744567" style="stroke: #000000; stroke-width: 0.8"/>
      </g>
     </g>
     <g id="text_15">
      <!-- 1.075 -->
      <g transform="translate(54.371875 108.543786) scale(0.1 -0.1)">
       <use xlink:href="#DejaVuSans-31"/>
       <use xlink:href="#DejaVuSans-2e" x="63.623047"/>
       <use xlink:href="#DejaVuSans-30" x="95.410156"/>
       <use xlink:href="#DejaVuSans-37" x="159.033203"/>
       <use xlink:href="#DejaVuSans-35" x="222.65625"/>
      </g>
     </g>
    </g>
    <g id="ytick_9">
     <g id="line2d_29">
      <path d="M 90 66.900126 
L 648 66.900126 
" clip-path="url(#p81550db4c1)" style="fill: none; stroke: #b0b0b0; stroke-width: 0.8; stroke-linecap: square"/>
     </g>
     <g id="line2d_30">
      <g>
       <use xlink:href="#m8849b630b2" x="90" y="66.900126" style="stroke: #000000; stroke-width: 0.8"/>
      </g>
     </g>
     <g id="text_16">
      <!-- 1.100 -->
      <g transform="translate(54.371875 70.699344) scale(0.1 -0.1)">
       <use xlink:href="#DejaVuSans-31"/>
       <use xlink:href="#DejaVuSans-2e" x="63.623047"/>
       <use xlink:href="#DejaVuSans-31" x="95.410156"/>
       <use xlink:href="#DejaVuSans-30" x="159.033203"/>
       <use xlink:href="#DejaVuSans-30" x="222.65625"/>
      </g>
     </g>
    </g>
    <g id="text_17">
     <!-- Error Value -->
     <g transform="translate(48.292187 245.665469) rotate(-90) scale(0.1 -0.1)">
      <defs>
       <path id="DejaVuSans-45" d="M 628 4666 
L 3578 4666 
L 3578 4134 
L 1259 4134 
L 1259 2753 
L 3481 2753 
L 3481 2222 
L 1259 2222 
L 1259 531 
L 3634 531 
L 3634 0 
L 628 0 
L 628 4666 
z
" transform="scale(0.015625)"/>
       <path id="DejaVuSans-72" d="M 2631 2963 
Q 2534 3019 2420 3045 
Q 2306 3072 2169 3072 
Q 1681 3072 1420 2755 
Q 1159 2438 1159 1844 
L 1159 0 
L 581 0 
L 581 3500 
L 1159 3500 
L 1159 2956 
Q 1341 3275 1631 3429 
Q 1922 3584 2338 3584 
Q 2397 3584 2469 3576 
Q 2541 3569 2628 3553 
L 2631 2963 
z
" transform="scale(0.015625)"/>
       <path id="DejaVuSans-6f" d="M 1959 3097 
Q 1497 3097 1228 2736 
Q 959 2375 959 1747 
Q 959 1119 1226 758 
Q 1494 397 1959 397 
Q 2419 397 2687 759 
Q 2956 1122 2956 1747 
Q 2956 2369 2687 2733 
Q 2419 3097 1959 3097 
z
M 1959 3584 
Q 2709 3584 3137 3096 
Q 3566 2609 3566 1747 
Q 3566 888 3137 398 
Q 2709 -91 1959 -91 
Q 1206 -91 779 398 
Q 353 888 353 1747 
Q 353 2609 779 3096 
Q 1206 3584 1959 3584 
z
" transform="scale(0.015625)"/>
       <path id="DejaVuSans-20" transform="scale(0.015625)"/>
       <path id="DejaVuSans-56" d="M 1831 0 
L 50 4666 
L 709 4666 
L 2188 738 
L 3669 4666 
L 4325 4666 
L 2547 0 
L 1831 0 
z
" transform="scale(0.015625)"/>
       <path id="DejaVuSans-61" d="M 2194 1759 
Q 1497 1759 1228 1600 
Q 959 1441 959 1056 
Q 959 750 1161 570 
Q 1363 391 1709 391 
Q 2188 391 2477 730 
Q 2766 1069 2766 1631 
L 2766 1759 
L 2194 1759 
z
M 3341 1997 
L 3341 0 
L 2766 0 
L 2766 531 
Q 2569 213 2275 61 
Q 1981 -91 1556 -91 
Q 1019 -91 701 211 
Q 384 513 384 1019 
Q 384 1609 779 1909 
Q 1175 2209 1959 2209 
L 2766 2209 
L 2766 2266 
Q 2766 2663 2505 2880 
Q 2244 3097 1772 3097 
Q 1472 3097 1187 3025 
Q 903 2953 641 2809 
L 641 3341 
Q 956 3463 1253 3523 
Q 1550 3584 1831 3584 
Q 2591 3584 2966 3190 
Q 3341 2797 3341 1997 
z
" transform="scale(0.015625)"/>
       <path id="DejaVuSans-6c" d="M 603 4863 
L 1178 4863 
L 1178 0 
L 603 0 
L 603 4863 
z
" transform="scale(0.015625)"/>
       <path id="DejaVuSans-75" d="M 544 1381 
L 544 3500 
L 1119 3500 
L 1119 1403 
Q 1119 906 1312 657 
Q 1506 409 1894 409 
Q 2359 409 2629 706 
Q 2900 1003 2900 1516 
L 2900 3500 
L 3475 3500 
L 3475 0 
L 2900 0 
L 2900 538 
Q 2691 219 2414 64 
Q 2138 -91 1772 -91 
Q 1169 -91 856 284 
Q 544 659 544 1381 
z
M 1991 3584 
L 1991 3584 
z
" transform="scale(0.015625)"/>
      </defs>
      <use xlink:href="#DejaVuSans-45"/>
      <use xlink:href="#DejaVuSans-72" x="63.183594"/>
      <use xlink:href="#DejaVuSans-72" x="102.546875"/>
      <use xlink:href="#DejaVuSans-6f" x="141.410156"/>
      <use xlink:href="#DejaVuSans-72" x="202.591797"/>
      <use xlink:href="#DejaVuSans-20" x="243.705078"/>
      <use xlink:href="#DejaVuSans-56" x="275.492188"/>
      <use xlink:href="#DejaVuSans-61" x="336.150391"/>
      <use xlink:href="#DejaVuSans-6c" x="397.429688"/>
      <use xlink:href="#DejaVuSans-75" x="425.212891"/>
      <use xlink:href="#DejaVuSans-65" x="488.591797"/>
     </g>
    </g>
   </g>
   <g id="line2d_31">
    <path d="M 115.363636 218.277893 
L 120.487603 221.305448 
L 125.61157 224.272452 
L 130.735537 227.180116 
L 135.859504 223.974517 
L 140.983471 220.833029 
L 146.107438 223.809481 
L 151.231405 226.726405 
L 156.355372 229.58499 
L 161.479339 232.386403 
L 166.603306 229.076678 
L 171.727273 231.888257 
L 176.85124 234.643606 
L 181.975207 231.288736 
L 187.099174 234.056074 
L 192.22314 236.768066 
L 197.347107 233.370707 
L 202.471074 236.096406 
L 207.595041 238.767591 
L 212.719008 241.385353 
L 217.842975 237.895648 
L 222.966942 240.530848 
L 228.090909 243.113345 
L 233.214876 239.58908 
L 238.338843 242.190412 
L 243.46281 238.684606 
L 248.586777 235.248917 
L 253.710744 237.937051 
L 258.834711 234.516313 
L 263.958678 231.163989 
L 269.082645 233.933823 
L 274.206612 236.648259 
L 279.330579 233.253297 
L 284.454545 229.926233 
L 289.578512 232.720822 
L 294.702479 229.404408 
L 299.826446 226.154322 
L 304.950413 222.969238 
L 310.07438 219.847856 
L 315.198347 216.788901 
L 320.322314 219.846237 
L 325.446281 222.842425 
L 330.570248 219.723579 
L 335.694215 222.722221 
L 340.818182 219.605779 
L 345.942149 222.606776 
L 351.066116 225.547754 
L 356.190083 222.374801 
L 361.31405 225.320419 
L 366.438017 222.152013 
L 371.561983 225.102086 
L 376.68595 227.993157 
L 381.809917 230.826407 
L 386.933884 227.547882 
L 392.057851 230.390037 
L 397.181818 233.17535 
L 402.305785 229.849845 
L 407.429752 226.590851 
L 412.553719 229.452147 
L 417.677686 226.201106 
L 422.801653 229.070198 
L 427.92562 225.826796 
L 433.049587 228.703373 
L 438.173554 231.522419 
L 443.297521 228.229973 
L 448.421488 231.058487 
L 453.545455 227.77532 
L 458.669421 224.557816 
L 463.793388 221.404662 
L 468.917355 224.369682 
L 474.041322 227.275402 
L 479.165289 230.123007 
L 484.289256 226.858549 
L 489.413223 223.659381 
L 494.53719 226.579306 
L 499.661157 229.440833 
L 504.785124 232.24513 
L 509.909091 234.99334 
L 515.033058 237.686587 
L 520.157025 240.325968 
L 525.280992 242.912562 
L 530.404959 239.392313 
L 535.528926 241.99758 
L 540.652893 238.495631 
L 545.77686 235.063721 
L 550.900826 237.75556 
L 556.024793 234.338451 
L 561.14876 230.989685 
L 566.272727 233.763004 
L 571.396694 236.480857 
L 576.520661 239.144353 
L 581.644628 235.699469 
L 586.768595 232.323482 
L 591.892562 229.015015 
L 597.016529 231.827828 
L 602.140496 234.584384 
L 607.264463 237.28581 
L 612.38843 239.933207 
L 617.512397 236.472545 
L 622.636364 239.136207 
" clip-path="url(#p81550db4c1)" style="fill: none; stroke: #1f77b4; stroke-width: 1.5; stroke-linecap: square"/>
   </g>
   <g id="line2d_32">
    <path d="M 115.363636 218.277893 
L 120.487603 210.709004 
L 125.61157 218.656337 
L 130.735537 226.206303 
L 135.859504 233.378771 
L 140.983471 225.054839 
L 146.107438 232.28488 
L 151.231405 224.015642 
L 156.355372 231.297643 
L 161.479339 238.215544 
L 166.603306 244.78755 
L 171.727273 235.893178 
L 176.85124 242.581302 
L 181.975207 233.797244 
L 187.099174 225.452388 
L 192.22314 232.662551 
L 197.347107 239.512207 
L 202.471074 246.019379 
L 207.595041 237.063417 
L 212.719008 228.555252 
L 217.842975 220.472496 
L 222.966942 227.931654 
L 228.090909 219.880078 
L 233.214876 227.368857 
L 238.338843 234.483197 
L 243.46281 226.104043 
L 248.586777 218.143847 
L 253.710744 210.581661 
L 258.834711 203.397585 
L 263.958678 211.710488 
L 269.082645 219.607747 
L 274.206612 227.110142 
L 279.330579 219.099642 
L 284.454545 211.489666 
L 289.578512 219.397966 
L 294.702479 211.773074 
L 299.826446 204.529426 
L 304.950413 197.647961 
L 310.07438 191.110569 
L 315.198347 184.900047 
L 320.322314 179.000051 
L 325.446281 188.532832 
L 330.570248 182.451196 
L 335.694215 191.811419 
L 340.818182 200.703631 
L 345.942149 194.013456 
L 351.066116 187.65779 
L 356.190083 196.757683 
L 361.31405 190.264805 
L 366.438017 199.234348 
L 371.561983 192.617637 
L 376.68595 201.469538 
L 381.809917 194.741067 
L 386.933884 203.486797 
L 392.057851 196.657463 
L 397.181818 190.169597 
L 402.305785 184.006123 
L 407.429752 193.2886 
L 412.553719 186.969176 
L 417.677686 196.1035 
L 422.801653 204.781108 
L 427.92562 197.887059 
L 433.049587 191.337712 
L 438.173554 185.115833 
L 443.297521 179.205048 
L 448.421488 173.589802 
L 453.545455 168.255318 
L 458.669421 163.187558 
L 463.793388 158.373187 
L 468.917355 153.799534 
L 474.041322 164.59234 
L 479.165289 159.707729 
L 484.289256 170.205126 
L 489.413223 180.177652 
L 494.53719 174.513776 
L 499.661157 184.27087 
L 504.785124 178.402333 
L 509.909091 187.964999 
L 515.033058 181.911756 
L 520.157025 176.161174 
L 525.280992 185.835898 
L 530.404959 195.026886 
L 535.528926 188.620548 
L 540.652893 182.534527 
L 545.77686 176.752807 
L 550.900826 186.39795 
L 556.024793 180.423059 
L 561.14876 174.746912 
L 566.272727 184.492349 
L 571.396694 178.612738 
L 576.520661 173.027108 
L 581.644628 182.858535 
L 586.768595 192.198391 
L 591.892562 185.933478 
L 597.016529 195.119587 
L 602.140496 188.708614 
L 607.264463 182.61819 
L 612.38843 191.970063 
L 617.512397 200.854343 
L 622.636364 209.294409 
" clip-path="url(#p81550db4c1)" style="fill: none; stroke: #ff7f0e; stroke-width: 1.5; stroke-linecap: square"/>
   </g>
   <g id="line2d_33">
    <path d="M 115.363636 218.277893 
L 120.487603 203.140116 
L 125.61157 189.516117 
L 130.735537 177.254518 
L 135.859504 166.219079 
L 140.983471 156.287183 
L 146.107438 177.624031 
L 151.231405 166.55164 
L 156.355372 186.862042 
L 161.479339 205.141404 
L 166.603306 221.59283 
L 171.727273 236.399113 
L 176.85124 249.724767 
L 181.975207 261.717857 
L 187.099174 242.236083 
L 192.22314 224.702488 
L 197.347107 239.197805 
L 202.471074 221.968037 
L 207.595041 206.461246 
L 212.719008 222.780687 
L 217.842975 207.192631 
L 222.966942 223.438934 
L 228.090909 238.060606 
L 233.214876 220.944558 
L 238.338843 235.815669 
L 243.46281 218.924114 
L 248.586777 203.721715 
L 253.710744 190.039556 
L 258.834711 208.001167 
L 263.958678 224.166616 
L 269.082645 208.439967 
L 274.206612 194.285983 
L 279.330579 181.547397 
L 284.454545 170.08267 
L 289.578512 159.764416 
L 294.702479 180.75354 
L 299.826446 199.643752 
L 304.950413 216.644943 
L 310.07438 231.946014 
L 315.198347 245.716979 
L 320.322314 258.110847 
L 325.446281 269.265328 
L 330.570248 249.028808 
L 335.694215 230.81594 
L 340.818182 244.699912 
L 345.942149 257.195487 
L 351.066116 268.441504 
L 356.190083 248.287366 
L 361.31405 230.148642 
L 366.438017 213.82379 
L 371.561983 199.131424 
L 376.68595 185.908294 
L 381.809917 174.007477 
L 386.933884 163.296742 
L 392.057851 153.65708 
L 397.181818 144.981385 
L 402.305785 137.173259 
L 407.429752 130.145946 
L 412.553719 123.821364 
L 417.677686 148.404793 
L 422.801653 170.52988 
L 427.92562 190.442458 
L 433.049587 208.363778 
L 438.173554 224.492966 
L 443.297521 239.009236 
L 448.421488 221.798325 
L 453.545455 206.308505 
L 458.669421 192.367667 
L 463.793388 179.820913 
L 468.917355 168.528834 
L 474.041322 188.641517 
L 479.165289 206.742931 
L 484.289256 192.75865 
L 489.413223 180.172798 
L 494.53719 199.121084 
L 499.661157 185.898988 
L 504.785124 173.999102 
L 509.909091 193.564758 
L 515.033058 180.898294 
L 520.157025 169.498478 
L 525.280992 189.514196 
L 530.404959 177.252789 
L 535.528926 196.493076 
L 540.652893 183.533781 
L 545.77686 202.145969 
L 550.900826 188.621384 
L 556.024793 176.449259 
L 561.14876 195.769899 
L 566.272727 182.882921 
L 571.396694 171.284642 
L 576.520661 160.84619 
L 581.644628 181.727137 
L 586.768595 170.244436 
L 591.892562 159.910005 
L 597.016529 180.88457 
L 602.140496 169.486126 
L 607.264463 159.227526 
L 612.38843 149.994786 
L 617.512397 171.960873 
L 622.636364 191.730352 
" clip-path="url(#p81550db4c1)" style="fill: none; stroke: #2ca02c; stroke-width: 1.5; stroke-linecap: square"/>
   </g>
   <g id="line2d_34">
    <path d="M 115.363636 218.277893 
L 120.487603 293.966776 
L 125.61157 331.811218 
L 130.735537 350.733439 
L 135.859504 360.194549 
L 140.983471 364.925104 
L 146.107438 367.290382 
L 151.231405 368.473021 
L 156.355372 369.06434 
L 161.479339 369.36 
L 166.603306 218.130063 
L 171.727273 293.892861 
L 176.85124 331.77426 
L 181.975207 350.71496 
L 187.099174 208.807543 
L 192.22314 137.853834 
L 197.347107 102.37698 
L 202.471074 84.638553 
L 207.595041 75.769339 
L 212.719008 71.334732 
L 217.842975 220.495196 
L 222.966942 295.075428 
L 228.090909 180.987777 
L 233.214876 123.943951 
L 238.338843 246.799805 
L 243.46281 156.849966 
L 248.586777 263.252813 
L 253.710744 316.454236 
L 258.834711 343.054948 
L 263.958678 204.977537 
L 269.082645 135.938831 
L 274.206612 101.419478 
L 279.330579 84.159802 
L 284.454545 75.529964 
L 289.578512 222.592812 
L 294.702479 144.746469 
L 299.826446 257.201064 
L 304.950413 313.428362 
L 310.07438 341.542011 
L 315.198347 204.221068 
L 320.322314 286.938364 
L 325.446281 328.297012 
L 330.570248 197.598569 
L 335.694215 283.627114 
L 340.818182 326.641387 
L 345.942149 348.148523 
L 351.066116 358.902092 
L 356.190083 212.901109 
L 361.31405 291.278384 
L 366.438017 179.089255 
L 371.561983 274.372457 
L 376.68595 170.636291 
L 381.809917 118.768209 
L 386.933884 92.834167 
L 392.057851 79.867146 
L 397.181818 224.761403 
L 402.305785 145.830764 
L 407.429752 257.743212 
L 412.553719 162.321669 
L 417.677686 114.610897 
L 422.801653 90.755511 
L 427.92562 78.827818 
L 433.049587 224.241739 
L 438.173554 145.570932 
L 443.297521 257.613296 
L 448.421488 313.634478 
L 453.545455 190.267302 
L 458.669421 279.961481 
L 463.793388 324.80857 
L 468.917355 195.854348 
L 474.041322 131.377237 
L 479.165289 99.138681 
L 484.289256 234.39717 
L 489.413223 302.026415 
L 494.53719 335.841037 
L 499.661157 352.748349 
L 504.785124 361.202004 
L 509.909091 214.051065 
L 515.033058 291.853362 
L 520.157025 179.376744 
L 525.280992 274.516202 
L 530.404959 322.085931 
L 535.528926 345.870795 
L 540.652893 357.763227 
L 545.77686 212.331677 
L 550.900826 139.615901 
L 556.024793 254.63578 
L 561.14876 312.14572 
L 566.272727 189.522923 
L 571.396694 128.211524 
L 576.520661 97.555825 
L 581.644628 82.227975 
L 586.768595 74.56405 
L 591.892562 70.732088 
L 597.016529 68.816107 
L 602.140496 67.858116 
L 607.264463 67.379121 
L 612.38843 67.139623 
L 617.512397 67.019874 
L 622.636364 66.96 
" clip-path="url(#p81550db4c1)" style="fill: none; stroke: #d62728; stroke-width: 1.5; stroke-linecap: square"/>
   </g>
   <g id="patch_3">
    <path d="M 90 384.48 
L 90 51.84 
" style="fill: none; stroke: #000000; stroke-width: 0.8; stroke-linejoin: miter; stroke-linecap: square"/>
   </g>
   <g id="patch_4">
    <path d="M 648 384.48 
L 648 51.84 
" style="fill: none; stroke: #000000; stroke-width: 0.8; stroke-linejoin: miter; stroke-linecap: square"/>
   </g>
   <g id="patch_5">
    <path d="M 90 384.48 
L 648 384.48 
" style="fill: none; stroke: #000000; stroke-width: 0.8; stroke-linejoin: miter; stroke-linecap: square"/>
   </g>
   <g id="patch_6">
    <path d="M 90 51.84 
L 648 51.84 
" style="fill: none; stroke: #000000; stroke-width: 0.8; stroke-linejoin: miter; stroke-linecap: square"/>
   </g>
   <g id="text_18">
    <!-- Line Chart of Error Progression, max_error = 0.1 -->
    <g transform="translate(224.442188 45.84) scale(0.12 -0.12)">
     <defs>
      <path id="DejaVuSans-4c" d="M 628 4666 
L 1259 4666 
L 1259 531 
L 3531 531 
L 3531 0 
L 628 0 
L 628 4666 
z
" transform="scale(0.015625)"/>
      <path id="DejaVuSans-69" d="M 603 3500 
L 1178 3500 
L 1178 0 
L 603 0 
L 603 3500 
z
M 603 4863 
L 1178 4863 
L 1178 4134 
L 603 4134 
L 603 4863 
z
" transform="scale(0.015625)"/>
      <path id="DejaVuSans-6e" d="M 3513 2113 
L 3513 0 
L 2938 0 
L 2938 2094 
Q 2938 2591 2744 2837 
Q 2550 3084 2163 3084 
Q 1697 3084 1428 2787 
Q 1159 2491 1159 1978 
L 1159 0 
L 581 0 
L 581 3500 
L 1159 3500 
L 1159 2956 
Q 1366 3272 1645 3428 
Q 1925 3584 2291 3584 
Q 2894 3584 3203 3211 
Q 3513 2838 3513 2113 
z
" transform="scale(0.015625)"/>
      <path id="DejaVuSans-43" d="M 4122 4306 
L 4122 3641 
Q 3803 3938 3442 4084 
Q 3081 4231 2675 4231 
Q 1875 4231 1450 3742 
Q 1025 3253 1025 2328 
Q 1025 1406 1450 917 
Q 1875 428 2675 428 
Q 3081 428 3442 575 
Q 3803 722 4122 1019 
L 4122 359 
Q 3791 134 3420 21 
Q 3050 -91 2638 -91 
Q 1578 -91 968 557 
Q 359 1206 359 2328 
Q 359 3453 968 4101 
Q 1578 4750 2638 4750 
Q 3056 4750 3426 4639 
Q 3797 4528 4122 4306 
z
" transform="scale(0.015625)"/>
      <path id="DejaVuSans-68" d="M 3513 2113 
L 3513 0 
L 2938 0 
L 2938 2094 
Q 2938 2591 2744 2837 
Q 2550 3084 2163 3084 
Q 1697 3084 1428 2787 
Q 1159 2491 1159 1978 
L 1159 0 
L 581 0 
L 581 4863 
L 1159 4863 
L 1159 2956 
Q 1366 3272 1645 3428 
Q 1925 3584 2291 3584 
Q 2894 3584 3203 3211 
Q 3513 2838 3513 2113 
z
" transform="scale(0.015625)"/>
      <path id="DejaVuSans-66" d="M 2375 4863 
L 2375 4384 
L 1825 4384 
Q 1516 4384 1395 4259 
Q 1275 4134 1275 3809 
L 1275 3500 
L 2222 3500 
L 2222 3053 
L 1275 3053 
L 1275 0 
L 697 0 
L 697 3053 
L 147 3053 
L 147 3500 
L 697 3500 
L 697 3744 
Q 697 4328 969 4595 
Q 1241 4863 1831 4863 
L 2375 4863 
z
" transform="scale(0.015625)"/>
      <path id="DejaVuSans-50" d="M 1259 4147 
L 1259 2394 
L 2053 2394 
Q 2494 2394 2734 2622 
Q 2975 2850 2975 3272 
Q 2975 3691 2734 3919 
Q 2494 4147 2053 4147 
L 1259 4147 
z
M 628 4666 
L 2053 4666 
Q 2838 4666 3239 4311 
Q 3641 3956 3641 3272 
Q 3641 2581 3239 2228 
Q 2838 1875 2053 1875 
L 1259 1875 
L 1259 0 
L 628 0 
L 628 4666 
z
" transform="scale(0.015625)"/>
      <path id="DejaVuSans-67" d="M 2906 1791 
Q 2906 2416 2648 2759 
Q 2391 3103 1925 3103 
Q 1463 3103 1205 2759 
Q 947 2416 947 1791 
Q 947 1169 1205 825 
Q 1463 481 1925 481 
Q 2391 481 2648 825 
Q 2906 1169 2906 1791 
z
M 3481 434 
Q 3481 -459 3084 -895 
Q 2688 -1331 1869 -1331 
Q 1566 -1331 1297 -1286 
Q 1028 -1241 775 -1147 
L 775 -588 
Q 1028 -725 1275 -790 
Q 1522 -856 1778 -856 
Q 2344 -856 2625 -561 
Q 2906 -266 2906 331 
L 2906 616 
Q 2728 306 2450 153 
Q 2172 0 1784 0 
Q 1141 0 747 490 
Q 353 981 353 1791 
Q 353 2603 747 3093 
Q 1141 3584 1784 3584 
Q 2172 3584 2450 3431 
Q 2728 3278 2906 2969 
L 2906 3500 
L 3481 3500 
L 3481 434 
z
" transform="scale(0.015625)"/>
      <path id="DejaVuSans-73" d="M 2834 3397 
L 2834 2853 
Q 2591 2978 2328 3040 
Q 2066 3103 1784 3103 
Q 1356 3103 1142 2972 
Q 928 2841 928 2578 
Q 928 2378 1081 2264 
Q 1234 2150 1697 2047 
L 1894 2003 
Q 2506 1872 2764 1633 
Q 3022 1394 3022 966 
Q 3022 478 2636 193 
Q 2250 -91 1575 -91 
Q 1294 -91 989 -36 
Q 684 19 347 128 
L 347 722 
Q 666 556 975 473 
Q 1284 391 1588 391 
Q 1994 391 2212 530 
Q 2431 669 2431 922 
Q 2431 1156 2273 1281 
Q 2116 1406 1581 1522 
L 1381 1569 
Q 847 1681 609 1914 
Q 372 2147 372 2553 
Q 372 3047 722 3315 
Q 1072 3584 1716 3584 
Q 2034 3584 2315 3537 
Q 2597 3491 2834 3397 
z
" transform="scale(0.015625)"/>
      <path id="DejaVuSans-2c" d="M 750 794 
L 1409 794 
L 1409 256 
L 897 -744 
L 494 -744 
L 750 256 
L 750 794 
z
" transform="scale(0.015625)"/>
      <path id="DejaVuSans-6d" d="M 3328 2828 
Q 3544 3216 3844 3400 
Q 4144 3584 4550 3584 
Q 5097 3584 5394 3201 
Q 5691 2819 5691 2113 
L 5691 0 
L 5113 0 
L 5113 2094 
Q 5113 2597 4934 2840 
Q 4756 3084 4391 3084 
Q 3944 3084 3684 2787 
Q 3425 2491 3425 1978 
L 3425 0 
L 2847 0 
L 2847 2094 
Q 2847 2600 2669 2842 
Q 2491 3084 2119 3084 
Q 1678 3084 1418 2786 
Q 1159 2488 1159 1978 
L 1159 0 
L 581 0 
L 581 3500 
L 1159 3500 
L 1159 2956 
Q 1356 3278 1631 3431 
Q 1906 3584 2284 3584 
Q 2666 3584 2933 3390 
Q 3200 3197 3328 2828 
z
" transform="scale(0.015625)"/>
      <path id="DejaVuSans-78" d="M 3513 3500 
L 2247 1797 
L 3578 0 
L 2900 0 
L 1881 1375 
L 863 0 
L 184 0 
L 1544 1831 
L 300 3500 
L 978 3500 
L 1906 2253 
L 2834 3500 
L 3513 3500 
z
" transform="scale(0.015625)"/>
      <path id="DejaVuSans-5f" d="M 3263 -1063 
L 3263 -1509 
L -63 -1509 
L -63 -1063 
L 3263 -1063 
z
" transform="scale(0.015625)"/>
      <path id="DejaVuSans-3d" d="M 678 2906 
L 4684 2906 
L 4684 2381 
L 678 2381 
L 678 2906 
z
M 678 1631 
L 4684 1631 
L 4684 1100 
L 678 1100 
L 678 1631 
z
" transform="scale(0.015625)"/>
     </defs>
     <use xlink:href="#DejaVuSans-4c"/>
     <use xlink:href="#DejaVuSans-69" x="55.712891"/>
     <use xlink:href="#DejaVuSans-6e" x="83.496094"/>
     <use xlink:href="#DejaVuSans-65" x="146.875"/>
     <use xlink:href="#DejaVuSans-20" x="208.398438"/>
     <use xlink:href="#DejaVuSans-43" x="240.185547"/>
     <use xlink:href="#DejaVuSans-68" x="310.009766"/>
     <use xlink:href="#DejaVuSans-61" x="373.388672"/>
     <use xlink:href="#DejaVuSans-72" x="434.667969"/>
     <use xlink:href="#DejaVuSans-74" x="475.78125"/>
     <use xlink:href="#DejaVuSans-20" x="514.990234"/>
     <use xlink:href="#DejaVuSans-6f" x="546.777344"/>
     <use xlink:href="#DejaVuSans-66" x="607.958984"/>
     <use xlink:href="#DejaVuSans-20" x="643.164062"/>
     <use xlink:href="#DejaVuSans-45" x="674.951172"/>
     <use xlink:href="#DejaVuSans-72" x="738.134766"/>
     <use xlink:href="#DejaVuSans-72" x="777.498047"/>
     <use xlink:href="#DejaVuSans-6f" x="816.361328"/>
     <use xlink:href="#DejaVuSans-72" x="877.542969"/>
     <use xlink:href="#DejaVuSans-20" x="918.65625"/>
     <use xlink:href="#DejaVuSans-50" x="950.443359"/>
     <use xlink:href="#DejaVuSans-72" x="1008.996094"/>
     <use xlink:href="#DejaVuSans-6f" x="1047.859375"/>
     <use xlink:href="#DejaVuSans-67" x="1109.041016"/>
     <use xlink:href="#DejaVuSans-72" x="1172.517578"/>
     <use xlink:href="#DejaVuSans-65" x="1211.380859"/>
     <use xlink:href="#DejaVuSans-73" x="1272.904297"/>
     <use xlink:href="#DejaVuSans-73" x="1325.003906"/>
     <use xlink:href="#DejaVuSans-69" x="1377.103516"/>
     <use xlink:href="#DejaVuSans-6f" x="1404.886719"/>
     <use xlink:href="#DejaVuSans-6e" x="1466.068359"/>
     <use xlink:href="#DejaVuSans-2c" x="1529.447266"/>
     <use xlink:href="#DejaVuSans-20" x="1561.234375"/>
     <use xlink:href="#DejaVuSans-6d" x="1593.021484"/>
     <use xlink:href="#DejaVuSans-61" x="1690.433594"/>
     <use xlink:href="#DejaVuSans-78" x="1751.712891"/>
     <use xlink:href="#DejaVuSans-5f" x="1810.892578"/>
     <use xlink:href="#DejaVuSans-65" x="1860.892578"/>
     <use xlink:href="#DejaVuSans-72" x="1922.416016"/>
     <use xlink:href="#DejaVuSans-72" x="1961.779297"/>
     <use xlink:href="#DejaVuSans-6f" x="2000.642578"/>
     <use xlink:href="#DejaVuSans-72" x="2061.824219"/>
     <use xlink:href="#DejaVuSans-20" x="2102.9375"/>
     <use xlink:href="#DejaVuSans-3d" x="2134.724609"/>
     <use xlink:href="#DejaVuSans-20" x="2218.513672"/>
     <use xlink:href="#DejaVuSans-30" x="2250.300781"/>
     <use xlink:href="#DejaVuSans-2e" x="2313.923828"/>
     <use xlink:href="#DejaVuSans-31" x="2345.710938"/>
    </g>
   </g>
   <g id="legend_1">
    <g id="patch_7">
     <path d="M 494.86875 114.665 
L 646 114.665 
Q 648 114.665 648 112.665 
L 648 53.84 
Q 648 51.84 646 51.84 
L 494.86875 51.84 
Q 492.86875 51.84 492.86875 53.84 
L 492.86875 112.665 
Q 492.86875 114.665 494.86875 114.665 
z
" style="fill: #ffffff; opacity: 0.8; stroke: #cccccc; stroke-linejoin: miter"/>
    </g>
    <g id="line2d_35">
     <path d="M 496.86875 59.938437 
L 506.86875 59.938437 
L 516.86875 59.938437 
" style="fill: none; stroke: #1f77b4; stroke-width: 1.5; stroke-linecap: square"/>
    </g>
    <g id="text_19">
     <!-- Deviation_factor = 0.02 -->
     <g transform="translate(524.86875 63.438437) scale(0.1 -0.1)">
      <defs>
       <path id="DejaVuSans-44" d="M 1259 4147 
L 1259 519 
L 2022 519 
Q 2988 519 3436 956 
Q 3884 1394 3884 2338 
Q 3884 3275 3436 3711 
Q 2988 4147 2022 4147 
L 1259 4147 
z
M 628 4666 
L 1925 4666 
Q 3281 4666 3915 4102 
Q 4550 3538 4550 2338 
Q 4550 1131 3912 565 
Q 3275 0 1925 0 
L 628 0 
L 628 4666 
z
" transform="scale(0.015625)"/>
       <path id="DejaVuSans-76" d="M 191 3500 
L 800 3500 
L 1894 563 
L 2988 3500 
L 3597 3500 
L 2284 0 
L 1503 0 
L 191 3500 
z
" transform="scale(0.015625)"/>
       <path id="DejaVuSans-63" d="M 3122 3366 
L 3122 2828 
Q 2878 2963 2633 3030 
Q 2388 3097 2138 3097 
Q 1578 3097 1268 2742 
Q 959 2388 959 1747 
Q 959 1106 1268 751 
Q 1578 397 2138 397 
Q 2388 397 2633 464 
Q 2878 531 3122 666 
L 3122 134 
Q 2881 22 2623 -34 
Q 2366 -91 2075 -91 
Q 1284 -91 818 406 
Q 353 903 353 1747 
Q 353 2603 823 3093 
Q 1294 3584 2113 3584 
Q 2378 3584 2631 3529 
Q 2884 3475 3122 3366 
z
" transform="scale(0.015625)"/>
      </defs>
      <use xlink:href="#DejaVuSans-44"/>
      <use xlink:href="#DejaVuSans-65" x="77.001953"/>
      <use xlink:href="#DejaVuSans-76" x="138.525391"/>
      <use xlink:href="#DejaVuSans-69" x="197.705078"/>
      <use xlink:href="#DejaVuSans-61" x="225.488281"/>
      <use xlink:href="#DejaVuSans-74" x="286.767578"/>
      <use xlink:href="#DejaVuSans-69" x="325.976562"/>
      <use xlink:href="#DejaVuSans-6f" x="353.759766"/>
      <use xlink:href="#DejaVuSans-6e" x="414.941406"/>
      <use xlink:href="#DejaVuSans-5f" x="478.320312"/>
      <use xlink:href="#DejaVuSans-66" x="528.320312"/>
      <use xlink:href="#DejaVuSans-61" x="563.525391"/>
      <use xlink:href="#DejaVuSans-63" x="624.804688"/>
      <use xlink:href="#DejaVuSans-74" x="679.785156"/>
      <use xlink:href="#DejaVuSans-6f" x="718.994141"/>
      <use xlink:href="#DejaVuSans-72" x="780.175781"/>
      <use xlink:href="#DejaVuSans-20" x="821.289062"/>
      <use xlink:href="#DejaVuSans-3d" x="853.076172"/>
      <use xlink:href="#DejaVuSans-20" x="936.865234"/>
      <use xlink:href="#DejaVuSans-30" x="968.652344"/>
      <use xlink:href="#DejaVuSans-2e" x="1032.275391"/>
      <use xlink:href="#DejaVuSans-30" x="1064.0625"/>
      <use xlink:href="#DejaVuSans-32" x="1127.685547"/>
     </g>
    </g>
    <g id="line2d_36">
     <path d="M 496.86875 74.894687 
L 506.86875 74.894687 
L 516.86875 74.894687 
" style="fill: none; stroke: #ff7f0e; stroke-width: 1.5; stroke-linecap: square"/>
    </g>
    <g id="text_20">
     <!-- Deviation_factor = 0.05 -->
     <g transform="translate(524.86875 78.394687) scale(0.1 -0.1)">
      <use xlink:href="#DejaVuSans-44"/>
      <use xlink:href="#DejaVuSans-65" x="77.001953"/>
      <use xlink:href="#DejaVuSans-76" x="138.525391"/>
      <use xlink:href="#DejaVuSans-69" x="197.705078"/>
      <use xlink:href="#DejaVuSans-61" x="225.488281"/>
      <use xlink:href="#DejaVuSans-74" x="286.767578"/>
      <use xlink:href="#DejaVuSans-69" x="325.976562"/>
      <use xlink:href="#DejaVuSans-6f" x="353.759766"/>
      <use xlink:href="#DejaVuSans-6e" x="414.941406"/>
      <use xlink:href="#DejaVuSans-5f" x="478.320312"/>
      <use xlink:href="#DejaVuSans-66" x="528.320312"/>
      <use xlink:href="#DejaVuSans-61" x="563.525391"/>
      <use xlink:href="#DejaVuSans-63" x="624.804688"/>
      <use xlink:href="#DejaVuSans-74" x="679.785156"/>
      <use xlink:href="#DejaVuSans-6f" x="718.994141"/>
      <use xlink:href="#DejaVuSans-72" x="780.175781"/>
      <use xlink:href="#DejaVuSans-20" x="821.289062"/>
      <use xlink:href="#DejaVuSans-3d" x="853.076172"/>
      <use xlink:href="#DejaVuSans-20" x="936.865234"/>
      <use xlink:href="#DejaVuSans-30" x="968.652344"/>
      <use xlink:href="#DejaVuSans-2e" x="1032.275391"/>
      <use xlink:href="#DejaVuSans-30" x="1064.0625"/>
      <use xlink:href="#DejaVuSans-35" x="1127.685547"/>
     </g>
    </g>
    <g id="line2d_37">
     <path d="M 496.86875 89.850937 
L 506.86875 89.850937 
L 516.86875 89.850937 
" style="fill: none; stroke: #2ca02c; stroke-width: 1.5; stroke-linecap: square"/>
    </g>
    <g id="text_21">
     <!-- Deviation_factor = 0.1 -->
     <g transform="translate(524.86875 93.350937) scale(0.1 -0.1)">
      <use xlink:href="#DejaVuSans-44"/>
      <use xlink:href="#DejaVuSans-65" x="77.001953"/>
      <use xlink:href="#DejaVuSans-76" x="138.525391"/>
      <use xlink:href="#DejaVuSans-69" x="197.705078"/>
      <use xlink:href="#DejaVuSans-61" x="225.488281"/>
      <use xlink:href="#DejaVuSans-74" x="286.767578"/>
      <use xlink:href="#DejaVuSans-69" x="325.976562"/>
      <use xlink:href="#DejaVuSans-6f" x="353.759766"/>
      <use xlink:href="#DejaVuSans-6e" x="414.941406"/>
      <use xlink:href="#DejaVuSans-5f" x="478.320312"/>
      <use xlink:href="#DejaVuSans-66" x="528.320312"/>
      <use xlink:href="#DejaVuSans-61" x="563.525391"/>
      <use xlink:href="#DejaVuSans-63" x="624.804688"/>
      <use xlink:href="#DejaVuSans-74" x="679.785156"/>
      <use xlink:href="#DejaVuSans-6f" x="718.994141"/>
      <use xlink:href="#DejaVuSans-72" x="780.175781"/>
      <use xlink:href="#DejaVuSans-20" x="821.289062"/>
      <use xlink:href="#DejaVuSans-3d" x="853.076172"/>
      <use xlink:href="#DejaVuSans-20" x="936.865234"/>
      <use xlink:href="#DejaVuSans-30" x="968.652344"/>
      <use xlink:href="#DejaVuSans-2e" x="1032.275391"/>
      <use xlink:href="#DejaVuSans-31" x="1064.0625"/>
     </g>
    </g>
    <g id="line2d_38">
     <path d="M 496.86875 104.807187 
L 506.86875 104.807187 
L 516.86875 104.807187 
" style="fill: none; stroke: #d62728; stroke-width: 1.5; stroke-linecap: square"/>
    </g>
    <g id="text_22">
     <!-- Deviation_factor = 0.5 -->
     <g transform="translate(524.86875 108.307187) scale(0.1 -0.1)">
      <use xlink:href="#DejaVuSans-44"/>
      <use xlink:href="#DejaVuSans-65" x="77.001953"/>
      <use xlink:href="#DejaVuSans-76" x="138.525391"/>
      <use xlink:href="#DejaVuSans-69" x="197.705078"/>
      <use xlink:href="#DejaVuSans-61" x="225.488281"/>
      <use xlink:href="#DejaVuSans-74" x="286.767578"/>
      <use xlink:href="#DejaVuSans-69" x="325.976562"/>
      <use xlink:href="#DejaVuSans-6f" x="353.759766"/>
      <use xlink:href="#DejaVuSans-6e" x="414.941406"/>
      <use xlink:href="#DejaVuSans-5f" x="478.320312"/>
      <use xlink:href="#DejaVuSans-66" x="528.320312"/>
      <use xlink:href="#DejaVuSans-61" x="563.525391"/>
      <use xlink:href="#DejaVuSans-63" x="624.804688"/>
      <use xlink:href="#DejaVuSans-74" x="679.785156"/>
      <use xlink:href="#DejaVuSans-6f" x="718.994141"/>
      <use xlink:href="#DejaVuSans-72" x="780.175781"/>
      <use xlink:href="#DejaVuSans-20" x="821.289062"/>
      <use xlink:href="#DejaVuSans-3d" x="853.076172"/>
      <use xlink:href="#DejaVuSans-20" x="936.865234"/>
      <use xlink:href="#DejaVuSans-30" x="968.652344"/>
      <use xlink:href="#DejaVuSans-2e" x="1032.275391"/>
      <use xlink:href="#DejaVuSans-35" x="1064.0625"/>
     </g>
    </g>
   </g>
  </g>
 </g>
 <defs>
  <clipPath id="p81550db4c1">
   <rect x="90" y="51.84" width="558" height="332.64"/>
  </clipPath>
 </defs>
</svg>
