<?xml version="1.0" encoding="utf-8" standalone="no"?>
<!DOCTYPE svg PUBLIC "-//W3C//DTD SVG 1.1//EN"
  "http://www.w3.org/Graphics/SVG/1.1/DTD/svg11.dtd">
<svg xmlns:xlink="http://www.w3.org/1999/xlink" width="488.904687pt" height="614.274375pt" viewBox="0 0 488.904687 614.274375" xmlns="http://www.w3.org/2000/svg" version="1.1">
 <metadata>
  <rdf:RDF xmlns:dc="http://purl.org/dc/elements/1.1/" xmlns:cc="http://creativecommons.org/ns#" xmlns:rdf="http://www.w3.org/1999/02/22-rdf-syntax-ns#">
   <cc:Work>
    <dc:type rdf:resource="http://purl.org/dc/dcmitype/StillImage"/>
    <dc:date>2024-12-11T15:05:54.771711</dc:date>
    <dc:format>image/svg+xml</dc:format>
    <dc:creator>
     <cc:Agent>
      <dc:title>Matplotlib v3.8.3, https://matplotlib.org/</dc:title>
     </cc:Agent>
    </dc:creator>
   </cc:Work>
  </rdf:RDF>
 </metadata>
 <defs>
  <style type="text/css">*{stroke-linejoin: round; stroke-linecap: butt}</style>
 </defs>
 <g id="figure_1">
  <g id="patch_1">
   <path d="M 0 614.274375 
L 488.904687 614.274375 
L 488.904687 0 
L 0 0 
z
" style="fill: #ffffff"/>
  </g>
  <g id="axes_1">
   <g id="patch_2">
    <path d="M 35.304688 274.318125 
L 481.704687 274.318125 
L 481.704687 22.318125 
L 35.304688 22.318125 
z
" style="fill: #ffffff"/>
   </g>
   <g id="matplotlib.axis_1">
    <g id="xtick_1">
     <g id="line2d_1">
      <path d="M 102.420771 274.318125 
L 102.420771 22.318125 
" clip-path="url(#pc164d5611d)" style="fill: none; stroke: #b0b0b0; stroke-width: 0.8; stroke-linecap: square"/>
     </g>
     <g id="line2d_2">
      <defs>
       <path id="mbae7c267fd" d="M 0 0 
L 0 3.5 
" style="stroke: #000000; stroke-width: 0.8"/>
      </defs>
      <g>
       <use xlink:href="#mbae7c267fd" x="102.420771" y="274.318125" style="stroke: #000000; stroke-width: 0.8"/>
      </g>
     </g>
     <g id="text_1">
      <!-- −100 -->
      <g transform="translate(88.687178 288.916562) scale(0.1 -0.1)">
       <defs>
        <path id="DejaVuSans-2212" d="M 678 2272 
L 4684 2272 
L 4684 1741 
L 678 1741 
L 678 2272 
z
" transform="scale(0.015625)"/>
        <path id="DejaVuSans-31" d="M 794 531 
L 1825 531 
L 1825 4091 
L 703 3866 
L 703 4441 
L 1819 4666 
L 2450 4666 
L 2450 531 
L 3481 531 
L 3481 0 
L 794 0 
L 794 531 
z
" transform="scale(0.015625)"/>
        <path id="DejaVuSans-30" d="M 2034 4250 
Q 1547 4250 1301 3770 
Q 1056 3291 1056 2328 
Q 1056 1369 1301 889 
Q 1547 409 2034 409 
Q 2525 409 2770 889 
Q 3016 1369 3016 2328 
Q 3016 3291 2770 3770 
Q 2525 4250 2034 4250 
z
M 2034 4750 
Q 2819 4750 3233 4129 
Q 3647 3509 3647 2328 
Q 3647 1150 3233 529 
Q 2819 -91 2034 -91 
Q 1250 -91 836 529 
Q 422 1150 422 2328 
Q 422 3509 836 4129 
Q 1250 4750 2034 4750 
z
" transform="scale(0.015625)"/>
       </defs>
       <use xlink:href="#DejaVuSans-2212"/>
       <use xlink:href="#DejaVuSans-31" x="83.789062"/>
       <use xlink:href="#DejaVuSans-30" x="147.412109"/>
       <use xlink:href="#DejaVuSans-30" x="211.035156"/>
      </g>
     </g>
    </g>
    <g id="xtick_2">
     <g id="line2d_3">
      <path d="M 180.462729 274.318125 
L 180.462729 22.318125 
" clip-path="url(#pc164d5611d)" style="fill: none; stroke: #b0b0b0; stroke-width: 0.8; stroke-linecap: square"/>
     </g>
     <g id="line2d_4">
      <g>
       <use xlink:href="#mbae7c267fd" x="180.462729" y="274.318125" style="stroke: #000000; stroke-width: 0.8"/>
      </g>
     </g>
     <g id="text_2">
      <!-- −50 -->
      <g transform="translate(169.910386 288.916562) scale(0.1 -0.1)">
       <defs>
        <path id="DejaVuSans-35" d="M 691 4666 
L 3169 4666 
L 3169 4134 
L 1269 4134 
L 1269 2991 
Q 1406 3038 1543 3061 
Q 1681 3084 1819 3084 
Q 2600 3084 3056 2656 
Q 3513 2228 3513 1497 
Q 3513 744 3044 326 
Q 2575 -91 1722 -91 
Q 1428 -91 1123 -41 
Q 819 9 494 109 
L 494 744 
Q 775 591 1075 516 
Q 1375 441 1709 441 
Q 2250 441 2565 725 
Q 2881 1009 2881 1497 
Q 2881 1984 2565 2268 
Q 2250 2553 1709 2553 
Q 1456 2553 1204 2497 
Q 953 2441 691 2322 
L 691 4666 
z
" transform="scale(0.015625)"/>
       </defs>
       <use xlink:href="#DejaVuSans-2212"/>
       <use xlink:href="#DejaVuSans-35" x="83.789062"/>
       <use xlink:href="#DejaVuSans-30" x="147.412109"/>
      </g>
     </g>
    </g>
    <g id="xtick_3">
     <g id="line2d_5">
      <path d="M 258.504687 274.318125 
L 258.504687 22.318125 
" clip-path="url(#pc164d5611d)" style="fill: none; stroke: #b0b0b0; stroke-width: 0.8; stroke-linecap: square"/>
     </g>
     <g id="line2d_6">
      <g>
       <use xlink:href="#mbae7c267fd" x="258.504687" y="274.318125" style="stroke: #000000; stroke-width: 0.8"/>
      </g>
     </g>
     <g id="text_3">
      <!-- 0 -->
      <g transform="translate(255.323437 288.916562) scale(0.1 -0.1)">
       <use xlink:href="#DejaVuSans-30"/>
      </g>
     </g>
    </g>
    <g id="xtick_4">
     <g id="line2d_7">
      <path d="M 336.546646 274.318125 
L 336.546646 22.318125 
" clip-path="url(#pc164d5611d)" style="fill: none; stroke: #b0b0b0; stroke-width: 0.8; stroke-linecap: square"/>
     </g>
     <g id="line2d_8">
      <g>
       <use xlink:href="#mbae7c267fd" x="336.546646" y="274.318125" style="stroke: #000000; stroke-width: 0.8"/>
      </g>
     </g>
     <g id="text_4">
      <!-- 50 -->
      <g transform="translate(330.184146 288.916562) scale(0.1 -0.1)">
       <use xlink:href="#DejaVuSans-35"/>
       <use xlink:href="#DejaVuSans-30" x="63.623047"/>
      </g>
     </g>
    </g>
    <g id="xtick_5">
     <g id="line2d_9">
      <path d="M 414.588604 274.318125 
L 414.588604 22.318125 
" clip-path="url(#pc164d5611d)" style="fill: none; stroke: #b0b0b0; stroke-width: 0.8; stroke-linecap: square"/>
     </g>
     <g id="line2d_10">
      <g>
       <use xlink:href="#mbae7c267fd" x="414.588604" y="274.318125" style="stroke: #000000; stroke-width: 0.8"/>
      </g>
     </g>
     <g id="text_5">
      <!-- 100 -->
      <g transform="translate(405.044854 288.916562) scale(0.1 -0.1)">
       <use xlink:href="#DejaVuSans-31"/>
       <use xlink:href="#DejaVuSans-30" x="63.623047"/>
       <use xlink:href="#DejaVuSans-30" x="127.246094"/>
      </g>
     </g>
    </g>
    <g id="text_6">
     <!-- Theta -->
     <g transform="translate(244.18125 302.594687) scale(0.1 -0.1)">
      <defs>
       <path id="DejaVuSans-54" d="M -19 4666 
L 3928 4666 
L 3928 4134 
L 2272 4134 
L 2272 0 
L 1638 0 
L 1638 4134 
L -19 4134 
L -19 4666 
z
" transform="scale(0.015625)"/>
       <path id="DejaVuSans-68" d="M 3513 2113 
L 3513 0 
L 2938 0 
L 2938 2094 
Q 2938 2591 2744 2837 
Q 2550 3084 2163 3084 
Q 1697 3084 1428 2787 
Q 1159 2491 1159 1978 
L 1159 0 
L 581 0 
L 581 4863 
L 1159 4863 
L 1159 2956 
Q 1366 3272 1645 3428 
Q 1925 3584 2291 3584 
Q 2894 3584 3203 3211 
Q 3513 2838 3513 2113 
z
" transform="scale(0.015625)"/>
       <path id="DejaVuSans-65" d="M 3597 1894 
L 3597 1613 
L 953 1613 
Q 991 1019 1311 708 
Q 1631 397 2203 397 
Q 2534 397 2845 478 
Q 3156 559 3463 722 
L 3463 178 
Q 3153 47 2828 -22 
Q 2503 -91 2169 -91 
Q 1331 -91 842 396 
Q 353 884 353 1716 
Q 353 2575 817 3079 
Q 1281 3584 2069 3584 
Q 2775 3584 3186 3129 
Q 3597 2675 3597 1894 
z
M 3022 2063 
Q 3016 2534 2758 2815 
Q 2500 3097 2075 3097 
Q 1594 3097 1305 2825 
Q 1016 2553 972 2059 
L 3022 2063 
z
" transform="scale(0.015625)"/>
       <path id="DejaVuSans-74" d="M 1172 4494 
L 1172 3500 
L 2356 3500 
L 2356 3053 
L 1172 3053 
L 1172 1153 
Q 1172 725 1289 603 
Q 1406 481 1766 481 
L 2356 481 
L 2356 0 
L 1766 0 
Q 1100 0 847 248 
Q 594 497 594 1153 
L 594 3053 
L 172 3053 
L 172 3500 
L 594 3500 
L 594 4494 
L 1172 4494 
z
" transform="scale(0.015625)"/>
       <path id="DejaVuSans-61" d="M 2194 1759 
Q 1497 1759 1228 1600 
Q 959 1441 959 1056 
Q 959 750 1161 570 
Q 1363 391 1709 391 
Q 2188 391 2477 730 
Q 2766 1069 2766 1631 
L 2766 1759 
L 2194 1759 
z
M 3341 1997 
L 3341 0 
L 2766 0 
L 2766 531 
Q 2569 213 2275 61 
Q 1981 -91 1556 -91 
Q 1019 -91 701 211 
Q 384 513 384 1019 
Q 384 1609 779 1909 
Q 1175 2209 1959 2209 
L 2766 2209 
L 2766 2266 
Q 2766 2663 2505 2880 
Q 2244 3097 1772 3097 
Q 1472 3097 1187 3025 
Q 903 2953 641 2809 
L 641 3341 
Q 956 3463 1253 3523 
Q 1550 3584 1831 3584 
Q 2591 3584 2966 3190 
Q 3341 2797 3341 1997 
z
" transform="scale(0.015625)"/>
      </defs>
      <use xlink:href="#DejaVuSans-54"/>
      <use xlink:href="#DejaVuSans-68" x="61.083984"/>
      <use xlink:href="#DejaVuSans-65" x="124.462891"/>
      <use xlink:href="#DejaVuSans-74" x="185.986328"/>
      <use xlink:href="#DejaVuSans-61" x="225.195312"/>
     </g>
    </g>
   </g>
   <g id="matplotlib.axis_2">
    <g id="ytick_1">
     <g id="line2d_11">
      <path d="M 35.304688 261.810395 
L 481.704687 261.810395 
" clip-path="url(#pc164d5611d)" style="fill: none; stroke: #b0b0b0; stroke-width: 0.8; stroke-linecap: square"/>
     </g>
     <g id="line2d_12">
      <defs>
       <path id="m335df6094d" d="M 0 0 
L -3.5 0 
" style="stroke: #000000; stroke-width: 0.8"/>
      </defs>
      <g>
       <use xlink:href="#m335df6094d" x="35.304688" y="261.810395" style="stroke: #000000; stroke-width: 0.8"/>
      </g>
     </g>
     <g id="text_7">
      <!-- −30 -->
      <g transform="translate(7.2 265.609614) scale(0.1 -0.1)">
       <defs>
        <path id="DejaVuSans-33" d="M 2597 2516 
Q 3050 2419 3304 2112 
Q 3559 1806 3559 1356 
Q 3559 666 3084 287 
Q 2609 -91 1734 -91 
Q 1441 -91 1130 -33 
Q 819 25 488 141 
L 488 750 
Q 750 597 1062 519 
Q 1375 441 1716 441 
Q 2309 441 2620 675 
Q 2931 909 2931 1356 
Q 2931 1769 2642 2001 
Q 2353 2234 1838 2234 
L 1294 2234 
L 1294 2753 
L 1863 2753 
Q 2328 2753 2575 2939 
Q 2822 3125 2822 3475 
Q 2822 3834 2567 4026 
Q 2313 4219 1838 4219 
Q 1578 4219 1281 4162 
Q 984 4106 628 3988 
L 628 4550 
Q 988 4650 1302 4700 
Q 1616 4750 1894 4750 
Q 2613 4750 3031 4423 
Q 3450 4097 3450 3541 
Q 3450 3153 3228 2886 
Q 3006 2619 2597 2516 
z
" transform="scale(0.015625)"/>
       </defs>
       <use xlink:href="#DejaVuSans-2212"/>
       <use xlink:href="#DejaVuSans-33" x="83.789062"/>
       <use xlink:href="#DejaVuSans-30" x="147.412109"/>
      </g>
     </g>
    </g>
    <g id="ytick_2">
     <g id="line2d_13">
      <path d="M 35.304688 223.804108 
L 481.704687 223.804108 
" clip-path="url(#pc164d5611d)" style="fill: none; stroke: #b0b0b0; stroke-width: 0.8; stroke-linecap: square"/>
     </g>
     <g id="line2d_14">
      <g>
       <use xlink:href="#m335df6094d" x="35.304688" y="223.804108" style="stroke: #000000; stroke-width: 0.8"/>
      </g>
     </g>
     <g id="text_8">
      <!-- −25 -->
      <g transform="translate(7.2 227.603326) scale(0.1 -0.1)">
       <defs>
        <path id="DejaVuSans-32" d="M 1228 531 
L 3431 531 
L 3431 0 
L 469 0 
L 469 531 
Q 828 903 1448 1529 
Q 2069 2156 2228 2338 
Q 2531 2678 2651 2914 
Q 2772 3150 2772 3378 
Q 2772 3750 2511 3984 
Q 2250 4219 1831 4219 
Q 1534 4219 1204 4116 
Q 875 4013 500 3803 
L 500 4441 
Q 881 4594 1212 4672 
Q 1544 4750 1819 4750 
Q 2544 4750 2975 4387 
Q 3406 4025 3406 3419 
Q 3406 3131 3298 2873 
Q 3191 2616 2906 2266 
Q 2828 2175 2409 1742 
Q 1991 1309 1228 531 
z
" transform="scale(0.015625)"/>
       </defs>
       <use xlink:href="#DejaVuSans-2212"/>
       <use xlink:href="#DejaVuSans-32" x="83.789062"/>
       <use xlink:href="#DejaVuSans-35" x="147.412109"/>
      </g>
     </g>
    </g>
    <g id="ytick_3">
     <g id="line2d_15">
      <path d="M 35.304688 185.79782 
L 481.704687 185.79782 
" clip-path="url(#pc164d5611d)" style="fill: none; stroke: #b0b0b0; stroke-width: 0.8; stroke-linecap: square"/>
     </g>
     <g id="line2d_16">
      <g>
       <use xlink:href="#m335df6094d" x="35.304688" y="185.79782" style="stroke: #000000; stroke-width: 0.8"/>
      </g>
     </g>
     <g id="text_9">
      <!-- −20 -->
      <g transform="translate(7.2 189.597039) scale(0.1 -0.1)">
       <use xlink:href="#DejaVuSans-2212"/>
       <use xlink:href="#DejaVuSans-32" x="83.789062"/>
       <use xlink:href="#DejaVuSans-30" x="147.412109"/>
      </g>
     </g>
    </g>
    <g id="ytick_4">
     <g id="line2d_17">
      <path d="M 35.304688 147.791533 
L 481.704687 147.791533 
" clip-path="url(#pc164d5611d)" style="fill: none; stroke: #b0b0b0; stroke-width: 0.8; stroke-linecap: square"/>
     </g>
     <g id="line2d_18">
      <g>
       <use xlink:href="#m335df6094d" x="35.304688" y="147.791533" style="stroke: #000000; stroke-width: 0.8"/>
      </g>
     </g>
     <g id="text_10">
      <!-- −15 -->
      <g transform="translate(7.2 151.590751) scale(0.1 -0.1)">
       <use xlink:href="#DejaVuSans-2212"/>
       <use xlink:href="#DejaVuSans-31" x="83.789062"/>
       <use xlink:href="#DejaVuSans-35" x="147.412109"/>
      </g>
     </g>
    </g>
    <g id="ytick_5">
     <g id="line2d_19">
      <path d="M 35.304688 109.785245 
L 481.704687 109.785245 
" clip-path="url(#pc164d5611d)" style="fill: none; stroke: #b0b0b0; stroke-width: 0.8; stroke-linecap: square"/>
     </g>
     <g id="line2d_20">
      <g>
       <use xlink:href="#m335df6094d" x="35.304688" y="109.785245" style="stroke: #000000; stroke-width: 0.8"/>
      </g>
     </g>
     <g id="text_11">
      <!-- −10 -->
      <g transform="translate(7.2 113.584464) scale(0.1 -0.1)">
       <use xlink:href="#DejaVuSans-2212"/>
       <use xlink:href="#DejaVuSans-31" x="83.789062"/>
       <use xlink:href="#DejaVuSans-30" x="147.412109"/>
      </g>
     </g>
    </g>
    <g id="ytick_6">
     <g id="line2d_21">
      <path d="M 35.304688 71.778958 
L 481.704687 71.778958 
" clip-path="url(#pc164d5611d)" style="fill: none; stroke: #b0b0b0; stroke-width: 0.8; stroke-linecap: square"/>
     </g>
     <g id="line2d_22">
      <g>
       <use xlink:href="#m335df6094d" x="35.304688" y="71.778958" style="stroke: #000000; stroke-width: 0.8"/>
      </g>
     </g>
     <g id="text_12">
      <!-- −5 -->
      <g transform="translate(13.5625 75.578177) scale(0.1 -0.1)">
       <use xlink:href="#DejaVuSans-2212"/>
       <use xlink:href="#DejaVuSans-35" x="83.789062"/>
      </g>
     </g>
    </g>
    <g id="ytick_7">
     <g id="line2d_23">
      <path d="M 35.304688 33.77267 
L 481.704687 33.77267 
" clip-path="url(#pc164d5611d)" style="fill: none; stroke: #b0b0b0; stroke-width: 0.8; stroke-linecap: square"/>
     </g>
     <g id="line2d_24">
      <g>
       <use xlink:href="#m335df6094d" x="35.304688" y="33.77267" style="stroke: #000000; stroke-width: 0.8"/>
      </g>
     </g>
     <g id="text_13">
      <!-- 0 -->
      <g transform="translate(21.942187 37.571889) scale(0.1 -0.1)">
       <use xlink:href="#DejaVuSans-30"/>
      </g>
     </g>
    </g>
   </g>
   <g id="line2d_25">
    <path d="M 55.595597 180.509591 
L 63.399792 182.212727 
L 71.203988 187.015401 
L 79.008184 194.293025 
L 86.81238 205.618787 
L 94.616576 215.31777 
L 102.420771 222.401163 
L 110.224967 232.252364 
L 118.029163 239.506435 
L 125.833359 241.377051 
L 133.637555 241.556825 
L 141.44175 250.814676 
L 149.245946 259.704292 
L 157.050142 258.819425 
L 164.854338 250.635667 
L 172.658534 246.688965 
L 180.462729 251.060586 
L 188.266925 257.796621 
L 196.071121 245.881685 
L 203.875317 215.90587 
L 211.679513 190.702005 
L 219.483708 173.047733 
L 227.287904 140.750198 
L 235.0921 95.227927 
L 242.896296 59.443685 
L 250.700492 39.664286 
L 258.504687 34.385139 
L 266.308883 41.073026 
L 274.113079 62.432069 
L 281.917275 100.166181 
L 289.721471 146.39895 
L 297.525667 177.574392 
L 305.329862 193.315009 
L 313.134058 218.782551 
L 320.938254 248.058252 
L 328.74245 259.43888 
L 336.546646 251.768678 
L 344.350841 247.883499 
L 352.155037 251.496268 
L 359.959233 258.729693 
L 367.763429 258.479654 
L 375.567625 249.567193 
L 383.37182 241.182844 
L 391.176016 241.26242 
L 398.980212 238.588281 
L 406.784408 230.932615 
L 414.588604 221.078671 
L 422.392799 214.061269 
L 430.196995 203.626743 
L 438.001191 192.394024 
L 445.805387 186.107236 
L 453.609583 180.937882 
L 461.413778 178.127078 
" clip-path="url(#pc164d5611d)" style="fill: none; stroke: #1f77b4; stroke-opacity: 0.7; stroke-width: 1.5; stroke-linecap: square"/>
   </g>
   <g id="line2d_26">
    <path d="M 55.595597 179.222975 
L 63.399792 185.148038 
L 71.203988 185.929163 
L 79.008184 193.430621 
L 86.81238 206.843901 
L 94.616576 215.299108 
L 102.420771 222.219348 
L 110.224967 230.81001 
L 118.029163 242.155316 
L 125.833359 240.512032 
L 133.637555 241.040539 
L 141.44175 248.809334 
L 149.245946 262.86358 
L 157.050142 258.852774 
L 164.854338 249.284768 
L 172.658534 247.056491 
L 180.462729 249.30439 
L 188.266925 257.45271 
L 196.071121 252.436743 
L 203.875317 211.179491 
L 211.679513 187.079641 
L 219.483708 178.394791 
L 227.287904 141.121626 
L 235.0921 93.639176 
L 242.896296 58.6598 
L 250.700492 40.360429 
L 258.504687 33.77267 
L 266.308883 42.049799 
L 274.113079 61.199626 
L 281.917275 98.625647 
L 289.721471 147.352853 
L 297.525667 182.433338 
L 305.329862 190.048067 
L 313.134058 213.065712 
L 320.938254 256.240618 
L 328.74245 257.630677 
L 336.546646 250.754709 
L 344.350841 248.035837 
L 352.155037 250.067543 
L 359.959233 259.22058 
L 367.763429 261.197242 
L 375.567625 247.426836 
L 383.37182 241.043856 
L 391.176016 240.211967 
L 398.980212 241.473301 
L 406.784408 229.114708 
L 414.588604 221.08161 
L 422.392799 214.110515 
L 430.196995 204.972222 
L 438.001191 191.012069 
L 445.805387 185.272648 
L 453.609583 184.673737 
L 461.413778 176.398249 
" clip-path="url(#pc164d5611d)" style="fill: none; stroke: #ff7f0e; stroke-opacity: 0.7; stroke-width: 1.5; stroke-linecap: square"/>
   </g>
   <g id="patch_3">
    <path d="M 35.304688 274.318125 
L 35.304688 22.318125 
" style="fill: none; stroke: #000000; stroke-width: 0.8; stroke-linejoin: miter; stroke-linecap: square"/>
   </g>
   <g id="patch_4">
    <path d="M 481.704687 274.318125 
L 481.704687 22.318125 
" style="fill: none; stroke: #000000; stroke-width: 0.8; stroke-linejoin: miter; stroke-linecap: square"/>
   </g>
   <g id="patch_5">
    <path d="M 35.304688 274.318125 
L 481.704687 274.318125 
" style="fill: none; stroke: #000000; stroke-width: 0.8; stroke-linejoin: miter; stroke-linecap: square"/>
   </g>
   <g id="patch_6">
    <path d="M 35.304688 22.318125 
L 481.704687 22.318125 
" style="fill: none; stroke: #000000; stroke-width: 0.8; stroke-linejoin: miter; stroke-linecap: square"/>
   </g>
   <g id="text_14">
    <!-- Far-field Pattern H-plane Phi = 90.0 -->
    <g transform="translate(152.810937 16.318125) scale(0.12 -0.12)">
     <defs>
      <path id="DejaVuSans-46" d="M 628 4666 
L 3309 4666 
L 3309 4134 
L 1259 4134 
L 1259 2759 
L 3109 2759 
L 3109 2228 
L 1259 2228 
L 1259 0 
L 628 0 
L 628 4666 
z
" transform="scale(0.015625)"/>
      <path id="DejaVuSans-72" d="M 2631 2963 
Q 2534 3019 2420 3045 
Q 2306 3072 2169 3072 
Q 1681 3072 1420 2755 
Q 1159 2438 1159 1844 
L 1159 0 
L 581 0 
L 581 3500 
L 1159 3500 
L 1159 2956 
Q 1341 3275 1631 3429 
Q 1922 3584 2338 3584 
Q 2397 3584 2469 3576 
Q 2541 3569 2628 3553 
L 2631 2963 
z
" transform="scale(0.015625)"/>
      <path id="DejaVuSans-2d" d="M 313 2009 
L 1997 2009 
L 1997 1497 
L 313 1497 
L 313 2009 
z
" transform="scale(0.015625)"/>
      <path id="DejaVuSans-66" d="M 2375 4863 
L 2375 4384 
L 1825 4384 
Q 1516 4384 1395 4259 
Q 1275 4134 1275 3809 
L 1275 3500 
L 2222 3500 
L 2222 3053 
L 1275 3053 
L 1275 0 
L 697 0 
L 697 3053 
L 147 3053 
L 147 3500 
L 697 3500 
L 697 3744 
Q 697 4328 969 4595 
Q 1241 4863 1831 4863 
L 2375 4863 
z
" transform="scale(0.015625)"/>
      <path id="DejaVuSans-69" d="M 603 3500 
L 1178 3500 
L 1178 0 
L 603 0 
L 603 3500 
z
M 603 4863 
L 1178 4863 
L 1178 4134 
L 603 4134 
L 603 4863 
z
" transform="scale(0.015625)"/>
      <path id="DejaVuSans-6c" d="M 603 4863 
L 1178 4863 
L 1178 0 
L 603 0 
L 603 4863 
z
" transform="scale(0.015625)"/>
      <path id="DejaVuSans-64" d="M 2906 2969 
L 2906 4863 
L 3481 4863 
L 3481 0 
L 2906 0 
L 2906 525 
Q 2725 213 2448 61 
Q 2172 -91 1784 -91 
Q 1150 -91 751 415 
Q 353 922 353 1747 
Q 353 2572 751 3078 
Q 1150 3584 1784 3584 
Q 2172 3584 2448 3432 
Q 2725 3281 2906 2969 
z
M 947 1747 
Q 947 1113 1208 752 
Q 1469 391 1925 391 
Q 2381 391 2643 752 
Q 2906 1113 2906 1747 
Q 2906 2381 2643 2742 
Q 2381 3103 1925 3103 
Q 1469 3103 1208 2742 
Q 947 2381 947 1747 
z
" transform="scale(0.015625)"/>
      <path id="DejaVuSans-20" transform="scale(0.015625)"/>
      <path id="DejaVuSans-50" d="M 1259 4147 
L 1259 2394 
L 2053 2394 
Q 2494 2394 2734 2622 
Q 2975 2850 2975 3272 
Q 2975 3691 2734 3919 
Q 2494 4147 2053 4147 
L 1259 4147 
z
M 628 4666 
L 2053 4666 
Q 2838 4666 3239 4311 
Q 3641 3956 3641 3272 
Q 3641 2581 3239 2228 
Q 2838 1875 2053 1875 
L 1259 1875 
L 1259 0 
L 628 0 
L 628 4666 
z
" transform="scale(0.015625)"/>
      <path id="DejaVuSans-6e" d="M 3513 2113 
L 3513 0 
L 2938 0 
L 2938 2094 
Q 2938 2591 2744 2837 
Q 2550 3084 2163 3084 
Q 1697 3084 1428 2787 
Q 1159 2491 1159 1978 
L 1159 0 
L 581 0 
L 581 3500 
L 1159 3500 
L 1159 2956 
Q 1366 3272 1645 3428 
Q 1925 3584 2291 3584 
Q 2894 3584 3203 3211 
Q 3513 2838 3513 2113 
z
" transform="scale(0.015625)"/>
      <path id="DejaVuSans-48" d="M 628 4666 
L 1259 4666 
L 1259 2753 
L 3553 2753 
L 3553 4666 
L 4184 4666 
L 4184 0 
L 3553 0 
L 3553 2222 
L 1259 2222 
L 1259 0 
L 628 0 
L 628 4666 
z
" transform="scale(0.015625)"/>
      <path id="DejaVuSans-70" d="M 1159 525 
L 1159 -1331 
L 581 -1331 
L 581 3500 
L 1159 3500 
L 1159 2969 
Q 1341 3281 1617 3432 
Q 1894 3584 2278 3584 
Q 2916 3584 3314 3078 
Q 3713 2572 3713 1747 
Q 3713 922 3314 415 
Q 2916 -91 2278 -91 
Q 1894 -91 1617 61 
Q 1341 213 1159 525 
z
M 3116 1747 
Q 3116 2381 2855 2742 
Q 2594 3103 2138 3103 
Q 1681 3103 1420 2742 
Q 1159 2381 1159 1747 
Q 1159 1113 1420 752 
Q 1681 391 2138 391 
Q 2594 391 2855 752 
Q 3116 1113 3116 1747 
z
" transform="scale(0.015625)"/>
      <path id="DejaVuSans-3d" d="M 678 2906 
L 4684 2906 
L 4684 2381 
L 678 2381 
L 678 2906 
z
M 678 1631 
L 4684 1631 
L 4684 1100 
L 678 1100 
L 678 1631 
z
" transform="scale(0.015625)"/>
      <path id="DejaVuSans-39" d="M 703 97 
L 703 672 
Q 941 559 1184 500 
Q 1428 441 1663 441 
Q 2288 441 2617 861 
Q 2947 1281 2994 2138 
Q 2813 1869 2534 1725 
Q 2256 1581 1919 1581 
Q 1219 1581 811 2004 
Q 403 2428 403 3163 
Q 403 3881 828 4315 
Q 1253 4750 1959 4750 
Q 2769 4750 3195 4129 
Q 3622 3509 3622 2328 
Q 3622 1225 3098 567 
Q 2575 -91 1691 -91 
Q 1453 -91 1209 -44 
Q 966 3 703 97 
z
M 1959 2075 
Q 2384 2075 2632 2365 
Q 2881 2656 2881 3163 
Q 2881 3666 2632 3958 
Q 2384 4250 1959 4250 
Q 1534 4250 1286 3958 
Q 1038 3666 1038 3163 
Q 1038 2656 1286 2365 
Q 1534 2075 1959 2075 
z
" transform="scale(0.015625)"/>
      <path id="DejaVuSans-2e" d="M 684 794 
L 1344 794 
L 1344 0 
L 684 0 
L 684 794 
z
" transform="scale(0.015625)"/>
     </defs>
     <use xlink:href="#DejaVuSans-46"/>
     <use xlink:href="#DejaVuSans-61" x="48.394531"/>
     <use xlink:href="#DejaVuSans-72" x="109.673828"/>
     <use xlink:href="#DejaVuSans-2d" x="144.412109"/>
     <use xlink:href="#DejaVuSans-66" x="180.496094"/>
     <use xlink:href="#DejaVuSans-69" x="215.701172"/>
     <use xlink:href="#DejaVuSans-65" x="243.484375"/>
     <use xlink:href="#DejaVuSans-6c" x="305.007812"/>
     <use xlink:href="#DejaVuSans-64" x="332.791016"/>
     <use xlink:href="#DejaVuSans-20" x="396.267578"/>
     <use xlink:href="#DejaVuSans-50" x="428.054688"/>
     <use xlink:href="#DejaVuSans-61" x="483.857422"/>
     <use xlink:href="#DejaVuSans-74" x="545.136719"/>
     <use xlink:href="#DejaVuSans-74" x="584.345703"/>
     <use xlink:href="#DejaVuSans-65" x="623.554688"/>
     <use xlink:href="#DejaVuSans-72" x="685.078125"/>
     <use xlink:href="#DejaVuSans-6e" x="724.441406"/>
     <use xlink:href="#DejaVuSans-20" x="787.820312"/>
     <use xlink:href="#DejaVuSans-48" x="819.607422"/>
     <use xlink:href="#DejaVuSans-2d" x="894.802734"/>
     <use xlink:href="#DejaVuSans-70" x="930.886719"/>
     <use xlink:href="#DejaVuSans-6c" x="994.363281"/>
     <use xlink:href="#DejaVuSans-61" x="1022.146484"/>
     <use xlink:href="#DejaVuSans-6e" x="1083.425781"/>
     <use xlink:href="#DejaVuSans-65" x="1146.804688"/>
     <use xlink:href="#DejaVuSans-20" x="1208.328125"/>
     <use xlink:href="#DejaVuSans-50" x="1240.115234"/>
     <use xlink:href="#DejaVuSans-68" x="1300.417969"/>
     <use xlink:href="#DejaVuSans-69" x="1363.796875"/>
     <use xlink:href="#DejaVuSans-20" x="1391.580078"/>
     <use xlink:href="#DejaVuSans-3d" x="1423.367188"/>
     <use xlink:href="#DejaVuSans-20" x="1507.15625"/>
     <use xlink:href="#DejaVuSans-39" x="1538.943359"/>
     <use xlink:href="#DejaVuSans-30" x="1602.566406"/>
     <use xlink:href="#DejaVuSans-2e" x="1666.189453"/>
     <use xlink:href="#DejaVuSans-30" x="1697.976562"/>
    </g>
   </g>
   <g id="legend_1">
    <g id="patch_7">
     <path d="M 264.571875 59.674375 
L 474.704687 59.674375 
Q 476.704687 59.674375 476.704687 57.674375 
L 476.704687 29.318125 
Q 476.704687 27.318125 474.704687 27.318125 
L 264.571875 27.318125 
Q 262.571875 27.318125 262.571875 29.318125 
L 262.571875 57.674375 
Q 262.571875 59.674375 264.571875 59.674375 
z
" style="fill: #ffffff; opacity: 0.8; stroke: #cccccc; stroke-linejoin: miter"/>
    </g>
    <g id="line2d_27">
     <path d="M 266.571875 35.416562 
L 276.571875 35.416562 
L 286.571875 35.416562 
" style="fill: none; stroke: #1f77b4; stroke-opacity: 0.7; stroke-width: 1.5; stroke-linecap: square"/>
    </g>
    <g id="text_15">
     <!-- smoothed with Savitzky-Golay filter -->
     <g transform="translate(294.571875 38.916562) scale(0.1 -0.1)">
      <defs>
       <path id="DejaVuSans-73" d="M 2834 3397 
L 2834 2853 
Q 2591 2978 2328 3040 
Q 2066 3103 1784 3103 
Q 1356 3103 1142 2972 
Q 928 2841 928 2578 
Q 928 2378 1081 2264 
Q 1234 2150 1697 2047 
L 1894 2003 
Q 2506 1872 2764 1633 
Q 3022 1394 3022 966 
Q 3022 478 2636 193 
Q 2250 -91 1575 -91 
Q 1294 -91 989 -36 
Q 684 19 347 128 
L 347 722 
Q 666 556 975 473 
Q 1284 391 1588 391 
Q 1994 391 2212 530 
Q 2431 669 2431 922 
Q 2431 1156 2273 1281 
Q 2116 1406 1581 1522 
L 1381 1569 
Q 847 1681 609 1914 
Q 372 2147 372 2553 
Q 372 3047 722 3315 
Q 1072 3584 1716 3584 
Q 2034 3584 2315 3537 
Q 2597 3491 2834 3397 
z
" transform="scale(0.015625)"/>
       <path id="DejaVuSans-6d" d="M 3328 2828 
Q 3544 3216 3844 3400 
Q 4144 3584 4550 3584 
Q 5097 3584 5394 3201 
Q 5691 2819 5691 2113 
L 5691 0 
L 5113 0 
L 5113 2094 
Q 5113 2597 4934 2840 
Q 4756 3084 4391 3084 
Q 3944 3084 3684 2787 
Q 3425 2491 3425 1978 
L 3425 0 
L 2847 0 
L 2847 2094 
Q 2847 2600 2669 2842 
Q 2491 3084 2119 3084 
Q 1678 3084 1418 2786 
Q 1159 2488 1159 1978 
L 1159 0 
L 581 0 
L 581 3500 
L 1159 3500 
L 1159 2956 
Q 1356 3278 1631 3431 
Q 1906 3584 2284 3584 
Q 2666 3584 2933 3390 
Q 3200 3197 3328 2828 
z
" transform="scale(0.015625)"/>
       <path id="DejaVuSans-6f" d="M 1959 3097 
Q 1497 3097 1228 2736 
Q 959 2375 959 1747 
Q 959 1119 1226 758 
Q 1494 397 1959 397 
Q 2419 397 2687 759 
Q 2956 1122 2956 1747 
Q 2956 2369 2687 2733 
Q 2419 3097 1959 3097 
z
M 1959 3584 
Q 2709 3584 3137 3096 
Q 3566 2609 3566 1747 
Q 3566 888 3137 398 
Q 2709 -91 1959 -91 
Q 1206 -91 779 398 
Q 353 888 353 1747 
Q 353 2609 779 3096 
Q 1206 3584 1959 3584 
z
" transform="scale(0.015625)"/>
       <path id="DejaVuSans-77" d="M 269 3500 
L 844 3500 
L 1563 769 
L 2278 3500 
L 2956 3500 
L 3675 769 
L 4391 3500 
L 4966 3500 
L 4050 0 
L 3372 0 
L 2619 2869 
L 1863 0 
L 1184 0 
L 269 3500 
z
" transform="scale(0.015625)"/>
       <path id="DejaVuSans-53" d="M 3425 4513 
L 3425 3897 
Q 3066 4069 2747 4153 
Q 2428 4238 2131 4238 
Q 1616 4238 1336 4038 
Q 1056 3838 1056 3469 
Q 1056 3159 1242 3001 
Q 1428 2844 1947 2747 
L 2328 2669 
Q 3034 2534 3370 2195 
Q 3706 1856 3706 1288 
Q 3706 609 3251 259 
Q 2797 -91 1919 -91 
Q 1588 -91 1214 -16 
Q 841 59 441 206 
L 441 856 
Q 825 641 1194 531 
Q 1563 422 1919 422 
Q 2459 422 2753 634 
Q 3047 847 3047 1241 
Q 3047 1584 2836 1778 
Q 2625 1972 2144 2069 
L 1759 2144 
Q 1053 2284 737 2584 
Q 422 2884 422 3419 
Q 422 4038 858 4394 
Q 1294 4750 2059 4750 
Q 2388 4750 2728 4690 
Q 3069 4631 3425 4513 
z
" transform="scale(0.015625)"/>
       <path id="DejaVuSans-76" d="M 191 3500 
L 800 3500 
L 1894 563 
L 2988 3500 
L 3597 3500 
L 2284 0 
L 1503 0 
L 191 3500 
z
" transform="scale(0.015625)"/>
       <path id="DejaVuSans-7a" d="M 353 3500 
L 3084 3500 
L 3084 2975 
L 922 459 
L 3084 459 
L 3084 0 
L 275 0 
L 275 525 
L 2438 3041 
L 353 3041 
L 353 3500 
z
" transform="scale(0.015625)"/>
       <path id="DejaVuSans-6b" d="M 581 4863 
L 1159 4863 
L 1159 1991 
L 2875 3500 
L 3609 3500 
L 1753 1863 
L 3688 0 
L 2938 0 
L 1159 1709 
L 1159 0 
L 581 0 
L 581 4863 
z
" transform="scale(0.015625)"/>
       <path id="DejaVuSans-79" d="M 2059 -325 
Q 1816 -950 1584 -1140 
Q 1353 -1331 966 -1331 
L 506 -1331 
L 506 -850 
L 844 -850 
Q 1081 -850 1212 -737 
Q 1344 -625 1503 -206 
L 1606 56 
L 191 3500 
L 800 3500 
L 1894 763 
L 2988 3500 
L 3597 3500 
L 2059 -325 
z
" transform="scale(0.015625)"/>
       <path id="DejaVuSans-47" d="M 3809 666 
L 3809 1919 
L 2778 1919 
L 2778 2438 
L 4434 2438 
L 4434 434 
Q 4069 175 3628 42 
Q 3188 -91 2688 -91 
Q 1594 -91 976 548 
Q 359 1188 359 2328 
Q 359 3472 976 4111 
Q 1594 4750 2688 4750 
Q 3144 4750 3555 4637 
Q 3966 4525 4313 4306 
L 4313 3634 
Q 3963 3931 3569 4081 
Q 3175 4231 2741 4231 
Q 1884 4231 1454 3753 
Q 1025 3275 1025 2328 
Q 1025 1384 1454 906 
Q 1884 428 2741 428 
Q 3075 428 3337 486 
Q 3600 544 3809 666 
z
" transform="scale(0.015625)"/>
      </defs>
      <use xlink:href="#DejaVuSans-73"/>
      <use xlink:href="#DejaVuSans-6d" x="52.099609"/>
      <use xlink:href="#DejaVuSans-6f" x="149.511719"/>
      <use xlink:href="#DejaVuSans-6f" x="210.693359"/>
      <use xlink:href="#DejaVuSans-74" x="271.875"/>
      <use xlink:href="#DejaVuSans-68" x="311.083984"/>
      <use xlink:href="#DejaVuSans-65" x="374.462891"/>
      <use xlink:href="#DejaVuSans-64" x="435.986328"/>
      <use xlink:href="#DejaVuSans-20" x="499.462891"/>
      <use xlink:href="#DejaVuSans-77" x="531.25"/>
      <use xlink:href="#DejaVuSans-69" x="613.037109"/>
      <use xlink:href="#DejaVuSans-74" x="640.820312"/>
      <use xlink:href="#DejaVuSans-68" x="680.029297"/>
      <use xlink:href="#DejaVuSans-20" x="743.408203"/>
      <use xlink:href="#DejaVuSans-53" x="775.195312"/>
      <use xlink:href="#DejaVuSans-61" x="838.671875"/>
      <use xlink:href="#DejaVuSans-76" x="899.951172"/>
      <use xlink:href="#DejaVuSans-69" x="959.130859"/>
      <use xlink:href="#DejaVuSans-74" x="986.914062"/>
      <use xlink:href="#DejaVuSans-7a" x="1026.123047"/>
      <use xlink:href="#DejaVuSans-6b" x="1078.613281"/>
      <use xlink:href="#DejaVuSans-79" x="1132.898438"/>
      <use xlink:href="#DejaVuSans-2d" x="1190.328125"/>
      <use xlink:href="#DejaVuSans-47" x="1230.037109"/>
      <use xlink:href="#DejaVuSans-6f" x="1307.527344"/>
      <use xlink:href="#DejaVuSans-6c" x="1368.708984"/>
      <use xlink:href="#DejaVuSans-61" x="1396.492188"/>
      <use xlink:href="#DejaVuSans-79" x="1457.771484"/>
      <use xlink:href="#DejaVuSans-20" x="1516.951172"/>
      <use xlink:href="#DejaVuSans-66" x="1548.738281"/>
      <use xlink:href="#DejaVuSans-69" x="1583.943359"/>
      <use xlink:href="#DejaVuSans-6c" x="1611.726562"/>
      <use xlink:href="#DejaVuSans-74" x="1639.509766"/>
      <use xlink:href="#DejaVuSans-65" x="1678.71875"/>
      <use xlink:href="#DejaVuSans-72" x="1740.242188"/>
     </g>
    </g>
    <g id="line2d_28">
     <path d="M 266.571875 50.094687 
L 276.571875 50.094687 
L 286.571875 50.094687 
" style="fill: none; stroke: #ff7f0e; stroke-opacity: 0.7; stroke-width: 1.5; stroke-linecap: square"/>
    </g>
    <g id="text_16">
     <!-- no smoothing -->
     <g transform="translate(294.571875 53.594687) scale(0.1 -0.1)">
      <defs>
       <path id="DejaVuSans-67" d="M 2906 1791 
Q 2906 2416 2648 2759 
Q 2391 3103 1925 3103 
Q 1463 3103 1205 2759 
Q 947 2416 947 1791 
Q 947 1169 1205 825 
Q 1463 481 1925 481 
Q 2391 481 2648 825 
Q 2906 1169 2906 1791 
z
M 3481 434 
Q 3481 -459 3084 -895 
Q 2688 -1331 1869 -1331 
Q 1566 -1331 1297 -1286 
Q 1028 -1241 775 -1147 
L 775 -588 
Q 1028 -725 1275 -790 
Q 1522 -856 1778 -856 
Q 2344 -856 2625 -561 
Q 2906 -266 2906 331 
L 2906 616 
Q 2728 306 2450 153 
Q 2172 0 1784 0 
Q 1141 0 747 490 
Q 353 981 353 1791 
Q 353 2603 747 3093 
Q 1141 3584 1784 3584 
Q 2172 3584 2450 3431 
Q 2728 3278 2906 2969 
L 2906 3500 
L 3481 3500 
L 3481 434 
z
" transform="scale(0.015625)"/>
      </defs>
      <use xlink:href="#DejaVuSans-6e"/>
      <use xlink:href="#DejaVuSans-6f" x="63.378906"/>
      <use xlink:href="#DejaVuSans-20" x="124.560547"/>
      <use xlink:href="#DejaVuSans-73" x="156.347656"/>
      <use xlink:href="#DejaVuSans-6d" x="208.447266"/>
      <use xlink:href="#DejaVuSans-6f" x="305.859375"/>
      <use xlink:href="#DejaVuSans-6f" x="367.041016"/>
      <use xlink:href="#DejaVuSans-74" x="428.222656"/>
      <use xlink:href="#DejaVuSans-68" x="467.431641"/>
      <use xlink:href="#DejaVuSans-69" x="530.810547"/>
      <use xlink:href="#DejaVuSans-6e" x="558.59375"/>
      <use xlink:href="#DejaVuSans-67" x="621.972656"/>
     </g>
    </g>
   </g>
  </g>
  <g id="axes_2">
   <g id="patch_8">
    <path d="M 35.304688 576.718125 
L 481.704687 576.718125 
L 481.704687 324.718125 
L 35.304688 324.718125 
z
" style="fill: #ffffff"/>
   </g>
   <g id="matplotlib.axis_3">
    <g id="xtick_6">
     <g id="line2d_29">
      <path d="M 102.420771 576.718125 
L 102.420771 324.718125 
" clip-path="url(#pb668828ba8)" style="fill: none; stroke: #b0b0b0; stroke-width: 0.8; stroke-linecap: square"/>
     </g>
     <g id="line2d_30">
      <g>
       <use xlink:href="#mbae7c267fd" x="102.420771" y="576.718125" style="stroke: #000000; stroke-width: 0.8"/>
      </g>
     </g>
     <g id="text_17">
      <!-- −100 -->
      <g transform="translate(88.687178 591.316562) scale(0.1 -0.1)">
       <use xlink:href="#DejaVuSans-2212"/>
       <use xlink:href="#DejaVuSans-31" x="83.789062"/>
       <use xlink:href="#DejaVuSans-30" x="147.412109"/>
       <use xlink:href="#DejaVuSans-30" x="211.035156"/>
      </g>
     </g>
    </g>
    <g id="xtick_7">
     <g id="line2d_31">
      <path d="M 180.462729 576.718125 
L 180.462729 324.718125 
" clip-path="url(#pb668828ba8)" style="fill: none; stroke: #b0b0b0; stroke-width: 0.8; stroke-linecap: square"/>
     </g>
     <g id="line2d_32">
      <g>
       <use xlink:href="#mbae7c267fd" x="180.462729" y="576.718125" style="stroke: #000000; stroke-width: 0.8"/>
      </g>
     </g>
     <g id="text_18">
      <!-- −50 -->
      <g transform="translate(169.910386 591.316562) scale(0.1 -0.1)">
       <use xlink:href="#DejaVuSans-2212"/>
       <use xlink:href="#DejaVuSans-35" x="83.789062"/>
       <use xlink:href="#DejaVuSans-30" x="147.412109"/>
      </g>
     </g>
    </g>
    <g id="xtick_8">
     <g id="line2d_33">
      <path d="M 258.504687 576.718125 
L 258.504687 324.718125 
" clip-path="url(#pb668828ba8)" style="fill: none; stroke: #b0b0b0; stroke-width: 0.8; stroke-linecap: square"/>
     </g>
     <g id="line2d_34">
      <g>
       <use xlink:href="#mbae7c267fd" x="258.504687" y="576.718125" style="stroke: #000000; stroke-width: 0.8"/>
      </g>
     </g>
     <g id="text_19">
      <!-- 0 -->
      <g transform="translate(255.323437 591.316562) scale(0.1 -0.1)">
       <use xlink:href="#DejaVuSans-30"/>
      </g>
     </g>
    </g>
    <g id="xtick_9">
     <g id="line2d_35">
      <path d="M 336.546646 576.718125 
L 336.546646 324.718125 
" clip-path="url(#pb668828ba8)" style="fill: none; stroke: #b0b0b0; stroke-width: 0.8; stroke-linecap: square"/>
     </g>
     <g id="line2d_36">
      <g>
       <use xlink:href="#mbae7c267fd" x="336.546646" y="576.718125" style="stroke: #000000; stroke-width: 0.8"/>
      </g>
     </g>
     <g id="text_20">
      <!-- 50 -->
      <g transform="translate(330.184146 591.316562) scale(0.1 -0.1)">
       <use xlink:href="#DejaVuSans-35"/>
       <use xlink:href="#DejaVuSans-30" x="63.623047"/>
      </g>
     </g>
    </g>
    <g id="xtick_10">
     <g id="line2d_37">
      <path d="M 414.588604 576.718125 
L 414.588604 324.718125 
" clip-path="url(#pb668828ba8)" style="fill: none; stroke: #b0b0b0; stroke-width: 0.8; stroke-linecap: square"/>
     </g>
     <g id="line2d_38">
      <g>
       <use xlink:href="#mbae7c267fd" x="414.588604" y="576.718125" style="stroke: #000000; stroke-width: 0.8"/>
      </g>
     </g>
     <g id="text_21">
      <!-- 100 -->
      <g transform="translate(405.044854 591.316562) scale(0.1 -0.1)">
       <use xlink:href="#DejaVuSans-31"/>
       <use xlink:href="#DejaVuSans-30" x="63.623047"/>
       <use xlink:href="#DejaVuSans-30" x="127.246094"/>
      </g>
     </g>
    </g>
    <g id="text_22">
     <!-- Theta -->
     <g transform="translate(244.18125 604.994687) scale(0.1 -0.1)">
      <use xlink:href="#DejaVuSans-54"/>
      <use xlink:href="#DejaVuSans-68" x="61.083984"/>
      <use xlink:href="#DejaVuSans-65" x="124.462891"/>
      <use xlink:href="#DejaVuSans-74" x="185.986328"/>
      <use xlink:href="#DejaVuSans-61" x="225.195312"/>
     </g>
    </g>
   </g>
   <g id="matplotlib.axis_4">
    <g id="ytick_8">
     <g id="line2d_39">
      <path d="M 35.304688 537.911675 
L 481.704687 537.911675 
" clip-path="url(#pb668828ba8)" style="fill: none; stroke: #b0b0b0; stroke-width: 0.8; stroke-linecap: square"/>
     </g>
     <g id="line2d_40">
      <g>
       <use xlink:href="#m335df6094d" x="35.304688" y="537.911675" style="stroke: #000000; stroke-width: 0.8"/>
      </g>
     </g>
     <g id="text_23">
      <!-- −25 -->
      <g transform="translate(7.2 541.710894) scale(0.1 -0.1)">
       <use xlink:href="#DejaVuSans-2212"/>
       <use xlink:href="#DejaVuSans-32" x="83.789062"/>
       <use xlink:href="#DejaVuSans-35" x="147.412109"/>
      </g>
     </g>
    </g>
    <g id="ytick_9">
     <g id="line2d_41">
      <path d="M 35.304688 497.563874 
L 481.704687 497.563874 
" clip-path="url(#pb668828ba8)" style="fill: none; stroke: #b0b0b0; stroke-width: 0.8; stroke-linecap: square"/>
     </g>
     <g id="line2d_42">
      <g>
       <use xlink:href="#m335df6094d" x="35.304688" y="497.563874" style="stroke: #000000; stroke-width: 0.8"/>
      </g>
     </g>
     <g id="text_24">
      <!-- −20 -->
      <g transform="translate(7.2 501.363093) scale(0.1 -0.1)">
       <use xlink:href="#DejaVuSans-2212"/>
       <use xlink:href="#DejaVuSans-32" x="83.789062"/>
       <use xlink:href="#DejaVuSans-30" x="147.412109"/>
      </g>
     </g>
    </g>
    <g id="ytick_10">
     <g id="line2d_43">
      <path d="M 35.304688 457.216073 
L 481.704687 457.216073 
" clip-path="url(#pb668828ba8)" style="fill: none; stroke: #b0b0b0; stroke-width: 0.8; stroke-linecap: square"/>
     </g>
     <g id="line2d_44">
      <g>
       <use xlink:href="#m335df6094d" x="35.304688" y="457.216073" style="stroke: #000000; stroke-width: 0.8"/>
      </g>
     </g>
     <g id="text_25">
      <!-- −15 -->
      <g transform="translate(7.2 461.015292) scale(0.1 -0.1)">
       <use xlink:href="#DejaVuSans-2212"/>
       <use xlink:href="#DejaVuSans-31" x="83.789062"/>
       <use xlink:href="#DejaVuSans-35" x="147.412109"/>
      </g>
     </g>
    </g>
    <g id="ytick_11">
     <g id="line2d_45">
      <path d="M 35.304688 416.868272 
L 481.704687 416.868272 
" clip-path="url(#pb668828ba8)" style="fill: none; stroke: #b0b0b0; stroke-width: 0.8; stroke-linecap: square"/>
     </g>
     <g id="line2d_46">
      <g>
       <use xlink:href="#m335df6094d" x="35.304688" y="416.868272" style="stroke: #000000; stroke-width: 0.8"/>
      </g>
     </g>
     <g id="text_26">
      <!-- −10 -->
      <g transform="translate(7.2 420.667491) scale(0.1 -0.1)">
       <use xlink:href="#DejaVuSans-2212"/>
       <use xlink:href="#DejaVuSans-31" x="83.789062"/>
       <use xlink:href="#DejaVuSans-30" x="147.412109"/>
      </g>
     </g>
    </g>
    <g id="ytick_12">
     <g id="line2d_47">
      <path d="M 35.304688 376.520471 
L 481.704687 376.520471 
" clip-path="url(#pb668828ba8)" style="fill: none; stroke: #b0b0b0; stroke-width: 0.8; stroke-linecap: square"/>
     </g>
     <g id="line2d_48">
      <g>
       <use xlink:href="#m335df6094d" x="35.304688" y="376.520471" style="stroke: #000000; stroke-width: 0.8"/>
      </g>
     </g>
     <g id="text_27">
      <!-- −5 -->
      <g transform="translate(13.5625 380.31969) scale(0.1 -0.1)">
       <use xlink:href="#DejaVuSans-2212"/>
       <use xlink:href="#DejaVuSans-35" x="83.789062"/>
      </g>
     </g>
    </g>
    <g id="ytick_13">
     <g id="line2d_49">
      <path d="M 35.304688 336.17267 
L 481.704687 336.17267 
" clip-path="url(#pb668828ba8)" style="fill: none; stroke: #b0b0b0; stroke-width: 0.8; stroke-linecap: square"/>
     </g>
     <g id="line2d_50">
      <g>
       <use xlink:href="#m335df6094d" x="35.304688" y="336.17267" style="stroke: #000000; stroke-width: 0.8"/>
      </g>
     </g>
     <g id="text_28">
      <!-- 0 -->
      <g transform="translate(21.942187 339.971889) scale(0.1 -0.1)">
       <use xlink:href="#DejaVuSans-30"/>
      </g>
     </g>
    </g>
   </g>
   <g id="line2d_51">
    <path d="M 55.595597 474.032784 
L 63.399792 487.6573 
L 71.203988 491.380069 
L 79.008184 477.639214 
L 86.81238 473.699648 
L 94.616576 501.150449 
L 102.420771 537.099304 
L 110.224967 543.259248 
L 118.029163 518.936036 
L 125.833359 501.961168 
L 133.637555 508.039984 
L 141.44175 515.26719 
L 149.245946 511.057867 
L 157.050142 500.848761 
L 164.854338 503.276739 
L 172.658534 535.620267 
L 180.462729 545.786845 
L 188.266925 516.28376 
L 196.071121 466.658017 
L 203.875317 445.850101 
L 211.679513 452.663694 
L 219.483708 472.826079 
L 227.287904 460.186215 
L 235.0921 411.420616 
L 242.896296 363.521718 
L 250.700492 343.040031 
L 258.504687 336.539965 
L 266.308883 342.938581 
L 274.113079 362.662906 
L 281.917275 408.17226 
L 289.721471 458.718369 
L 297.525667 473.775779 
L 305.329862 455.325424 
L 313.134058 446.367854 
L 320.938254 465.877895 
L 328.74245 512.363473 
L 336.546646 542.55866 
L 344.350841 534.520233 
L 352.155037 503.484516 
L 359.959233 499.407438 
L 367.763429 511.050086 
L 375.567625 517.035547 
L 383.37182 509.945922 
L 391.176016 501.174015 
L 398.980212 514.538827 
L 406.784408 542.132443 
L 414.588604 540.74551 
L 422.392799 506.402917 
L 430.196995 474.971101 
L 438.001191 476.969792 
L 445.805387 489.985558 
L 453.609583 486.231643 
L 461.413778 473.42343 
" clip-path="url(#pb668828ba8)" style="fill: none; stroke: #1f77b4; stroke-opacity: 0.7; stroke-width: 1.5; stroke-linecap: square"/>
   </g>
   <g id="line2d_52">
    <path d="M 55.595597 470.097905 
L 63.399792 494.719706 
L 71.203988 493.802129 
L 79.008184 474.909272 
L 86.81238 473.862597 
L 94.616576 494.634241 
L 102.420771 543.097419 
L 110.224967 549.102925 
L 118.029163 512.479557 
L 125.833359 501.232341 
L 133.637555 508.040716 
L 141.44175 517.081144 
L 149.245946 512.538635 
L 157.050142 499.760997 
L 164.854338 501.371669 
L 172.658534 527.303515 
L 180.462729 565.26358 
L 188.266925 505.930135 
L 196.071121 467.210027 
L 203.875317 446.217814 
L 211.679513 446.50817 
L 219.483708 475.925759 
L 227.287904 470.500798 
L 235.0921 402.426443 
L 242.896296 364.232648 
L 250.700492 343.51735 
L 258.504687 336.17267 
L 266.308883 343.659451 
L 274.113079 363.153428 
L 281.917275 400.240488 
L 289.721471 466.229271 
L 297.525667 479.891073 
L 305.329862 447.62438 
L 313.134058 447.172772 
L 320.938254 466.434316 
L 328.74245 502.697786 
L 336.546646 559.743533 
L 344.350841 528.58556 
L 352.155037 500.728061 
L 359.959233 498.437383 
L 367.763429 511.821233 
L 375.567625 519.670005 
L 383.37182 509.770806 
L 391.176016 500.646092 
L 398.980212 508.775303 
L 406.784408 544.478773 
L 414.588604 550.835723 
L 422.392799 498.299223 
L 430.196995 475.041495 
L 438.001191 474.691663 
L 445.805387 491.700116 
L 453.609583 493.939079 
L 461.413778 469.283952 
" clip-path="url(#pb668828ba8)" style="fill: none; stroke: #ff7f0e; stroke-opacity: 0.7; stroke-width: 1.5; stroke-linecap: square"/>
   </g>
   <g id="patch_9">
    <path d="M 35.304688 576.718125 
L 35.304688 324.718125 
" style="fill: none; stroke: #000000; stroke-width: 0.8; stroke-linejoin: miter; stroke-linecap: square"/>
   </g>
   <g id="patch_10">
    <path d="M 481.704687 576.718125 
L 481.704687 324.718125 
" style="fill: none; stroke: #000000; stroke-width: 0.8; stroke-linejoin: miter; stroke-linecap: square"/>
   </g>
   <g id="patch_11">
    <path d="M 35.304688 576.718125 
L 481.704687 576.718125 
" style="fill: none; stroke: #000000; stroke-width: 0.8; stroke-linejoin: miter; stroke-linecap: square"/>
   </g>
   <g id="patch_12">
    <path d="M 35.304688 324.718125 
L 481.704687 324.718125 
" style="fill: none; stroke: #000000; stroke-width: 0.8; stroke-linejoin: miter; stroke-linecap: square"/>
   </g>
   <g id="text_29">
    <!-- Far-field Pattern E-plane Phi = 0.0 -->
    <g transform="translate(157.349375 318.718125) scale(0.12 -0.12)">
     <defs>
      <path id="DejaVuSans-45" d="M 628 4666 
L 3578 4666 
L 3578 4134 
L 1259 4134 
L 1259 2753 
L 3481 2753 
L 3481 2222 
L 1259 2222 
L 1259 531 
L 3634 531 
L 3634 0 
L 628 0 
L 628 4666 
z
" transform="scale(0.015625)"/>
     </defs>
     <use xlink:href="#DejaVuSans-46"/>
     <use xlink:href="#DejaVuSans-61" x="48.394531"/>
     <use xlink:href="#DejaVuSans-72" x="109.673828"/>
     <use xlink:href="#DejaVuSans-2d" x="144.412109"/>
     <use xlink:href="#DejaVuSans-66" x="180.496094"/>
     <use xlink:href="#DejaVuSans-69" x="215.701172"/>
     <use xlink:href="#DejaVuSans-65" x="243.484375"/>
     <use xlink:href="#DejaVuSans-6c" x="305.007812"/>
     <use xlink:href="#DejaVuSans-64" x="332.791016"/>
     <use xlink:href="#DejaVuSans-20" x="396.267578"/>
     <use xlink:href="#DejaVuSans-50" x="428.054688"/>
     <use xlink:href="#DejaVuSans-61" x="483.857422"/>
     <use xlink:href="#DejaVuSans-74" x="545.136719"/>
     <use xlink:href="#DejaVuSans-74" x="584.345703"/>
     <use xlink:href="#DejaVuSans-65" x="623.554688"/>
     <use xlink:href="#DejaVuSans-72" x="685.078125"/>
     <use xlink:href="#DejaVuSans-6e" x="724.441406"/>
     <use xlink:href="#DejaVuSans-20" x="787.820312"/>
     <use xlink:href="#DejaVuSans-45" x="819.607422"/>
     <use xlink:href="#DejaVuSans-2d" x="882.791016"/>
     <use xlink:href="#DejaVuSans-70" x="918.875"/>
     <use xlink:href="#DejaVuSans-6c" x="982.351562"/>
     <use xlink:href="#DejaVuSans-61" x="1010.134766"/>
     <use xlink:href="#DejaVuSans-6e" x="1071.414062"/>
     <use xlink:href="#DejaVuSans-65" x="1134.792969"/>
     <use xlink:href="#DejaVuSans-20" x="1196.316406"/>
     <use xlink:href="#DejaVuSans-50" x="1228.103516"/>
     <use xlink:href="#DejaVuSans-68" x="1288.40625"/>
     <use xlink:href="#DejaVuSans-69" x="1351.785156"/>
     <use xlink:href="#DejaVuSans-20" x="1379.568359"/>
     <use xlink:href="#DejaVuSans-3d" x="1411.355469"/>
     <use xlink:href="#DejaVuSans-20" x="1495.144531"/>
     <use xlink:href="#DejaVuSans-30" x="1526.931641"/>
     <use xlink:href="#DejaVuSans-2e" x="1590.554688"/>
     <use xlink:href="#DejaVuSans-30" x="1622.341797"/>
    </g>
   </g>
   <g id="legend_2">
    <g id="patch_13">
     <path d="M 264.571875 362.074375 
L 474.704687 362.074375 
Q 476.704687 362.074375 476.704687 360.074375 
L 476.704687 331.718125 
Q 476.704687 329.718125 474.704687 329.718125 
L 264.571875 329.718125 
Q 262.571875 329.718125 262.571875 331.718125 
L 262.571875 360.074375 
Q 262.571875 362.074375 264.571875 362.074375 
z
" style="fill: #ffffff; opacity: 0.8; stroke: #cccccc; stroke-linejoin: miter"/>
    </g>
    <g id="line2d_53">
     <path d="M 266.571875 337.816563 
L 276.571875 337.816563 
L 286.571875 337.816563 
" style="fill: none; stroke: #1f77b4; stroke-opacity: 0.7; stroke-width: 1.5; stroke-linecap: square"/>
    </g>
    <g id="text_30">
     <!-- smoothed with Savitzky-Golay filter -->
     <g transform="translate(294.571875 341.316563) scale(0.1 -0.1)">
      <use xlink:href="#DejaVuSans-73"/>
      <use xlink:href="#DejaVuSans-6d" x="52.099609"/>
      <use xlink:href="#DejaVuSans-6f" x="149.511719"/>
      <use xlink:href="#DejaVuSans-6f" x="210.693359"/>
      <use xlink:href="#DejaVuSans-74" x="271.875"/>
      <use xlink:href="#DejaVuSans-68" x="311.083984"/>
      <use xlink:href="#DejaVuSans-65" x="374.462891"/>
      <use xlink:href="#DejaVuSans-64" x="435.986328"/>
      <use xlink:href="#DejaVuSans-20" x="499.462891"/>
      <use xlink:href="#DejaVuSans-77" x="531.25"/>
      <use xlink:href="#DejaVuSans-69" x="613.037109"/>
      <use xlink:href="#DejaVuSans-74" x="640.820312"/>
      <use xlink:href="#DejaVuSans-68" x="680.029297"/>
      <use xlink:href="#DejaVuSans-20" x="743.408203"/>
      <use xlink:href="#DejaVuSans-53" x="775.195312"/>
      <use xlink:href="#DejaVuSans-61" x="838.671875"/>
      <use xlink:href="#DejaVuSans-76" x="899.951172"/>
      <use xlink:href="#DejaVuSans-69" x="959.130859"/>
      <use xlink:href="#DejaVuSans-74" x="986.914062"/>
      <use xlink:href="#DejaVuSans-7a" x="1026.123047"/>
      <use xlink:href="#DejaVuSans-6b" x="1078.613281"/>
      <use xlink:href="#DejaVuSans-79" x="1132.898438"/>
      <use xlink:href="#DejaVuSans-2d" x="1190.328125"/>
      <use xlink:href="#DejaVuSans-47" x="1230.037109"/>
      <use xlink:href="#DejaVuSans-6f" x="1307.527344"/>
      <use xlink:href="#DejaVuSans-6c" x="1368.708984"/>
      <use xlink:href="#DejaVuSans-61" x="1396.492188"/>
      <use xlink:href="#DejaVuSans-79" x="1457.771484"/>
      <use xlink:href="#DejaVuSans-20" x="1516.951172"/>
      <use xlink:href="#DejaVuSans-66" x="1548.738281"/>
      <use xlink:href="#DejaVuSans-69" x="1583.943359"/>
      <use xlink:href="#DejaVuSans-6c" x="1611.726562"/>
      <use xlink:href="#DejaVuSans-74" x="1639.509766"/>
      <use xlink:href="#DejaVuSans-65" x="1678.71875"/>
      <use xlink:href="#DejaVuSans-72" x="1740.242188"/>
     </g>
    </g>
    <g id="line2d_54">
     <path d="M 266.571875 352.494688 
L 276.571875 352.494688 
L 286.571875 352.494688 
" style="fill: none; stroke: #ff7f0e; stroke-opacity: 0.7; stroke-width: 1.5; stroke-linecap: square"/>
    </g>
    <g id="text_31">
     <!-- no smoothing -->
     <g transform="translate(294.571875 355.994688) scale(0.1 -0.1)">
      <use xlink:href="#DejaVuSans-6e"/>
      <use xlink:href="#DejaVuSans-6f" x="63.378906"/>
      <use xlink:href="#DejaVuSans-20" x="124.560547"/>
      <use xlink:href="#DejaVuSans-73" x="156.347656"/>
      <use xlink:href="#DejaVuSans-6d" x="208.447266"/>
      <use xlink:href="#DejaVuSans-6f" x="305.859375"/>
      <use xlink:href="#DejaVuSans-6f" x="367.041016"/>
      <use xlink:href="#DejaVuSans-74" x="428.222656"/>
      <use xlink:href="#DejaVuSans-68" x="467.431641"/>
      <use xlink:href="#DejaVuSans-69" x="530.810547"/>
      <use xlink:href="#DejaVuSans-6e" x="558.59375"/>
      <use xlink:href="#DejaVuSans-67" x="621.972656"/>
     </g>
    </g>
   </g>
  </g>
  <g id="axes_3">
   <g id="patch_14">
    <path d="M 35.304688 274.318125 
L 481.704687 274.318125 
L 481.704687 22.318125 
L 35.304688 22.318125 
z
" style="fill: #ffffff"/>
   </g>
   <g id="matplotlib.axis_5">
    <g id="xtick_11">
     <g id="line2d_55">
      <path d="M 102.420771 274.318125 
L 102.420771 22.318125 
" clip-path="url(#pc164d5611d)" style="fill: none; stroke: #b0b0b0; stroke-width: 0.8; stroke-linecap: square"/>
     </g>
     <g id="line2d_56">
      <g>
       <use xlink:href="#mbae7c267fd" x="102.420771" y="274.318125" style="stroke: #000000; stroke-width: 0.8"/>
      </g>
     </g>
     <g id="text_32">
      <!-- −100 -->
      <g transform="translate(88.687178 288.916562) scale(0.1 -0.1)">
       <use xlink:href="#DejaVuSans-2212"/>
       <use xlink:href="#DejaVuSans-31" x="83.789062"/>
       <use xlink:href="#DejaVuSans-30" x="147.412109"/>
       <use xlink:href="#DejaVuSans-30" x="211.035156"/>
      </g>
     </g>
    </g>
    <g id="xtick_12">
     <g id="line2d_57">
      <path d="M 180.462729 274.318125 
L 180.462729 22.318125 
" clip-path="url(#pc164d5611d)" style="fill: none; stroke: #b0b0b0; stroke-width: 0.8; stroke-linecap: square"/>
     </g>
     <g id="line2d_58">
      <g>
       <use xlink:href="#mbae7c267fd" x="180.462729" y="274.318125" style="stroke: #000000; stroke-width: 0.8"/>
      </g>
     </g>
     <g id="text_33">
      <!-- −50 -->
      <g transform="translate(169.910386 288.916562) scale(0.1 -0.1)">
       <use xlink:href="#DejaVuSans-2212"/>
       <use xlink:href="#DejaVuSans-35" x="83.789062"/>
       <use xlink:href="#DejaVuSans-30" x="147.412109"/>
      </g>
     </g>
    </g>
    <g id="xtick_13">
     <g id="line2d_59">
      <path d="M 258.504687 274.318125 
L 258.504687 22.318125 
" clip-path="url(#pc164d5611d)" style="fill: none; stroke: #b0b0b0; stroke-width: 0.8; stroke-linecap: square"/>
     </g>
     <g id="line2d_60">
      <g>
       <use xlink:href="#mbae7c267fd" x="258.504687" y="274.318125" style="stroke: #000000; stroke-width: 0.8"/>
      </g>
     </g>
     <g id="text_34">
      <!-- 0 -->
      <g transform="translate(255.323437 288.916562) scale(0.1 -0.1)">
       <use xlink:href="#DejaVuSans-30"/>
      </g>
     </g>
    </g>
    <g id="xtick_14">
     <g id="line2d_61">
      <path d="M 336.546646 274.318125 
L 336.546646 22.318125 
" clip-path="url(#pc164d5611d)" style="fill: none; stroke: #b0b0b0; stroke-width: 0.8; stroke-linecap: square"/>
     </g>
     <g id="line2d_62">
      <g>
       <use xlink:href="#mbae7c267fd" x="336.546646" y="274.318125" style="stroke: #000000; stroke-width: 0.8"/>
      </g>
     </g>
     <g id="text_35">
      <!-- 50 -->
      <g transform="translate(330.184146 288.916562) scale(0.1 -0.1)">
       <use xlink:href="#DejaVuSans-35"/>
       <use xlink:href="#DejaVuSans-30" x="63.623047"/>
      </g>
     </g>
    </g>
    <g id="xtick_15">
     <g id="line2d_63">
      <path d="M 414.588604 274.318125 
L 414.588604 22.318125 
" clip-path="url(#pc164d5611d)" style="fill: none; stroke: #b0b0b0; stroke-width: 0.8; stroke-linecap: square"/>
     </g>
     <g id="line2d_64">
      <g>
       <use xlink:href="#mbae7c267fd" x="414.588604" y="274.318125" style="stroke: #000000; stroke-width: 0.8"/>
      </g>
     </g>
     <g id="text_36">
      <!-- 100 -->
      <g transform="translate(405.044854 288.916562) scale(0.1 -0.1)">
       <use xlink:href="#DejaVuSans-31"/>
       <use xlink:href="#DejaVuSans-30" x="63.623047"/>
       <use xlink:href="#DejaVuSans-30" x="127.246094"/>
      </g>
     </g>
    </g>
    <g id="text_37">
     <!-- Theta -->
     <g transform="translate(244.18125 302.594687) scale(0.1 -0.1)">
      <use xlink:href="#DejaVuSans-54"/>
      <use xlink:href="#DejaVuSans-68" x="61.083984"/>
      <use xlink:href="#DejaVuSans-65" x="124.462891"/>
      <use xlink:href="#DejaVuSans-74" x="185.986328"/>
      <use xlink:href="#DejaVuSans-61" x="225.195312"/>
     </g>
    </g>
   </g>
   <g id="matplotlib.axis_6">
    <g id="ytick_14">
     <g id="line2d_65">
      <path d="M 35.304688 260.252793 
L 481.704687 260.252793 
" clip-path="url(#pc164d5611d)" style="fill: none; stroke: #b0b0b0; stroke-width: 0.8; stroke-linecap: square"/>
     </g>
     <g id="line2d_66">
      <g>
       <use xlink:href="#m335df6094d" x="35.304688" y="260.252793" style="stroke: #000000; stroke-width: 0.8"/>
      </g>
     </g>
     <g id="text_38">
      <!-- −30 -->
      <g transform="translate(7.2 264.052012) scale(0.1 -0.1)">
       <use xlink:href="#DejaVuSans-2212"/>
       <use xlink:href="#DejaVuSans-33" x="83.789062"/>
       <use xlink:href="#DejaVuSans-30" x="147.412109"/>
      </g>
     </g>
    </g>
    <g id="ytick_15">
     <g id="line2d_67">
      <path d="M 35.304688 222.506106 
L 481.704687 222.506106 
" clip-path="url(#pc164d5611d)" style="fill: none; stroke: #b0b0b0; stroke-width: 0.8; stroke-linecap: square"/>
     </g>
     <g id="line2d_68">
      <g>
       <use xlink:href="#m335df6094d" x="35.304688" y="222.506106" style="stroke: #000000; stroke-width: 0.8"/>
      </g>
     </g>
     <g id="text_39">
      <!-- −25 -->
      <g transform="translate(7.2 226.305325) scale(0.1 -0.1)">
       <use xlink:href="#DejaVuSans-2212"/>
       <use xlink:href="#DejaVuSans-32" x="83.789062"/>
       <use xlink:href="#DejaVuSans-35" x="147.412109"/>
      </g>
     </g>
    </g>
    <g id="ytick_16">
     <g id="line2d_69">
      <path d="M 35.304688 184.759419 
L 481.704687 184.759419 
" clip-path="url(#pc164d5611d)" style="fill: none; stroke: #b0b0b0; stroke-width: 0.8; stroke-linecap: square"/>
     </g>
     <g id="line2d_70">
      <g>
       <use xlink:href="#m335df6094d" x="35.304688" y="184.759419" style="stroke: #000000; stroke-width: 0.8"/>
      </g>
     </g>
     <g id="text_40">
      <!-- −20 -->
      <g transform="translate(7.2 188.558638) scale(0.1 -0.1)">
       <use xlink:href="#DejaVuSans-2212"/>
       <use xlink:href="#DejaVuSans-32" x="83.789062"/>
       <use xlink:href="#DejaVuSans-30" x="147.412109"/>
      </g>
     </g>
    </g>
    <g id="ytick_17">
     <g id="line2d_71">
      <path d="M 35.304688 147.012732 
L 481.704687 147.012732 
" clip-path="url(#pc164d5611d)" style="fill: none; stroke: #b0b0b0; stroke-width: 0.8; stroke-linecap: square"/>
     </g>
     <g id="line2d_72">
      <g>
       <use xlink:href="#m335df6094d" x="35.304688" y="147.012732" style="stroke: #000000; stroke-width: 0.8"/>
      </g>
     </g>
     <g id="text_41">
      <!-- −15 -->
      <g transform="translate(7.2 150.81195) scale(0.1 -0.1)">
       <use xlink:href="#DejaVuSans-2212"/>
       <use xlink:href="#DejaVuSans-31" x="83.789062"/>
       <use xlink:href="#DejaVuSans-35" x="147.412109"/>
      </g>
     </g>
    </g>
    <g id="ytick_18">
     <g id="line2d_73">
      <path d="M 35.304688 109.266045 
L 481.704687 109.266045 
" clip-path="url(#pc164d5611d)" style="fill: none; stroke: #b0b0b0; stroke-width: 0.8; stroke-linecap: square"/>
     </g>
     <g id="line2d_74">
      <g>
       <use xlink:href="#m335df6094d" x="35.304688" y="109.266045" style="stroke: #000000; stroke-width: 0.8"/>
      </g>
     </g>
     <g id="text_42">
      <!-- −10 -->
      <g transform="translate(7.2 113.065263) scale(0.1 -0.1)">
       <use xlink:href="#DejaVuSans-2212"/>
       <use xlink:href="#DejaVuSans-31" x="83.789062"/>
       <use xlink:href="#DejaVuSans-30" x="147.412109"/>
      </g>
     </g>
    </g>
    <g id="ytick_19">
     <g id="line2d_75">
      <path d="M 35.304688 71.519358 
L 481.704687 71.519358 
" clip-path="url(#pc164d5611d)" style="fill: none; stroke: #b0b0b0; stroke-width: 0.8; stroke-linecap: square"/>
     </g>
     <g id="line2d_76">
      <g>
       <use xlink:href="#m335df6094d" x="35.304688" y="71.519358" style="stroke: #000000; stroke-width: 0.8"/>
      </g>
     </g>
     <g id="text_43">
      <!-- −5 -->
      <g transform="translate(13.5625 75.318576) scale(0.1 -0.1)">
       <use xlink:href="#DejaVuSans-2212"/>
       <use xlink:href="#DejaVuSans-35" x="83.789062"/>
      </g>
     </g>
    </g>
    <g id="ytick_20">
     <g id="line2d_77">
      <path d="M 35.304688 33.77267 
L 481.704687 33.77267 
" clip-path="url(#pc164d5611d)" style="fill: none; stroke: #b0b0b0; stroke-width: 0.8; stroke-linecap: square"/>
     </g>
     <g id="line2d_78">
      <g>
       <use xlink:href="#m335df6094d" x="35.304688" y="33.77267" style="stroke: #000000; stroke-width: 0.8"/>
      </g>
     </g>
     <g id="text_44">
      <!-- 0 -->
      <g transform="translate(21.942187 37.571889) scale(0.1 -0.1)">
       <use xlink:href="#DejaVuSans-30"/>
      </g>
     </g>
    </g>
   </g>
   <g id="line2d_79">
    <path d="M 55.595597 179.549058 
L 63.399792 180.186228 
L 71.203988 184.722003 
L 79.008184 193.062313 
L 86.81238 203.41931 
L 94.616576 214.130377 
L 102.420771 219.766706 
L 110.224967 231.028748 
L 118.029163 237.108288 
L 125.833359 240.23645 
L 133.637555 238.675688 
L 141.44175 249.447486 
L 149.245946 256.499382 
L 157.050142 256.045862 
L 164.854338 248.272973 
L 172.658534 245.577321 
L 180.462729 250.15821 
L 188.266925 252.011661 
L 196.071121 241.557632 
L 203.875317 215.027298 
L 211.679513 188.400141 
L 219.483708 166.676899 
L 227.287904 137.987987 
L 235.0921 97.522309 
L 242.896296 59.302577 
L 250.700492 38.638949 
L 258.504687 34.354686 
L 266.308883 41.512784 
L 274.113079 65.533524 
L 281.917275 99.881087 
L 289.721471 144.830228 
L 297.525667 176.88285 
L 305.329862 196.66068 
L 313.134058 216.514532 
L 320.938254 243.749199 
L 328.74245 256.006635 
L 336.546646 250.474414 
L 344.350841 245.618912 
L 352.155037 248 
L 359.959233 255.777012 
L 367.763429 255.518706 
L 375.567625 248.157284 
L 383.37182 238.635606 
L 391.176016 239.494747 
L 398.980212 236.045187 
L 406.784408 229.282745 
L 414.588604 218.486782 
L 422.392799 212.508391 
L 430.196995 201.258723 
L 438.001191 191.279803 
L 445.805387 184.182782 
L 453.609583 179.199731 
L 461.413778 176.980424 
" clip-path="url(#pc164d5611d)" style="fill: none; stroke: #1f77b4; stroke-opacity: 0.7; stroke-width: 1.5; stroke-linecap: square"/>
   </g>
   <g id="line2d_80">
    <path d="M 55.595597 178.37405 
L 63.399792 182.332597 
L 71.203988 185.332944 
L 79.008184 190.195423 
L 86.81238 206.868017 
L 94.616576 211.85166 
L 102.420771 221.882197 
L 110.224967 227.110438 
L 118.029163 242.367921 
L 125.833359 236.772573 
L 133.637555 240.804705 
L 141.44175 244.532729 
L 149.245946 262.86358 
L 157.050142 253.365355 
L 164.854338 247.855119 
L 172.658534 246.877348 
L 180.462729 246.101556 
L 188.266925 256.364245 
L 196.071121 241.174293 
L 203.875317 214.820731 
L 211.679513 187.1203 
L 219.483708 165.479794 
L 227.287904 142.374525 
L 235.0921 96.313575 
L 242.896296 56.982297 
L 250.700492 39.964151 
L 258.504687 33.77267 
L 266.308883 42.382075 
L 274.113079 62.976407 
L 281.917275 102.881445 
L 289.721471 139.589933 
L 297.525667 185.598791 
L 305.329862 192.268163 
L 313.134058 212.644177 
L 320.938254 248.526921 
L 328.74245 256.56234 
L 336.546646 249.136467 
L 344.350841 245.118565 
L 352.155037 247.768517 
L 359.959233 254.50882 
L 367.763429 260.06133 
L 375.567625 244.352333 
L 383.37182 240.305401 
L 391.176016 236.453013 
L 398.980212 240.808586 
L 406.784408 225.898645 
L 414.588604 219.822702 
L 422.392799 211.1991 
L 430.196995 204.231918 
L 438.001191 187.850178 
L 445.805387 185.670179 
L 453.609583 181.295934 
L 461.413778 175.684423 
" clip-path="url(#pc164d5611d)" style="fill: none; stroke: #ff7f0e; stroke-opacity: 0.7; stroke-width: 1.5; stroke-linecap: square"/>
   </g>
   <g id="patch_15">
    <path d="M 35.304688 274.318125 
L 35.304688 22.318125 
" style="fill: none; stroke: #000000; stroke-width: 0.8; stroke-linejoin: miter; stroke-linecap: square"/>
   </g>
   <g id="patch_16">
    <path d="M 481.704687 274.318125 
L 481.704687 22.318125 
" style="fill: none; stroke: #000000; stroke-width: 0.8; stroke-linejoin: miter; stroke-linecap: square"/>
   </g>
   <g id="patch_17">
    <path d="M 35.304688 274.318125 
L 481.704687 274.318125 
" style="fill: none; stroke: #000000; stroke-width: 0.8; stroke-linejoin: miter; stroke-linecap: square"/>
   </g>
   <g id="patch_18">
    <path d="M 35.304688 22.318125 
L 481.704687 22.318125 
" style="fill: none; stroke: #000000; stroke-width: 0.8; stroke-linejoin: miter; stroke-linecap: square"/>
   </g>
   <g id="text_45">
    <!-- Far-field Pattern H-plane Phi = 90.0 -->
    <g transform="translate(152.810937 16.318125) scale(0.12 -0.12)">
     <use xlink:href="#DejaVuSans-46"/>
     <use xlink:href="#DejaVuSans-61" x="48.394531"/>
     <use xlink:href="#DejaVuSans-72" x="109.673828"/>
     <use xlink:href="#DejaVuSans-2d" x="144.412109"/>
     <use xlink:href="#DejaVuSans-66" x="180.496094"/>
     <use xlink:href="#DejaVuSans-69" x="215.701172"/>
     <use xlink:href="#DejaVuSans-65" x="243.484375"/>
     <use xlink:href="#DejaVuSans-6c" x="305.007812"/>
     <use xlink:href="#DejaVuSans-64" x="332.791016"/>
     <use xlink:href="#DejaVuSans-20" x="396.267578"/>
     <use xlink:href="#DejaVuSans-50" x="428.054688"/>
     <use xlink:href="#DejaVuSans-61" x="483.857422"/>
     <use xlink:href="#DejaVuSans-74" x="545.136719"/>
     <use xlink:href="#DejaVuSans-74" x="584.345703"/>
     <use xlink:href="#DejaVuSans-65" x="623.554688"/>
     <use xlink:href="#DejaVuSans-72" x="685.078125"/>
     <use xlink:href="#DejaVuSans-6e" x="724.441406"/>
     <use xlink:href="#DejaVuSans-20" x="787.820312"/>
     <use xlink:href="#DejaVuSans-48" x="819.607422"/>
     <use xlink:href="#DejaVuSans-2d" x="894.802734"/>
     <use xlink:href="#DejaVuSans-70" x="930.886719"/>
     <use xlink:href="#DejaVuSans-6c" x="994.363281"/>
     <use xlink:href="#DejaVuSans-61" x="1022.146484"/>
     <use xlink:href="#DejaVuSans-6e" x="1083.425781"/>
     <use xlink:href="#DejaVuSans-65" x="1146.804688"/>
     <use xlink:href="#DejaVuSans-20" x="1208.328125"/>
     <use xlink:href="#DejaVuSans-50" x="1240.115234"/>
     <use xlink:href="#DejaVuSans-68" x="1300.417969"/>
     <use xlink:href="#DejaVuSans-69" x="1363.796875"/>
     <use xlink:href="#DejaVuSans-20" x="1391.580078"/>
     <use xlink:href="#DejaVuSans-3d" x="1423.367188"/>
     <use xlink:href="#DejaVuSans-20" x="1507.15625"/>
     <use xlink:href="#DejaVuSans-39" x="1538.943359"/>
     <use xlink:href="#DejaVuSans-30" x="1602.566406"/>
     <use xlink:href="#DejaVuSans-2e" x="1666.189453"/>
     <use xlink:href="#DejaVuSans-30" x="1697.976562"/>
    </g>
   </g>
   <g id="legend_3">
    <g id="patch_19">
     <path d="M 264.571875 59.674375 
L 474.704687 59.674375 
Q 476.704687 59.674375 476.704687 57.674375 
L 476.704687 29.318125 
Q 476.704687 27.318125 474.704687 27.318125 
L 264.571875 27.318125 
Q 262.571875 27.318125 262.571875 29.318125 
L 262.571875 57.674375 
Q 262.571875 59.674375 264.571875 59.674375 
z
" style="fill: #ffffff; opacity: 0.8; stroke: #cccccc; stroke-linejoin: miter"/>
    </g>
    <g id="line2d_81">
     <path d="M 266.571875 35.416562 
L 276.571875 35.416562 
L 286.571875 35.416562 
" style="fill: none; stroke: #1f77b4; stroke-opacity: 0.7; stroke-width: 1.5; stroke-linecap: square"/>
    </g>
    <g id="text_46">
     <!-- smoothed with Savitzky-Golay filter -->
     <g transform="translate(294.571875 38.916562) scale(0.1 -0.1)">
      <use xlink:href="#DejaVuSans-73"/>
      <use xlink:href="#DejaVuSans-6d" x="52.099609"/>
      <use xlink:href="#DejaVuSans-6f" x="149.511719"/>
      <use xlink:href="#DejaVuSans-6f" x="210.693359"/>
      <use xlink:href="#DejaVuSans-74" x="271.875"/>
      <use xlink:href="#DejaVuSans-68" x="311.083984"/>
      <use xlink:href="#DejaVuSans-65" x="374.462891"/>
      <use xlink:href="#DejaVuSans-64" x="435.986328"/>
      <use xlink:href="#DejaVuSans-20" x="499.462891"/>
      <use xlink:href="#DejaVuSans-77" x="531.25"/>
      <use xlink:href="#DejaVuSans-69" x="613.037109"/>
      <use xlink:href="#DejaVuSans-74" x="640.820312"/>
      <use xlink:href="#DejaVuSans-68" x="680.029297"/>
      <use xlink:href="#DejaVuSans-20" x="743.408203"/>
      <use xlink:href="#DejaVuSans-53" x="775.195312"/>
      <use xlink:href="#DejaVuSans-61" x="838.671875"/>
      <use xlink:href="#DejaVuSans-76" x="899.951172"/>
      <use xlink:href="#DejaVuSans-69" x="959.130859"/>
      <use xlink:href="#DejaVuSans-74" x="986.914062"/>
      <use xlink:href="#DejaVuSans-7a" x="1026.123047"/>
      <use xlink:href="#DejaVuSans-6b" x="1078.613281"/>
      <use xlink:href="#DejaVuSans-79" x="1132.898438"/>
      <use xlink:href="#DejaVuSans-2d" x="1190.328125"/>
      <use xlink:href="#DejaVuSans-47" x="1230.037109"/>
      <use xlink:href="#DejaVuSans-6f" x="1307.527344"/>
      <use xlink:href="#DejaVuSans-6c" x="1368.708984"/>
      <use xlink:href="#DejaVuSans-61" x="1396.492188"/>
      <use xlink:href="#DejaVuSans-79" x="1457.771484"/>
      <use xlink:href="#DejaVuSans-20" x="1516.951172"/>
      <use xlink:href="#DejaVuSans-66" x="1548.738281"/>
      <use xlink:href="#DejaVuSans-69" x="1583.943359"/>
      <use xlink:href="#DejaVuSans-6c" x="1611.726562"/>
      <use xlink:href="#DejaVuSans-74" x="1639.509766"/>
      <use xlink:href="#DejaVuSans-65" x="1678.71875"/>
      <use xlink:href="#DejaVuSans-72" x="1740.242188"/>
     </g>
    </g>
    <g id="line2d_82">
     <path d="M 266.571875 50.094687 
L 276.571875 50.094687 
L 286.571875 50.094687 
" style="fill: none; stroke: #ff7f0e; stroke-opacity: 0.7; stroke-width: 1.5; stroke-linecap: square"/>
    </g>
    <g id="text_47">
     <!-- no smoothing -->
     <g transform="translate(294.571875 53.594687) scale(0.1 -0.1)">
      <use xlink:href="#DejaVuSans-6e"/>
      <use xlink:href="#DejaVuSans-6f" x="63.378906"/>
      <use xlink:href="#DejaVuSans-20" x="124.560547"/>
      <use xlink:href="#DejaVuSans-73" x="156.347656"/>
      <use xlink:href="#DejaVuSans-6d" x="208.447266"/>
      <use xlink:href="#DejaVuSans-6f" x="305.859375"/>
      <use xlink:href="#DejaVuSans-6f" x="367.041016"/>
      <use xlink:href="#DejaVuSans-74" x="428.222656"/>
      <use xlink:href="#DejaVuSans-68" x="467.431641"/>
      <use xlink:href="#DejaVuSans-69" x="530.810547"/>
      <use xlink:href="#DejaVuSans-6e" x="558.59375"/>
      <use xlink:href="#DejaVuSans-67" x="621.972656"/>
     </g>
    </g>
   </g>
  </g>
  <g id="axes_4">
   <g id="patch_20">
    <path d="M 35.304688 576.718125 
L 481.704687 576.718125 
L 481.704687 324.718125 
L 35.304688 324.718125 
z
" style="fill: #ffffff"/>
   </g>
   <g id="matplotlib.axis_7">
    <g id="xtick_16">
     <g id="line2d_83">
      <path d="M 102.420771 576.718125 
L 102.420771 324.718125 
" clip-path="url(#pb668828ba8)" style="fill: none; stroke: #b0b0b0; stroke-width: 0.8; stroke-linecap: square"/>
     </g>
     <g id="line2d_84">
      <g>
       <use xlink:href="#mbae7c267fd" x="102.420771" y="576.718125" style="stroke: #000000; stroke-width: 0.8"/>
      </g>
     </g>
     <g id="text_48">
      <!-- −100 -->
      <g transform="translate(88.687178 591.316562) scale(0.1 -0.1)">
       <use xlink:href="#DejaVuSans-2212"/>
       <use xlink:href="#DejaVuSans-31" x="83.789062"/>
       <use xlink:href="#DejaVuSans-30" x="147.412109"/>
       <use xlink:href="#DejaVuSans-30" x="211.035156"/>
      </g>
     </g>
    </g>
    <g id="xtick_17">
     <g id="line2d_85">
      <path d="M 180.462729 576.718125 
L 180.462729 324.718125 
" clip-path="url(#pb668828ba8)" style="fill: none; stroke: #b0b0b0; stroke-width: 0.8; stroke-linecap: square"/>
     </g>
     <g id="line2d_86">
      <g>
       <use xlink:href="#mbae7c267fd" x="180.462729" y="576.718125" style="stroke: #000000; stroke-width: 0.8"/>
      </g>
     </g>
     <g id="text_49">
      <!-- −50 -->
      <g transform="translate(169.910386 591.316562) scale(0.1 -0.1)">
       <use xlink:href="#DejaVuSans-2212"/>
       <use xlink:href="#DejaVuSans-35" x="83.789062"/>
       <use xlink:href="#DejaVuSans-30" x="147.412109"/>
      </g>
     </g>
    </g>
    <g id="xtick_18">
     <g id="line2d_87">
      <path d="M 258.504687 576.718125 
L 258.504687 324.718125 
" clip-path="url(#pb668828ba8)" style="fill: none; stroke: #b0b0b0; stroke-width: 0.8; stroke-linecap: square"/>
     </g>
     <g id="line2d_88">
      <g>
       <use xlink:href="#mbae7c267fd" x="258.504687" y="576.718125" style="stroke: #000000; stroke-width: 0.8"/>
      </g>
     </g>
     <g id="text_50">
      <!-- 0 -->
      <g transform="translate(255.323437 591.316562) scale(0.1 -0.1)">
       <use xlink:href="#DejaVuSans-30"/>
      </g>
     </g>
    </g>
    <g id="xtick_19">
     <g id="line2d_89">
      <path d="M 336.546646 576.718125 
L 336.546646 324.718125 
" clip-path="url(#pb668828ba8)" style="fill: none; stroke: #b0b0b0; stroke-width: 0.8; stroke-linecap: square"/>
     </g>
     <g id="line2d_90">
      <g>
       <use xlink:href="#mbae7c267fd" x="336.546646" y="576.718125" style="stroke: #000000; stroke-width: 0.8"/>
      </g>
     </g>
     <g id="text_51">
      <!-- 50 -->
      <g transform="translate(330.184146 591.316562) scale(0.1 -0.1)">
       <use xlink:href="#DejaVuSans-35"/>
       <use xlink:href="#DejaVuSans-30" x="63.623047"/>
      </g>
     </g>
    </g>
    <g id="xtick_20">
     <g id="line2d_91">
      <path d="M 414.588604 576.718125 
L 414.588604 324.718125 
" clip-path="url(#pb668828ba8)" style="fill: none; stroke: #b0b0b0; stroke-width: 0.8; stroke-linecap: square"/>
     </g>
     <g id="line2d_92">
      <g>
       <use xlink:href="#mbae7c267fd" x="414.588604" y="576.718125" style="stroke: #000000; stroke-width: 0.8"/>
      </g>
     </g>
     <g id="text_52">
      <!-- 100 -->
      <g transform="translate(405.044854 591.316562) scale(0.1 -0.1)">
       <use xlink:href="#DejaVuSans-31"/>
       <use xlink:href="#DejaVuSans-30" x="63.623047"/>
       <use xlink:href="#DejaVuSans-30" x="127.246094"/>
      </g>
     </g>
    </g>
    <g id="text_53">
     <!-- Theta -->
     <g transform="translate(244.18125 604.994687) scale(0.1 -0.1)">
      <use xlink:href="#DejaVuSans-54"/>
      <use xlink:href="#DejaVuSans-68" x="61.083984"/>
      <use xlink:href="#DejaVuSans-65" x="124.462891"/>
      <use xlink:href="#DejaVuSans-74" x="185.986328"/>
      <use xlink:href="#DejaVuSans-61" x="225.195312"/>
     </g>
    </g>
   </g>
   <g id="matplotlib.axis_8">
    <g id="ytick_21">
     <g id="line2d_93">
      <path d="M 35.304688 538.001162 
L 481.704687 538.001162 
" clip-path="url(#pb668828ba8)" style="fill: none; stroke: #b0b0b0; stroke-width: 0.8; stroke-linecap: square"/>
     </g>
     <g id="line2d_94">
      <g>
       <use xlink:href="#m335df6094d" x="35.304688" y="538.001162" style="stroke: #000000; stroke-width: 0.8"/>
      </g>
     </g>
     <g id="text_54">
      <!-- −25 -->
      <g transform="translate(7.2 541.800381) scale(0.1 -0.1)">
       <use xlink:href="#DejaVuSans-2212"/>
       <use xlink:href="#DejaVuSans-32" x="83.789062"/>
       <use xlink:href="#DejaVuSans-35" x="147.412109"/>
      </g>
     </g>
    </g>
    <g id="ytick_22">
     <g id="line2d_95">
      <path d="M 35.304688 497.691058 
L 481.704687 497.691058 
" clip-path="url(#pb668828ba8)" style="fill: none; stroke: #b0b0b0; stroke-width: 0.8; stroke-linecap: square"/>
     </g>
     <g id="line2d_96">
      <g>
       <use xlink:href="#m335df6094d" x="35.304688" y="497.691058" style="stroke: #000000; stroke-width: 0.8"/>
      </g>
     </g>
     <g id="text_55">
      <!-- −20 -->
      <g transform="translate(7.2 501.490277) scale(0.1 -0.1)">
       <use xlink:href="#DejaVuSans-2212"/>
       <use xlink:href="#DejaVuSans-32" x="83.789062"/>
       <use xlink:href="#DejaVuSans-30" x="147.412109"/>
      </g>
     </g>
    </g>
    <g id="ytick_23">
     <g id="line2d_97">
      <path d="M 35.304688 457.380954 
L 481.704687 457.380954 
" clip-path="url(#pb668828ba8)" style="fill: none; stroke: #b0b0b0; stroke-width: 0.8; stroke-linecap: square"/>
     </g>
     <g id="line2d_98">
      <g>
       <use xlink:href="#m335df6094d" x="35.304688" y="457.380954" style="stroke: #000000; stroke-width: 0.8"/>
      </g>
     </g>
     <g id="text_56">
      <!-- −15 -->
      <g transform="translate(7.2 461.180172) scale(0.1 -0.1)">
       <use xlink:href="#DejaVuSans-2212"/>
       <use xlink:href="#DejaVuSans-31" x="83.789062"/>
       <use xlink:href="#DejaVuSans-35" x="147.412109"/>
      </g>
     </g>
    </g>
    <g id="ytick_24">
     <g id="line2d_99">
      <path d="M 35.304688 417.070849 
L 481.704687 417.070849 
" clip-path="url(#pb668828ba8)" style="fill: none; stroke: #b0b0b0; stroke-width: 0.8; stroke-linecap: square"/>
     </g>
     <g id="line2d_100">
      <g>
       <use xlink:href="#m335df6094d" x="35.304688" y="417.070849" style="stroke: #000000; stroke-width: 0.8"/>
      </g>
     </g>
     <g id="text_57">
      <!-- −10 -->
      <g transform="translate(7.2 420.870068) scale(0.1 -0.1)">
       <use xlink:href="#DejaVuSans-2212"/>
       <use xlink:href="#DejaVuSans-31" x="83.789062"/>
       <use xlink:href="#DejaVuSans-30" x="147.412109"/>
      </g>
     </g>
    </g>
    <g id="ytick_25">
     <g id="line2d_101">
      <path d="M 35.304688 376.760745 
L 481.704687 376.760745 
" clip-path="url(#pb668828ba8)" style="fill: none; stroke: #b0b0b0; stroke-width: 0.8; stroke-linecap: square"/>
     </g>
     <g id="line2d_102">
      <g>
       <use xlink:href="#m335df6094d" x="35.304688" y="376.760745" style="stroke: #000000; stroke-width: 0.8"/>
      </g>
     </g>
     <g id="text_58">
      <!-- −5 -->
      <g transform="translate(13.5625 380.559964) scale(0.1 -0.1)">
       <use xlink:href="#DejaVuSans-2212"/>
       <use xlink:href="#DejaVuSans-35" x="83.789062"/>
      </g>
     </g>
    </g>
    <g id="ytick_26">
     <g id="line2d_103">
      <path d="M 35.304688 336.450641 
L 481.704687 336.450641 
" clip-path="url(#pb668828ba8)" style="fill: none; stroke: #b0b0b0; stroke-width: 0.8; stroke-linecap: square"/>
     </g>
     <g id="line2d_104">
      <g>
       <use xlink:href="#m335df6094d" x="35.304688" y="336.450641" style="stroke: #000000; stroke-width: 0.8"/>
      </g>
     </g>
     <g id="text_59">
      <!-- 0 -->
      <g transform="translate(21.942187 340.24986) scale(0.1 -0.1)">
       <use xlink:href="#DejaVuSans-30"/>
      </g>
     </g>
    </g>
   </g>
   <g id="line2d_105">
    <path d="M 55.595597 471.766815 
L 63.399792 487.527983 
L 71.203988 492.159953 
L 79.008184 477.552618 
L 86.81238 474.13192 
L 94.616576 500.322855 
L 102.420771 539.806266 
L 110.224967 545.203887 
L 118.029163 519.57277 
L 125.833359 499.802707 
L 133.637555 508.020844 
L 141.44175 514.132545 
L 149.245946 510.558683 
L 157.050142 500.969159 
L 164.854338 502.722259 
L 172.658534 534.411208 
L 180.462729 541.816713 
L 188.266925 512.17269 
L 196.071121 463.5946 
L 203.875317 447.284028 
L 211.679513 453.755433 
L 219.483708 473.154307 
L 227.287904 457.687137 
L 235.0921 408.598651 
L 242.896296 362.239017 
L 250.700492 343.520008 
L 258.504687 336.17267 
L 266.308883 342.514365 
L 274.113079 360.466201 
L 281.917275 407.552444 
L 289.721471 457.369265 
L 297.525667 472.715306 
L 305.329862 452.541479 
L 313.134058 448.494295 
L 320.938254 466.040721 
L 328.74245 511.223325 
L 336.546646 538.496128 
L 344.350841 533.175502 
L 352.155037 502.467926 
L 359.959233 497.886371 
L 367.763429 508.709609 
L 375.567625 514.506542 
L 383.37182 510.036769 
L 391.176016 501.081204 
L 398.980212 515.303966 
L 406.784408 539.760187 
L 414.588604 537.991449 
L 422.392799 503.933088 
L 430.196995 475.930328 
L 438.001191 476.606003 
L 445.805387 490.379775 
L 453.609583 485.355513 
L 461.413778 470.158376 
" clip-path="url(#pb668828ba8)" style="fill: none; stroke: #1f77b4; stroke-opacity: 0.7; stroke-width: 1.5; stroke-linecap: square"/>
   </g>
   <g id="line2d_106">
    <path d="M 55.595597 467.743793 
L 63.399792 494.967408 
L 71.203988 493.979815 
L 79.008184 475.796818 
L 86.81238 472.665941 
L 94.616576 496.350369 
L 102.420771 541.510195 
L 110.224967 556.459838 
L 118.029163 509.392892 
L 125.833359 499.822374 
L 133.637555 508.496056 
L 141.44175 516.391151 
L 149.245946 510.029008 
L 157.050142 502.281377 
L 164.854338 499.840468 
L 172.658534 524.707696 
L 180.462729 565.26358 
L 188.266925 496.681002 
L 196.071121 467.679626 
L 203.875317 446.242754 
L 211.679513 448.012322 
L 219.483708 476.482078 
L 227.287904 468.142808 
L 235.0921 398.309291 
L 242.896296 364.279139 
L 250.700492 343.307426 
L 258.504687 336.450641 
L 266.308883 342.285149 
L 274.113079 362.630305 
L 281.917275 396.631278 
L 289.721471 468.681115 
L 297.525667 475.759258 
L 305.329862 446.816728 
L 313.134058 446.317319 
L 320.938254 471.936066 
L 328.74245 495.949943 
L 336.546646 559.414946 
L 344.350841 525.197614 
L 352.155037 500.21737 
L 359.959233 498.318272 
L 367.763429 507.087883 
L 375.567625 519.152603 
L 383.37182 508.218698 
L 391.176016 502.196478 
L 398.980212 507.785421 
L 406.784408 544.696535 
L 414.588604 544.924471 
L 422.392799 498.054611 
L 430.196995 474.557589 
L 438.001191 476.321806 
L 445.805387 489.220368 
L 453.609583 495.810747 
L 461.413778 465.123993 
" clip-path="url(#pb668828ba8)" style="fill: none; stroke: #ff7f0e; stroke-opacity: 0.7; stroke-width: 1.5; stroke-linecap: square"/>
   </g>
   <g id="patch_21">
    <path d="M 35.304688 576.718125 
L 35.304688 324.718125 
" style="fill: none; stroke: #000000; stroke-width: 0.8; stroke-linejoin: miter; stroke-linecap: square"/>
   </g>
   <g id="patch_22">
    <path d="M 481.704687 576.718125 
L 481.704687 324.718125 
" style="fill: none; stroke: #000000; stroke-width: 0.8; stroke-linejoin: miter; stroke-linecap: square"/>
   </g>
   <g id="patch_23">
    <path d="M 35.304688 576.718125 
L 481.704687 576.718125 
" style="fill: none; stroke: #000000; stroke-width: 0.8; stroke-linejoin: miter; stroke-linecap: square"/>
   </g>
   <g id="patch_24">
    <path d="M 35.304688 324.718125 
L 481.704687 324.718125 
" style="fill: none; stroke: #000000; stroke-width: 0.8; stroke-linejoin: miter; stroke-linecap: square"/>
   </g>
   <g id="text_60">
    <!-- Far-field Pattern E-plane Phi = 0.0 -->
    <g transform="translate(157.349375 318.718125) scale(0.12 -0.12)">
     <use xlink:href="#DejaVuSans-46"/>
     <use xlink:href="#DejaVuSans-61" x="48.394531"/>
     <use xlink:href="#DejaVuSans-72" x="109.673828"/>
     <use xlink:href="#DejaVuSans-2d" x="144.412109"/>
     <use xlink:href="#DejaVuSans-66" x="180.496094"/>
     <use xlink:href="#DejaVuSans-69" x="215.701172"/>
     <use xlink:href="#DejaVuSans-65" x="243.484375"/>
     <use xlink:href="#DejaVuSans-6c" x="305.007812"/>
     <use xlink:href="#DejaVuSans-64" x="332.791016"/>
     <use xlink:href="#DejaVuSans-20" x="396.267578"/>
     <use xlink:href="#DejaVuSans-50" x="428.054688"/>
     <use xlink:href="#DejaVuSans-61" x="483.857422"/>
     <use xlink:href="#DejaVuSans-74" x="545.136719"/>
     <use xlink:href="#DejaVuSans-74" x="584.345703"/>
     <use xlink:href="#DejaVuSans-65" x="623.554688"/>
     <use xlink:href="#DejaVuSans-72" x="685.078125"/>
     <use xlink:href="#DejaVuSans-6e" x="724.441406"/>
     <use xlink:href="#DejaVuSans-20" x="787.820312"/>
     <use xlink:href="#DejaVuSans-45" x="819.607422"/>
     <use xlink:href="#DejaVuSans-2d" x="882.791016"/>
     <use xlink:href="#DejaVuSans-70" x="918.875"/>
     <use xlink:href="#DejaVuSans-6c" x="982.351562"/>
     <use xlink:href="#DejaVuSans-61" x="1010.134766"/>
     <use xlink:href="#DejaVuSans-6e" x="1071.414062"/>
     <use xlink:href="#DejaVuSans-65" x="1134.792969"/>
     <use xlink:href="#DejaVuSans-20" x="1196.316406"/>
     <use xlink:href="#DejaVuSans-50" x="1228.103516"/>
     <use xlink:href="#DejaVuSans-68" x="1288.40625"/>
     <use xlink:href="#DejaVuSans-69" x="1351.785156"/>
     <use xlink:href="#DejaVuSans-20" x="1379.568359"/>
     <use xlink:href="#DejaVuSans-3d" x="1411.355469"/>
     <use xlink:href="#DejaVuSans-20" x="1495.144531"/>
     <use xlink:href="#DejaVuSans-30" x="1526.931641"/>
     <use xlink:href="#DejaVuSans-2e" x="1590.554688"/>
     <use xlink:href="#DejaVuSans-30" x="1622.341797"/>
    </g>
   </g>
   <g id="legend_4">
    <g id="patch_25">
     <path d="M 42.304688 362.074375 
L 252.4375 362.074375 
Q 254.4375 362.074375 254.4375 360.074375 
L 254.4375 331.718125 
Q 254.4375 329.718125 252.4375 329.718125 
L 42.304688 329.718125 
Q 40.304688 329.718125 40.304688 331.718125 
L 40.304688 360.074375 
Q 40.304688 362.074375 42.304688 362.074375 
z
" style="fill: #ffffff; opacity: 0.8; stroke: #cccccc; stroke-linejoin: miter"/>
    </g>
    <g id="line2d_107">
     <path d="M 44.304688 337.816563 
L 54.304688 337.816563 
L 64.304688 337.816563 
" style="fill: none; stroke: #1f77b4; stroke-opacity: 0.7; stroke-width: 1.5; stroke-linecap: square"/>
    </g>
    <g id="text_61">
     <!-- smoothed with Savitzky-Golay filter -->
     <g transform="translate(72.304688 341.316563) scale(0.1 -0.1)">
      <use xlink:href="#DejaVuSans-73"/>
      <use xlink:href="#DejaVuSans-6d" x="52.099609"/>
      <use xlink:href="#DejaVuSans-6f" x="149.511719"/>
      <use xlink:href="#DejaVuSans-6f" x="210.693359"/>
      <use xlink:href="#DejaVuSans-74" x="271.875"/>
      <use xlink:href="#DejaVuSans-68" x="311.083984"/>
      <use xlink:href="#DejaVuSans-65" x="374.462891"/>
      <use xlink:href="#DejaVuSans-64" x="435.986328"/>
      <use xlink:href="#DejaVuSans-20" x="499.462891"/>
      <use xlink:href="#DejaVuSans-77" x="531.25"/>
      <use xlink:href="#DejaVuSans-69" x="613.037109"/>
      <use xlink:href="#DejaVuSans-74" x="640.820312"/>
      <use xlink:href="#DejaVuSans-68" x="680.029297"/>
      <use xlink:href="#DejaVuSans-20" x="743.408203"/>
      <use xlink:href="#DejaVuSans-53" x="775.195312"/>
      <use xlink:href="#DejaVuSans-61" x="838.671875"/>
      <use xlink:href="#DejaVuSans-76" x="899.951172"/>
      <use xlink:href="#DejaVuSans-69" x="959.130859"/>
      <use xlink:href="#DejaVuSans-74" x="986.914062"/>
      <use xlink:href="#DejaVuSans-7a" x="1026.123047"/>
      <use xlink:href="#DejaVuSans-6b" x="1078.613281"/>
      <use xlink:href="#DejaVuSans-79" x="1132.898438"/>
      <use xlink:href="#DejaVuSans-2d" x="1190.328125"/>
      <use xlink:href="#DejaVuSans-47" x="1230.037109"/>
      <use xlink:href="#DejaVuSans-6f" x="1307.527344"/>
      <use xlink:href="#DejaVuSans-6c" x="1368.708984"/>
      <use xlink:href="#DejaVuSans-61" x="1396.492188"/>
      <use xlink:href="#DejaVuSans-79" x="1457.771484"/>
      <use xlink:href="#DejaVuSans-20" x="1516.951172"/>
      <use xlink:href="#DejaVuSans-66" x="1548.738281"/>
      <use xlink:href="#DejaVuSans-69" x="1583.943359"/>
      <use xlink:href="#DejaVuSans-6c" x="1611.726562"/>
      <use xlink:href="#DejaVuSans-74" x="1639.509766"/>
      <use xlink:href="#DejaVuSans-65" x="1678.71875"/>
      <use xlink:href="#DejaVuSans-72" x="1740.242188"/>
     </g>
    </g>
    <g id="line2d_108">
     <path d="M 44.304688 352.494688 
L 54.304688 352.494688 
L 64.304688 352.494688 
" style="fill: none; stroke: #ff7f0e; stroke-opacity: 0.7; stroke-width: 1.5; stroke-linecap: square"/>
    </g>
    <g id="text_62">
     <!-- no smoothing -->
     <g transform="translate(72.304688 355.994688) scale(0.1 -0.1)">
      <use xlink:href="#DejaVuSans-6e"/>
      <use xlink:href="#DejaVuSans-6f" x="63.378906"/>
      <use xlink:href="#DejaVuSans-20" x="124.560547"/>
      <use xlink:href="#DejaVuSans-73" x="156.347656"/>
      <use xlink:href="#DejaVuSans-6d" x="208.447266"/>
      <use xlink:href="#DejaVuSans-6f" x="305.859375"/>
      <use xlink:href="#DejaVuSans-6f" x="367.041016"/>
      <use xlink:href="#DejaVuSans-74" x="428.222656"/>
      <use xlink:href="#DejaVuSans-68" x="467.431641"/>
      <use xlink:href="#DejaVuSans-69" x="530.810547"/>
      <use xlink:href="#DejaVuSans-6e" x="558.59375"/>
      <use xlink:href="#DejaVuSans-67" x="621.972656"/>
     </g>
    </g>
   </g>
  </g>
 </g>
 <defs>
  <clipPath id="pc164d5611d">
   <rect x="35.304688" y="22.318125" width="446.4" height="252"/>
  </clipPath>
  <clipPath id="pb668828ba8">
   <rect x="35.304688" y="324.718125" width="446.4" height="252"/>
  </clipPath>
 </defs>
</svg>
