<svg width="1280" height="720" xmlns="http://www.w3.org/2000/svg" xmlns:xlink="http://www.w3.org/1999/xlink" overflow="hidden"><g><rect x="0" y="0" width="1280" height="720" fill="#FFFFFF"/><path d="M81 366 81.0001 518.679" stroke="#000000" stroke-width="2" stroke-miterlimit="8" fill="none" fill-rule="evenodd"/><path d="M46 334 81.4192 369.464" stroke="#000000" stroke-width="2" stroke-miterlimit="8" fill="none" fill-rule="evenodd"/><path d="M0 0 35.4201 35.4637" stroke="#000000" stroke-width="2" stroke-miterlimit="8" fill="none" fill-rule="evenodd" transform="matrix(-1 0 0 1 116.42 334)"/><path d="M81 329 81.0011 369.154" stroke="#000000" stroke-width="2" stroke-miterlimit="8" fill="none" fill-rule="evenodd"/><path d="M210.202 286.333C242.234 313.301 239.544 369.2 204.195 411.188" stroke="#000000" stroke-width="2" stroke-miterlimit="8" fill="none" fill-rule="evenodd"/><path d="M210.202 444.696C242.234 471.663 239.544 527.563 204.195 569.551" stroke="#000000" stroke-width="2" stroke-miterlimit="8" fill="none" fill-rule="evenodd"/><path d="M229.198 416.933C197.873 389.148 202.005 333.336 238.427 292.275" stroke="#000000" stroke-width="2" stroke-miterlimit="8" fill="none" fill-rule="evenodd"/><path d="M229.198 575.296C197.873 547.511 202.005 491.699 238.427 450.638" stroke="#000000" stroke-width="2" stroke-miterlimit="8" fill="none" fill-rule="evenodd"/><path d="M284.006 286.333C316.038 313.301 313.348 369.2 277.999 411.188" stroke="#000000" stroke-width="2" stroke-miterlimit="8" fill="none" fill-rule="evenodd"/><path d="M284.006 444.696C316.038 471.664 313.348 527.563 277.999 569.551" stroke="#000000" stroke-width="2" stroke-miterlimit="8" fill="none" fill-rule="evenodd"/><path d="M303.002 416.934C271.677 389.148 275.809 333.337 312.231 292.275" stroke="#000000" stroke-width="2" stroke-miterlimit="8" fill="none" fill-rule="evenodd"/><path d="M303.002 575.296C271.677 547.511 275.809 491.699 312.231 450.638" stroke="#000000" stroke-width="2" stroke-miterlimit="8" fill="none" fill-rule="evenodd"/><path d="M364.42 286.333C396.452 313.3 393.763 369.2 358.413 411.188" stroke="#000000" stroke-width="2" stroke-miterlimit="8" fill="none" fill-rule="evenodd"/><path d="M364.421 444.696C396.452 471.663 393.763 527.563 358.413 569.551" stroke="#000000" stroke-width="2" stroke-miterlimit="8" fill="none" fill-rule="evenodd"/><path d="M383.417 416.933C352.092 389.148 356.224 333.336 392.646 292.275" stroke="#000000" stroke-width="2" stroke-miterlimit="8" fill="none" fill-rule="evenodd"/><path d="M383.417 575.296C352.092 547.51 356.224 491.699 392.646 450.638" stroke="#000000" stroke-width="2" stroke-miterlimit="8" fill="none" fill-rule="evenodd"/><path d="M450.536 286.333C482.568 313.3 479.879 369.2 444.529 411.188" stroke="#000000" stroke-width="2" stroke-miterlimit="8" fill="none" fill-rule="evenodd"/><path d="M450.537 444.695C482.568 471.663 479.879 527.562 444.529 569.55" stroke="#000000" stroke-width="2" stroke-miterlimit="8" fill="none" fill-rule="evenodd"/><path d="M469.533 416.933C438.208 389.147 442.34 333.336 478.762 292.275" stroke="#000000" stroke-width="2" stroke-miterlimit="8" fill="none" fill-rule="evenodd"/><path d="M469.533 575.296C438.208 547.51 442.34 491.699 478.762 450.637" stroke="#000000" stroke-width="2" stroke-miterlimit="8" fill="none" fill-rule="evenodd"/><path d="M510 230 510 583.552" stroke="#000000" stroke-width="2" stroke-linejoin="round" stroke-miterlimit="10" stroke-dasharray="8 6" fill="none" fill-rule="evenodd"/><path d="M554.465 286.333C586.497 313.3 583.807 369.2 548.458 411.188" stroke="#000000" stroke-width="2" stroke-miterlimit="8" fill="none" fill-rule="evenodd"/><path d="M554.465 444.695C586.497 471.663 583.807 527.562 548.458 569.55" stroke="#000000" stroke-width="2" stroke-miterlimit="8" fill="none" fill-rule="evenodd"/><path d="M634.879 286.333C666.911 313.3 664.222 369.2 628.872 411.188" stroke="#000000" stroke-width="2" stroke-miterlimit="8" fill="none" fill-rule="evenodd"/><path d="M634.879 444.696C666.911 471.663 664.222 527.563 628.872 569.551" stroke="#000000" stroke-width="2" stroke-miterlimit="8" fill="none" fill-rule="evenodd"/><path d="M710.458 287.47C742.49 314.438 739.8 370.337 704.451 412.325" stroke="#000000" stroke-width="2" stroke-miterlimit="8" fill="none" fill-rule="evenodd"/><path d="M710.458 445.833C742.49 472.801 739.8 528.7 704.451 570.688" stroke="#000000" stroke-width="2" stroke-miterlimit="8" fill="none" fill-rule="evenodd"/><path d="M793.263 285.796C825.294 312.763 822.605 368.663 787.255 410.651" stroke="#000000" stroke-width="2" stroke-miterlimit="8" fill="none" fill-rule="evenodd"/><path d="M793.263 444.159C825.295 471.126 822.605 527.026 787.256 569.014" stroke="#000000" stroke-width="2" stroke-miterlimit="8" fill="none" fill-rule="evenodd"/><path d="M603.931 502.256C571.396 475.898 573.029 419.958 607.579 377.31" stroke="#000000" stroke-width="2" stroke-miterlimit="8" fill="none" fill-rule="evenodd"/><path d="M687.456 502.256C654.921 475.898 656.554 419.958 691.104 377.31" stroke="#000000" stroke-width="2" stroke-miterlimit="8" fill="none" fill-rule="evenodd"/><path d="M766.958 502.256C734.423 475.898 736.056 419.958 770.606 377.31" stroke="#000000" stroke-width="2" stroke-miterlimit="8" fill="none" fill-rule="evenodd"/><path d="M905.894 309.898C963.008 357.983 958.275 457.58 895.322 532.355" stroke="#000000" stroke-width="2" stroke-miterlimit="8" fill="none" fill-rule="evenodd"/><path d="M975.106 274.93C1049.59 337.641 1050.08 459.617 976.202 547.373" stroke="#000000" stroke-width="2" stroke-miterlimit="8" fill="none" fill-rule="evenodd"/><path d="M1053.3 247.279C1144.1 332.27 1146.31 477.444 1058.24 571.534" stroke="#000000" stroke-width="2" stroke-miterlimit="8" fill="none" fill-rule="evenodd"/><path d="M0 0 287.164 0.000104987" stroke="#000000" stroke-width="2" stroke-miterlimit="8" fill="none" fill-rule="evenodd" transform="matrix(-1 0 0 1 492.164 230)"/><text font-family="Aptos,Aptos_MSFontService,sans-serif" font-weight="400" font-size="24" transform="translate(292.491 224)">Reactive</text><path d="M0 0 287.164 0.000104987" stroke="#000000" stroke-width="2" stroke-miterlimit="8" fill="none" fill-rule="evenodd" transform="matrix(-1 0 0 1 822.164 231)"/><text font-family="Aptos,Aptos_MSFontService,sans-serif" font-weight="400" font-size="24" transform="translate(578.396 224)">Radiated (Fresnel)</text><path d="M0 0 624.948 0.000104987" stroke="#000000" stroke-width="2" stroke-miterlimit="8" fill="none" fill-rule="evenodd" transform="matrix(-1 0 0 1 829.948 85)"/><text font-family="Aptos,Aptos_MSFontService,sans-serif" font-weight="400" font-size="24" transform="translate(460.2 75)">Near Field</text><path d="M0 0 282.884 0.000104987" stroke="#000000" stroke-width="2" stroke-miterlimit="8" fill="none" fill-rule="evenodd" transform="matrix(-1 0 0 1 1146.88 85)"/><text font-family="Aptos,Aptos_MSFontService,sans-serif" font-weight="400" font-size="24" transform="translate(903.43 76)">Far Field (Fraunhofer)</text><path d="M852 233 852 584.111" stroke="#000000" stroke-width="2" stroke-linejoin="round" stroke-miterlimit="10" stroke-dasharray="8 6" fill="none" fill-rule="evenodd"/><text font-family="Aptos,Aptos_MSFontService,sans-serif" font-weight="400" font-size="24" transform="translate(42.6478 307)">Antenna</text></g></svg>