<svg width="1280" height="720" xmlns="http://www.w3.org/2000/svg" xmlns:xlink="http://www.w3.org/1999/xlink" overflow="hidden"><g><rect x="0" y="0" width="1280" height="720" fill="#FFFFFF"/><path d="M93 329 93.0001 409.302" stroke="#000000" stroke-width="2" stroke-miterlimit="8" fill="none" fill-rule="evenodd"/><path d="M72 312 93.116 330.652" stroke="#000000" stroke-width="2" stroke-miterlimit="8" fill="none" fill-rule="evenodd"/><path d="M0 0 21.1165 18.6523" stroke="#000000" stroke-width="2" stroke-miterlimit="8" fill="none" fill-rule="evenodd" transform="matrix(-1 0 0 1 114.117 312)"/><path d="M93 309 93.0006 330.119" stroke="#000000" stroke-width="2" stroke-miterlimit="8" fill="none" fill-rule="evenodd"/><path d="M165.264 286.981C184.36 303.058 184.769 333.994 166.177 356.077" stroke="#000000" stroke-width="2" stroke-miterlimit="8" fill="none" fill-rule="evenodd"/><path d="M165.264 370.272C184.36 386.349 184.769 417.285 166.177 439.369" stroke="#000000" stroke-width="2" stroke-miterlimit="8" fill="none" fill-rule="evenodd"/><path d="M185.714 355.67C167.039 339.105 167.429 308.169 186.586 286.573" stroke="#000000" stroke-width="2" stroke-miterlimit="8" fill="none" fill-rule="evenodd"/><path d="M185.714 438.962C167.039 422.397 167.429 391.461 186.586 369.865" stroke="#000000" stroke-width="2" stroke-miterlimit="8" fill="none" fill-rule="evenodd"/><path d="M209.264 286.981C228.36 303.058 228.769 333.994 210.177 356.077" stroke="#000000" stroke-width="2" stroke-miterlimit="8" fill="none" fill-rule="evenodd"/><path d="M209.264 370.272C228.36 386.35 228.769 417.285 210.177 439.369" stroke="#000000" stroke-width="2" stroke-miterlimit="8" fill="none" fill-rule="evenodd"/><path d="M229.714 355.67C211.039 339.105 211.429 308.17 230.586 286.573" stroke="#000000" stroke-width="2" stroke-miterlimit="8" fill="none" fill-rule="evenodd"/><path d="M229.714 438.962C211.039 422.397 211.429 391.461 230.586 369.865" stroke="#000000" stroke-width="2" stroke-miterlimit="8" fill="none" fill-rule="evenodd"/><path d="M257.205 286.981C276.301 303.058 276.71 333.993 258.118 356.077" stroke="#000000" stroke-width="2" stroke-miterlimit="8" fill="none" fill-rule="evenodd"/><path d="M257.205 370.272C276.302 386.349 276.71 417.285 258.118 439.369" stroke="#000000" stroke-width="2" stroke-miterlimit="8" fill="none" fill-rule="evenodd"/><path d="M277.655 355.67C258.98 339.105 259.37 308.169 278.527 286.573" stroke="#000000" stroke-width="2" stroke-miterlimit="8" fill="none" fill-rule="evenodd"/><path d="M277.656 438.962C258.98 422.397 259.371 391.461 278.527 369.864" stroke="#000000" stroke-width="2" stroke-miterlimit="8" fill="none" fill-rule="evenodd"/><path d="M308.545 286.98C327.642 303.058 328.05 333.993 309.458 356.077" stroke="#000000" stroke-width="2" stroke-miterlimit="8" fill="none" fill-rule="evenodd"/><path d="M308.545 370.272C327.642 386.349 328.051 417.285 309.458 439.369" stroke="#000000" stroke-width="2" stroke-miterlimit="8" fill="none" fill-rule="evenodd"/><path d="M328.996 355.67C310.321 339.105 310.711 308.169 329.867 286.573" stroke="#000000" stroke-width="2" stroke-miterlimit="8" fill="none" fill-rule="evenodd"/><path d="M328.996 438.962C310.321 422.397 310.711 391.461 329.867 369.864" stroke="#000000" stroke-width="2" stroke-miterlimit="8" fill="none" fill-rule="evenodd"/><path d="M349 258 349 469.368" stroke="#000000" stroke-width="2" stroke-linejoin="round" stroke-miterlimit="10" stroke-dasharray="8 6" fill="none" fill-rule="evenodd"/><path d="M370.505 286.98C389.601 303.058 390.01 333.993 371.418 356.077" stroke="#000000" stroke-width="2" stroke-miterlimit="8" fill="none" fill-rule="evenodd"/><path d="M370.505 370.272C389.601 386.349 390.01 417.285 371.418 439.369" stroke="#000000" stroke-width="2" stroke-miterlimit="8" fill="none" fill-rule="evenodd"/><path d="M418.445 286.981C437.542 303.058 437.951 333.993 419.359 356.077" stroke="#000000" stroke-width="2" stroke-miterlimit="8" fill="none" fill-rule="evenodd"/><path d="M418.446 370.272C437.542 386.349 437.951 417.285 419.359 439.369" stroke="#000000" stroke-width="2" stroke-miterlimit="8" fill="none" fill-rule="evenodd"/><path d="M463.504 287.579C482.6 303.656 483.009 334.592 464.417 356.675" stroke="#000000" stroke-width="2" stroke-miterlimit="8" fill="none" fill-rule="evenodd"/><path d="M463.504 370.87C482.6 386.948 483.009 417.883 464.417 439.967" stroke="#000000" stroke-width="2" stroke-miterlimit="8" fill="none" fill-rule="evenodd"/><path d="M512.87 286.698C531.966 302.775 532.375 333.711 513.783 355.795" stroke="#000000" stroke-width="2" stroke-miterlimit="8" fill="none" fill-rule="evenodd"/><path d="M512.87 369.99C531.966 386.067 532.375 417.003 513.783 439.086" stroke="#000000" stroke-width="2" stroke-miterlimit="8" fill="none" fill-rule="evenodd"/><path d="M408.883 400.546C389.486 384.832 388.493 353.91 406.665 331.479" stroke="#000000" stroke-width="2" stroke-miterlimit="8" fill="none" fill-rule="evenodd"/><path d="M458.678 400.546C439.281 384.832 438.288 353.91 456.46 331.479" stroke="#000000" stroke-width="2" stroke-miterlimit="8" fill="none" fill-rule="evenodd"/><path d="M506.075 400.546C486.678 384.832 485.685 353.91 503.857 331.479" stroke="#000000" stroke-width="2" stroke-miterlimit="8" fill="none" fill-rule="evenodd"/><path d="M576.505 299.372C610.553 328.038 611.314 383.158 578.204 422.486" stroke="#000000" stroke-width="2" stroke-miterlimit="8" fill="none" fill-rule="evenodd"/><path d="M616.381 280.983C660.788 318.37 665.286 386.093 626.428 432.249" stroke="#000000" stroke-width="2" stroke-miterlimit="8" fill="none" fill-rule="evenodd"/><path d="M661.192 266.44C715.324 317.109 721.656 398.302 675.335 447.789" stroke="#000000" stroke-width="2" stroke-miterlimit="8" fill="none" fill-rule="evenodd"/><path d="M0 0 171.2 0.000104987" stroke="#000000" stroke-width="2" stroke-miterlimit="8" fill="none" fill-rule="evenodd" transform="matrix(-1 0 0 1 337.2 258)"/><text font-family="Aptos,Aptos_MSFontService,sans-serif" font-weight="400" font-size="24" transform="translate(206.461 254)">Reactive</text><path d="M0 0 171.2 0.000104987" stroke="#000000" stroke-width="2" stroke-miterlimit="8" fill="none" fill-rule="evenodd" transform="matrix(-1 0 0 1 535.2 258)"/><text font-family="Aptos,Aptos_MSFontService,sans-serif" font-weight="400" font-size="24" transform="translate(358.813 254)">Radiated (Fresnel)</text><path d="M0 0 372.578 0.000104987" stroke="#000000" stroke-width="2" stroke-miterlimit="8" fill="none" fill-rule="evenodd" transform="matrix(-1 0 0 1 538.578 181)"/><text font-family="Aptos,Aptos_MSFontService,sans-serif" font-weight="400" font-size="24" transform="translate(300.799 178)">Near Field</text><path d="M0 0 231.995 0.000104987" stroke="#000000" stroke-width="2" stroke-miterlimit="8" fill="none" fill-rule="evenodd" transform="matrix(-1 0 0 1 791.995 181)"/><text font-family="Aptos,Aptos_MSFontService,sans-serif" font-weight="400" font-size="24" transform="translate(561.411 178)">Far Field (Fraunhofer)</text><path d="M552 259 552 470.368" stroke="#000000" stroke-width="2" stroke-linejoin="round" stroke-miterlimit="10" stroke-dasharray="8 6" fill="none" fill-rule="evenodd"/><text font-family="Aptos,Aptos_MSFontService,sans-serif" font-weight="400" font-size="24" transform="translate(54.0415 298)">Antenna</text></g></svg>