<svg width="1280" height="720" xmlns="http://www.w3.org/2000/svg" xmlns:xlink="http://www.w3.org/1999/xlink" overflow="hidden"><g><rect x="0" y="0" width="1280" height="720" fill="#FFFFFF"/><path d="M1042.78 255.038C1130.32 336.979 1140.46 468.39 1065.42 548.553" stroke="#000000" stroke-width="2" stroke-miterlimit="8" fill="none" fill-rule="evenodd"/><path d="M123 357 123 487.079" stroke="#000000" stroke-width="2" stroke-miterlimit="8" fill="none" fill-rule="evenodd"/><path d="M89 329 123.148 359.215" stroke="#000000" stroke-width="2" stroke-miterlimit="8" fill="none" fill-rule="evenodd"/><path d="M0 0 34.149 30.2144" stroke="#000000" stroke-width="2" stroke-miterlimit="8" fill="none" fill-rule="evenodd" transform="matrix(-1 0 0 1 157.149 329)"/><path d="M123 325 123.001 359.211" stroke="#000000" stroke-width="2" stroke-miterlimit="8" fill="none" fill-rule="evenodd"/><path d="M240.643 288.312C271.525 314.311 272.146 364.388 242.029 400.161" stroke="#000000" stroke-width="2" stroke-miterlimit="8" fill="none" fill-rule="evenodd"/><path d="M240.643 423.233C271.526 449.233 272.146 499.31 242.029 535.082" stroke="#000000" stroke-width="2" stroke-miterlimit="8" fill="none" fill-rule="evenodd"/><path d="M273.53 399.58C243.329 372.792 244.002 322.716 275.033 287.733" stroke="#000000" stroke-width="2" stroke-miterlimit="8" fill="none" fill-rule="evenodd"/><path d="M273.53 534.502C243.329 507.713 244.002 457.638 275.033 422.654" stroke="#000000" stroke-width="2" stroke-miterlimit="8" fill="none" fill-rule="evenodd"/><path d="M311.799 288.312C342.681 314.311 343.301 364.388 313.184 400.161" stroke="#000000" stroke-width="2" stroke-miterlimit="8" fill="none" fill-rule="evenodd"/><path d="M311.799 423.234C342.681 449.233 343.301 499.31 313.184 535.083" stroke="#000000" stroke-width="2" stroke-miterlimit="8" fill="none" fill-rule="evenodd"/><path d="M344.685 399.58C314.485 372.792 315.157 322.716 346.188 287.733" stroke="#000000" stroke-width="2" stroke-miterlimit="8" fill="none" fill-rule="evenodd"/><path d="M344.685 534.502C314.485 507.714 315.158 457.638 346.188 422.654" stroke="#000000" stroke-width="2" stroke-miterlimit="8" fill="none" fill-rule="evenodd"/><path d="M389.327 288.311C420.21 314.311 420.83 364.388 390.713 400.16" stroke="#000000" stroke-width="2" stroke-miterlimit="8" fill="none" fill-rule="evenodd"/><path d="M389.328 423.233C420.21 449.233 420.83 499.309 390.713 535.082" stroke="#000000" stroke-width="2" stroke-miterlimit="8" fill="none" fill-rule="evenodd"/><path d="M422.214 399.58C392.013 372.792 392.686 322.716 423.717 287.732" stroke="#000000" stroke-width="2" stroke-miterlimit="8" fill="none" fill-rule="evenodd"/><path d="M422.214 534.502C392.014 507.713 392.686 457.637 423.717 422.654" stroke="#000000" stroke-width="2" stroke-miterlimit="8" fill="none" fill-rule="evenodd"/><path d="M472.353 288.311C503.235 314.311 503.856 364.387 473.739 400.16" stroke="#000000" stroke-width="2" stroke-miterlimit="8" fill="none" fill-rule="evenodd"/><path d="M472.353 423.233C503.236 449.233 503.856 499.309 473.739 535.082" stroke="#000000" stroke-width="2" stroke-miterlimit="8" fill="none" fill-rule="evenodd"/><path d="M505.24 399.58C475.039 372.791 475.712 322.716 506.743 287.732" stroke="#000000" stroke-width="2" stroke-miterlimit="8" fill="none" fill-rule="evenodd"/><path d="M505.24 534.502C475.039 507.713 475.712 457.637 506.743 422.654" stroke="#000000" stroke-width="2" stroke-miterlimit="8" fill="none" fill-rule="evenodd"/><path d="M537 241 537 542.219" stroke="#000000" stroke-width="2" stroke-linejoin="round" stroke-miterlimit="10" stroke-dasharray="8 6" fill="none" fill-rule="evenodd"/><path d="M572.552 288.311C603.434 314.311 604.054 364.387 573.937 400.16" stroke="#000000" stroke-width="2" stroke-miterlimit="8" fill="none" fill-rule="evenodd"/><path d="M572.552 423.233C603.434 449.233 604.055 499.309 573.938 535.082" stroke="#000000" stroke-width="2" stroke-miterlimit="8" fill="none" fill-rule="evenodd"/><path d="M650.08 288.311C680.963 314.311 681.583 364.388 651.466 400.16" stroke="#000000" stroke-width="2" stroke-miterlimit="8" fill="none" fill-rule="evenodd"/><path d="M650.08 423.233C680.963 449.233 681.583 499.309 651.466 535.082" stroke="#000000" stroke-width="2" stroke-miterlimit="8" fill="none" fill-rule="evenodd"/><path d="M722.947 289.28C753.829 315.28 754.449 365.357 724.332 401.13" stroke="#000000" stroke-width="2" stroke-miterlimit="8" fill="none" fill-rule="evenodd"/><path d="M722.947 424.202C753.829 450.202 754.449 500.278 724.332 536.051" stroke="#000000" stroke-width="2" stroke-miterlimit="8" fill="none" fill-rule="evenodd"/><path d="M802.78 287.854C833.662 313.854 834.282 363.93 804.165 399.703" stroke="#000000" stroke-width="2" stroke-miterlimit="8" fill="none" fill-rule="evenodd"/><path d="M802.78 422.776C833.662 448.775 834.283 498.852 804.166 534.625" stroke="#000000" stroke-width="2" stroke-miterlimit="8" fill="none" fill-rule="evenodd"/><path d="M634.435 472.273C603.067 446.862 601.501 396.806 630.937 360.47" stroke="#000000" stroke-width="2" stroke-miterlimit="8" fill="none" fill-rule="evenodd"/><path d="M714.963 472.273C683.595 446.862 682.029 396.806 711.465 360.47" stroke="#000000" stroke-width="2" stroke-miterlimit="8" fill="none" fill-rule="evenodd"/><path d="M791.611 472.273C760.244 446.862 758.678 396.806 788.114 360.47" stroke="#000000" stroke-width="2" stroke-miterlimit="8" fill="none" fill-rule="evenodd"/><path d="M905.765 308.389C960.829 354.747 961.989 443.973 908.354 507.68" stroke="#000000" stroke-width="2" stroke-miterlimit="8" fill="none" fill-rule="evenodd"/><path d="M970.274 278.597C1042.09 339.056 1049.28 448.678 986.332 523.444" stroke="#000000" stroke-width="2" stroke-miterlimit="8" fill="none" fill-rule="evenodd"/><path d="M0 0 276.859 0.000104987" stroke="#000000" stroke-width="2" stroke-miterlimit="8" fill="none" fill-rule="evenodd" transform="matrix(-1 0 0 1 518.859 241)"/><text font-family="Aptos,Aptos_MSFontService,sans-serif" font-weight="400" font-size="24" transform="translate(327.458 236)">Reactive</text><path d="M0 0 276.859 0.000104987" stroke="#000000" stroke-width="2" stroke-miterlimit="8" fill="none" fill-rule="evenodd" transform="matrix(-1 0 0 1 837.859 241)"/><text font-family="Aptos,Aptos_MSFontService,sans-serif" font-weight="400" font-size="24" transform="translate(603.278 236)">Radiated (Fresnel)</text><path d="M0 0 602.521 0.000104987" stroke="#000000" stroke-width="2" stroke-miterlimit="8" fill="none" fill-rule="evenodd" transform="matrix(-1 0 0 1 844.521 117)"/><text font-family="Aptos,Aptos_MSFontService,sans-serif" font-weight="400" font-size="24" transform="translate(489.191 113)">Near Field</text><path d="M0 0 272.732 0.000104987" stroke="#000000" stroke-width="2" stroke-miterlimit="8" fill="none" fill-rule="evenodd" transform="matrix(-1 0 0 1 1150.73 117)"/><text font-family="Aptos,Aptos_MSFontService,sans-serif" font-weight="400" font-size="24" transform="translate(916.515 113)">Far Field (Fraunhofer)</text><path d="M866 243 866 542.139" stroke="#000000" stroke-width="2" stroke-linejoin="round" stroke-miterlimit="10" stroke-dasharray="8 6" fill="none" fill-rule="evenodd"/><text font-family="Aptos,Aptos_MSFontService,sans-serif" font-weight="400" font-size="24" transform="translate(86.6238 310)">Antenna</text></g></svg>