<?xml version="1.0" encoding="utf-8" standalone="no"?>
<!DOCTYPE svg PUBLIC "-//W3C//DTD SVG 1.1//EN"
  "http://www.w3.org/Graphics/SVG/1.1/DTD/svg11.dtd">
<svg xmlns:xlink="http://www.w3.org/1999/xlink" width="488.904687pt" height="614.274375pt" viewBox="0 0 488.904687 614.274375" xmlns="http://www.w3.org/2000/svg" version="1.1">
 <metadata>
  <rdf:RDF xmlns:dc="http://purl.org/dc/elements/1.1/" xmlns:cc="http://creativecommons.org/ns#" xmlns:rdf="http://www.w3.org/1999/02/22-rdf-syntax-ns#">
   <cc:Work>
    <dc:type rdf:resource="http://purl.org/dc/dcmitype/StillImage"/>
    <dc:date>2024-12-14T15:47:41.104233</dc:date>
    <dc:format>image/svg+xml</dc:format>
    <dc:creator>
     <cc:Agent>
      <dc:title>Matplotlib v3.8.3, https://matplotlib.org/</dc:title>
     </cc:Agent>
    </dc:creator>
   </cc:Work>
  </rdf:RDF>
 </metadata>
 <defs>
  <style type="text/css">*{stroke-linejoin: round; stroke-linecap: butt}</style>
 </defs>
 <g id="figure_1">
  <g id="patch_1">
   <path d="M 0 614.274375 
L 488.904687 614.274375 
L 488.904687 0 
L 0 0 
z
" style="fill: #ffffff"/>
  </g>
  <g id="axes_1">
   <g id="patch_2">
    <path d="M 35.304688 274.318125 
L 481.704687 274.318125 
L 481.704687 22.318125 
L 35.304688 22.318125 
z
" style="fill: #ffffff"/>
   </g>
   <g id="matplotlib.axis_1">
    <g id="xtick_1">
     <g id="line2d_1">
      <path d="M 102.420771 274.318125 
L 102.420771 22.318125 
" clip-path="url(#p5fd85e914d)" style="fill: none; stroke: #b0b0b0; stroke-width: 0.8; stroke-linecap: square"/>
     </g>
     <g id="line2d_2">
      <defs>
       <path id="m7caf4d9804" d="M 0 0 
L 0 3.5 
" style="stroke: #000000; stroke-width: 0.8"/>
      </defs>
      <g>
       <use xlink:href="#m7caf4d9804" x="102.420771" y="274.318125" style="stroke: #000000; stroke-width: 0.8"/>
      </g>
     </g>
     <g id="text_1">
      <!-- −100 -->
      <g transform="translate(88.687178 288.916562) scale(0.1 -0.1)">
       <defs>
        <path id="DejaVuSans-2212" d="M 678 2272 
L 4684 2272 
L 4684 1741 
L 678 1741 
L 678 2272 
z
" transform="scale(0.015625)"/>
        <path id="DejaVuSans-31" d="M 794 531 
L 1825 531 
L 1825 4091 
L 703 3866 
L 703 4441 
L 1819 4666 
L 2450 4666 
L 2450 531 
L 3481 531 
L 3481 0 
L 794 0 
L 794 531 
z
" transform="scale(0.015625)"/>
        <path id="DejaVuSans-30" d="M 2034 4250 
Q 1547 4250 1301 3770 
Q 1056 3291 1056 2328 
Q 1056 1369 1301 889 
Q 1547 409 2034 409 
Q 2525 409 2770 889 
Q 3016 1369 3016 2328 
Q 3016 3291 2770 3770 
Q 2525 4250 2034 4250 
z
M 2034 4750 
Q 2819 4750 3233 4129 
Q 3647 3509 3647 2328 
Q 3647 1150 3233 529 
Q 2819 -91 2034 -91 
Q 1250 -91 836 529 
Q 422 1150 422 2328 
Q 422 3509 836 4129 
Q 1250 4750 2034 4750 
z
" transform="scale(0.015625)"/>
       </defs>
       <use xlink:href="#DejaVuSans-2212"/>
       <use xlink:href="#DejaVuSans-31" x="83.789062"/>
       <use xlink:href="#DejaVuSans-30" x="147.412109"/>
       <use xlink:href="#DejaVuSans-30" x="211.035156"/>
      </g>
     </g>
    </g>
    <g id="xtick_2">
     <g id="line2d_3">
      <path d="M 180.462729 274.318125 
L 180.462729 22.318125 
" clip-path="url(#p5fd85e914d)" style="fill: none; stroke: #b0b0b0; stroke-width: 0.8; stroke-linecap: square"/>
     </g>
     <g id="line2d_4">
      <g>
       <use xlink:href="#m7caf4d9804" x="180.462729" y="274.318125" style="stroke: #000000; stroke-width: 0.8"/>
      </g>
     </g>
     <g id="text_2">
      <!-- −50 -->
      <g transform="translate(169.910386 288.916562) scale(0.1 -0.1)">
       <defs>
        <path id="DejaVuSans-35" d="M 691 4666 
L 3169 4666 
L 3169 4134 
L 1269 4134 
L 1269 2991 
Q 1406 3038 1543 3061 
Q 1681 3084 1819 3084 
Q 2600 3084 3056 2656 
Q 3513 2228 3513 1497 
Q 3513 744 3044 326 
Q 2575 -91 1722 -91 
Q 1428 -91 1123 -41 
Q 819 9 494 109 
L 494 744 
Q 775 591 1075 516 
Q 1375 441 1709 441 
Q 2250 441 2565 725 
Q 2881 1009 2881 1497 
Q 2881 1984 2565 2268 
Q 2250 2553 1709 2553 
Q 1456 2553 1204 2497 
Q 953 2441 691 2322 
L 691 4666 
z
" transform="scale(0.015625)"/>
       </defs>
       <use xlink:href="#DejaVuSans-2212"/>
       <use xlink:href="#DejaVuSans-35" x="83.789062"/>
       <use xlink:href="#DejaVuSans-30" x="147.412109"/>
      </g>
     </g>
    </g>
    <g id="xtick_3">
     <g id="line2d_5">
      <path d="M 258.504687 274.318125 
L 258.504687 22.318125 
" clip-path="url(#p5fd85e914d)" style="fill: none; stroke: #b0b0b0; stroke-width: 0.8; stroke-linecap: square"/>
     </g>
     <g id="line2d_6">
      <g>
       <use xlink:href="#m7caf4d9804" x="258.504687" y="274.318125" style="stroke: #000000; stroke-width: 0.8"/>
      </g>
     </g>
     <g id="text_3">
      <!-- 0 -->
      <g transform="translate(255.323437 288.916562) scale(0.1 -0.1)">
       <use xlink:href="#DejaVuSans-30"/>
      </g>
     </g>
    </g>
    <g id="xtick_4">
     <g id="line2d_7">
      <path d="M 336.546646 274.318125 
L 336.546646 22.318125 
" clip-path="url(#p5fd85e914d)" style="fill: none; stroke: #b0b0b0; stroke-width: 0.8; stroke-linecap: square"/>
     </g>
     <g id="line2d_8">
      <g>
       <use xlink:href="#m7caf4d9804" x="336.546646" y="274.318125" style="stroke: #000000; stroke-width: 0.8"/>
      </g>
     </g>
     <g id="text_4">
      <!-- 50 -->
      <g transform="translate(330.184146 288.916562) scale(0.1 -0.1)">
       <use xlink:href="#DejaVuSans-35"/>
       <use xlink:href="#DejaVuSans-30" x="63.623047"/>
      </g>
     </g>
    </g>
    <g id="xtick_5">
     <g id="line2d_9">
      <path d="M 414.588604 274.318125 
L 414.588604 22.318125 
" clip-path="url(#p5fd85e914d)" style="fill: none; stroke: #b0b0b0; stroke-width: 0.8; stroke-linecap: square"/>
     </g>
     <g id="line2d_10">
      <g>
       <use xlink:href="#m7caf4d9804" x="414.588604" y="274.318125" style="stroke: #000000; stroke-width: 0.8"/>
      </g>
     </g>
     <g id="text_5">
      <!-- 100 -->
      <g transform="translate(405.044854 288.916562) scale(0.1 -0.1)">
       <use xlink:href="#DejaVuSans-31"/>
       <use xlink:href="#DejaVuSans-30" x="63.623047"/>
       <use xlink:href="#DejaVuSans-30" x="127.246094"/>
      </g>
     </g>
    </g>
    <g id="text_6">
     <!-- Theta -->
     <g transform="translate(244.18125 302.594687) scale(0.1 -0.1)">
      <defs>
       <path id="DejaVuSans-54" d="M -19 4666 
L 3928 4666 
L 3928 4134 
L 2272 4134 
L 2272 0 
L 1638 0 
L 1638 4134 
L -19 4134 
L -19 4666 
z
" transform="scale(0.015625)"/>
       <path id="DejaVuSans-68" d="M 3513 2113 
L 3513 0 
L 2938 0 
L 2938 2094 
Q 2938 2591 2744 2837 
Q 2550 3084 2163 3084 
Q 1697 3084 1428 2787 
Q 1159 2491 1159 1978 
L 1159 0 
L 581 0 
L 581 4863 
L 1159 4863 
L 1159 2956 
Q 1366 3272 1645 3428 
Q 1925 3584 2291 3584 
Q 2894 3584 3203 3211 
Q 3513 2838 3513 2113 
z
" transform="scale(0.015625)"/>
       <path id="DejaVuSans-65" d="M 3597 1894 
L 3597 1613 
L 953 1613 
Q 991 1019 1311 708 
Q 1631 397 2203 397 
Q 2534 397 2845 478 
Q 3156 559 3463 722 
L 3463 178 
Q 3153 47 2828 -22 
Q 2503 -91 2169 -91 
Q 1331 -91 842 396 
Q 353 884 353 1716 
Q 353 2575 817 3079 
Q 1281 3584 2069 3584 
Q 2775 3584 3186 3129 
Q 3597 2675 3597 1894 
z
M 3022 2063 
Q 3016 2534 2758 2815 
Q 2500 3097 2075 3097 
Q 1594 3097 1305 2825 
Q 1016 2553 972 2059 
L 3022 2063 
z
" transform="scale(0.015625)"/>
       <path id="DejaVuSans-74" d="M 1172 4494 
L 1172 3500 
L 2356 3500 
L 2356 3053 
L 1172 3053 
L 1172 1153 
Q 1172 725 1289 603 
Q 1406 481 1766 481 
L 2356 481 
L 2356 0 
L 1766 0 
Q 1100 0 847 248 
Q 594 497 594 1153 
L 594 3053 
L 172 3053 
L 172 3500 
L 594 3500 
L 594 4494 
L 1172 4494 
z
" transform="scale(0.015625)"/>
       <path id="DejaVuSans-61" d="M 2194 1759 
Q 1497 1759 1228 1600 
Q 959 1441 959 1056 
Q 959 750 1161 570 
Q 1363 391 1709 391 
Q 2188 391 2477 730 
Q 2766 1069 2766 1631 
L 2766 1759 
L 2194 1759 
z
M 3341 1997 
L 3341 0 
L 2766 0 
L 2766 531 
Q 2569 213 2275 61 
Q 1981 -91 1556 -91 
Q 1019 -91 701 211 
Q 384 513 384 1019 
Q 384 1609 779 1909 
Q 1175 2209 1959 2209 
L 2766 2209 
L 2766 2266 
Q 2766 2663 2505 2880 
Q 2244 3097 1772 3097 
Q 1472 3097 1187 3025 
Q 903 2953 641 2809 
L 641 3341 
Q 956 3463 1253 3523 
Q 1550 3584 1831 3584 
Q 2591 3584 2966 3190 
Q 3341 2797 3341 1997 
z
" transform="scale(0.015625)"/>
      </defs>
      <use xlink:href="#DejaVuSans-54"/>
      <use xlink:href="#DejaVuSans-68" x="61.083984"/>
      <use xlink:href="#DejaVuSans-65" x="124.462891"/>
      <use xlink:href="#DejaVuSans-74" x="185.986328"/>
      <use xlink:href="#DejaVuSans-61" x="225.195312"/>
     </g>
    </g>
   </g>
   <g id="matplotlib.axis_2">
    <g id="ytick_1">
     <g id="line2d_11">
      <path d="M 35.304688 265.296548 
L 481.704687 265.296548 
" clip-path="url(#p5fd85e914d)" style="fill: none; stroke: #b0b0b0; stroke-width: 0.8; stroke-linecap: square"/>
     </g>
     <g id="line2d_12">
      <defs>
       <path id="m0e1ff05225" d="M 0 0 
L -3.5 0 
" style="stroke: #000000; stroke-width: 0.8"/>
      </defs>
      <g>
       <use xlink:href="#m0e1ff05225" x="35.304688" y="265.296548" style="stroke: #000000; stroke-width: 0.8"/>
      </g>
     </g>
     <g id="text_7">
      <!-- −30 -->
      <g transform="translate(7.2 269.095767) scale(0.1 -0.1)">
       <defs>
        <path id="DejaVuSans-33" d="M 2597 2516 
Q 3050 2419 3304 2112 
Q 3559 1806 3559 1356 
Q 3559 666 3084 287 
Q 2609 -91 1734 -91 
Q 1441 -91 1130 -33 
Q 819 25 488 141 
L 488 750 
Q 750 597 1062 519 
Q 1375 441 1716 441 
Q 2309 441 2620 675 
Q 2931 909 2931 1356 
Q 2931 1769 2642 2001 
Q 2353 2234 1838 2234 
L 1294 2234 
L 1294 2753 
L 1863 2753 
Q 2328 2753 2575 2939 
Q 2822 3125 2822 3475 
Q 2822 3834 2567 4026 
Q 2313 4219 1838 4219 
Q 1578 4219 1281 4162 
Q 984 4106 628 3988 
L 628 4550 
Q 988 4650 1302 4700 
Q 1616 4750 1894 4750 
Q 2613 4750 3031 4423 
Q 3450 4097 3450 3541 
Q 3450 3153 3228 2886 
Q 3006 2619 2597 2516 
z
" transform="scale(0.015625)"/>
       </defs>
       <use xlink:href="#DejaVuSans-2212"/>
       <use xlink:href="#DejaVuSans-33" x="83.789062"/>
       <use xlink:href="#DejaVuSans-30" x="147.412109"/>
      </g>
     </g>
    </g>
    <g id="ytick_2">
     <g id="line2d_13">
      <path d="M 35.304688 226.709235 
L 481.704687 226.709235 
" clip-path="url(#p5fd85e914d)" style="fill: none; stroke: #b0b0b0; stroke-width: 0.8; stroke-linecap: square"/>
     </g>
     <g id="line2d_14">
      <g>
       <use xlink:href="#m0e1ff05225" x="35.304688" y="226.709235" style="stroke: #000000; stroke-width: 0.8"/>
      </g>
     </g>
     <g id="text_8">
      <!-- −25 -->
      <g transform="translate(7.2 230.508454) scale(0.1 -0.1)">
       <defs>
        <path id="DejaVuSans-32" d="M 1228 531 
L 3431 531 
L 3431 0 
L 469 0 
L 469 531 
Q 828 903 1448 1529 
Q 2069 2156 2228 2338 
Q 2531 2678 2651 2914 
Q 2772 3150 2772 3378 
Q 2772 3750 2511 3984 
Q 2250 4219 1831 4219 
Q 1534 4219 1204 4116 
Q 875 4013 500 3803 
L 500 4441 
Q 881 4594 1212 4672 
Q 1544 4750 1819 4750 
Q 2544 4750 2975 4387 
Q 3406 4025 3406 3419 
Q 3406 3131 3298 2873 
Q 3191 2616 2906 2266 
Q 2828 2175 2409 1742 
Q 1991 1309 1228 531 
z
" transform="scale(0.015625)"/>
       </defs>
       <use xlink:href="#DejaVuSans-2212"/>
       <use xlink:href="#DejaVuSans-32" x="83.789062"/>
       <use xlink:href="#DejaVuSans-35" x="147.412109"/>
      </g>
     </g>
    </g>
    <g id="ytick_3">
     <g id="line2d_15">
      <path d="M 35.304688 188.121922 
L 481.704687 188.121922 
" clip-path="url(#p5fd85e914d)" style="fill: none; stroke: #b0b0b0; stroke-width: 0.8; stroke-linecap: square"/>
     </g>
     <g id="line2d_16">
      <g>
       <use xlink:href="#m0e1ff05225" x="35.304688" y="188.121922" style="stroke: #000000; stroke-width: 0.8"/>
      </g>
     </g>
     <g id="text_9">
      <!-- −20 -->
      <g transform="translate(7.2 191.921141) scale(0.1 -0.1)">
       <use xlink:href="#DejaVuSans-2212"/>
       <use xlink:href="#DejaVuSans-32" x="83.789062"/>
       <use xlink:href="#DejaVuSans-30" x="147.412109"/>
      </g>
     </g>
    </g>
    <g id="ytick_4">
     <g id="line2d_17">
      <path d="M 35.304688 149.534609 
L 481.704687 149.534609 
" clip-path="url(#p5fd85e914d)" style="fill: none; stroke: #b0b0b0; stroke-width: 0.8; stroke-linecap: square"/>
     </g>
     <g id="line2d_18">
      <g>
       <use xlink:href="#m0e1ff05225" x="35.304688" y="149.534609" style="stroke: #000000; stroke-width: 0.8"/>
      </g>
     </g>
     <g id="text_10">
      <!-- −15 -->
      <g transform="translate(7.2 153.333828) scale(0.1 -0.1)">
       <use xlink:href="#DejaVuSans-2212"/>
       <use xlink:href="#DejaVuSans-31" x="83.789062"/>
       <use xlink:href="#DejaVuSans-35" x="147.412109"/>
      </g>
     </g>
    </g>
    <g id="ytick_5">
     <g id="line2d_19">
      <path d="M 35.304688 110.947296 
L 481.704687 110.947296 
" clip-path="url(#p5fd85e914d)" style="fill: none; stroke: #b0b0b0; stroke-width: 0.8; stroke-linecap: square"/>
     </g>
     <g id="line2d_20">
      <g>
       <use xlink:href="#m0e1ff05225" x="35.304688" y="110.947296" style="stroke: #000000; stroke-width: 0.8"/>
      </g>
     </g>
     <g id="text_11">
      <!-- −10 -->
      <g transform="translate(7.2 114.746515) scale(0.1 -0.1)">
       <use xlink:href="#DejaVuSans-2212"/>
       <use xlink:href="#DejaVuSans-31" x="83.789062"/>
       <use xlink:href="#DejaVuSans-30" x="147.412109"/>
      </g>
     </g>
    </g>
    <g id="ytick_6">
     <g id="line2d_21">
      <path d="M 35.304688 72.359983 
L 481.704687 72.359983 
" clip-path="url(#p5fd85e914d)" style="fill: none; stroke: #b0b0b0; stroke-width: 0.8; stroke-linecap: square"/>
     </g>
     <g id="line2d_22">
      <g>
       <use xlink:href="#m0e1ff05225" x="35.304688" y="72.359983" style="stroke: #000000; stroke-width: 0.8"/>
      </g>
     </g>
     <g id="text_12">
      <!-- −5 -->
      <g transform="translate(13.5625 76.159202) scale(0.1 -0.1)">
       <use xlink:href="#DejaVuSans-2212"/>
       <use xlink:href="#DejaVuSans-35" x="83.789062"/>
      </g>
     </g>
    </g>
    <g id="ytick_7">
     <g id="line2d_23">
      <path d="M 35.304688 33.77267 
L 481.704687 33.77267 
" clip-path="url(#p5fd85e914d)" style="fill: none; stroke: #b0b0b0; stroke-width: 0.8; stroke-linecap: square"/>
     </g>
     <g id="line2d_24">
      <g>
       <use xlink:href="#m0e1ff05225" x="35.304688" y="33.77267" style="stroke: #000000; stroke-width: 0.8"/>
      </g>
     </g>
     <g id="text_13">
      <!-- 0 -->
      <g transform="translate(21.942187 37.571889) scale(0.1 -0.1)">
       <use xlink:href="#DejaVuSans-30"/>
      </g>
     </g>
    </g>
   </g>
   <g id="line2d_25">
    <path d="M 55.595597 175.907177 
L 63.399792 186.585244 
L 71.203988 193.494138 
L 79.008184 203.552282 
L 86.81238 212.270656 
L 94.616576 224.998133 
L 102.420771 223.041539 
L 110.224967 232.435821 
L 118.029163 240.261606 
L 125.833359 247.591352 
L 133.637555 247.939654 
L 141.44175 257.709407 
L 149.245946 258.007568 
L 157.050142 262.863579 
L 164.854338 254.149374 
L 172.658534 251.770653 
L 180.462729 249.474488 
L 188.266925 262.838159 
L 196.071121 253.02354 
L 203.875317 214.245574 
L 211.679513 188.629722 
L 219.483708 180.358921 
L 227.287904 142.866205 
L 235.0921 94.737023 
L 242.896296 59.161533 
L 250.700492 40.673555 
L 258.504687 33.77267 
L 266.308883 42.232027 
L 274.113079 61.829251 
L 281.917275 99.713768 
L 289.721471 149.677782 
L 297.525667 184.915844 
L 305.329862 191.739884 
L 313.134058 216.266822 
L 320.938254 256.964235 
L 328.74245 261.655355 
L 336.546646 248.953063 
L 344.350841 250.946361 
L 352.155037 254.79596 
L 359.959233 261.067455 
L 367.763429 258.768683 
L 375.567625 255.817711 
L 383.37182 247.935582 
L 391.176016 246.459127 
L 398.980212 239.435659 
L 406.784408 232.188834 
L 414.588604 221.131162 
L 422.392799 223.415626 
L 430.196995 210.775962 
L 438.001191 201.197442 
L 445.805387 192.003672 
L 453.609583 185.494887 
L 461.413778 171.585087 
" clip-path="url(#p5fd85e914d)" style="fill: none; stroke: #1f77b4; stroke-opacity: 0.7; stroke-width: 1.5; stroke-linecap: square"/>
   </g>
   <g id="line2d_26">
    <path d="M 55.595597 175.907175 
L 63.399792 186.585243 
L 71.203988 193.494136 
L 79.008184 203.552279 
L 86.81238 212.270656 
L 94.616576 224.998131 
L 102.420771 223.041539 
L 110.224967 232.435819 
L 118.029163 240.261605 
L 125.833359 247.59135 
L 133.637555 247.939653 
L 141.44175 257.709406 
L 149.245946 258.007568 
L 157.050142 262.86358 
L 164.854338 254.149375 
L 172.658534 251.77065 
L 180.462729 249.474487 
L 188.266925 262.838159 
L 196.071121 253.023538 
L 203.875317 214.24558 
L 211.679513 188.629707 
L 219.483708 180.358925 
L 227.287904 142.866207 
L 235.0921 94.737021 
L 242.896296 59.161532 
L 250.700492 40.673555 
L 258.504687 33.77267 
L 266.308883 42.232027 
L 274.113079 61.829248 
L 281.917275 99.713766 
L 289.721471 149.677777 
L 297.525667 184.915844 
L 305.329862 191.739878 
L 313.134058 216.266802 
L 320.938254 256.964239 
L 328.74245 261.655357 
L 336.546646 248.953061 
L 344.350841 250.946366 
L 352.155037 254.795957 
L 359.959233 261.067454 
L 367.763429 258.768681 
L 375.567625 255.817711 
L 383.37182 247.93558 
L 391.176016 246.459128 
L 398.980212 239.435658 
L 406.784408 232.188834 
L 414.588604 221.131161 
L 422.392799 223.415627 
L 430.196995 210.775959 
L 438.001191 201.197443 
L 445.805387 192.003671 
L 453.609583 185.494885 
L 461.413778 171.585086 
" clip-path="url(#p5fd85e914d)" style="fill: none; stroke: #ff7f0e; stroke-opacity: 0.7; stroke-width: 1.5; stroke-linecap: square"/>
   </g>
   <g id="patch_3">
    <path d="M 35.304688 274.318125 
L 35.304688 22.318125 
" style="fill: none; stroke: #000000; stroke-width: 0.8; stroke-linejoin: miter; stroke-linecap: square"/>
   </g>
   <g id="patch_4">
    <path d="M 481.704687 274.318125 
L 481.704687 22.318125 
" style="fill: none; stroke: #000000; stroke-width: 0.8; stroke-linejoin: miter; stroke-linecap: square"/>
   </g>
   <g id="patch_5">
    <path d="M 35.304688 274.318125 
L 481.704687 274.318125 
" style="fill: none; stroke: #000000; stroke-width: 0.8; stroke-linejoin: miter; stroke-linecap: square"/>
   </g>
   <g id="patch_6">
    <path d="M 35.304688 22.318125 
L 481.704687 22.318125 
" style="fill: none; stroke: #000000; stroke-width: 0.8; stroke-linejoin: miter; stroke-linecap: square"/>
   </g>
   <g id="text_14">
    <!-- Radiation Comparison of transform w/o error H-plane Phi = 90.0 -->
    <g transform="translate(65.945 16.318125) scale(0.12 -0.12)">
     <defs>
      <path id="DejaVuSans-52" d="M 2841 2188 
Q 3044 2119 3236 1894 
Q 3428 1669 3622 1275 
L 4263 0 
L 3584 0 
L 2988 1197 
Q 2756 1666 2539 1819 
Q 2322 1972 1947 1972 
L 1259 1972 
L 1259 0 
L 628 0 
L 628 4666 
L 2053 4666 
Q 2853 4666 3247 4331 
Q 3641 3997 3641 3322 
Q 3641 2881 3436 2590 
Q 3231 2300 2841 2188 
z
M 1259 4147 
L 1259 2491 
L 2053 2491 
Q 2509 2491 2742 2702 
Q 2975 2913 2975 3322 
Q 2975 3731 2742 3939 
Q 2509 4147 2053 4147 
L 1259 4147 
z
" transform="scale(0.015625)"/>
      <path id="DejaVuSans-64" d="M 2906 2969 
L 2906 4863 
L 3481 4863 
L 3481 0 
L 2906 0 
L 2906 525 
Q 2725 213 2448 61 
Q 2172 -91 1784 -91 
Q 1150 -91 751 415 
Q 353 922 353 1747 
Q 353 2572 751 3078 
Q 1150 3584 1784 3584 
Q 2172 3584 2448 3432 
Q 2725 3281 2906 2969 
z
M 947 1747 
Q 947 1113 1208 752 
Q 1469 391 1925 391 
Q 2381 391 2643 752 
Q 2906 1113 2906 1747 
Q 2906 2381 2643 2742 
Q 2381 3103 1925 3103 
Q 1469 3103 1208 2742 
Q 947 2381 947 1747 
z
" transform="scale(0.015625)"/>
      <path id="DejaVuSans-69" d="M 603 3500 
L 1178 3500 
L 1178 0 
L 603 0 
L 603 3500 
z
M 603 4863 
L 1178 4863 
L 1178 4134 
L 603 4134 
L 603 4863 
z
" transform="scale(0.015625)"/>
      <path id="DejaVuSans-6f" d="M 1959 3097 
Q 1497 3097 1228 2736 
Q 959 2375 959 1747 
Q 959 1119 1226 758 
Q 1494 397 1959 397 
Q 2419 397 2687 759 
Q 2956 1122 2956 1747 
Q 2956 2369 2687 2733 
Q 2419 3097 1959 3097 
z
M 1959 3584 
Q 2709 3584 3137 3096 
Q 3566 2609 3566 1747 
Q 3566 888 3137 398 
Q 2709 -91 1959 -91 
Q 1206 -91 779 398 
Q 353 888 353 1747 
Q 353 2609 779 3096 
Q 1206 3584 1959 3584 
z
" transform="scale(0.015625)"/>
      <path id="DejaVuSans-6e" d="M 3513 2113 
L 3513 0 
L 2938 0 
L 2938 2094 
Q 2938 2591 2744 2837 
Q 2550 3084 2163 3084 
Q 1697 3084 1428 2787 
Q 1159 2491 1159 1978 
L 1159 0 
L 581 0 
L 581 3500 
L 1159 3500 
L 1159 2956 
Q 1366 3272 1645 3428 
Q 1925 3584 2291 3584 
Q 2894 3584 3203 3211 
Q 3513 2838 3513 2113 
z
" transform="scale(0.015625)"/>
      <path id="DejaVuSans-20" transform="scale(0.015625)"/>
      <path id="DejaVuSans-43" d="M 4122 4306 
L 4122 3641 
Q 3803 3938 3442 4084 
Q 3081 4231 2675 4231 
Q 1875 4231 1450 3742 
Q 1025 3253 1025 2328 
Q 1025 1406 1450 917 
Q 1875 428 2675 428 
Q 3081 428 3442 575 
Q 3803 722 4122 1019 
L 4122 359 
Q 3791 134 3420 21 
Q 3050 -91 2638 -91 
Q 1578 -91 968 557 
Q 359 1206 359 2328 
Q 359 3453 968 4101 
Q 1578 4750 2638 4750 
Q 3056 4750 3426 4639 
Q 3797 4528 4122 4306 
z
" transform="scale(0.015625)"/>
      <path id="DejaVuSans-6d" d="M 3328 2828 
Q 3544 3216 3844 3400 
Q 4144 3584 4550 3584 
Q 5097 3584 5394 3201 
Q 5691 2819 5691 2113 
L 5691 0 
L 5113 0 
L 5113 2094 
Q 5113 2597 4934 2840 
Q 4756 3084 4391 3084 
Q 3944 3084 3684 2787 
Q 3425 2491 3425 1978 
L 3425 0 
L 2847 0 
L 2847 2094 
Q 2847 2600 2669 2842 
Q 2491 3084 2119 3084 
Q 1678 3084 1418 2786 
Q 1159 2488 1159 1978 
L 1159 0 
L 581 0 
L 581 3500 
L 1159 3500 
L 1159 2956 
Q 1356 3278 1631 3431 
Q 1906 3584 2284 3584 
Q 2666 3584 2933 3390 
Q 3200 3197 3328 2828 
z
" transform="scale(0.015625)"/>
      <path id="DejaVuSans-70" d="M 1159 525 
L 1159 -1331 
L 581 -1331 
L 581 3500 
L 1159 3500 
L 1159 2969 
Q 1341 3281 1617 3432 
Q 1894 3584 2278 3584 
Q 2916 3584 3314 3078 
Q 3713 2572 3713 1747 
Q 3713 922 3314 415 
Q 2916 -91 2278 -91 
Q 1894 -91 1617 61 
Q 1341 213 1159 525 
z
M 3116 1747 
Q 3116 2381 2855 2742 
Q 2594 3103 2138 3103 
Q 1681 3103 1420 2742 
Q 1159 2381 1159 1747 
Q 1159 1113 1420 752 
Q 1681 391 2138 391 
Q 2594 391 2855 752 
Q 3116 1113 3116 1747 
z
" transform="scale(0.015625)"/>
      <path id="DejaVuSans-72" d="M 2631 2963 
Q 2534 3019 2420 3045 
Q 2306 3072 2169 3072 
Q 1681 3072 1420 2755 
Q 1159 2438 1159 1844 
L 1159 0 
L 581 0 
L 581 3500 
L 1159 3500 
L 1159 2956 
Q 1341 3275 1631 3429 
Q 1922 3584 2338 3584 
Q 2397 3584 2469 3576 
Q 2541 3569 2628 3553 
L 2631 2963 
z
" transform="scale(0.015625)"/>
      <path id="DejaVuSans-73" d="M 2834 3397 
L 2834 2853 
Q 2591 2978 2328 3040 
Q 2066 3103 1784 3103 
Q 1356 3103 1142 2972 
Q 928 2841 928 2578 
Q 928 2378 1081 2264 
Q 1234 2150 1697 2047 
L 1894 2003 
Q 2506 1872 2764 1633 
Q 3022 1394 3022 966 
Q 3022 478 2636 193 
Q 2250 -91 1575 -91 
Q 1294 -91 989 -36 
Q 684 19 347 128 
L 347 722 
Q 666 556 975 473 
Q 1284 391 1588 391 
Q 1994 391 2212 530 
Q 2431 669 2431 922 
Q 2431 1156 2273 1281 
Q 2116 1406 1581 1522 
L 1381 1569 
Q 847 1681 609 1914 
Q 372 2147 372 2553 
Q 372 3047 722 3315 
Q 1072 3584 1716 3584 
Q 2034 3584 2315 3537 
Q 2597 3491 2834 3397 
z
" transform="scale(0.015625)"/>
      <path id="DejaVuSans-66" d="M 2375 4863 
L 2375 4384 
L 1825 4384 
Q 1516 4384 1395 4259 
Q 1275 4134 1275 3809 
L 1275 3500 
L 2222 3500 
L 2222 3053 
L 1275 3053 
L 1275 0 
L 697 0 
L 697 3053 
L 147 3053 
L 147 3500 
L 697 3500 
L 697 3744 
Q 697 4328 969 4595 
Q 1241 4863 1831 4863 
L 2375 4863 
z
" transform="scale(0.015625)"/>
      <path id="DejaVuSans-77" d="M 269 3500 
L 844 3500 
L 1563 769 
L 2278 3500 
L 2956 3500 
L 3675 769 
L 4391 3500 
L 4966 3500 
L 4050 0 
L 3372 0 
L 2619 2869 
L 1863 0 
L 1184 0 
L 269 3500 
z
" transform="scale(0.015625)"/>
      <path id="DejaVuSans-2f" d="M 1625 4666 
L 2156 4666 
L 531 -594 
L 0 -594 
L 1625 4666 
z
" transform="scale(0.015625)"/>
      <path id="DejaVuSans-48" d="M 628 4666 
L 1259 4666 
L 1259 2753 
L 3553 2753 
L 3553 4666 
L 4184 4666 
L 4184 0 
L 3553 0 
L 3553 2222 
L 1259 2222 
L 1259 0 
L 628 0 
L 628 4666 
z
" transform="scale(0.015625)"/>
      <path id="DejaVuSans-2d" d="M 313 2009 
L 1997 2009 
L 1997 1497 
L 313 1497 
L 313 2009 
z
" transform="scale(0.015625)"/>
      <path id="DejaVuSans-6c" d="M 603 4863 
L 1178 4863 
L 1178 0 
L 603 0 
L 603 4863 
z
" transform="scale(0.015625)"/>
      <path id="DejaVuSans-50" d="M 1259 4147 
L 1259 2394 
L 2053 2394 
Q 2494 2394 2734 2622 
Q 2975 2850 2975 3272 
Q 2975 3691 2734 3919 
Q 2494 4147 2053 4147 
L 1259 4147 
z
M 628 4666 
L 2053 4666 
Q 2838 4666 3239 4311 
Q 3641 3956 3641 3272 
Q 3641 2581 3239 2228 
Q 2838 1875 2053 1875 
L 1259 1875 
L 1259 0 
L 628 0 
L 628 4666 
z
" transform="scale(0.015625)"/>
      <path id="DejaVuSans-3d" d="M 678 2906 
L 4684 2906 
L 4684 2381 
L 678 2381 
L 678 2906 
z
M 678 1631 
L 4684 1631 
L 4684 1100 
L 678 1100 
L 678 1631 
z
" transform="scale(0.015625)"/>
      <path id="DejaVuSans-39" d="M 703 97 
L 703 672 
Q 941 559 1184 500 
Q 1428 441 1663 441 
Q 2288 441 2617 861 
Q 2947 1281 2994 2138 
Q 2813 1869 2534 1725 
Q 2256 1581 1919 1581 
Q 1219 1581 811 2004 
Q 403 2428 403 3163 
Q 403 3881 828 4315 
Q 1253 4750 1959 4750 
Q 2769 4750 3195 4129 
Q 3622 3509 3622 2328 
Q 3622 1225 3098 567 
Q 2575 -91 1691 -91 
Q 1453 -91 1209 -44 
Q 966 3 703 97 
z
M 1959 2075 
Q 2384 2075 2632 2365 
Q 2881 2656 2881 3163 
Q 2881 3666 2632 3958 
Q 2384 4250 1959 4250 
Q 1534 4250 1286 3958 
Q 1038 3666 1038 3163 
Q 1038 2656 1286 2365 
Q 1534 2075 1959 2075 
z
" transform="scale(0.015625)"/>
      <path id="DejaVuSans-2e" d="M 684 794 
L 1344 794 
L 1344 0 
L 684 0 
L 684 794 
z
" transform="scale(0.015625)"/>
     </defs>
     <use xlink:href="#DejaVuSans-52"/>
     <use xlink:href="#DejaVuSans-61" x="67.232422"/>
     <use xlink:href="#DejaVuSans-64" x="128.511719"/>
     <use xlink:href="#DejaVuSans-69" x="191.988281"/>
     <use xlink:href="#DejaVuSans-61" x="219.771484"/>
     <use xlink:href="#DejaVuSans-74" x="281.050781"/>
     <use xlink:href="#DejaVuSans-69" x="320.259766"/>
     <use xlink:href="#DejaVuSans-6f" x="348.042969"/>
     <use xlink:href="#DejaVuSans-6e" x="409.224609"/>
     <use xlink:href="#DejaVuSans-20" x="472.603516"/>
     <use xlink:href="#DejaVuSans-43" x="504.390625"/>
     <use xlink:href="#DejaVuSans-6f" x="574.214844"/>
     <use xlink:href="#DejaVuSans-6d" x="635.396484"/>
     <use xlink:href="#DejaVuSans-70" x="732.808594"/>
     <use xlink:href="#DejaVuSans-61" x="796.285156"/>
     <use xlink:href="#DejaVuSans-72" x="857.564453"/>
     <use xlink:href="#DejaVuSans-69" x="898.677734"/>
     <use xlink:href="#DejaVuSans-73" x="926.460938"/>
     <use xlink:href="#DejaVuSans-6f" x="978.560547"/>
     <use xlink:href="#DejaVuSans-6e" x="1039.742188"/>
     <use xlink:href="#DejaVuSans-20" x="1103.121094"/>
     <use xlink:href="#DejaVuSans-6f" x="1134.908203"/>
     <use xlink:href="#DejaVuSans-66" x="1196.089844"/>
     <use xlink:href="#DejaVuSans-20" x="1231.294922"/>
     <use xlink:href="#DejaVuSans-74" x="1263.082031"/>
     <use xlink:href="#DejaVuSans-72" x="1302.291016"/>
     <use xlink:href="#DejaVuSans-61" x="1343.404297"/>
     <use xlink:href="#DejaVuSans-6e" x="1404.683594"/>
     <use xlink:href="#DejaVuSans-73" x="1468.0625"/>
     <use xlink:href="#DejaVuSans-66" x="1520.162109"/>
     <use xlink:href="#DejaVuSans-6f" x="1555.367188"/>
     <use xlink:href="#DejaVuSans-72" x="1616.548828"/>
     <use xlink:href="#DejaVuSans-6d" x="1655.912109"/>
     <use xlink:href="#DejaVuSans-20" x="1753.324219"/>
     <use xlink:href="#DejaVuSans-77" x="1785.111328"/>
     <use xlink:href="#DejaVuSans-2f" x="1866.898438"/>
     <use xlink:href="#DejaVuSans-6f" x="1900.589844"/>
     <use xlink:href="#DejaVuSans-20" x="1961.771484"/>
     <use xlink:href="#DejaVuSans-65" x="1993.558594"/>
     <use xlink:href="#DejaVuSans-72" x="2055.082031"/>
     <use xlink:href="#DejaVuSans-72" x="2094.445312"/>
     <use xlink:href="#DejaVuSans-6f" x="2133.308594"/>
     <use xlink:href="#DejaVuSans-72" x="2194.490234"/>
     <use xlink:href="#DejaVuSans-20" x="2235.603516"/>
     <use xlink:href="#DejaVuSans-48" x="2267.390625"/>
     <use xlink:href="#DejaVuSans-2d" x="2342.585938"/>
     <use xlink:href="#DejaVuSans-70" x="2378.669922"/>
     <use xlink:href="#DejaVuSans-6c" x="2442.146484"/>
     <use xlink:href="#DejaVuSans-61" x="2469.929688"/>
     <use xlink:href="#DejaVuSans-6e" x="2531.208984"/>
     <use xlink:href="#DejaVuSans-65" x="2594.587891"/>
     <use xlink:href="#DejaVuSans-20" x="2656.111328"/>
     <use xlink:href="#DejaVuSans-50" x="2687.898438"/>
     <use xlink:href="#DejaVuSans-68" x="2748.201172"/>
     <use xlink:href="#DejaVuSans-69" x="2811.580078"/>
     <use xlink:href="#DejaVuSans-20" x="2839.363281"/>
     <use xlink:href="#DejaVuSans-3d" x="2871.150391"/>
     <use xlink:href="#DejaVuSans-20" x="2954.939453"/>
     <use xlink:href="#DejaVuSans-39" x="2986.726562"/>
     <use xlink:href="#DejaVuSans-30" x="3050.349609"/>
     <use xlink:href="#DejaVuSans-2e" x="3113.972656"/>
     <use xlink:href="#DejaVuSans-30" x="3145.759766"/>
    </g>
   </g>
   <g id="legend_1">
    <g id="patch_7">
     <path d="M 299.739062 59.674375 
L 474.704687 59.674375 
Q 476.704687 59.674375 476.704687 57.674375 
L 476.704687 29.318125 
Q 476.704687 27.318125 474.704687 27.318125 
L 299.739062 27.318125 
Q 297.739062 27.318125 297.739062 29.318125 
L 297.739062 57.674375 
Q 297.739062 59.674375 299.739062 59.674375 
z
" style="fill: #ffffff; opacity: 0.8; stroke: #cccccc; stroke-linejoin: miter"/>
    </g>
    <g id="line2d_27">
     <path d="M 301.739062 35.416562 
L 311.739062 35.416562 
L 321.739062 35.416562 
" style="fill: none; stroke: #1f77b4; stroke-opacity: 0.7; stroke-width: 1.5; stroke-linecap: square"/>
    </g>
    <g id="text_15">
     <!-- Radiation plot without errors -->
     <g transform="translate(329.739062 38.916562) scale(0.1 -0.1)">
      <defs>
       <path id="DejaVuSans-75" d="M 544 1381 
L 544 3500 
L 1119 3500 
L 1119 1403 
Q 1119 906 1312 657 
Q 1506 409 1894 409 
Q 2359 409 2629 706 
Q 2900 1003 2900 1516 
L 2900 3500 
L 3475 3500 
L 3475 0 
L 2900 0 
L 2900 538 
Q 2691 219 2414 64 
Q 2138 -91 1772 -91 
Q 1169 -91 856 284 
Q 544 659 544 1381 
z
M 1991 3584 
L 1991 3584 
z
" transform="scale(0.015625)"/>
      </defs>
      <use xlink:href="#DejaVuSans-52"/>
      <use xlink:href="#DejaVuSans-61" x="67.232422"/>
      <use xlink:href="#DejaVuSans-64" x="128.511719"/>
      <use xlink:href="#DejaVuSans-69" x="191.988281"/>
      <use xlink:href="#DejaVuSans-61" x="219.771484"/>
      <use xlink:href="#DejaVuSans-74" x="281.050781"/>
      <use xlink:href="#DejaVuSans-69" x="320.259766"/>
      <use xlink:href="#DejaVuSans-6f" x="348.042969"/>
      <use xlink:href="#DejaVuSans-6e" x="409.224609"/>
      <use xlink:href="#DejaVuSans-20" x="472.603516"/>
      <use xlink:href="#DejaVuSans-70" x="504.390625"/>
      <use xlink:href="#DejaVuSans-6c" x="567.867188"/>
      <use xlink:href="#DejaVuSans-6f" x="595.650391"/>
      <use xlink:href="#DejaVuSans-74" x="656.832031"/>
      <use xlink:href="#DejaVuSans-20" x="696.041016"/>
      <use xlink:href="#DejaVuSans-77" x="727.828125"/>
      <use xlink:href="#DejaVuSans-69" x="809.615234"/>
      <use xlink:href="#DejaVuSans-74" x="837.398438"/>
      <use xlink:href="#DejaVuSans-68" x="876.607422"/>
      <use xlink:href="#DejaVuSans-6f" x="939.986328"/>
      <use xlink:href="#DejaVuSans-75" x="1001.167969"/>
      <use xlink:href="#DejaVuSans-74" x="1064.546875"/>
      <use xlink:href="#DejaVuSans-20" x="1103.755859"/>
      <use xlink:href="#DejaVuSans-65" x="1135.542969"/>
      <use xlink:href="#DejaVuSans-72" x="1197.066406"/>
      <use xlink:href="#DejaVuSans-72" x="1236.429688"/>
      <use xlink:href="#DejaVuSans-6f" x="1275.292969"/>
      <use xlink:href="#DejaVuSans-72" x="1336.474609"/>
      <use xlink:href="#DejaVuSans-73" x="1377.587891"/>
     </g>
    </g>
    <g id="line2d_28">
     <path d="M 301.739062 50.094687 
L 311.739062 50.094687 
L 321.739062 50.094687 
" style="fill: none; stroke: #ff7f0e; stroke-opacity: 0.7; stroke-width: 1.5; stroke-linecap: square"/>
    </g>
    <g id="text_16">
     <!-- Radiation plot with errors -->
     <g transform="translate(329.739062 53.594687) scale(0.1 -0.1)">
      <use xlink:href="#DejaVuSans-52"/>
      <use xlink:href="#DejaVuSans-61" x="67.232422"/>
      <use xlink:href="#DejaVuSans-64" x="128.511719"/>
      <use xlink:href="#DejaVuSans-69" x="191.988281"/>
      <use xlink:href="#DejaVuSans-61" x="219.771484"/>
      <use xlink:href="#DejaVuSans-74" x="281.050781"/>
      <use xlink:href="#DejaVuSans-69" x="320.259766"/>
      <use xlink:href="#DejaVuSans-6f" x="348.042969"/>
      <use xlink:href="#DejaVuSans-6e" x="409.224609"/>
      <use xlink:href="#DejaVuSans-20" x="472.603516"/>
      <use xlink:href="#DejaVuSans-70" x="504.390625"/>
      <use xlink:href="#DejaVuSans-6c" x="567.867188"/>
      <use xlink:href="#DejaVuSans-6f" x="595.650391"/>
      <use xlink:href="#DejaVuSans-74" x="656.832031"/>
      <use xlink:href="#DejaVuSans-20" x="696.041016"/>
      <use xlink:href="#DejaVuSans-77" x="727.828125"/>
      <use xlink:href="#DejaVuSans-69" x="809.615234"/>
      <use xlink:href="#DejaVuSans-74" x="837.398438"/>
      <use xlink:href="#DejaVuSans-68" x="876.607422"/>
      <use xlink:href="#DejaVuSans-20" x="939.986328"/>
      <use xlink:href="#DejaVuSans-65" x="971.773438"/>
      <use xlink:href="#DejaVuSans-72" x="1033.296875"/>
      <use xlink:href="#DejaVuSans-72" x="1072.660156"/>
      <use xlink:href="#DejaVuSans-6f" x="1111.523438"/>
      <use xlink:href="#DejaVuSans-72" x="1172.705078"/>
      <use xlink:href="#DejaVuSans-73" x="1213.818359"/>
     </g>
    </g>
   </g>
  </g>
  <g id="axes_2">
   <g id="patch_8">
    <path d="M 35.304688 576.718125 
L 481.704687 576.718125 
L 481.704687 324.718125 
L 35.304688 324.718125 
z
" style="fill: #ffffff"/>
   </g>
   <g id="matplotlib.axis_3">
    <g id="xtick_6">
     <g id="line2d_29">
      <path d="M 102.420771 576.718125 
L 102.420771 324.718125 
" clip-path="url(#p8981778d2d)" style="fill: none; stroke: #b0b0b0; stroke-width: 0.8; stroke-linecap: square"/>
     </g>
     <g id="line2d_30">
      <g>
       <use xlink:href="#m7caf4d9804" x="102.420771" y="576.718125" style="stroke: #000000; stroke-width: 0.8"/>
      </g>
     </g>
     <g id="text_17">
      <!-- −100 -->
      <g transform="translate(88.687178 591.316562) scale(0.1 -0.1)">
       <use xlink:href="#DejaVuSans-2212"/>
       <use xlink:href="#DejaVuSans-31" x="83.789062"/>
       <use xlink:href="#DejaVuSans-30" x="147.412109"/>
       <use xlink:href="#DejaVuSans-30" x="211.035156"/>
      </g>
     </g>
    </g>
    <g id="xtick_7">
     <g id="line2d_31">
      <path d="M 180.462729 576.718125 
L 180.462729 324.718125 
" clip-path="url(#p8981778d2d)" style="fill: none; stroke: #b0b0b0; stroke-width: 0.8; stroke-linecap: square"/>
     </g>
     <g id="line2d_32">
      <g>
       <use xlink:href="#m7caf4d9804" x="180.462729" y="576.718125" style="stroke: #000000; stroke-width: 0.8"/>
      </g>
     </g>
     <g id="text_18">
      <!-- −50 -->
      <g transform="translate(169.910386 591.316562) scale(0.1 -0.1)">
       <use xlink:href="#DejaVuSans-2212"/>
       <use xlink:href="#DejaVuSans-35" x="83.789062"/>
       <use xlink:href="#DejaVuSans-30" x="147.412109"/>
      </g>
     </g>
    </g>
    <g id="xtick_8">
     <g id="line2d_33">
      <path d="M 258.504687 576.718125 
L 258.504687 324.718125 
" clip-path="url(#p8981778d2d)" style="fill: none; stroke: #b0b0b0; stroke-width: 0.8; stroke-linecap: square"/>
     </g>
     <g id="line2d_34">
      <g>
       <use xlink:href="#m7caf4d9804" x="258.504687" y="576.718125" style="stroke: #000000; stroke-width: 0.8"/>
      </g>
     </g>
     <g id="text_19">
      <!-- 0 -->
      <g transform="translate(255.323437 591.316562) scale(0.1 -0.1)">
       <use xlink:href="#DejaVuSans-30"/>
      </g>
     </g>
    </g>
    <g id="xtick_9">
     <g id="line2d_35">
      <path d="M 336.546646 576.718125 
L 336.546646 324.718125 
" clip-path="url(#p8981778d2d)" style="fill: none; stroke: #b0b0b0; stroke-width: 0.8; stroke-linecap: square"/>
     </g>
     <g id="line2d_36">
      <g>
       <use xlink:href="#m7caf4d9804" x="336.546646" y="576.718125" style="stroke: #000000; stroke-width: 0.8"/>
      </g>
     </g>
     <g id="text_20">
      <!-- 50 -->
      <g transform="translate(330.184146 591.316562) scale(0.1 -0.1)">
       <use xlink:href="#DejaVuSans-35"/>
       <use xlink:href="#DejaVuSans-30" x="63.623047"/>
      </g>
     </g>
    </g>
    <g id="xtick_10">
     <g id="line2d_37">
      <path d="M 414.588604 576.718125 
L 414.588604 324.718125 
" clip-path="url(#p8981778d2d)" style="fill: none; stroke: #b0b0b0; stroke-width: 0.8; stroke-linecap: square"/>
     </g>
     <g id="line2d_38">
      <g>
       <use xlink:href="#m7caf4d9804" x="414.588604" y="576.718125" style="stroke: #000000; stroke-width: 0.8"/>
      </g>
     </g>
     <g id="text_21">
      <!-- 100 -->
      <g transform="translate(405.044854 591.316562) scale(0.1 -0.1)">
       <use xlink:href="#DejaVuSans-31"/>
       <use xlink:href="#DejaVuSans-30" x="63.623047"/>
       <use xlink:href="#DejaVuSans-30" x="127.246094"/>
      </g>
     </g>
    </g>
    <g id="text_22">
     <!-- Theta -->
     <g transform="translate(244.18125 604.994687) scale(0.1 -0.1)">
      <use xlink:href="#DejaVuSans-54"/>
      <use xlink:href="#DejaVuSans-68" x="61.083984"/>
      <use xlink:href="#DejaVuSans-65" x="124.462891"/>
      <use xlink:href="#DejaVuSans-74" x="185.986328"/>
      <use xlink:href="#DejaVuSans-61" x="225.195312"/>
     </g>
    </g>
   </g>
   <g id="matplotlib.axis_4">
    <g id="ytick_8">
     <g id="line2d_39">
      <path d="M 35.304688 555.474822 
L 481.704687 555.474822 
" clip-path="url(#p8981778d2d)" style="fill: none; stroke: #b0b0b0; stroke-width: 0.8; stroke-linecap: square"/>
     </g>
     <g id="line2d_40">
      <g>
       <use xlink:href="#m0e1ff05225" x="35.304688" y="555.474822" style="stroke: #000000; stroke-width: 0.8"/>
      </g>
     </g>
     <g id="text_23">
      <!-- −25 -->
      <g transform="translate(7.2 559.27404) scale(0.1 -0.1)">
       <use xlink:href="#DejaVuSans-2212"/>
       <use xlink:href="#DejaVuSans-32" x="83.789062"/>
       <use xlink:href="#DejaVuSans-35" x="147.412109"/>
      </g>
     </g>
    </g>
    <g id="ytick_9">
     <g id="line2d_41">
      <path d="M 35.304688 511.614391 
L 481.704687 511.614391 
" clip-path="url(#p8981778d2d)" style="fill: none; stroke: #b0b0b0; stroke-width: 0.8; stroke-linecap: square"/>
     </g>
     <g id="line2d_42">
      <g>
       <use xlink:href="#m0e1ff05225" x="35.304688" y="511.614391" style="stroke: #000000; stroke-width: 0.8"/>
      </g>
     </g>
     <g id="text_24">
      <!-- −20 -->
      <g transform="translate(7.2 515.41361) scale(0.1 -0.1)">
       <use xlink:href="#DejaVuSans-2212"/>
       <use xlink:href="#DejaVuSans-32" x="83.789062"/>
       <use xlink:href="#DejaVuSans-30" x="147.412109"/>
      </g>
     </g>
    </g>
    <g id="ytick_10">
     <g id="line2d_43">
      <path d="M 35.304688 467.753961 
L 481.704687 467.753961 
" clip-path="url(#p8981778d2d)" style="fill: none; stroke: #b0b0b0; stroke-width: 0.8; stroke-linecap: square"/>
     </g>
     <g id="line2d_44">
      <g>
       <use xlink:href="#m0e1ff05225" x="35.304688" y="467.753961" style="stroke: #000000; stroke-width: 0.8"/>
      </g>
     </g>
     <g id="text_25">
      <!-- −15 -->
      <g transform="translate(7.2 471.55318) scale(0.1 -0.1)">
       <use xlink:href="#DejaVuSans-2212"/>
       <use xlink:href="#DejaVuSans-31" x="83.789062"/>
       <use xlink:href="#DejaVuSans-35" x="147.412109"/>
      </g>
     </g>
    </g>
    <g id="ytick_11">
     <g id="line2d_45">
      <path d="M 35.304688 423.893531 
L 481.704687 423.893531 
" clip-path="url(#p8981778d2d)" style="fill: none; stroke: #b0b0b0; stroke-width: 0.8; stroke-linecap: square"/>
     </g>
     <g id="line2d_46">
      <g>
       <use xlink:href="#m0e1ff05225" x="35.304688" y="423.893531" style="stroke: #000000; stroke-width: 0.8"/>
      </g>
     </g>
     <g id="text_26">
      <!-- −10 -->
      <g transform="translate(7.2 427.69275) scale(0.1 -0.1)">
       <use xlink:href="#DejaVuSans-2212"/>
       <use xlink:href="#DejaVuSans-31" x="83.789062"/>
       <use xlink:href="#DejaVuSans-30" x="147.412109"/>
      </g>
     </g>
    </g>
    <g id="ytick_12">
     <g id="line2d_47">
      <path d="M 35.304688 380.033101 
L 481.704687 380.033101 
" clip-path="url(#p8981778d2d)" style="fill: none; stroke: #b0b0b0; stroke-width: 0.8; stroke-linecap: square"/>
     </g>
     <g id="line2d_48">
      <g>
       <use xlink:href="#m0e1ff05225" x="35.304688" y="380.033101" style="stroke: #000000; stroke-width: 0.8"/>
      </g>
     </g>
     <g id="text_27">
      <!-- −5 -->
      <g transform="translate(13.5625 383.832319) scale(0.1 -0.1)">
       <use xlink:href="#DejaVuSans-2212"/>
       <use xlink:href="#DejaVuSans-35" x="83.789062"/>
      </g>
     </g>
    </g>
    <g id="ytick_13">
     <g id="line2d_49">
      <path d="M 35.304688 336.17267 
L 481.704687 336.17267 
" clip-path="url(#p8981778d2d)" style="fill: none; stroke: #b0b0b0; stroke-width: 0.8; stroke-linecap: square"/>
     </g>
     <g id="line2d_50">
      <g>
       <use xlink:href="#m0e1ff05225" x="35.304688" y="336.17267" style="stroke: #000000; stroke-width: 0.8"/>
      </g>
     </g>
     <g id="text_28">
      <!-- 0 -->
      <g transform="translate(21.942187 339.971889) scale(0.1 -0.1)">
       <use xlink:href="#DejaVuSans-30"/>
      </g>
     </g>
    </g>
   </g>
   <g id="line2d_51">
    <path d="M 55.595597 473.699693 
L 63.399792 471.139794 
L 71.203988 487.951771 
L 79.008184 528.468354 
L 86.81238 557.336773 
L 94.616576 532.937711 
L 102.420771 514.573807 
L 110.224967 529.352208 
L 118.029163 557.708321 
L 125.833359 544.232564 
L 133.637555 528.639856 
L 141.44175 524.199476 
L 149.245946 523.39578 
L 157.050142 521.721529 
L 164.854338 528.768799 
L 172.658534 550.39203 
L 180.462729 563.676151 
L 188.266925 521.372084 
L 196.071121 479.191483 
L 203.875317 456.623115 
L 211.679513 456.662058 
L 219.483708 488.884498 
L 227.287904 481.857714 
L 235.0921 408.838429 
L 242.896296 366.752806 
L 250.700492 344.425993 
L 258.504687 336.17267 
L 266.308883 344.25946 
L 274.113079 365.351545 
L 281.917275 406.181092 
L 289.721471 479.177664 
L 297.525667 492.307884 
L 305.329862 457.993677 
L 313.134058 457.512999 
L 320.938254 477.728788 
L 328.74245 519.538836 
L 336.546646 565.26358 
L 344.350841 550.459846 
L 352.155037 528.630688 
L 359.959233 521.657085 
L 367.763429 523.386152 
L 375.567625 524.573751 
L 383.37182 526.491628 
L 391.176016 541.973292 
L 398.980212 560.025756 
L 406.784408 532.732849 
L 414.588604 514.529522 
L 422.392799 529.282701 
L 430.196995 555.778782 
L 438.001191 533.479567 
L 445.805387 490.142139 
L 453.609583 472.131529 
L 461.413778 472.390316 
" clip-path="url(#p8981778d2d)" style="fill: none; stroke: #1f77b4; stroke-opacity: 0.7; stroke-width: 1.5; stroke-linecap: square"/>
   </g>
   <g id="line2d_52">
    <path d="M 55.595597 473.699694 
L 63.399792 471.139796 
L 71.203988 487.951769 
L 79.008184 528.468355 
L 86.81238 557.336771 
L 94.616576 532.937711 
L 102.420771 514.573803 
L 110.224967 529.352206 
L 118.029163 557.70832 
L 125.833359 544.232564 
L 133.637555 528.639858 
L 141.44175 524.199474 
L 149.245946 523.39578 
L 157.050142 521.72153 
L 164.854338 528.768803 
L 172.658534 550.392025 
L 180.462729 563.676143 
L 188.266925 521.372085 
L 196.071121 479.191483 
L 203.875317 456.623112 
L 211.679513 456.662053 
L 219.483708 488.884504 
L 227.287904 481.857717 
L 235.0921 408.838429 
L 242.896296 366.752804 
L 250.700492 344.425992 
L 258.504687 336.17267 
L 266.308883 344.25946 
L 274.113079 365.351544 
L 281.917275 406.181091 
L 289.721471 479.177655 
L 297.525667 492.30789 
L 305.329862 457.993672 
L 313.134058 457.512993 
L 320.938254 477.728787 
L 328.74245 519.538838 
L 336.546646 565.263576 
L 344.350841 550.459846 
L 352.155037 528.63069 
L 359.959233 521.657091 
L 367.763429 523.386149 
L 375.567625 524.573749 
L 383.37182 526.491629 
L 391.176016 541.973295 
L 398.980212 560.025751 
L 406.784408 532.732846 
L 414.588604 514.529523 
L 422.392799 529.282698 
L 430.196995 555.778781 
L 438.001191 533.479568 
L 445.805387 490.14214 
L 453.609583 472.13153 
L 461.413778 472.390316 
" clip-path="url(#p8981778d2d)" style="fill: none; stroke: #ff7f0e; stroke-opacity: 0.7; stroke-width: 1.5; stroke-linecap: square"/>
   </g>
   <g id="patch_9">
    <path d="M 35.304688 576.718125 
L 35.304688 324.718125 
" style="fill: none; stroke: #000000; stroke-width: 0.8; stroke-linejoin: miter; stroke-linecap: square"/>
   </g>
   <g id="patch_10">
    <path d="M 481.704687 576.718125 
L 481.704687 324.718125 
" style="fill: none; stroke: #000000; stroke-width: 0.8; stroke-linejoin: miter; stroke-linecap: square"/>
   </g>
   <g id="patch_11">
    <path d="M 35.304688 576.718125 
L 481.704687 576.718125 
" style="fill: none; stroke: #000000; stroke-width: 0.8; stroke-linejoin: miter; stroke-linecap: square"/>
   </g>
   <g id="patch_12">
    <path d="M 35.304688 324.718125 
L 481.704687 324.718125 
" style="fill: none; stroke: #000000; stroke-width: 0.8; stroke-linejoin: miter; stroke-linecap: square"/>
   </g>
   <g id="text_29">
    <!-- Radiation Comparison of transform w/o error E-plane Phi = 0.0 -->
    <g transform="translate(70.483438 318.718125) scale(0.12 -0.12)">
     <defs>
      <path id="DejaVuSans-45" d="M 628 4666 
L 3578 4666 
L 3578 4134 
L 1259 4134 
L 1259 2753 
L 3481 2753 
L 3481 2222 
L 1259 2222 
L 1259 531 
L 3634 531 
L 3634 0 
L 628 0 
L 628 4666 
z
" transform="scale(0.015625)"/>
     </defs>
     <use xlink:href="#DejaVuSans-52"/>
     <use xlink:href="#DejaVuSans-61" x="67.232422"/>
     <use xlink:href="#DejaVuSans-64" x="128.511719"/>
     <use xlink:href="#DejaVuSans-69" x="191.988281"/>
     <use xlink:href="#DejaVuSans-61" x="219.771484"/>
     <use xlink:href="#DejaVuSans-74" x="281.050781"/>
     <use xlink:href="#DejaVuSans-69" x="320.259766"/>
     <use xlink:href="#DejaVuSans-6f" x="348.042969"/>
     <use xlink:href="#DejaVuSans-6e" x="409.224609"/>
     <use xlink:href="#DejaVuSans-20" x="472.603516"/>
     <use xlink:href="#DejaVuSans-43" x="504.390625"/>
     <use xlink:href="#DejaVuSans-6f" x="574.214844"/>
     <use xlink:href="#DejaVuSans-6d" x="635.396484"/>
     <use xlink:href="#DejaVuSans-70" x="732.808594"/>
     <use xlink:href="#DejaVuSans-61" x="796.285156"/>
     <use xlink:href="#DejaVuSans-72" x="857.564453"/>
     <use xlink:href="#DejaVuSans-69" x="898.677734"/>
     <use xlink:href="#DejaVuSans-73" x="926.460938"/>
     <use xlink:href="#DejaVuSans-6f" x="978.560547"/>
     <use xlink:href="#DejaVuSans-6e" x="1039.742188"/>
     <use xlink:href="#DejaVuSans-20" x="1103.121094"/>
     <use xlink:href="#DejaVuSans-6f" x="1134.908203"/>
     <use xlink:href="#DejaVuSans-66" x="1196.089844"/>
     <use xlink:href="#DejaVuSans-20" x="1231.294922"/>
     <use xlink:href="#DejaVuSans-74" x="1263.082031"/>
     <use xlink:href="#DejaVuSans-72" x="1302.291016"/>
     <use xlink:href="#DejaVuSans-61" x="1343.404297"/>
     <use xlink:href="#DejaVuSans-6e" x="1404.683594"/>
     <use xlink:href="#DejaVuSans-73" x="1468.0625"/>
     <use xlink:href="#DejaVuSans-66" x="1520.162109"/>
     <use xlink:href="#DejaVuSans-6f" x="1555.367188"/>
     <use xlink:href="#DejaVuSans-72" x="1616.548828"/>
     <use xlink:href="#DejaVuSans-6d" x="1655.912109"/>
     <use xlink:href="#DejaVuSans-20" x="1753.324219"/>
     <use xlink:href="#DejaVuSans-77" x="1785.111328"/>
     <use xlink:href="#DejaVuSans-2f" x="1866.898438"/>
     <use xlink:href="#DejaVuSans-6f" x="1900.589844"/>
     <use xlink:href="#DejaVuSans-20" x="1961.771484"/>
     <use xlink:href="#DejaVuSans-65" x="1993.558594"/>
     <use xlink:href="#DejaVuSans-72" x="2055.082031"/>
     <use xlink:href="#DejaVuSans-72" x="2094.445312"/>
     <use xlink:href="#DejaVuSans-6f" x="2133.308594"/>
     <use xlink:href="#DejaVuSans-72" x="2194.490234"/>
     <use xlink:href="#DejaVuSans-20" x="2235.603516"/>
     <use xlink:href="#DejaVuSans-45" x="2267.390625"/>
     <use xlink:href="#DejaVuSans-2d" x="2330.574219"/>
     <use xlink:href="#DejaVuSans-70" x="2366.658203"/>
     <use xlink:href="#DejaVuSans-6c" x="2430.134766"/>
     <use xlink:href="#DejaVuSans-61" x="2457.917969"/>
     <use xlink:href="#DejaVuSans-6e" x="2519.197266"/>
     <use xlink:href="#DejaVuSans-65" x="2582.576172"/>
     <use xlink:href="#DejaVuSans-20" x="2644.099609"/>
     <use xlink:href="#DejaVuSans-50" x="2675.886719"/>
     <use xlink:href="#DejaVuSans-68" x="2736.189453"/>
     <use xlink:href="#DejaVuSans-69" x="2799.568359"/>
     <use xlink:href="#DejaVuSans-20" x="2827.351562"/>
     <use xlink:href="#DejaVuSans-3d" x="2859.138672"/>
     <use xlink:href="#DejaVuSans-20" x="2942.927734"/>
     <use xlink:href="#DejaVuSans-30" x="2974.714844"/>
     <use xlink:href="#DejaVuSans-2e" x="3038.337891"/>
     <use xlink:href="#DejaVuSans-30" x="3070.125"/>
    </g>
   </g>
   <g id="legend_2">
    <g id="patch_13">
     <path d="M 299.739062 362.074375 
L 474.704687 362.074375 
Q 476.704687 362.074375 476.704687 360.074375 
L 476.704687 331.718125 
Q 476.704687 329.718125 474.704687 329.718125 
L 299.739062 329.718125 
Q 297.739062 329.718125 297.739062 331.718125 
L 297.739062 360.074375 
Q 297.739062 362.074375 299.739062 362.074375 
z
" style="fill: #ffffff; opacity: 0.8; stroke: #cccccc; stroke-linejoin: miter"/>
    </g>
    <g id="line2d_53">
     <path d="M 301.739062 337.816563 
L 311.739062 337.816563 
L 321.739062 337.816563 
" style="fill: none; stroke: #1f77b4; stroke-opacity: 0.7; stroke-width: 1.5; stroke-linecap: square"/>
    </g>
    <g id="text_30">
     <!-- Radiation plot without errors -->
     <g transform="translate(329.739062 341.316563) scale(0.1 -0.1)">
      <use xlink:href="#DejaVuSans-52"/>
      <use xlink:href="#DejaVuSans-61" x="67.232422"/>
      <use xlink:href="#DejaVuSans-64" x="128.511719"/>
      <use xlink:href="#DejaVuSans-69" x="191.988281"/>
      <use xlink:href="#DejaVuSans-61" x="219.771484"/>
      <use xlink:href="#DejaVuSans-74" x="281.050781"/>
      <use xlink:href="#DejaVuSans-69" x="320.259766"/>
      <use xlink:href="#DejaVuSans-6f" x="348.042969"/>
      <use xlink:href="#DejaVuSans-6e" x="409.224609"/>
      <use xlink:href="#DejaVuSans-20" x="472.603516"/>
      <use xlink:href="#DejaVuSans-70" x="504.390625"/>
      <use xlink:href="#DejaVuSans-6c" x="567.867188"/>
      <use xlink:href="#DejaVuSans-6f" x="595.650391"/>
      <use xlink:href="#DejaVuSans-74" x="656.832031"/>
      <use xlink:href="#DejaVuSans-20" x="696.041016"/>
      <use xlink:href="#DejaVuSans-77" x="727.828125"/>
      <use xlink:href="#DejaVuSans-69" x="809.615234"/>
      <use xlink:href="#DejaVuSans-74" x="837.398438"/>
      <use xlink:href="#DejaVuSans-68" x="876.607422"/>
      <use xlink:href="#DejaVuSans-6f" x="939.986328"/>
      <use xlink:href="#DejaVuSans-75" x="1001.167969"/>
      <use xlink:href="#DejaVuSans-74" x="1064.546875"/>
      <use xlink:href="#DejaVuSans-20" x="1103.755859"/>
      <use xlink:href="#DejaVuSans-65" x="1135.542969"/>
      <use xlink:href="#DejaVuSans-72" x="1197.066406"/>
      <use xlink:href="#DejaVuSans-72" x="1236.429688"/>
      <use xlink:href="#DejaVuSans-6f" x="1275.292969"/>
      <use xlink:href="#DejaVuSans-72" x="1336.474609"/>
      <use xlink:href="#DejaVuSans-73" x="1377.587891"/>
     </g>
    </g>
    <g id="line2d_54">
     <path d="M 301.739062 352.494688 
L 311.739062 352.494688 
L 321.739062 352.494688 
" style="fill: none; stroke: #ff7f0e; stroke-opacity: 0.7; stroke-width: 1.5; stroke-linecap: square"/>
    </g>
    <g id="text_31">
     <!-- Radiation plot with errors -->
     <g transform="translate(329.739062 355.994688) scale(0.1 -0.1)">
      <use xlink:href="#DejaVuSans-52"/>
      <use xlink:href="#DejaVuSans-61" x="67.232422"/>
      <use xlink:href="#DejaVuSans-64" x="128.511719"/>
      <use xlink:href="#DejaVuSans-69" x="191.988281"/>
      <use xlink:href="#DejaVuSans-61" x="219.771484"/>
      <use xlink:href="#DejaVuSans-74" x="281.050781"/>
      <use xlink:href="#DejaVuSans-69" x="320.259766"/>
      <use xlink:href="#DejaVuSans-6f" x="348.042969"/>
      <use xlink:href="#DejaVuSans-6e" x="409.224609"/>
      <use xlink:href="#DejaVuSans-20" x="472.603516"/>
      <use xlink:href="#DejaVuSans-70" x="504.390625"/>
      <use xlink:href="#DejaVuSans-6c" x="567.867188"/>
      <use xlink:href="#DejaVuSans-6f" x="595.650391"/>
      <use xlink:href="#DejaVuSans-74" x="656.832031"/>
      <use xlink:href="#DejaVuSans-20" x="696.041016"/>
      <use xlink:href="#DejaVuSans-77" x="727.828125"/>
      <use xlink:href="#DejaVuSans-69" x="809.615234"/>
      <use xlink:href="#DejaVuSans-74" x="837.398438"/>
      <use xlink:href="#DejaVuSans-68" x="876.607422"/>
      <use xlink:href="#DejaVuSans-20" x="939.986328"/>
      <use xlink:href="#DejaVuSans-65" x="971.773438"/>
      <use xlink:href="#DejaVuSans-72" x="1033.296875"/>
      <use xlink:href="#DejaVuSans-72" x="1072.660156"/>
      <use xlink:href="#DejaVuSans-6f" x="1111.523438"/>
      <use xlink:href="#DejaVuSans-72" x="1172.705078"/>
      <use xlink:href="#DejaVuSans-73" x="1213.818359"/>
     </g>
    </g>
   </g>
  </g>
 </g>
 <defs>
  <clipPath id="p5fd85e914d">
   <rect x="35.304688" y="22.318125" width="446.4" height="252"/>
  </clipPath>
  <clipPath id="p8981778d2d">
   <rect x="35.304688" y="324.718125" width="446.4" height="252"/>
  </clipPath>
 </defs>
</svg>
