<?xml version="1.0" encoding="utf-8" standalone="no"?>
<!DOCTYPE svg PUBLIC "-//W3C//DTD SVG 1.1//EN"
  "http://www.w3.org/Graphics/SVG/1.1/DTD/svg11.dtd">
<svg xmlns:xlink="http://www.w3.org/1999/xlink" width="496.428125pt" height="614.274375pt" viewBox="0 0 496.428125 614.274375" xmlns="http://www.w3.org/2000/svg" version="1.1">
 <metadata>
  <rdf:RDF xmlns:dc="http://purl.org/dc/elements/1.1/" xmlns:cc="http://creativecommons.org/ns#" xmlns:rdf="http://www.w3.org/1999/02/22-rdf-syntax-ns#">
   <cc:Work>
    <dc:type rdf:resource="http://purl.org/dc/dcmitype/StillImage"/>
    <dc:date>2024-12-16T12:01:53.912346</dc:date>
    <dc:format>image/svg+xml</dc:format>
    <dc:creator>
     <cc:Agent>
      <dc:title>Matplotlib v3.8.3, https://matplotlib.org/</dc:title>
     </cc:Agent>
    </dc:creator>
   </cc:Work>
  </rdf:RDF>
 </metadata>
 <defs>
  <style type="text/css">*{stroke-linejoin: round; stroke-linecap: butt}</style>
 </defs>
 <g id="figure_1">
  <g id="patch_1">
   <path d="M 0 614.274375 
L 496.428125 614.274375 
L 496.428125 0 
L 0 0 
z
" style="fill: #ffffff"/>
  </g>
  <g id="axes_1">
   <g id="patch_2">
    <path d="M 42.828125 274.318125 
L 489.228125 274.318125 
L 489.228125 22.318125 
L 42.828125 22.318125 
z
" style="fill: #ffffff"/>
   </g>
   <g id="matplotlib.axis_1">
    <g id="xtick_1">
     <g id="line2d_1">
      <path d="M 109.944209 274.318125 
L 109.944209 22.318125 
" clip-path="url(#p9e3bd483c7)" style="fill: none; stroke: #b0b0b0; stroke-width: 0.8; stroke-linecap: square"/>
     </g>
     <g id="line2d_2">
      <defs>
       <path id="m9b0c898b4a" d="M 0 0 
L 0 3.5 
" style="stroke: #000000; stroke-width: 0.8"/>
      </defs>
      <g>
       <use xlink:href="#m9b0c898b4a" x="109.944209" y="274.318125" style="stroke: #000000; stroke-width: 0.8"/>
      </g>
     </g>
     <g id="text_1">
      <!-- −100 -->
      <g transform="translate(96.210615 288.916562) scale(0.1 -0.1)">
       <defs>
        <path id="DejaVuSans-2212" d="M 678 2272 
L 4684 2272 
L 4684 1741 
L 678 1741 
L 678 2272 
z
" transform="scale(0.015625)"/>
        <path id="DejaVuSans-31" d="M 794 531 
L 1825 531 
L 1825 4091 
L 703 3866 
L 703 4441 
L 1819 4666 
L 2450 4666 
L 2450 531 
L 3481 531 
L 3481 0 
L 794 0 
L 794 531 
z
" transform="scale(0.015625)"/>
        <path id="DejaVuSans-30" d="M 2034 4250 
Q 1547 4250 1301 3770 
Q 1056 3291 1056 2328 
Q 1056 1369 1301 889 
Q 1547 409 2034 409 
Q 2525 409 2770 889 
Q 3016 1369 3016 2328 
Q 3016 3291 2770 3770 
Q 2525 4250 2034 4250 
z
M 2034 4750 
Q 2819 4750 3233 4129 
Q 3647 3509 3647 2328 
Q 3647 1150 3233 529 
Q 2819 -91 2034 -91 
Q 1250 -91 836 529 
Q 422 1150 422 2328 
Q 422 3509 836 4129 
Q 1250 4750 2034 4750 
z
" transform="scale(0.015625)"/>
       </defs>
       <use xlink:href="#DejaVuSans-2212"/>
       <use xlink:href="#DejaVuSans-31" x="83.789062"/>
       <use xlink:href="#DejaVuSans-30" x="147.412109"/>
       <use xlink:href="#DejaVuSans-30" x="211.035156"/>
      </g>
     </g>
    </g>
    <g id="xtick_2">
     <g id="line2d_3">
      <path d="M 187.986167 274.318125 
L 187.986167 22.318125 
" clip-path="url(#p9e3bd483c7)" style="fill: none; stroke: #b0b0b0; stroke-width: 0.8; stroke-linecap: square"/>
     </g>
     <g id="line2d_4">
      <g>
       <use xlink:href="#m9b0c898b4a" x="187.986167" y="274.318125" style="stroke: #000000; stroke-width: 0.8"/>
      </g>
     </g>
     <g id="text_2">
      <!-- −50 -->
      <g transform="translate(177.433823 288.916562) scale(0.1 -0.1)">
       <defs>
        <path id="DejaVuSans-35" d="M 691 4666 
L 3169 4666 
L 3169 4134 
L 1269 4134 
L 1269 2991 
Q 1406 3038 1543 3061 
Q 1681 3084 1819 3084 
Q 2600 3084 3056 2656 
Q 3513 2228 3513 1497 
Q 3513 744 3044 326 
Q 2575 -91 1722 -91 
Q 1428 -91 1123 -41 
Q 819 9 494 109 
L 494 744 
Q 775 591 1075 516 
Q 1375 441 1709 441 
Q 2250 441 2565 725 
Q 2881 1009 2881 1497 
Q 2881 1984 2565 2268 
Q 2250 2553 1709 2553 
Q 1456 2553 1204 2497 
Q 953 2441 691 2322 
L 691 4666 
z
" transform="scale(0.015625)"/>
       </defs>
       <use xlink:href="#DejaVuSans-2212"/>
       <use xlink:href="#DejaVuSans-35" x="83.789062"/>
       <use xlink:href="#DejaVuSans-30" x="147.412109"/>
      </g>
     </g>
    </g>
    <g id="xtick_3">
     <g id="line2d_5">
      <path d="M 266.028125 274.318125 
L 266.028125 22.318125 
" clip-path="url(#p9e3bd483c7)" style="fill: none; stroke: #b0b0b0; stroke-width: 0.8; stroke-linecap: square"/>
     </g>
     <g id="line2d_6">
      <g>
       <use xlink:href="#m9b0c898b4a" x="266.028125" y="274.318125" style="stroke: #000000; stroke-width: 0.8"/>
      </g>
     </g>
     <g id="text_3">
      <!-- 0 -->
      <g transform="translate(262.846875 288.916562) scale(0.1 -0.1)">
       <use xlink:href="#DejaVuSans-30"/>
      </g>
     </g>
    </g>
    <g id="xtick_4">
     <g id="line2d_7">
      <path d="M 344.070083 274.318125 
L 344.070083 22.318125 
" clip-path="url(#p9e3bd483c7)" style="fill: none; stroke: #b0b0b0; stroke-width: 0.8; stroke-linecap: square"/>
     </g>
     <g id="line2d_8">
      <g>
       <use xlink:href="#m9b0c898b4a" x="344.070083" y="274.318125" style="stroke: #000000; stroke-width: 0.8"/>
      </g>
     </g>
     <g id="text_4">
      <!-- 50 -->
      <g transform="translate(337.707583 288.916562) scale(0.1 -0.1)">
       <use xlink:href="#DejaVuSans-35"/>
       <use xlink:href="#DejaVuSans-30" x="63.623047"/>
      </g>
     </g>
    </g>
    <g id="xtick_5">
     <g id="line2d_9">
      <path d="M 422.112041 274.318125 
L 422.112041 22.318125 
" clip-path="url(#p9e3bd483c7)" style="fill: none; stroke: #b0b0b0; stroke-width: 0.8; stroke-linecap: square"/>
     </g>
     <g id="line2d_10">
      <g>
       <use xlink:href="#m9b0c898b4a" x="422.112041" y="274.318125" style="stroke: #000000; stroke-width: 0.8"/>
      </g>
     </g>
     <g id="text_5">
      <!-- 100 -->
      <g transform="translate(412.568291 288.916562) scale(0.1 -0.1)">
       <use xlink:href="#DejaVuSans-31"/>
       <use xlink:href="#DejaVuSans-30" x="63.623047"/>
       <use xlink:href="#DejaVuSans-30" x="127.246094"/>
      </g>
     </g>
    </g>
    <g id="text_6">
     <!-- Theta -->
     <g transform="translate(251.704687 302.594687) scale(0.1 -0.1)">
      <defs>
       <path id="DejaVuSans-54" d="M -19 4666 
L 3928 4666 
L 3928 4134 
L 2272 4134 
L 2272 0 
L 1638 0 
L 1638 4134 
L -19 4134 
L -19 4666 
z
" transform="scale(0.015625)"/>
       <path id="DejaVuSans-68" d="M 3513 2113 
L 3513 0 
L 2938 0 
L 2938 2094 
Q 2938 2591 2744 2837 
Q 2550 3084 2163 3084 
Q 1697 3084 1428 2787 
Q 1159 2491 1159 1978 
L 1159 0 
L 581 0 
L 581 4863 
L 1159 4863 
L 1159 2956 
Q 1366 3272 1645 3428 
Q 1925 3584 2291 3584 
Q 2894 3584 3203 3211 
Q 3513 2838 3513 2113 
z
" transform="scale(0.015625)"/>
       <path id="DejaVuSans-65" d="M 3597 1894 
L 3597 1613 
L 953 1613 
Q 991 1019 1311 708 
Q 1631 397 2203 397 
Q 2534 397 2845 478 
Q 3156 559 3463 722 
L 3463 178 
Q 3153 47 2828 -22 
Q 2503 -91 2169 -91 
Q 1331 -91 842 396 
Q 353 884 353 1716 
Q 353 2575 817 3079 
Q 1281 3584 2069 3584 
Q 2775 3584 3186 3129 
Q 3597 2675 3597 1894 
z
M 3022 2063 
Q 3016 2534 2758 2815 
Q 2500 3097 2075 3097 
Q 1594 3097 1305 2825 
Q 1016 2553 972 2059 
L 3022 2063 
z
" transform="scale(0.015625)"/>
       <path id="DejaVuSans-74" d="M 1172 4494 
L 1172 3500 
L 2356 3500 
L 2356 3053 
L 1172 3053 
L 1172 1153 
Q 1172 725 1289 603 
Q 1406 481 1766 481 
L 2356 481 
L 2356 0 
L 1766 0 
Q 1100 0 847 248 
Q 594 497 594 1153 
L 594 3053 
L 172 3053 
L 172 3500 
L 594 3500 
L 594 4494 
L 1172 4494 
z
" transform="scale(0.015625)"/>
       <path id="DejaVuSans-61" d="M 2194 1759 
Q 1497 1759 1228 1600 
Q 959 1441 959 1056 
Q 959 750 1161 570 
Q 1363 391 1709 391 
Q 2188 391 2477 730 
Q 2766 1069 2766 1631 
L 2766 1759 
L 2194 1759 
z
M 3341 1997 
L 3341 0 
L 2766 0 
L 2766 531 
Q 2569 213 2275 61 
Q 1981 -91 1556 -91 
Q 1019 -91 701 211 
Q 384 513 384 1019 
Q 384 1609 779 1909 
Q 1175 2209 1959 2209 
L 2766 2209 
L 2766 2266 
Q 2766 2663 2505 2880 
Q 2244 3097 1772 3097 
Q 1472 3097 1187 3025 
Q 903 2953 641 2809 
L 641 3341 
Q 956 3463 1253 3523 
Q 1550 3584 1831 3584 
Q 2591 3584 2966 3190 
Q 3341 2797 3341 1997 
z
" transform="scale(0.015625)"/>
      </defs>
      <use xlink:href="#DejaVuSans-54"/>
      <use xlink:href="#DejaVuSans-68" x="61.083984"/>
      <use xlink:href="#DejaVuSans-65" x="124.462891"/>
      <use xlink:href="#DejaVuSans-74" x="185.986328"/>
      <use xlink:href="#DejaVuSans-61" x="225.195312"/>
     </g>
    </g>
   </g>
   <g id="matplotlib.axis_2">
    <g id="ytick_1">
     <g id="line2d_11">
      <path d="M 42.828125 262.86358 
L 489.228125 262.86358 
" clip-path="url(#p9e3bd483c7)" style="fill: none; stroke: #b0b0b0; stroke-width: 0.8; stroke-linecap: square"/>
     </g>
     <g id="line2d_12">
      <defs>
       <path id="m1c652cad98" d="M 0 0 
L -3.5 0 
" style="stroke: #000000; stroke-width: 0.8"/>
      </defs>
      <g>
       <use xlink:href="#m1c652cad98" x="42.828125" y="262.86358" style="stroke: #000000; stroke-width: 0.8"/>
      </g>
     </g>
     <g id="text_7">
      <!-- 0.000 -->
      <g transform="translate(7.2 266.662798) scale(0.1 -0.1)">
       <defs>
        <path id="DejaVuSans-2e" d="M 684 794 
L 1344 794 
L 1344 0 
L 684 0 
L 684 794 
z
" transform="scale(0.015625)"/>
       </defs>
       <use xlink:href="#DejaVuSans-30"/>
       <use xlink:href="#DejaVuSans-2e" x="63.623047"/>
       <use xlink:href="#DejaVuSans-30" x="95.410156"/>
       <use xlink:href="#DejaVuSans-30" x="159.033203"/>
       <use xlink:href="#DejaVuSans-30" x="222.65625"/>
      </g>
     </g>
    </g>
    <g id="ytick_2">
     <g id="line2d_13">
      <path d="M 42.828125 222.379699 
L 489.228125 222.379699 
" clip-path="url(#p9e3bd483c7)" style="fill: none; stroke: #b0b0b0; stroke-width: 0.8; stroke-linecap: square"/>
     </g>
     <g id="line2d_14">
      <g>
       <use xlink:href="#m1c652cad98" x="42.828125" y="222.379699" style="stroke: #000000; stroke-width: 0.8"/>
      </g>
     </g>
     <g id="text_8">
      <!-- 0.002 -->
      <g transform="translate(7.2 226.178917) scale(0.1 -0.1)">
       <defs>
        <path id="DejaVuSans-32" d="M 1228 531 
L 3431 531 
L 3431 0 
L 469 0 
L 469 531 
Q 828 903 1448 1529 
Q 2069 2156 2228 2338 
Q 2531 2678 2651 2914 
Q 2772 3150 2772 3378 
Q 2772 3750 2511 3984 
Q 2250 4219 1831 4219 
Q 1534 4219 1204 4116 
Q 875 4013 500 3803 
L 500 4441 
Q 881 4594 1212 4672 
Q 1544 4750 1819 4750 
Q 2544 4750 2975 4387 
Q 3406 4025 3406 3419 
Q 3406 3131 3298 2873 
Q 3191 2616 2906 2266 
Q 2828 2175 2409 1742 
Q 1991 1309 1228 531 
z
" transform="scale(0.015625)"/>
       </defs>
       <use xlink:href="#DejaVuSans-30"/>
       <use xlink:href="#DejaVuSans-2e" x="63.623047"/>
       <use xlink:href="#DejaVuSans-30" x="95.410156"/>
       <use xlink:href="#DejaVuSans-30" x="159.033203"/>
       <use xlink:href="#DejaVuSans-32" x="222.65625"/>
      </g>
     </g>
    </g>
    <g id="ytick_3">
     <g id="line2d_15">
      <path d="M 42.828125 181.895818 
L 489.228125 181.895818 
" clip-path="url(#p9e3bd483c7)" style="fill: none; stroke: #b0b0b0; stroke-width: 0.8; stroke-linecap: square"/>
     </g>
     <g id="line2d_16">
      <g>
       <use xlink:href="#m1c652cad98" x="42.828125" y="181.895818" style="stroke: #000000; stroke-width: 0.8"/>
      </g>
     </g>
     <g id="text_9">
      <!-- 0.004 -->
      <g transform="translate(7.2 185.695037) scale(0.1 -0.1)">
       <defs>
        <path id="DejaVuSans-34" d="M 2419 4116 
L 825 1625 
L 2419 1625 
L 2419 4116 
z
M 2253 4666 
L 3047 4666 
L 3047 1625 
L 3713 1625 
L 3713 1100 
L 3047 1100 
L 3047 0 
L 2419 0 
L 2419 1100 
L 313 1100 
L 313 1709 
L 2253 4666 
z
" transform="scale(0.015625)"/>
       </defs>
       <use xlink:href="#DejaVuSans-30"/>
       <use xlink:href="#DejaVuSans-2e" x="63.623047"/>
       <use xlink:href="#DejaVuSans-30" x="95.410156"/>
       <use xlink:href="#DejaVuSans-30" x="159.033203"/>
       <use xlink:href="#DejaVuSans-34" x="222.65625"/>
      </g>
     </g>
    </g>
    <g id="ytick_4">
     <g id="line2d_17">
      <path d="M 42.828125 141.411937 
L 489.228125 141.411937 
" clip-path="url(#p9e3bd483c7)" style="fill: none; stroke: #b0b0b0; stroke-width: 0.8; stroke-linecap: square"/>
     </g>
     <g id="line2d_18">
      <g>
       <use xlink:href="#m1c652cad98" x="42.828125" y="141.411937" style="stroke: #000000; stroke-width: 0.8"/>
      </g>
     </g>
     <g id="text_10">
      <!-- 0.006 -->
      <g transform="translate(7.2 145.211156) scale(0.1 -0.1)">
       <defs>
        <path id="DejaVuSans-36" d="M 2113 2584 
Q 1688 2584 1439 2293 
Q 1191 2003 1191 1497 
Q 1191 994 1439 701 
Q 1688 409 2113 409 
Q 2538 409 2786 701 
Q 3034 994 3034 1497 
Q 3034 2003 2786 2293 
Q 2538 2584 2113 2584 
z
M 3366 4563 
L 3366 3988 
Q 3128 4100 2886 4159 
Q 2644 4219 2406 4219 
Q 1781 4219 1451 3797 
Q 1122 3375 1075 2522 
Q 1259 2794 1537 2939 
Q 1816 3084 2150 3084 
Q 2853 3084 3261 2657 
Q 3669 2231 3669 1497 
Q 3669 778 3244 343 
Q 2819 -91 2113 -91 
Q 1303 -91 875 529 
Q 447 1150 447 2328 
Q 447 3434 972 4092 
Q 1497 4750 2381 4750 
Q 2619 4750 2861 4703 
Q 3103 4656 3366 4563 
z
" transform="scale(0.015625)"/>
       </defs>
       <use xlink:href="#DejaVuSans-30"/>
       <use xlink:href="#DejaVuSans-2e" x="63.623047"/>
       <use xlink:href="#DejaVuSans-30" x="95.410156"/>
       <use xlink:href="#DejaVuSans-30" x="159.033203"/>
       <use xlink:href="#DejaVuSans-36" x="222.65625"/>
      </g>
     </g>
    </g>
    <g id="ytick_5">
     <g id="line2d_19">
      <path d="M 42.828125 100.928056 
L 489.228125 100.928056 
" clip-path="url(#p9e3bd483c7)" style="fill: none; stroke: #b0b0b0; stroke-width: 0.8; stroke-linecap: square"/>
     </g>
     <g id="line2d_20">
      <g>
       <use xlink:href="#m1c652cad98" x="42.828125" y="100.928056" style="stroke: #000000; stroke-width: 0.8"/>
      </g>
     </g>
     <g id="text_11">
      <!-- 0.008 -->
      <g transform="translate(7.2 104.727275) scale(0.1 -0.1)">
       <defs>
        <path id="DejaVuSans-38" d="M 2034 2216 
Q 1584 2216 1326 1975 
Q 1069 1734 1069 1313 
Q 1069 891 1326 650 
Q 1584 409 2034 409 
Q 2484 409 2743 651 
Q 3003 894 3003 1313 
Q 3003 1734 2745 1975 
Q 2488 2216 2034 2216 
z
M 1403 2484 
Q 997 2584 770 2862 
Q 544 3141 544 3541 
Q 544 4100 942 4425 
Q 1341 4750 2034 4750 
Q 2731 4750 3128 4425 
Q 3525 4100 3525 3541 
Q 3525 3141 3298 2862 
Q 3072 2584 2669 2484 
Q 3125 2378 3379 2068 
Q 3634 1759 3634 1313 
Q 3634 634 3220 271 
Q 2806 -91 2034 -91 
Q 1263 -91 848 271 
Q 434 634 434 1313 
Q 434 1759 690 2068 
Q 947 2378 1403 2484 
z
M 1172 3481 
Q 1172 3119 1398 2916 
Q 1625 2713 2034 2713 
Q 2441 2713 2670 2916 
Q 2900 3119 2900 3481 
Q 2900 3844 2670 4047 
Q 2441 4250 2034 4250 
Q 1625 4250 1398 4047 
Q 1172 3844 1172 3481 
z
" transform="scale(0.015625)"/>
       </defs>
       <use xlink:href="#DejaVuSans-30"/>
       <use xlink:href="#DejaVuSans-2e" x="63.623047"/>
       <use xlink:href="#DejaVuSans-30" x="95.410156"/>
       <use xlink:href="#DejaVuSans-30" x="159.033203"/>
       <use xlink:href="#DejaVuSans-38" x="222.65625"/>
      </g>
     </g>
    </g>
    <g id="ytick_6">
     <g id="line2d_21">
      <path d="M 42.828125 60.444175 
L 489.228125 60.444175 
" clip-path="url(#p9e3bd483c7)" style="fill: none; stroke: #b0b0b0; stroke-width: 0.8; stroke-linecap: square"/>
     </g>
     <g id="line2d_22">
      <g>
       <use xlink:href="#m1c652cad98" x="42.828125" y="60.444175" style="stroke: #000000; stroke-width: 0.8"/>
      </g>
     </g>
     <g id="text_12">
      <!-- 0.010 -->
      <g transform="translate(7.2 64.243394) scale(0.1 -0.1)">
       <use xlink:href="#DejaVuSans-30"/>
       <use xlink:href="#DejaVuSans-2e" x="63.623047"/>
       <use xlink:href="#DejaVuSans-30" x="95.410156"/>
       <use xlink:href="#DejaVuSans-31" x="159.033203"/>
       <use xlink:href="#DejaVuSans-30" x="222.65625"/>
      </g>
     </g>
    </g>
   </g>
   <g id="line2d_23">
    <path d="M 63.119034 250.424122 
L 70.92323 261.992675 
L 78.727426 257.452343 
L 86.531622 251.775706 
L 94.335817 257.152708 
L 102.140013 243.567367 
L 109.944209 246.592362 
L 117.748405 239.419768 
L 125.552601 253.757973 
L 133.356796 259.654459 
L 141.160992 244.781289 
L 148.965188 238.266086 
L 156.769384 227.650249 
L 164.57358 235.606704 
L 172.377775 174.951084 
L 180.181971 202.889417 
L 187.986167 195.702083 
L 195.790363 250.319738 
L 203.594559 207.782223 
L 211.398754 165.940246 
L 219.20295 81.325661 
L 227.007146 131.021708 
L 234.811342 204.906985 
L 242.615538 250.433237 
L 250.419733 258.169563 
L 258.223929 259.89988 
L 266.028125 262.56776 
L 273.832321 259.546194 
L 281.636517 260.632601 
L 289.440712 254.624213 
L 297.244908 180.353868 
L 305.049104 114.80702 
L 312.8533 161.328031 
L 320.657496 172.291134 
L 328.461691 258.262162 
L 336.265887 213.605415 
L 344.070083 237.813654 
L 351.874279 172.344278 
L 359.678475 211.823177 
L 367.48267 262.427393 
L 375.286866 244.253899 
L 383.091062 224.334545 
L 390.895258 261.620786 
L 398.699454 249.678044 
L 406.503649 257.022985 
L 414.307845 244.661816 
L 422.112041 262.626593 
L 429.916237 240.803713 
L 437.720433 254.953821 
L 445.524628 229.185553 
L 453.328824 252.312574 
L 461.13302 259.36676 
L 468.937216 214.558171 
" clip-path="url(#p9e3bd483c7)" style="fill: none; stroke: #1f77b4; stroke-opacity: 0.7; stroke-width: 1.5; stroke-linecap: square"/>
   </g>
   <g id="line2d_24">
    <path d="M 63.119034 228.411948 
L 70.92323 216.491334 
L 78.727426 258.618411 
L 86.531622 234.902602 
L 94.335817 241.953923 
L 102.140013 254.062276 
L 109.944209 220.552649 
L 117.748405 257.016791 
L 125.552601 245.660229 
L 133.356796 256.384485 
L 141.160992 261.109754 
L 148.965188 207.637132 
L 156.769384 254.143154 
L 164.57358 215.497164 
L 172.377775 212.14475 
L 180.181971 129.9202 
L 187.986167 237.143251 
L 195.790363 156.588731 
L 203.594559 239.718339 
L 211.398754 135.389906 
L 219.20295 75.921346 
L 227.007146 122.371869 
L 234.811342 226.459859 
L 242.615538 238.988916 
L 250.419733 262.212833 
L 258.223929 260.858837 
L 266.028125 262.86358 
L 273.832321 260.918976 
L 281.636517 260.303656 
L 289.440712 247.424611 
L 297.244908 249.420437 
L 305.049104 33.77267 
L 312.8533 168.619641 
L 320.657496 249.028224 
L 328.461691 65.816922 
L 336.265887 63.856178 
L 344.070083 38.197618 
L 351.874279 261.16222 
L 359.678475 243.839866 
L 367.48267 218.740417 
L 375.286866 183.157303 
L 383.091062 252.175093 
L 390.895258 228.530503 
L 398.699454 253.070662 
L 406.503649 244.440635 
L 414.307845 250.475464 
L 422.112041 250.559453 
L 429.916237 253.410188 
L 437.720433 202.589081 
L 445.524628 229.855633 
L 453.328824 195.738083 
L 461.13302 201.961611 
L 468.937216 195.304861 
" clip-path="url(#p9e3bd483c7)" style="fill: none; stroke: #ff7f0e; stroke-opacity: 0.7; stroke-width: 1.5; stroke-linecap: square"/>
   </g>
   <g id="patch_3">
    <path d="M 42.828125 274.318125 
L 42.828125 22.318125 
" style="fill: none; stroke: #000000; stroke-width: 0.8; stroke-linejoin: miter; stroke-linecap: square"/>
   </g>
   <g id="patch_4">
    <path d="M 489.228125 274.318125 
L 489.228125 22.318125 
" style="fill: none; stroke: #000000; stroke-width: 0.8; stroke-linejoin: miter; stroke-linecap: square"/>
   </g>
   <g id="patch_5">
    <path d="M 42.828125 274.318125 
L 489.228125 274.318125 
" style="fill: none; stroke: #000000; stroke-width: 0.8; stroke-linejoin: miter; stroke-linecap: square"/>
   </g>
   <g id="patch_6">
    <path d="M 42.828125 22.318125 
L 489.228125 22.318125 
" style="fill: none; stroke: #000000; stroke-width: 0.8; stroke-linejoin: miter; stroke-linecap: square"/>
   </g>
   <g id="text_13">
    <!-- Diff radiation of transform w/o error H-plane (Phi = 90.0) -->
    <g transform="translate(95.766875 16.318125) scale(0.12 -0.12)">
     <defs>
      <path id="DejaVuSans-44" d="M 1259 4147 
L 1259 519 
L 2022 519 
Q 2988 519 3436 956 
Q 3884 1394 3884 2338 
Q 3884 3275 3436 3711 
Q 2988 4147 2022 4147 
L 1259 4147 
z
M 628 4666 
L 1925 4666 
Q 3281 4666 3915 4102 
Q 4550 3538 4550 2338 
Q 4550 1131 3912 565 
Q 3275 0 1925 0 
L 628 0 
L 628 4666 
z
" transform="scale(0.015625)"/>
      <path id="DejaVuSans-69" d="M 603 3500 
L 1178 3500 
L 1178 0 
L 603 0 
L 603 3500 
z
M 603 4863 
L 1178 4863 
L 1178 4134 
L 603 4134 
L 603 4863 
z
" transform="scale(0.015625)"/>
      <path id="DejaVuSans-66" d="M 2375 4863 
L 2375 4384 
L 1825 4384 
Q 1516 4384 1395 4259 
Q 1275 4134 1275 3809 
L 1275 3500 
L 2222 3500 
L 2222 3053 
L 1275 3053 
L 1275 0 
L 697 0 
L 697 3053 
L 147 3053 
L 147 3500 
L 697 3500 
L 697 3744 
Q 697 4328 969 4595 
Q 1241 4863 1831 4863 
L 2375 4863 
z
" transform="scale(0.015625)"/>
      <path id="DejaVuSans-20" transform="scale(0.015625)"/>
      <path id="DejaVuSans-72" d="M 2631 2963 
Q 2534 3019 2420 3045 
Q 2306 3072 2169 3072 
Q 1681 3072 1420 2755 
Q 1159 2438 1159 1844 
L 1159 0 
L 581 0 
L 581 3500 
L 1159 3500 
L 1159 2956 
Q 1341 3275 1631 3429 
Q 1922 3584 2338 3584 
Q 2397 3584 2469 3576 
Q 2541 3569 2628 3553 
L 2631 2963 
z
" transform="scale(0.015625)"/>
      <path id="DejaVuSans-64" d="M 2906 2969 
L 2906 4863 
L 3481 4863 
L 3481 0 
L 2906 0 
L 2906 525 
Q 2725 213 2448 61 
Q 2172 -91 1784 -91 
Q 1150 -91 751 415 
Q 353 922 353 1747 
Q 353 2572 751 3078 
Q 1150 3584 1784 3584 
Q 2172 3584 2448 3432 
Q 2725 3281 2906 2969 
z
M 947 1747 
Q 947 1113 1208 752 
Q 1469 391 1925 391 
Q 2381 391 2643 752 
Q 2906 1113 2906 1747 
Q 2906 2381 2643 2742 
Q 2381 3103 1925 3103 
Q 1469 3103 1208 2742 
Q 947 2381 947 1747 
z
" transform="scale(0.015625)"/>
      <path id="DejaVuSans-6f" d="M 1959 3097 
Q 1497 3097 1228 2736 
Q 959 2375 959 1747 
Q 959 1119 1226 758 
Q 1494 397 1959 397 
Q 2419 397 2687 759 
Q 2956 1122 2956 1747 
Q 2956 2369 2687 2733 
Q 2419 3097 1959 3097 
z
M 1959 3584 
Q 2709 3584 3137 3096 
Q 3566 2609 3566 1747 
Q 3566 888 3137 398 
Q 2709 -91 1959 -91 
Q 1206 -91 779 398 
Q 353 888 353 1747 
Q 353 2609 779 3096 
Q 1206 3584 1959 3584 
z
" transform="scale(0.015625)"/>
      <path id="DejaVuSans-6e" d="M 3513 2113 
L 3513 0 
L 2938 0 
L 2938 2094 
Q 2938 2591 2744 2837 
Q 2550 3084 2163 3084 
Q 1697 3084 1428 2787 
Q 1159 2491 1159 1978 
L 1159 0 
L 581 0 
L 581 3500 
L 1159 3500 
L 1159 2956 
Q 1366 3272 1645 3428 
Q 1925 3584 2291 3584 
Q 2894 3584 3203 3211 
Q 3513 2838 3513 2113 
z
" transform="scale(0.015625)"/>
      <path id="DejaVuSans-73" d="M 2834 3397 
L 2834 2853 
Q 2591 2978 2328 3040 
Q 2066 3103 1784 3103 
Q 1356 3103 1142 2972 
Q 928 2841 928 2578 
Q 928 2378 1081 2264 
Q 1234 2150 1697 2047 
L 1894 2003 
Q 2506 1872 2764 1633 
Q 3022 1394 3022 966 
Q 3022 478 2636 193 
Q 2250 -91 1575 -91 
Q 1294 -91 989 -36 
Q 684 19 347 128 
L 347 722 
Q 666 556 975 473 
Q 1284 391 1588 391 
Q 1994 391 2212 530 
Q 2431 669 2431 922 
Q 2431 1156 2273 1281 
Q 2116 1406 1581 1522 
L 1381 1569 
Q 847 1681 609 1914 
Q 372 2147 372 2553 
Q 372 3047 722 3315 
Q 1072 3584 1716 3584 
Q 2034 3584 2315 3537 
Q 2597 3491 2834 3397 
z
" transform="scale(0.015625)"/>
      <path id="DejaVuSans-6d" d="M 3328 2828 
Q 3544 3216 3844 3400 
Q 4144 3584 4550 3584 
Q 5097 3584 5394 3201 
Q 5691 2819 5691 2113 
L 5691 0 
L 5113 0 
L 5113 2094 
Q 5113 2597 4934 2840 
Q 4756 3084 4391 3084 
Q 3944 3084 3684 2787 
Q 3425 2491 3425 1978 
L 3425 0 
L 2847 0 
L 2847 2094 
Q 2847 2600 2669 2842 
Q 2491 3084 2119 3084 
Q 1678 3084 1418 2786 
Q 1159 2488 1159 1978 
L 1159 0 
L 581 0 
L 581 3500 
L 1159 3500 
L 1159 2956 
Q 1356 3278 1631 3431 
Q 1906 3584 2284 3584 
Q 2666 3584 2933 3390 
Q 3200 3197 3328 2828 
z
" transform="scale(0.015625)"/>
      <path id="DejaVuSans-77" d="M 269 3500 
L 844 3500 
L 1563 769 
L 2278 3500 
L 2956 3500 
L 3675 769 
L 4391 3500 
L 4966 3500 
L 4050 0 
L 3372 0 
L 2619 2869 
L 1863 0 
L 1184 0 
L 269 3500 
z
" transform="scale(0.015625)"/>
      <path id="DejaVuSans-2f" d="M 1625 4666 
L 2156 4666 
L 531 -594 
L 0 -594 
L 1625 4666 
z
" transform="scale(0.015625)"/>
      <path id="DejaVuSans-48" d="M 628 4666 
L 1259 4666 
L 1259 2753 
L 3553 2753 
L 3553 4666 
L 4184 4666 
L 4184 0 
L 3553 0 
L 3553 2222 
L 1259 2222 
L 1259 0 
L 628 0 
L 628 4666 
z
" transform="scale(0.015625)"/>
      <path id="DejaVuSans-2d" d="M 313 2009 
L 1997 2009 
L 1997 1497 
L 313 1497 
L 313 2009 
z
" transform="scale(0.015625)"/>
      <path id="DejaVuSans-70" d="M 1159 525 
L 1159 -1331 
L 581 -1331 
L 581 3500 
L 1159 3500 
L 1159 2969 
Q 1341 3281 1617 3432 
Q 1894 3584 2278 3584 
Q 2916 3584 3314 3078 
Q 3713 2572 3713 1747 
Q 3713 922 3314 415 
Q 2916 -91 2278 -91 
Q 1894 -91 1617 61 
Q 1341 213 1159 525 
z
M 3116 1747 
Q 3116 2381 2855 2742 
Q 2594 3103 2138 3103 
Q 1681 3103 1420 2742 
Q 1159 2381 1159 1747 
Q 1159 1113 1420 752 
Q 1681 391 2138 391 
Q 2594 391 2855 752 
Q 3116 1113 3116 1747 
z
" transform="scale(0.015625)"/>
      <path id="DejaVuSans-6c" d="M 603 4863 
L 1178 4863 
L 1178 0 
L 603 0 
L 603 4863 
z
" transform="scale(0.015625)"/>
      <path id="DejaVuSans-28" d="M 1984 4856 
Q 1566 4138 1362 3434 
Q 1159 2731 1159 2009 
Q 1159 1288 1364 580 
Q 1569 -128 1984 -844 
L 1484 -844 
Q 1016 -109 783 600 
Q 550 1309 550 2009 
Q 550 2706 781 3412 
Q 1013 4119 1484 4856 
L 1984 4856 
z
" transform="scale(0.015625)"/>
      <path id="DejaVuSans-50" d="M 1259 4147 
L 1259 2394 
L 2053 2394 
Q 2494 2394 2734 2622 
Q 2975 2850 2975 3272 
Q 2975 3691 2734 3919 
Q 2494 4147 2053 4147 
L 1259 4147 
z
M 628 4666 
L 2053 4666 
Q 2838 4666 3239 4311 
Q 3641 3956 3641 3272 
Q 3641 2581 3239 2228 
Q 2838 1875 2053 1875 
L 1259 1875 
L 1259 0 
L 628 0 
L 628 4666 
z
" transform="scale(0.015625)"/>
      <path id="DejaVuSans-3d" d="M 678 2906 
L 4684 2906 
L 4684 2381 
L 678 2381 
L 678 2906 
z
M 678 1631 
L 4684 1631 
L 4684 1100 
L 678 1100 
L 678 1631 
z
" transform="scale(0.015625)"/>
      <path id="DejaVuSans-39" d="M 703 97 
L 703 672 
Q 941 559 1184 500 
Q 1428 441 1663 441 
Q 2288 441 2617 861 
Q 2947 1281 2994 2138 
Q 2813 1869 2534 1725 
Q 2256 1581 1919 1581 
Q 1219 1581 811 2004 
Q 403 2428 403 3163 
Q 403 3881 828 4315 
Q 1253 4750 1959 4750 
Q 2769 4750 3195 4129 
Q 3622 3509 3622 2328 
Q 3622 1225 3098 567 
Q 2575 -91 1691 -91 
Q 1453 -91 1209 -44 
Q 966 3 703 97 
z
M 1959 2075 
Q 2384 2075 2632 2365 
Q 2881 2656 2881 3163 
Q 2881 3666 2632 3958 
Q 2384 4250 1959 4250 
Q 1534 4250 1286 3958 
Q 1038 3666 1038 3163 
Q 1038 2656 1286 2365 
Q 1534 2075 1959 2075 
z
" transform="scale(0.015625)"/>
      <path id="DejaVuSans-29" d="M 513 4856 
L 1013 4856 
Q 1481 4119 1714 3412 
Q 1947 2706 1947 2009 
Q 1947 1309 1714 600 
Q 1481 -109 1013 -844 
L 513 -844 
Q 928 -128 1133 580 
Q 1338 1288 1338 2009 
Q 1338 2731 1133 3434 
Q 928 4138 513 4856 
z
" transform="scale(0.015625)"/>
     </defs>
     <use xlink:href="#DejaVuSans-44"/>
     <use xlink:href="#DejaVuSans-69" x="77.001953"/>
     <use xlink:href="#DejaVuSans-66" x="104.785156"/>
     <use xlink:href="#DejaVuSans-66" x="139.990234"/>
     <use xlink:href="#DejaVuSans-20" x="175.195312"/>
     <use xlink:href="#DejaVuSans-72" x="206.982422"/>
     <use xlink:href="#DejaVuSans-61" x="248.095703"/>
     <use xlink:href="#DejaVuSans-64" x="309.375"/>
     <use xlink:href="#DejaVuSans-69" x="372.851562"/>
     <use xlink:href="#DejaVuSans-61" x="400.634766"/>
     <use xlink:href="#DejaVuSans-74" x="461.914062"/>
     <use xlink:href="#DejaVuSans-69" x="501.123047"/>
     <use xlink:href="#DejaVuSans-6f" x="528.90625"/>
     <use xlink:href="#DejaVuSans-6e" x="590.087891"/>
     <use xlink:href="#DejaVuSans-20" x="653.466797"/>
     <use xlink:href="#DejaVuSans-6f" x="685.253906"/>
     <use xlink:href="#DejaVuSans-66" x="746.435547"/>
     <use xlink:href="#DejaVuSans-20" x="781.640625"/>
     <use xlink:href="#DejaVuSans-74" x="813.427734"/>
     <use xlink:href="#DejaVuSans-72" x="852.636719"/>
     <use xlink:href="#DejaVuSans-61" x="893.75"/>
     <use xlink:href="#DejaVuSans-6e" x="955.029297"/>
     <use xlink:href="#DejaVuSans-73" x="1018.408203"/>
     <use xlink:href="#DejaVuSans-66" x="1070.507812"/>
     <use xlink:href="#DejaVuSans-6f" x="1105.712891"/>
     <use xlink:href="#DejaVuSans-72" x="1166.894531"/>
     <use xlink:href="#DejaVuSans-6d" x="1206.257812"/>
     <use xlink:href="#DejaVuSans-20" x="1303.669922"/>
     <use xlink:href="#DejaVuSans-77" x="1335.457031"/>
     <use xlink:href="#DejaVuSans-2f" x="1417.244141"/>
     <use xlink:href="#DejaVuSans-6f" x="1450.935547"/>
     <use xlink:href="#DejaVuSans-20" x="1512.117188"/>
     <use xlink:href="#DejaVuSans-65" x="1543.904297"/>
     <use xlink:href="#DejaVuSans-72" x="1605.427734"/>
     <use xlink:href="#DejaVuSans-72" x="1644.791016"/>
     <use xlink:href="#DejaVuSans-6f" x="1683.654297"/>
     <use xlink:href="#DejaVuSans-72" x="1744.835938"/>
     <use xlink:href="#DejaVuSans-20" x="1785.949219"/>
     <use xlink:href="#DejaVuSans-48" x="1817.736328"/>
     <use xlink:href="#DejaVuSans-2d" x="1892.931641"/>
     <use xlink:href="#DejaVuSans-70" x="1929.015625"/>
     <use xlink:href="#DejaVuSans-6c" x="1992.492188"/>
     <use xlink:href="#DejaVuSans-61" x="2020.275391"/>
     <use xlink:href="#DejaVuSans-6e" x="2081.554688"/>
     <use xlink:href="#DejaVuSans-65" x="2144.933594"/>
     <use xlink:href="#DejaVuSans-20" x="2206.457031"/>
     <use xlink:href="#DejaVuSans-28" x="2238.244141"/>
     <use xlink:href="#DejaVuSans-50" x="2277.257812"/>
     <use xlink:href="#DejaVuSans-68" x="2337.560547"/>
     <use xlink:href="#DejaVuSans-69" x="2400.939453"/>
     <use xlink:href="#DejaVuSans-20" x="2428.722656"/>
     <use xlink:href="#DejaVuSans-3d" x="2460.509766"/>
     <use xlink:href="#DejaVuSans-20" x="2544.298828"/>
     <use xlink:href="#DejaVuSans-39" x="2576.085938"/>
     <use xlink:href="#DejaVuSans-30" x="2639.708984"/>
     <use xlink:href="#DejaVuSans-2e" x="2703.332031"/>
     <use xlink:href="#DejaVuSans-30" x="2735.119141"/>
     <use xlink:href="#DejaVuSans-29" x="2798.742188"/>
    </g>
   </g>
   <g id="legend_1">
    <g id="patch_7">
     <path d="M 49.828125 59.674375 
L 198.653125 59.674375 
Q 200.653125 59.674375 200.653125 57.674375 
L 200.653125 29.318125 
Q 200.653125 27.318125 198.653125 27.318125 
L 49.828125 27.318125 
Q 47.828125 27.318125 47.828125 29.318125 
L 47.828125 57.674375 
Q 47.828125 59.674375 49.828125 59.674375 
z
" style="fill: #ffffff; opacity: 0.8; stroke: #cccccc; stroke-linejoin: miter"/>
    </g>
    <g id="line2d_25">
     <path d="M 51.828125 35.416562 
L 61.828125 35.416562 
L 71.828125 35.416562 
" style="fill: none; stroke: #1f77b4; stroke-opacity: 0.7; stroke-width: 1.5; stroke-linecap: square"/>
    </g>
    <g id="text_14">
     <!-- Dif plot (smoothed) -->
     <g transform="translate(79.828125 38.916562) scale(0.1 -0.1)">
      <use xlink:href="#DejaVuSans-44"/>
      <use xlink:href="#DejaVuSans-69" x="77.001953"/>
      <use xlink:href="#DejaVuSans-66" x="104.785156"/>
      <use xlink:href="#DejaVuSans-20" x="139.990234"/>
      <use xlink:href="#DejaVuSans-70" x="171.777344"/>
      <use xlink:href="#DejaVuSans-6c" x="235.253906"/>
      <use xlink:href="#DejaVuSans-6f" x="263.037109"/>
      <use xlink:href="#DejaVuSans-74" x="324.21875"/>
      <use xlink:href="#DejaVuSans-20" x="363.427734"/>
      <use xlink:href="#DejaVuSans-28" x="395.214844"/>
      <use xlink:href="#DejaVuSans-73" x="434.228516"/>
      <use xlink:href="#DejaVuSans-6d" x="486.328125"/>
      <use xlink:href="#DejaVuSans-6f" x="583.740234"/>
      <use xlink:href="#DejaVuSans-6f" x="644.921875"/>
      <use xlink:href="#DejaVuSans-74" x="706.103516"/>
      <use xlink:href="#DejaVuSans-68" x="745.3125"/>
      <use xlink:href="#DejaVuSans-65" x="808.691406"/>
      <use xlink:href="#DejaVuSans-64" x="870.214844"/>
      <use xlink:href="#DejaVuSans-29" x="933.691406"/>
     </g>
    </g>
    <g id="line2d_26">
     <path d="M 51.828125 50.094687 
L 61.828125 50.094687 
L 71.828125 50.094687 
" style="fill: none; stroke: #ff7f0e; stroke-opacity: 0.7; stroke-width: 1.5; stroke-linecap: square"/>
    </g>
    <g id="text_15">
     <!-- Dif plot (not smoothed) -->
     <g transform="translate(79.828125 53.594687) scale(0.1 -0.1)">
      <use xlink:href="#DejaVuSans-44"/>
      <use xlink:href="#DejaVuSans-69" x="77.001953"/>
      <use xlink:href="#DejaVuSans-66" x="104.785156"/>
      <use xlink:href="#DejaVuSans-20" x="139.990234"/>
      <use xlink:href="#DejaVuSans-70" x="171.777344"/>
      <use xlink:href="#DejaVuSans-6c" x="235.253906"/>
      <use xlink:href="#DejaVuSans-6f" x="263.037109"/>
      <use xlink:href="#DejaVuSans-74" x="324.21875"/>
      <use xlink:href="#DejaVuSans-20" x="363.427734"/>
      <use xlink:href="#DejaVuSans-28" x="395.214844"/>
      <use xlink:href="#DejaVuSans-6e" x="434.228516"/>
      <use xlink:href="#DejaVuSans-6f" x="497.607422"/>
      <use xlink:href="#DejaVuSans-74" x="558.789062"/>
      <use xlink:href="#DejaVuSans-20" x="597.998047"/>
      <use xlink:href="#DejaVuSans-73" x="629.785156"/>
      <use xlink:href="#DejaVuSans-6d" x="681.884766"/>
      <use xlink:href="#DejaVuSans-6f" x="779.296875"/>
      <use xlink:href="#DejaVuSans-6f" x="840.478516"/>
      <use xlink:href="#DejaVuSans-74" x="901.660156"/>
      <use xlink:href="#DejaVuSans-68" x="940.869141"/>
      <use xlink:href="#DejaVuSans-65" x="1004.248047"/>
      <use xlink:href="#DejaVuSans-64" x="1065.771484"/>
      <use xlink:href="#DejaVuSans-29" x="1129.248047"/>
     </g>
    </g>
   </g>
  </g>
  <g id="axes_2">
   <g id="patch_8">
    <path d="M 42.828125 576.718125 
L 489.228125 576.718125 
L 489.228125 324.718125 
L 42.828125 324.718125 
z
" style="fill: #ffffff"/>
   </g>
   <g id="matplotlib.axis_3">
    <g id="xtick_6">
     <g id="line2d_27">
      <path d="M 109.944209 576.718125 
L 109.944209 324.718125 
" clip-path="url(#p742d378baa)" style="fill: none; stroke: #b0b0b0; stroke-width: 0.8; stroke-linecap: square"/>
     </g>
     <g id="line2d_28">
      <g>
       <use xlink:href="#m9b0c898b4a" x="109.944209" y="576.718125" style="stroke: #000000; stroke-width: 0.8"/>
      </g>
     </g>
     <g id="text_16">
      <!-- −100 -->
      <g transform="translate(96.210615 591.316562) scale(0.1 -0.1)">
       <use xlink:href="#DejaVuSans-2212"/>
       <use xlink:href="#DejaVuSans-31" x="83.789062"/>
       <use xlink:href="#DejaVuSans-30" x="147.412109"/>
       <use xlink:href="#DejaVuSans-30" x="211.035156"/>
      </g>
     </g>
    </g>
    <g id="xtick_7">
     <g id="line2d_29">
      <path d="M 187.986167 576.718125 
L 187.986167 324.718125 
" clip-path="url(#p742d378baa)" style="fill: none; stroke: #b0b0b0; stroke-width: 0.8; stroke-linecap: square"/>
     </g>
     <g id="line2d_30">
      <g>
       <use xlink:href="#m9b0c898b4a" x="187.986167" y="576.718125" style="stroke: #000000; stroke-width: 0.8"/>
      </g>
     </g>
     <g id="text_17">
      <!-- −50 -->
      <g transform="translate(177.433823 591.316562) scale(0.1 -0.1)">
       <use xlink:href="#DejaVuSans-2212"/>
       <use xlink:href="#DejaVuSans-35" x="83.789062"/>
       <use xlink:href="#DejaVuSans-30" x="147.412109"/>
      </g>
     </g>
    </g>
    <g id="xtick_8">
     <g id="line2d_31">
      <path d="M 266.028125 576.718125 
L 266.028125 324.718125 
" clip-path="url(#p742d378baa)" style="fill: none; stroke: #b0b0b0; stroke-width: 0.8; stroke-linecap: square"/>
     </g>
     <g id="line2d_32">
      <g>
       <use xlink:href="#m9b0c898b4a" x="266.028125" y="576.718125" style="stroke: #000000; stroke-width: 0.8"/>
      </g>
     </g>
     <g id="text_18">
      <!-- 0 -->
      <g transform="translate(262.846875 591.316562) scale(0.1 -0.1)">
       <use xlink:href="#DejaVuSans-30"/>
      </g>
     </g>
    </g>
    <g id="xtick_9">
     <g id="line2d_33">
      <path d="M 344.070083 576.718125 
L 344.070083 324.718125 
" clip-path="url(#p742d378baa)" style="fill: none; stroke: #b0b0b0; stroke-width: 0.8; stroke-linecap: square"/>
     </g>
     <g id="line2d_34">
      <g>
       <use xlink:href="#m9b0c898b4a" x="344.070083" y="576.718125" style="stroke: #000000; stroke-width: 0.8"/>
      </g>
     </g>
     <g id="text_19">
      <!-- 50 -->
      <g transform="translate(337.707583 591.316562) scale(0.1 -0.1)">
       <use xlink:href="#DejaVuSans-35"/>
       <use xlink:href="#DejaVuSans-30" x="63.623047"/>
      </g>
     </g>
    </g>
    <g id="xtick_10">
     <g id="line2d_35">
      <path d="M 422.112041 576.718125 
L 422.112041 324.718125 
" clip-path="url(#p742d378baa)" style="fill: none; stroke: #b0b0b0; stroke-width: 0.8; stroke-linecap: square"/>
     </g>
     <g id="line2d_36">
      <g>
       <use xlink:href="#m9b0c898b4a" x="422.112041" y="576.718125" style="stroke: #000000; stroke-width: 0.8"/>
      </g>
     </g>
     <g id="text_20">
      <!-- 100 -->
      <g transform="translate(412.568291 591.316562) scale(0.1 -0.1)">
       <use xlink:href="#DejaVuSans-31"/>
       <use xlink:href="#DejaVuSans-30" x="63.623047"/>
       <use xlink:href="#DejaVuSans-30" x="127.246094"/>
      </g>
     </g>
    </g>
    <g id="text_21">
     <!-- Theta -->
     <g transform="translate(251.704687 604.994687) scale(0.1 -0.1)">
      <use xlink:href="#DejaVuSans-54"/>
      <use xlink:href="#DejaVuSans-68" x="61.083984"/>
      <use xlink:href="#DejaVuSans-65" x="124.462891"/>
      <use xlink:href="#DejaVuSans-74" x="185.986328"/>
      <use xlink:href="#DejaVuSans-61" x="225.195312"/>
     </g>
    </g>
   </g>
   <g id="matplotlib.axis_4">
    <g id="ytick_7">
     <g id="line2d_37">
      <path d="M 42.828125 565.26358 
L 489.228125 565.26358 
" clip-path="url(#p742d378baa)" style="fill: none; stroke: #b0b0b0; stroke-width: 0.8; stroke-linecap: square"/>
     </g>
     <g id="line2d_38">
      <g>
       <use xlink:href="#m1c652cad98" x="42.828125" y="565.26358" style="stroke: #000000; stroke-width: 0.8"/>
      </g>
     </g>
     <g id="text_22">
      <!-- 0.000 -->
      <g transform="translate(7.2 569.062798) scale(0.1 -0.1)">
       <use xlink:href="#DejaVuSans-30"/>
       <use xlink:href="#DejaVuSans-2e" x="63.623047"/>
       <use xlink:href="#DejaVuSans-30" x="95.410156"/>
       <use xlink:href="#DejaVuSans-30" x="159.033203"/>
       <use xlink:href="#DejaVuSans-30" x="222.65625"/>
      </g>
     </g>
    </g>
    <g id="ytick_8">
     <g id="line2d_39">
      <path d="M 42.828125 535.200855 
L 489.228125 535.200855 
" clip-path="url(#p742d378baa)" style="fill: none; stroke: #b0b0b0; stroke-width: 0.8; stroke-linecap: square"/>
     </g>
     <g id="line2d_40">
      <g>
       <use xlink:href="#m1c652cad98" x="42.828125" y="535.200855" style="stroke: #000000; stroke-width: 0.8"/>
      </g>
     </g>
     <g id="text_23">
      <!-- 0.002 -->
      <g transform="translate(7.2 539.000074) scale(0.1 -0.1)">
       <use xlink:href="#DejaVuSans-30"/>
       <use xlink:href="#DejaVuSans-2e" x="63.623047"/>
       <use xlink:href="#DejaVuSans-30" x="95.410156"/>
       <use xlink:href="#DejaVuSans-30" x="159.033203"/>
       <use xlink:href="#DejaVuSans-32" x="222.65625"/>
      </g>
     </g>
    </g>
    <g id="ytick_9">
     <g id="line2d_41">
      <path d="M 42.828125 505.138131 
L 489.228125 505.138131 
" clip-path="url(#p742d378baa)" style="fill: none; stroke: #b0b0b0; stroke-width: 0.8; stroke-linecap: square"/>
     </g>
     <g id="line2d_42">
      <g>
       <use xlink:href="#m1c652cad98" x="42.828125" y="505.138131" style="stroke: #000000; stroke-width: 0.8"/>
      </g>
     </g>
     <g id="text_24">
      <!-- 0.004 -->
      <g transform="translate(7.2 508.93735) scale(0.1 -0.1)">
       <use xlink:href="#DejaVuSans-30"/>
       <use xlink:href="#DejaVuSans-2e" x="63.623047"/>
       <use xlink:href="#DejaVuSans-30" x="95.410156"/>
       <use xlink:href="#DejaVuSans-30" x="159.033203"/>
       <use xlink:href="#DejaVuSans-34" x="222.65625"/>
      </g>
     </g>
    </g>
    <g id="ytick_10">
     <g id="line2d_43">
      <path d="M 42.828125 475.075407 
L 489.228125 475.075407 
" clip-path="url(#p742d378baa)" style="fill: none; stroke: #b0b0b0; stroke-width: 0.8; stroke-linecap: square"/>
     </g>
     <g id="line2d_44">
      <g>
       <use xlink:href="#m1c652cad98" x="42.828125" y="475.075407" style="stroke: #000000; stroke-width: 0.8"/>
      </g>
     </g>
     <g id="text_25">
      <!-- 0.006 -->
      <g transform="translate(7.2 478.874626) scale(0.1 -0.1)">
       <use xlink:href="#DejaVuSans-30"/>
       <use xlink:href="#DejaVuSans-2e" x="63.623047"/>
       <use xlink:href="#DejaVuSans-30" x="95.410156"/>
       <use xlink:href="#DejaVuSans-30" x="159.033203"/>
       <use xlink:href="#DejaVuSans-36" x="222.65625"/>
      </g>
     </g>
    </g>
    <g id="ytick_11">
     <g id="line2d_45">
      <path d="M 42.828125 445.012683 
L 489.228125 445.012683 
" clip-path="url(#p742d378baa)" style="fill: none; stroke: #b0b0b0; stroke-width: 0.8; stroke-linecap: square"/>
     </g>
     <g id="line2d_46">
      <g>
       <use xlink:href="#m1c652cad98" x="42.828125" y="445.012683" style="stroke: #000000; stroke-width: 0.8"/>
      </g>
     </g>
     <g id="text_26">
      <!-- 0.008 -->
      <g transform="translate(7.2 448.811902) scale(0.1 -0.1)">
       <use xlink:href="#DejaVuSans-30"/>
       <use xlink:href="#DejaVuSans-2e" x="63.623047"/>
       <use xlink:href="#DejaVuSans-30" x="95.410156"/>
       <use xlink:href="#DejaVuSans-30" x="159.033203"/>
       <use xlink:href="#DejaVuSans-38" x="222.65625"/>
      </g>
     </g>
    </g>
    <g id="ytick_12">
     <g id="line2d_47">
      <path d="M 42.828125 414.949959 
L 489.228125 414.949959 
" clip-path="url(#p742d378baa)" style="fill: none; stroke: #b0b0b0; stroke-width: 0.8; stroke-linecap: square"/>
     </g>
     <g id="line2d_48">
      <g>
       <use xlink:href="#m1c652cad98" x="42.828125" y="414.949959" style="stroke: #000000; stroke-width: 0.8"/>
      </g>
     </g>
     <g id="text_27">
      <!-- 0.010 -->
      <g transform="translate(7.2 418.749177) scale(0.1 -0.1)">
       <use xlink:href="#DejaVuSans-30"/>
       <use xlink:href="#DejaVuSans-2e" x="63.623047"/>
       <use xlink:href="#DejaVuSans-30" x="95.410156"/>
       <use xlink:href="#DejaVuSans-31" x="159.033203"/>
       <use xlink:href="#DejaVuSans-30" x="222.65625"/>
      </g>
     </g>
    </g>
    <g id="ytick_13">
     <g id="line2d_49">
      <path d="M 42.828125 384.887234 
L 489.228125 384.887234 
" clip-path="url(#p742d378baa)" style="fill: none; stroke: #b0b0b0; stroke-width: 0.8; stroke-linecap: square"/>
     </g>
     <g id="line2d_50">
      <g>
       <use xlink:href="#m1c652cad98" x="42.828125" y="384.887234" style="stroke: #000000; stroke-width: 0.8"/>
      </g>
     </g>
     <g id="text_28">
      <!-- 0.012 -->
      <g transform="translate(7.2 388.686453) scale(0.1 -0.1)">
       <use xlink:href="#DejaVuSans-30"/>
       <use xlink:href="#DejaVuSans-2e" x="63.623047"/>
       <use xlink:href="#DejaVuSans-30" x="95.410156"/>
       <use xlink:href="#DejaVuSans-31" x="159.033203"/>
       <use xlink:href="#DejaVuSans-32" x="222.65625"/>
      </g>
     </g>
    </g>
    <g id="ytick_14">
     <g id="line2d_51">
      <path d="M 42.828125 354.82451 
L 489.228125 354.82451 
" clip-path="url(#p742d378baa)" style="fill: none; stroke: #b0b0b0; stroke-width: 0.8; stroke-linecap: square"/>
     </g>
     <g id="line2d_52">
      <g>
       <use xlink:href="#m1c652cad98" x="42.828125" y="354.82451" style="stroke: #000000; stroke-width: 0.8"/>
      </g>
     </g>
     <g id="text_29">
      <!-- 0.014 -->
      <g transform="translate(7.2 358.623729) scale(0.1 -0.1)">
       <use xlink:href="#DejaVuSans-30"/>
       <use xlink:href="#DejaVuSans-2e" x="63.623047"/>
       <use xlink:href="#DejaVuSans-30" x="95.410156"/>
       <use xlink:href="#DejaVuSans-31" x="159.033203"/>
       <use xlink:href="#DejaVuSans-34" x="222.65625"/>
      </g>
     </g>
    </g>
    <g id="ytick_15">
     <g id="line2d_53">
      <path d="M 42.828125 324.761786 
L 489.228125 324.761786 
" clip-path="url(#p742d378baa)" style="fill: none; stroke: #b0b0b0; stroke-width: 0.8; stroke-linecap: square"/>
     </g>
     <g id="line2d_54">
      <g>
       <use xlink:href="#m1c652cad98" x="42.828125" y="324.761786" style="stroke: #000000; stroke-width: 0.8"/>
      </g>
     </g>
     <g id="text_30">
      <!-- 0.016 -->
      <g transform="translate(7.2 328.561005) scale(0.1 -0.1)">
       <use xlink:href="#DejaVuSans-30"/>
       <use xlink:href="#DejaVuSans-2e" x="63.623047"/>
       <use xlink:href="#DejaVuSans-30" x="95.410156"/>
       <use xlink:href="#DejaVuSans-31" x="159.033203"/>
       <use xlink:href="#DejaVuSans-36" x="222.65625"/>
      </g>
     </g>
    </g>
   </g>
   <g id="line2d_55">
    <path d="M 63.119034 523.95713 
L 70.92323 540.270177 
L 78.727426 507.306118 
L 86.531622 502.778045 
L 94.335817 529.651588 
L 102.140013 530.953203 
L 109.944209 565.006296 
L 117.748405 545.759198 
L 125.552601 541.834901 
L 133.356796 553.685834 
L 141.160992 532.840645 
L 148.965188 534.119881 
L 156.769384 540.913573 
L 164.57358 542.468589 
L 172.377775 505.151283 
L 180.181971 504.293234 
L 187.986167 546.662303 
L 195.790363 545.905066 
L 203.594559 557.184067 
L 211.398754 557.965564 
L 219.20295 461.994042 
L 227.007146 494.836831 
L 234.811342 549.905877 
L 242.615538 455.976502 
L 250.419733 540.480045 
L 258.223929 556.476938 
L 266.028125 564.763802 
L 273.832321 560.104884 
L 281.636517 540.039685 
L 289.440712 475.693336 
L 297.244908 558.461864 
L 305.049104 526.119751 
L 312.8533 502.550943 
L 320.657496 512.889615 
L 328.461691 504.940236 
L 336.265887 548.755659 
L 344.070083 485.810989 
L 351.874279 535.512962 
L 359.678475 555.659293 
L 367.48267 564.329286 
L 375.286866 546.441902 
L 383.091062 531.286643 
L 390.895258 515.393621 
L 398.699454 529.088118 
L 406.503649 558.240794 
L 414.307845 541.458564 
L 422.112041 563.003773 
L 429.916237 556.998055 
L 437.720433 551.845109 
L 445.524628 545.364486 
L 453.328824 553.524339 
L 461.13302 564.65462 
L 468.937216 545.086621 
" clip-path="url(#p742d378baa)" style="fill: none; stroke: #1f77b4; stroke-opacity: 0.7; stroke-width: 1.5; stroke-linecap: square"/>
   </g>
   <g id="line2d_56">
    <path d="M 63.119034 531.662726 
L 70.92323 535.01981 
L 78.727426 561.236364 
L 86.531622 430.281983 
L 94.335817 560.774622 
L 102.140013 536.852935 
L 109.944209 554.66394 
L 117.748405 521.305497 
L 125.552601 561.651141 
L 133.356796 543.257054 
L 141.160992 543.669597 
L 148.965188 518.766024 
L 156.769384 550.761366 
L 164.57358 542.742328 
L 172.377775 512.686536 
L 180.181971 481.765239 
L 187.986167 559.060972 
L 195.790363 539.697495 
L 203.594559 562.54877 
L 211.398754 553.835882 
L 219.20295 549.14268 
L 227.007146 336.17267 
L 234.811342 416.593309 
L 242.615538 500.174813 
L 250.419733 541.859577 
L 258.223929 554.05514 
L 266.028125 565.26358 
L 273.832321 554.794496 
L 281.636517 550.647742 
L 289.440712 496.451769 
L 297.244908 459.595696 
L 305.049104 380.876802 
L 312.8533 522.747957 
L 320.657496 501.005389 
L 328.461691 437.585105 
L 336.265887 474.628378 
L 344.070083 522.01017 
L 351.874279 517.698577 
L 359.678475 563.898637 
L 367.48267 564.626719 
L 375.286866 540.589107 
L 383.091062 534.099425 
L 390.895258 521.553692 
L 398.699454 510.889995 
L 406.503649 548.613238 
L 414.307845 528.407532 
L 422.112041 551.322757 
L 429.916237 561.600998 
L 437.720433 554.502456 
L 445.524628 539.161936 
L 453.328824 557.13563 
L 461.13302 560.235674 
L 468.937216 547.897977 
" clip-path="url(#p742d378baa)" style="fill: none; stroke: #ff7f0e; stroke-opacity: 0.7; stroke-width: 1.5; stroke-linecap: square"/>
   </g>
   <g id="patch_9">
    <path d="M 42.828125 576.718125 
L 42.828125 324.718125 
" style="fill: none; stroke: #000000; stroke-width: 0.8; stroke-linejoin: miter; stroke-linecap: square"/>
   </g>
   <g id="patch_10">
    <path d="M 489.228125 576.718125 
L 489.228125 324.718125 
" style="fill: none; stroke: #000000; stroke-width: 0.8; stroke-linejoin: miter; stroke-linecap: square"/>
   </g>
   <g id="patch_11">
    <path d="M 42.828125 576.718125 
L 489.228125 576.718125 
" style="fill: none; stroke: #000000; stroke-width: 0.8; stroke-linejoin: miter; stroke-linecap: square"/>
   </g>
   <g id="patch_12">
    <path d="M 42.828125 324.718125 
L 489.228125 324.718125 
" style="fill: none; stroke: #000000; stroke-width: 0.8; stroke-linejoin: miter; stroke-linecap: square"/>
   </g>
   <g id="text_31">
    <!-- Diff radiation of transform w/o error E-plane (Phi = 0.0) -->
    <g transform="translate(100.305312 318.718125) scale(0.12 -0.12)">
     <defs>
      <path id="DejaVuSans-45" d="M 628 4666 
L 3578 4666 
L 3578 4134 
L 1259 4134 
L 1259 2753 
L 3481 2753 
L 3481 2222 
L 1259 2222 
L 1259 531 
L 3634 531 
L 3634 0 
L 628 0 
L 628 4666 
z
" transform="scale(0.015625)"/>
     </defs>
     <use xlink:href="#DejaVuSans-44"/>
     <use xlink:href="#DejaVuSans-69" x="77.001953"/>
     <use xlink:href="#DejaVuSans-66" x="104.785156"/>
     <use xlink:href="#DejaVuSans-66" x="139.990234"/>
     <use xlink:href="#DejaVuSans-20" x="175.195312"/>
     <use xlink:href="#DejaVuSans-72" x="206.982422"/>
     <use xlink:href="#DejaVuSans-61" x="248.095703"/>
     <use xlink:href="#DejaVuSans-64" x="309.375"/>
     <use xlink:href="#DejaVuSans-69" x="372.851562"/>
     <use xlink:href="#DejaVuSans-61" x="400.634766"/>
     <use xlink:href="#DejaVuSans-74" x="461.914062"/>
     <use xlink:href="#DejaVuSans-69" x="501.123047"/>
     <use xlink:href="#DejaVuSans-6f" x="528.90625"/>
     <use xlink:href="#DejaVuSans-6e" x="590.087891"/>
     <use xlink:href="#DejaVuSans-20" x="653.466797"/>
     <use xlink:href="#DejaVuSans-6f" x="685.253906"/>
     <use xlink:href="#DejaVuSans-66" x="746.435547"/>
     <use xlink:href="#DejaVuSans-20" x="781.640625"/>
     <use xlink:href="#DejaVuSans-74" x="813.427734"/>
     <use xlink:href="#DejaVuSans-72" x="852.636719"/>
     <use xlink:href="#DejaVuSans-61" x="893.75"/>
     <use xlink:href="#DejaVuSans-6e" x="955.029297"/>
     <use xlink:href="#DejaVuSans-73" x="1018.408203"/>
     <use xlink:href="#DejaVuSans-66" x="1070.507812"/>
     <use xlink:href="#DejaVuSans-6f" x="1105.712891"/>
     <use xlink:href="#DejaVuSans-72" x="1166.894531"/>
     <use xlink:href="#DejaVuSans-6d" x="1206.257812"/>
     <use xlink:href="#DejaVuSans-20" x="1303.669922"/>
     <use xlink:href="#DejaVuSans-77" x="1335.457031"/>
     <use xlink:href="#DejaVuSans-2f" x="1417.244141"/>
     <use xlink:href="#DejaVuSans-6f" x="1450.935547"/>
     <use xlink:href="#DejaVuSans-20" x="1512.117188"/>
     <use xlink:href="#DejaVuSans-65" x="1543.904297"/>
     <use xlink:href="#DejaVuSans-72" x="1605.427734"/>
     <use xlink:href="#DejaVuSans-72" x="1644.791016"/>
     <use xlink:href="#DejaVuSans-6f" x="1683.654297"/>
     <use xlink:href="#DejaVuSans-72" x="1744.835938"/>
     <use xlink:href="#DejaVuSans-20" x="1785.949219"/>
     <use xlink:href="#DejaVuSans-45" x="1817.736328"/>
     <use xlink:href="#DejaVuSans-2d" x="1880.919922"/>
     <use xlink:href="#DejaVuSans-70" x="1917.003906"/>
     <use xlink:href="#DejaVuSans-6c" x="1980.480469"/>
     <use xlink:href="#DejaVuSans-61" x="2008.263672"/>
     <use xlink:href="#DejaVuSans-6e" x="2069.542969"/>
     <use xlink:href="#DejaVuSans-65" x="2132.921875"/>
     <use xlink:href="#DejaVuSans-20" x="2194.445312"/>
     <use xlink:href="#DejaVuSans-28" x="2226.232422"/>
     <use xlink:href="#DejaVuSans-50" x="2265.246094"/>
     <use xlink:href="#DejaVuSans-68" x="2325.548828"/>
     <use xlink:href="#DejaVuSans-69" x="2388.927734"/>
     <use xlink:href="#DejaVuSans-20" x="2416.710938"/>
     <use xlink:href="#DejaVuSans-3d" x="2448.498047"/>
     <use xlink:href="#DejaVuSans-20" x="2532.287109"/>
     <use xlink:href="#DejaVuSans-30" x="2564.074219"/>
     <use xlink:href="#DejaVuSans-2e" x="2627.697266"/>
     <use xlink:href="#DejaVuSans-30" x="2659.484375"/>
     <use xlink:href="#DejaVuSans-29" x="2723.107422"/>
    </g>
   </g>
   <g id="legend_2">
    <g id="patch_13">
     <path d="M 333.403125 362.074375 
L 482.228125 362.074375 
Q 484.228125 362.074375 484.228125 360.074375 
L 484.228125 331.718125 
Q 484.228125 329.718125 482.228125 329.718125 
L 333.403125 329.718125 
Q 331.403125 329.718125 331.403125 331.718125 
L 331.403125 360.074375 
Q 331.403125 362.074375 333.403125 362.074375 
z
" style="fill: #ffffff; opacity: 0.8; stroke: #cccccc; stroke-linejoin: miter"/>
    </g>
    <g id="line2d_57">
     <path d="M 335.403125 337.816563 
L 345.403125 337.816563 
L 355.403125 337.816563 
" style="fill: none; stroke: #1f77b4; stroke-opacity: 0.7; stroke-width: 1.5; stroke-linecap: square"/>
    </g>
    <g id="text_32">
     <!-- Dif plot (smoothed) -->
     <g transform="translate(363.403125 341.316563) scale(0.1 -0.1)">
      <use xlink:href="#DejaVuSans-44"/>
      <use xlink:href="#DejaVuSans-69" x="77.001953"/>
      <use xlink:href="#DejaVuSans-66" x="104.785156"/>
      <use xlink:href="#DejaVuSans-20" x="139.990234"/>
      <use xlink:href="#DejaVuSans-70" x="171.777344"/>
      <use xlink:href="#DejaVuSans-6c" x="235.253906"/>
      <use xlink:href="#DejaVuSans-6f" x="263.037109"/>
      <use xlink:href="#DejaVuSans-74" x="324.21875"/>
      <use xlink:href="#DejaVuSans-20" x="363.427734"/>
      <use xlink:href="#DejaVuSans-28" x="395.214844"/>
      <use xlink:href="#DejaVuSans-73" x="434.228516"/>
      <use xlink:href="#DejaVuSans-6d" x="486.328125"/>
      <use xlink:href="#DejaVuSans-6f" x="583.740234"/>
      <use xlink:href="#DejaVuSans-6f" x="644.921875"/>
      <use xlink:href="#DejaVuSans-74" x="706.103516"/>
      <use xlink:href="#DejaVuSans-68" x="745.3125"/>
      <use xlink:href="#DejaVuSans-65" x="808.691406"/>
      <use xlink:href="#DejaVuSans-64" x="870.214844"/>
      <use xlink:href="#DejaVuSans-29" x="933.691406"/>
     </g>
    </g>
    <g id="line2d_58">
     <path d="M 335.403125 352.494688 
L 345.403125 352.494688 
L 355.403125 352.494688 
" style="fill: none; stroke: #ff7f0e; stroke-opacity: 0.7; stroke-width: 1.5; stroke-linecap: square"/>
    </g>
    <g id="text_33">
     <!-- Dif plot (not smoothed) -->
     <g transform="translate(363.403125 355.994688) scale(0.1 -0.1)">
      <use xlink:href="#DejaVuSans-44"/>
      <use xlink:href="#DejaVuSans-69" x="77.001953"/>
      <use xlink:href="#DejaVuSans-66" x="104.785156"/>
      <use xlink:href="#DejaVuSans-20" x="139.990234"/>
      <use xlink:href="#DejaVuSans-70" x="171.777344"/>
      <use xlink:href="#DejaVuSans-6c" x="235.253906"/>
      <use xlink:href="#DejaVuSans-6f" x="263.037109"/>
      <use xlink:href="#DejaVuSans-74" x="324.21875"/>
      <use xlink:href="#DejaVuSans-20" x="363.427734"/>
      <use xlink:href="#DejaVuSans-28" x="395.214844"/>
      <use xlink:href="#DejaVuSans-6e" x="434.228516"/>
      <use xlink:href="#DejaVuSans-6f" x="497.607422"/>
      <use xlink:href="#DejaVuSans-74" x="558.789062"/>
      <use xlink:href="#DejaVuSans-20" x="597.998047"/>
      <use xlink:href="#DejaVuSans-73" x="629.785156"/>
      <use xlink:href="#DejaVuSans-6d" x="681.884766"/>
      <use xlink:href="#DejaVuSans-6f" x="779.296875"/>
      <use xlink:href="#DejaVuSans-6f" x="840.478516"/>
      <use xlink:href="#DejaVuSans-74" x="901.660156"/>
      <use xlink:href="#DejaVuSans-68" x="940.869141"/>
      <use xlink:href="#DejaVuSans-65" x="1004.248047"/>
      <use xlink:href="#DejaVuSans-64" x="1065.771484"/>
      <use xlink:href="#DejaVuSans-29" x="1129.248047"/>
     </g>
    </g>
   </g>
  </g>
 </g>
 <defs>
  <clipPath id="p9e3bd483c7">
   <rect x="42.828125" y="22.318125" width="446.4" height="252"/>
  </clipPath>
  <clipPath id="p742d378baa">
   <rect x="42.828125" y="324.718125" width="446.4" height="252"/>
  </clipPath>
 </defs>
</svg>
