<?xml version="1.0" encoding="utf-8" standalone="no"?>
<!DOCTYPE svg PUBLIC "-//W3C//DTD SVG 1.1//EN"
  "http://www.w3.org/Graphics/SVG/1.1/DTD/svg11.dtd">
<svg xmlns:xlink="http://www.w3.org/1999/xlink" width="417.245pt" height="229.523523pt" viewBox="0 0 417.245 229.523523" xmlns="http://www.w3.org/2000/svg" version="1.1">
 <metadata>
  <rdf:RDF xmlns:dc="http://purl.org/dc/elements/1.1/" xmlns:cc="http://creativecommons.org/ns#" xmlns:rdf="http://www.w3.org/1999/02/22-rdf-syntax-ns#">
   <cc:Work>
    <dc:type rdf:resource="http://purl.org/dc/dcmitype/StillImage"/>
    <dc:date>2024-12-11T15:10:56.492039</dc:date>
    <dc:format>image/svg+xml</dc:format>
    <dc:creator>
     <cc:Agent>
      <dc:title>Matplotlib v3.8.3, https://matplotlib.org/</dc:title>
     </cc:Agent>
    </dc:creator>
   </cc:Work>
  </rdf:RDF>
 </metadata>
 <defs>
  <style type="text/css">*{stroke-linejoin: round; stroke-linecap: butt}</style>
 </defs>
 <g id="figure_1">
  <g id="patch_1">
   <path d="M 0 229.523523 
L 417.245 229.523523 
L 417.245 0 
L 0 0 
z
" style="fill: #ffffff"/>
  </g>
  <g id="axes_1">
   <g id="patch_2">
    <path d="M 195.571023 122.320824 
C 195.571023 111.662513 193.471568 101.10784 189.392809 91.260845 
C 185.31405 81.413849 179.335308 72.46603 171.798744 64.929466 
C 164.26218 57.392902 155.314361 51.414161 145.467365 47.335401 
C 135.62037 43.256642 125.065697 41.157188 114.407386 41.157188 
C 103.749075 41.157188 93.194403 43.256642 83.347407 47.335401 
C 73.500412 51.414161 64.552593 57.392902 57.016029 64.929466 
C 49.479465 72.46603 43.500723 81.413849 39.421964 91.260845 
C 35.343205 101.10784 33.24375 111.662513 33.24375 122.320824 
C 33.24375 132.979135 35.343205 143.533807 39.421964 153.380803 
C 43.500723 163.227798 49.479465 172.175617 57.016029 179.712182 
C 64.552593 187.248746 73.500412 193.227487 83.347407 197.306246 
C 93.194403 201.385005 103.749075 203.48446 114.407386 203.48446 
C 125.065697 203.48446 135.62037 201.385005 145.467365 197.306246 
C 155.314361 193.227487 164.26218 187.248746 171.798744 179.712182 
C 179.335308 172.175617 185.31405 163.227798 189.392809 153.380803 
C 193.471568 143.533807 195.571023 132.979135 195.571023 122.320824 
M 114.407386 122.320824 
C 114.407386 122.320824 114.407386 122.320824 114.407386 122.320824 
C 114.407386 122.320824 114.407386 122.320824 114.407386 122.320824 
C 114.407386 122.320824 114.407386 122.320824 114.407386 122.320824 
C 114.407386 122.320824 114.407386 122.320824 114.407386 122.320824 
C 114.407386 122.320824 114.407386 122.320824 114.407386 122.320824 
C 114.407386 122.320824 114.407386 122.320824 114.407386 122.320824 
C 114.407386 122.320824 114.407386 122.320824 114.407386 122.320824 
C 114.407386 122.320824 114.407386 122.320824 114.407386 122.320824 
C 114.407386 122.320824 114.407386 122.320824 114.407386 122.320824 
C 114.407386 122.320824 114.407386 122.320824 114.407386 122.320824 
C 114.407386 122.320824 114.407386 122.320824 114.407386 122.320824 
C 114.407386 122.320824 114.407386 122.320824 114.407386 122.320824 
C 114.407386 122.320824 114.407386 122.320824 114.407386 122.320824 
C 114.407386 122.320824 114.407386 122.320824 114.407386 122.320824 
C 114.407386 122.320824 114.407386 122.320824 114.407386 122.320824 
C 114.407386 122.320824 114.407386 122.320824 114.407386 122.320824 
z
" style="fill: #ffffff"/>
   </g>
   <g id="matplotlib.axis_1">
    <g id="xtick_1">
     <g id="line2d_1">
      <path d="M 114.407386 122.320824 
L 195.571023 122.320824 
" clip-path="url(#pfeefea0463)" style="fill: none; stroke: #b0b0b0; stroke-width: 0.8; stroke-linecap: square"/>
     </g>
     <g id="text_1">
      <!-- 0° -->
      <g transform="translate(203.889773 125.080199) scale(0.1 -0.1)">
       <defs>
        <path id="DejaVuSans-30" d="M 2034 4250 
Q 1547 4250 1301 3770 
Q 1056 3291 1056 2328 
Q 1056 1369 1301 889 
Q 1547 409 2034 409 
Q 2525 409 2770 889 
Q 3016 1369 3016 2328 
Q 3016 3291 2770 3770 
Q 2525 4250 2034 4250 
z
M 2034 4750 
Q 2819 4750 3233 4129 
Q 3647 3509 3647 2328 
Q 3647 1150 3233 529 
Q 2819 -91 2034 -91 
Q 1250 -91 836 529 
Q 422 1150 422 2328 
Q 422 3509 836 4129 
Q 1250 4750 2034 4750 
z
" transform="scale(0.015625)"/>
        <path id="DejaVuSans-b0" d="M 1600 4347 
Q 1350 4347 1178 4173 
Q 1006 4000 1006 3750 
Q 1006 3503 1178 3333 
Q 1350 3163 1600 3163 
Q 1850 3163 2022 3333 
Q 2194 3503 2194 3750 
Q 2194 3997 2020 4172 
Q 1847 4347 1600 4347 
z
M 1600 4750 
Q 1800 4750 1984 4673 
Q 2169 4597 2303 4453 
Q 2447 4313 2519 4134 
Q 2591 3956 2591 3750 
Q 2591 3338 2302 3052 
Q 2013 2766 1594 2766 
Q 1172 2766 890 3047 
Q 609 3328 609 3750 
Q 609 4169 896 4459 
Q 1184 4750 1600 4750 
z
" transform="scale(0.015625)"/>
       </defs>
       <use xlink:href="#DejaVuSans-30"/>
       <use xlink:href="#DejaVuSans-b0" x="63.623047"/>
      </g>
     </g>
    </g>
    <g id="xtick_2">
     <g id="line2d_2">
      <path d="M 114.407386 122.320824 
L 171.798744 64.929466 
" clip-path="url(#pfeefea0463)" style="fill: none; stroke: #b0b0b0; stroke-width: 0.8; stroke-linecap: square"/>
     </g>
     <g id="text_2">
      <!-- 45° -->
      <g transform="translate(172.835739 57.789346) scale(0.1 -0.1)">
       <defs>
        <path id="DejaVuSans-34" d="M 2419 4116 
L 825 1625 
L 2419 1625 
L 2419 4116 
z
M 2253 4666 
L 3047 4666 
L 3047 1625 
L 3713 1625 
L 3713 1100 
L 3047 1100 
L 3047 0 
L 2419 0 
L 2419 1100 
L 313 1100 
L 313 1709 
L 2253 4666 
z
" transform="scale(0.015625)"/>
        <path id="DejaVuSans-35" d="M 691 4666 
L 3169 4666 
L 3169 4134 
L 1269 4134 
L 1269 2991 
Q 1406 3038 1543 3061 
Q 1681 3084 1819 3084 
Q 2600 3084 3056 2656 
Q 3513 2228 3513 1497 
Q 3513 744 3044 326 
Q 2575 -91 1722 -91 
Q 1428 -91 1123 -41 
Q 819 9 494 109 
L 494 744 
Q 775 591 1075 516 
Q 1375 441 1709 441 
Q 2250 441 2565 725 
Q 2881 1009 2881 1497 
Q 2881 1984 2565 2268 
Q 2250 2553 1709 2553 
Q 1456 2553 1204 2497 
Q 953 2441 691 2322 
L 691 4666 
z
" transform="scale(0.015625)"/>
       </defs>
       <use xlink:href="#DejaVuSans-34"/>
       <use xlink:href="#DejaVuSans-35" x="63.623047"/>
       <use xlink:href="#DejaVuSans-b0" x="127.246094"/>
      </g>
     </g>
    </g>
    <g id="xtick_3">
     <g id="line2d_3">
      <path d="M 114.407386 122.320824 
L 114.407386 41.157188 
" clip-path="url(#pfeefea0463)" style="fill: none; stroke: #b0b0b0; stroke-width: 0.8; stroke-linecap: square"/>
     </g>
     <g id="text_3">
      <!-- 90° -->
      <g transform="translate(105.544886 29.916563) scale(0.1 -0.1)">
       <defs>
        <path id="DejaVuSans-39" d="M 703 97 
L 703 672 
Q 941 559 1184 500 
Q 1428 441 1663 441 
Q 2288 441 2617 861 
Q 2947 1281 2994 2138 
Q 2813 1869 2534 1725 
Q 2256 1581 1919 1581 
Q 1219 1581 811 2004 
Q 403 2428 403 3163 
Q 403 3881 828 4315 
Q 1253 4750 1959 4750 
Q 2769 4750 3195 4129 
Q 3622 3509 3622 2328 
Q 3622 1225 3098 567 
Q 2575 -91 1691 -91 
Q 1453 -91 1209 -44 
Q 966 3 703 97 
z
M 1959 2075 
Q 2384 2075 2632 2365 
Q 2881 2656 2881 3163 
Q 2881 3666 2632 3958 
Q 2384 4250 1959 4250 
Q 1534 4250 1286 3958 
Q 1038 3666 1038 3163 
Q 1038 2656 1286 2365 
Q 1534 2075 1959 2075 
z
" transform="scale(0.015625)"/>
       </defs>
       <use xlink:href="#DejaVuSans-39"/>
       <use xlink:href="#DejaVuSans-30" x="63.623047"/>
       <use xlink:href="#DejaVuSans-b0" x="127.246094"/>
      </g>
     </g>
    </g>
    <g id="xtick_4">
     <g id="line2d_4">
      <path d="M 114.407386 122.320824 
L 57.016029 64.929466 
" clip-path="url(#pfeefea0463)" style="fill: none; stroke: #b0b0b0; stroke-width: 0.8; stroke-linecap: square"/>
     </g>
     <g id="text_4">
      <!-- 135° -->
      <g transform="translate(35.072784 57.789346) scale(0.1 -0.1)">
       <defs>
        <path id="DejaVuSans-31" d="M 794 531 
L 1825 531 
L 1825 4091 
L 703 3866 
L 703 4441 
L 1819 4666 
L 2450 4666 
L 2450 531 
L 3481 531 
L 3481 0 
L 794 0 
L 794 531 
z
" transform="scale(0.015625)"/>
        <path id="DejaVuSans-33" d="M 2597 2516 
Q 3050 2419 3304 2112 
Q 3559 1806 3559 1356 
Q 3559 666 3084 287 
Q 2609 -91 1734 -91 
Q 1441 -91 1130 -33 
Q 819 25 488 141 
L 488 750 
Q 750 597 1062 519 
Q 1375 441 1716 441 
Q 2309 441 2620 675 
Q 2931 909 2931 1356 
Q 2931 1769 2642 2001 
Q 2353 2234 1838 2234 
L 1294 2234 
L 1294 2753 
L 1863 2753 
Q 2328 2753 2575 2939 
Q 2822 3125 2822 3475 
Q 2822 3834 2567 4026 
Q 2313 4219 1838 4219 
Q 1578 4219 1281 4162 
Q 984 4106 628 3988 
L 628 4550 
Q 988 4650 1302 4700 
Q 1616 4750 1894 4750 
Q 2613 4750 3031 4423 
Q 3450 4097 3450 3541 
Q 3450 3153 3228 2886 
Q 3006 2619 2597 2516 
z
" transform="scale(0.015625)"/>
       </defs>
       <use xlink:href="#DejaVuSans-31"/>
       <use xlink:href="#DejaVuSans-33" x="63.623047"/>
       <use xlink:href="#DejaVuSans-35" x="127.246094"/>
       <use xlink:href="#DejaVuSans-b0" x="190.869141"/>
      </g>
     </g>
    </g>
    <g id="xtick_5">
     <g id="line2d_5">
      <path d="M 114.407386 122.320824 
L 33.24375 122.320824 
" clip-path="url(#pfeefea0463)" style="fill: none; stroke: #b0b0b0; stroke-width: 0.8; stroke-linecap: square"/>
     </g>
     <g id="text_5">
      <!-- 180° -->
      <g transform="translate(7.2 125.080199) scale(0.1 -0.1)">
       <defs>
        <path id="DejaVuSans-38" d="M 2034 2216 
Q 1584 2216 1326 1975 
Q 1069 1734 1069 1313 
Q 1069 891 1326 650 
Q 1584 409 2034 409 
Q 2484 409 2743 651 
Q 3003 894 3003 1313 
Q 3003 1734 2745 1975 
Q 2488 2216 2034 2216 
z
M 1403 2484 
Q 997 2584 770 2862 
Q 544 3141 544 3541 
Q 544 4100 942 4425 
Q 1341 4750 2034 4750 
Q 2731 4750 3128 4425 
Q 3525 4100 3525 3541 
Q 3525 3141 3298 2862 
Q 3072 2584 2669 2484 
Q 3125 2378 3379 2068 
Q 3634 1759 3634 1313 
Q 3634 634 3220 271 
Q 2806 -91 2034 -91 
Q 1263 -91 848 271 
Q 434 634 434 1313 
Q 434 1759 690 2068 
Q 947 2378 1403 2484 
z
M 1172 3481 
Q 1172 3119 1398 2916 
Q 1625 2713 2034 2713 
Q 2441 2713 2670 2916 
Q 2900 3119 2900 3481 
Q 2900 3844 2670 4047 
Q 2441 4250 2034 4250 
Q 1625 4250 1398 4047 
Q 1172 3844 1172 3481 
z
" transform="scale(0.015625)"/>
       </defs>
       <use xlink:href="#DejaVuSans-31"/>
       <use xlink:href="#DejaVuSans-38" x="63.623047"/>
       <use xlink:href="#DejaVuSans-30" x="127.246094"/>
       <use xlink:href="#DejaVuSans-b0" x="190.869141"/>
      </g>
     </g>
    </g>
    <g id="xtick_6">
     <g id="line2d_6">
      <path d="M 114.407386 122.320824 
L 57.016029 179.712182 
" clip-path="url(#pfeefea0463)" style="fill: none; stroke: #b0b0b0; stroke-width: 0.8; stroke-linecap: square"/>
     </g>
     <g id="text_6">
      <!-- 225° -->
      <g transform="translate(35.072784 192.371051) scale(0.1 -0.1)">
       <defs>
        <path id="DejaVuSans-32" d="M 1228 531 
L 3431 531 
L 3431 0 
L 469 0 
L 469 531 
Q 828 903 1448 1529 
Q 2069 2156 2228 2338 
Q 2531 2678 2651 2914 
Q 2772 3150 2772 3378 
Q 2772 3750 2511 3984 
Q 2250 4219 1831 4219 
Q 1534 4219 1204 4116 
Q 875 4013 500 3803 
L 500 4441 
Q 881 4594 1212 4672 
Q 1544 4750 1819 4750 
Q 2544 4750 2975 4387 
Q 3406 4025 3406 3419 
Q 3406 3131 3298 2873 
Q 3191 2616 2906 2266 
Q 2828 2175 2409 1742 
Q 1991 1309 1228 531 
z
" transform="scale(0.015625)"/>
       </defs>
       <use xlink:href="#DejaVuSans-32"/>
       <use xlink:href="#DejaVuSans-32" x="63.623047"/>
       <use xlink:href="#DejaVuSans-35" x="127.246094"/>
       <use xlink:href="#DejaVuSans-b0" x="190.869141"/>
      </g>
     </g>
    </g>
    <g id="xtick_7">
     <g id="line2d_7">
      <path d="M 114.407386 122.320824 
L 114.407386 203.48446 
" clip-path="url(#pfeefea0463)" style="fill: none; stroke: #b0b0b0; stroke-width: 0.8; stroke-linecap: square"/>
     </g>
     <g id="text_7">
      <!-- 270° -->
      <g transform="translate(102.363636 220.243835) scale(0.1 -0.1)">
       <defs>
        <path id="DejaVuSans-37" d="M 525 4666 
L 3525 4666 
L 3525 4397 
L 1831 0 
L 1172 0 
L 2766 4134 
L 525 4134 
L 525 4666 
z
" transform="scale(0.015625)"/>
       </defs>
       <use xlink:href="#DejaVuSans-32"/>
       <use xlink:href="#DejaVuSans-37" x="63.623047"/>
       <use xlink:href="#DejaVuSans-30" x="127.246094"/>
       <use xlink:href="#DejaVuSans-b0" x="190.869141"/>
      </g>
     </g>
    </g>
    <g id="xtick_8">
     <g id="line2d_8">
      <path d="M 114.407386 122.320824 
L 171.798744 179.712182 
" clip-path="url(#pfeefea0463)" style="fill: none; stroke: #b0b0b0; stroke-width: 0.8; stroke-linecap: square"/>
     </g>
     <g id="text_8">
      <!-- 315° -->
      <g transform="translate(169.654489 192.371051) scale(0.1 -0.1)">
       <use xlink:href="#DejaVuSans-33"/>
       <use xlink:href="#DejaVuSans-31" x="63.623047"/>
       <use xlink:href="#DejaVuSans-35" x="127.246094"/>
       <use xlink:href="#DejaVuSans-b0" x="190.869141"/>
      </g>
     </g>
    </g>
   </g>
   <g id="matplotlib.axis_2">
    <g id="ytick_1">
     <g id="line2d_9">
      <path d="M 120.464591 122.320824 
C 120.464591 121.525399 120.30791 120.737709 120.003514 120.002832 
C 119.699118 119.267955 119.252927 118.600183 118.690477 118.037733 
C 118.128027 117.475283 117.460255 117.029092 116.725378 116.724696 
C 115.990502 116.4203 115.202811 116.263619 114.407386 116.263619 
C 113.611961 116.263619 112.824271 116.4203 112.089394 116.724696 
C 111.354518 117.029092 110.686746 117.475283 110.124296 118.037733 
C 109.561845 118.600183 109.115655 119.267955 108.811259 120.002832 
C 108.506863 120.737709 108.350181 121.525399 108.350181 122.320824 
C 108.350181 123.116249 108.506863 123.903939 108.811259 124.638816 
C 109.115655 125.373693 109.561845 126.041464 110.124296 126.603915 
C 110.686746 127.166365 111.354518 127.612556 112.089394 127.916952 
C 112.824271 128.221348 113.611961 128.378029 114.407386 128.378029 
C 115.202811 128.378029 115.990502 128.221348 116.725378 127.916952 
C 117.460255 127.612556 118.128027 127.166365 118.690477 126.603915 
C 119.252927 126.041464 119.699118 125.373693 120.003514 124.638816 
C 120.30791 123.903939 120.464591 123.116249 120.464591 122.320824 
" clip-path="url(#pfeefea0463)" style="fill: none; stroke: #b0b0b0; stroke-width: 0.8; stroke-linecap: square"/>
     </g>
     <g id="text_9">
      <!-- −25 -->
      <g transform="translate(120.003514 117.923144) scale(0.1 -0.1)">
       <defs>
        <path id="DejaVuSans-2212" d="M 678 2272 
L 4684 2272 
L 4684 1741 
L 678 1741 
L 678 2272 
z
" transform="scale(0.015625)"/>
       </defs>
       <use xlink:href="#DejaVuSans-2212"/>
       <use xlink:href="#DejaVuSans-32" x="83.789062"/>
       <use xlink:href="#DejaVuSans-35" x="147.412109"/>
      </g>
     </g>
    </g>
    <g id="ytick_2">
     <g id="line2d_10">
      <path d="M 135.485878 122.320824 
C 135.485878 119.552822 134.940642 116.811735 133.881373 114.254434 
C 132.822104 111.697134 131.269404 109.373353 129.31213 107.41608 
C 127.354857 105.458807 125.031076 103.906106 122.473776 102.846837 
C 119.916475 101.787569 117.175388 101.242333 114.407386 101.242333 
C 111.639384 101.242333 108.898297 101.787569 106.340997 102.846837 
C 103.783696 103.906106 101.459915 105.458807 99.502642 107.41608 
C 97.545369 109.373353 95.992668 111.697134 94.9334 114.254434 
C 93.874131 116.811735 93.328895 119.552822 93.328895 122.320824 
C 93.328895 125.088826 93.874131 127.829913 94.9334 130.387213 
C 95.992668 132.944514 97.545369 135.268295 99.502642 137.225568 
C 101.459915 139.182841 103.783696 140.735542 106.340997 141.794811 
C 108.898297 142.854079 111.639384 143.399315 114.407386 143.399315 
C 117.175388 143.399315 119.916475 142.854079 122.473776 141.794811 
C 125.031076 140.735542 127.354857 139.182841 129.31213 137.225568 
C 131.269404 135.268295 132.822104 132.944514 133.881373 130.387213 
C 134.940642 127.829913 135.485878 125.088826 135.485878 122.320824 
" clip-path="url(#pfeefea0463)" style="fill: none; stroke: #b0b0b0; stroke-width: 0.8; stroke-linecap: square"/>
     </g>
     <g id="text_10">
      <!-- −20 -->
      <g transform="translate(133.881373 112.174747) scale(0.1 -0.1)">
       <use xlink:href="#DejaVuSans-2212"/>
       <use xlink:href="#DejaVuSans-32" x="83.789062"/>
       <use xlink:href="#DejaVuSans-30" x="147.412109"/>
      </g>
     </g>
    </g>
    <g id="ytick_3">
     <g id="line2d_11">
      <path d="M 150.507164 122.320824 
C 150.507164 117.580245 149.573373 112.885761 147.759232 108.506037 
C 145.945091 104.126313 143.28588 100.146522 139.933784 96.794426 
C 136.581688 93.442331 132.601897 90.783119 128.222173 88.968978 
C 123.842449 87.154837 119.147966 86.221046 114.407386 86.221046 
C 109.666807 86.221046 104.972324 87.154837 100.5926 88.968978 
C 96.212875 90.783119 92.233085 93.442331 88.880989 96.794426 
C 85.528893 100.146522 82.869682 104.126313 81.055541 108.506037 
C 79.2414 112.885761 78.307609 117.580245 78.307609 122.320824 
C 78.307609 127.061403 79.2414 131.755886 81.055541 136.135611 
C 82.869682 140.515335 85.528893 144.495126 88.880989 147.847221 
C 92.233085 151.199317 96.212875 153.858528 100.5926 155.672669 
C 104.972324 157.486811 109.666807 158.420601 114.407386 158.420601 
C 119.147966 158.420601 123.842449 157.486811 128.222173 155.672669 
C 132.601897 153.858528 136.581688 151.199317 139.933784 147.847221 
C 143.28588 144.495126 145.945091 140.515335 147.759232 136.135611 
C 149.573373 131.755886 150.507164 127.061403 150.507164 122.320824 
" clip-path="url(#pfeefea0463)" style="fill: none; stroke: #b0b0b0; stroke-width: 0.8; stroke-linecap: square"/>
     </g>
     <g id="text_11">
      <!-- −15 -->
      <g transform="translate(147.759232 106.42635) scale(0.1 -0.1)">
       <use xlink:href="#DejaVuSans-2212"/>
       <use xlink:href="#DejaVuSans-31" x="83.789062"/>
       <use xlink:href="#DejaVuSans-35" x="147.412109"/>
      </g>
     </g>
    </g>
    <g id="ytick_4">
     <g id="line2d_12">
      <path d="M 165.52845 122.320824 
C 165.52845 115.607667 164.206105 108.959788 161.637091 102.75764 
C 159.068077 96.555492 155.302356 90.919692 150.555437 86.172773 
C 145.808519 81.425854 140.172719 77.660133 133.970571 75.091119 
C 127.768423 72.522106 121.120543 71.19976 114.407386 71.19976 
C 107.69423 71.19976 101.04635 72.522106 94.844202 75.091119 
C 88.642054 77.660133 83.006254 81.425854 78.259335 86.172773 
C 73.512417 90.919692 69.746696 96.555492 67.177682 102.75764 
C 64.608668 108.959788 63.286323 115.607667 63.286323 122.320824 
C 63.286323 129.03398 64.608668 135.68186 67.177682 141.884008 
C 69.746696 148.086156 73.512417 153.721956 78.259335 158.468875 
C 83.006254 163.215793 88.642054 166.981515 94.844202 169.550528 
C 101.04635 172.119542 107.69423 173.441888 114.407386 173.441888 
C 121.120543 173.441888 127.768423 172.119542 133.970571 169.550528 
C 140.172719 166.981515 145.808519 163.215793 150.555437 158.468875 
C 155.302356 153.721956 159.068077 148.086156 161.637091 141.884008 
C 164.206105 135.68186 165.52845 129.03398 165.52845 122.320824 
" clip-path="url(#pfeefea0463)" style="fill: none; stroke: #b0b0b0; stroke-width: 0.8; stroke-linecap: square"/>
     </g>
     <g id="text_12">
      <!-- −10 -->
      <g transform="translate(161.637091 100.677952) scale(0.1 -0.1)">
       <use xlink:href="#DejaVuSans-2212"/>
       <use xlink:href="#DejaVuSans-31" x="83.789062"/>
       <use xlink:href="#DejaVuSans-30" x="147.412109"/>
      </g>
     </g>
    </g>
    <g id="ytick_5">
     <g id="line2d_13">
      <path d="M 180.549736 122.320824 
C 180.549736 113.63509 178.838836 105.033814 175.51495 97.009242 
C 172.191063 88.984671 167.318832 81.692861 161.177091 75.55112 
C 155.035349 69.409378 147.74354 64.537147 139.718968 61.21326 
C 131.694396 57.889374 123.09312 56.178474 114.407386 56.178474 
C 105.721653 56.178474 97.120377 57.889374 89.095805 61.21326 
C 81.071233 64.537147 73.779423 69.409378 67.637682 75.55112 
C 61.495941 81.692861 56.623709 88.984671 53.299823 97.009242 
C 49.975936 105.033814 48.265036 113.63509 48.265036 122.320824 
C 48.265036 131.006558 49.975936 139.607834 53.299823 147.632405 
C 56.623709 155.656977 61.495941 162.948787 67.637682 169.090528 
C 73.779423 175.232269 81.071233 180.104501 89.095805 183.428387 
C 97.120377 186.752274 105.721653 188.463174 114.407386 188.463174 
C 123.09312 188.463174 131.694396 186.752274 139.718968 183.428387 
C 147.74354 180.104501 155.035349 175.232269 161.177091 169.090528 
C 167.318832 162.948787 172.191063 155.656977 175.51495 147.632405 
C 178.838836 139.607834 180.549736 131.006558 180.549736 122.320824 
" clip-path="url(#pfeefea0463)" style="fill: none; stroke: #b0b0b0; stroke-width: 0.8; stroke-linecap: square"/>
     </g>
     <g id="text_13">
      <!-- −5 -->
      <g transform="translate(175.51495 94.929555) scale(0.1 -0.1)">
       <use xlink:href="#DejaVuSans-2212"/>
       <use xlink:href="#DejaVuSans-35" x="83.789062"/>
      </g>
     </g>
    </g>
    <g id="ytick_6">
     <g id="line2d_14">
      <path d="M 195.571023 122.320824 
C 195.571023 111.662513 193.471568 101.10784 189.392809 91.260845 
C 185.31405 81.413849 179.335308 72.46603 171.798744 64.929466 
C 164.26218 57.392902 155.314361 51.414161 145.467365 47.335401 
C 135.62037 43.256642 125.065697 41.157188 114.407386 41.157188 
C 103.749075 41.157188 93.194403 43.256642 83.347407 47.335401 
C 73.500412 51.414161 64.552593 57.392902 57.016029 64.929466 
C 49.479465 72.46603 43.500723 81.413849 39.421964 91.260845 
C 35.343205 101.10784 33.24375 111.662513 33.24375 122.320824 
C 33.24375 132.979135 35.343205 143.533807 39.421964 153.380803 
C 43.500723 163.227798 49.479465 172.175617 57.016029 179.712182 
C 64.552593 187.248746 73.500412 193.227487 83.347407 197.306246 
C 93.194403 201.385005 103.749075 203.48446 114.407386 203.48446 
C 125.065697 203.48446 135.62037 201.385005 145.467365 197.306246 
C 155.314361 193.227487 164.26218 187.248746 171.798744 179.712182 
C 179.335308 172.175617 185.31405 163.227798 189.392809 153.380803 
C 193.471568 143.533807 195.571023 132.979135 195.571023 122.320824 
" clip-path="url(#pfeefea0463)" style="fill: none; stroke: #b0b0b0; stroke-width: 0.8; stroke-linecap: square"/>
     </g>
     <g id="text_14">
      <!-- 0 -->
      <g transform="translate(189.392809 89.181157) scale(0.1 -0.1)">
       <use xlink:href="#DejaVuSans-30"/>
      </g>
     </g>
    </g>
   </g>
   <g id="line2d_15">
    <path d="M 95.216034 145.192187 
L 100.289853 142.48275 
L 102.828864 142.375414 
L 102.452909 147.957283 
L 104.170001 150.447808 
L 109.353855 141.18086 
L 113.320085 128.487217 
L 114.050197 126.403513 
L 114.407386 135.60905 
L 116.098507 141.650425 
L 117.388245 139.226112 
L 118.131675 136.22006 
L 119.865589 137.317112 
L 122.799702 140.318203 
L 123.818739 138.621765 
L 118.582255 128.283155 
L 116.886773 125.275641 
L 124.875897 132.789335 
L 139.370447 143.267319 
L 147.337671 145.378857 
L 147.002004 141.139335 
L 141.804421 135.096271 
L 147.245367 134.272871 
L 165.668542 136.056209 
L 184.171407 134.622103 
L 192.662033 129.167218 
L 195.409434 122.320824 
L 192.84047 115.458818 
L 184.828847 109.90362 
L 166.84323 108.270682 
L 147.73393 110.190954 
L 141.516786 109.679503 
L 146.33089 103.88978 
L 147.208642 99.353138 
L 139.60015 101.181585 
L 125.203578 111.524632 
L 116.893346 119.358173 
L 118.378017 116.650175 
L 123.78063 106.085889 
L 122.95703 103.986054 
L 119.915575 107.1872 
L 118.007625 108.884551 
L 117.279245 106.033704 
L 116.116318 102.787651 
L 114.407386 107.617997 
L 114.023787 117.936262 
L 113.540693 117.405561 
L 109.842203 105.283328 
L 104.342944 94.668997 
L 102.297157 96.350352 
L 102.443242 101.598317 
L 99.883024 101.577885 
L 95.114311 99.328232 
" clip-path="url(#pfeefea0463)" style="fill: none; stroke: #1f77b4; stroke-width: 1.5; stroke-linecap: square"/>
   </g>
   <g id="patch_3">
    <path d="M 195.571023 122.320824 
C 195.571023 111.662513 193.471568 101.10784 189.392809 91.260845 
C 185.31405 81.413849 179.335308 72.46603 171.798744 64.929466 
C 164.26218 57.392902 155.314361 51.414161 145.467365 47.335401 
C 135.62037 43.256642 125.065697 41.157188 114.407386 41.157188 
C 103.749075 41.157188 93.194403 43.256642 83.347407 47.335401 
C 73.500412 51.414161 64.552593 57.392902 57.016029 64.929466 
C 49.479465 72.46603 43.500723 81.413849 39.421964 91.260845 
C 35.343205 101.10784 33.24375 111.662513 33.24375 122.320824 
C 33.24375 132.979135 35.343205 143.533807 39.421964 153.380803 
C 43.500723 163.227798 49.479465 172.175617 57.016029 179.712182 
C 64.552593 187.248746 73.500412 193.227487 83.347407 197.306246 
C 93.194403 201.385005 103.749075 203.48446 114.407386 203.48446 
C 125.065697 203.48446 135.62037 201.385005 145.467365 197.306246 
C 155.314361 193.227487 164.26218 187.248746 171.798744 179.712182 
C 179.335308 172.175617 185.31405 163.227798 189.392809 153.380803 
C 193.471568 143.533807 195.571023 132.979135 195.571023 122.320824 
" style="fill: none; stroke: #000000; stroke-width: 0.8; stroke-linejoin: miter; stroke-linecap: square"/>
   </g>
   <g id="text_15">
    <!-- E-Plane (Phi = 0.0) -->
    <g transform="translate(57.936136 16.318125) scale(0.12 -0.12)">
     <defs>
      <path id="DejaVuSans-45" d="M 628 4666 
L 3578 4666 
L 3578 4134 
L 1259 4134 
L 1259 2753 
L 3481 2753 
L 3481 2222 
L 1259 2222 
L 1259 531 
L 3634 531 
L 3634 0 
L 628 0 
L 628 4666 
z
" transform="scale(0.015625)"/>
      <path id="DejaVuSans-2d" d="M 313 2009 
L 1997 2009 
L 1997 1497 
L 313 1497 
L 313 2009 
z
" transform="scale(0.015625)"/>
      <path id="DejaVuSans-50" d="M 1259 4147 
L 1259 2394 
L 2053 2394 
Q 2494 2394 2734 2622 
Q 2975 2850 2975 3272 
Q 2975 3691 2734 3919 
Q 2494 4147 2053 4147 
L 1259 4147 
z
M 628 4666 
L 2053 4666 
Q 2838 4666 3239 4311 
Q 3641 3956 3641 3272 
Q 3641 2581 3239 2228 
Q 2838 1875 2053 1875 
L 1259 1875 
L 1259 0 
L 628 0 
L 628 4666 
z
" transform="scale(0.015625)"/>
      <path id="DejaVuSans-6c" d="M 603 4863 
L 1178 4863 
L 1178 0 
L 603 0 
L 603 4863 
z
" transform="scale(0.015625)"/>
      <path id="DejaVuSans-61" d="M 2194 1759 
Q 1497 1759 1228 1600 
Q 959 1441 959 1056 
Q 959 750 1161 570 
Q 1363 391 1709 391 
Q 2188 391 2477 730 
Q 2766 1069 2766 1631 
L 2766 1759 
L 2194 1759 
z
M 3341 1997 
L 3341 0 
L 2766 0 
L 2766 531 
Q 2569 213 2275 61 
Q 1981 -91 1556 -91 
Q 1019 -91 701 211 
Q 384 513 384 1019 
Q 384 1609 779 1909 
Q 1175 2209 1959 2209 
L 2766 2209 
L 2766 2266 
Q 2766 2663 2505 2880 
Q 2244 3097 1772 3097 
Q 1472 3097 1187 3025 
Q 903 2953 641 2809 
L 641 3341 
Q 956 3463 1253 3523 
Q 1550 3584 1831 3584 
Q 2591 3584 2966 3190 
Q 3341 2797 3341 1997 
z
" transform="scale(0.015625)"/>
      <path id="DejaVuSans-6e" d="M 3513 2113 
L 3513 0 
L 2938 0 
L 2938 2094 
Q 2938 2591 2744 2837 
Q 2550 3084 2163 3084 
Q 1697 3084 1428 2787 
Q 1159 2491 1159 1978 
L 1159 0 
L 581 0 
L 581 3500 
L 1159 3500 
L 1159 2956 
Q 1366 3272 1645 3428 
Q 1925 3584 2291 3584 
Q 2894 3584 3203 3211 
Q 3513 2838 3513 2113 
z
" transform="scale(0.015625)"/>
      <path id="DejaVuSans-65" d="M 3597 1894 
L 3597 1613 
L 953 1613 
Q 991 1019 1311 708 
Q 1631 397 2203 397 
Q 2534 397 2845 478 
Q 3156 559 3463 722 
L 3463 178 
Q 3153 47 2828 -22 
Q 2503 -91 2169 -91 
Q 1331 -91 842 396 
Q 353 884 353 1716 
Q 353 2575 817 3079 
Q 1281 3584 2069 3584 
Q 2775 3584 3186 3129 
Q 3597 2675 3597 1894 
z
M 3022 2063 
Q 3016 2534 2758 2815 
Q 2500 3097 2075 3097 
Q 1594 3097 1305 2825 
Q 1016 2553 972 2059 
L 3022 2063 
z
" transform="scale(0.015625)"/>
      <path id="DejaVuSans-20" transform="scale(0.015625)"/>
      <path id="DejaVuSans-28" d="M 1984 4856 
Q 1566 4138 1362 3434 
Q 1159 2731 1159 2009 
Q 1159 1288 1364 580 
Q 1569 -128 1984 -844 
L 1484 -844 
Q 1016 -109 783 600 
Q 550 1309 550 2009 
Q 550 2706 781 3412 
Q 1013 4119 1484 4856 
L 1984 4856 
z
" transform="scale(0.015625)"/>
      <path id="DejaVuSans-68" d="M 3513 2113 
L 3513 0 
L 2938 0 
L 2938 2094 
Q 2938 2591 2744 2837 
Q 2550 3084 2163 3084 
Q 1697 3084 1428 2787 
Q 1159 2491 1159 1978 
L 1159 0 
L 581 0 
L 581 4863 
L 1159 4863 
L 1159 2956 
Q 1366 3272 1645 3428 
Q 1925 3584 2291 3584 
Q 2894 3584 3203 3211 
Q 3513 2838 3513 2113 
z
" transform="scale(0.015625)"/>
      <path id="DejaVuSans-69" d="M 603 3500 
L 1178 3500 
L 1178 0 
L 603 0 
L 603 3500 
z
M 603 4863 
L 1178 4863 
L 1178 4134 
L 603 4134 
L 603 4863 
z
" transform="scale(0.015625)"/>
      <path id="DejaVuSans-3d" d="M 678 2906 
L 4684 2906 
L 4684 2381 
L 678 2381 
L 678 2906 
z
M 678 1631 
L 4684 1631 
L 4684 1100 
L 678 1100 
L 678 1631 
z
" transform="scale(0.015625)"/>
      <path id="DejaVuSans-2e" d="M 684 794 
L 1344 794 
L 1344 0 
L 684 0 
L 684 794 
z
" transform="scale(0.015625)"/>
      <path id="DejaVuSans-29" d="M 513 4856 
L 1013 4856 
Q 1481 4119 1714 3412 
Q 1947 2706 1947 2009 
Q 1947 1309 1714 600 
Q 1481 -109 1013 -844 
L 513 -844 
Q 928 -128 1133 580 
Q 1338 1288 1338 2009 
Q 1338 2731 1133 3434 
Q 928 4138 513 4856 
z
" transform="scale(0.015625)"/>
     </defs>
     <use xlink:href="#DejaVuSans-45"/>
     <use xlink:href="#DejaVuSans-2d" x="63.183594"/>
     <use xlink:href="#DejaVuSans-50" x="99.267578"/>
     <use xlink:href="#DejaVuSans-6c" x="159.570312"/>
     <use xlink:href="#DejaVuSans-61" x="187.353516"/>
     <use xlink:href="#DejaVuSans-6e" x="248.632812"/>
     <use xlink:href="#DejaVuSans-65" x="312.011719"/>
     <use xlink:href="#DejaVuSans-20" x="373.535156"/>
     <use xlink:href="#DejaVuSans-28" x="405.322266"/>
     <use xlink:href="#DejaVuSans-50" x="444.335938"/>
     <use xlink:href="#DejaVuSans-68" x="504.638672"/>
     <use xlink:href="#DejaVuSans-69" x="568.017578"/>
     <use xlink:href="#DejaVuSans-20" x="595.800781"/>
     <use xlink:href="#DejaVuSans-3d" x="627.587891"/>
     <use xlink:href="#DejaVuSans-20" x="711.376953"/>
     <use xlink:href="#DejaVuSans-30" x="743.164062"/>
     <use xlink:href="#DejaVuSans-2e" x="806.787109"/>
     <use xlink:href="#DejaVuSans-30" x="838.574219"/>
     <use xlink:href="#DejaVuSans-29" x="902.197266"/>
    </g>
   </g>
  </g>
  <g id="axes_2">
   <g id="patch_4">
    <path d="M 390.36375 122.320824 
C 390.36375 111.662513 388.264295 101.10784 384.185536 91.260845 
C 380.106777 81.413849 374.128035 72.46603 366.591471 64.929466 
C 359.054907 57.392902 350.107088 51.414161 340.260093 47.335401 
C 330.413097 43.256642 319.858425 41.157188 309.200114 41.157188 
C 298.541803 41.157188 287.98713 43.256642 278.140135 47.335401 
C 268.293139 51.414161 259.34532 57.392902 251.808756 64.929466 
C 244.272192 72.46603 238.29345 81.413849 234.214691 91.260845 
C 230.135932 101.10784 228.036477 111.662513 228.036477 122.320824 
C 228.036477 132.979135 230.135932 143.533807 234.214691 153.380803 
C 238.29345 163.227798 244.272192 172.175617 251.808756 179.712182 
C 259.34532 187.248746 268.293139 193.227487 278.140135 197.306246 
C 287.98713 201.385005 298.541803 203.48446 309.200114 203.48446 
C 319.858425 203.48446 330.413097 201.385005 340.260093 197.306246 
C 350.107088 193.227487 359.054907 187.248746 366.591471 179.712182 
C 374.128035 172.175617 380.106777 163.227798 384.185536 153.380803 
C 388.264295 143.533807 390.36375 132.979135 390.36375 122.320824 
M 309.200114 122.320824 
C 309.200114 122.320824 309.200114 122.320824 309.200114 122.320824 
C 309.200114 122.320824 309.200114 122.320824 309.200114 122.320824 
C 309.200114 122.320824 309.200114 122.320824 309.200114 122.320824 
C 309.200114 122.320824 309.200114 122.320824 309.200114 122.320824 
C 309.200114 122.320824 309.200114 122.320824 309.200114 122.320824 
C 309.200114 122.320824 309.200114 122.320824 309.200114 122.320824 
C 309.200114 122.320824 309.200114 122.320824 309.200114 122.320824 
C 309.200114 122.320824 309.200114 122.320824 309.200114 122.320824 
C 309.200114 122.320824 309.200114 122.320824 309.200114 122.320824 
C 309.200114 122.320824 309.200114 122.320824 309.200114 122.320824 
C 309.200114 122.320824 309.200114 122.320824 309.200114 122.320824 
C 309.200114 122.320824 309.200114 122.320824 309.200114 122.320824 
C 309.200114 122.320824 309.200114 122.320824 309.200114 122.320824 
C 309.200114 122.320824 309.200114 122.320824 309.200114 122.320824 
C 309.200114 122.320824 309.200114 122.320824 309.200114 122.320824 
C 309.200114 122.320824 309.200114 122.320824 309.200114 122.320824 
z
" style="fill: #ffffff"/>
   </g>
   <g id="matplotlib.axis_3">
    <g id="xtick_9">
     <g id="line2d_16">
      <path d="M 309.200114 122.320824 
L 390.36375 122.320824 
" clip-path="url(#p992ddd703c)" style="fill: none; stroke: #b0b0b0; stroke-width: 0.8; stroke-linecap: square"/>
     </g>
     <g id="text_16">
      <!-- 0° -->
      <g transform="translate(398.6825 125.080199) scale(0.1 -0.1)">
       <use xlink:href="#DejaVuSans-30"/>
       <use xlink:href="#DejaVuSans-b0" x="63.623047"/>
      </g>
     </g>
    </g>
    <g id="xtick_10">
     <g id="line2d_17">
      <path d="M 309.200114 122.320824 
L 366.591471 64.929466 
" clip-path="url(#p992ddd703c)" style="fill: none; stroke: #b0b0b0; stroke-width: 0.8; stroke-linecap: square"/>
     </g>
     <g id="text_17">
      <!-- 45° -->
      <g transform="translate(367.628466 57.789346) scale(0.1 -0.1)">
       <use xlink:href="#DejaVuSans-34"/>
       <use xlink:href="#DejaVuSans-35" x="63.623047"/>
       <use xlink:href="#DejaVuSans-b0" x="127.246094"/>
      </g>
     </g>
    </g>
    <g id="xtick_11">
     <g id="line2d_18">
      <path d="M 309.200114 122.320824 
L 309.200114 41.157188 
" clip-path="url(#p992ddd703c)" style="fill: none; stroke: #b0b0b0; stroke-width: 0.8; stroke-linecap: square"/>
     </g>
     <g id="text_18">
      <!-- 90° -->
      <g transform="translate(300.337614 29.916563) scale(0.1 -0.1)">
       <use xlink:href="#DejaVuSans-39"/>
       <use xlink:href="#DejaVuSans-30" x="63.623047"/>
       <use xlink:href="#DejaVuSans-b0" x="127.246094"/>
      </g>
     </g>
    </g>
    <g id="xtick_12">
     <g id="line2d_19">
      <path d="M 309.200114 122.320824 
L 251.808756 64.929466 
" clip-path="url(#p992ddd703c)" style="fill: none; stroke: #b0b0b0; stroke-width: 0.8; stroke-linecap: square"/>
     </g>
     <g id="text_19">
      <!-- 135° -->
      <g transform="translate(229.865511 57.789346) scale(0.1 -0.1)">
       <use xlink:href="#DejaVuSans-31"/>
       <use xlink:href="#DejaVuSans-33" x="63.623047"/>
       <use xlink:href="#DejaVuSans-35" x="127.246094"/>
       <use xlink:href="#DejaVuSans-b0" x="190.869141"/>
      </g>
     </g>
    </g>
    <g id="xtick_13">
     <g id="line2d_20">
      <path d="M 309.200114 122.320824 
L 228.036477 122.320824 
" clip-path="url(#p992ddd703c)" style="fill: none; stroke: #b0b0b0; stroke-width: 0.8; stroke-linecap: square"/>
     </g>
     <g id="text_20">
      <!-- 180° -->
      <g transform="translate(201.992727 125.080199) scale(0.1 -0.1)">
       <use xlink:href="#DejaVuSans-31"/>
       <use xlink:href="#DejaVuSans-38" x="63.623047"/>
       <use xlink:href="#DejaVuSans-30" x="127.246094"/>
       <use xlink:href="#DejaVuSans-b0" x="190.869141"/>
      </g>
     </g>
    </g>
    <g id="xtick_14">
     <g id="line2d_21">
      <path d="M 309.200114 122.320824 
L 251.808756 179.712182 
" clip-path="url(#p992ddd703c)" style="fill: none; stroke: #b0b0b0; stroke-width: 0.8; stroke-linecap: square"/>
     </g>
     <g id="text_21">
      <!-- 225° -->
      <g transform="translate(229.865511 192.371051) scale(0.1 -0.1)">
       <use xlink:href="#DejaVuSans-32"/>
       <use xlink:href="#DejaVuSans-32" x="63.623047"/>
       <use xlink:href="#DejaVuSans-35" x="127.246094"/>
       <use xlink:href="#DejaVuSans-b0" x="190.869141"/>
      </g>
     </g>
    </g>
    <g id="xtick_15">
     <g id="line2d_22">
      <path d="M 309.200114 122.320824 
L 309.200114 203.48446 
" clip-path="url(#p992ddd703c)" style="fill: none; stroke: #b0b0b0; stroke-width: 0.8; stroke-linecap: square"/>
     </g>
     <g id="text_22">
      <!-- 270° -->
      <g transform="translate(297.156364 220.243835) scale(0.1 -0.1)">
       <use xlink:href="#DejaVuSans-32"/>
       <use xlink:href="#DejaVuSans-37" x="63.623047"/>
       <use xlink:href="#DejaVuSans-30" x="127.246094"/>
       <use xlink:href="#DejaVuSans-b0" x="190.869141"/>
      </g>
     </g>
    </g>
    <g id="xtick_16">
     <g id="line2d_23">
      <path d="M 309.200114 122.320824 
L 366.591471 179.712182 
" clip-path="url(#p992ddd703c)" style="fill: none; stroke: #b0b0b0; stroke-width: 0.8; stroke-linecap: square"/>
     </g>
     <g id="text_23">
      <!-- 315° -->
      <g transform="translate(364.447216 192.371051) scale(0.1 -0.1)">
       <use xlink:href="#DejaVuSans-33"/>
       <use xlink:href="#DejaVuSans-31" x="63.623047"/>
       <use xlink:href="#DejaVuSans-35" x="127.246094"/>
       <use xlink:href="#DejaVuSans-b0" x="190.869141"/>
      </g>
     </g>
    </g>
   </g>
   <g id="matplotlib.axis_4">
    <g id="ytick_7">
     <g id="line2d_24">
      <path d="M 312.397085 122.320824 
C 312.397085 121.901001 312.31439 121.485261 312.15373 121.097396 
C 311.993071 120.70953 311.757573 120.357083 311.460714 120.060223 
C 311.163855 119.763364 310.811407 119.527866 310.423542 119.367207 
C 310.035676 119.206548 309.619936 119.123852 309.200114 119.123852 
C 308.780291 119.123852 308.364551 119.206548 307.976685 119.367207 
C 307.58882 119.527866 307.236373 119.763364 306.939513 120.060223 
C 306.642654 120.357083 306.407156 120.70953 306.246497 121.097396 
C 306.085838 121.485261 306.003142 121.901001 306.003142 122.320824 
C 306.003142 122.740646 306.085838 123.156387 306.246497 123.544252 
C 306.407156 123.932117 306.642654 124.284565 306.939513 124.581424 
C 307.236373 124.878284 307.58882 125.113782 307.976685 125.274441 
C 308.364551 125.4351 308.780291 125.517796 309.200114 125.517796 
C 309.619936 125.517796 310.035676 125.4351 310.423542 125.274441 
C 310.811407 125.113782 311.163855 124.878284 311.460714 124.581424 
C 311.757573 124.284565 311.993071 123.932117 312.15373 123.544252 
C 312.31439 123.156387 312.397085 122.740646 312.397085 122.320824 
" clip-path="url(#p992ddd703c)" style="fill: none; stroke: #b0b0b0; stroke-width: 0.8; stroke-linecap: square"/>
     </g>
     <g id="text_24">
      <!-- −30 -->
      <g transform="translate(312.15373 119.017708) scale(0.1 -0.1)">
       <use xlink:href="#DejaVuSans-2212"/>
       <use xlink:href="#DejaVuSans-33" x="83.789062"/>
       <use xlink:href="#DejaVuSans-30" x="147.412109"/>
      </g>
     </g>
    </g>
    <g id="ytick_8">
     <g id="line2d_25">
      <path d="M 325.39153 122.320824 
C 325.39153 120.194587 324.972707 118.089024 324.159031 116.124637 
C 323.345356 114.16025 322.15265 112.375241 320.649174 110.871764 
C 319.145697 109.368287 317.360687 108.175582 315.3963 107.361906 
C 313.431913 106.54823 311.326351 106.129408 309.200114 106.129408 
C 307.073876 106.129408 304.968314 106.54823 303.003927 107.361906 
C 301.03954 108.175582 299.25453 109.368287 297.751054 110.871764 
C 296.247577 112.375241 295.054872 114.16025 294.241196 116.124637 
C 293.42752 118.089024 293.008698 120.194587 293.008698 122.320824 
C 293.008698 124.447061 293.42752 126.552623 294.241196 128.51701 
C 295.054872 130.481398 296.247577 132.266407 297.751054 133.769884 
C 299.25453 135.273361 301.03954 136.466066 303.003927 137.279742 
C 304.968314 138.093417 307.073876 138.51224 309.200114 138.51224 
C 311.326351 138.51224 313.431913 138.093417 315.3963 137.279742 
C 317.360687 136.466066 319.145697 135.273361 320.649174 133.769884 
C 322.15265 132.266407 323.345356 130.481398 324.159031 128.51701 
C 324.972707 126.552623 325.39153 124.447061 325.39153 122.320824 
" clip-path="url(#p992ddd703c)" style="fill: none; stroke: #b0b0b0; stroke-width: 0.8; stroke-linecap: square"/>
     </g>
     <g id="text_25">
      <!-- −25 -->
      <g transform="translate(324.159031 114.04495) scale(0.1 -0.1)">
       <use xlink:href="#DejaVuSans-2212"/>
       <use xlink:href="#DejaVuSans-32" x="83.789062"/>
       <use xlink:href="#DejaVuSans-35" x="147.412109"/>
      </g>
     </g>
    </g>
    <g id="ytick_9">
     <g id="line2d_26">
      <path d="M 338.385974 122.320824 
C 338.385974 118.488172 337.631025 114.692788 336.164332 111.151879 
C 334.69764 107.61097 332.547727 104.393399 329.837633 101.683304 
C 327.127539 98.97321 323.909967 96.823298 320.369059 95.356605 
C 316.82815 93.889913 313.032766 93.134964 309.200114 93.134964 
C 305.367462 93.134964 301.572077 93.889913 298.031169 95.356605 
C 294.49026 96.823298 291.272688 98.97321 288.562594 101.683304 
C 285.8525 104.393399 283.702587 107.61097 282.235895 111.151879 
C 280.769203 114.692788 280.014254 118.488172 280.014254 122.320824 
C 280.014254 126.153476 280.769203 129.94886 282.235895 133.489769 
C 283.702587 137.030678 285.8525 140.248249 288.562594 142.958343 
C 291.272688 145.668438 294.49026 147.81835 298.031169 149.285043 
C 301.572077 150.751735 305.367462 151.506684 309.200114 151.506684 
C 313.032766 151.506684 316.82815 150.751735 320.369059 149.285043 
C 323.909967 147.81835 327.127539 145.668438 329.837633 142.958343 
C 332.547727 140.248249 334.69764 137.030678 336.164332 133.489769 
C 337.631025 129.94886 338.385974 126.153476 338.385974 122.320824 
" clip-path="url(#p992ddd703c)" style="fill: none; stroke: #b0b0b0; stroke-width: 0.8; stroke-linecap: square"/>
     </g>
     <g id="text_26">
      <!-- −20 -->
      <g transform="translate(336.164332 109.072191) scale(0.1 -0.1)">
       <use xlink:href="#DejaVuSans-2212"/>
       <use xlink:href="#DejaVuSans-32" x="83.789062"/>
       <use xlink:href="#DejaVuSans-30" x="147.412109"/>
      </g>
     </g>
    </g>
    <g id="ytick_10">
     <g id="line2d_27">
      <path d="M 351.380418 122.320824 
C 351.380418 116.781757 350.289342 111.296551 348.169633 106.17912 
C 346.049924 101.06169 342.942804 96.411556 339.026093 92.494845 
C 335.109381 88.578133 330.459248 85.471013 325.341817 83.351304 
C 320.224387 81.231595 314.73918 80.14052 309.200114 80.14052 
C 303.661047 80.14052 298.175841 81.231595 293.05841 83.351304 
C 287.94098 85.471013 283.290846 88.578133 279.374135 92.494845 
C 275.457423 96.411556 272.350303 101.06169 270.230594 106.17912 
C 268.110885 111.296551 267.01981 116.781757 267.01981 122.320824 
C 267.01981 127.859891 268.110885 133.345097 270.230594 138.462527 
C 272.350303 143.579958 275.457423 148.230091 279.374135 152.146803 
C 283.290846 156.063515 287.94098 159.170634 293.05841 161.290343 
C 298.175841 163.410053 303.661047 164.501128 309.200114 164.501128 
C 314.73918 164.501128 320.224387 163.410053 325.341817 161.290343 
C 330.459248 159.170634 335.109381 156.063515 339.026093 152.146803 
C 342.942804 148.230091 346.049924 143.579958 348.169633 138.462527 
C 350.289342 133.345097 351.380418 127.859891 351.380418 122.320824 
" clip-path="url(#p992ddd703c)" style="fill: none; stroke: #b0b0b0; stroke-width: 0.8; stroke-linecap: square"/>
     </g>
     <g id="text_27">
      <!-- −15 -->
      <g transform="translate(348.169633 104.099433) scale(0.1 -0.1)">
       <use xlink:href="#DejaVuSans-2212"/>
       <use xlink:href="#DejaVuSans-31" x="83.789062"/>
       <use xlink:href="#DejaVuSans-35" x="147.412109"/>
      </g>
     </g>
    </g>
    <g id="ytick_11">
     <g id="line2d_28">
      <path d="M 364.374862 122.320824 
C 364.374862 115.075342 362.94766 107.900314 360.174934 101.206362 
C 357.402208 94.51241 353.337881 88.429714 348.214552 83.306385 
C 343.091223 78.183056 337.008528 74.118729 330.314576 71.346003 
C 323.620624 68.573278 316.445595 67.146076 309.200114 67.146076 
C 301.954632 67.146076 294.779604 68.573278 288.085652 71.346003 
C 281.3917 74.118729 275.309004 78.183056 270.185675 83.306385 
C 265.062346 88.429714 260.998019 94.51241 258.225293 101.206362 
C 255.452567 107.900314 254.025365 115.075342 254.025365 122.320824 
C 254.025365 129.566305 255.452567 136.741334 258.225293 143.435286 
C 260.998019 150.129238 265.062346 156.211933 270.185675 161.335262 
C 275.309004 166.458592 281.3917 170.522919 288.085652 173.295644 
C 294.779604 176.06837 301.954632 177.495572 309.200114 177.495572 
C 316.445595 177.495572 323.620624 176.06837 330.314576 173.295644 
C 337.008528 170.522919 343.091223 166.458592 348.214552 161.335262 
C 353.337881 156.211933 357.402208 150.129238 360.174934 143.435286 
C 362.94766 136.741334 364.374862 129.566305 364.374862 122.320824 
" clip-path="url(#p992ddd703c)" style="fill: none; stroke: #b0b0b0; stroke-width: 0.8; stroke-linecap: square"/>
     </g>
     <g id="text_28">
      <!-- −10 -->
      <g transform="translate(360.174934 99.126674) scale(0.1 -0.1)">
       <use xlink:href="#DejaVuSans-2212"/>
       <use xlink:href="#DejaVuSans-31" x="83.789062"/>
       <use xlink:href="#DejaVuSans-30" x="147.412109"/>
      </g>
     </g>
    </g>
    <g id="ytick_12">
     <g id="line2d_29">
      <path d="M 377.369306 122.320824 
C 377.369306 113.368928 375.605978 104.504077 372.180235 96.233603 
C 368.754493 87.96313 363.732958 80.447872 357.403012 74.117926 
C 351.073065 67.787979 343.557808 62.766445 335.287334 59.340702 
C 327.01686 55.91496 318.15201 54.151632 309.200114 54.151632 
C 300.248217 54.151632 291.383367 55.91496 283.112893 59.340702 
C 274.842419 62.766445 267.327162 67.787979 260.997216 74.117926 
C 254.667269 80.447872 249.645735 87.96313 246.219992 96.233603 
C 242.79425 104.504077 241.030921 113.368928 241.030921 122.320824 
C 241.030921 131.27272 242.79425 140.137571 246.219992 148.408044 
C 249.645735 156.678518 254.667269 164.193775 260.997216 170.523722 
C 267.327162 176.853669 274.842419 181.875203 283.112893 185.300945 
C 291.383367 188.726688 300.248217 190.490016 309.200114 190.490016 
C 318.15201 190.490016 327.01686 188.726688 335.287334 185.300945 
C 343.557808 181.875203 351.073065 176.853669 357.403012 170.523722 
C 363.732958 164.193775 368.754493 156.678518 372.180235 148.408044 
C 375.605978 140.137571 377.369306 131.27272 377.369306 122.320824 
" clip-path="url(#p992ddd703c)" style="fill: none; stroke: #b0b0b0; stroke-width: 0.8; stroke-linecap: square"/>
     </g>
     <g id="text_29">
      <!-- −5 -->
      <g transform="translate(372.180235 94.153916) scale(0.1 -0.1)">
       <use xlink:href="#DejaVuSans-2212"/>
       <use xlink:href="#DejaVuSans-35" x="83.789062"/>
      </g>
     </g>
    </g>
    <g id="ytick_13">
     <g id="line2d_30">
      <path d="M 390.36375 122.320824 
C 390.36375 111.662513 388.264295 101.10784 384.185536 91.260845 
C 380.106777 81.413849 374.128035 72.46603 366.591471 64.929466 
C 359.054907 57.392902 350.107088 51.414161 340.260093 47.335401 
C 330.413097 43.256642 319.858425 41.157188 309.200114 41.157188 
C 298.541803 41.157188 287.98713 43.256642 278.140135 47.335401 
C 268.293139 51.414161 259.34532 57.392902 251.808756 64.929466 
C 244.272192 72.46603 238.29345 81.413849 234.214691 91.260845 
C 230.135932 101.10784 228.036477 111.662513 228.036477 122.320824 
C 228.036477 132.979135 230.135932 143.533807 234.214691 153.380803 
C 238.29345 163.227798 244.272192 172.175617 251.808756 179.712182 
C 259.34532 187.248746 268.293139 193.227487 278.140135 197.306246 
C 287.98713 201.385005 298.541803 203.48446 309.200114 203.48446 
C 319.858425 203.48446 330.413097 201.385005 340.260093 197.306246 
C 350.107088 193.227487 359.054907 187.248746 366.591471 179.712182 
C 374.128035 172.175617 380.106777 163.227798 384.185536 153.380803 
C 388.264295 143.533807 390.36375 132.979135 390.36375 122.320824 
" clip-path="url(#p992ddd703c)" style="fill: none; stroke: #b0b0b0; stroke-width: 0.8; stroke-linecap: square"/>
     </g>
     <g id="text_30">
      <!-- 0 -->
      <g transform="translate(384.185536 89.181157) scale(0.1 -0.1)">
       <use xlink:href="#DejaVuSans-30"/>
      </g>
     </g>
    </g>
   </g>
   <g id="line2d_31">
    <path d="M 289.340473 145.988622 
L 291.780406 147.198745 
L 294.824612 147.219923 
L 298.117599 146.087354 
L 301.552427 143.332671 
L 304.262949 140.746573 
L 306.310883 138.706465 
L 308.045286 135.520566 
L 309.200114 133.065598 
L 310.086273 132.44967 
L 310.945827 132.221257 
L 311.000149 129.038646 
L 310.519135 125.944805 
L 310.949344 126.07206 
L 312.653528 128.302313 
L 314.014934 129.197099 
L 313.643386 127.61611 
L 312.250044 125.370754 
L 315.680288 127.758336 
L 324.729494 133.194613 
L 333.273037 136.219333 
L 339.647983 136.518898 
L 351.089233 137.567216 
L 367.258031 137.877396 
L 380.422463 134.879246 
L 387.987747 129.213849 
L 390.138518 122.320824 
L 387.556058 115.465567 
L 379.472754 109.929861 
L 365.523388 107.229048 
L 349.158051 107.777324 
L 338.274199 108.763355 
L 332.544185 108.843118 
L 323.839679 112.07009 
L 315.057039 117.40628 
L 311.925451 119.595486 
L 313.479937 117.220328 
L 313.735257 115.843967 
L 312.538091 116.539278 
L 311.001025 118.458757 
L 310.651857 118.332192 
L 311.096252 115.24434 
L 310.967845 112.295521 
L 310.091138 112.136365 
L 309.200114 111.252293 
L 308.000052 108.604056 
L 306.230944 105.481823 
L 304.144553 103.453214 
L 301.323256 100.679335 
L 297.820522 97.91721 
L 294.684242 97.178597 
L 291.547737 97.110617 
L 288.813954 98.025545 
" clip-path="url(#p992ddd703c)" style="fill: none; stroke: #1f77b4; stroke-width: 1.5; stroke-linecap: square"/>
   </g>
   <g id="patch_5">
    <path d="M 390.36375 122.320824 
C 390.36375 111.662513 388.264295 101.10784 384.185536 91.260845 
C 380.106777 81.413849 374.128035 72.46603 366.591471 64.929466 
C 359.054907 57.392902 350.107088 51.414161 340.260093 47.335401 
C 330.413097 43.256642 319.858425 41.157188 309.200114 41.157188 
C 298.541803 41.157188 287.98713 43.256642 278.140135 47.335401 
C 268.293139 51.414161 259.34532 57.392902 251.808756 64.929466 
C 244.272192 72.46603 238.29345 81.413849 234.214691 91.260845 
C 230.135932 101.10784 228.036477 111.662513 228.036477 122.320824 
C 228.036477 132.979135 230.135932 143.533807 234.214691 153.380803 
C 238.29345 163.227798 244.272192 172.175617 251.808756 179.712182 
C 259.34532 187.248746 268.293139 193.227487 278.140135 197.306246 
C 287.98713 201.385005 298.541803 203.48446 309.200114 203.48446 
C 319.858425 203.48446 330.413097 201.385005 340.260093 197.306246 
C 350.107088 193.227487 359.054907 187.248746 366.591471 179.712182 
C 374.128035 172.175617 380.106777 163.227798 384.185536 153.380803 
C 388.264295 143.533807 390.36375 132.979135 390.36375 122.320824 
" style="fill: none; stroke: #000000; stroke-width: 0.8; stroke-linejoin: miter; stroke-linecap: square"/>
   </g>
   <g id="text_31">
    <!-- H-Plane (Phi = 90.0) -->
    <g transform="translate(248.190426 16.318125) scale(0.12 -0.12)">
     <defs>
      <path id="DejaVuSans-48" d="M 628 4666 
L 1259 4666 
L 1259 2753 
L 3553 2753 
L 3553 4666 
L 4184 4666 
L 4184 0 
L 3553 0 
L 3553 2222 
L 1259 2222 
L 1259 0 
L 628 0 
L 628 4666 
z
" transform="scale(0.015625)"/>
     </defs>
     <use xlink:href="#DejaVuSans-48"/>
     <use xlink:href="#DejaVuSans-2d" x="75.195312"/>
     <use xlink:href="#DejaVuSans-50" x="111.279297"/>
     <use xlink:href="#DejaVuSans-6c" x="171.582031"/>
     <use xlink:href="#DejaVuSans-61" x="199.365234"/>
     <use xlink:href="#DejaVuSans-6e" x="260.644531"/>
     <use xlink:href="#DejaVuSans-65" x="324.023438"/>
     <use xlink:href="#DejaVuSans-20" x="385.546875"/>
     <use xlink:href="#DejaVuSans-28" x="417.333984"/>
     <use xlink:href="#DejaVuSans-50" x="456.347656"/>
     <use xlink:href="#DejaVuSans-68" x="516.650391"/>
     <use xlink:href="#DejaVuSans-69" x="580.029297"/>
     <use xlink:href="#DejaVuSans-20" x="607.8125"/>
     <use xlink:href="#DejaVuSans-3d" x="639.599609"/>
     <use xlink:href="#DejaVuSans-20" x="723.388672"/>
     <use xlink:href="#DejaVuSans-39" x="755.175781"/>
     <use xlink:href="#DejaVuSans-30" x="818.798828"/>
     <use xlink:href="#DejaVuSans-2e" x="882.421875"/>
     <use xlink:href="#DejaVuSans-30" x="914.208984"/>
     <use xlink:href="#DejaVuSans-29" x="977.832031"/>
    </g>
   </g>
  </g>
 </g>
 <defs>
  <clipPath id="pfeefea0463">
   <path d="M 195.571023 122.320824 
C 195.571023 111.662513 193.471568 101.10784 189.392809 91.260845 
C 185.31405 81.413849 179.335308 72.46603 171.798744 64.929466 
C 164.26218 57.392902 155.314361 51.414161 145.467365 47.335401 
C 135.62037 43.256642 125.065697 41.157188 114.407386 41.157188 
C 103.749075 41.157188 93.194403 43.256642 83.347407 47.335401 
C 73.500412 51.414161 64.552593 57.392902 57.016029 64.929466 
C 49.479465 72.46603 43.500723 81.413849 39.421964 91.260845 
C 35.343205 101.10784 33.24375 111.662513 33.24375 122.320824 
C 33.24375 132.979135 35.343205 143.533807 39.421964 153.380803 
C 43.500723 163.227798 49.479465 172.175617 57.016029 179.712182 
C 64.552593 187.248746 73.500412 193.227487 83.347407 197.306246 
C 93.194403 201.385005 103.749075 203.48446 114.407386 203.48446 
C 125.065697 203.48446 135.62037 201.385005 145.467365 197.306246 
C 155.314361 193.227487 164.26218 187.248746 171.798744 179.712182 
C 179.335308 172.175617 185.31405 163.227798 189.392809 153.380803 
C 193.471568 143.533807 195.571023 132.979135 195.571023 122.320824 
M 114.407386 122.320824 
C 114.407386 122.320824 114.407386 122.320824 114.407386 122.320824 
C 114.407386 122.320824 114.407386 122.320824 114.407386 122.320824 
C 114.407386 122.320824 114.407386 122.320824 114.407386 122.320824 
C 114.407386 122.320824 114.407386 122.320824 114.407386 122.320824 
C 114.407386 122.320824 114.407386 122.320824 114.407386 122.320824 
C 114.407386 122.320824 114.407386 122.320824 114.407386 122.320824 
C 114.407386 122.320824 114.407386 122.320824 114.407386 122.320824 
C 114.407386 122.320824 114.407386 122.320824 114.407386 122.320824 
C 114.407386 122.320824 114.407386 122.320824 114.407386 122.320824 
C 114.407386 122.320824 114.407386 122.320824 114.407386 122.320824 
C 114.407386 122.320824 114.407386 122.320824 114.407386 122.320824 
C 114.407386 122.320824 114.407386 122.320824 114.407386 122.320824 
C 114.407386 122.320824 114.407386 122.320824 114.407386 122.320824 
C 114.407386 122.320824 114.407386 122.320824 114.407386 122.320824 
C 114.407386 122.320824 114.407386 122.320824 114.407386 122.320824 
C 114.407386 122.320824 114.407386 122.320824 114.407386 122.320824 
z
"/>
  </clipPath>
  <clipPath id="p992ddd703c">
   <path d="M 390.36375 122.320824 
C 390.36375 111.662513 388.264295 101.10784 384.185536 91.260845 
C 380.106777 81.413849 374.128035 72.46603 366.591471 64.929466 
C 359.054907 57.392902 350.107088 51.414161 340.260093 47.335401 
C 330.413097 43.256642 319.858425 41.157188 309.200114 41.157188 
C 298.541803 41.157188 287.98713 43.256642 278.140135 47.335401 
C 268.293139 51.414161 259.34532 57.392902 251.808756 64.929466 
C 244.272192 72.46603 238.29345 81.413849 234.214691 91.260845 
C 230.135932 101.10784 228.036477 111.662513 228.036477 122.320824 
C 228.036477 132.979135 230.135932 143.533807 234.214691 153.380803 
C 238.29345 163.227798 244.272192 172.175617 251.808756 179.712182 
C 259.34532 187.248746 268.293139 193.227487 278.140135 197.306246 
C 287.98713 201.385005 298.541803 203.48446 309.200114 203.48446 
C 319.858425 203.48446 330.413097 201.385005 340.260093 197.306246 
C 350.107088 193.227487 359.054907 187.248746 366.591471 179.712182 
C 374.128035 172.175617 380.106777 163.227798 384.185536 153.380803 
C 388.264295 143.533807 390.36375 132.979135 390.36375 122.320824 
M 309.200114 122.320824 
C 309.200114 122.320824 309.200114 122.320824 309.200114 122.320824 
C 309.200114 122.320824 309.200114 122.320824 309.200114 122.320824 
C 309.200114 122.320824 309.200114 122.320824 309.200114 122.320824 
C 309.200114 122.320824 309.200114 122.320824 309.200114 122.320824 
C 309.200114 122.320824 309.200114 122.320824 309.200114 122.320824 
C 309.200114 122.320824 309.200114 122.320824 309.200114 122.320824 
C 309.200114 122.320824 309.200114 122.320824 309.200114 122.320824 
C 309.200114 122.320824 309.200114 122.320824 309.200114 122.320824 
C 309.200114 122.320824 309.200114 122.320824 309.200114 122.320824 
C 309.200114 122.320824 309.200114 122.320824 309.200114 122.320824 
C 309.200114 122.320824 309.200114 122.320824 309.200114 122.320824 
C 309.200114 122.320824 309.200114 122.320824 309.200114 122.320824 
C 309.200114 122.320824 309.200114 122.320824 309.200114 122.320824 
C 309.200114 122.320824 309.200114 122.320824 309.200114 122.320824 
C 309.200114 122.320824 309.200114 122.320824 309.200114 122.320824 
C 309.200114 122.320824 309.200114 122.320824 309.200114 122.320824 
z
"/>
  </clipPath>
 </defs>
</svg>
