<?xml version="1.0" encoding="utf-8" standalone="no"?>
<!DOCTYPE svg PUBLIC "-//W3C//DTD SVG 1.1//EN"
  "http://www.w3.org/Graphics/SVG/1.1/DTD/svg11.dtd">
<svg xmlns:xlink="http://www.w3.org/1999/xlink" width="483.703125pt" height="614.274375pt" viewBox="0 0 483.703125 614.274375" xmlns="http://www.w3.org/2000/svg" version="1.1">
 <metadata>
  <rdf:RDF xmlns:dc="http://purl.org/dc/elements/1.1/" xmlns:cc="http://creativecommons.org/ns#" xmlns:rdf="http://www.w3.org/1999/02/22-rdf-syntax-ns#">
   <cc:Work>
    <dc:type rdf:resource="http://purl.org/dc/dcmitype/StillImage"/>
    <dc:date>2025-01-19T18:00:40.021659</dc:date>
    <dc:format>image/svg+xml</dc:format>
    <dc:creator>
     <cc:Agent>
      <dc:title>Matplotlib v3.10.0, https://matplotlib.org/</dc:title>
     </cc:Agent>
    </dc:creator>
   </cc:Work>
  </rdf:RDF>
 </metadata>
 <defs>
  <style type="text/css">*{stroke-linejoin: round; stroke-linecap: butt}</style>
 </defs>
 <g id="figure_1">
  <g id="patch_1">
   <path d="M 0 614.274375 
L 483.703125 614.274375 
L 483.703125 0 
L 0 0 
z
" style="fill: #ffffff"/>
  </g>
  <g id="axes_1">
   <g id="patch_2">
    <path d="M 30.103125 274.318125 
L 476.503125 274.318125 
L 476.503125 22.318125 
L 30.103125 22.318125 
z
" style="fill: #ffffff"/>
   </g>
   <g id="matplotlib.axis_1">
    <g id="xtick_1">
     <g id="line2d_1">
      <path d="M 97.219209 274.318125 
L 97.219209 22.318125 
" clip-path="url(#pccd8ff08dd)" style="fill: none; stroke: #b0b0b0; stroke-width: 0.8; stroke-linecap: square"/>
     </g>
     <g id="line2d_2">
      <defs>
       <path id="m21819bd4f2" d="M 0 0 
L 0 3.5 
" style="stroke: #000000; stroke-width: 0.8"/>
      </defs>
      <g>
       <use xlink:href="#m21819bd4f2" x="97.219209" y="274.318125" style="stroke: #000000; stroke-width: 0.8"/>
      </g>
     </g>
     <g id="text_1">
      <!-- −100 -->
      <g transform="translate(83.485615 288.916562) scale(0.1 -0.1)">
       <defs>
        <path id="DejaVuSans-2212" d="M 678 2272 
L 4684 2272 
L 4684 1741 
L 678 1741 
L 678 2272 
z
" transform="scale(0.015625)"/>
        <path id="DejaVuSans-31" d="M 794 531 
L 1825 531 
L 1825 4091 
L 703 3866 
L 703 4441 
L 1819 4666 
L 2450 4666 
L 2450 531 
L 3481 531 
L 3481 0 
L 794 0 
L 794 531 
z
" transform="scale(0.015625)"/>
        <path id="DejaVuSans-30" d="M 2034 4250 
Q 1547 4250 1301 3770 
Q 1056 3291 1056 2328 
Q 1056 1369 1301 889 
Q 1547 409 2034 409 
Q 2525 409 2770 889 
Q 3016 1369 3016 2328 
Q 3016 3291 2770 3770 
Q 2525 4250 2034 4250 
z
M 2034 4750 
Q 2819 4750 3233 4129 
Q 3647 3509 3647 2328 
Q 3647 1150 3233 529 
Q 2819 -91 2034 -91 
Q 1250 -91 836 529 
Q 422 1150 422 2328 
Q 422 3509 836 4129 
Q 1250 4750 2034 4750 
z
" transform="scale(0.015625)"/>
       </defs>
       <use xlink:href="#DejaVuSans-2212"/>
       <use xlink:href="#DejaVuSans-31" transform="translate(83.789062 0)"/>
       <use xlink:href="#DejaVuSans-30" transform="translate(147.412109 0)"/>
       <use xlink:href="#DejaVuSans-30" transform="translate(211.035156 0)"/>
      </g>
     </g>
    </g>
    <g id="xtick_2">
     <g id="line2d_3">
      <path d="M 175.261167 274.318125 
L 175.261167 22.318125 
" clip-path="url(#pccd8ff08dd)" style="fill: none; stroke: #b0b0b0; stroke-width: 0.8; stroke-linecap: square"/>
     </g>
     <g id="line2d_4">
      <g>
       <use xlink:href="#m21819bd4f2" x="175.261167" y="274.318125" style="stroke: #000000; stroke-width: 0.8"/>
      </g>
     </g>
     <g id="text_2">
      <!-- −50 -->
      <g transform="translate(164.708823 288.916562) scale(0.1 -0.1)">
       <defs>
        <path id="DejaVuSans-35" d="M 691 4666 
L 3169 4666 
L 3169 4134 
L 1269 4134 
L 1269 2991 
Q 1406 3038 1543 3061 
Q 1681 3084 1819 3084 
Q 2600 3084 3056 2656 
Q 3513 2228 3513 1497 
Q 3513 744 3044 326 
Q 2575 -91 1722 -91 
Q 1428 -91 1123 -41 
Q 819 9 494 109 
L 494 744 
Q 775 591 1075 516 
Q 1375 441 1709 441 
Q 2250 441 2565 725 
Q 2881 1009 2881 1497 
Q 2881 1984 2565 2268 
Q 2250 2553 1709 2553 
Q 1456 2553 1204 2497 
Q 953 2441 691 2322 
L 691 4666 
z
" transform="scale(0.015625)"/>
       </defs>
       <use xlink:href="#DejaVuSans-2212"/>
       <use xlink:href="#DejaVuSans-35" transform="translate(83.789062 0)"/>
       <use xlink:href="#DejaVuSans-30" transform="translate(147.412109 0)"/>
      </g>
     </g>
    </g>
    <g id="xtick_3">
     <g id="line2d_5">
      <path d="M 253.303125 274.318125 
L 253.303125 22.318125 
" clip-path="url(#pccd8ff08dd)" style="fill: none; stroke: #b0b0b0; stroke-width: 0.8; stroke-linecap: square"/>
     </g>
     <g id="line2d_6">
      <g>
       <use xlink:href="#m21819bd4f2" x="253.303125" y="274.318125" style="stroke: #000000; stroke-width: 0.8"/>
      </g>
     </g>
     <g id="text_3">
      <!-- 0 -->
      <g transform="translate(250.121875 288.916562) scale(0.1 -0.1)">
       <use xlink:href="#DejaVuSans-30"/>
      </g>
     </g>
    </g>
    <g id="xtick_4">
     <g id="line2d_7">
      <path d="M 331.345083 274.318125 
L 331.345083 22.318125 
" clip-path="url(#pccd8ff08dd)" style="fill: none; stroke: #b0b0b0; stroke-width: 0.8; stroke-linecap: square"/>
     </g>
     <g id="line2d_8">
      <g>
       <use xlink:href="#m21819bd4f2" x="331.345083" y="274.318125" style="stroke: #000000; stroke-width: 0.8"/>
      </g>
     </g>
     <g id="text_4">
      <!-- 50 -->
      <g transform="translate(324.982583 288.916562) scale(0.1 -0.1)">
       <use xlink:href="#DejaVuSans-35"/>
       <use xlink:href="#DejaVuSans-30" transform="translate(63.623047 0)"/>
      </g>
     </g>
    </g>
    <g id="xtick_5">
     <g id="line2d_9">
      <path d="M 409.387041 274.318125 
L 409.387041 22.318125 
" clip-path="url(#pccd8ff08dd)" style="fill: none; stroke: #b0b0b0; stroke-width: 0.8; stroke-linecap: square"/>
     </g>
     <g id="line2d_10">
      <g>
       <use xlink:href="#m21819bd4f2" x="409.387041" y="274.318125" style="stroke: #000000; stroke-width: 0.8"/>
      </g>
     </g>
     <g id="text_5">
      <!-- 100 -->
      <g transform="translate(399.843291 288.916562) scale(0.1 -0.1)">
       <use xlink:href="#DejaVuSans-31"/>
       <use xlink:href="#DejaVuSans-30" transform="translate(63.623047 0)"/>
       <use xlink:href="#DejaVuSans-30" transform="translate(127.246094 0)"/>
      </g>
     </g>
    </g>
    <g id="text_6">
     <!-- Theta -->
     <g transform="translate(238.979687 302.594687) scale(0.1 -0.1)">
      <defs>
       <path id="DejaVuSans-54" d="M -19 4666 
L 3928 4666 
L 3928 4134 
L 2272 4134 
L 2272 0 
L 1638 0 
L 1638 4134 
L -19 4134 
L -19 4666 
z
" transform="scale(0.015625)"/>
       <path id="DejaVuSans-68" d="M 3513 2113 
L 3513 0 
L 2938 0 
L 2938 2094 
Q 2938 2591 2744 2837 
Q 2550 3084 2163 3084 
Q 1697 3084 1428 2787 
Q 1159 2491 1159 1978 
L 1159 0 
L 581 0 
L 581 4863 
L 1159 4863 
L 1159 2956 
Q 1366 3272 1645 3428 
Q 1925 3584 2291 3584 
Q 2894 3584 3203 3211 
Q 3513 2838 3513 2113 
z
" transform="scale(0.015625)"/>
       <path id="DejaVuSans-65" d="M 3597 1894 
L 3597 1613 
L 953 1613 
Q 991 1019 1311 708 
Q 1631 397 2203 397 
Q 2534 397 2845 478 
Q 3156 559 3463 722 
L 3463 178 
Q 3153 47 2828 -22 
Q 2503 -91 2169 -91 
Q 1331 -91 842 396 
Q 353 884 353 1716 
Q 353 2575 817 3079 
Q 1281 3584 2069 3584 
Q 2775 3584 3186 3129 
Q 3597 2675 3597 1894 
z
M 3022 2063 
Q 3016 2534 2758 2815 
Q 2500 3097 2075 3097 
Q 1594 3097 1305 2825 
Q 1016 2553 972 2059 
L 3022 2063 
z
" transform="scale(0.015625)"/>
       <path id="DejaVuSans-74" d="M 1172 4494 
L 1172 3500 
L 2356 3500 
L 2356 3053 
L 1172 3053 
L 1172 1153 
Q 1172 725 1289 603 
Q 1406 481 1766 481 
L 2356 481 
L 2356 0 
L 1766 0 
Q 1100 0 847 248 
Q 594 497 594 1153 
L 594 3053 
L 172 3053 
L 172 3500 
L 594 3500 
L 594 4494 
L 1172 4494 
z
" transform="scale(0.015625)"/>
       <path id="DejaVuSans-61" d="M 2194 1759 
Q 1497 1759 1228 1600 
Q 959 1441 959 1056 
Q 959 750 1161 570 
Q 1363 391 1709 391 
Q 2188 391 2477 730 
Q 2766 1069 2766 1631 
L 2766 1759 
L 2194 1759 
z
M 3341 1997 
L 3341 0 
L 2766 0 
L 2766 531 
Q 2569 213 2275 61 
Q 1981 -91 1556 -91 
Q 1019 -91 701 211 
Q 384 513 384 1019 
Q 384 1609 779 1909 
Q 1175 2209 1959 2209 
L 2766 2209 
L 2766 2266 
Q 2766 2663 2505 2880 
Q 2244 3097 1772 3097 
Q 1472 3097 1187 3025 
Q 903 2953 641 2809 
L 641 3341 
Q 956 3463 1253 3523 
Q 1550 3584 1831 3584 
Q 2591 3584 2966 3190 
Q 3341 2797 3341 1997 
z
" transform="scale(0.015625)"/>
      </defs>
      <use xlink:href="#DejaVuSans-54"/>
      <use xlink:href="#DejaVuSans-68" transform="translate(61.083984 0)"/>
      <use xlink:href="#DejaVuSans-65" transform="translate(124.462891 0)"/>
      <use xlink:href="#DejaVuSans-74" transform="translate(185.986328 0)"/>
      <use xlink:href="#DejaVuSans-61" transform="translate(225.195312 0)"/>
     </g>
    </g>
   </g>
   <g id="matplotlib.axis_2">
    <g id="ytick_1">
     <g id="line2d_11">
      <path d="M 30.103125 263.403549 
L 476.503125 263.403549 
" clip-path="url(#pccd8ff08dd)" style="fill: none; stroke: #b0b0b0; stroke-width: 0.8; stroke-linecap: square"/>
     </g>
     <g id="line2d_12">
      <defs>
       <path id="m8fae271c4b" d="M 0 0 
L -3.5 0 
" style="stroke: #000000; stroke-width: 0.8"/>
      </defs>
      <g>
       <use xlink:href="#m8fae271c4b" x="30.103125" y="263.403549" style="stroke: #000000; stroke-width: 0.8"/>
      </g>
     </g>
     <g id="text_7">
      <!-- 0.0 -->
      <g transform="translate(7.2 267.202768) scale(0.1 -0.1)">
       <defs>
        <path id="DejaVuSans-2e" d="M 684 794 
L 1344 794 
L 1344 0 
L 684 0 
L 684 794 
z
" transform="scale(0.015625)"/>
       </defs>
       <use xlink:href="#DejaVuSans-30"/>
       <use xlink:href="#DejaVuSans-2e" transform="translate(63.623047 0)"/>
       <use xlink:href="#DejaVuSans-30" transform="translate(95.410156 0)"/>
      </g>
     </g>
    </g>
    <g id="ytick_2">
     <g id="line2d_13">
      <path d="M 30.103125 210.537448 
L 476.503125 210.537448 
" clip-path="url(#pccd8ff08dd)" style="fill: none; stroke: #b0b0b0; stroke-width: 0.8; stroke-linecap: square"/>
     </g>
     <g id="line2d_14">
      <g>
       <use xlink:href="#m8fae271c4b" x="30.103125" y="210.537448" style="stroke: #000000; stroke-width: 0.8"/>
      </g>
     </g>
     <g id="text_8">
      <!-- 0.2 -->
      <g transform="translate(7.2 214.336666) scale(0.1 -0.1)">
       <defs>
        <path id="DejaVuSans-32" d="M 1228 531 
L 3431 531 
L 3431 0 
L 469 0 
L 469 531 
Q 828 903 1448 1529 
Q 2069 2156 2228 2338 
Q 2531 2678 2651 2914 
Q 2772 3150 2772 3378 
Q 2772 3750 2511 3984 
Q 2250 4219 1831 4219 
Q 1534 4219 1204 4116 
Q 875 4013 500 3803 
L 500 4441 
Q 881 4594 1212 4672 
Q 1544 4750 1819 4750 
Q 2544 4750 2975 4387 
Q 3406 4025 3406 3419 
Q 3406 3131 3298 2873 
Q 3191 2616 2906 2266 
Q 2828 2175 2409 1742 
Q 1991 1309 1228 531 
z
" transform="scale(0.015625)"/>
       </defs>
       <use xlink:href="#DejaVuSans-30"/>
       <use xlink:href="#DejaVuSans-2e" transform="translate(63.623047 0)"/>
       <use xlink:href="#DejaVuSans-32" transform="translate(95.410156 0)"/>
      </g>
     </g>
    </g>
    <g id="ytick_3">
     <g id="line2d_15">
      <path d="M 30.103125 157.671346 
L 476.503125 157.671346 
" clip-path="url(#pccd8ff08dd)" style="fill: none; stroke: #b0b0b0; stroke-width: 0.8; stroke-linecap: square"/>
     </g>
     <g id="line2d_16">
      <g>
       <use xlink:href="#m8fae271c4b" x="30.103125" y="157.671346" style="stroke: #000000; stroke-width: 0.8"/>
      </g>
     </g>
     <g id="text_9">
      <!-- 0.4 -->
      <g transform="translate(7.2 161.470564) scale(0.1 -0.1)">
       <defs>
        <path id="DejaVuSans-34" d="M 2419 4116 
L 825 1625 
L 2419 1625 
L 2419 4116 
z
M 2253 4666 
L 3047 4666 
L 3047 1625 
L 3713 1625 
L 3713 1100 
L 3047 1100 
L 3047 0 
L 2419 0 
L 2419 1100 
L 313 1100 
L 313 1709 
L 2253 4666 
z
" transform="scale(0.015625)"/>
       </defs>
       <use xlink:href="#DejaVuSans-30"/>
       <use xlink:href="#DejaVuSans-2e" transform="translate(63.623047 0)"/>
       <use xlink:href="#DejaVuSans-34" transform="translate(95.410156 0)"/>
      </g>
     </g>
    </g>
    <g id="ytick_4">
     <g id="line2d_17">
      <path d="M 30.103125 104.805244 
L 476.503125 104.805244 
" clip-path="url(#pccd8ff08dd)" style="fill: none; stroke: #b0b0b0; stroke-width: 0.8; stroke-linecap: square"/>
     </g>
     <g id="line2d_18">
      <g>
       <use xlink:href="#m8fae271c4b" x="30.103125" y="104.805244" style="stroke: #000000; stroke-width: 0.8"/>
      </g>
     </g>
     <g id="text_10">
      <!-- 0.6 -->
      <g transform="translate(7.2 108.604462) scale(0.1 -0.1)">
       <defs>
        <path id="DejaVuSans-36" d="M 2113 2584 
Q 1688 2584 1439 2293 
Q 1191 2003 1191 1497 
Q 1191 994 1439 701 
Q 1688 409 2113 409 
Q 2538 409 2786 701 
Q 3034 994 3034 1497 
Q 3034 2003 2786 2293 
Q 2538 2584 2113 2584 
z
M 3366 4563 
L 3366 3988 
Q 3128 4100 2886 4159 
Q 2644 4219 2406 4219 
Q 1781 4219 1451 3797 
Q 1122 3375 1075 2522 
Q 1259 2794 1537 2939 
Q 1816 3084 2150 3084 
Q 2853 3084 3261 2657 
Q 3669 2231 3669 1497 
Q 3669 778 3244 343 
Q 2819 -91 2113 -91 
Q 1303 -91 875 529 
Q 447 1150 447 2328 
Q 447 3434 972 4092 
Q 1497 4750 2381 4750 
Q 2619 4750 2861 4703 
Q 3103 4656 3366 4563 
z
" transform="scale(0.015625)"/>
       </defs>
       <use xlink:href="#DejaVuSans-30"/>
       <use xlink:href="#DejaVuSans-2e" transform="translate(63.623047 0)"/>
       <use xlink:href="#DejaVuSans-36" transform="translate(95.410156 0)"/>
      </g>
     </g>
    </g>
    <g id="ytick_5">
     <g id="line2d_19">
      <path d="M 30.103125 51.939142 
L 476.503125 51.939142 
" clip-path="url(#pccd8ff08dd)" style="fill: none; stroke: #b0b0b0; stroke-width: 0.8; stroke-linecap: square"/>
     </g>
     <g id="line2d_20">
      <g>
       <use xlink:href="#m8fae271c4b" x="30.103125" y="51.939142" style="stroke: #000000; stroke-width: 0.8"/>
      </g>
     </g>
     <g id="text_11">
      <!-- 0.8 -->
      <g transform="translate(7.2 55.738361) scale(0.1 -0.1)">
       <defs>
        <path id="DejaVuSans-38" d="M 2034 2216 
Q 1584 2216 1326 1975 
Q 1069 1734 1069 1313 
Q 1069 891 1326 650 
Q 1584 409 2034 409 
Q 2484 409 2743 651 
Q 3003 894 3003 1313 
Q 3003 1734 2745 1975 
Q 2488 2216 2034 2216 
z
M 1403 2484 
Q 997 2584 770 2862 
Q 544 3141 544 3541 
Q 544 4100 942 4425 
Q 1341 4750 2034 4750 
Q 2731 4750 3128 4425 
Q 3525 4100 3525 3541 
Q 3525 3141 3298 2862 
Q 3072 2584 2669 2484 
Q 3125 2378 3379 2068 
Q 3634 1759 3634 1313 
Q 3634 634 3220 271 
Q 2806 -91 2034 -91 
Q 1263 -91 848 271 
Q 434 634 434 1313 
Q 434 1759 690 2068 
Q 947 2378 1403 2484 
z
M 1172 3481 
Q 1172 3119 1398 2916 
Q 1625 2713 2034 2713 
Q 2441 2713 2670 2916 
Q 2900 3119 2900 3481 
Q 2900 3844 2670 4047 
Q 2441 4250 2034 4250 
Q 1625 4250 1398 4047 
Q 1172 3844 1172 3481 
z
" transform="scale(0.015625)"/>
       </defs>
       <use xlink:href="#DejaVuSans-30"/>
       <use xlink:href="#DejaVuSans-2e" transform="translate(63.623047 0)"/>
       <use xlink:href="#DejaVuSans-38" transform="translate(95.410156 0)"/>
      </g>
     </g>
    </g>
   </g>
   <g id="line2d_21">
    <path d="M 50.394034 238.344299 
L 58.19823 262.282255 
L 66.002426 254.538934 
L 73.806622 252.177841 
L 81.610817 253.69942 
L 89.415013 245.598942 
L 97.219209 249.050157 
L 105.023405 227.877531 
L 112.827601 260.30664 
L 120.631796 217.77991 
L 128.435992 244.586268 
L 136.240188 242.138368 
L 144.044384 251.223553 
L 151.84858 228.182519 
L 159.652775 233.216026 
L 167.456971 205.311508 
L 175.261167 213.235758 
L 183.065363 261.88564 
L 190.869559 233.686781 
L 198.673754 184.805081 
L 206.47795 233.135384 
L 214.282146 223.584807 
L 222.086342 257.765015 
L 229.890538 167.723869 
L 237.694733 218.612639 
L 245.498929 230.623864 
L 253.303125 237.590255 
L 261.107321 241.104117 
L 268.911517 254.278011 
L 276.715712 236.605648 
L 284.519908 183.11771 
L 292.324104 250.942941 
L 300.1283 236.158024 
L 307.932496 205.021605 
L 315.736691 256.076929 
L 323.540887 202.166398 
L 331.345083 196.951627 
L 339.149279 240.031232 
L 346.953475 234.351017 
L 354.75767 205.272044 
L 362.561866 258.448039 
L 370.366062 248.271286 
L 378.170258 261.229453 
L 385.974454 246.280009 
L 393.778649 260.689675 
L 401.582845 234.078359 
L 409.387041 250.547227 
L 417.191237 233.293303 
L 424.995433 258.074679 
L 432.799628 250.084171 
L 440.603824 252.961957 
L 448.40802 250.137309 
L 456.212216 242.530201 
" clip-path="url(#pccd8ff08dd)" style="fill: none; stroke: #1f77b4; stroke-opacity: 0.7; stroke-width: 1.5; stroke-linecap: square"/>
   </g>
   <g id="line2d_22">
    <path d="M 50.394034 240.353078 
L 58.19823 262.86358 
L 66.002426 261.959467 
L 73.806622 250.90658 
L 81.610817 226.998128 
L 89.415013 213.558771 
L 97.219209 194.702388 
L 105.023405 206.15268 
L 112.827601 171.428736 
L 120.631796 217.060419 
L 128.435992 189.159488 
L 136.240188 190.643048 
L 144.044384 191.54159 
L 151.84858 233.767476 
L 159.652775 197.916181 
L 167.456971 220.095502 
L 175.261167 261.670295 
L 183.065363 129.593899 
L 190.869559 95.784657 
L 198.673754 121.540461 
L 206.47795 71.291741 
L 214.282146 115.263031 
L 222.086342 149.274695 
L 229.890538 200.592748 
L 237.694733 215.886946 
L 245.498929 229.016258 
L 253.303125 242.039896 
L 261.107321 238.261669 
L 268.911517 252.897867 
L 276.715712 238.804213 
L 284.519908 197.277657 
L 292.324104 189.026775 
L 300.1283 107.858941 
L 307.932496 78.835591 
L 315.736691 33.77267 
L 323.540887 151.474489 
L 331.345083 218.217346 
L 339.149279 198.541732 
L 346.953475 168.870365 
L 354.75767 232.824272 
L 362.561866 248.978074 
L 370.366062 259.181685 
L 378.170258 228.577012 
L 385.974454 229.365355 
L 393.778649 208.154425 
L 401.582845 235.270322 
L 409.387041 202.175538 
L 417.191237 261.801444 
L 424.995433 240.625704 
L 432.799628 259.611702 
L 440.603824 248.96829 
L 448.40802 246.85464 
L 456.212216 244.837147 
" clip-path="url(#pccd8ff08dd)" style="fill: none; stroke: #ff7f0e; stroke-opacity: 0.7; stroke-width: 1.5; stroke-linecap: square"/>
   </g>
   <g id="patch_3">
    <path d="M 30.103125 274.318125 
L 30.103125 22.318125 
" style="fill: none; stroke: #000000; stroke-width: 0.8; stroke-linejoin: miter; stroke-linecap: square"/>
   </g>
   <g id="patch_4">
    <path d="M 476.503125 274.318125 
L 476.503125 22.318125 
" style="fill: none; stroke: #000000; stroke-width: 0.8; stroke-linejoin: miter; stroke-linecap: square"/>
   </g>
   <g id="patch_5">
    <path d="M 30.103125 274.318125 
L 476.503125 274.318125 
" style="fill: none; stroke: #000000; stroke-width: 0.8; stroke-linejoin: miter; stroke-linecap: square"/>
   </g>
   <g id="patch_6">
    <path d="M 30.103125 22.318125 
L 476.503125 22.318125 
" style="fill: none; stroke: #000000; stroke-width: 0.8; stroke-linejoin: miter; stroke-linecap: square"/>
   </g>
   <g id="text_12">
    <!-- Diff radiation of transform w/o error H-plane (Phi = 90.0) -->
    <g transform="translate(83.041875 16.318125) scale(0.12 -0.12)">
     <defs>
      <path id="DejaVuSans-44" d="M 1259 4147 
L 1259 519 
L 2022 519 
Q 2988 519 3436 956 
Q 3884 1394 3884 2338 
Q 3884 3275 3436 3711 
Q 2988 4147 2022 4147 
L 1259 4147 
z
M 628 4666 
L 1925 4666 
Q 3281 4666 3915 4102 
Q 4550 3538 4550 2338 
Q 4550 1131 3912 565 
Q 3275 0 1925 0 
L 628 0 
L 628 4666 
z
" transform="scale(0.015625)"/>
      <path id="DejaVuSans-69" d="M 603 3500 
L 1178 3500 
L 1178 0 
L 603 0 
L 603 3500 
z
M 603 4863 
L 1178 4863 
L 1178 4134 
L 603 4134 
L 603 4863 
z
" transform="scale(0.015625)"/>
      <path id="DejaVuSans-66" d="M 2375 4863 
L 2375 4384 
L 1825 4384 
Q 1516 4384 1395 4259 
Q 1275 4134 1275 3809 
L 1275 3500 
L 2222 3500 
L 2222 3053 
L 1275 3053 
L 1275 0 
L 697 0 
L 697 3053 
L 147 3053 
L 147 3500 
L 697 3500 
L 697 3744 
Q 697 4328 969 4595 
Q 1241 4863 1831 4863 
L 2375 4863 
z
" transform="scale(0.015625)"/>
      <path id="DejaVuSans-20" transform="scale(0.015625)"/>
      <path id="DejaVuSans-72" d="M 2631 2963 
Q 2534 3019 2420 3045 
Q 2306 3072 2169 3072 
Q 1681 3072 1420 2755 
Q 1159 2438 1159 1844 
L 1159 0 
L 581 0 
L 581 3500 
L 1159 3500 
L 1159 2956 
Q 1341 3275 1631 3429 
Q 1922 3584 2338 3584 
Q 2397 3584 2469 3576 
Q 2541 3569 2628 3553 
L 2631 2963 
z
" transform="scale(0.015625)"/>
      <path id="DejaVuSans-64" d="M 2906 2969 
L 2906 4863 
L 3481 4863 
L 3481 0 
L 2906 0 
L 2906 525 
Q 2725 213 2448 61 
Q 2172 -91 1784 -91 
Q 1150 -91 751 415 
Q 353 922 353 1747 
Q 353 2572 751 3078 
Q 1150 3584 1784 3584 
Q 2172 3584 2448 3432 
Q 2725 3281 2906 2969 
z
M 947 1747 
Q 947 1113 1208 752 
Q 1469 391 1925 391 
Q 2381 391 2643 752 
Q 2906 1113 2906 1747 
Q 2906 2381 2643 2742 
Q 2381 3103 1925 3103 
Q 1469 3103 1208 2742 
Q 947 2381 947 1747 
z
" transform="scale(0.015625)"/>
      <path id="DejaVuSans-6f" d="M 1959 3097 
Q 1497 3097 1228 2736 
Q 959 2375 959 1747 
Q 959 1119 1226 758 
Q 1494 397 1959 397 
Q 2419 397 2687 759 
Q 2956 1122 2956 1747 
Q 2956 2369 2687 2733 
Q 2419 3097 1959 3097 
z
M 1959 3584 
Q 2709 3584 3137 3096 
Q 3566 2609 3566 1747 
Q 3566 888 3137 398 
Q 2709 -91 1959 -91 
Q 1206 -91 779 398 
Q 353 888 353 1747 
Q 353 2609 779 3096 
Q 1206 3584 1959 3584 
z
" transform="scale(0.015625)"/>
      <path id="DejaVuSans-6e" d="M 3513 2113 
L 3513 0 
L 2938 0 
L 2938 2094 
Q 2938 2591 2744 2837 
Q 2550 3084 2163 3084 
Q 1697 3084 1428 2787 
Q 1159 2491 1159 1978 
L 1159 0 
L 581 0 
L 581 3500 
L 1159 3500 
L 1159 2956 
Q 1366 3272 1645 3428 
Q 1925 3584 2291 3584 
Q 2894 3584 3203 3211 
Q 3513 2838 3513 2113 
z
" transform="scale(0.015625)"/>
      <path id="DejaVuSans-73" d="M 2834 3397 
L 2834 2853 
Q 2591 2978 2328 3040 
Q 2066 3103 1784 3103 
Q 1356 3103 1142 2972 
Q 928 2841 928 2578 
Q 928 2378 1081 2264 
Q 1234 2150 1697 2047 
L 1894 2003 
Q 2506 1872 2764 1633 
Q 3022 1394 3022 966 
Q 3022 478 2636 193 
Q 2250 -91 1575 -91 
Q 1294 -91 989 -36 
Q 684 19 347 128 
L 347 722 
Q 666 556 975 473 
Q 1284 391 1588 391 
Q 1994 391 2212 530 
Q 2431 669 2431 922 
Q 2431 1156 2273 1281 
Q 2116 1406 1581 1522 
L 1381 1569 
Q 847 1681 609 1914 
Q 372 2147 372 2553 
Q 372 3047 722 3315 
Q 1072 3584 1716 3584 
Q 2034 3584 2315 3537 
Q 2597 3491 2834 3397 
z
" transform="scale(0.015625)"/>
      <path id="DejaVuSans-6d" d="M 3328 2828 
Q 3544 3216 3844 3400 
Q 4144 3584 4550 3584 
Q 5097 3584 5394 3201 
Q 5691 2819 5691 2113 
L 5691 0 
L 5113 0 
L 5113 2094 
Q 5113 2597 4934 2840 
Q 4756 3084 4391 3084 
Q 3944 3084 3684 2787 
Q 3425 2491 3425 1978 
L 3425 0 
L 2847 0 
L 2847 2094 
Q 2847 2600 2669 2842 
Q 2491 3084 2119 3084 
Q 1678 3084 1418 2786 
Q 1159 2488 1159 1978 
L 1159 0 
L 581 0 
L 581 3500 
L 1159 3500 
L 1159 2956 
Q 1356 3278 1631 3431 
Q 1906 3584 2284 3584 
Q 2666 3584 2933 3390 
Q 3200 3197 3328 2828 
z
" transform="scale(0.015625)"/>
      <path id="DejaVuSans-77" d="M 269 3500 
L 844 3500 
L 1563 769 
L 2278 3500 
L 2956 3500 
L 3675 769 
L 4391 3500 
L 4966 3500 
L 4050 0 
L 3372 0 
L 2619 2869 
L 1863 0 
L 1184 0 
L 269 3500 
z
" transform="scale(0.015625)"/>
      <path id="DejaVuSans-2f" d="M 1625 4666 
L 2156 4666 
L 531 -594 
L 0 -594 
L 1625 4666 
z
" transform="scale(0.015625)"/>
      <path id="DejaVuSans-48" d="M 628 4666 
L 1259 4666 
L 1259 2753 
L 3553 2753 
L 3553 4666 
L 4184 4666 
L 4184 0 
L 3553 0 
L 3553 2222 
L 1259 2222 
L 1259 0 
L 628 0 
L 628 4666 
z
" transform="scale(0.015625)"/>
      <path id="DejaVuSans-2d" d="M 313 2009 
L 1997 2009 
L 1997 1497 
L 313 1497 
L 313 2009 
z
" transform="scale(0.015625)"/>
      <path id="DejaVuSans-70" d="M 1159 525 
L 1159 -1331 
L 581 -1331 
L 581 3500 
L 1159 3500 
L 1159 2969 
Q 1341 3281 1617 3432 
Q 1894 3584 2278 3584 
Q 2916 3584 3314 3078 
Q 3713 2572 3713 1747 
Q 3713 922 3314 415 
Q 2916 -91 2278 -91 
Q 1894 -91 1617 61 
Q 1341 213 1159 525 
z
M 3116 1747 
Q 3116 2381 2855 2742 
Q 2594 3103 2138 3103 
Q 1681 3103 1420 2742 
Q 1159 2381 1159 1747 
Q 1159 1113 1420 752 
Q 1681 391 2138 391 
Q 2594 391 2855 752 
Q 3116 1113 3116 1747 
z
" transform="scale(0.015625)"/>
      <path id="DejaVuSans-6c" d="M 603 4863 
L 1178 4863 
L 1178 0 
L 603 0 
L 603 4863 
z
" transform="scale(0.015625)"/>
      <path id="DejaVuSans-28" d="M 1984 4856 
Q 1566 4138 1362 3434 
Q 1159 2731 1159 2009 
Q 1159 1288 1364 580 
Q 1569 -128 1984 -844 
L 1484 -844 
Q 1016 -109 783 600 
Q 550 1309 550 2009 
Q 550 2706 781 3412 
Q 1013 4119 1484 4856 
L 1984 4856 
z
" transform="scale(0.015625)"/>
      <path id="DejaVuSans-50" d="M 1259 4147 
L 1259 2394 
L 2053 2394 
Q 2494 2394 2734 2622 
Q 2975 2850 2975 3272 
Q 2975 3691 2734 3919 
Q 2494 4147 2053 4147 
L 1259 4147 
z
M 628 4666 
L 2053 4666 
Q 2838 4666 3239 4311 
Q 3641 3956 3641 3272 
Q 3641 2581 3239 2228 
Q 2838 1875 2053 1875 
L 1259 1875 
L 1259 0 
L 628 0 
L 628 4666 
z
" transform="scale(0.015625)"/>
      <path id="DejaVuSans-3d" d="M 678 2906 
L 4684 2906 
L 4684 2381 
L 678 2381 
L 678 2906 
z
M 678 1631 
L 4684 1631 
L 4684 1100 
L 678 1100 
L 678 1631 
z
" transform="scale(0.015625)"/>
      <path id="DejaVuSans-39" d="M 703 97 
L 703 672 
Q 941 559 1184 500 
Q 1428 441 1663 441 
Q 2288 441 2617 861 
Q 2947 1281 2994 2138 
Q 2813 1869 2534 1725 
Q 2256 1581 1919 1581 
Q 1219 1581 811 2004 
Q 403 2428 403 3163 
Q 403 3881 828 4315 
Q 1253 4750 1959 4750 
Q 2769 4750 3195 4129 
Q 3622 3509 3622 2328 
Q 3622 1225 3098 567 
Q 2575 -91 1691 -91 
Q 1453 -91 1209 -44 
Q 966 3 703 97 
z
M 1959 2075 
Q 2384 2075 2632 2365 
Q 2881 2656 2881 3163 
Q 2881 3666 2632 3958 
Q 2384 4250 1959 4250 
Q 1534 4250 1286 3958 
Q 1038 3666 1038 3163 
Q 1038 2656 1286 2365 
Q 1534 2075 1959 2075 
z
" transform="scale(0.015625)"/>
      <path id="DejaVuSans-29" d="M 513 4856 
L 1013 4856 
Q 1481 4119 1714 3412 
Q 1947 2706 1947 2009 
Q 1947 1309 1714 600 
Q 1481 -109 1013 -844 
L 513 -844 
Q 928 -128 1133 580 
Q 1338 1288 1338 2009 
Q 1338 2731 1133 3434 
Q 928 4138 513 4856 
z
" transform="scale(0.015625)"/>
     </defs>
     <use xlink:href="#DejaVuSans-44"/>
     <use xlink:href="#DejaVuSans-69" transform="translate(77.001953 0)"/>
     <use xlink:href="#DejaVuSans-66" transform="translate(104.785156 0)"/>
     <use xlink:href="#DejaVuSans-66" transform="translate(139.990234 0)"/>
     <use xlink:href="#DejaVuSans-20" transform="translate(175.195312 0)"/>
     <use xlink:href="#DejaVuSans-72" transform="translate(206.982422 0)"/>
     <use xlink:href="#DejaVuSans-61" transform="translate(248.095703 0)"/>
     <use xlink:href="#DejaVuSans-64" transform="translate(309.375 0)"/>
     <use xlink:href="#DejaVuSans-69" transform="translate(372.851562 0)"/>
     <use xlink:href="#DejaVuSans-61" transform="translate(400.634766 0)"/>
     <use xlink:href="#DejaVuSans-74" transform="translate(461.914062 0)"/>
     <use xlink:href="#DejaVuSans-69" transform="translate(501.123047 0)"/>
     <use xlink:href="#DejaVuSans-6f" transform="translate(528.90625 0)"/>
     <use xlink:href="#DejaVuSans-6e" transform="translate(590.087891 0)"/>
     <use xlink:href="#DejaVuSans-20" transform="translate(653.466797 0)"/>
     <use xlink:href="#DejaVuSans-6f" transform="translate(685.253906 0)"/>
     <use xlink:href="#DejaVuSans-66" transform="translate(746.435547 0)"/>
     <use xlink:href="#DejaVuSans-20" transform="translate(781.640625 0)"/>
     <use xlink:href="#DejaVuSans-74" transform="translate(813.427734 0)"/>
     <use xlink:href="#DejaVuSans-72" transform="translate(852.636719 0)"/>
     <use xlink:href="#DejaVuSans-61" transform="translate(893.75 0)"/>
     <use xlink:href="#DejaVuSans-6e" transform="translate(955.029297 0)"/>
     <use xlink:href="#DejaVuSans-73" transform="translate(1018.408203 0)"/>
     <use xlink:href="#DejaVuSans-66" transform="translate(1070.507812 0)"/>
     <use xlink:href="#DejaVuSans-6f" transform="translate(1105.712891 0)"/>
     <use xlink:href="#DejaVuSans-72" transform="translate(1166.894531 0)"/>
     <use xlink:href="#DejaVuSans-6d" transform="translate(1206.257812 0)"/>
     <use xlink:href="#DejaVuSans-20" transform="translate(1303.669922 0)"/>
     <use xlink:href="#DejaVuSans-77" transform="translate(1335.457031 0)"/>
     <use xlink:href="#DejaVuSans-2f" transform="translate(1417.244141 0)"/>
     <use xlink:href="#DejaVuSans-6f" transform="translate(1450.935547 0)"/>
     <use xlink:href="#DejaVuSans-20" transform="translate(1512.117188 0)"/>
     <use xlink:href="#DejaVuSans-65" transform="translate(1543.904297 0)"/>
     <use xlink:href="#DejaVuSans-72" transform="translate(1605.427734 0)"/>
     <use xlink:href="#DejaVuSans-72" transform="translate(1644.791016 0)"/>
     <use xlink:href="#DejaVuSans-6f" transform="translate(1683.654297 0)"/>
     <use xlink:href="#DejaVuSans-72" transform="translate(1744.835938 0)"/>
     <use xlink:href="#DejaVuSans-20" transform="translate(1785.949219 0)"/>
     <use xlink:href="#DejaVuSans-48" transform="translate(1817.736328 0)"/>
     <use xlink:href="#DejaVuSans-2d" transform="translate(1892.931641 0)"/>
     <use xlink:href="#DejaVuSans-70" transform="translate(1929.015625 0)"/>
     <use xlink:href="#DejaVuSans-6c" transform="translate(1992.492188 0)"/>
     <use xlink:href="#DejaVuSans-61" transform="translate(2020.275391 0)"/>
     <use xlink:href="#DejaVuSans-6e" transform="translate(2081.554688 0)"/>
     <use xlink:href="#DejaVuSans-65" transform="translate(2144.933594 0)"/>
     <use xlink:href="#DejaVuSans-20" transform="translate(2206.457031 0)"/>
     <use xlink:href="#DejaVuSans-28" transform="translate(2238.244141 0)"/>
     <use xlink:href="#DejaVuSans-50" transform="translate(2277.257812 0)"/>
     <use xlink:href="#DejaVuSans-68" transform="translate(2337.560547 0)"/>
     <use xlink:href="#DejaVuSans-69" transform="translate(2400.939453 0)"/>
     <use xlink:href="#DejaVuSans-20" transform="translate(2428.722656 0)"/>
     <use xlink:href="#DejaVuSans-3d" transform="translate(2460.509766 0)"/>
     <use xlink:href="#DejaVuSans-20" transform="translate(2544.298828 0)"/>
     <use xlink:href="#DejaVuSans-39" transform="translate(2576.085938 0)"/>
     <use xlink:href="#DejaVuSans-30" transform="translate(2639.708984 0)"/>
     <use xlink:href="#DejaVuSans-2e" transform="translate(2703.332031 0)"/>
     <use xlink:href="#DejaVuSans-30" transform="translate(2735.119141 0)"/>
     <use xlink:href="#DejaVuSans-29" transform="translate(2798.742188 0)"/>
    </g>
   </g>
   <g id="legend_1">
    <g id="patch_7">
     <path d="M 320.678125 59.674375 
L 469.503125 59.674375 
Q 471.503125 59.674375 471.503125 57.674375 
L 471.503125 29.318125 
Q 471.503125 27.318125 469.503125 27.318125 
L 320.678125 27.318125 
Q 318.678125 27.318125 318.678125 29.318125 
L 318.678125 57.674375 
Q 318.678125 59.674375 320.678125 59.674375 
z
" style="fill: #ffffff; opacity: 0.8; stroke: #cccccc; stroke-linejoin: miter"/>
    </g>
    <g id="line2d_23">
     <path d="M 322.678125 35.416562 
L 332.678125 35.416562 
L 342.678125 35.416562 
" style="fill: none; stroke: #1f77b4; stroke-opacity: 0.7; stroke-width: 1.5; stroke-linecap: square"/>
    </g>
    <g id="text_13">
     <!-- Dif plot (smoothed) -->
     <g transform="translate(350.678125 38.916562) scale(0.1 -0.1)">
      <use xlink:href="#DejaVuSans-44"/>
      <use xlink:href="#DejaVuSans-69" transform="translate(77.001953 0)"/>
      <use xlink:href="#DejaVuSans-66" transform="translate(104.785156 0)"/>
      <use xlink:href="#DejaVuSans-20" transform="translate(139.990234 0)"/>
      <use xlink:href="#DejaVuSans-70" transform="translate(171.777344 0)"/>
      <use xlink:href="#DejaVuSans-6c" transform="translate(235.253906 0)"/>
      <use xlink:href="#DejaVuSans-6f" transform="translate(263.037109 0)"/>
      <use xlink:href="#DejaVuSans-74" transform="translate(324.21875 0)"/>
      <use xlink:href="#DejaVuSans-20" transform="translate(363.427734 0)"/>
      <use xlink:href="#DejaVuSans-28" transform="translate(395.214844 0)"/>
      <use xlink:href="#DejaVuSans-73" transform="translate(434.228516 0)"/>
      <use xlink:href="#DejaVuSans-6d" transform="translate(486.328125 0)"/>
      <use xlink:href="#DejaVuSans-6f" transform="translate(583.740234 0)"/>
      <use xlink:href="#DejaVuSans-6f" transform="translate(644.921875 0)"/>
      <use xlink:href="#DejaVuSans-74" transform="translate(706.103516 0)"/>
      <use xlink:href="#DejaVuSans-68" transform="translate(745.3125 0)"/>
      <use xlink:href="#DejaVuSans-65" transform="translate(808.691406 0)"/>
      <use xlink:href="#DejaVuSans-64" transform="translate(870.214844 0)"/>
      <use xlink:href="#DejaVuSans-29" transform="translate(933.691406 0)"/>
     </g>
    </g>
    <g id="line2d_24">
     <path d="M 322.678125 50.094687 
L 332.678125 50.094687 
L 342.678125 50.094687 
" style="fill: none; stroke: #ff7f0e; stroke-opacity: 0.7; stroke-width: 1.5; stroke-linecap: square"/>
    </g>
    <g id="text_14">
     <!-- Dif plot (not smoothed) -->
     <g transform="translate(350.678125 53.594687) scale(0.1 -0.1)">
      <use xlink:href="#DejaVuSans-44"/>
      <use xlink:href="#DejaVuSans-69" transform="translate(77.001953 0)"/>
      <use xlink:href="#DejaVuSans-66" transform="translate(104.785156 0)"/>
      <use xlink:href="#DejaVuSans-20" transform="translate(139.990234 0)"/>
      <use xlink:href="#DejaVuSans-70" transform="translate(171.777344 0)"/>
      <use xlink:href="#DejaVuSans-6c" transform="translate(235.253906 0)"/>
      <use xlink:href="#DejaVuSans-6f" transform="translate(263.037109 0)"/>
      <use xlink:href="#DejaVuSans-74" transform="translate(324.21875 0)"/>
      <use xlink:href="#DejaVuSans-20" transform="translate(363.427734 0)"/>
      <use xlink:href="#DejaVuSans-28" transform="translate(395.214844 0)"/>
      <use xlink:href="#DejaVuSans-6e" transform="translate(434.228516 0)"/>
      <use xlink:href="#DejaVuSans-6f" transform="translate(497.607422 0)"/>
      <use xlink:href="#DejaVuSans-74" transform="translate(558.789062 0)"/>
      <use xlink:href="#DejaVuSans-20" transform="translate(597.998047 0)"/>
      <use xlink:href="#DejaVuSans-73" transform="translate(629.785156 0)"/>
      <use xlink:href="#DejaVuSans-6d" transform="translate(681.884766 0)"/>
      <use xlink:href="#DejaVuSans-6f" transform="translate(779.296875 0)"/>
      <use xlink:href="#DejaVuSans-6f" transform="translate(840.478516 0)"/>
      <use xlink:href="#DejaVuSans-74" transform="translate(901.660156 0)"/>
      <use xlink:href="#DejaVuSans-68" transform="translate(940.869141 0)"/>
      <use xlink:href="#DejaVuSans-65" transform="translate(1004.248047 0)"/>
      <use xlink:href="#DejaVuSans-64" transform="translate(1065.771484 0)"/>
      <use xlink:href="#DejaVuSans-29" transform="translate(1129.248047 0)"/>
     </g>
    </g>
   </g>
  </g>
  <g id="axes_2">
   <g id="patch_8">
    <path d="M 30.103125 576.718125 
L 476.503125 576.718125 
L 476.503125 324.718125 
L 30.103125 324.718125 
z
" style="fill: #ffffff"/>
   </g>
   <g id="matplotlib.axis_3">
    <g id="xtick_6">
     <g id="line2d_25">
      <path d="M 97.219209 576.718125 
L 97.219209 324.718125 
" clip-path="url(#p4d80a6ea57)" style="fill: none; stroke: #b0b0b0; stroke-width: 0.8; stroke-linecap: square"/>
     </g>
     <g id="line2d_26">
      <g>
       <use xlink:href="#m21819bd4f2" x="97.219209" y="576.718125" style="stroke: #000000; stroke-width: 0.8"/>
      </g>
     </g>
     <g id="text_15">
      <!-- −100 -->
      <g transform="translate(83.485615 591.316562) scale(0.1 -0.1)">
       <use xlink:href="#DejaVuSans-2212"/>
       <use xlink:href="#DejaVuSans-31" transform="translate(83.789062 0)"/>
       <use xlink:href="#DejaVuSans-30" transform="translate(147.412109 0)"/>
       <use xlink:href="#DejaVuSans-30" transform="translate(211.035156 0)"/>
      </g>
     </g>
    </g>
    <g id="xtick_7">
     <g id="line2d_27">
      <path d="M 175.261167 576.718125 
L 175.261167 324.718125 
" clip-path="url(#p4d80a6ea57)" style="fill: none; stroke: #b0b0b0; stroke-width: 0.8; stroke-linecap: square"/>
     </g>
     <g id="line2d_28">
      <g>
       <use xlink:href="#m21819bd4f2" x="175.261167" y="576.718125" style="stroke: #000000; stroke-width: 0.8"/>
      </g>
     </g>
     <g id="text_16">
      <!-- −50 -->
      <g transform="translate(164.708823 591.316562) scale(0.1 -0.1)">
       <use xlink:href="#DejaVuSans-2212"/>
       <use xlink:href="#DejaVuSans-35" transform="translate(83.789062 0)"/>
       <use xlink:href="#DejaVuSans-30" transform="translate(147.412109 0)"/>
      </g>
     </g>
    </g>
    <g id="xtick_8">
     <g id="line2d_29">
      <path d="M 253.303125 576.718125 
L 253.303125 324.718125 
" clip-path="url(#p4d80a6ea57)" style="fill: none; stroke: #b0b0b0; stroke-width: 0.8; stroke-linecap: square"/>
     </g>
     <g id="line2d_30">
      <g>
       <use xlink:href="#m21819bd4f2" x="253.303125" y="576.718125" style="stroke: #000000; stroke-width: 0.8"/>
      </g>
     </g>
     <g id="text_17">
      <!-- 0 -->
      <g transform="translate(250.121875 591.316562) scale(0.1 -0.1)">
       <use xlink:href="#DejaVuSans-30"/>
      </g>
     </g>
    </g>
    <g id="xtick_9">
     <g id="line2d_31">
      <path d="M 331.345083 576.718125 
L 331.345083 324.718125 
" clip-path="url(#p4d80a6ea57)" style="fill: none; stroke: #b0b0b0; stroke-width: 0.8; stroke-linecap: square"/>
     </g>
     <g id="line2d_32">
      <g>
       <use xlink:href="#m21819bd4f2" x="331.345083" y="576.718125" style="stroke: #000000; stroke-width: 0.8"/>
      </g>
     </g>
     <g id="text_18">
      <!-- 50 -->
      <g transform="translate(324.982583 591.316562) scale(0.1 -0.1)">
       <use xlink:href="#DejaVuSans-35"/>
       <use xlink:href="#DejaVuSans-30" transform="translate(63.623047 0)"/>
      </g>
     </g>
    </g>
    <g id="xtick_10">
     <g id="line2d_33">
      <path d="M 409.387041 576.718125 
L 409.387041 324.718125 
" clip-path="url(#p4d80a6ea57)" style="fill: none; stroke: #b0b0b0; stroke-width: 0.8; stroke-linecap: square"/>
     </g>
     <g id="line2d_34">
      <g>
       <use xlink:href="#m21819bd4f2" x="409.387041" y="576.718125" style="stroke: #000000; stroke-width: 0.8"/>
      </g>
     </g>
     <g id="text_19">
      <!-- 100 -->
      <g transform="translate(399.843291 591.316562) scale(0.1 -0.1)">
       <use xlink:href="#DejaVuSans-31"/>
       <use xlink:href="#DejaVuSans-30" transform="translate(63.623047 0)"/>
       <use xlink:href="#DejaVuSans-30" transform="translate(127.246094 0)"/>
      </g>
     </g>
    </g>
    <g id="text_20">
     <!-- Theta -->
     <g transform="translate(238.979687 604.994687) scale(0.1 -0.1)">
      <use xlink:href="#DejaVuSans-54"/>
      <use xlink:href="#DejaVuSans-68" transform="translate(61.083984 0)"/>
      <use xlink:href="#DejaVuSans-65" transform="translate(124.462891 0)"/>
      <use xlink:href="#DejaVuSans-74" transform="translate(185.986328 0)"/>
      <use xlink:href="#DejaVuSans-61" transform="translate(225.195312 0)"/>
     </g>
    </g>
   </g>
   <g id="matplotlib.axis_4">
    <g id="ytick_6">
     <g id="line2d_35">
      <path d="M 30.103125 565.873927 
L 476.503125 565.873927 
" clip-path="url(#p4d80a6ea57)" style="fill: none; stroke: #b0b0b0; stroke-width: 0.8; stroke-linecap: square"/>
     </g>
     <g id="line2d_36">
      <g>
       <use xlink:href="#m8fae271c4b" x="30.103125" y="565.873927" style="stroke: #000000; stroke-width: 0.8"/>
      </g>
     </g>
     <g id="text_21">
      <!-- 0.0 -->
      <g transform="translate(7.2 569.673146) scale(0.1 -0.1)">
       <use xlink:href="#DejaVuSans-30"/>
       <use xlink:href="#DejaVuSans-2e" transform="translate(63.623047 0)"/>
       <use xlink:href="#DejaVuSans-30" transform="translate(95.410156 0)"/>
      </g>
     </g>
    </g>
    <g id="ytick_7">
     <g id="line2d_37">
      <path d="M 30.103125 516.508362 
L 476.503125 516.508362 
" clip-path="url(#p4d80a6ea57)" style="fill: none; stroke: #b0b0b0; stroke-width: 0.8; stroke-linecap: square"/>
     </g>
     <g id="line2d_38">
      <g>
       <use xlink:href="#m8fae271c4b" x="30.103125" y="516.508362" style="stroke: #000000; stroke-width: 0.8"/>
      </g>
     </g>
     <g id="text_22">
      <!-- 0.1 -->
      <g transform="translate(7.2 520.307581) scale(0.1 -0.1)">
       <use xlink:href="#DejaVuSans-30"/>
       <use xlink:href="#DejaVuSans-2e" transform="translate(63.623047 0)"/>
       <use xlink:href="#DejaVuSans-31" transform="translate(95.410156 0)"/>
      </g>
     </g>
    </g>
    <g id="ytick_8">
     <g id="line2d_39">
      <path d="M 30.103125 467.142797 
L 476.503125 467.142797 
" clip-path="url(#p4d80a6ea57)" style="fill: none; stroke: #b0b0b0; stroke-width: 0.8; stroke-linecap: square"/>
     </g>
     <g id="line2d_40">
      <g>
       <use xlink:href="#m8fae271c4b" x="30.103125" y="467.142797" style="stroke: #000000; stroke-width: 0.8"/>
      </g>
     </g>
     <g id="text_23">
      <!-- 0.2 -->
      <g transform="translate(7.2 470.942016) scale(0.1 -0.1)">
       <use xlink:href="#DejaVuSans-30"/>
       <use xlink:href="#DejaVuSans-2e" transform="translate(63.623047 0)"/>
       <use xlink:href="#DejaVuSans-32" transform="translate(95.410156 0)"/>
      </g>
     </g>
    </g>
    <g id="ytick_9">
     <g id="line2d_41">
      <path d="M 30.103125 417.777233 
L 476.503125 417.777233 
" clip-path="url(#p4d80a6ea57)" style="fill: none; stroke: #b0b0b0; stroke-width: 0.8; stroke-linecap: square"/>
     </g>
     <g id="line2d_42">
      <g>
       <use xlink:href="#m8fae271c4b" x="30.103125" y="417.777233" style="stroke: #000000; stroke-width: 0.8"/>
      </g>
     </g>
     <g id="text_24">
      <!-- 0.3 -->
      <g transform="translate(7.2 421.576451) scale(0.1 -0.1)">
       <defs>
        <path id="DejaVuSans-33" d="M 2597 2516 
Q 3050 2419 3304 2112 
Q 3559 1806 3559 1356 
Q 3559 666 3084 287 
Q 2609 -91 1734 -91 
Q 1441 -91 1130 -33 
Q 819 25 488 141 
L 488 750 
Q 750 597 1062 519 
Q 1375 441 1716 441 
Q 2309 441 2620 675 
Q 2931 909 2931 1356 
Q 2931 1769 2642 2001 
Q 2353 2234 1838 2234 
L 1294 2234 
L 1294 2753 
L 1863 2753 
Q 2328 2753 2575 2939 
Q 2822 3125 2822 3475 
Q 2822 3834 2567 4026 
Q 2313 4219 1838 4219 
Q 1578 4219 1281 4162 
Q 984 4106 628 3988 
L 628 4550 
Q 988 4650 1302 4700 
Q 1616 4750 1894 4750 
Q 2613 4750 3031 4423 
Q 3450 4097 3450 3541 
Q 3450 3153 3228 2886 
Q 3006 2619 2597 2516 
z
" transform="scale(0.015625)"/>
       </defs>
       <use xlink:href="#DejaVuSans-30"/>
       <use xlink:href="#DejaVuSans-2e" transform="translate(63.623047 0)"/>
       <use xlink:href="#DejaVuSans-33" transform="translate(95.410156 0)"/>
      </g>
     </g>
    </g>
    <g id="ytick_10">
     <g id="line2d_43">
      <path d="M 30.103125 368.411668 
L 476.503125 368.411668 
" clip-path="url(#p4d80a6ea57)" style="fill: none; stroke: #b0b0b0; stroke-width: 0.8; stroke-linecap: square"/>
     </g>
     <g id="line2d_44">
      <g>
       <use xlink:href="#m8fae271c4b" x="30.103125" y="368.411668" style="stroke: #000000; stroke-width: 0.8"/>
      </g>
     </g>
     <g id="text_25">
      <!-- 0.4 -->
      <g transform="translate(7.2 372.210887) scale(0.1 -0.1)">
       <use xlink:href="#DejaVuSans-30"/>
       <use xlink:href="#DejaVuSans-2e" transform="translate(63.623047 0)"/>
       <use xlink:href="#DejaVuSans-34" transform="translate(95.410156 0)"/>
      </g>
     </g>
    </g>
   </g>
   <g id="line2d_45">
    <path d="M 50.394034 477.574928 
L 58.19823 507.352311 
L 66.002426 502.415778 
L 73.806622 422.43892 
L 81.610817 445.785637 
L 89.415013 437.068113 
L 97.219209 515.651469 
L 105.023405 521.93066 
L 112.827601 455.380515 
L 120.631796 429.748203 
L 128.435992 489.492944 
L 136.240188 532.573437 
L 144.044384 528.776197 
L 151.84858 541.683888 
L 159.652775 490.614126 
L 167.456971 516.681808 
L 175.261167 514.2502 
L 183.065363 467.244976 
L 190.869559 564.812224 
L 198.673754 483.687682 
L 206.47795 461.405406 
L 214.282146 437.772965 
L 222.086342 523.083741 
L 229.890538 538.232767 
L 237.694733 564.969728 
L 245.498929 542.530552 
L 253.303125 543.123899 
L 261.107321 558.668161 
L 268.911517 552.218908 
L 276.715712 557.060887 
L 284.519908 527.6982 
L 292.324104 555.877653 
L 300.1283 553.645932 
L 307.932496 452.955389 
L 315.736691 489.976861 
L 323.540887 559.45604 
L 331.345083 507.836866 
L 339.149279 507.671722 
L 346.953475 413.179839 
L 354.75767 463.689805 
L 362.561866 557.800586 
L 370.366062 474.321808 
L 378.170258 455.39207 
L 385.974454 455.842235 
L 393.778649 539.951572 
L 401.582845 538.089051 
L 409.387041 526.383322 
L 417.191237 470.383211 
L 424.995433 530.49892 
L 432.799628 539.149736 
L 440.603824 549.770176 
L 448.40802 489.68043 
L 456.212216 410.807281 
" clip-path="url(#p4d80a6ea57)" style="fill: none; stroke: #1f77b4; stroke-opacity: 0.7; stroke-width: 1.5; stroke-linecap: square"/>
   </g>
   <g id="line2d_46">
    <path d="M 50.394034 450.791366 
L 58.19823 555.114551 
L 66.002426 455.27417 
L 73.806622 456.339813 
L 81.610817 399.470657 
L 89.415013 499.817546 
L 97.219209 432.189888 
L 105.023405 528.27404 
L 112.827601 446.837016 
L 120.631796 346.78398 
L 128.435992 543.602817 
L 136.240188 487.834583 
L 144.044384 513.708102 
L 151.84858 520.080072 
L 159.652775 551.821368 
L 167.456971 356.321126 
L 175.261167 370.344035 
L 183.065363 499.316264 
L 190.869559 513.671842 
L 198.673754 556.520908 
L 206.47795 365.78841 
L 214.282146 502.005818 
L 222.086342 484.997127 
L 229.890538 565.26358 
L 237.694733 548.962586 
L 245.498929 557.611032 
L 253.303125 525.975815 
L 261.107321 564.762763 
L 268.911517 547.131131 
L 276.715712 564.46162 
L 284.519908 553.877238 
L 292.324104 499.153798 
L 300.1283 468.44577 
L 307.932496 411.483567 
L 315.736691 388.181489 
L 323.540887 377.706678 
L 331.345083 482.095288 
L 339.149279 465.962144 
L 346.953475 387.710032 
L 354.75767 489.359105 
L 362.561866 548.224483 
L 370.366062 490.651402 
L 378.170258 398.70376 
L 385.974454 533.123291 
L 393.778649 457.989233 
L 401.582845 492.754708 
L 409.387041 546.148545 
L 417.191237 336.17267 
L 424.995433 511.816504 
L 432.799628 531.444025 
L 440.603824 484.096934 
L 448.40802 563.730408 
L 456.212216 382.584314 
" clip-path="url(#p4d80a6ea57)" style="fill: none; stroke: #ff7f0e; stroke-opacity: 0.7; stroke-width: 1.5; stroke-linecap: square"/>
   </g>
   <g id="patch_9">
    <path d="M 30.103125 576.718125 
L 30.103125 324.718125 
" style="fill: none; stroke: #000000; stroke-width: 0.8; stroke-linejoin: miter; stroke-linecap: square"/>
   </g>
   <g id="patch_10">
    <path d="M 476.503125 576.718125 
L 476.503125 324.718125 
" style="fill: none; stroke: #000000; stroke-width: 0.8; stroke-linejoin: miter; stroke-linecap: square"/>
   </g>
   <g id="patch_11">
    <path d="M 30.103125 576.718125 
L 476.503125 576.718125 
" style="fill: none; stroke: #000000; stroke-width: 0.8; stroke-linejoin: miter; stroke-linecap: square"/>
   </g>
   <g id="patch_12">
    <path d="M 30.103125 324.718125 
L 476.503125 324.718125 
" style="fill: none; stroke: #000000; stroke-width: 0.8; stroke-linejoin: miter; stroke-linecap: square"/>
   </g>
   <g id="text_26">
    <!-- Diff radiation of transform w/o error E-plane (Phi = 0.0) -->
    <g transform="translate(87.580312 318.718125) scale(0.12 -0.12)">
     <defs>
      <path id="DejaVuSans-45" d="M 628 4666 
L 3578 4666 
L 3578 4134 
L 1259 4134 
L 1259 2753 
L 3481 2753 
L 3481 2222 
L 1259 2222 
L 1259 531 
L 3634 531 
L 3634 0 
L 628 0 
L 628 4666 
z
" transform="scale(0.015625)"/>
     </defs>
     <use xlink:href="#DejaVuSans-44"/>
     <use xlink:href="#DejaVuSans-69" transform="translate(77.001953 0)"/>
     <use xlink:href="#DejaVuSans-66" transform="translate(104.785156 0)"/>
     <use xlink:href="#DejaVuSans-66" transform="translate(139.990234 0)"/>
     <use xlink:href="#DejaVuSans-20" transform="translate(175.195312 0)"/>
     <use xlink:href="#DejaVuSans-72" transform="translate(206.982422 0)"/>
     <use xlink:href="#DejaVuSans-61" transform="translate(248.095703 0)"/>
     <use xlink:href="#DejaVuSans-64" transform="translate(309.375 0)"/>
     <use xlink:href="#DejaVuSans-69" transform="translate(372.851562 0)"/>
     <use xlink:href="#DejaVuSans-61" transform="translate(400.634766 0)"/>
     <use xlink:href="#DejaVuSans-74" transform="translate(461.914062 0)"/>
     <use xlink:href="#DejaVuSans-69" transform="translate(501.123047 0)"/>
     <use xlink:href="#DejaVuSans-6f" transform="translate(528.90625 0)"/>
     <use xlink:href="#DejaVuSans-6e" transform="translate(590.087891 0)"/>
     <use xlink:href="#DejaVuSans-20" transform="translate(653.466797 0)"/>
     <use xlink:href="#DejaVuSans-6f" transform="translate(685.253906 0)"/>
     <use xlink:href="#DejaVuSans-66" transform="translate(746.435547 0)"/>
     <use xlink:href="#DejaVuSans-20" transform="translate(781.640625 0)"/>
     <use xlink:href="#DejaVuSans-74" transform="translate(813.427734 0)"/>
     <use xlink:href="#DejaVuSans-72" transform="translate(852.636719 0)"/>
     <use xlink:href="#DejaVuSans-61" transform="translate(893.75 0)"/>
     <use xlink:href="#DejaVuSans-6e" transform="translate(955.029297 0)"/>
     <use xlink:href="#DejaVuSans-73" transform="translate(1018.408203 0)"/>
     <use xlink:href="#DejaVuSans-66" transform="translate(1070.507812 0)"/>
     <use xlink:href="#DejaVuSans-6f" transform="translate(1105.712891 0)"/>
     <use xlink:href="#DejaVuSans-72" transform="translate(1166.894531 0)"/>
     <use xlink:href="#DejaVuSans-6d" transform="translate(1206.257812 0)"/>
     <use xlink:href="#DejaVuSans-20" transform="translate(1303.669922 0)"/>
     <use xlink:href="#DejaVuSans-77" transform="translate(1335.457031 0)"/>
     <use xlink:href="#DejaVuSans-2f" transform="translate(1417.244141 0)"/>
     <use xlink:href="#DejaVuSans-6f" transform="translate(1450.935547 0)"/>
     <use xlink:href="#DejaVuSans-20" transform="translate(1512.117188 0)"/>
     <use xlink:href="#DejaVuSans-65" transform="translate(1543.904297 0)"/>
     <use xlink:href="#DejaVuSans-72" transform="translate(1605.427734 0)"/>
     <use xlink:href="#DejaVuSans-72" transform="translate(1644.791016 0)"/>
     <use xlink:href="#DejaVuSans-6f" transform="translate(1683.654297 0)"/>
     <use xlink:href="#DejaVuSans-72" transform="translate(1744.835938 0)"/>
     <use xlink:href="#DejaVuSans-20" transform="translate(1785.949219 0)"/>
     <use xlink:href="#DejaVuSans-45" transform="translate(1817.736328 0)"/>
     <use xlink:href="#DejaVuSans-2d" transform="translate(1880.919922 0)"/>
     <use xlink:href="#DejaVuSans-70" transform="translate(1917.003906 0)"/>
     <use xlink:href="#DejaVuSans-6c" transform="translate(1980.480469 0)"/>
     <use xlink:href="#DejaVuSans-61" transform="translate(2008.263672 0)"/>
     <use xlink:href="#DejaVuSans-6e" transform="translate(2069.542969 0)"/>
     <use xlink:href="#DejaVuSans-65" transform="translate(2132.921875 0)"/>
     <use xlink:href="#DejaVuSans-20" transform="translate(2194.445312 0)"/>
     <use xlink:href="#DejaVuSans-28" transform="translate(2226.232422 0)"/>
     <use xlink:href="#DejaVuSans-50" transform="translate(2265.246094 0)"/>
     <use xlink:href="#DejaVuSans-68" transform="translate(2325.548828 0)"/>
     <use xlink:href="#DejaVuSans-69" transform="translate(2388.927734 0)"/>
     <use xlink:href="#DejaVuSans-20" transform="translate(2416.710938 0)"/>
     <use xlink:href="#DejaVuSans-3d" transform="translate(2448.498047 0)"/>
     <use xlink:href="#DejaVuSans-20" transform="translate(2532.287109 0)"/>
     <use xlink:href="#DejaVuSans-30" transform="translate(2564.074219 0)"/>
     <use xlink:href="#DejaVuSans-2e" transform="translate(2627.697266 0)"/>
     <use xlink:href="#DejaVuSans-30" transform="translate(2659.484375 0)"/>
     <use xlink:href="#DejaVuSans-29" transform="translate(2723.107422 0)"/>
    </g>
   </g>
   <g id="legend_2">
    <g id="patch_13">
     <path d="M 178.890625 362.074375 
L 327.715625 362.074375 
Q 329.715625 362.074375 329.715625 360.074375 
L 329.715625 331.718125 
Q 329.715625 329.718125 327.715625 329.718125 
L 178.890625 329.718125 
Q 176.890625 329.718125 176.890625 331.718125 
L 176.890625 360.074375 
Q 176.890625 362.074375 178.890625 362.074375 
z
" style="fill: #ffffff; opacity: 0.8; stroke: #cccccc; stroke-linejoin: miter"/>
    </g>
    <g id="line2d_47">
     <path d="M 180.890625 337.816563 
L 190.890625 337.816563 
L 200.890625 337.816563 
" style="fill: none; stroke: #1f77b4; stroke-opacity: 0.7; stroke-width: 1.5; stroke-linecap: square"/>
    </g>
    <g id="text_27">
     <!-- Dif plot (smoothed) -->
     <g transform="translate(208.890625 341.316563) scale(0.1 -0.1)">
      <use xlink:href="#DejaVuSans-44"/>
      <use xlink:href="#DejaVuSans-69" transform="translate(77.001953 0)"/>
      <use xlink:href="#DejaVuSans-66" transform="translate(104.785156 0)"/>
      <use xlink:href="#DejaVuSans-20" transform="translate(139.990234 0)"/>
      <use xlink:href="#DejaVuSans-70" transform="translate(171.777344 0)"/>
      <use xlink:href="#DejaVuSans-6c" transform="translate(235.253906 0)"/>
      <use xlink:href="#DejaVuSans-6f" transform="translate(263.037109 0)"/>
      <use xlink:href="#DejaVuSans-74" transform="translate(324.21875 0)"/>
      <use xlink:href="#DejaVuSans-20" transform="translate(363.427734 0)"/>
      <use xlink:href="#DejaVuSans-28" transform="translate(395.214844 0)"/>
      <use xlink:href="#DejaVuSans-73" transform="translate(434.228516 0)"/>
      <use xlink:href="#DejaVuSans-6d" transform="translate(486.328125 0)"/>
      <use xlink:href="#DejaVuSans-6f" transform="translate(583.740234 0)"/>
      <use xlink:href="#DejaVuSans-6f" transform="translate(644.921875 0)"/>
      <use xlink:href="#DejaVuSans-74" transform="translate(706.103516 0)"/>
      <use xlink:href="#DejaVuSans-68" transform="translate(745.3125 0)"/>
      <use xlink:href="#DejaVuSans-65" transform="translate(808.691406 0)"/>
      <use xlink:href="#DejaVuSans-64" transform="translate(870.214844 0)"/>
      <use xlink:href="#DejaVuSans-29" transform="translate(933.691406 0)"/>
     </g>
    </g>
    <g id="line2d_48">
     <path d="M 180.890625 352.494688 
L 190.890625 352.494688 
L 200.890625 352.494688 
" style="fill: none; stroke: #ff7f0e; stroke-opacity: 0.7; stroke-width: 1.5; stroke-linecap: square"/>
    </g>
    <g id="text_28">
     <!-- Dif plot (not smoothed) -->
     <g transform="translate(208.890625 355.994688) scale(0.1 -0.1)">
      <use xlink:href="#DejaVuSans-44"/>
      <use xlink:href="#DejaVuSans-69" transform="translate(77.001953 0)"/>
      <use xlink:href="#DejaVuSans-66" transform="translate(104.785156 0)"/>
      <use xlink:href="#DejaVuSans-20" transform="translate(139.990234 0)"/>
      <use xlink:href="#DejaVuSans-70" transform="translate(171.777344 0)"/>
      <use xlink:href="#DejaVuSans-6c" transform="translate(235.253906 0)"/>
      <use xlink:href="#DejaVuSans-6f" transform="translate(263.037109 0)"/>
      <use xlink:href="#DejaVuSans-74" transform="translate(324.21875 0)"/>
      <use xlink:href="#DejaVuSans-20" transform="translate(363.427734 0)"/>
      <use xlink:href="#DejaVuSans-28" transform="translate(395.214844 0)"/>
      <use xlink:href="#DejaVuSans-6e" transform="translate(434.228516 0)"/>
      <use xlink:href="#DejaVuSans-6f" transform="translate(497.607422 0)"/>
      <use xlink:href="#DejaVuSans-74" transform="translate(558.789062 0)"/>
      <use xlink:href="#DejaVuSans-20" transform="translate(597.998047 0)"/>
      <use xlink:href="#DejaVuSans-73" transform="translate(629.785156 0)"/>
      <use xlink:href="#DejaVuSans-6d" transform="translate(681.884766 0)"/>
      <use xlink:href="#DejaVuSans-6f" transform="translate(779.296875 0)"/>
      <use xlink:href="#DejaVuSans-6f" transform="translate(840.478516 0)"/>
      <use xlink:href="#DejaVuSans-74" transform="translate(901.660156 0)"/>
      <use xlink:href="#DejaVuSans-68" transform="translate(940.869141 0)"/>
      <use xlink:href="#DejaVuSans-65" transform="translate(1004.248047 0)"/>
      <use xlink:href="#DejaVuSans-64" transform="translate(1065.771484 0)"/>
      <use xlink:href="#DejaVuSans-29" transform="translate(1129.248047 0)"/>
     </g>
    </g>
   </g>
  </g>
 </g>
 <defs>
  <clipPath id="pccd8ff08dd">
   <rect x="30.103125" y="22.318125" width="446.4" height="252"/>
  </clipPath>
  <clipPath id="p4d80a6ea57">
   <rect x="30.103125" y="324.718125" width="446.4" height="252"/>
  </clipPath>
 </defs>
</svg>
