<?xml version="1.0" encoding="utf-8" standalone="no"?>
<!DOCTYPE svg PUBLIC "-//W3C//DTD SVG 1.1//EN"
  "http://www.w3.org/Graphics/SVG/1.1/DTD/svg11.dtd">
<svg xmlns:xlink="http://www.w3.org/1999/xlink" width="417.245pt" height="214.405398pt" viewBox="0 0 417.245 214.405398" xmlns="http://www.w3.org/2000/svg" version="1.1">
 <metadata>
  <rdf:RDF xmlns:dc="http://purl.org/dc/elements/1.1/" xmlns:cc="http://creativecommons.org/ns#" xmlns:rdf="http://www.w3.org/1999/02/22-rdf-syntax-ns#">
   <cc:Work>
    <dc:type rdf:resource="http://purl.org/dc/dcmitype/StillImage"/>
    <dc:date>2025-01-19T18:00:39.229347</dc:date>
    <dc:format>image/svg+xml</dc:format>
    <dc:creator>
     <cc:Agent>
      <dc:title>Matplotlib v3.10.0, https://matplotlib.org/</dc:title>
     </cc:Agent>
    </dc:creator>
   </cc:Work>
  </rdf:RDF>
 </metadata>
 <defs>
  <style type="text/css">*{stroke-linejoin: round; stroke-linecap: butt}</style>
 </defs>
 <g id="figure_1">
  <g id="patch_1">
   <path d="M 0 214.405398 
L 417.245 214.405398 
L 417.245 -0 
L 0 -0 
z
" style="fill: #ffffff"/>
  </g>
  <g id="axes_1">
   <g id="patch_2">
    <path d="M 195.571023 107.202699 
C 195.571023 96.544388 193.471568 85.989715 189.392809 76.14272 
C 185.31405 66.295724 179.335308 57.347905 171.798744 49.811341 
C 164.26218 42.274777 155.314361 36.296036 145.467365 32.217276 
C 135.62037 28.138517 125.065697 26.039063 114.407386 26.039063 
C 103.749075 26.039063 93.194403 28.138517 83.347407 32.217276 
C 73.500412 36.296036 64.552593 42.274777 57.016029 49.811341 
C 49.479465 57.347905 43.500723 66.295724 39.421964 76.14272 
C 35.343205 85.989715 33.24375 96.544388 33.24375 107.202699 
C 33.24375 117.86101 35.343205 128.415682 39.421964 138.262678 
C 43.500723 148.109673 49.479465 157.057492 57.016029 164.594057 
C 64.552593 172.130621 73.500412 178.109362 83.347407 182.188121 
C 93.194403 186.26688 103.749075 188.366335 114.407386 188.366335 
C 125.065697 188.366335 135.62037 186.26688 145.467365 182.188121 
C 155.314361 178.109362 164.26218 172.130621 171.798744 164.594057 
C 179.335308 157.057492 185.31405 148.109673 189.392809 138.262678 
C 193.471568 128.415682 195.571023 117.86101 195.571023 107.202699 
M 114.407386 107.202699 
C 114.407386 107.202699 114.407386 107.202699 114.407386 107.202699 
C 114.407386 107.202699 114.407386 107.202699 114.407386 107.202699 
C 114.407386 107.202699 114.407386 107.202699 114.407386 107.202699 
C 114.407386 107.202699 114.407386 107.202699 114.407386 107.202699 
C 114.407386 107.202699 114.407386 107.202699 114.407386 107.202699 
C 114.407386 107.202699 114.407386 107.202699 114.407386 107.202699 
C 114.407386 107.202699 114.407386 107.202699 114.407386 107.202699 
C 114.407386 107.202699 114.407386 107.202699 114.407386 107.202699 
C 114.407386 107.202699 114.407386 107.202699 114.407386 107.202699 
C 114.407386 107.202699 114.407386 107.202699 114.407386 107.202699 
C 114.407386 107.202699 114.407386 107.202699 114.407386 107.202699 
C 114.407386 107.202699 114.407386 107.202699 114.407386 107.202699 
C 114.407386 107.202699 114.407386 107.202699 114.407386 107.202699 
C 114.407386 107.202699 114.407386 107.202699 114.407386 107.202699 
C 114.407386 107.202699 114.407386 107.202699 114.407386 107.202699 
C 114.407386 107.202699 114.407386 107.202699 114.407386 107.202699 
z
" style="fill: #ffffff"/>
   </g>
   <g id="matplotlib.axis_1">
    <g id="xtick_1">
     <g id="line2d_1">
      <path d="M 114.407386 107.202699 
L 195.571023 107.202699 
" clip-path="url(#p20f2ef6f1e)" style="fill: none; stroke: #b0b0b0; stroke-width: 0.8; stroke-linecap: square"/>
     </g>
     <g id="text_1">
      <!-- 0° -->
      <g transform="translate(203.889773 109.962074) scale(0.1 -0.1)">
       <defs>
        <path id="DejaVuSans-30" d="M 2034 4250 
Q 1547 4250 1301 3770 
Q 1056 3291 1056 2328 
Q 1056 1369 1301 889 
Q 1547 409 2034 409 
Q 2525 409 2770 889 
Q 3016 1369 3016 2328 
Q 3016 3291 2770 3770 
Q 2525 4250 2034 4250 
z
M 2034 4750 
Q 2819 4750 3233 4129 
Q 3647 3509 3647 2328 
Q 3647 1150 3233 529 
Q 2819 -91 2034 -91 
Q 1250 -91 836 529 
Q 422 1150 422 2328 
Q 422 3509 836 4129 
Q 1250 4750 2034 4750 
z
" transform="scale(0.015625)"/>
        <path id="DejaVuSans-b0" d="M 1600 4347 
Q 1350 4347 1178 4173 
Q 1006 4000 1006 3750 
Q 1006 3503 1178 3333 
Q 1350 3163 1600 3163 
Q 1850 3163 2022 3333 
Q 2194 3503 2194 3750 
Q 2194 3997 2020 4172 
Q 1847 4347 1600 4347 
z
M 1600 4750 
Q 1800 4750 1984 4673 
Q 2169 4597 2303 4453 
Q 2447 4313 2519 4134 
Q 2591 3956 2591 3750 
Q 2591 3338 2302 3052 
Q 2013 2766 1594 2766 
Q 1172 2766 890 3047 
Q 609 3328 609 3750 
Q 609 4169 896 4459 
Q 1184 4750 1600 4750 
z
" transform="scale(0.015625)"/>
       </defs>
       <use xlink:href="#DejaVuSans-30"/>
       <use xlink:href="#DejaVuSans-b0" transform="translate(63.623047 0)"/>
      </g>
     </g>
    </g>
    <g id="xtick_2">
     <g id="line2d_2">
      <path d="M 114.407386 107.202699 
L 171.798744 49.811341 
" clip-path="url(#p20f2ef6f1e)" style="fill: none; stroke: #b0b0b0; stroke-width: 0.8; stroke-linecap: square"/>
     </g>
     <g id="text_2">
      <!-- 45° -->
      <g transform="translate(172.835739 42.671221) scale(0.1 -0.1)">
       <defs>
        <path id="DejaVuSans-34" d="M 2419 4116 
L 825 1625 
L 2419 1625 
L 2419 4116 
z
M 2253 4666 
L 3047 4666 
L 3047 1625 
L 3713 1625 
L 3713 1100 
L 3047 1100 
L 3047 0 
L 2419 0 
L 2419 1100 
L 313 1100 
L 313 1709 
L 2253 4666 
z
" transform="scale(0.015625)"/>
        <path id="DejaVuSans-35" d="M 691 4666 
L 3169 4666 
L 3169 4134 
L 1269 4134 
L 1269 2991 
Q 1406 3038 1543 3061 
Q 1681 3084 1819 3084 
Q 2600 3084 3056 2656 
Q 3513 2228 3513 1497 
Q 3513 744 3044 326 
Q 2575 -91 1722 -91 
Q 1428 -91 1123 -41 
Q 819 9 494 109 
L 494 744 
Q 775 591 1075 516 
Q 1375 441 1709 441 
Q 2250 441 2565 725 
Q 2881 1009 2881 1497 
Q 2881 1984 2565 2268 
Q 2250 2553 1709 2553 
Q 1456 2553 1204 2497 
Q 953 2441 691 2322 
L 691 4666 
z
" transform="scale(0.015625)"/>
       </defs>
       <use xlink:href="#DejaVuSans-34"/>
       <use xlink:href="#DejaVuSans-35" transform="translate(63.623047 0)"/>
       <use xlink:href="#DejaVuSans-b0" transform="translate(127.246094 0)"/>
      </g>
     </g>
    </g>
    <g id="xtick_3">
     <g id="line2d_3">
      <path d="M 114.407386 107.202699 
L 114.407386 26.039063 
" clip-path="url(#p20f2ef6f1e)" style="fill: none; stroke: #b0b0b0; stroke-width: 0.8; stroke-linecap: square"/>
     </g>
     <g id="text_3">
      <!-- 90° -->
      <g transform="translate(105.544886 14.798438) scale(0.1 -0.1)">
       <defs>
        <path id="DejaVuSans-39" d="M 703 97 
L 703 672 
Q 941 559 1184 500 
Q 1428 441 1663 441 
Q 2288 441 2617 861 
Q 2947 1281 2994 2138 
Q 2813 1869 2534 1725 
Q 2256 1581 1919 1581 
Q 1219 1581 811 2004 
Q 403 2428 403 3163 
Q 403 3881 828 4315 
Q 1253 4750 1959 4750 
Q 2769 4750 3195 4129 
Q 3622 3509 3622 2328 
Q 3622 1225 3098 567 
Q 2575 -91 1691 -91 
Q 1453 -91 1209 -44 
Q 966 3 703 97 
z
M 1959 2075 
Q 2384 2075 2632 2365 
Q 2881 2656 2881 3163 
Q 2881 3666 2632 3958 
Q 2384 4250 1959 4250 
Q 1534 4250 1286 3958 
Q 1038 3666 1038 3163 
Q 1038 2656 1286 2365 
Q 1534 2075 1959 2075 
z
" transform="scale(0.015625)"/>
       </defs>
       <use xlink:href="#DejaVuSans-39"/>
       <use xlink:href="#DejaVuSans-30" transform="translate(63.623047 0)"/>
       <use xlink:href="#DejaVuSans-b0" transform="translate(127.246094 0)"/>
      </g>
     </g>
    </g>
    <g id="xtick_4">
     <g id="line2d_4">
      <path d="M 114.407386 107.202699 
L 57.016029 49.811341 
" clip-path="url(#p20f2ef6f1e)" style="fill: none; stroke: #b0b0b0; stroke-width: 0.8; stroke-linecap: square"/>
     </g>
     <g id="text_4">
      <!-- 135° -->
      <g transform="translate(35.072784 42.671221) scale(0.1 -0.1)">
       <defs>
        <path id="DejaVuSans-31" d="M 794 531 
L 1825 531 
L 1825 4091 
L 703 3866 
L 703 4441 
L 1819 4666 
L 2450 4666 
L 2450 531 
L 3481 531 
L 3481 0 
L 794 0 
L 794 531 
z
" transform="scale(0.015625)"/>
        <path id="DejaVuSans-33" d="M 2597 2516 
Q 3050 2419 3304 2112 
Q 3559 1806 3559 1356 
Q 3559 666 3084 287 
Q 2609 -91 1734 -91 
Q 1441 -91 1130 -33 
Q 819 25 488 141 
L 488 750 
Q 750 597 1062 519 
Q 1375 441 1716 441 
Q 2309 441 2620 675 
Q 2931 909 2931 1356 
Q 2931 1769 2642 2001 
Q 2353 2234 1838 2234 
L 1294 2234 
L 1294 2753 
L 1863 2753 
Q 2328 2753 2575 2939 
Q 2822 3125 2822 3475 
Q 2822 3834 2567 4026 
Q 2313 4219 1838 4219 
Q 1578 4219 1281 4162 
Q 984 4106 628 3988 
L 628 4550 
Q 988 4650 1302 4700 
Q 1616 4750 1894 4750 
Q 2613 4750 3031 4423 
Q 3450 4097 3450 3541 
Q 3450 3153 3228 2886 
Q 3006 2619 2597 2516 
z
" transform="scale(0.015625)"/>
       </defs>
       <use xlink:href="#DejaVuSans-31"/>
       <use xlink:href="#DejaVuSans-33" transform="translate(63.623047 0)"/>
       <use xlink:href="#DejaVuSans-35" transform="translate(127.246094 0)"/>
       <use xlink:href="#DejaVuSans-b0" transform="translate(190.869141 0)"/>
      </g>
     </g>
    </g>
    <g id="xtick_5">
     <g id="line2d_5">
      <path d="M 114.407386 107.202699 
L 33.24375 107.202699 
" clip-path="url(#p20f2ef6f1e)" style="fill: none; stroke: #b0b0b0; stroke-width: 0.8; stroke-linecap: square"/>
     </g>
     <g id="text_5">
      <!-- 180° -->
      <g transform="translate(7.2 109.962074) scale(0.1 -0.1)">
       <defs>
        <path id="DejaVuSans-38" d="M 2034 2216 
Q 1584 2216 1326 1975 
Q 1069 1734 1069 1313 
Q 1069 891 1326 650 
Q 1584 409 2034 409 
Q 2484 409 2743 651 
Q 3003 894 3003 1313 
Q 3003 1734 2745 1975 
Q 2488 2216 2034 2216 
z
M 1403 2484 
Q 997 2584 770 2862 
Q 544 3141 544 3541 
Q 544 4100 942 4425 
Q 1341 4750 2034 4750 
Q 2731 4750 3128 4425 
Q 3525 4100 3525 3541 
Q 3525 3141 3298 2862 
Q 3072 2584 2669 2484 
Q 3125 2378 3379 2068 
Q 3634 1759 3634 1313 
Q 3634 634 3220 271 
Q 2806 -91 2034 -91 
Q 1263 -91 848 271 
Q 434 634 434 1313 
Q 434 1759 690 2068 
Q 947 2378 1403 2484 
z
M 1172 3481 
Q 1172 3119 1398 2916 
Q 1625 2713 2034 2713 
Q 2441 2713 2670 2916 
Q 2900 3119 2900 3481 
Q 2900 3844 2670 4047 
Q 2441 4250 2034 4250 
Q 1625 4250 1398 4047 
Q 1172 3844 1172 3481 
z
" transform="scale(0.015625)"/>
       </defs>
       <use xlink:href="#DejaVuSans-31"/>
       <use xlink:href="#DejaVuSans-38" transform="translate(63.623047 0)"/>
       <use xlink:href="#DejaVuSans-30" transform="translate(127.246094 0)"/>
       <use xlink:href="#DejaVuSans-b0" transform="translate(190.869141 0)"/>
      </g>
     </g>
    </g>
    <g id="xtick_6">
     <g id="line2d_6">
      <path d="M 114.407386 107.202699 
L 57.016029 164.594057 
" clip-path="url(#p20f2ef6f1e)" style="fill: none; stroke: #b0b0b0; stroke-width: 0.8; stroke-linecap: square"/>
     </g>
     <g id="text_6">
      <!-- 225° -->
      <g transform="translate(35.072784 177.252926) scale(0.1 -0.1)">
       <defs>
        <path id="DejaVuSans-32" d="M 1228 531 
L 3431 531 
L 3431 0 
L 469 0 
L 469 531 
Q 828 903 1448 1529 
Q 2069 2156 2228 2338 
Q 2531 2678 2651 2914 
Q 2772 3150 2772 3378 
Q 2772 3750 2511 3984 
Q 2250 4219 1831 4219 
Q 1534 4219 1204 4116 
Q 875 4013 500 3803 
L 500 4441 
Q 881 4594 1212 4672 
Q 1544 4750 1819 4750 
Q 2544 4750 2975 4387 
Q 3406 4025 3406 3419 
Q 3406 3131 3298 2873 
Q 3191 2616 2906 2266 
Q 2828 2175 2409 1742 
Q 1991 1309 1228 531 
z
" transform="scale(0.015625)"/>
       </defs>
       <use xlink:href="#DejaVuSans-32"/>
       <use xlink:href="#DejaVuSans-32" transform="translate(63.623047 0)"/>
       <use xlink:href="#DejaVuSans-35" transform="translate(127.246094 0)"/>
       <use xlink:href="#DejaVuSans-b0" transform="translate(190.869141 0)"/>
      </g>
     </g>
    </g>
    <g id="xtick_7">
     <g id="line2d_7">
      <path d="M 114.407386 107.202699 
L 114.407386 188.366335 
" clip-path="url(#p20f2ef6f1e)" style="fill: none; stroke: #b0b0b0; stroke-width: 0.8; stroke-linecap: square"/>
     </g>
     <g id="text_7">
      <!-- 270° -->
      <g transform="translate(102.363636 205.12571) scale(0.1 -0.1)">
       <defs>
        <path id="DejaVuSans-37" d="M 525 4666 
L 3525 4666 
L 3525 4397 
L 1831 0 
L 1172 0 
L 2766 4134 
L 525 4134 
L 525 4666 
z
" transform="scale(0.015625)"/>
       </defs>
       <use xlink:href="#DejaVuSans-32"/>
       <use xlink:href="#DejaVuSans-37" transform="translate(63.623047 0)"/>
       <use xlink:href="#DejaVuSans-30" transform="translate(127.246094 0)"/>
       <use xlink:href="#DejaVuSans-b0" transform="translate(190.869141 0)"/>
      </g>
     </g>
    </g>
    <g id="xtick_8">
     <g id="line2d_8">
      <path d="M 114.407386 107.202699 
L 171.798744 164.594057 
" clip-path="url(#p20f2ef6f1e)" style="fill: none; stroke: #b0b0b0; stroke-width: 0.8; stroke-linecap: square"/>
     </g>
     <g id="text_8">
      <!-- 315° -->
      <g transform="translate(169.654489 177.252926) scale(0.1 -0.1)">
       <use xlink:href="#DejaVuSans-33"/>
       <use xlink:href="#DejaVuSans-31" transform="translate(63.623047 0)"/>
       <use xlink:href="#DejaVuSans-35" transform="translate(127.246094 0)"/>
       <use xlink:href="#DejaVuSans-b0" transform="translate(190.869141 0)"/>
      </g>
     </g>
    </g>
   </g>
   <g id="matplotlib.axis_2">
    <g id="ytick_1">
     <g id="line2d_9">
      <path d="M 117.777709 107.202699 
C 117.777709 106.760112 117.690529 106.321829 117.521159 105.912932 
C 117.351788 105.504035 117.103521 105.132477 116.790564 104.819521 
C 116.477608 104.506565 116.10605 104.258297 115.697153 104.088927 
C 115.288256 103.919556 114.849973 103.832376 114.407386 103.832376 
C 113.9648 103.832376 113.526517 103.919556 113.11762 104.088927 
C 112.708723 104.258297 112.337164 104.506565 112.024208 104.819521 
C 111.711252 105.132477 111.462985 105.504035 111.293614 105.912932 
C 111.124244 106.321829 111.037064 106.760112 111.037064 107.202699 
C 111.037064 107.645286 111.124244 108.083569 111.293614 108.492466 
C 111.462985 108.901362 111.711252 109.272921 112.024208 109.585877 
C 112.337164 109.898833 112.708723 110.1471 113.11762 110.316471 
C 113.526517 110.485842 113.9648 110.573022 114.407386 110.573022 
C 114.849973 110.573022 115.288256 110.485842 115.697153 110.316471 
C 116.10605 110.1471 116.477608 109.898833 116.790564 109.585877 
C 117.103521 109.272921 117.351788 108.901362 117.521159 108.492466 
C 117.690529 108.083569 117.777709 107.645286 117.777709 107.202699 
" clip-path="url(#p20f2ef6f1e)" style="fill: none; stroke: #b0b0b0; stroke-width: 0.8; stroke-linecap: square"/>
     </g>
     <g id="text_9">
      <!-- −25 -->
      <g transform="translate(117.521159 103.833245) scale(0.1 -0.1)">
       <defs>
        <path id="DejaVuSans-2212" d="M 678 2272 
L 4684 2272 
L 4684 1741 
L 678 1741 
L 678 2272 
z
" transform="scale(0.015625)"/>
       </defs>
       <use xlink:href="#DejaVuSans-2212"/>
       <use xlink:href="#DejaVuSans-32" transform="translate(83.789062 0)"/>
       <use xlink:href="#DejaVuSans-35" transform="translate(147.412109 0)"/>
      </g>
     </g>
    </g>
    <g id="ytick_2">
     <g id="line2d_10">
      <path d="M 133.336372 107.202699 
C 133.336372 104.716967 132.846737 102.255406 131.895489 99.95889 
C 130.94424 97.662373 129.549878 95.575563 127.7922 93.817885 
C 126.034523 92.060207 123.947712 90.665845 121.651195 89.714597 
C 119.354679 88.763348 116.893118 88.273713 114.407386 88.273713 
C 111.921655 88.273713 109.460094 88.763348 107.163577 89.714597 
C 104.867061 90.665845 102.78025 92.060207 101.022572 93.817885 
C 99.264895 95.575563 97.870532 97.662373 96.919284 99.95889 
C 95.968036 102.255406 95.478401 104.716967 95.478401 107.202699 
C 95.478401 109.68843 95.968036 112.149991 96.919284 114.446508 
C 97.870532 116.743025 99.264895 118.829835 101.022572 120.587513 
C 102.78025 122.345191 104.867061 123.739553 107.163577 124.690801 
C 109.460094 125.642049 111.921655 126.131684 114.407386 126.131684 
C 116.893118 126.131684 119.354679 125.642049 121.651195 124.690801 
C 123.947712 123.739553 126.034523 122.345191 127.7922 120.587513 
C 129.549878 118.829835 130.94424 116.743025 131.895489 114.446508 
C 132.846737 112.149991 133.336372 109.68843 133.336372 107.202699 
" clip-path="url(#p20f2ef6f1e)" style="fill: none; stroke: #b0b0b0; stroke-width: 0.8; stroke-linecap: square"/>
     </g>
     <g id="text_10">
      <!-- −20 -->
      <g transform="translate(131.895489 97.879202) scale(0.1 -0.1)">
       <use xlink:href="#DejaVuSans-2212"/>
       <use xlink:href="#DejaVuSans-32" transform="translate(83.789062 0)"/>
       <use xlink:href="#DejaVuSans-30" transform="translate(147.412109 0)"/>
      </g>
     </g>
    </g>
    <g id="ytick_3">
     <g id="line2d_11">
      <path d="M 148.895035 107.202699 
C 148.895035 102.673822 148.002945 98.188984 146.269819 94.004847 
C 144.536693 89.820711 141.996236 86.018648 138.793836 82.816249 
C 135.591437 79.61385 131.789374 77.073393 127.605238 75.340267 
C 123.421102 73.607141 118.936263 72.715051 114.407386 72.715051 
C 109.87851 72.715051 105.393671 73.607141 101.209535 75.340267 
C 97.025399 77.073393 93.223336 79.61385 90.020936 82.816249 
C 86.818537 86.018648 84.27808 89.820711 82.544954 94.004847 
C 80.811828 98.188984 79.919738 102.673822 79.919738 107.202699 
C 79.919738 111.731575 80.811828 116.216414 82.544954 120.40055 
C 84.27808 124.584687 86.818537 128.38675 90.020936 131.589149 
C 93.223336 134.791548 97.025399 137.332005 101.209535 139.065131 
C 105.393671 140.798257 109.87851 141.690347 114.407386 141.690347 
C 118.936263 141.690347 123.421102 140.798257 127.605238 139.065131 
C 131.789374 137.332005 135.591437 134.791548 138.793836 131.589149 
C 141.996236 128.38675 144.536693 124.584687 146.269819 120.40055 
C 148.002945 116.216414 148.895035 111.731575 148.895035 107.202699 
" clip-path="url(#p20f2ef6f1e)" style="fill: none; stroke: #b0b0b0; stroke-width: 0.8; stroke-linecap: square"/>
     </g>
     <g id="text_11">
      <!-- −15 -->
      <g transform="translate(146.269819 91.92516) scale(0.1 -0.1)">
       <use xlink:href="#DejaVuSans-2212"/>
       <use xlink:href="#DejaVuSans-31" transform="translate(83.789062 0)"/>
       <use xlink:href="#DejaVuSans-35" transform="translate(147.412109 0)"/>
      </g>
     </g>
    </g>
    <g id="ytick_4">
     <g id="line2d_12">
      <path d="M 164.453697 107.202699 
C 164.453697 100.630678 163.159152 94.122561 160.644149 88.050805 
C 158.129145 81.979049 154.442593 76.461734 149.795472 71.814613 
C 145.148351 67.167492 139.631036 63.48094 133.55928 60.965937 
C 127.487524 58.450933 120.979408 57.156388 114.407386 57.156388 
C 107.835365 57.156388 101.327248 58.450933 95.255492 60.965937 
C 89.183736 63.48094 83.666421 67.167492 79.019301 71.814613 
C 74.37218 76.461734 70.685628 81.979049 68.170624 88.050805 
C 65.65562 94.122561 64.361075 100.630678 64.361075 107.202699 
C 64.361075 113.77472 65.65562 120.282837 68.170624 126.354593 
C 70.685628 132.426349 74.37218 137.943664 79.019301 142.590785 
C 83.666421 147.237906 89.183736 150.924458 95.255492 153.439461 
C 101.327248 155.954465 107.835365 157.24901 114.407386 157.24901 
C 120.979408 157.24901 127.487524 155.954465 133.55928 153.439461 
C 139.631036 150.924458 145.148351 147.237906 149.795472 142.590785 
C 154.442593 137.943664 158.129145 132.426349 160.644149 126.354593 
C 163.159152 120.282837 164.453697 113.77472 164.453697 107.202699 
" clip-path="url(#p20f2ef6f1e)" style="fill: none; stroke: #b0b0b0; stroke-width: 0.8; stroke-linecap: square"/>
     </g>
     <g id="text_12">
      <!-- −10 -->
      <g transform="translate(160.644149 85.971117) scale(0.1 -0.1)">
       <use xlink:href="#DejaVuSans-2212"/>
       <use xlink:href="#DejaVuSans-31" transform="translate(83.789062 0)"/>
       <use xlink:href="#DejaVuSans-30" transform="translate(147.412109 0)"/>
      </g>
     </g>
    </g>
    <g id="ytick_5">
     <g id="line2d_13">
      <path d="M 180.01236 107.202699 
C 180.01236 98.587533 178.31536 90.056138 175.018479 82.096762 
C 171.721597 74.137387 166.888951 66.90482 160.797108 60.812977 
C 154.705266 54.721135 147.472699 49.888488 139.513323 46.591606 
C 131.553947 43.294725 123.022553 41.597725 114.407386 41.597725 
C 105.79222 41.597725 97.260826 43.294725 89.30145 46.591606 
C 81.342074 49.888488 74.109507 54.721135 68.017665 60.812977 
C 61.925822 66.90482 57.093175 74.137387 53.796294 82.096762 
C 50.499413 90.056138 48.802413 98.587533 48.802413 107.202699 
C 48.802413 115.817865 50.499413 124.34926 53.796294 132.308635 
C 57.093175 140.268011 61.925822 147.500578 68.017665 153.592421 
C 74.109507 159.684263 81.342074 164.51691 89.30145 167.813791 
C 97.260826 171.110673 105.79222 172.807673 114.407386 172.807673 
C 123.022553 172.807673 131.553947 171.110673 139.513323 167.813791 
C 147.472699 164.51691 154.705266 159.684263 160.797108 153.592421 
C 166.888951 147.500578 171.721597 140.268011 175.018479 132.308635 
C 178.31536 124.34926 180.01236 115.817865 180.01236 107.202699 
" clip-path="url(#p20f2ef6f1e)" style="fill: none; stroke: #b0b0b0; stroke-width: 0.8; stroke-linecap: square"/>
     </g>
     <g id="text_13">
      <!-- −5 -->
      <g transform="translate(175.018479 80.017075) scale(0.1 -0.1)">
       <use xlink:href="#DejaVuSans-2212"/>
       <use xlink:href="#DejaVuSans-35" transform="translate(83.789062 0)"/>
      </g>
     </g>
    </g>
    <g id="ytick_6">
     <g id="line2d_14">
      <path d="M 195.571023 107.202699 
C 195.571023 96.544388 193.471568 85.989715 189.392809 76.14272 
C 185.31405 66.295724 179.335308 57.347905 171.798744 49.811341 
C 164.26218 42.274777 155.314361 36.296036 145.467365 32.217276 
C 135.62037 28.138517 125.065697 26.039063 114.407386 26.039063 
C 103.749075 26.039063 93.194403 28.138517 83.347407 32.217276 
C 73.500412 36.296036 64.552593 42.274777 57.016029 49.811341 
C 49.479465 57.347905 43.500723 66.295724 39.421964 76.14272 
C 35.343205 85.989715 33.24375 96.544388 33.24375 107.202699 
C 33.24375 117.86101 35.343205 128.415682 39.421964 138.262678 
C 43.500723 148.109673 49.479465 157.057492 57.016029 164.594057 
C 64.552593 172.130621 73.500412 178.109362 83.347407 182.188121 
C 93.194403 186.26688 103.749075 188.366335 114.407386 188.366335 
C 125.065697 188.366335 135.62037 186.26688 145.467365 182.188121 
C 155.314361 178.109362 164.26218 172.130621 171.798744 164.594057 
C 179.335308 157.057492 185.31405 148.109673 189.392809 138.262678 
C 193.471568 128.415682 195.571023 117.86101 195.571023 107.202699 
" clip-path="url(#p20f2ef6f1e)" style="fill: none; stroke: #b0b0b0; stroke-width: 0.8; stroke-linecap: square"/>
     </g>
     <g id="text_14">
      <!-- 0 -->
      <g transform="translate(189.392809 74.063032) scale(0.1 -0.1)">
       <use xlink:href="#DejaVuSans-30"/>
      </g>
     </g>
    </g>
   </g>
   <g id="line2d_15">
    <path d="M 93.37461 132.268586 
L 96.327463 133.023505 
L 101.549291 129.473574 
L 109.396957 117.9476 
L 112.689951 111.921315 
L 111.929428 116.450567 
L 111.604091 123.100977 
L 113.425146 118.429762 
L 114.407386 111.976551 
L 114.903838 112.87717 
L 116.452282 118.799876 
L 118.120463 121.060091 
L 119.518745 121.246041 
L 120.908314 121.143982 
L 120.154703 117.157344 
L 116.772459 110.580373 
L 116.92521 110.203324 
L 125.00547 117.800783 
L 137.339383 126.444929 
L 145.631948 129.066373 
L 144.978656 124.85303 
L 139.370108 118.843007 
L 145.39386 118.480853 
L 164.563782 120.642065 
L 183.813802 119.440923 
L 192.43988 114.029657 
L 195.257304 107.202699 
L 192.664129 100.356121 
L 184.399924 94.861126 
L 165.803108 93.431257 
L 145.765573 95.789253 
L 139.724388 95.397187 
L 144.720101 89.701645 
L 145.40033 85.501206 
L 137.31671 87.979494 
L 124.82768 96.782405 
L 116.882116 104.253431 
L 117.019843 103.471724 
L 120.908831 95.941867 
L 121.134053 92.777315 
L 119.580033 92.99097 
L 118.058377 93.577017 
L 116.531224 95.157819 
L 114.960258 100.883349 
L 114.407386 102.498095 
L 113.476274 96.560039 
L 111.581215 91.174683 
L 111.595608 96.708998 
L 112.449602 101.82373 
L 109.375286 96.411324 
L 101.997378 85.707935 
L 96.770673 82.014862 
L 93.202354 81.931525 
" clip-path="url(#p20f2ef6f1e)" style="fill: none; stroke: #1f77b4; stroke-width: 1.5; stroke-linecap: square"/>
   </g>
   <g id="patch_3">
    <path d="M 195.571023 107.202699 
C 195.571023 96.544388 193.471568 85.989715 189.392809 76.14272 
C 185.31405 66.295724 179.335308 57.347905 171.798744 49.811341 
C 164.26218 42.274777 155.314361 36.296036 145.467365 32.217276 
C 135.62037 28.138517 125.065697 26.039063 114.407386 26.039063 
C 103.749075 26.039063 93.194403 28.138517 83.347407 32.217276 
C 73.500412 36.296036 64.552593 42.274777 57.016029 49.811341 
C 49.479465 57.347905 43.500723 66.295724 39.421964 76.14272 
C 35.343205 85.989715 33.24375 96.544388 33.24375 107.202699 
C 33.24375 117.86101 35.343205 128.415682 39.421964 138.262678 
C 43.500723 148.109673 49.479465 157.057492 57.016029 164.594057 
C 64.552593 172.130621 73.500412 178.109362 83.347407 182.188121 
C 93.194403 186.26688 103.749075 188.366335 114.407386 188.366335 
C 125.065697 188.366335 135.62037 186.26688 145.467365 182.188121 
C 155.314361 178.109362 164.26218 172.130621 171.798744 164.594057 
C 179.335308 157.057492 185.31405 148.109673 189.392809 138.262678 
C 193.471568 128.415682 195.571023 117.86101 195.571023 107.202699 
" style="fill: none; stroke: #000000; stroke-width: 0.8; stroke-linejoin: miter; stroke-linecap: square"/>
   </g>
   <g id="text_15">
    <!-- E-Plane (Phi = 0.0) -->
    <g transform="translate(57.936136 20.039063) scale(0.12 -0.12)">
     <defs>
      <path id="DejaVuSans-45" d="M 628 4666 
L 3578 4666 
L 3578 4134 
L 1259 4134 
L 1259 2753 
L 3481 2753 
L 3481 2222 
L 1259 2222 
L 1259 531 
L 3634 531 
L 3634 0 
L 628 0 
L 628 4666 
z
" transform="scale(0.015625)"/>
      <path id="DejaVuSans-2d" d="M 313 2009 
L 1997 2009 
L 1997 1497 
L 313 1497 
L 313 2009 
z
" transform="scale(0.015625)"/>
      <path id="DejaVuSans-50" d="M 1259 4147 
L 1259 2394 
L 2053 2394 
Q 2494 2394 2734 2622 
Q 2975 2850 2975 3272 
Q 2975 3691 2734 3919 
Q 2494 4147 2053 4147 
L 1259 4147 
z
M 628 4666 
L 2053 4666 
Q 2838 4666 3239 4311 
Q 3641 3956 3641 3272 
Q 3641 2581 3239 2228 
Q 2838 1875 2053 1875 
L 1259 1875 
L 1259 0 
L 628 0 
L 628 4666 
z
" transform="scale(0.015625)"/>
      <path id="DejaVuSans-6c" d="M 603 4863 
L 1178 4863 
L 1178 0 
L 603 0 
L 603 4863 
z
" transform="scale(0.015625)"/>
      <path id="DejaVuSans-61" d="M 2194 1759 
Q 1497 1759 1228 1600 
Q 959 1441 959 1056 
Q 959 750 1161 570 
Q 1363 391 1709 391 
Q 2188 391 2477 730 
Q 2766 1069 2766 1631 
L 2766 1759 
L 2194 1759 
z
M 3341 1997 
L 3341 0 
L 2766 0 
L 2766 531 
Q 2569 213 2275 61 
Q 1981 -91 1556 -91 
Q 1019 -91 701 211 
Q 384 513 384 1019 
Q 384 1609 779 1909 
Q 1175 2209 1959 2209 
L 2766 2209 
L 2766 2266 
Q 2766 2663 2505 2880 
Q 2244 3097 1772 3097 
Q 1472 3097 1187 3025 
Q 903 2953 641 2809 
L 641 3341 
Q 956 3463 1253 3523 
Q 1550 3584 1831 3584 
Q 2591 3584 2966 3190 
Q 3341 2797 3341 1997 
z
" transform="scale(0.015625)"/>
      <path id="DejaVuSans-6e" d="M 3513 2113 
L 3513 0 
L 2938 0 
L 2938 2094 
Q 2938 2591 2744 2837 
Q 2550 3084 2163 3084 
Q 1697 3084 1428 2787 
Q 1159 2491 1159 1978 
L 1159 0 
L 581 0 
L 581 3500 
L 1159 3500 
L 1159 2956 
Q 1366 3272 1645 3428 
Q 1925 3584 2291 3584 
Q 2894 3584 3203 3211 
Q 3513 2838 3513 2113 
z
" transform="scale(0.015625)"/>
      <path id="DejaVuSans-65" d="M 3597 1894 
L 3597 1613 
L 953 1613 
Q 991 1019 1311 708 
Q 1631 397 2203 397 
Q 2534 397 2845 478 
Q 3156 559 3463 722 
L 3463 178 
Q 3153 47 2828 -22 
Q 2503 -91 2169 -91 
Q 1331 -91 842 396 
Q 353 884 353 1716 
Q 353 2575 817 3079 
Q 1281 3584 2069 3584 
Q 2775 3584 3186 3129 
Q 3597 2675 3597 1894 
z
M 3022 2063 
Q 3016 2534 2758 2815 
Q 2500 3097 2075 3097 
Q 1594 3097 1305 2825 
Q 1016 2553 972 2059 
L 3022 2063 
z
" transform="scale(0.015625)"/>
      <path id="DejaVuSans-20" transform="scale(0.015625)"/>
      <path id="DejaVuSans-28" d="M 1984 4856 
Q 1566 4138 1362 3434 
Q 1159 2731 1159 2009 
Q 1159 1288 1364 580 
Q 1569 -128 1984 -844 
L 1484 -844 
Q 1016 -109 783 600 
Q 550 1309 550 2009 
Q 550 2706 781 3412 
Q 1013 4119 1484 4856 
L 1984 4856 
z
" transform="scale(0.015625)"/>
      <path id="DejaVuSans-68" d="M 3513 2113 
L 3513 0 
L 2938 0 
L 2938 2094 
Q 2938 2591 2744 2837 
Q 2550 3084 2163 3084 
Q 1697 3084 1428 2787 
Q 1159 2491 1159 1978 
L 1159 0 
L 581 0 
L 581 4863 
L 1159 4863 
L 1159 2956 
Q 1366 3272 1645 3428 
Q 1925 3584 2291 3584 
Q 2894 3584 3203 3211 
Q 3513 2838 3513 2113 
z
" transform="scale(0.015625)"/>
      <path id="DejaVuSans-69" d="M 603 3500 
L 1178 3500 
L 1178 0 
L 603 0 
L 603 3500 
z
M 603 4863 
L 1178 4863 
L 1178 4134 
L 603 4134 
L 603 4863 
z
" transform="scale(0.015625)"/>
      <path id="DejaVuSans-3d" d="M 678 2906 
L 4684 2906 
L 4684 2381 
L 678 2381 
L 678 2906 
z
M 678 1631 
L 4684 1631 
L 4684 1100 
L 678 1100 
L 678 1631 
z
" transform="scale(0.015625)"/>
      <path id="DejaVuSans-2e" d="M 684 794 
L 1344 794 
L 1344 0 
L 684 0 
L 684 794 
z
" transform="scale(0.015625)"/>
      <path id="DejaVuSans-29" d="M 513 4856 
L 1013 4856 
Q 1481 4119 1714 3412 
Q 1947 2706 1947 2009 
Q 1947 1309 1714 600 
Q 1481 -109 1013 -844 
L 513 -844 
Q 928 -128 1133 580 
Q 1338 1288 1338 2009 
Q 1338 2731 1133 3434 
Q 928 4138 513 4856 
z
" transform="scale(0.015625)"/>
     </defs>
     <use xlink:href="#DejaVuSans-45"/>
     <use xlink:href="#DejaVuSans-2d" transform="translate(63.183594 0)"/>
     <use xlink:href="#DejaVuSans-50" transform="translate(99.267578 0)"/>
     <use xlink:href="#DejaVuSans-6c" transform="translate(159.570312 0)"/>
     <use xlink:href="#DejaVuSans-61" transform="translate(187.353516 0)"/>
     <use xlink:href="#DejaVuSans-6e" transform="translate(248.632812 0)"/>
     <use xlink:href="#DejaVuSans-65" transform="translate(312.011719 0)"/>
     <use xlink:href="#DejaVuSans-20" transform="translate(373.535156 0)"/>
     <use xlink:href="#DejaVuSans-28" transform="translate(405.322266 0)"/>
     <use xlink:href="#DejaVuSans-50" transform="translate(444.335938 0)"/>
     <use xlink:href="#DejaVuSans-68" transform="translate(504.638672 0)"/>
     <use xlink:href="#DejaVuSans-69" transform="translate(568.017578 0)"/>
     <use xlink:href="#DejaVuSans-20" transform="translate(595.800781 0)"/>
     <use xlink:href="#DejaVuSans-3d" transform="translate(627.587891 0)"/>
     <use xlink:href="#DejaVuSans-20" transform="translate(711.376953 0)"/>
     <use xlink:href="#DejaVuSans-30" transform="translate(743.164062 0)"/>
     <use xlink:href="#DejaVuSans-2e" transform="translate(806.787109 0)"/>
     <use xlink:href="#DejaVuSans-30" transform="translate(838.574219 0)"/>
     <use xlink:href="#DejaVuSans-29" transform="translate(902.197266 0)"/>
    </g>
   </g>
  </g>
  <g id="axes_2">
   <g id="patch_4">
    <path d="M 390.36375 107.202699 
C 390.36375 96.544388 388.264295 85.989715 384.185536 76.14272 
C 380.106777 66.295724 374.128035 57.347905 366.591471 49.811341 
C 359.054907 42.274777 350.107088 36.296036 340.260093 32.217276 
C 330.413097 28.138517 319.858425 26.039062 309.200114 26.039062 
C 298.541803 26.039062 287.98713 28.138517 278.140135 32.217276 
C 268.293139 36.296036 259.34532 42.274777 251.808756 49.811341 
C 244.272192 57.347905 238.29345 66.295724 234.214691 76.14272 
C 230.135932 85.989715 228.036477 96.544388 228.036477 107.202699 
C 228.036477 117.86101 230.135932 128.415682 234.214691 138.262678 
C 238.29345 148.109673 244.272192 157.057492 251.808756 164.594057 
C 259.34532 172.130621 268.293139 178.109362 278.140135 182.188121 
C 287.98713 186.26688 298.541803 188.366335 309.200114 188.366335 
C 319.858425 188.366335 330.413097 186.26688 340.260093 182.188121 
C 350.107088 178.109362 359.054907 172.130621 366.591471 164.594057 
C 374.128035 157.057492 380.106777 148.109673 384.185536 138.262678 
C 388.264295 128.415682 390.36375 117.86101 390.36375 107.202699 
M 309.200114 107.202699 
C 309.200114 107.202699 309.200114 107.202699 309.200114 107.202699 
C 309.200114 107.202699 309.200114 107.202699 309.200114 107.202699 
C 309.200114 107.202699 309.200114 107.202699 309.200114 107.202699 
C 309.200114 107.202699 309.200114 107.202699 309.200114 107.202699 
C 309.200114 107.202699 309.200114 107.202699 309.200114 107.202699 
C 309.200114 107.202699 309.200114 107.202699 309.200114 107.202699 
C 309.200114 107.202699 309.200114 107.202699 309.200114 107.202699 
C 309.200114 107.202699 309.200114 107.202699 309.200114 107.202699 
C 309.200114 107.202699 309.200114 107.202699 309.200114 107.202699 
C 309.200114 107.202699 309.200114 107.202699 309.200114 107.202699 
C 309.200114 107.202699 309.200114 107.202699 309.200114 107.202699 
C 309.200114 107.202699 309.200114 107.202699 309.200114 107.202699 
C 309.200114 107.202699 309.200114 107.202699 309.200114 107.202699 
C 309.200114 107.202699 309.200114 107.202699 309.200114 107.202699 
C 309.200114 107.202699 309.200114 107.202699 309.200114 107.202699 
C 309.200114 107.202699 309.200114 107.202699 309.200114 107.202699 
z
" style="fill: #ffffff"/>
   </g>
   <g id="matplotlib.axis_3">
    <g id="xtick_9">
     <g id="line2d_16">
      <path d="M 309.200114 107.202699 
L 390.36375 107.202699 
" clip-path="url(#p1a90f35ef4)" style="fill: none; stroke: #b0b0b0; stroke-width: 0.8; stroke-linecap: square"/>
     </g>
     <g id="text_16">
      <!-- 0° -->
      <g transform="translate(398.6825 109.962074) scale(0.1 -0.1)">
       <use xlink:href="#DejaVuSans-30"/>
       <use xlink:href="#DejaVuSans-b0" transform="translate(63.623047 0)"/>
      </g>
     </g>
    </g>
    <g id="xtick_10">
     <g id="line2d_17">
      <path d="M 309.200114 107.202699 
L 366.591471 49.811341 
" clip-path="url(#p1a90f35ef4)" style="fill: none; stroke: #b0b0b0; stroke-width: 0.8; stroke-linecap: square"/>
     </g>
     <g id="text_17">
      <!-- 45° -->
      <g transform="translate(367.628466 42.671221) scale(0.1 -0.1)">
       <use xlink:href="#DejaVuSans-34"/>
       <use xlink:href="#DejaVuSans-35" transform="translate(63.623047 0)"/>
       <use xlink:href="#DejaVuSans-b0" transform="translate(127.246094 0)"/>
      </g>
     </g>
    </g>
    <g id="xtick_11">
     <g id="line2d_18">
      <path d="M 309.200114 107.202699 
L 309.200114 26.039063 
" clip-path="url(#p1a90f35ef4)" style="fill: none; stroke: #b0b0b0; stroke-width: 0.8; stroke-linecap: square"/>
     </g>
     <g id="text_18">
      <!-- 90° -->
      <g transform="translate(300.337614 14.798438) scale(0.1 -0.1)">
       <use xlink:href="#DejaVuSans-39"/>
       <use xlink:href="#DejaVuSans-30" transform="translate(63.623047 0)"/>
       <use xlink:href="#DejaVuSans-b0" transform="translate(127.246094 0)"/>
      </g>
     </g>
    </g>
    <g id="xtick_12">
     <g id="line2d_19">
      <path d="M 309.200114 107.202699 
L 251.808756 49.811341 
" clip-path="url(#p1a90f35ef4)" style="fill: none; stroke: #b0b0b0; stroke-width: 0.8; stroke-linecap: square"/>
     </g>
     <g id="text_19">
      <!-- 135° -->
      <g transform="translate(229.865511 42.671221) scale(0.1 -0.1)">
       <use xlink:href="#DejaVuSans-31"/>
       <use xlink:href="#DejaVuSans-33" transform="translate(63.623047 0)"/>
       <use xlink:href="#DejaVuSans-35" transform="translate(127.246094 0)"/>
       <use xlink:href="#DejaVuSans-b0" transform="translate(190.869141 0)"/>
      </g>
     </g>
    </g>
    <g id="xtick_13">
     <g id="line2d_20">
      <path d="M 309.200114 107.202699 
L 228.036477 107.202699 
" clip-path="url(#p1a90f35ef4)" style="fill: none; stroke: #b0b0b0; stroke-width: 0.8; stroke-linecap: square"/>
     </g>
     <g id="text_20">
      <!-- 180° -->
      <g transform="translate(201.992727 109.962074) scale(0.1 -0.1)">
       <use xlink:href="#DejaVuSans-31"/>
       <use xlink:href="#DejaVuSans-38" transform="translate(63.623047 0)"/>
       <use xlink:href="#DejaVuSans-30" transform="translate(127.246094 0)"/>
       <use xlink:href="#DejaVuSans-b0" transform="translate(190.869141 0)"/>
      </g>
     </g>
    </g>
    <g id="xtick_14">
     <g id="line2d_21">
      <path d="M 309.200114 107.202699 
L 251.808756 164.594057 
" clip-path="url(#p1a90f35ef4)" style="fill: none; stroke: #b0b0b0; stroke-width: 0.8; stroke-linecap: square"/>
     </g>
     <g id="text_21">
      <!-- 225° -->
      <g transform="translate(229.865511 177.252926) scale(0.1 -0.1)">
       <use xlink:href="#DejaVuSans-32"/>
       <use xlink:href="#DejaVuSans-32" transform="translate(63.623047 0)"/>
       <use xlink:href="#DejaVuSans-35" transform="translate(127.246094 0)"/>
       <use xlink:href="#DejaVuSans-b0" transform="translate(190.869141 0)"/>
      </g>
     </g>
    </g>
    <g id="xtick_15">
     <g id="line2d_22">
      <path d="M 309.200114 107.202699 
L 309.200114 188.366335 
" clip-path="url(#p1a90f35ef4)" style="fill: none; stroke: #b0b0b0; stroke-width: 0.8; stroke-linecap: square"/>
     </g>
     <g id="text_22">
      <!-- 270° -->
      <g transform="translate(297.156364 205.12571) scale(0.1 -0.1)">
       <use xlink:href="#DejaVuSans-32"/>
       <use xlink:href="#DejaVuSans-37" transform="translate(63.623047 0)"/>
       <use xlink:href="#DejaVuSans-30" transform="translate(127.246094 0)"/>
       <use xlink:href="#DejaVuSans-b0" transform="translate(190.869141 0)"/>
      </g>
     </g>
    </g>
    <g id="xtick_16">
     <g id="line2d_23">
      <path d="M 309.200114 107.202699 
L 366.591471 164.594057 
" clip-path="url(#p1a90f35ef4)" style="fill: none; stroke: #b0b0b0; stroke-width: 0.8; stroke-linecap: square"/>
     </g>
     <g id="text_23">
      <!-- 315° -->
      <g transform="translate(364.447216 177.252926) scale(0.1 -0.1)">
       <use xlink:href="#DejaVuSans-33"/>
       <use xlink:href="#DejaVuSans-31" transform="translate(63.623047 0)"/>
       <use xlink:href="#DejaVuSans-35" transform="translate(127.246094 0)"/>
       <use xlink:href="#DejaVuSans-b0" transform="translate(190.869141 0)"/>
      </g>
     </g>
    </g>
   </g>
   <g id="matplotlib.axis_4">
    <g id="ytick_7">
     <g id="line2d_24">
      <path d="M 312.023925 107.202699 
C 312.023925 106.831879 311.950881 106.464666 311.808975 106.122073 
C 311.667068 105.779481 311.459059 105.468172 311.19685 105.205963 
C 310.934641 104.943754 310.623332 104.735744 310.280739 104.593838 
C 309.938147 104.451931 309.570933 104.378888 309.200114 104.378888 
C 308.829294 104.378888 308.46208 104.451931 308.119488 104.593838 
C 307.776895 104.735744 307.465587 104.943754 307.203378 105.205963 
C 306.941169 105.468172 306.733159 105.779481 306.591252 106.122073 
C 306.449346 106.464666 306.376303 106.831879 306.376303 107.202699 
C 306.376303 107.573518 306.449346 107.940732 306.591252 108.283325 
C 306.733159 108.625917 306.941169 108.937226 307.203378 109.199435 
C 307.465587 109.461644 307.776895 109.669654 308.119488 109.81156 
C 308.46208 109.953467 308.829294 110.02651 309.200114 110.02651 
C 309.570933 110.02651 309.938147 109.953467 310.280739 109.81156 
C 310.623332 109.669654 310.934641 109.461644 311.19685 109.199435 
C 311.459059 108.937226 311.667068 108.625917 311.808975 108.283325 
C 311.950881 107.940732 312.023925 107.573518 312.023925 107.202699 
" clip-path="url(#p1a90f35ef4)" style="fill: none; stroke: #b0b0b0; stroke-width: 0.8; stroke-linecap: square"/>
     </g>
     <g id="text_24">
      <!-- −30 -->
      <g transform="translate(311.808975 104.042386) scale(0.1 -0.1)">
       <use xlink:href="#DejaVuSans-2212"/>
       <use xlink:href="#DejaVuSans-33" transform="translate(83.789062 0)"/>
       <use xlink:href="#DejaVuSans-30" transform="translate(147.412109 0)"/>
      </g>
     </g>
    </g>
    <g id="ytick_8">
     <g id="line2d_25">
      <path d="M 325.080562 107.202699 
C 325.080562 105.117297 324.669784 103.052174 323.871735 101.125514 
C 323.073687 99.198855 321.903888 97.448127 320.429287 95.973526 
C 318.954685 94.498924 317.203958 93.329126 315.277298 92.531077 
C 313.350639 91.733029 311.285515 91.32225 309.200114 91.32225 
C 307.114712 91.32225 305.049589 91.733029 303.122929 92.531077 
C 301.196269 93.329126 299.445542 94.498924 297.970941 95.973526 
C 296.496339 97.448127 295.326541 99.198855 294.528492 101.125514 
C 293.730444 103.052174 293.319665 105.117297 293.319665 107.202699 
C 293.319665 109.2881 293.730444 111.353224 294.528492 113.279883 
C 295.326541 115.206543 296.496339 116.95727 297.970941 118.431872 
C 299.445542 119.906473 301.196269 121.076272 303.122929 121.87432 
C 305.049589 122.672369 307.114712 123.083147 309.200114 123.083147 
C 311.285515 123.083147 313.350639 122.672369 315.277298 121.87432 
C 317.203958 121.076272 318.954685 119.906473 320.429287 118.431872 
C 321.903888 116.95727 323.073687 115.206543 323.871735 113.279883 
C 324.669784 111.353224 325.080562 109.2881 325.080562 107.202699 
" clip-path="url(#p1a90f35ef4)" style="fill: none; stroke: #b0b0b0; stroke-width: 0.8; stroke-linecap: square"/>
     </g>
     <g id="text_25">
      <!-- −25 -->
      <g transform="translate(323.871735 99.045827) scale(0.1 -0.1)">
       <use xlink:href="#DejaVuSans-2212"/>
       <use xlink:href="#DejaVuSans-32" transform="translate(83.789062 0)"/>
       <use xlink:href="#DejaVuSans-35" transform="translate(147.412109 0)"/>
      </g>
     </g>
    </g>
    <g id="ytick_9">
     <g id="line2d_26">
      <path d="M 338.1372 107.202699 
C 338.1372 103.402716 337.388686 99.639682 335.934495 96.128955 
C 334.480305 92.618229 332.348717 89.428083 329.661723 86.741089 
C 326.97473 84.054095 323.784584 81.922508 320.273857 80.468317 
C 316.76313 79.014127 313.000097 78.265613 309.200114 78.265613 
C 305.40013 78.265613 301.637097 79.014127 298.12637 80.468317 
C 294.615643 81.922508 291.425498 84.054095 288.738504 86.741089 
C 286.05151 89.428083 283.919923 92.618229 282.465732 96.128955 
C 281.011541 99.639682 280.263027 103.402716 280.263027 107.202699 
C 280.263027 111.002682 281.011541 114.765715 282.465732 118.276442 
C 283.919923 121.787169 286.05151 124.977315 288.738504 127.664309 
C 291.425498 130.351303 294.615643 132.48289 298.12637 133.93708 
C 301.637097 135.391271 305.40013 136.139785 309.200114 136.139785 
C 313.000097 136.139785 316.76313 135.391271 320.273857 133.93708 
C 323.784584 132.48289 326.97473 130.351303 329.661723 127.664309 
C 332.348717 124.977315 334.480305 121.787169 335.934495 118.276442 
C 337.388686 114.765715 338.1372 111.002682 338.1372 107.202699 
" clip-path="url(#p1a90f35ef4)" style="fill: none; stroke: #b0b0b0; stroke-width: 0.8; stroke-linecap: square"/>
     </g>
     <g id="text_26">
      <!-- −20 -->
      <g transform="translate(335.934495 94.049268) scale(0.1 -0.1)">
       <use xlink:href="#DejaVuSans-2212"/>
       <use xlink:href="#DejaVuSans-32" transform="translate(83.789062 0)"/>
       <use xlink:href="#DejaVuSans-30" transform="translate(147.412109 0)"/>
      </g>
     </g>
    </g>
    <g id="ytick_10">
     <g id="line2d_27">
      <path d="M 351.193837 107.202699 
C 351.193837 101.688134 350.107588 96.227191 347.997255 91.132397 
C 345.886923 86.037603 342.793547 81.408039 338.89416 77.508652 
C 334.994774 73.609266 330.36521 70.51589 325.270416 68.405557 
C 320.175622 66.295224 314.714679 65.208975 309.200114 65.208975 
C 303.685548 65.208975 298.224605 66.295224 293.129811 68.405557 
C 288.035017 70.51589 283.405453 73.609266 279.506067 77.508652 
C 275.60668 81.408039 272.513305 86.037603 270.402972 91.132397 
C 268.292639 96.227191 267.20639 101.688134 267.20639 107.202699 
C 267.20639 112.717264 268.292639 118.178207 270.402972 123.273001 
C 272.513305 128.367795 275.60668 132.997359 279.506067 136.896746 
C 283.405453 140.796132 288.035017 143.889508 293.129811 145.999841 
C 298.224605 148.110173 303.685548 149.196423 309.200114 149.196423 
C 314.714679 149.196423 320.175622 148.110173 325.270416 145.999841 
C 330.36521 143.889508 334.994774 140.796132 338.89416 136.896746 
C 342.793547 132.997359 345.886923 128.367795 347.997255 123.273001 
C 350.107588 118.178207 351.193837 112.717264 351.193837 107.202699 
" clip-path="url(#p1a90f35ef4)" style="fill: none; stroke: #b0b0b0; stroke-width: 0.8; stroke-linecap: square"/>
     </g>
     <g id="text_27">
      <!-- −15 -->
      <g transform="translate(347.997255 89.052709) scale(0.1 -0.1)">
       <use xlink:href="#DejaVuSans-2212"/>
       <use xlink:href="#DejaVuSans-31" transform="translate(83.789062 0)"/>
       <use xlink:href="#DejaVuSans-35" transform="translate(147.412109 0)"/>
      </g>
     </g>
    </g>
    <g id="ytick_11">
     <g id="line2d_28">
      <path d="M 364.250475 107.202699 
C 364.250475 99.973552 362.826491 92.814699 360.060016 86.135838 
C 357.293541 79.456977 353.238376 73.387994 348.126597 68.276215 
C 343.014818 63.164436 336.945836 59.109272 330.266975 56.342797 
C 323.588114 53.576322 316.429261 52.152338 309.200114 52.152338 
C 301.970966 52.152338 294.812114 53.576322 288.133252 56.342797 
C 281.454391 59.109272 275.385409 63.164436 270.27363 68.276215 
C 265.161851 73.387994 261.106686 79.456977 258.340212 86.135838 
C 255.573737 92.814699 254.149752 99.973552 254.149752 107.202699 
C 254.149752 114.431846 255.573737 121.590699 258.340212 128.26956 
C 261.106686 134.948421 265.161851 141.017404 270.27363 146.129183 
C 275.385409 151.240962 281.454391 155.296126 288.133252 158.062601 
C 294.812114 160.829076 301.970966 162.25306 309.200114 162.25306 
C 316.429261 162.25306 323.588114 160.829076 330.266975 158.062601 
C 336.945836 155.296126 343.014818 151.240962 348.126597 146.129183 
C 353.238376 141.017404 357.293541 134.948421 360.060016 128.26956 
C 362.826491 121.590699 364.250475 114.431846 364.250475 107.202699 
" clip-path="url(#p1a90f35ef4)" style="fill: none; stroke: #b0b0b0; stroke-width: 0.8; stroke-linecap: square"/>
     </g>
     <g id="text_28">
      <!-- −10 -->
      <g transform="translate(360.060016 84.05615) scale(0.1 -0.1)">
       <use xlink:href="#DejaVuSans-2212"/>
       <use xlink:href="#DejaVuSans-31" transform="translate(83.789062 0)"/>
       <use xlink:href="#DejaVuSans-30" transform="translate(147.412109 0)"/>
      </g>
     </g>
    </g>
    <g id="ytick_12">
     <g id="line2d_29">
      <path d="M 377.307112 107.202699 
C 377.307112 98.25897 375.545393 89.402207 372.122776 81.139279 
C 368.700159 72.87635 363.683206 65.36795 357.359034 59.043778 
C 351.034863 52.719607 343.526462 47.702654 335.263534 44.280037 
C 327.000605 40.85742 318.143843 39.0957 309.200114 39.0957 
C 300.256384 39.0957 291.399622 40.85742 283.136694 44.280037 
C 274.873765 47.702654 267.365364 52.719607 261.041193 59.043778 
C 254.717021 65.36795 249.700068 72.87635 246.277451 81.139279 
C 242.854834 89.402207 241.093115 98.25897 241.093115 107.202699 
C 241.093115 116.146428 242.854834 125.003191 246.277451 133.266119 
C 249.700068 141.529047 254.717021 149.037448 261.041193 155.36162 
C 267.365364 161.685791 274.873765 166.702744 283.136694 170.125361 
C 291.399622 173.547978 300.256384 175.309698 309.200114 175.309698 
C 318.143843 175.309698 327.000605 173.547978 335.263534 170.125361 
C 343.526462 166.702744 351.034863 161.685791 357.359034 155.36162 
C 363.683206 149.037448 368.700159 141.529047 372.122776 133.266119 
C 375.545393 125.003191 377.307112 116.146428 377.307112 107.202699 
" clip-path="url(#p1a90f35ef4)" style="fill: none; stroke: #b0b0b0; stroke-width: 0.8; stroke-linecap: square"/>
     </g>
     <g id="text_29">
      <!-- −5 -->
      <g transform="translate(372.122776 79.059591) scale(0.1 -0.1)">
       <use xlink:href="#DejaVuSans-2212"/>
       <use xlink:href="#DejaVuSans-35" transform="translate(83.789062 0)"/>
      </g>
     </g>
    </g>
    <g id="ytick_13">
     <g id="line2d_30">
      <path d="M 390.36375 107.202699 
C 390.36375 96.544388 388.264295 85.989715 384.185536 76.14272 
C 380.106777 66.295724 374.128035 57.347905 366.591471 49.811341 
C 359.054907 42.274777 350.107088 36.296036 340.260093 32.217276 
C 330.413097 28.138517 319.858425 26.039063 309.200114 26.039063 
C 298.541803 26.039063 287.98713 28.138517 278.140135 32.217276 
C 268.293139 36.296036 259.34532 42.274777 251.808756 49.811341 
C 244.272192 57.347905 238.29345 66.295724 234.214691 76.14272 
C 230.135932 85.989715 228.036477 96.544388 228.036477 107.202699 
C 228.036477 117.86101 230.135932 128.415682 234.214691 138.262678 
C 238.29345 148.109673 244.272192 157.057492 251.808756 164.594057 
C 259.34532 172.130621 268.293139 178.109362 278.140135 182.188121 
C 287.98713 186.26688 298.541803 188.366335 309.200114 188.366335 
C 319.858425 188.366335 330.413097 186.26688 340.260093 182.188121 
C 350.107088 178.109362 359.054907 172.130621 366.591471 164.594057 
C 374.128035 157.057492 380.106777 148.109673 384.185536 138.262678 
C 388.264295 128.415682 390.36375 117.86101 390.36375 107.202699 
" clip-path="url(#p1a90f35ef4)" style="fill: none; stroke: #b0b0b0; stroke-width: 0.8; stroke-linecap: square"/>
     </g>
     <g id="text_30">
      <!-- 0 -->
      <g transform="translate(384.185536 74.063032) scale(0.1 -0.1)">
       <use xlink:href="#DejaVuSans-30"/>
      </g>
     </g>
    </g>
   </g>
   <g id="line2d_31">
    <path d="M 288.190449 132.241043 
L 292.077082 131.656922 
L 295.762095 130.478029 
L 299.103593 128.854758 
L 302.30343 126.151182 
L 304.649874 124.184425 
L 306.398563 123.09108 
L 307.980142 121.14704 
L 309.200114 118.30888 
L 309.986934 116.196102 
L 310.564816 114.942313 
L 310.788177 113.129434 
L 310.731619 111.410476 
L 311.060556 111.192431 
L 311.969484 111.999388 
L 313.478856 113.313376 
L 313.760607 112.637684 
L 312.452298 110.454883 
L 315.833823 112.769042 
L 324.12573 117.653728 
L 333.095828 120.998896 
L 339.162699 121.174482 
L 350.854744 122.363744 
L 366.237125 122.48572 
L 379.948107 119.677479 
L 387.674095 114.068283 
L 389.876847 107.202699 
L 387.312531 100.368748 
L 379.31123 94.840217 
L 365.724889 92.056931 
L 349.718593 92.455178 
L 337.869645 93.833877 
L 332.236463 93.902656 
L 323.427328 97.240696 
L 315.151254 102.2091 
L 311.916641 104.486172 
L 314.154287 101.298545 
L 313.695411 100.78275 
L 312.077432 102.219038 
L 310.987349 103.36996 
L 310.783638 102.852001 
L 310.839613 101.084005 
L 310.596973 99.280719 
L 310.030678 97.709308 
L 309.200114 95.860078 
L 307.95046 92.919094 
L 306.365553 91.127105 
L 304.531313 89.778499 
L 302.147714 87.82639 
L 298.835178 84.975022 
L 295.619491 83.68037 
L 291.728226 82.250257 
L 287.343364 81.154839 
" clip-path="url(#p1a90f35ef4)" style="fill: none; stroke: #1f77b4; stroke-width: 1.5; stroke-linecap: square"/>
   </g>
   <g id="patch_5">
    <path d="M 390.36375 107.202699 
C 390.36375 96.544388 388.264295 85.989715 384.185536 76.14272 
C 380.106777 66.295724 374.128035 57.347905 366.591471 49.811341 
C 359.054907 42.274777 350.107088 36.296036 340.260093 32.217276 
C 330.413097 28.138517 319.858425 26.039063 309.200114 26.039063 
C 298.541803 26.039063 287.98713 28.138517 278.140135 32.217276 
C 268.293139 36.296036 259.34532 42.274777 251.808756 49.811341 
C 244.272192 57.347905 238.29345 66.295724 234.214691 76.14272 
C 230.135932 85.989715 228.036477 96.544388 228.036477 107.202699 
C 228.036477 117.86101 230.135932 128.415682 234.214691 138.262678 
C 238.29345 148.109673 244.272192 157.057492 251.808756 164.594057 
C 259.34532 172.130621 268.293139 178.109362 278.140135 182.188121 
C 287.98713 186.26688 298.541803 188.366335 309.200114 188.366335 
C 319.858425 188.366335 330.413097 186.26688 340.260093 182.188121 
C 350.107088 178.109362 359.054907 172.130621 366.591471 164.594057 
C 374.128035 157.057492 380.106777 148.109673 384.185536 138.262678 
C 388.264295 128.415682 390.36375 117.86101 390.36375 107.202699 
" style="fill: none; stroke: #000000; stroke-width: 0.8; stroke-linejoin: miter; stroke-linecap: square"/>
   </g>
   <g id="text_31">
    <!-- H-Plane (Phi = 90.0) -->
    <g transform="translate(248.190426 20.039062) scale(0.12 -0.12)">
     <defs>
      <path id="DejaVuSans-48" d="M 628 4666 
L 1259 4666 
L 1259 2753 
L 3553 2753 
L 3553 4666 
L 4184 4666 
L 4184 0 
L 3553 0 
L 3553 2222 
L 1259 2222 
L 1259 0 
L 628 0 
L 628 4666 
z
" transform="scale(0.015625)"/>
     </defs>
     <use xlink:href="#DejaVuSans-48"/>
     <use xlink:href="#DejaVuSans-2d" transform="translate(75.195312 0)"/>
     <use xlink:href="#DejaVuSans-50" transform="translate(111.279297 0)"/>
     <use xlink:href="#DejaVuSans-6c" transform="translate(171.582031 0)"/>
     <use xlink:href="#DejaVuSans-61" transform="translate(199.365234 0)"/>
     <use xlink:href="#DejaVuSans-6e" transform="translate(260.644531 0)"/>
     <use xlink:href="#DejaVuSans-65" transform="translate(324.023438 0)"/>
     <use xlink:href="#DejaVuSans-20" transform="translate(385.546875 0)"/>
     <use xlink:href="#DejaVuSans-28" transform="translate(417.333984 0)"/>
     <use xlink:href="#DejaVuSans-50" transform="translate(456.347656 0)"/>
     <use xlink:href="#DejaVuSans-68" transform="translate(516.650391 0)"/>
     <use xlink:href="#DejaVuSans-69" transform="translate(580.029297 0)"/>
     <use xlink:href="#DejaVuSans-20" transform="translate(607.8125 0)"/>
     <use xlink:href="#DejaVuSans-3d" transform="translate(639.599609 0)"/>
     <use xlink:href="#DejaVuSans-20" transform="translate(723.388672 0)"/>
     <use xlink:href="#DejaVuSans-39" transform="translate(755.175781 0)"/>
     <use xlink:href="#DejaVuSans-30" transform="translate(818.798828 0)"/>
     <use xlink:href="#DejaVuSans-2e" transform="translate(882.421875 0)"/>
     <use xlink:href="#DejaVuSans-30" transform="translate(914.208984 0)"/>
     <use xlink:href="#DejaVuSans-29" transform="translate(977.832031 0)"/>
    </g>
   </g>
  </g>
 </g>
 <defs>
  <clipPath id="p20f2ef6f1e">
   <path d="M 195.571023 107.202699 
C 195.571023 96.544388 193.471568 85.989715 189.392809 76.14272 
C 185.31405 66.295724 179.335308 57.347905 171.798744 49.811341 
C 164.26218 42.274777 155.314361 36.296036 145.467365 32.217276 
C 135.62037 28.138517 125.065697 26.039063 114.407386 26.039063 
C 103.749075 26.039063 93.194403 28.138517 83.347407 32.217276 
C 73.500412 36.296036 64.552593 42.274777 57.016029 49.811341 
C 49.479465 57.347905 43.500723 66.295724 39.421964 76.14272 
C 35.343205 85.989715 33.24375 96.544388 33.24375 107.202699 
C 33.24375 117.86101 35.343205 128.415682 39.421964 138.262678 
C 43.500723 148.109673 49.479465 157.057492 57.016029 164.594057 
C 64.552593 172.130621 73.500412 178.109362 83.347407 182.188121 
C 93.194403 186.26688 103.749075 188.366335 114.407386 188.366335 
C 125.065697 188.366335 135.62037 186.26688 145.467365 182.188121 
C 155.314361 178.109362 164.26218 172.130621 171.798744 164.594057 
C 179.335308 157.057492 185.31405 148.109673 189.392809 138.262678 
C 193.471568 128.415682 195.571023 117.86101 195.571023 107.202699 
M 114.407386 107.202699 
C 114.407386 107.202699 114.407386 107.202699 114.407386 107.202699 
C 114.407386 107.202699 114.407386 107.202699 114.407386 107.202699 
C 114.407386 107.202699 114.407386 107.202699 114.407386 107.202699 
C 114.407386 107.202699 114.407386 107.202699 114.407386 107.202699 
C 114.407386 107.202699 114.407386 107.202699 114.407386 107.202699 
C 114.407386 107.202699 114.407386 107.202699 114.407386 107.202699 
C 114.407386 107.202699 114.407386 107.202699 114.407386 107.202699 
C 114.407386 107.202699 114.407386 107.202699 114.407386 107.202699 
C 114.407386 107.202699 114.407386 107.202699 114.407386 107.202699 
C 114.407386 107.202699 114.407386 107.202699 114.407386 107.202699 
C 114.407386 107.202699 114.407386 107.202699 114.407386 107.202699 
C 114.407386 107.202699 114.407386 107.202699 114.407386 107.202699 
C 114.407386 107.202699 114.407386 107.202699 114.407386 107.202699 
C 114.407386 107.202699 114.407386 107.202699 114.407386 107.202699 
C 114.407386 107.202699 114.407386 107.202699 114.407386 107.202699 
C 114.407386 107.202699 114.407386 107.202699 114.407386 107.202699 
z
"/>
  </clipPath>
  <clipPath id="p1a90f35ef4">
   <path d="M 390.36375 107.202699 
C 390.36375 96.544388 388.264295 85.989715 384.185536 76.14272 
C 380.106777 66.295724 374.128035 57.347905 366.591471 49.811341 
C 359.054907 42.274777 350.107088 36.296036 340.260093 32.217276 
C 330.413097 28.138517 319.858425 26.039062 309.200114 26.039062 
C 298.541803 26.039062 287.98713 28.138517 278.140135 32.217276 
C 268.293139 36.296036 259.34532 42.274777 251.808756 49.811341 
C 244.272192 57.347905 238.29345 66.295724 234.214691 76.14272 
C 230.135932 85.989715 228.036477 96.544388 228.036477 107.202699 
C 228.036477 117.86101 230.135932 128.415682 234.214691 138.262678 
C 238.29345 148.109673 244.272192 157.057492 251.808756 164.594057 
C 259.34532 172.130621 268.293139 178.109362 278.140135 182.188121 
C 287.98713 186.26688 298.541803 188.366335 309.200114 188.366335 
C 319.858425 188.366335 330.413097 186.26688 340.260093 182.188121 
C 350.107088 178.109362 359.054907 172.130621 366.591471 164.594057 
C 374.128035 157.057492 380.106777 148.109673 384.185536 138.262678 
C 388.264295 128.415682 390.36375 117.86101 390.36375 107.202699 
M 309.200114 107.202699 
C 309.200114 107.202699 309.200114 107.202699 309.200114 107.202699 
C 309.200114 107.202699 309.200114 107.202699 309.200114 107.202699 
C 309.200114 107.202699 309.200114 107.202699 309.200114 107.202699 
C 309.200114 107.202699 309.200114 107.202699 309.200114 107.202699 
C 309.200114 107.202699 309.200114 107.202699 309.200114 107.202699 
C 309.200114 107.202699 309.200114 107.202699 309.200114 107.202699 
C 309.200114 107.202699 309.200114 107.202699 309.200114 107.202699 
C 309.200114 107.202699 309.200114 107.202699 309.200114 107.202699 
C 309.200114 107.202699 309.200114 107.202699 309.200114 107.202699 
C 309.200114 107.202699 309.200114 107.202699 309.200114 107.202699 
C 309.200114 107.202699 309.200114 107.202699 309.200114 107.202699 
C 309.200114 107.202699 309.200114 107.202699 309.200114 107.202699 
C 309.200114 107.202699 309.200114 107.202699 309.200114 107.202699 
C 309.200114 107.202699 309.200114 107.202699 309.200114 107.202699 
C 309.200114 107.202699 309.200114 107.202699 309.200114 107.202699 
C 309.200114 107.202699 309.200114 107.202699 309.200114 107.202699 
z
"/>
  </clipPath>
 </defs>
</svg>
