<?xml version="1.0" encoding="utf-8" standalone="no"?>
<!DOCTYPE svg PUBLIC "-//W3C//DTD SVG 1.1//EN"
  "http://www.w3.org/Graphics/SVG/1.1/DTD/svg11.dtd">
<svg xmlns:xlink="http://www.w3.org/1999/xlink" width="488.904687pt" height="614.274375pt" viewBox="0 0 488.904687 614.274375" xmlns="http://www.w3.org/2000/svg" version="1.1">
 <metadata>
  <rdf:RDF xmlns:dc="http://purl.org/dc/elements/1.1/" xmlns:cc="http://creativecommons.org/ns#" xmlns:rdf="http://www.w3.org/1999/02/22-rdf-syntax-ns#">
   <cc:Work>
    <dc:type rdf:resource="http://purl.org/dc/dcmitype/StillImage"/>
    <dc:date>2025-01-19T18:00:39.059980</dc:date>
    <dc:format>image/svg+xml</dc:format>
    <dc:creator>
     <cc:Agent>
      <dc:title>Matplotlib v3.10.0, https://matplotlib.org/</dc:title>
     </cc:Agent>
    </dc:creator>
   </cc:Work>
  </rdf:RDF>
 </metadata>
 <defs>
  <style type="text/css">*{stroke-linejoin: round; stroke-linecap: butt}</style>
 </defs>
 <g id="figure_1">
  <g id="patch_1">
   <path d="M 0 614.274375 
L 488.904687 614.274375 
L 488.904687 0 
L 0 0 
z
" style="fill: #ffffff"/>
  </g>
  <g id="axes_1">
   <g id="patch_2">
    <path d="M 35.304688 274.318125 
L 481.704687 274.318125 
L 481.704687 22.318125 
L 35.304688 22.318125 
z
" style="fill: #ffffff"/>
   </g>
   <g id="matplotlib.axis_1">
    <g id="xtick_1">
     <g id="line2d_1">
      <path d="M 102.420771 274.318125 
L 102.420771 22.318125 
" clip-path="url(#p60ef58d5ee)" style="fill: none; stroke: #b0b0b0; stroke-width: 0.8; stroke-linecap: square"/>
     </g>
     <g id="line2d_2">
      <defs>
       <path id="m921990081b" d="M 0 0 
L 0 3.5 
" style="stroke: #000000; stroke-width: 0.8"/>
      </defs>
      <g>
       <use xlink:href="#m921990081b" x="102.420771" y="274.318125" style="stroke: #000000; stroke-width: 0.8"/>
      </g>
     </g>
     <g id="text_1">
      <!-- −100 -->
      <g transform="translate(88.687178 288.916562) scale(0.1 -0.1)">
       <defs>
        <path id="DejaVuSans-2212" d="M 678 2272 
L 4684 2272 
L 4684 1741 
L 678 1741 
L 678 2272 
z
" transform="scale(0.015625)"/>
        <path id="DejaVuSans-31" d="M 794 531 
L 1825 531 
L 1825 4091 
L 703 3866 
L 703 4441 
L 1819 4666 
L 2450 4666 
L 2450 531 
L 3481 531 
L 3481 0 
L 794 0 
L 794 531 
z
" transform="scale(0.015625)"/>
        <path id="DejaVuSans-30" d="M 2034 4250 
Q 1547 4250 1301 3770 
Q 1056 3291 1056 2328 
Q 1056 1369 1301 889 
Q 1547 409 2034 409 
Q 2525 409 2770 889 
Q 3016 1369 3016 2328 
Q 3016 3291 2770 3770 
Q 2525 4250 2034 4250 
z
M 2034 4750 
Q 2819 4750 3233 4129 
Q 3647 3509 3647 2328 
Q 3647 1150 3233 529 
Q 2819 -91 2034 -91 
Q 1250 -91 836 529 
Q 422 1150 422 2328 
Q 422 3509 836 4129 
Q 1250 4750 2034 4750 
z
" transform="scale(0.015625)"/>
       </defs>
       <use xlink:href="#DejaVuSans-2212"/>
       <use xlink:href="#DejaVuSans-31" transform="translate(83.789062 0)"/>
       <use xlink:href="#DejaVuSans-30" transform="translate(147.412109 0)"/>
       <use xlink:href="#DejaVuSans-30" transform="translate(211.035156 0)"/>
      </g>
     </g>
    </g>
    <g id="xtick_2">
     <g id="line2d_3">
      <path d="M 180.462729 274.318125 
L 180.462729 22.318125 
" clip-path="url(#p60ef58d5ee)" style="fill: none; stroke: #b0b0b0; stroke-width: 0.8; stroke-linecap: square"/>
     </g>
     <g id="line2d_4">
      <g>
       <use xlink:href="#m921990081b" x="180.462729" y="274.318125" style="stroke: #000000; stroke-width: 0.8"/>
      </g>
     </g>
     <g id="text_2">
      <!-- −50 -->
      <g transform="translate(169.910386 288.916562) scale(0.1 -0.1)">
       <defs>
        <path id="DejaVuSans-35" d="M 691 4666 
L 3169 4666 
L 3169 4134 
L 1269 4134 
L 1269 2991 
Q 1406 3038 1543 3061 
Q 1681 3084 1819 3084 
Q 2600 3084 3056 2656 
Q 3513 2228 3513 1497 
Q 3513 744 3044 326 
Q 2575 -91 1722 -91 
Q 1428 -91 1123 -41 
Q 819 9 494 109 
L 494 744 
Q 775 591 1075 516 
Q 1375 441 1709 441 
Q 2250 441 2565 725 
Q 2881 1009 2881 1497 
Q 2881 1984 2565 2268 
Q 2250 2553 1709 2553 
Q 1456 2553 1204 2497 
Q 953 2441 691 2322 
L 691 4666 
z
" transform="scale(0.015625)"/>
       </defs>
       <use xlink:href="#DejaVuSans-2212"/>
       <use xlink:href="#DejaVuSans-35" transform="translate(83.789062 0)"/>
       <use xlink:href="#DejaVuSans-30" transform="translate(147.412109 0)"/>
      </g>
     </g>
    </g>
    <g id="xtick_3">
     <g id="line2d_5">
      <path d="M 258.504687 274.318125 
L 258.504687 22.318125 
" clip-path="url(#p60ef58d5ee)" style="fill: none; stroke: #b0b0b0; stroke-width: 0.8; stroke-linecap: square"/>
     </g>
     <g id="line2d_6">
      <g>
       <use xlink:href="#m921990081b" x="258.504687" y="274.318125" style="stroke: #000000; stroke-width: 0.8"/>
      </g>
     </g>
     <g id="text_3">
      <!-- 0 -->
      <g transform="translate(255.323437 288.916562) scale(0.1 -0.1)">
       <use xlink:href="#DejaVuSans-30"/>
      </g>
     </g>
    </g>
    <g id="xtick_4">
     <g id="line2d_7">
      <path d="M 336.546646 274.318125 
L 336.546646 22.318125 
" clip-path="url(#p60ef58d5ee)" style="fill: none; stroke: #b0b0b0; stroke-width: 0.8; stroke-linecap: square"/>
     </g>
     <g id="line2d_8">
      <g>
       <use xlink:href="#m921990081b" x="336.546646" y="274.318125" style="stroke: #000000; stroke-width: 0.8"/>
      </g>
     </g>
     <g id="text_4">
      <!-- 50 -->
      <g transform="translate(330.184146 288.916562) scale(0.1 -0.1)">
       <use xlink:href="#DejaVuSans-35"/>
       <use xlink:href="#DejaVuSans-30" transform="translate(63.623047 0)"/>
      </g>
     </g>
    </g>
    <g id="xtick_5">
     <g id="line2d_9">
      <path d="M 414.588604 274.318125 
L 414.588604 22.318125 
" clip-path="url(#p60ef58d5ee)" style="fill: none; stroke: #b0b0b0; stroke-width: 0.8; stroke-linecap: square"/>
     </g>
     <g id="line2d_10">
      <g>
       <use xlink:href="#m921990081b" x="414.588604" y="274.318125" style="stroke: #000000; stroke-width: 0.8"/>
      </g>
     </g>
     <g id="text_5">
      <!-- 100 -->
      <g transform="translate(405.044854 288.916562) scale(0.1 -0.1)">
       <use xlink:href="#DejaVuSans-31"/>
       <use xlink:href="#DejaVuSans-30" transform="translate(63.623047 0)"/>
       <use xlink:href="#DejaVuSans-30" transform="translate(127.246094 0)"/>
      </g>
     </g>
    </g>
    <g id="text_6">
     <!-- Theta -->
     <g transform="translate(244.18125 302.594687) scale(0.1 -0.1)">
      <defs>
       <path id="DejaVuSans-54" d="M -19 4666 
L 3928 4666 
L 3928 4134 
L 2272 4134 
L 2272 0 
L 1638 0 
L 1638 4134 
L -19 4134 
L -19 4666 
z
" transform="scale(0.015625)"/>
       <path id="DejaVuSans-68" d="M 3513 2113 
L 3513 0 
L 2938 0 
L 2938 2094 
Q 2938 2591 2744 2837 
Q 2550 3084 2163 3084 
Q 1697 3084 1428 2787 
Q 1159 2491 1159 1978 
L 1159 0 
L 581 0 
L 581 4863 
L 1159 4863 
L 1159 2956 
Q 1366 3272 1645 3428 
Q 1925 3584 2291 3584 
Q 2894 3584 3203 3211 
Q 3513 2838 3513 2113 
z
" transform="scale(0.015625)"/>
       <path id="DejaVuSans-65" d="M 3597 1894 
L 3597 1613 
L 953 1613 
Q 991 1019 1311 708 
Q 1631 397 2203 397 
Q 2534 397 2845 478 
Q 3156 559 3463 722 
L 3463 178 
Q 3153 47 2828 -22 
Q 2503 -91 2169 -91 
Q 1331 -91 842 396 
Q 353 884 353 1716 
Q 353 2575 817 3079 
Q 1281 3584 2069 3584 
Q 2775 3584 3186 3129 
Q 3597 2675 3597 1894 
z
M 3022 2063 
Q 3016 2534 2758 2815 
Q 2500 3097 2075 3097 
Q 1594 3097 1305 2825 
Q 1016 2553 972 2059 
L 3022 2063 
z
" transform="scale(0.015625)"/>
       <path id="DejaVuSans-74" d="M 1172 4494 
L 1172 3500 
L 2356 3500 
L 2356 3053 
L 1172 3053 
L 1172 1153 
Q 1172 725 1289 603 
Q 1406 481 1766 481 
L 2356 481 
L 2356 0 
L 1766 0 
Q 1100 0 847 248 
Q 594 497 594 1153 
L 594 3053 
L 172 3053 
L 172 3500 
L 594 3500 
L 594 4494 
L 1172 4494 
z
" transform="scale(0.015625)"/>
       <path id="DejaVuSans-61" d="M 2194 1759 
Q 1497 1759 1228 1600 
Q 959 1441 959 1056 
Q 959 750 1161 570 
Q 1363 391 1709 391 
Q 2188 391 2477 730 
Q 2766 1069 2766 1631 
L 2766 1759 
L 2194 1759 
z
M 3341 1997 
L 3341 0 
L 2766 0 
L 2766 531 
Q 2569 213 2275 61 
Q 1981 -91 1556 -91 
Q 1019 -91 701 211 
Q 384 513 384 1019 
Q 384 1609 779 1909 
Q 1175 2209 1959 2209 
L 2766 2209 
L 2766 2266 
Q 2766 2663 2505 2880 
Q 2244 3097 1772 3097 
Q 1472 3097 1187 3025 
Q 903 2953 641 2809 
L 641 3341 
Q 956 3463 1253 3523 
Q 1550 3584 1831 3584 
Q 2591 3584 2966 3190 
Q 3341 2797 3341 1997 
z
" transform="scale(0.015625)"/>
      </defs>
      <use xlink:href="#DejaVuSans-54"/>
      <use xlink:href="#DejaVuSans-68" transform="translate(61.083984 0)"/>
      <use xlink:href="#DejaVuSans-65" transform="translate(124.462891 0)"/>
      <use xlink:href="#DejaVuSans-74" transform="translate(185.986328 0)"/>
      <use xlink:href="#DejaVuSans-61" transform="translate(225.195312 0)"/>
     </g>
    </g>
   </g>
   <g id="matplotlib.axis_2">
    <g id="ytick_1">
     <g id="line2d_11">
      <path d="M 35.304688 264.490242 
L 481.704687 264.490242 
" clip-path="url(#p60ef58d5ee)" style="fill: none; stroke: #b0b0b0; stroke-width: 0.8; stroke-linecap: square"/>
     </g>
     <g id="line2d_12">
      <defs>
       <path id="m871d265636" d="M 0 0 
L -3.5 0 
" style="stroke: #000000; stroke-width: 0.8"/>
      </defs>
      <g>
       <use xlink:href="#m871d265636" x="35.304688" y="264.490242" style="stroke: #000000; stroke-width: 0.8"/>
      </g>
     </g>
     <g id="text_7">
      <!-- −30 -->
      <g transform="translate(7.2 268.289461) scale(0.1 -0.1)">
       <defs>
        <path id="DejaVuSans-33" d="M 2597 2516 
Q 3050 2419 3304 2112 
Q 3559 1806 3559 1356 
Q 3559 666 3084 287 
Q 2609 -91 1734 -91 
Q 1441 -91 1130 -33 
Q 819 25 488 141 
L 488 750 
Q 750 597 1062 519 
Q 1375 441 1716 441 
Q 2309 441 2620 675 
Q 2931 909 2931 1356 
Q 2931 1769 2642 2001 
Q 2353 2234 1838 2234 
L 1294 2234 
L 1294 2753 
L 1863 2753 
Q 2328 2753 2575 2939 
Q 2822 3125 2822 3475 
Q 2822 3834 2567 4026 
Q 2313 4219 1838 4219 
Q 1578 4219 1281 4162 
Q 984 4106 628 3988 
L 628 4550 
Q 988 4650 1302 4700 
Q 1616 4750 1894 4750 
Q 2613 4750 3031 4423 
Q 3450 4097 3450 3541 
Q 3450 3153 3228 2886 
Q 3006 2619 2597 2516 
z
" transform="scale(0.015625)"/>
       </defs>
       <use xlink:href="#DejaVuSans-2212"/>
       <use xlink:href="#DejaVuSans-33" transform="translate(83.789062 0)"/>
       <use xlink:href="#DejaVuSans-30" transform="translate(147.412109 0)"/>
      </g>
     </g>
    </g>
    <g id="ytick_2">
     <g id="line2d_13">
      <path d="M 35.304688 225.933439 
L 481.704687 225.933439 
" clip-path="url(#p60ef58d5ee)" style="fill: none; stroke: #b0b0b0; stroke-width: 0.8; stroke-linecap: square"/>
     </g>
     <g id="line2d_14">
      <g>
       <use xlink:href="#m871d265636" x="35.304688" y="225.933439" style="stroke: #000000; stroke-width: 0.8"/>
      </g>
     </g>
     <g id="text_8">
      <!-- −25 -->
      <g transform="translate(7.2 229.732658) scale(0.1 -0.1)">
       <defs>
        <path id="DejaVuSans-32" d="M 1228 531 
L 3431 531 
L 3431 0 
L 469 0 
L 469 531 
Q 828 903 1448 1529 
Q 2069 2156 2228 2338 
Q 2531 2678 2651 2914 
Q 2772 3150 2772 3378 
Q 2772 3750 2511 3984 
Q 2250 4219 1831 4219 
Q 1534 4219 1204 4116 
Q 875 4013 500 3803 
L 500 4441 
Q 881 4594 1212 4672 
Q 1544 4750 1819 4750 
Q 2544 4750 2975 4387 
Q 3406 4025 3406 3419 
Q 3406 3131 3298 2873 
Q 3191 2616 2906 2266 
Q 2828 2175 2409 1742 
Q 1991 1309 1228 531 
z
" transform="scale(0.015625)"/>
       </defs>
       <use xlink:href="#DejaVuSans-2212"/>
       <use xlink:href="#DejaVuSans-32" transform="translate(83.789062 0)"/>
       <use xlink:href="#DejaVuSans-35" transform="translate(147.412109 0)"/>
      </g>
     </g>
    </g>
    <g id="ytick_3">
     <g id="line2d_15">
      <path d="M 35.304688 187.376636 
L 481.704687 187.376636 
" clip-path="url(#p60ef58d5ee)" style="fill: none; stroke: #b0b0b0; stroke-width: 0.8; stroke-linecap: square"/>
     </g>
     <g id="line2d_16">
      <g>
       <use xlink:href="#m871d265636" x="35.304688" y="187.376636" style="stroke: #000000; stroke-width: 0.8"/>
      </g>
     </g>
     <g id="text_9">
      <!-- −20 -->
      <g transform="translate(7.2 191.175855) scale(0.1 -0.1)">
       <use xlink:href="#DejaVuSans-2212"/>
       <use xlink:href="#DejaVuSans-32" transform="translate(83.789062 0)"/>
       <use xlink:href="#DejaVuSans-30" transform="translate(147.412109 0)"/>
      </g>
     </g>
    </g>
    <g id="ytick_4">
     <g id="line2d_17">
      <path d="M 35.304688 148.819833 
L 481.704687 148.819833 
" clip-path="url(#p60ef58d5ee)" style="fill: none; stroke: #b0b0b0; stroke-width: 0.8; stroke-linecap: square"/>
     </g>
     <g id="line2d_18">
      <g>
       <use xlink:href="#m871d265636" x="35.304688" y="148.819833" style="stroke: #000000; stroke-width: 0.8"/>
      </g>
     </g>
     <g id="text_10">
      <!-- −15 -->
      <g transform="translate(7.2 152.619052) scale(0.1 -0.1)">
       <use xlink:href="#DejaVuSans-2212"/>
       <use xlink:href="#DejaVuSans-31" transform="translate(83.789062 0)"/>
       <use xlink:href="#DejaVuSans-35" transform="translate(147.412109 0)"/>
      </g>
     </g>
    </g>
    <g id="ytick_5">
     <g id="line2d_19">
      <path d="M 35.304688 110.263031 
L 481.704687 110.263031 
" clip-path="url(#p60ef58d5ee)" style="fill: none; stroke: #b0b0b0; stroke-width: 0.8; stroke-linecap: square"/>
     </g>
     <g id="line2d_20">
      <g>
       <use xlink:href="#m871d265636" x="35.304688" y="110.263031" style="stroke: #000000; stroke-width: 0.8"/>
      </g>
     </g>
     <g id="text_11">
      <!-- −10 -->
      <g transform="translate(7.2 114.062249) scale(0.1 -0.1)">
       <use xlink:href="#DejaVuSans-2212"/>
       <use xlink:href="#DejaVuSans-31" transform="translate(83.789062 0)"/>
       <use xlink:href="#DejaVuSans-30" transform="translate(147.412109 0)"/>
      </g>
     </g>
    </g>
    <g id="ytick_6">
     <g id="line2d_21">
      <path d="M 35.304688 71.706228 
L 481.704687 71.706228 
" clip-path="url(#p60ef58d5ee)" style="fill: none; stroke: #b0b0b0; stroke-width: 0.8; stroke-linecap: square"/>
     </g>
     <g id="line2d_22">
      <g>
       <use xlink:href="#m871d265636" x="35.304688" y="71.706228" style="stroke: #000000; stroke-width: 0.8"/>
      </g>
     </g>
     <g id="text_12">
      <!-- −5 -->
      <g transform="translate(13.5625 75.505446) scale(0.1 -0.1)">
       <use xlink:href="#DejaVuSans-2212"/>
       <use xlink:href="#DejaVuSans-35" transform="translate(83.789062 0)"/>
      </g>
     </g>
    </g>
    <g id="ytick_7">
     <g id="line2d_23">
      <path d="M 35.304688 33.149425 
L 481.704687 33.149425 
" clip-path="url(#p60ef58d5ee)" style="fill: none; stroke: #b0b0b0; stroke-width: 0.8; stroke-linecap: square"/>
     </g>
     <g id="line2d_24">
      <g>
       <use xlink:href="#m871d265636" x="35.304688" y="33.149425" style="stroke: #000000; stroke-width: 0.8"/>
      </g>
     </g>
     <g id="text_13">
      <!-- 0 -->
      <g transform="translate(21.942187 36.948644) scale(0.1 -0.1)">
       <use xlink:href="#DejaVuSans-30"/>
      </g>
     </g>
    </g>
   </g>
   <g id="line2d_25">
    <path d="M 55.595597 176.30819 
L 63.399792 184.671626 
L 71.203988 193.463003 
L 79.008184 202.279704 
L 86.81238 213.282293 
L 94.616576 220.912299 
L 102.420771 225.18621 
L 110.224967 231.493552 
L 118.029163 240.032052 
L 125.833359 246.169728 
L 133.637555 249.621085 
L 141.44175 254.709777 
L 149.245946 259.605874 
L 157.050142 259.829246 
L 164.854338 256.472943 
L 172.658534 250.80009 
L 180.462729 251.877628 
L 188.266925 259.247199 
L 196.071121 247.256636 
L 203.875317 219.022244 
L 211.679513 191.347568 
L 219.483708 175.201335 
L 227.287904 141.926819 
L 235.0921 98.454705 
L 242.896296 60.684304 
L 250.700492 40.206892 
L 258.504687 34.587269 
L 266.308883 41.278683 
L 274.113079 62.594042 
L 281.917275 100.020722 
L 289.721471 145.497242 
L 297.525667 179.41452 
L 305.329862 194.277899 
L 313.134058 221.539981 
L 320.938254 249.88789 
L 328.74245 261.484228 
L 336.546646 250.069017 
L 344.350841 249.685164 
L 352.155037 255.835393 
L 359.959233 260.340778 
L 367.763429 259.156739 
L 375.567625 254.122918 
L 383.37182 249.074243 
L 391.176016 244.687604 
L 398.980212 239.333837 
L 406.784408 230.487865 
L 414.588604 224.624836 
L 422.392799 219.559563 
L 430.196995 211.937824 
L 438.001191 200.404155 
L 445.805387 192.620769 
L 453.609583 182.875549 
L 461.413778 172.416585 
" clip-path="url(#p60ef58d5ee)" style="fill: none; stroke: #1f77b4; stroke-opacity: 0.7; stroke-width: 1.5; stroke-linecap: square"/>
   </g>
   <g id="line2d_26">
    <path d="M 55.595597 175.844004 
L 63.399792 185.82542 
L 71.203988 192.786732 
L 79.008184 202.430219 
L 86.81238 212.568338 
L 94.616576 222.769559 
L 102.420771 224.272874 
L 110.224967 229.985308 
L 118.029163 242.158292 
L 125.833359 245.447068 
L 133.637555 249.313007 
L 141.44175 254.786445 
L 149.245946 259.303467 
L 157.050142 261.194618 
L 164.854338 255.262356 
L 172.658534 252.238475 
L 180.462729 248.731257 
L 188.266925 258.130144 
L 196.071121 257.116914 
L 203.875317 209.341035 
L 211.679513 193.488546 
L 219.483708 175.298044 
L 227.287904 145.486203 
L 235.0921 95.897965 
L 242.896296 59.904424 
L 250.700492 41.04804 
L 258.504687 33.77267 
L 266.308883 42.335562 
L 274.113079 61.490306 
L 281.917275 98.320744 
L 289.721471 147.033791 
L 297.525667 182.003286 
L 305.329862 195.529467 
L 313.134058 210.114849 
L 320.938254 262.86358 
L 328.74245 257.586602 
L 336.546646 249.477905 
L 344.350841 248.259176 
L 352.155037 256.755789 
L 359.959233 261.156587 
L 367.763429 258.388375 
L 375.567625 254.895735 
L 383.37182 248.159003 
L 391.176016 244.674712 
L 398.980212 240.261593 
L 406.784408 230.587969 
L 414.588604 222.145992 
L 422.392799 222.595696 
L 430.196995 210.677266 
L 438.001191 200.552437 
L 445.805387 191.67644 
L 453.609583 185.234462 
L 461.413778 171.394517 
" clip-path="url(#p60ef58d5ee)" style="fill: none; stroke: #ff7f0e; stroke-opacity: 0.7; stroke-width: 1.5; stroke-linecap: square"/>
   </g>
   <g id="patch_3">
    <path d="M 35.304688 274.318125 
L 35.304688 22.318125 
" style="fill: none; stroke: #000000; stroke-width: 0.8; stroke-linejoin: miter; stroke-linecap: square"/>
   </g>
   <g id="patch_4">
    <path d="M 481.704687 274.318125 
L 481.704687 22.318125 
" style="fill: none; stroke: #000000; stroke-width: 0.8; stroke-linejoin: miter; stroke-linecap: square"/>
   </g>
   <g id="patch_5">
    <path d="M 35.304688 274.318125 
L 481.704687 274.318125 
" style="fill: none; stroke: #000000; stroke-width: 0.8; stroke-linejoin: miter; stroke-linecap: square"/>
   </g>
   <g id="patch_6">
    <path d="M 35.304688 22.318125 
L 481.704687 22.318125 
" style="fill: none; stroke: #000000; stroke-width: 0.8; stroke-linejoin: miter; stroke-linecap: square"/>
   </g>
   <g id="text_14">
    <!-- Far-field Pattern H-plane Phi = 90.0 -->
    <g transform="translate(152.810937 16.318125) scale(0.12 -0.12)">
     <defs>
      <path id="DejaVuSans-46" d="M 628 4666 
L 3309 4666 
L 3309 4134 
L 1259 4134 
L 1259 2759 
L 3109 2759 
L 3109 2228 
L 1259 2228 
L 1259 0 
L 628 0 
L 628 4666 
z
" transform="scale(0.015625)"/>
      <path id="DejaVuSans-72" d="M 2631 2963 
Q 2534 3019 2420 3045 
Q 2306 3072 2169 3072 
Q 1681 3072 1420 2755 
Q 1159 2438 1159 1844 
L 1159 0 
L 581 0 
L 581 3500 
L 1159 3500 
L 1159 2956 
Q 1341 3275 1631 3429 
Q 1922 3584 2338 3584 
Q 2397 3584 2469 3576 
Q 2541 3569 2628 3553 
L 2631 2963 
z
" transform="scale(0.015625)"/>
      <path id="DejaVuSans-2d" d="M 313 2009 
L 1997 2009 
L 1997 1497 
L 313 1497 
L 313 2009 
z
" transform="scale(0.015625)"/>
      <path id="DejaVuSans-66" d="M 2375 4863 
L 2375 4384 
L 1825 4384 
Q 1516 4384 1395 4259 
Q 1275 4134 1275 3809 
L 1275 3500 
L 2222 3500 
L 2222 3053 
L 1275 3053 
L 1275 0 
L 697 0 
L 697 3053 
L 147 3053 
L 147 3500 
L 697 3500 
L 697 3744 
Q 697 4328 969 4595 
Q 1241 4863 1831 4863 
L 2375 4863 
z
" transform="scale(0.015625)"/>
      <path id="DejaVuSans-69" d="M 603 3500 
L 1178 3500 
L 1178 0 
L 603 0 
L 603 3500 
z
M 603 4863 
L 1178 4863 
L 1178 4134 
L 603 4134 
L 603 4863 
z
" transform="scale(0.015625)"/>
      <path id="DejaVuSans-6c" d="M 603 4863 
L 1178 4863 
L 1178 0 
L 603 0 
L 603 4863 
z
" transform="scale(0.015625)"/>
      <path id="DejaVuSans-64" d="M 2906 2969 
L 2906 4863 
L 3481 4863 
L 3481 0 
L 2906 0 
L 2906 525 
Q 2725 213 2448 61 
Q 2172 -91 1784 -91 
Q 1150 -91 751 415 
Q 353 922 353 1747 
Q 353 2572 751 3078 
Q 1150 3584 1784 3584 
Q 2172 3584 2448 3432 
Q 2725 3281 2906 2969 
z
M 947 1747 
Q 947 1113 1208 752 
Q 1469 391 1925 391 
Q 2381 391 2643 752 
Q 2906 1113 2906 1747 
Q 2906 2381 2643 2742 
Q 2381 3103 1925 3103 
Q 1469 3103 1208 2742 
Q 947 2381 947 1747 
z
" transform="scale(0.015625)"/>
      <path id="DejaVuSans-20" transform="scale(0.015625)"/>
      <path id="DejaVuSans-50" d="M 1259 4147 
L 1259 2394 
L 2053 2394 
Q 2494 2394 2734 2622 
Q 2975 2850 2975 3272 
Q 2975 3691 2734 3919 
Q 2494 4147 2053 4147 
L 1259 4147 
z
M 628 4666 
L 2053 4666 
Q 2838 4666 3239 4311 
Q 3641 3956 3641 3272 
Q 3641 2581 3239 2228 
Q 2838 1875 2053 1875 
L 1259 1875 
L 1259 0 
L 628 0 
L 628 4666 
z
" transform="scale(0.015625)"/>
      <path id="DejaVuSans-6e" d="M 3513 2113 
L 3513 0 
L 2938 0 
L 2938 2094 
Q 2938 2591 2744 2837 
Q 2550 3084 2163 3084 
Q 1697 3084 1428 2787 
Q 1159 2491 1159 1978 
L 1159 0 
L 581 0 
L 581 3500 
L 1159 3500 
L 1159 2956 
Q 1366 3272 1645 3428 
Q 1925 3584 2291 3584 
Q 2894 3584 3203 3211 
Q 3513 2838 3513 2113 
z
" transform="scale(0.015625)"/>
      <path id="DejaVuSans-48" d="M 628 4666 
L 1259 4666 
L 1259 2753 
L 3553 2753 
L 3553 4666 
L 4184 4666 
L 4184 0 
L 3553 0 
L 3553 2222 
L 1259 2222 
L 1259 0 
L 628 0 
L 628 4666 
z
" transform="scale(0.015625)"/>
      <path id="DejaVuSans-70" d="M 1159 525 
L 1159 -1331 
L 581 -1331 
L 581 3500 
L 1159 3500 
L 1159 2969 
Q 1341 3281 1617 3432 
Q 1894 3584 2278 3584 
Q 2916 3584 3314 3078 
Q 3713 2572 3713 1747 
Q 3713 922 3314 415 
Q 2916 -91 2278 -91 
Q 1894 -91 1617 61 
Q 1341 213 1159 525 
z
M 3116 1747 
Q 3116 2381 2855 2742 
Q 2594 3103 2138 3103 
Q 1681 3103 1420 2742 
Q 1159 2381 1159 1747 
Q 1159 1113 1420 752 
Q 1681 391 2138 391 
Q 2594 391 2855 752 
Q 3116 1113 3116 1747 
z
" transform="scale(0.015625)"/>
      <path id="DejaVuSans-3d" d="M 678 2906 
L 4684 2906 
L 4684 2381 
L 678 2381 
L 678 2906 
z
M 678 1631 
L 4684 1631 
L 4684 1100 
L 678 1100 
L 678 1631 
z
" transform="scale(0.015625)"/>
      <path id="DejaVuSans-39" d="M 703 97 
L 703 672 
Q 941 559 1184 500 
Q 1428 441 1663 441 
Q 2288 441 2617 861 
Q 2947 1281 2994 2138 
Q 2813 1869 2534 1725 
Q 2256 1581 1919 1581 
Q 1219 1581 811 2004 
Q 403 2428 403 3163 
Q 403 3881 828 4315 
Q 1253 4750 1959 4750 
Q 2769 4750 3195 4129 
Q 3622 3509 3622 2328 
Q 3622 1225 3098 567 
Q 2575 -91 1691 -91 
Q 1453 -91 1209 -44 
Q 966 3 703 97 
z
M 1959 2075 
Q 2384 2075 2632 2365 
Q 2881 2656 2881 3163 
Q 2881 3666 2632 3958 
Q 2384 4250 1959 4250 
Q 1534 4250 1286 3958 
Q 1038 3666 1038 3163 
Q 1038 2656 1286 2365 
Q 1534 2075 1959 2075 
z
" transform="scale(0.015625)"/>
      <path id="DejaVuSans-2e" d="M 684 794 
L 1344 794 
L 1344 0 
L 684 0 
L 684 794 
z
" transform="scale(0.015625)"/>
     </defs>
     <use xlink:href="#DejaVuSans-46"/>
     <use xlink:href="#DejaVuSans-61" transform="translate(48.394531 0)"/>
     <use xlink:href="#DejaVuSans-72" transform="translate(109.673828 0)"/>
     <use xlink:href="#DejaVuSans-2d" transform="translate(144.412109 0)"/>
     <use xlink:href="#DejaVuSans-66" transform="translate(180.496094 0)"/>
     <use xlink:href="#DejaVuSans-69" transform="translate(215.701172 0)"/>
     <use xlink:href="#DejaVuSans-65" transform="translate(243.484375 0)"/>
     <use xlink:href="#DejaVuSans-6c" transform="translate(305.007812 0)"/>
     <use xlink:href="#DejaVuSans-64" transform="translate(332.791016 0)"/>
     <use xlink:href="#DejaVuSans-20" transform="translate(396.267578 0)"/>
     <use xlink:href="#DejaVuSans-50" transform="translate(428.054688 0)"/>
     <use xlink:href="#DejaVuSans-61" transform="translate(483.857422 0)"/>
     <use xlink:href="#DejaVuSans-74" transform="translate(545.136719 0)"/>
     <use xlink:href="#DejaVuSans-74" transform="translate(584.345703 0)"/>
     <use xlink:href="#DejaVuSans-65" transform="translate(623.554688 0)"/>
     <use xlink:href="#DejaVuSans-72" transform="translate(685.078125 0)"/>
     <use xlink:href="#DejaVuSans-6e" transform="translate(724.441406 0)"/>
     <use xlink:href="#DejaVuSans-20" transform="translate(787.820312 0)"/>
     <use xlink:href="#DejaVuSans-48" transform="translate(819.607422 0)"/>
     <use xlink:href="#DejaVuSans-2d" transform="translate(894.802734 0)"/>
     <use xlink:href="#DejaVuSans-70" transform="translate(930.886719 0)"/>
     <use xlink:href="#DejaVuSans-6c" transform="translate(994.363281 0)"/>
     <use xlink:href="#DejaVuSans-61" transform="translate(1022.146484 0)"/>
     <use xlink:href="#DejaVuSans-6e" transform="translate(1083.425781 0)"/>
     <use xlink:href="#DejaVuSans-65" transform="translate(1146.804688 0)"/>
     <use xlink:href="#DejaVuSans-20" transform="translate(1208.328125 0)"/>
     <use xlink:href="#DejaVuSans-50" transform="translate(1240.115234 0)"/>
     <use xlink:href="#DejaVuSans-68" transform="translate(1300.417969 0)"/>
     <use xlink:href="#DejaVuSans-69" transform="translate(1363.796875 0)"/>
     <use xlink:href="#DejaVuSans-20" transform="translate(1391.580078 0)"/>
     <use xlink:href="#DejaVuSans-3d" transform="translate(1423.367188 0)"/>
     <use xlink:href="#DejaVuSans-20" transform="translate(1507.15625 0)"/>
     <use xlink:href="#DejaVuSans-39" transform="translate(1538.943359 0)"/>
     <use xlink:href="#DejaVuSans-30" transform="translate(1602.566406 0)"/>
     <use xlink:href="#DejaVuSans-2e" transform="translate(1666.189453 0)"/>
     <use xlink:href="#DejaVuSans-30" transform="translate(1697.976562 0)"/>
    </g>
   </g>
   <g id="legend_1">
    <g id="patch_7">
     <path d="M 264.571875 59.674375 
L 474.704687 59.674375 
Q 476.704687 59.674375 476.704687 57.674375 
L 476.704687 29.318125 
Q 476.704687 27.318125 474.704687 27.318125 
L 264.571875 27.318125 
Q 262.571875 27.318125 262.571875 29.318125 
L 262.571875 57.674375 
Q 262.571875 59.674375 264.571875 59.674375 
z
" style="fill: #ffffff; opacity: 0.8; stroke: #cccccc; stroke-linejoin: miter"/>
    </g>
    <g id="line2d_27">
     <path d="M 266.571875 35.416562 
L 276.571875 35.416562 
L 286.571875 35.416562 
" style="fill: none; stroke: #1f77b4; stroke-opacity: 0.7; stroke-width: 1.5; stroke-linecap: square"/>
    </g>
    <g id="text_15">
     <!-- smoothed with Savitzky-Golay filter -->
     <g transform="translate(294.571875 38.916562) scale(0.1 -0.1)">
      <defs>
       <path id="DejaVuSans-73" d="M 2834 3397 
L 2834 2853 
Q 2591 2978 2328 3040 
Q 2066 3103 1784 3103 
Q 1356 3103 1142 2972 
Q 928 2841 928 2578 
Q 928 2378 1081 2264 
Q 1234 2150 1697 2047 
L 1894 2003 
Q 2506 1872 2764 1633 
Q 3022 1394 3022 966 
Q 3022 478 2636 193 
Q 2250 -91 1575 -91 
Q 1294 -91 989 -36 
Q 684 19 347 128 
L 347 722 
Q 666 556 975 473 
Q 1284 391 1588 391 
Q 1994 391 2212 530 
Q 2431 669 2431 922 
Q 2431 1156 2273 1281 
Q 2116 1406 1581 1522 
L 1381 1569 
Q 847 1681 609 1914 
Q 372 2147 372 2553 
Q 372 3047 722 3315 
Q 1072 3584 1716 3584 
Q 2034 3584 2315 3537 
Q 2597 3491 2834 3397 
z
" transform="scale(0.015625)"/>
       <path id="DejaVuSans-6d" d="M 3328 2828 
Q 3544 3216 3844 3400 
Q 4144 3584 4550 3584 
Q 5097 3584 5394 3201 
Q 5691 2819 5691 2113 
L 5691 0 
L 5113 0 
L 5113 2094 
Q 5113 2597 4934 2840 
Q 4756 3084 4391 3084 
Q 3944 3084 3684 2787 
Q 3425 2491 3425 1978 
L 3425 0 
L 2847 0 
L 2847 2094 
Q 2847 2600 2669 2842 
Q 2491 3084 2119 3084 
Q 1678 3084 1418 2786 
Q 1159 2488 1159 1978 
L 1159 0 
L 581 0 
L 581 3500 
L 1159 3500 
L 1159 2956 
Q 1356 3278 1631 3431 
Q 1906 3584 2284 3584 
Q 2666 3584 2933 3390 
Q 3200 3197 3328 2828 
z
" transform="scale(0.015625)"/>
       <path id="DejaVuSans-6f" d="M 1959 3097 
Q 1497 3097 1228 2736 
Q 959 2375 959 1747 
Q 959 1119 1226 758 
Q 1494 397 1959 397 
Q 2419 397 2687 759 
Q 2956 1122 2956 1747 
Q 2956 2369 2687 2733 
Q 2419 3097 1959 3097 
z
M 1959 3584 
Q 2709 3584 3137 3096 
Q 3566 2609 3566 1747 
Q 3566 888 3137 398 
Q 2709 -91 1959 -91 
Q 1206 -91 779 398 
Q 353 888 353 1747 
Q 353 2609 779 3096 
Q 1206 3584 1959 3584 
z
" transform="scale(0.015625)"/>
       <path id="DejaVuSans-77" d="M 269 3500 
L 844 3500 
L 1563 769 
L 2278 3500 
L 2956 3500 
L 3675 769 
L 4391 3500 
L 4966 3500 
L 4050 0 
L 3372 0 
L 2619 2869 
L 1863 0 
L 1184 0 
L 269 3500 
z
" transform="scale(0.015625)"/>
       <path id="DejaVuSans-53" d="M 3425 4513 
L 3425 3897 
Q 3066 4069 2747 4153 
Q 2428 4238 2131 4238 
Q 1616 4238 1336 4038 
Q 1056 3838 1056 3469 
Q 1056 3159 1242 3001 
Q 1428 2844 1947 2747 
L 2328 2669 
Q 3034 2534 3370 2195 
Q 3706 1856 3706 1288 
Q 3706 609 3251 259 
Q 2797 -91 1919 -91 
Q 1588 -91 1214 -16 
Q 841 59 441 206 
L 441 856 
Q 825 641 1194 531 
Q 1563 422 1919 422 
Q 2459 422 2753 634 
Q 3047 847 3047 1241 
Q 3047 1584 2836 1778 
Q 2625 1972 2144 2069 
L 1759 2144 
Q 1053 2284 737 2584 
Q 422 2884 422 3419 
Q 422 4038 858 4394 
Q 1294 4750 2059 4750 
Q 2388 4750 2728 4690 
Q 3069 4631 3425 4513 
z
" transform="scale(0.015625)"/>
       <path id="DejaVuSans-76" d="M 191 3500 
L 800 3500 
L 1894 563 
L 2988 3500 
L 3597 3500 
L 2284 0 
L 1503 0 
L 191 3500 
z
" transform="scale(0.015625)"/>
       <path id="DejaVuSans-7a" d="M 353 3500 
L 3084 3500 
L 3084 2975 
L 922 459 
L 3084 459 
L 3084 0 
L 275 0 
L 275 525 
L 2438 3041 
L 353 3041 
L 353 3500 
z
" transform="scale(0.015625)"/>
       <path id="DejaVuSans-6b" d="M 581 4863 
L 1159 4863 
L 1159 1991 
L 2875 3500 
L 3609 3500 
L 1753 1863 
L 3688 0 
L 2938 0 
L 1159 1709 
L 1159 0 
L 581 0 
L 581 4863 
z
" transform="scale(0.015625)"/>
       <path id="DejaVuSans-79" d="M 2059 -325 
Q 1816 -950 1584 -1140 
Q 1353 -1331 966 -1331 
L 506 -1331 
L 506 -850 
L 844 -850 
Q 1081 -850 1212 -737 
Q 1344 -625 1503 -206 
L 1606 56 
L 191 3500 
L 800 3500 
L 1894 763 
L 2988 3500 
L 3597 3500 
L 2059 -325 
z
" transform="scale(0.015625)"/>
       <path id="DejaVuSans-47" d="M 3809 666 
L 3809 1919 
L 2778 1919 
L 2778 2438 
L 4434 2438 
L 4434 434 
Q 4069 175 3628 42 
Q 3188 -91 2688 -91 
Q 1594 -91 976 548 
Q 359 1188 359 2328 
Q 359 3472 976 4111 
Q 1594 4750 2688 4750 
Q 3144 4750 3555 4637 
Q 3966 4525 4313 4306 
L 4313 3634 
Q 3963 3931 3569 4081 
Q 3175 4231 2741 4231 
Q 1884 4231 1454 3753 
Q 1025 3275 1025 2328 
Q 1025 1384 1454 906 
Q 1884 428 2741 428 
Q 3075 428 3337 486 
Q 3600 544 3809 666 
z
" transform="scale(0.015625)"/>
      </defs>
      <use xlink:href="#DejaVuSans-73"/>
      <use xlink:href="#DejaVuSans-6d" transform="translate(52.099609 0)"/>
      <use xlink:href="#DejaVuSans-6f" transform="translate(149.511719 0)"/>
      <use xlink:href="#DejaVuSans-6f" transform="translate(210.693359 0)"/>
      <use xlink:href="#DejaVuSans-74" transform="translate(271.875 0)"/>
      <use xlink:href="#DejaVuSans-68" transform="translate(311.083984 0)"/>
      <use xlink:href="#DejaVuSans-65" transform="translate(374.462891 0)"/>
      <use xlink:href="#DejaVuSans-64" transform="translate(435.986328 0)"/>
      <use xlink:href="#DejaVuSans-20" transform="translate(499.462891 0)"/>
      <use xlink:href="#DejaVuSans-77" transform="translate(531.25 0)"/>
      <use xlink:href="#DejaVuSans-69" transform="translate(613.037109 0)"/>
      <use xlink:href="#DejaVuSans-74" transform="translate(640.820312 0)"/>
      <use xlink:href="#DejaVuSans-68" transform="translate(680.029297 0)"/>
      <use xlink:href="#DejaVuSans-20" transform="translate(743.408203 0)"/>
      <use xlink:href="#DejaVuSans-53" transform="translate(775.195312 0)"/>
      <use xlink:href="#DejaVuSans-61" transform="translate(838.671875 0)"/>
      <use xlink:href="#DejaVuSans-76" transform="translate(899.951172 0)"/>
      <use xlink:href="#DejaVuSans-69" transform="translate(959.130859 0)"/>
      <use xlink:href="#DejaVuSans-74" transform="translate(986.914062 0)"/>
      <use xlink:href="#DejaVuSans-7a" transform="translate(1026.123047 0)"/>
      <use xlink:href="#DejaVuSans-6b" transform="translate(1078.613281 0)"/>
      <use xlink:href="#DejaVuSans-79" transform="translate(1132.898438 0)"/>
      <use xlink:href="#DejaVuSans-2d" transform="translate(1190.328125 0)"/>
      <use xlink:href="#DejaVuSans-47" transform="translate(1230.037109 0)"/>
      <use xlink:href="#DejaVuSans-6f" transform="translate(1307.527344 0)"/>
      <use xlink:href="#DejaVuSans-6c" transform="translate(1368.708984 0)"/>
      <use xlink:href="#DejaVuSans-61" transform="translate(1396.492188 0)"/>
      <use xlink:href="#DejaVuSans-79" transform="translate(1457.771484 0)"/>
      <use xlink:href="#DejaVuSans-20" transform="translate(1516.951172 0)"/>
      <use xlink:href="#DejaVuSans-66" transform="translate(1548.738281 0)"/>
      <use xlink:href="#DejaVuSans-69" transform="translate(1583.943359 0)"/>
      <use xlink:href="#DejaVuSans-6c" transform="translate(1611.726562 0)"/>
      <use xlink:href="#DejaVuSans-74" transform="translate(1639.509766 0)"/>
      <use xlink:href="#DejaVuSans-65" transform="translate(1678.71875 0)"/>
      <use xlink:href="#DejaVuSans-72" transform="translate(1740.242188 0)"/>
     </g>
    </g>
    <g id="line2d_28">
     <path d="M 266.571875 50.094687 
L 276.571875 50.094687 
L 286.571875 50.094687 
" style="fill: none; stroke: #ff7f0e; stroke-opacity: 0.7; stroke-width: 1.5; stroke-linecap: square"/>
    </g>
    <g id="text_16">
     <!-- no smoothing -->
     <g transform="translate(294.571875 53.594687) scale(0.1 -0.1)">
      <defs>
       <path id="DejaVuSans-67" d="M 2906 1791 
Q 2906 2416 2648 2759 
Q 2391 3103 1925 3103 
Q 1463 3103 1205 2759 
Q 947 2416 947 1791 
Q 947 1169 1205 825 
Q 1463 481 1925 481 
Q 2391 481 2648 825 
Q 2906 1169 2906 1791 
z
M 3481 434 
Q 3481 -459 3084 -895 
Q 2688 -1331 1869 -1331 
Q 1566 -1331 1297 -1286 
Q 1028 -1241 775 -1147 
L 775 -588 
Q 1028 -725 1275 -790 
Q 1522 -856 1778 -856 
Q 2344 -856 2625 -561 
Q 2906 -266 2906 331 
L 2906 616 
Q 2728 306 2450 153 
Q 2172 0 1784 0 
Q 1141 0 747 490 
Q 353 981 353 1791 
Q 353 2603 747 3093 
Q 1141 3584 1784 3584 
Q 2172 3584 2450 3431 
Q 2728 3278 2906 2969 
L 2906 3500 
L 3481 3500 
L 3481 434 
z
" transform="scale(0.015625)"/>
      </defs>
      <use xlink:href="#DejaVuSans-6e"/>
      <use xlink:href="#DejaVuSans-6f" transform="translate(63.378906 0)"/>
      <use xlink:href="#DejaVuSans-20" transform="translate(124.560547 0)"/>
      <use xlink:href="#DejaVuSans-73" transform="translate(156.347656 0)"/>
      <use xlink:href="#DejaVuSans-6d" transform="translate(208.447266 0)"/>
      <use xlink:href="#DejaVuSans-6f" transform="translate(305.859375 0)"/>
      <use xlink:href="#DejaVuSans-6f" transform="translate(367.041016 0)"/>
      <use xlink:href="#DejaVuSans-74" transform="translate(428.222656 0)"/>
      <use xlink:href="#DejaVuSans-68" transform="translate(467.431641 0)"/>
      <use xlink:href="#DejaVuSans-69" transform="translate(530.810547 0)"/>
      <use xlink:href="#DejaVuSans-6e" transform="translate(558.59375 0)"/>
      <use xlink:href="#DejaVuSans-67" transform="translate(621.972656 0)"/>
     </g>
    </g>
   </g>
  </g>
  <g id="axes_2">
   <g id="patch_8">
    <path d="M 35.304688 576.718125 
L 481.704687 576.718125 
L 481.704687 324.718125 
L 35.304688 324.718125 
z
" style="fill: #ffffff"/>
   </g>
   <g id="matplotlib.axis_3">
    <g id="xtick_6">
     <g id="line2d_29">
      <path d="M 102.420771 576.718125 
L 102.420771 324.718125 
" clip-path="url(#p318d0b3edf)" style="fill: none; stroke: #b0b0b0; stroke-width: 0.8; stroke-linecap: square"/>
     </g>
     <g id="line2d_30">
      <g>
       <use xlink:href="#m921990081b" x="102.420771" y="576.718125" style="stroke: #000000; stroke-width: 0.8"/>
      </g>
     </g>
     <g id="text_17">
      <!-- −100 -->
      <g transform="translate(88.687178 591.316562) scale(0.1 -0.1)">
       <use xlink:href="#DejaVuSans-2212"/>
       <use xlink:href="#DejaVuSans-31" transform="translate(83.789062 0)"/>
       <use xlink:href="#DejaVuSans-30" transform="translate(147.412109 0)"/>
       <use xlink:href="#DejaVuSans-30" transform="translate(211.035156 0)"/>
      </g>
     </g>
    </g>
    <g id="xtick_7">
     <g id="line2d_31">
      <path d="M 180.462729 576.718125 
L 180.462729 324.718125 
" clip-path="url(#p318d0b3edf)" style="fill: none; stroke: #b0b0b0; stroke-width: 0.8; stroke-linecap: square"/>
     </g>
     <g id="line2d_32">
      <g>
       <use xlink:href="#m921990081b" x="180.462729" y="576.718125" style="stroke: #000000; stroke-width: 0.8"/>
      </g>
     </g>
     <g id="text_18">
      <!-- −50 -->
      <g transform="translate(169.910386 591.316562) scale(0.1 -0.1)">
       <use xlink:href="#DejaVuSans-2212"/>
       <use xlink:href="#DejaVuSans-35" transform="translate(83.789062 0)"/>
       <use xlink:href="#DejaVuSans-30" transform="translate(147.412109 0)"/>
      </g>
     </g>
    </g>
    <g id="xtick_8">
     <g id="line2d_33">
      <path d="M 258.504687 576.718125 
L 258.504687 324.718125 
" clip-path="url(#p318d0b3edf)" style="fill: none; stroke: #b0b0b0; stroke-width: 0.8; stroke-linecap: square"/>
     </g>
     <g id="line2d_34">
      <g>
       <use xlink:href="#m921990081b" x="258.504687" y="576.718125" style="stroke: #000000; stroke-width: 0.8"/>
      </g>
     </g>
     <g id="text_19">
      <!-- 0 -->
      <g transform="translate(255.323437 591.316562) scale(0.1 -0.1)">
       <use xlink:href="#DejaVuSans-30"/>
      </g>
     </g>
    </g>
    <g id="xtick_9">
     <g id="line2d_35">
      <path d="M 336.546646 576.718125 
L 336.546646 324.718125 
" clip-path="url(#p318d0b3edf)" style="fill: none; stroke: #b0b0b0; stroke-width: 0.8; stroke-linecap: square"/>
     </g>
     <g id="line2d_36">
      <g>
       <use xlink:href="#m921990081b" x="336.546646" y="576.718125" style="stroke: #000000; stroke-width: 0.8"/>
      </g>
     </g>
     <g id="text_20">
      <!-- 50 -->
      <g transform="translate(330.184146 591.316562) scale(0.1 -0.1)">
       <use xlink:href="#DejaVuSans-35"/>
       <use xlink:href="#DejaVuSans-30" transform="translate(63.623047 0)"/>
      </g>
     </g>
    </g>
    <g id="xtick_10">
     <g id="line2d_37">
      <path d="M 414.588604 576.718125 
L 414.588604 324.718125 
" clip-path="url(#p318d0b3edf)" style="fill: none; stroke: #b0b0b0; stroke-width: 0.8; stroke-linecap: square"/>
     </g>
     <g id="line2d_38">
      <g>
       <use xlink:href="#m921990081b" x="414.588604" y="576.718125" style="stroke: #000000; stroke-width: 0.8"/>
      </g>
     </g>
     <g id="text_21">
      <!-- 100 -->
      <g transform="translate(405.044854 591.316562) scale(0.1 -0.1)">
       <use xlink:href="#DejaVuSans-31"/>
       <use xlink:href="#DejaVuSans-30" transform="translate(63.623047 0)"/>
       <use xlink:href="#DejaVuSans-30" transform="translate(127.246094 0)"/>
      </g>
     </g>
    </g>
    <g id="text_22">
     <!-- Theta -->
     <g transform="translate(244.18125 604.994687) scale(0.1 -0.1)">
      <use xlink:href="#DejaVuSans-54"/>
      <use xlink:href="#DejaVuSans-68" transform="translate(61.083984 0)"/>
      <use xlink:href="#DejaVuSans-65" transform="translate(124.462891 0)"/>
      <use xlink:href="#DejaVuSans-74" transform="translate(185.986328 0)"/>
      <use xlink:href="#DejaVuSans-61" transform="translate(225.195312 0)"/>
     </g>
    </g>
   </g>
   <g id="matplotlib.axis_4">
    <g id="ytick_8">
     <g id="line2d_39">
      <path d="M 35.304688 554.024359 
L 481.704687 554.024359 
" clip-path="url(#p318d0b3edf)" style="fill: none; stroke: #b0b0b0; stroke-width: 0.8; stroke-linecap: square"/>
     </g>
     <g id="line2d_40">
      <g>
       <use xlink:href="#m871d265636" x="35.304688" y="554.024359" style="stroke: #000000; stroke-width: 0.8"/>
      </g>
     </g>
     <g id="text_23">
      <!-- −25 -->
      <g transform="translate(7.2 557.823578) scale(0.1 -0.1)">
       <use xlink:href="#DejaVuSans-2212"/>
       <use xlink:href="#DejaVuSans-32" transform="translate(83.789062 0)"/>
       <use xlink:href="#DejaVuSans-35" transform="translate(147.412109 0)"/>
      </g>
     </g>
    </g>
    <g id="ytick_9">
     <g id="line2d_41">
      <path d="M 35.304688 510.312707 
L 481.704687 510.312707 
" clip-path="url(#p318d0b3edf)" style="fill: none; stroke: #b0b0b0; stroke-width: 0.8; stroke-linecap: square"/>
     </g>
     <g id="line2d_42">
      <g>
       <use xlink:href="#m871d265636" x="35.304688" y="510.312707" style="stroke: #000000; stroke-width: 0.8"/>
      </g>
     </g>
     <g id="text_24">
      <!-- −20 -->
      <g transform="translate(7.2 514.111926) scale(0.1 -0.1)">
       <use xlink:href="#DejaVuSans-2212"/>
       <use xlink:href="#DejaVuSans-32" transform="translate(83.789062 0)"/>
       <use xlink:href="#DejaVuSans-30" transform="translate(147.412109 0)"/>
      </g>
     </g>
    </g>
    <g id="ytick_10">
     <g id="line2d_43">
      <path d="M 35.304688 466.601055 
L 481.704687 466.601055 
" clip-path="url(#p318d0b3edf)" style="fill: none; stroke: #b0b0b0; stroke-width: 0.8; stroke-linecap: square"/>
     </g>
     <g id="line2d_44">
      <g>
       <use xlink:href="#m871d265636" x="35.304688" y="466.601055" style="stroke: #000000; stroke-width: 0.8"/>
      </g>
     </g>
     <g id="text_25">
      <!-- −15 -->
      <g transform="translate(7.2 470.400274) scale(0.1 -0.1)">
       <use xlink:href="#DejaVuSans-2212"/>
       <use xlink:href="#DejaVuSans-31" transform="translate(83.789062 0)"/>
       <use xlink:href="#DejaVuSans-35" transform="translate(147.412109 0)"/>
      </g>
     </g>
    </g>
    <g id="ytick_11">
     <g id="line2d_45">
      <path d="M 35.304688 422.889404 
L 481.704687 422.889404 
" clip-path="url(#p318d0b3edf)" style="fill: none; stroke: #b0b0b0; stroke-width: 0.8; stroke-linecap: square"/>
     </g>
     <g id="line2d_46">
      <g>
       <use xlink:href="#m871d265636" x="35.304688" y="422.889404" style="stroke: #000000; stroke-width: 0.8"/>
      </g>
     </g>
     <g id="text_26">
      <!-- −10 -->
      <g transform="translate(7.2 426.688622) scale(0.1 -0.1)">
       <use xlink:href="#DejaVuSans-2212"/>
       <use xlink:href="#DejaVuSans-31" transform="translate(83.789062 0)"/>
       <use xlink:href="#DejaVuSans-30" transform="translate(147.412109 0)"/>
      </g>
     </g>
    </g>
    <g id="ytick_12">
     <g id="line2d_47">
      <path d="M 35.304688 379.177752 
L 481.704687 379.177752 
" clip-path="url(#p318d0b3edf)" style="fill: none; stroke: #b0b0b0; stroke-width: 0.8; stroke-linecap: square"/>
     </g>
     <g id="line2d_48">
      <g>
       <use xlink:href="#m871d265636" x="35.304688" y="379.177752" style="stroke: #000000; stroke-width: 0.8"/>
      </g>
     </g>
     <g id="text_27">
      <!-- −5 -->
      <g transform="translate(13.5625 382.976971) scale(0.1 -0.1)">
       <use xlink:href="#DejaVuSans-2212"/>
       <use xlink:href="#DejaVuSans-35" transform="translate(83.789062 0)"/>
      </g>
     </g>
    </g>
    <g id="ytick_13">
     <g id="line2d_49">
      <path d="M 35.304688 335.4661 
L 481.704687 335.4661 
" clip-path="url(#p318d0b3edf)" style="fill: none; stroke: #b0b0b0; stroke-width: 0.8; stroke-linecap: square"/>
     </g>
     <g id="line2d_50">
      <g>
       <use xlink:href="#m871d265636" x="35.304688" y="335.4661" style="stroke: #000000; stroke-width: 0.8"/>
      </g>
     </g>
     <g id="text_28">
      <!-- 0 -->
      <g transform="translate(21.942187 339.265319) scale(0.1 -0.1)">
       <use xlink:href="#DejaVuSans-30"/>
      </g>
     </g>
    </g>
   </g>
   <g id="line2d_51">
    <path d="M 55.595597 471.56387 
L 63.399792 474.934697 
L 71.203988 491.244232 
L 79.008184 530.184954 
L 86.81238 549.385572 
L 94.616576 536.595019 
L 102.420771 518.138357 
L 110.224967 531.830569 
L 118.029163 550.08118 
L 125.833359 547.490017 
L 133.637555 530.408601 
L 141.44175 523.187844 
L 149.245946 521.506696 
L 157.050142 520.276453 
L 164.854338 531.199323 
L 172.658534 551.908667 
L 180.462729 552.488375 
L 188.266925 521.384932 
L 196.071121 479.389927 
L 203.875317 456.401251 
L 211.679513 464.316916 
L 219.483708 486.110973 
L 227.287904 470.850474 
L 235.0921 417.609248 
L 242.896296 365.489582 
L 250.700492 343.42554 
L 258.504687 336.347483 
L 266.308883 342.793111 
L 274.113079 363.817484 
L 281.917275 414.004567 
L 289.721471 469.739135 
L 297.525667 485.012736 
L 305.329862 465.155693 
L 313.134058 457.195641 
L 320.938254 479.473079 
L 328.74245 522.091328 
L 336.546646 552.676729 
L 344.350841 550.696939 
L 352.155037 526.961919 
L 359.959233 518.775784 
L 367.763429 521.003259 
L 375.567625 523.861791 
L 383.37182 529.131387 
L 391.176016 545.671329 
L 398.980212 550.27573 
L 406.784408 533.478705 
L 414.588604 517.768241 
L 422.392799 532.971411 
L 430.196995 547.411263 
L 438.001191 530.040889 
L 445.805387 493.762013 
L 453.609583 477.105612 
L 461.413778 470.810977 
" clip-path="url(#p318d0b3edf)" style="fill: none; stroke: #1f77b4; stroke-opacity: 0.7; stroke-width: 1.5; stroke-linecap: square"/>
   </g>
   <g id="line2d_52">
    <path d="M 55.595597 474.564659 
L 63.399792 469.784862 
L 71.203988 488.689005 
L 79.008184 529.049279 
L 86.81238 558.826892 
L 94.616576 532.733513 
L 102.420771 515.629544 
L 110.224967 527.324485 
L 118.029163 558.358351 
L 125.833359 546.700181 
L 133.637555 526.886013 
L 141.44175 524.237129 
L 149.245946 522.977957 
L 157.050142 519.57458 
L 164.854338 527.657788 
L 172.658534 552.669856 
L 180.462729 558.735158 
L 188.266925 518.858607 
L 196.071121 478.924246 
L 203.875317 455.34233 
L 211.679513 459.090165 
L 219.483708 488.79098 
L 227.287904 482.089244 
L 235.0921 407.896179 
L 242.896296 366.241994 
L 250.700492 343.837757 
L 258.504687 336.17267 
L 266.308883 343.545136 
L 274.113079 364.214074 
L 281.917275 405.212036 
L 289.721471 478.198462 
L 297.525667 492.25326 
L 305.329862 455.148488 
L 313.134058 459.128987 
L 320.938254 479.688867 
L 328.74245 514.877948 
L 336.546646 565.26358 
L 344.350841 547.25702 
L 352.155037 524.116112 
L 359.959233 518.966305 
L 367.763429 521.731976 
L 375.567625 524.560251 
L 383.37182 528.099957 
L 391.176016 541.148621 
L 398.980212 560.470426 
L 406.784408 530.064634 
L 414.588604 512.868625 
L 422.392799 531.988949 
L 430.196995 553.369966 
L 438.001191 531.493982 
L 445.805387 490.36151 
L 453.609583 470.925814 
L 461.413778 474.467627 
" clip-path="url(#p318d0b3edf)" style="fill: none; stroke: #ff7f0e; stroke-opacity: 0.7; stroke-width: 1.5; stroke-linecap: square"/>
   </g>
   <g id="patch_9">
    <path d="M 35.304688 576.718125 
L 35.304688 324.718125 
" style="fill: none; stroke: #000000; stroke-width: 0.8; stroke-linejoin: miter; stroke-linecap: square"/>
   </g>
   <g id="patch_10">
    <path d="M 481.704687 576.718125 
L 481.704687 324.718125 
" style="fill: none; stroke: #000000; stroke-width: 0.8; stroke-linejoin: miter; stroke-linecap: square"/>
   </g>
   <g id="patch_11">
    <path d="M 35.304688 576.718125 
L 481.704687 576.718125 
" style="fill: none; stroke: #000000; stroke-width: 0.8; stroke-linejoin: miter; stroke-linecap: square"/>
   </g>
   <g id="patch_12">
    <path d="M 35.304688 324.718125 
L 481.704687 324.718125 
" style="fill: none; stroke: #000000; stroke-width: 0.8; stroke-linejoin: miter; stroke-linecap: square"/>
   </g>
   <g id="text_29">
    <!-- Far-field Pattern E-plane Phi = 0.0 -->
    <g transform="translate(157.349375 318.718125) scale(0.12 -0.12)">
     <defs>
      <path id="DejaVuSans-45" d="M 628 4666 
L 3578 4666 
L 3578 4134 
L 1259 4134 
L 1259 2753 
L 3481 2753 
L 3481 2222 
L 1259 2222 
L 1259 531 
L 3634 531 
L 3634 0 
L 628 0 
L 628 4666 
z
" transform="scale(0.015625)"/>
     </defs>
     <use xlink:href="#DejaVuSans-46"/>
     <use xlink:href="#DejaVuSans-61" transform="translate(48.394531 0)"/>
     <use xlink:href="#DejaVuSans-72" transform="translate(109.673828 0)"/>
     <use xlink:href="#DejaVuSans-2d" transform="translate(144.412109 0)"/>
     <use xlink:href="#DejaVuSans-66" transform="translate(180.496094 0)"/>
     <use xlink:href="#DejaVuSans-69" transform="translate(215.701172 0)"/>
     <use xlink:href="#DejaVuSans-65" transform="translate(243.484375 0)"/>
     <use xlink:href="#DejaVuSans-6c" transform="translate(305.007812 0)"/>
     <use xlink:href="#DejaVuSans-64" transform="translate(332.791016 0)"/>
     <use xlink:href="#DejaVuSans-20" transform="translate(396.267578 0)"/>
     <use xlink:href="#DejaVuSans-50" transform="translate(428.054688 0)"/>
     <use xlink:href="#DejaVuSans-61" transform="translate(483.857422 0)"/>
     <use xlink:href="#DejaVuSans-74" transform="translate(545.136719 0)"/>
     <use xlink:href="#DejaVuSans-74" transform="translate(584.345703 0)"/>
     <use xlink:href="#DejaVuSans-65" transform="translate(623.554688 0)"/>
     <use xlink:href="#DejaVuSans-72" transform="translate(685.078125 0)"/>
     <use xlink:href="#DejaVuSans-6e" transform="translate(724.441406 0)"/>
     <use xlink:href="#DejaVuSans-20" transform="translate(787.820312 0)"/>
     <use xlink:href="#DejaVuSans-45" transform="translate(819.607422 0)"/>
     <use xlink:href="#DejaVuSans-2d" transform="translate(882.791016 0)"/>
     <use xlink:href="#DejaVuSans-70" transform="translate(918.875 0)"/>
     <use xlink:href="#DejaVuSans-6c" transform="translate(982.351562 0)"/>
     <use xlink:href="#DejaVuSans-61" transform="translate(1010.134766 0)"/>
     <use xlink:href="#DejaVuSans-6e" transform="translate(1071.414062 0)"/>
     <use xlink:href="#DejaVuSans-65" transform="translate(1134.792969 0)"/>
     <use xlink:href="#DejaVuSans-20" transform="translate(1196.316406 0)"/>
     <use xlink:href="#DejaVuSans-50" transform="translate(1228.103516 0)"/>
     <use xlink:href="#DejaVuSans-68" transform="translate(1288.40625 0)"/>
     <use xlink:href="#DejaVuSans-69" transform="translate(1351.785156 0)"/>
     <use xlink:href="#DejaVuSans-20" transform="translate(1379.568359 0)"/>
     <use xlink:href="#DejaVuSans-3d" transform="translate(1411.355469 0)"/>
     <use xlink:href="#DejaVuSans-20" transform="translate(1495.144531 0)"/>
     <use xlink:href="#DejaVuSans-30" transform="translate(1526.931641 0)"/>
     <use xlink:href="#DejaVuSans-2e" transform="translate(1590.554688 0)"/>
     <use xlink:href="#DejaVuSans-30" transform="translate(1622.341797 0)"/>
    </g>
   </g>
   <g id="legend_2">
    <g id="patch_13">
     <path d="M 264.571875 362.074375 
L 474.704687 362.074375 
Q 476.704687 362.074375 476.704687 360.074375 
L 476.704687 331.718125 
Q 476.704687 329.718125 474.704687 329.718125 
L 264.571875 329.718125 
Q 262.571875 329.718125 262.571875 331.718125 
L 262.571875 360.074375 
Q 262.571875 362.074375 264.571875 362.074375 
z
" style="fill: #ffffff; opacity: 0.8; stroke: #cccccc; stroke-linejoin: miter"/>
    </g>
    <g id="line2d_53">
     <path d="M 266.571875 337.816563 
L 276.571875 337.816563 
L 286.571875 337.816563 
" style="fill: none; stroke: #1f77b4; stroke-opacity: 0.7; stroke-width: 1.5; stroke-linecap: square"/>
    </g>
    <g id="text_30">
     <!-- smoothed with Savitzky-Golay filter -->
     <g transform="translate(294.571875 341.316563) scale(0.1 -0.1)">
      <use xlink:href="#DejaVuSans-73"/>
      <use xlink:href="#DejaVuSans-6d" transform="translate(52.099609 0)"/>
      <use xlink:href="#DejaVuSans-6f" transform="translate(149.511719 0)"/>
      <use xlink:href="#DejaVuSans-6f" transform="translate(210.693359 0)"/>
      <use xlink:href="#DejaVuSans-74" transform="translate(271.875 0)"/>
      <use xlink:href="#DejaVuSans-68" transform="translate(311.083984 0)"/>
      <use xlink:href="#DejaVuSans-65" transform="translate(374.462891 0)"/>
      <use xlink:href="#DejaVuSans-64" transform="translate(435.986328 0)"/>
      <use xlink:href="#DejaVuSans-20" transform="translate(499.462891 0)"/>
      <use xlink:href="#DejaVuSans-77" transform="translate(531.25 0)"/>
      <use xlink:href="#DejaVuSans-69" transform="translate(613.037109 0)"/>
      <use xlink:href="#DejaVuSans-74" transform="translate(640.820312 0)"/>
      <use xlink:href="#DejaVuSans-68" transform="translate(680.029297 0)"/>
      <use xlink:href="#DejaVuSans-20" transform="translate(743.408203 0)"/>
      <use xlink:href="#DejaVuSans-53" transform="translate(775.195312 0)"/>
      <use xlink:href="#DejaVuSans-61" transform="translate(838.671875 0)"/>
      <use xlink:href="#DejaVuSans-76" transform="translate(899.951172 0)"/>
      <use xlink:href="#DejaVuSans-69" transform="translate(959.130859 0)"/>
      <use xlink:href="#DejaVuSans-74" transform="translate(986.914062 0)"/>
      <use xlink:href="#DejaVuSans-7a" transform="translate(1026.123047 0)"/>
      <use xlink:href="#DejaVuSans-6b" transform="translate(1078.613281 0)"/>
      <use xlink:href="#DejaVuSans-79" transform="translate(1132.898438 0)"/>
      <use xlink:href="#DejaVuSans-2d" transform="translate(1190.328125 0)"/>
      <use xlink:href="#DejaVuSans-47" transform="translate(1230.037109 0)"/>
      <use xlink:href="#DejaVuSans-6f" transform="translate(1307.527344 0)"/>
      <use xlink:href="#DejaVuSans-6c" transform="translate(1368.708984 0)"/>
      <use xlink:href="#DejaVuSans-61" transform="translate(1396.492188 0)"/>
      <use xlink:href="#DejaVuSans-79" transform="translate(1457.771484 0)"/>
      <use xlink:href="#DejaVuSans-20" transform="translate(1516.951172 0)"/>
      <use xlink:href="#DejaVuSans-66" transform="translate(1548.738281 0)"/>
      <use xlink:href="#DejaVuSans-69" transform="translate(1583.943359 0)"/>
      <use xlink:href="#DejaVuSans-6c" transform="translate(1611.726562 0)"/>
      <use xlink:href="#DejaVuSans-74" transform="translate(1639.509766 0)"/>
      <use xlink:href="#DejaVuSans-65" transform="translate(1678.71875 0)"/>
      <use xlink:href="#DejaVuSans-72" transform="translate(1740.242188 0)"/>
     </g>
    </g>
    <g id="line2d_54">
     <path d="M 266.571875 352.494688 
L 276.571875 352.494688 
L 286.571875 352.494688 
" style="fill: none; stroke: #ff7f0e; stroke-opacity: 0.7; stroke-width: 1.5; stroke-linecap: square"/>
    </g>
    <g id="text_31">
     <!-- no smoothing -->
     <g transform="translate(294.571875 355.994688) scale(0.1 -0.1)">
      <use xlink:href="#DejaVuSans-6e"/>
      <use xlink:href="#DejaVuSans-6f" transform="translate(63.378906 0)"/>
      <use xlink:href="#DejaVuSans-20" transform="translate(124.560547 0)"/>
      <use xlink:href="#DejaVuSans-73" transform="translate(156.347656 0)"/>
      <use xlink:href="#DejaVuSans-6d" transform="translate(208.447266 0)"/>
      <use xlink:href="#DejaVuSans-6f" transform="translate(305.859375 0)"/>
      <use xlink:href="#DejaVuSans-6f" transform="translate(367.041016 0)"/>
      <use xlink:href="#DejaVuSans-74" transform="translate(428.222656 0)"/>
      <use xlink:href="#DejaVuSans-68" transform="translate(467.431641 0)"/>
      <use xlink:href="#DejaVuSans-69" transform="translate(530.810547 0)"/>
      <use xlink:href="#DejaVuSans-6e" transform="translate(558.59375 0)"/>
      <use xlink:href="#DejaVuSans-67" transform="translate(621.972656 0)"/>
     </g>
    </g>
   </g>
  </g>
 </g>
 <defs>
  <clipPath id="p60ef58d5ee">
   <rect x="35.304688" y="22.318125" width="446.4" height="252"/>
  </clipPath>
  <clipPath id="p318d0b3edf">
   <rect x="35.304688" y="324.718125" width="446.4" height="252"/>
  </clipPath>
 </defs>
</svg>
