<?xml version="1.0" encoding="utf-8" standalone="no"?>
<!DOCTYPE svg PUBLIC "-//W3C//DTD SVG 1.1//EN"
  "http://www.w3.org/Graphics/SVG/1.1/DTD/svg11.dtd">
<svg xmlns:xlink="http://www.w3.org/1999/xlink" width="518.079687pt" height="624.872813pt" viewBox="0 0 518.079687 624.872813" xmlns="http://www.w3.org/2000/svg" version="1.1">
 <metadata>
  <rdf:RDF xmlns:dc="http://purl.org/dc/elements/1.1/" xmlns:cc="http://creativecommons.org/ns#" xmlns:rdf="http://www.w3.org/1999/02/22-rdf-syntax-ns#">
   <cc:Work>
    <dc:type rdf:resource="http://purl.org/dc/dcmitype/StillImage"/>
    <dc:date>2024-12-10T13:22:59.070312</dc:date>
    <dc:format>image/svg+xml</dc:format>
    <dc:creator>
     <cc:Agent>
      <dc:title>Matplotlib v3.8.3, https://matplotlib.org/</dc:title>
     </cc:Agent>
    </dc:creator>
   </cc:Work>
  </rdf:RDF>
 </metadata>
 <defs>
  <style type="text/css">*{stroke-linejoin: round; stroke-linecap: butt}</style>
 </defs>
 <g id="figure_1">
  <g id="patch_1">
   <path d="M 0 624.872813 
L 518.079687 624.872813 
L 518.079687 0 
L 0 0 
z
" style="fill: #ffffff"/>
  </g>
  <g id="axes_1">
   <g id="patch_2">
    <path d="M 38.482813 284.916563 
L 484.882812 284.916563 
L 484.882812 32.916563 
L 38.482813 32.916563 
z
" style="fill: #ffffff"/>
   </g>
   <g id="matplotlib.axis_1">
    <g id="xtick_1">
     <g id="line2d_1">
      <path d="M 105.598896 284.916563 
L 105.598896 32.916563 
" clip-path="url(#p037c034e09)" style="fill: none; stroke: #b0b0b0; stroke-width: 0.8; stroke-linecap: square"/>
     </g>
     <g id="line2d_2">
      <defs>
       <path id="mc1011c5efa" d="M 0 0 
L 0 3.5 
" style="stroke: #000000; stroke-width: 0.8"/>
      </defs>
      <g>
       <use xlink:href="#mc1011c5efa" x="105.598896" y="284.916563" style="stroke: #000000; stroke-width: 0.8"/>
      </g>
     </g>
     <g id="text_1">
      <!-- −100 -->
      <g transform="translate(91.865303 299.515) scale(0.1 -0.1)">
       <defs>
        <path id="DejaVuSans-2212" d="M 678 2272 
L 4684 2272 
L 4684 1741 
L 678 1741 
L 678 2272 
z
" transform="scale(0.015625)"/>
        <path id="DejaVuSans-31" d="M 794 531 
L 1825 531 
L 1825 4091 
L 703 3866 
L 703 4441 
L 1819 4666 
L 2450 4666 
L 2450 531 
L 3481 531 
L 3481 0 
L 794 0 
L 794 531 
z
" transform="scale(0.015625)"/>
        <path id="DejaVuSans-30" d="M 2034 4250 
Q 1547 4250 1301 3770 
Q 1056 3291 1056 2328 
Q 1056 1369 1301 889 
Q 1547 409 2034 409 
Q 2525 409 2770 889 
Q 3016 1369 3016 2328 
Q 3016 3291 2770 3770 
Q 2525 4250 2034 4250 
z
M 2034 4750 
Q 2819 4750 3233 4129 
Q 3647 3509 3647 2328 
Q 3647 1150 3233 529 
Q 2819 -91 2034 -91 
Q 1250 -91 836 529 
Q 422 1150 422 2328 
Q 422 3509 836 4129 
Q 1250 4750 2034 4750 
z
" transform="scale(0.015625)"/>
       </defs>
       <use xlink:href="#DejaVuSans-2212"/>
       <use xlink:href="#DejaVuSans-31" x="83.789062"/>
       <use xlink:href="#DejaVuSans-30" x="147.412109"/>
       <use xlink:href="#DejaVuSans-30" x="211.035156"/>
      </g>
     </g>
    </g>
    <g id="xtick_2">
     <g id="line2d_3">
      <path d="M 183.640854 284.916563 
L 183.640854 32.916563 
" clip-path="url(#p037c034e09)" style="fill: none; stroke: #b0b0b0; stroke-width: 0.8; stroke-linecap: square"/>
     </g>
     <g id="line2d_4">
      <g>
       <use xlink:href="#mc1011c5efa" x="183.640854" y="284.916563" style="stroke: #000000; stroke-width: 0.8"/>
      </g>
     </g>
     <g id="text_2">
      <!-- −50 -->
      <g transform="translate(173.088511 299.515) scale(0.1 -0.1)">
       <defs>
        <path id="DejaVuSans-35" d="M 691 4666 
L 3169 4666 
L 3169 4134 
L 1269 4134 
L 1269 2991 
Q 1406 3038 1543 3061 
Q 1681 3084 1819 3084 
Q 2600 3084 3056 2656 
Q 3513 2228 3513 1497 
Q 3513 744 3044 326 
Q 2575 -91 1722 -91 
Q 1428 -91 1123 -41 
Q 819 9 494 109 
L 494 744 
Q 775 591 1075 516 
Q 1375 441 1709 441 
Q 2250 441 2565 725 
Q 2881 1009 2881 1497 
Q 2881 1984 2565 2268 
Q 2250 2553 1709 2553 
Q 1456 2553 1204 2497 
Q 953 2441 691 2322 
L 691 4666 
z
" transform="scale(0.015625)"/>
       </defs>
       <use xlink:href="#DejaVuSans-2212"/>
       <use xlink:href="#DejaVuSans-35" x="83.789062"/>
       <use xlink:href="#DejaVuSans-30" x="147.412109"/>
      </g>
     </g>
    </g>
    <g id="xtick_3">
     <g id="line2d_5">
      <path d="M 261.682813 284.916563 
L 261.682813 32.916563 
" clip-path="url(#p037c034e09)" style="fill: none; stroke: #b0b0b0; stroke-width: 0.8; stroke-linecap: square"/>
     </g>
     <g id="line2d_6">
      <g>
       <use xlink:href="#mc1011c5efa" x="261.682813" y="284.916563" style="stroke: #000000; stroke-width: 0.8"/>
      </g>
     </g>
     <g id="text_3">
      <!-- 0 -->
      <g transform="translate(258.501563 299.515) scale(0.1 -0.1)">
       <use xlink:href="#DejaVuSans-30"/>
      </g>
     </g>
    </g>
    <g id="xtick_4">
     <g id="line2d_7">
      <path d="M 339.724771 284.916563 
L 339.724771 32.916563 
" clip-path="url(#p037c034e09)" style="fill: none; stroke: #b0b0b0; stroke-width: 0.8; stroke-linecap: square"/>
     </g>
     <g id="line2d_8">
      <g>
       <use xlink:href="#mc1011c5efa" x="339.724771" y="284.916563" style="stroke: #000000; stroke-width: 0.8"/>
      </g>
     </g>
     <g id="text_4">
      <!-- 50 -->
      <g transform="translate(333.362271 299.515) scale(0.1 -0.1)">
       <use xlink:href="#DejaVuSans-35"/>
       <use xlink:href="#DejaVuSans-30" x="63.623047"/>
      </g>
     </g>
    </g>
    <g id="xtick_5">
     <g id="line2d_9">
      <path d="M 417.766729 284.916563 
L 417.766729 32.916563 
" clip-path="url(#p037c034e09)" style="fill: none; stroke: #b0b0b0; stroke-width: 0.8; stroke-linecap: square"/>
     </g>
     <g id="line2d_10">
      <g>
       <use xlink:href="#mc1011c5efa" x="417.766729" y="284.916563" style="stroke: #000000; stroke-width: 0.8"/>
      </g>
     </g>
     <g id="text_5">
      <!-- 100 -->
      <g transform="translate(408.222979 299.515) scale(0.1 -0.1)">
       <use xlink:href="#DejaVuSans-31"/>
       <use xlink:href="#DejaVuSans-30" x="63.623047"/>
       <use xlink:href="#DejaVuSans-30" x="127.246094"/>
      </g>
     </g>
    </g>
    <g id="text_6">
     <!-- Theta -->
     <g transform="translate(247.359375 313.193125) scale(0.1 -0.1)">
      <defs>
       <path id="DejaVuSans-54" d="M -19 4666 
L 3928 4666 
L 3928 4134 
L 2272 4134 
L 2272 0 
L 1638 0 
L 1638 4134 
L -19 4134 
L -19 4666 
z
" transform="scale(0.015625)"/>
       <path id="DejaVuSans-68" d="M 3513 2113 
L 3513 0 
L 2938 0 
L 2938 2094 
Q 2938 2591 2744 2837 
Q 2550 3084 2163 3084 
Q 1697 3084 1428 2787 
Q 1159 2491 1159 1978 
L 1159 0 
L 581 0 
L 581 4863 
L 1159 4863 
L 1159 2956 
Q 1366 3272 1645 3428 
Q 1925 3584 2291 3584 
Q 2894 3584 3203 3211 
Q 3513 2838 3513 2113 
z
" transform="scale(0.015625)"/>
       <path id="DejaVuSans-65" d="M 3597 1894 
L 3597 1613 
L 953 1613 
Q 991 1019 1311 708 
Q 1631 397 2203 397 
Q 2534 397 2845 478 
Q 3156 559 3463 722 
L 3463 178 
Q 3153 47 2828 -22 
Q 2503 -91 2169 -91 
Q 1331 -91 842 396 
Q 353 884 353 1716 
Q 353 2575 817 3079 
Q 1281 3584 2069 3584 
Q 2775 3584 3186 3129 
Q 3597 2675 3597 1894 
z
M 3022 2063 
Q 3016 2534 2758 2815 
Q 2500 3097 2075 3097 
Q 1594 3097 1305 2825 
Q 1016 2553 972 2059 
L 3022 2063 
z
" transform="scale(0.015625)"/>
       <path id="DejaVuSans-74" d="M 1172 4494 
L 1172 3500 
L 2356 3500 
L 2356 3053 
L 1172 3053 
L 1172 1153 
Q 1172 725 1289 603 
Q 1406 481 1766 481 
L 2356 481 
L 2356 0 
L 1766 0 
Q 1100 0 847 248 
Q 594 497 594 1153 
L 594 3053 
L 172 3053 
L 172 3500 
L 594 3500 
L 594 4494 
L 1172 4494 
z
" transform="scale(0.015625)"/>
       <path id="DejaVuSans-61" d="M 2194 1759 
Q 1497 1759 1228 1600 
Q 959 1441 959 1056 
Q 959 750 1161 570 
Q 1363 391 1709 391 
Q 2188 391 2477 730 
Q 2766 1069 2766 1631 
L 2766 1759 
L 2194 1759 
z
M 3341 1997 
L 3341 0 
L 2766 0 
L 2766 531 
Q 2569 213 2275 61 
Q 1981 -91 1556 -91 
Q 1019 -91 701 211 
Q 384 513 384 1019 
Q 384 1609 779 1909 
Q 1175 2209 1959 2209 
L 2766 2209 
L 2766 2266 
Q 2766 2663 2505 2880 
Q 2244 3097 1772 3097 
Q 1472 3097 1187 3025 
Q 903 2953 641 2809 
L 641 3341 
Q 956 3463 1253 3523 
Q 1550 3584 1831 3584 
Q 2591 3584 2966 3190 
Q 3341 2797 3341 1997 
z
" transform="scale(0.015625)"/>
      </defs>
      <use xlink:href="#DejaVuSans-54"/>
      <use xlink:href="#DejaVuSans-68" x="61.083984"/>
      <use xlink:href="#DejaVuSans-65" x="124.462891"/>
      <use xlink:href="#DejaVuSans-74" x="185.986328"/>
      <use xlink:href="#DejaVuSans-61" x="225.195312"/>
     </g>
    </g>
   </g>
   <g id="matplotlib.axis_2">
    <g id="ytick_1">
     <g id="line2d_11">
      <path d="M 38.482813 251.068412 
L 484.882812 251.068412 
" clip-path="url(#p037c034e09)" style="fill: none; stroke: #b0b0b0; stroke-width: 0.8; stroke-linecap: square"/>
     </g>
     <g id="line2d_12">
      <defs>
       <path id="m07b92cc636" d="M 0 0 
L -3.5 0 
" style="stroke: #000000; stroke-width: 0.8"/>
      </defs>
      <g>
       <use xlink:href="#m07b92cc636" x="38.482813" y="251.068412" style="stroke: #000000; stroke-width: 0.8"/>
      </g>
     </g>
     <g id="text_7">
      <!-- −3.0 -->
      <g transform="translate(7.2 254.867631) scale(0.1 -0.1)">
       <defs>
        <path id="DejaVuSans-33" d="M 2597 2516 
Q 3050 2419 3304 2112 
Q 3559 1806 3559 1356 
Q 3559 666 3084 287 
Q 2609 -91 1734 -91 
Q 1441 -91 1130 -33 
Q 819 25 488 141 
L 488 750 
Q 750 597 1062 519 
Q 1375 441 1716 441 
Q 2309 441 2620 675 
Q 2931 909 2931 1356 
Q 2931 1769 2642 2001 
Q 2353 2234 1838 2234 
L 1294 2234 
L 1294 2753 
L 1863 2753 
Q 2328 2753 2575 2939 
Q 2822 3125 2822 3475 
Q 2822 3834 2567 4026 
Q 2313 4219 1838 4219 
Q 1578 4219 1281 4162 
Q 984 4106 628 3988 
L 628 4550 
Q 988 4650 1302 4700 
Q 1616 4750 1894 4750 
Q 2613 4750 3031 4423 
Q 3450 4097 3450 3541 
Q 3450 3153 3228 2886 
Q 3006 2619 2597 2516 
z
" transform="scale(0.015625)"/>
        <path id="DejaVuSans-2e" d="M 684 794 
L 1344 794 
L 1344 0 
L 684 0 
L 684 794 
z
" transform="scale(0.015625)"/>
       </defs>
       <use xlink:href="#DejaVuSans-2212"/>
       <use xlink:href="#DejaVuSans-33" x="83.789062"/>
       <use xlink:href="#DejaVuSans-2e" x="147.412109"/>
       <use xlink:href="#DejaVuSans-30" x="179.199219"/>
      </g>
     </g>
    </g>
    <g id="ytick_2">
     <g id="line2d_13">
      <path d="M 38.482813 216.618861 
L 484.882812 216.618861 
" clip-path="url(#p037c034e09)" style="fill: none; stroke: #b0b0b0; stroke-width: 0.8; stroke-linecap: square"/>
     </g>
     <g id="line2d_14">
      <g>
       <use xlink:href="#m07b92cc636" x="38.482813" y="216.618861" style="stroke: #000000; stroke-width: 0.8"/>
      </g>
     </g>
     <g id="text_8">
      <!-- −2.5 -->
      <g transform="translate(7.2 220.41808) scale(0.1 -0.1)">
       <defs>
        <path id="DejaVuSans-32" d="M 1228 531 
L 3431 531 
L 3431 0 
L 469 0 
L 469 531 
Q 828 903 1448 1529 
Q 2069 2156 2228 2338 
Q 2531 2678 2651 2914 
Q 2772 3150 2772 3378 
Q 2772 3750 2511 3984 
Q 2250 4219 1831 4219 
Q 1534 4219 1204 4116 
Q 875 4013 500 3803 
L 500 4441 
Q 881 4594 1212 4672 
Q 1544 4750 1819 4750 
Q 2544 4750 2975 4387 
Q 3406 4025 3406 3419 
Q 3406 3131 3298 2873 
Q 3191 2616 2906 2266 
Q 2828 2175 2409 1742 
Q 1991 1309 1228 531 
z
" transform="scale(0.015625)"/>
       </defs>
       <use xlink:href="#DejaVuSans-2212"/>
       <use xlink:href="#DejaVuSans-32" x="83.789062"/>
       <use xlink:href="#DejaVuSans-2e" x="147.412109"/>
       <use xlink:href="#DejaVuSans-35" x="179.199219"/>
      </g>
     </g>
    </g>
    <g id="ytick_3">
     <g id="line2d_15">
      <path d="M 38.482813 182.169311 
L 484.882812 182.169311 
" clip-path="url(#p037c034e09)" style="fill: none; stroke: #b0b0b0; stroke-width: 0.8; stroke-linecap: square"/>
     </g>
     <g id="line2d_16">
      <g>
       <use xlink:href="#m07b92cc636" x="38.482813" y="182.169311" style="stroke: #000000; stroke-width: 0.8"/>
      </g>
     </g>
     <g id="text_9">
      <!-- −2.0 -->
      <g transform="translate(7.2 185.96853) scale(0.1 -0.1)">
       <use xlink:href="#DejaVuSans-2212"/>
       <use xlink:href="#DejaVuSans-32" x="83.789062"/>
       <use xlink:href="#DejaVuSans-2e" x="147.412109"/>
       <use xlink:href="#DejaVuSans-30" x="179.199219"/>
      </g>
     </g>
    </g>
    <g id="ytick_4">
     <g id="line2d_17">
      <path d="M 38.482813 147.71976 
L 484.882812 147.71976 
" clip-path="url(#p037c034e09)" style="fill: none; stroke: #b0b0b0; stroke-width: 0.8; stroke-linecap: square"/>
     </g>
     <g id="line2d_18">
      <g>
       <use xlink:href="#m07b92cc636" x="38.482813" y="147.71976" style="stroke: #000000; stroke-width: 0.8"/>
      </g>
     </g>
     <g id="text_10">
      <!-- −1.5 -->
      <g transform="translate(7.2 151.518979) scale(0.1 -0.1)">
       <use xlink:href="#DejaVuSans-2212"/>
       <use xlink:href="#DejaVuSans-31" x="83.789062"/>
       <use xlink:href="#DejaVuSans-2e" x="147.412109"/>
       <use xlink:href="#DejaVuSans-35" x="179.199219"/>
      </g>
     </g>
    </g>
    <g id="ytick_5">
     <g id="line2d_19">
      <path d="M 38.482813 113.270209 
L 484.882812 113.270209 
" clip-path="url(#p037c034e09)" style="fill: none; stroke: #b0b0b0; stroke-width: 0.8; stroke-linecap: square"/>
     </g>
     <g id="line2d_20">
      <g>
       <use xlink:href="#m07b92cc636" x="38.482813" y="113.270209" style="stroke: #000000; stroke-width: 0.8"/>
      </g>
     </g>
     <g id="text_11">
      <!-- −1.0 -->
      <g transform="translate(7.2 117.069428) scale(0.1 -0.1)">
       <use xlink:href="#DejaVuSans-2212"/>
       <use xlink:href="#DejaVuSans-31" x="83.789062"/>
       <use xlink:href="#DejaVuSans-2e" x="147.412109"/>
       <use xlink:href="#DejaVuSans-30" x="179.199219"/>
      </g>
     </g>
    </g>
    <g id="ytick_6">
     <g id="line2d_21">
      <path d="M 38.482813 78.820659 
L 484.882812 78.820659 
" clip-path="url(#p037c034e09)" style="fill: none; stroke: #b0b0b0; stroke-width: 0.8; stroke-linecap: square"/>
     </g>
     <g id="line2d_22">
      <g>
       <use xlink:href="#m07b92cc636" x="38.482813" y="78.820659" style="stroke: #000000; stroke-width: 0.8"/>
      </g>
     </g>
     <g id="text_12">
      <!-- −0.5 -->
      <g transform="translate(7.2 82.619877) scale(0.1 -0.1)">
       <use xlink:href="#DejaVuSans-2212"/>
       <use xlink:href="#DejaVuSans-30" x="83.789062"/>
       <use xlink:href="#DejaVuSans-2e" x="147.412109"/>
       <use xlink:href="#DejaVuSans-35" x="179.199219"/>
      </g>
     </g>
    </g>
    <g id="ytick_7">
     <g id="line2d_23">
      <path d="M 38.482813 44.371108 
L 484.882812 44.371108 
" clip-path="url(#p037c034e09)" style="fill: none; stroke: #b0b0b0; stroke-width: 0.8; stroke-linecap: square"/>
     </g>
     <g id="line2d_24">
      <g>
       <use xlink:href="#m07b92cc636" x="38.482813" y="44.371108" style="stroke: #000000; stroke-width: 0.8"/>
      </g>
     </g>
     <g id="text_13">
      <!-- 0.0 -->
      <g transform="translate(15.579688 48.170327) scale(0.1 -0.1)">
       <use xlink:href="#DejaVuSans-30"/>
       <use xlink:href="#DejaVuSans-2e" x="63.623047"/>
       <use xlink:href="#DejaVuSans-30" x="95.410156"/>
      </g>
     </g>
    </g>
    <g id="text_14">
     <!-- 1e15 -->
     <g transform="translate(38.482813 29.916563) scale(0.1 -0.1)">
      <use xlink:href="#DejaVuSans-31"/>
      <use xlink:href="#DejaVuSans-65" x="63.623047"/>
      <use xlink:href="#DejaVuSans-31" x="125.146484"/>
      <use xlink:href="#DejaVuSans-35" x="188.769531"/>
     </g>
    </g>
   </g>
   <g id="line2d_25">
    <path d="M 58.773722 52.480863 
L 66.577917 86.455678 
L 74.382113 118.363914 
L 82.186309 75.960767 
L 89.990505 143.168496 
L 97.794701 121.570459 
L 105.598896 122.492861 
L 113.403092 85.856174 
L 121.207288 101.432623 
L 129.011484 87.16364 
L 136.81568 79.07927 
L 144.619875 56.422214 
L 152.424071 49.900886 
L 160.228267 75.517644 
L 168.032463 87.303384 
L 175.836659 147.423732 
L 183.640854 263.797773 
L 191.44505 139.108119 
L 199.249246 65.37242 
L 207.053442 270.40169 
L 214.857638 124.873065 
L 222.661833 113.583482 
L 230.466029 187.888203 
L 238.270225 95.740767 
L 246.074421 55.492121 
L 253.878617 46.482451 
L 261.682813 44.371108 
L 269.487008 58.54008 
L 277.291204 79.668513 
L 285.0954 58.37123 
L 292.899596 47.371829 
L 300.703792 83.606898 
L 308.507987 273.462017 
L 316.312183 204.987944 
L 324.116379 160.427547 
L 331.920575 48.6164 
L 339.724771 57.479372 
L 347.528966 197.575493 
L 355.333162 48.230961 
L 363.137358 62.548452 
L 370.941554 69.745573 
L 378.74575 60.501453 
L 386.549945 52.431898 
L 394.354141 60.870179 
L 402.158337 58.076903 
L 409.962533 47.622953 
L 417.766729 49.300629 
L 425.570924 54.055173 
L 433.37512 44.579627 
L 441.179316 99.682019 
L 448.983512 60.071836 
L 456.787708 147.445918 
L 464.591903 86.038534 
" clip-path="url(#p037c034e09)" style="fill: none; stroke: #1f77b4; stroke-opacity: 0.7; stroke-width: 1.5; stroke-linecap: square"/>
   </g>
   <g id="patch_3">
    <path d="M 38.482813 284.916563 
L 38.482813 32.916563 
" style="fill: none; stroke: #000000; stroke-width: 0.8; stroke-linejoin: miter; stroke-linecap: square"/>
   </g>
   <g id="patch_4">
    <path d="M 484.882812 284.916563 
L 484.882812 32.916563 
" style="fill: none; stroke: #000000; stroke-width: 0.8; stroke-linejoin: miter; stroke-linecap: square"/>
   </g>
   <g id="patch_5">
    <path d="M 38.482813 284.916563 
L 484.882812 284.916563 
" style="fill: none; stroke: #000000; stroke-width: 0.8; stroke-linejoin: miter; stroke-linecap: square"/>
   </g>
   <g id="patch_6">
    <path d="M 38.482813 32.916563 
L 484.882812 32.916563 
" style="fill: none; stroke: #000000; stroke-width: 0.8; stroke-linejoin: miter; stroke-linecap: square"/>
   </g>
   <g id="text_15">
    <!-- Dif Radiation amplitude correlation reverse dev(0.8) amp(0.8) H-plane (Phi = 90.0) -->
    <g transform="translate(12.485938 16.318125) scale(0.12 -0.12)">
     <defs>
      <path id="DejaVuSans-44" d="M 1259 4147 
L 1259 519 
L 2022 519 
Q 2988 519 3436 956 
Q 3884 1394 3884 2338 
Q 3884 3275 3436 3711 
Q 2988 4147 2022 4147 
L 1259 4147 
z
M 628 4666 
L 1925 4666 
Q 3281 4666 3915 4102 
Q 4550 3538 4550 2338 
Q 4550 1131 3912 565 
Q 3275 0 1925 0 
L 628 0 
L 628 4666 
z
" transform="scale(0.015625)"/>
      <path id="DejaVuSans-69" d="M 603 3500 
L 1178 3500 
L 1178 0 
L 603 0 
L 603 3500 
z
M 603 4863 
L 1178 4863 
L 1178 4134 
L 603 4134 
L 603 4863 
z
" transform="scale(0.015625)"/>
      <path id="DejaVuSans-66" d="M 2375 4863 
L 2375 4384 
L 1825 4384 
Q 1516 4384 1395 4259 
Q 1275 4134 1275 3809 
L 1275 3500 
L 2222 3500 
L 2222 3053 
L 1275 3053 
L 1275 0 
L 697 0 
L 697 3053 
L 147 3053 
L 147 3500 
L 697 3500 
L 697 3744 
Q 697 4328 969 4595 
Q 1241 4863 1831 4863 
L 2375 4863 
z
" transform="scale(0.015625)"/>
      <path id="DejaVuSans-20" transform="scale(0.015625)"/>
      <path id="DejaVuSans-52" d="M 2841 2188 
Q 3044 2119 3236 1894 
Q 3428 1669 3622 1275 
L 4263 0 
L 3584 0 
L 2988 1197 
Q 2756 1666 2539 1819 
Q 2322 1972 1947 1972 
L 1259 1972 
L 1259 0 
L 628 0 
L 628 4666 
L 2053 4666 
Q 2853 4666 3247 4331 
Q 3641 3997 3641 3322 
Q 3641 2881 3436 2590 
Q 3231 2300 2841 2188 
z
M 1259 4147 
L 1259 2491 
L 2053 2491 
Q 2509 2491 2742 2702 
Q 2975 2913 2975 3322 
Q 2975 3731 2742 3939 
Q 2509 4147 2053 4147 
L 1259 4147 
z
" transform="scale(0.015625)"/>
      <path id="DejaVuSans-64" d="M 2906 2969 
L 2906 4863 
L 3481 4863 
L 3481 0 
L 2906 0 
L 2906 525 
Q 2725 213 2448 61 
Q 2172 -91 1784 -91 
Q 1150 -91 751 415 
Q 353 922 353 1747 
Q 353 2572 751 3078 
Q 1150 3584 1784 3584 
Q 2172 3584 2448 3432 
Q 2725 3281 2906 2969 
z
M 947 1747 
Q 947 1113 1208 752 
Q 1469 391 1925 391 
Q 2381 391 2643 752 
Q 2906 1113 2906 1747 
Q 2906 2381 2643 2742 
Q 2381 3103 1925 3103 
Q 1469 3103 1208 2742 
Q 947 2381 947 1747 
z
" transform="scale(0.015625)"/>
      <path id="DejaVuSans-6f" d="M 1959 3097 
Q 1497 3097 1228 2736 
Q 959 2375 959 1747 
Q 959 1119 1226 758 
Q 1494 397 1959 397 
Q 2419 397 2687 759 
Q 2956 1122 2956 1747 
Q 2956 2369 2687 2733 
Q 2419 3097 1959 3097 
z
M 1959 3584 
Q 2709 3584 3137 3096 
Q 3566 2609 3566 1747 
Q 3566 888 3137 398 
Q 2709 -91 1959 -91 
Q 1206 -91 779 398 
Q 353 888 353 1747 
Q 353 2609 779 3096 
Q 1206 3584 1959 3584 
z
" transform="scale(0.015625)"/>
      <path id="DejaVuSans-6e" d="M 3513 2113 
L 3513 0 
L 2938 0 
L 2938 2094 
Q 2938 2591 2744 2837 
Q 2550 3084 2163 3084 
Q 1697 3084 1428 2787 
Q 1159 2491 1159 1978 
L 1159 0 
L 581 0 
L 581 3500 
L 1159 3500 
L 1159 2956 
Q 1366 3272 1645 3428 
Q 1925 3584 2291 3584 
Q 2894 3584 3203 3211 
Q 3513 2838 3513 2113 
z
" transform="scale(0.015625)"/>
      <path id="DejaVuSans-6d" d="M 3328 2828 
Q 3544 3216 3844 3400 
Q 4144 3584 4550 3584 
Q 5097 3584 5394 3201 
Q 5691 2819 5691 2113 
L 5691 0 
L 5113 0 
L 5113 2094 
Q 5113 2597 4934 2840 
Q 4756 3084 4391 3084 
Q 3944 3084 3684 2787 
Q 3425 2491 3425 1978 
L 3425 0 
L 2847 0 
L 2847 2094 
Q 2847 2600 2669 2842 
Q 2491 3084 2119 3084 
Q 1678 3084 1418 2786 
Q 1159 2488 1159 1978 
L 1159 0 
L 581 0 
L 581 3500 
L 1159 3500 
L 1159 2956 
Q 1356 3278 1631 3431 
Q 1906 3584 2284 3584 
Q 2666 3584 2933 3390 
Q 3200 3197 3328 2828 
z
" transform="scale(0.015625)"/>
      <path id="DejaVuSans-70" d="M 1159 525 
L 1159 -1331 
L 581 -1331 
L 581 3500 
L 1159 3500 
L 1159 2969 
Q 1341 3281 1617 3432 
Q 1894 3584 2278 3584 
Q 2916 3584 3314 3078 
Q 3713 2572 3713 1747 
Q 3713 922 3314 415 
Q 2916 -91 2278 -91 
Q 1894 -91 1617 61 
Q 1341 213 1159 525 
z
M 3116 1747 
Q 3116 2381 2855 2742 
Q 2594 3103 2138 3103 
Q 1681 3103 1420 2742 
Q 1159 2381 1159 1747 
Q 1159 1113 1420 752 
Q 1681 391 2138 391 
Q 2594 391 2855 752 
Q 3116 1113 3116 1747 
z
" transform="scale(0.015625)"/>
      <path id="DejaVuSans-6c" d="M 603 4863 
L 1178 4863 
L 1178 0 
L 603 0 
L 603 4863 
z
" transform="scale(0.015625)"/>
      <path id="DejaVuSans-75" d="M 544 1381 
L 544 3500 
L 1119 3500 
L 1119 1403 
Q 1119 906 1312 657 
Q 1506 409 1894 409 
Q 2359 409 2629 706 
Q 2900 1003 2900 1516 
L 2900 3500 
L 3475 3500 
L 3475 0 
L 2900 0 
L 2900 538 
Q 2691 219 2414 64 
Q 2138 -91 1772 -91 
Q 1169 -91 856 284 
Q 544 659 544 1381 
z
M 1991 3584 
L 1991 3584 
z
" transform="scale(0.015625)"/>
      <path id="DejaVuSans-63" d="M 3122 3366 
L 3122 2828 
Q 2878 2963 2633 3030 
Q 2388 3097 2138 3097 
Q 1578 3097 1268 2742 
Q 959 2388 959 1747 
Q 959 1106 1268 751 
Q 1578 397 2138 397 
Q 2388 397 2633 464 
Q 2878 531 3122 666 
L 3122 134 
Q 2881 22 2623 -34 
Q 2366 -91 2075 -91 
Q 1284 -91 818 406 
Q 353 903 353 1747 
Q 353 2603 823 3093 
Q 1294 3584 2113 3584 
Q 2378 3584 2631 3529 
Q 2884 3475 3122 3366 
z
" transform="scale(0.015625)"/>
      <path id="DejaVuSans-72" d="M 2631 2963 
Q 2534 3019 2420 3045 
Q 2306 3072 2169 3072 
Q 1681 3072 1420 2755 
Q 1159 2438 1159 1844 
L 1159 0 
L 581 0 
L 581 3500 
L 1159 3500 
L 1159 2956 
Q 1341 3275 1631 3429 
Q 1922 3584 2338 3584 
Q 2397 3584 2469 3576 
Q 2541 3569 2628 3553 
L 2631 2963 
z
" transform="scale(0.015625)"/>
      <path id="DejaVuSans-76" d="M 191 3500 
L 800 3500 
L 1894 563 
L 2988 3500 
L 3597 3500 
L 2284 0 
L 1503 0 
L 191 3500 
z
" transform="scale(0.015625)"/>
      <path id="DejaVuSans-73" d="M 2834 3397 
L 2834 2853 
Q 2591 2978 2328 3040 
Q 2066 3103 1784 3103 
Q 1356 3103 1142 2972 
Q 928 2841 928 2578 
Q 928 2378 1081 2264 
Q 1234 2150 1697 2047 
L 1894 2003 
Q 2506 1872 2764 1633 
Q 3022 1394 3022 966 
Q 3022 478 2636 193 
Q 2250 -91 1575 -91 
Q 1294 -91 989 -36 
Q 684 19 347 128 
L 347 722 
Q 666 556 975 473 
Q 1284 391 1588 391 
Q 1994 391 2212 530 
Q 2431 669 2431 922 
Q 2431 1156 2273 1281 
Q 2116 1406 1581 1522 
L 1381 1569 
Q 847 1681 609 1914 
Q 372 2147 372 2553 
Q 372 3047 722 3315 
Q 1072 3584 1716 3584 
Q 2034 3584 2315 3537 
Q 2597 3491 2834 3397 
z
" transform="scale(0.015625)"/>
      <path id="DejaVuSans-28" d="M 1984 4856 
Q 1566 4138 1362 3434 
Q 1159 2731 1159 2009 
Q 1159 1288 1364 580 
Q 1569 -128 1984 -844 
L 1484 -844 
Q 1016 -109 783 600 
Q 550 1309 550 2009 
Q 550 2706 781 3412 
Q 1013 4119 1484 4856 
L 1984 4856 
z
" transform="scale(0.015625)"/>
      <path id="DejaVuSans-38" d="M 2034 2216 
Q 1584 2216 1326 1975 
Q 1069 1734 1069 1313 
Q 1069 891 1326 650 
Q 1584 409 2034 409 
Q 2484 409 2743 651 
Q 3003 894 3003 1313 
Q 3003 1734 2745 1975 
Q 2488 2216 2034 2216 
z
M 1403 2484 
Q 997 2584 770 2862 
Q 544 3141 544 3541 
Q 544 4100 942 4425 
Q 1341 4750 2034 4750 
Q 2731 4750 3128 4425 
Q 3525 4100 3525 3541 
Q 3525 3141 3298 2862 
Q 3072 2584 2669 2484 
Q 3125 2378 3379 2068 
Q 3634 1759 3634 1313 
Q 3634 634 3220 271 
Q 2806 -91 2034 -91 
Q 1263 -91 848 271 
Q 434 634 434 1313 
Q 434 1759 690 2068 
Q 947 2378 1403 2484 
z
M 1172 3481 
Q 1172 3119 1398 2916 
Q 1625 2713 2034 2713 
Q 2441 2713 2670 2916 
Q 2900 3119 2900 3481 
Q 2900 3844 2670 4047 
Q 2441 4250 2034 4250 
Q 1625 4250 1398 4047 
Q 1172 3844 1172 3481 
z
" transform="scale(0.015625)"/>
      <path id="DejaVuSans-29" d="M 513 4856 
L 1013 4856 
Q 1481 4119 1714 3412 
Q 1947 2706 1947 2009 
Q 1947 1309 1714 600 
Q 1481 -109 1013 -844 
L 513 -844 
Q 928 -128 1133 580 
Q 1338 1288 1338 2009 
Q 1338 2731 1133 3434 
Q 928 4138 513 4856 
z
" transform="scale(0.015625)"/>
      <path id="DejaVuSans-48" d="M 628 4666 
L 1259 4666 
L 1259 2753 
L 3553 2753 
L 3553 4666 
L 4184 4666 
L 4184 0 
L 3553 0 
L 3553 2222 
L 1259 2222 
L 1259 0 
L 628 0 
L 628 4666 
z
" transform="scale(0.015625)"/>
      <path id="DejaVuSans-2d" d="M 313 2009 
L 1997 2009 
L 1997 1497 
L 313 1497 
L 313 2009 
z
" transform="scale(0.015625)"/>
      <path id="DejaVuSans-50" d="M 1259 4147 
L 1259 2394 
L 2053 2394 
Q 2494 2394 2734 2622 
Q 2975 2850 2975 3272 
Q 2975 3691 2734 3919 
Q 2494 4147 2053 4147 
L 1259 4147 
z
M 628 4666 
L 2053 4666 
Q 2838 4666 3239 4311 
Q 3641 3956 3641 3272 
Q 3641 2581 3239 2228 
Q 2838 1875 2053 1875 
L 1259 1875 
L 1259 0 
L 628 0 
L 628 4666 
z
" transform="scale(0.015625)"/>
      <path id="DejaVuSans-3d" d="M 678 2906 
L 4684 2906 
L 4684 2381 
L 678 2381 
L 678 2906 
z
M 678 1631 
L 4684 1631 
L 4684 1100 
L 678 1100 
L 678 1631 
z
" transform="scale(0.015625)"/>
      <path id="DejaVuSans-39" d="M 703 97 
L 703 672 
Q 941 559 1184 500 
Q 1428 441 1663 441 
Q 2288 441 2617 861 
Q 2947 1281 2994 2138 
Q 2813 1869 2534 1725 
Q 2256 1581 1919 1581 
Q 1219 1581 811 2004 
Q 403 2428 403 3163 
Q 403 3881 828 4315 
Q 1253 4750 1959 4750 
Q 2769 4750 3195 4129 
Q 3622 3509 3622 2328 
Q 3622 1225 3098 567 
Q 2575 -91 1691 -91 
Q 1453 -91 1209 -44 
Q 966 3 703 97 
z
M 1959 2075 
Q 2384 2075 2632 2365 
Q 2881 2656 2881 3163 
Q 2881 3666 2632 3958 
Q 2384 4250 1959 4250 
Q 1534 4250 1286 3958 
Q 1038 3666 1038 3163 
Q 1038 2656 1286 2365 
Q 1534 2075 1959 2075 
z
" transform="scale(0.015625)"/>
     </defs>
     <use xlink:href="#DejaVuSans-44"/>
     <use xlink:href="#DejaVuSans-69" x="77.001953"/>
     <use xlink:href="#DejaVuSans-66" x="104.785156"/>
     <use xlink:href="#DejaVuSans-20" x="139.990234"/>
     <use xlink:href="#DejaVuSans-52" x="171.777344"/>
     <use xlink:href="#DejaVuSans-61" x="239.009766"/>
     <use xlink:href="#DejaVuSans-64" x="300.289062"/>
     <use xlink:href="#DejaVuSans-69" x="363.765625"/>
     <use xlink:href="#DejaVuSans-61" x="391.548828"/>
     <use xlink:href="#DejaVuSans-74" x="452.828125"/>
     <use xlink:href="#DejaVuSans-69" x="492.037109"/>
     <use xlink:href="#DejaVuSans-6f" x="519.820312"/>
     <use xlink:href="#DejaVuSans-6e" x="581.001953"/>
     <use xlink:href="#DejaVuSans-20" x="644.380859"/>
     <use xlink:href="#DejaVuSans-61" x="676.167969"/>
     <use xlink:href="#DejaVuSans-6d" x="737.447266"/>
     <use xlink:href="#DejaVuSans-70" x="834.859375"/>
     <use xlink:href="#DejaVuSans-6c" x="898.335938"/>
     <use xlink:href="#DejaVuSans-69" x="926.119141"/>
     <use xlink:href="#DejaVuSans-74" x="953.902344"/>
     <use xlink:href="#DejaVuSans-75" x="993.111328"/>
     <use xlink:href="#DejaVuSans-64" x="1056.490234"/>
     <use xlink:href="#DejaVuSans-65" x="1119.966797"/>
     <use xlink:href="#DejaVuSans-20" x="1181.490234"/>
     <use xlink:href="#DejaVuSans-63" x="1213.277344"/>
     <use xlink:href="#DejaVuSans-6f" x="1268.257812"/>
     <use xlink:href="#DejaVuSans-72" x="1329.439453"/>
     <use xlink:href="#DejaVuSans-72" x="1368.802734"/>
     <use xlink:href="#DejaVuSans-65" x="1407.666016"/>
     <use xlink:href="#DejaVuSans-6c" x="1469.189453"/>
     <use xlink:href="#DejaVuSans-61" x="1496.972656"/>
     <use xlink:href="#DejaVuSans-74" x="1558.251953"/>
     <use xlink:href="#DejaVuSans-69" x="1597.460938"/>
     <use xlink:href="#DejaVuSans-6f" x="1625.244141"/>
     <use xlink:href="#DejaVuSans-6e" x="1686.425781"/>
     <use xlink:href="#DejaVuSans-20" x="1749.804688"/>
     <use xlink:href="#DejaVuSans-72" x="1781.591797"/>
     <use xlink:href="#DejaVuSans-65" x="1820.455078"/>
     <use xlink:href="#DejaVuSans-76" x="1881.978516"/>
     <use xlink:href="#DejaVuSans-65" x="1941.158203"/>
     <use xlink:href="#DejaVuSans-72" x="2002.681641"/>
     <use xlink:href="#DejaVuSans-73" x="2043.794922"/>
     <use xlink:href="#DejaVuSans-65" x="2095.894531"/>
     <use xlink:href="#DejaVuSans-20" x="2157.417969"/>
     <use xlink:href="#DejaVuSans-64" x="2189.205078"/>
     <use xlink:href="#DejaVuSans-65" x="2252.681641"/>
     <use xlink:href="#DejaVuSans-76" x="2314.205078"/>
     <use xlink:href="#DejaVuSans-28" x="2373.384766"/>
     <use xlink:href="#DejaVuSans-30" x="2412.398438"/>
     <use xlink:href="#DejaVuSans-2e" x="2476.021484"/>
     <use xlink:href="#DejaVuSans-38" x="2507.808594"/>
     <use xlink:href="#DejaVuSans-29" x="2571.431641"/>
     <use xlink:href="#DejaVuSans-20" x="2610.445312"/>
     <use xlink:href="#DejaVuSans-61" x="2642.232422"/>
     <use xlink:href="#DejaVuSans-6d" x="2703.511719"/>
     <use xlink:href="#DejaVuSans-70" x="2800.923828"/>
     <use xlink:href="#DejaVuSans-28" x="2864.400391"/>
     <use xlink:href="#DejaVuSans-30" x="2903.414062"/>
     <use xlink:href="#DejaVuSans-2e" x="2967.037109"/>
     <use xlink:href="#DejaVuSans-38" x="2998.824219"/>
     <use xlink:href="#DejaVuSans-29" x="3062.447266"/>
     <use xlink:href="#DejaVuSans-20" x="3101.460938"/>
     <use xlink:href="#DejaVuSans-48" x="3133.248047"/>
     <use xlink:href="#DejaVuSans-2d" x="3208.443359"/>
     <use xlink:href="#DejaVuSans-70" x="3244.527344"/>
     <use xlink:href="#DejaVuSans-6c" x="3308.003906"/>
     <use xlink:href="#DejaVuSans-61" x="3335.787109"/>
     <use xlink:href="#DejaVuSans-6e" x="3397.066406"/>
     <use xlink:href="#DejaVuSans-65" x="3460.445312"/>
     <use xlink:href="#DejaVuSans-20" x="3521.96875"/>
     <use xlink:href="#DejaVuSans-28" x="3553.755859"/>
     <use xlink:href="#DejaVuSans-50" x="3592.769531"/>
     <use xlink:href="#DejaVuSans-68" x="3653.072266"/>
     <use xlink:href="#DejaVuSans-69" x="3716.451172"/>
     <use xlink:href="#DejaVuSans-20" x="3744.234375"/>
     <use xlink:href="#DejaVuSans-3d" x="3776.021484"/>
     <use xlink:href="#DejaVuSans-20" x="3859.810547"/>
     <use xlink:href="#DejaVuSans-39" x="3891.597656"/>
     <use xlink:href="#DejaVuSans-30" x="3955.220703"/>
     <use xlink:href="#DejaVuSans-2e" x="4018.84375"/>
     <use xlink:href="#DejaVuSans-30" x="4050.630859"/>
     <use xlink:href="#DejaVuSans-29" x="4114.253906"/>
    </g>
   </g>
   <g id="legend_1">
    <g id="patch_7">
     <path d="M 45.482813 279.916563 
L 117.003125 279.916563 
Q 119.003125 279.916563 119.003125 277.916563 
L 119.003125 264.238438 
Q 119.003125 262.238438 117.003125 262.238438 
L 45.482813 262.238438 
Q 43.482813 262.238438 43.482813 264.238438 
L 43.482813 277.916563 
Q 43.482813 279.916563 45.482813 279.916563 
z
" style="fill: #ffffff; opacity: 0.8; stroke: #cccccc; stroke-linejoin: miter"/>
    </g>
    <g id="line2d_26">
     <path d="M 47.482813 270.336875 
L 57.482813 270.336875 
L 67.482813 270.336875 
" style="fill: none; stroke: #1f77b4; stroke-opacity: 0.7; stroke-width: 1.5; stroke-linecap: square"/>
    </g>
    <g id="text_16">
     <!-- Dif plot  -->
     <g transform="translate(75.482813 273.836875) scale(0.1 -0.1)">
      <use xlink:href="#DejaVuSans-44"/>
      <use xlink:href="#DejaVuSans-69" x="77.001953"/>
      <use xlink:href="#DejaVuSans-66" x="104.785156"/>
      <use xlink:href="#DejaVuSans-20" x="139.990234"/>
      <use xlink:href="#DejaVuSans-70" x="171.777344"/>
      <use xlink:href="#DejaVuSans-6c" x="235.253906"/>
      <use xlink:href="#DejaVuSans-6f" x="263.037109"/>
      <use xlink:href="#DejaVuSans-74" x="324.21875"/>
      <use xlink:href="#DejaVuSans-20" x="363.427734"/>
     </g>
    </g>
   </g>
  </g>
  <g id="axes_2">
   <g id="patch_8">
    <path d="M 38.482813 587.316563 
L 484.882812 587.316563 
L 484.882812 335.316563 
L 38.482813 335.316563 
z
" style="fill: #ffffff"/>
   </g>
   <g id="matplotlib.axis_3">
    <g id="xtick_6">
     <g id="line2d_27">
      <path d="M 105.598896 587.316563 
L 105.598896 335.316563 
" clip-path="url(#pb65c0dd556)" style="fill: none; stroke: #b0b0b0; stroke-width: 0.8; stroke-linecap: square"/>
     </g>
     <g id="line2d_28">
      <g>
       <use xlink:href="#mc1011c5efa" x="105.598896" y="587.316563" style="stroke: #000000; stroke-width: 0.8"/>
      </g>
     </g>
     <g id="text_17">
      <!-- −100 -->
      <g transform="translate(91.865303 601.915) scale(0.1 -0.1)">
       <use xlink:href="#DejaVuSans-2212"/>
       <use xlink:href="#DejaVuSans-31" x="83.789062"/>
       <use xlink:href="#DejaVuSans-30" x="147.412109"/>
       <use xlink:href="#DejaVuSans-30" x="211.035156"/>
      </g>
     </g>
    </g>
    <g id="xtick_7">
     <g id="line2d_29">
      <path d="M 183.640854 587.316563 
L 183.640854 335.316563 
" clip-path="url(#pb65c0dd556)" style="fill: none; stroke: #b0b0b0; stroke-width: 0.8; stroke-linecap: square"/>
     </g>
     <g id="line2d_30">
      <g>
       <use xlink:href="#mc1011c5efa" x="183.640854" y="587.316563" style="stroke: #000000; stroke-width: 0.8"/>
      </g>
     </g>
     <g id="text_18">
      <!-- −50 -->
      <g transform="translate(173.088511 601.915) scale(0.1 -0.1)">
       <use xlink:href="#DejaVuSans-2212"/>
       <use xlink:href="#DejaVuSans-35" x="83.789062"/>
       <use xlink:href="#DejaVuSans-30" x="147.412109"/>
      </g>
     </g>
    </g>
    <g id="xtick_8">
     <g id="line2d_31">
      <path d="M 261.682813 587.316563 
L 261.682813 335.316563 
" clip-path="url(#pb65c0dd556)" style="fill: none; stroke: #b0b0b0; stroke-width: 0.8; stroke-linecap: square"/>
     </g>
     <g id="line2d_32">
      <g>
       <use xlink:href="#mc1011c5efa" x="261.682813" y="587.316563" style="stroke: #000000; stroke-width: 0.8"/>
      </g>
     </g>
     <g id="text_19">
      <!-- 0 -->
      <g transform="translate(258.501563 601.915) scale(0.1 -0.1)">
       <use xlink:href="#DejaVuSans-30"/>
      </g>
     </g>
    </g>
    <g id="xtick_9">
     <g id="line2d_33">
      <path d="M 339.724771 587.316563 
L 339.724771 335.316563 
" clip-path="url(#pb65c0dd556)" style="fill: none; stroke: #b0b0b0; stroke-width: 0.8; stroke-linecap: square"/>
     </g>
     <g id="line2d_34">
      <g>
       <use xlink:href="#mc1011c5efa" x="339.724771" y="587.316563" style="stroke: #000000; stroke-width: 0.8"/>
      </g>
     </g>
     <g id="text_20">
      <!-- 50 -->
      <g transform="translate(333.362271 601.915) scale(0.1 -0.1)">
       <use xlink:href="#DejaVuSans-35"/>
       <use xlink:href="#DejaVuSans-30" x="63.623047"/>
      </g>
     </g>
    </g>
    <g id="xtick_10">
     <g id="line2d_35">
      <path d="M 417.766729 587.316563 
L 417.766729 335.316563 
" clip-path="url(#pb65c0dd556)" style="fill: none; stroke: #b0b0b0; stroke-width: 0.8; stroke-linecap: square"/>
     </g>
     <g id="line2d_36">
      <g>
       <use xlink:href="#mc1011c5efa" x="417.766729" y="587.316563" style="stroke: #000000; stroke-width: 0.8"/>
      </g>
     </g>
     <g id="text_21">
      <!-- 100 -->
      <g transform="translate(408.222979 601.915) scale(0.1 -0.1)">
       <use xlink:href="#DejaVuSans-31"/>
       <use xlink:href="#DejaVuSans-30" x="63.623047"/>
       <use xlink:href="#DejaVuSans-30" x="127.246094"/>
      </g>
     </g>
    </g>
    <g id="text_22">
     <!-- Theta -->
     <g transform="translate(247.359375 615.593125) scale(0.1 -0.1)">
      <use xlink:href="#DejaVuSans-54"/>
      <use xlink:href="#DejaVuSans-68" x="61.083984"/>
      <use xlink:href="#DejaVuSans-65" x="124.462891"/>
      <use xlink:href="#DejaVuSans-74" x="185.986328"/>
      <use xlink:href="#DejaVuSans-61" x="225.195312"/>
     </g>
    </g>
   </g>
   <g id="matplotlib.axis_4">
    <g id="ytick_8">
     <g id="line2d_37">
      <path d="M 38.482813 586.906245 
L 484.882812 586.906245 
" clip-path="url(#pb65c0dd556)" style="fill: none; stroke: #b0b0b0; stroke-width: 0.8; stroke-linecap: square"/>
     </g>
     <g id="line2d_38">
      <g>
       <use xlink:href="#m07b92cc636" x="38.482813" y="586.906245" style="stroke: #000000; stroke-width: 0.8"/>
      </g>
     </g>
     <g id="text_23">
      <!-- −2.5 -->
      <g transform="translate(7.2 590.705464) scale(0.1 -0.1)">
       <use xlink:href="#DejaVuSans-2212"/>
       <use xlink:href="#DejaVuSans-32" x="83.789062"/>
       <use xlink:href="#DejaVuSans-2e" x="147.412109"/>
       <use xlink:href="#DejaVuSans-35" x="179.199219"/>
      </g>
     </g>
    </g>
    <g id="ytick_9">
     <g id="line2d_39">
      <path d="M 38.482813 538.879218 
L 484.882812 538.879218 
" clip-path="url(#pb65c0dd556)" style="fill: none; stroke: #b0b0b0; stroke-width: 0.8; stroke-linecap: square"/>
     </g>
     <g id="line2d_40">
      <g>
       <use xlink:href="#m07b92cc636" x="38.482813" y="538.879218" style="stroke: #000000; stroke-width: 0.8"/>
      </g>
     </g>
     <g id="text_24">
      <!-- −2.0 -->
      <g transform="translate(7.2 542.678436) scale(0.1 -0.1)">
       <use xlink:href="#DejaVuSans-2212"/>
       <use xlink:href="#DejaVuSans-32" x="83.789062"/>
       <use xlink:href="#DejaVuSans-2e" x="147.412109"/>
       <use xlink:href="#DejaVuSans-30" x="179.199219"/>
      </g>
     </g>
    </g>
    <g id="ytick_10">
     <g id="line2d_41">
      <path d="M 38.482813 490.85219 
L 484.882812 490.85219 
" clip-path="url(#pb65c0dd556)" style="fill: none; stroke: #b0b0b0; stroke-width: 0.8; stroke-linecap: square"/>
     </g>
     <g id="line2d_42">
      <g>
       <use xlink:href="#m07b92cc636" x="38.482813" y="490.85219" style="stroke: #000000; stroke-width: 0.8"/>
      </g>
     </g>
     <g id="text_25">
      <!-- −1.5 -->
      <g transform="translate(7.2 494.651409) scale(0.1 -0.1)">
       <use xlink:href="#DejaVuSans-2212"/>
       <use xlink:href="#DejaVuSans-31" x="83.789062"/>
       <use xlink:href="#DejaVuSans-2e" x="147.412109"/>
       <use xlink:href="#DejaVuSans-35" x="179.199219"/>
      </g>
     </g>
    </g>
    <g id="ytick_11">
     <g id="line2d_43">
      <path d="M 38.482813 442.825163 
L 484.882812 442.825163 
" clip-path="url(#pb65c0dd556)" style="fill: none; stroke: #b0b0b0; stroke-width: 0.8; stroke-linecap: square"/>
     </g>
     <g id="line2d_44">
      <g>
       <use xlink:href="#m07b92cc636" x="38.482813" y="442.825163" style="stroke: #000000; stroke-width: 0.8"/>
      </g>
     </g>
     <g id="text_26">
      <!-- −1.0 -->
      <g transform="translate(7.2 446.624382) scale(0.1 -0.1)">
       <use xlink:href="#DejaVuSans-2212"/>
       <use xlink:href="#DejaVuSans-31" x="83.789062"/>
       <use xlink:href="#DejaVuSans-2e" x="147.412109"/>
       <use xlink:href="#DejaVuSans-30" x="179.199219"/>
      </g>
     </g>
    </g>
    <g id="ytick_12">
     <g id="line2d_45">
      <path d="M 38.482813 394.798135 
L 484.882812 394.798135 
" clip-path="url(#pb65c0dd556)" style="fill: none; stroke: #b0b0b0; stroke-width: 0.8; stroke-linecap: square"/>
     </g>
     <g id="line2d_46">
      <g>
       <use xlink:href="#m07b92cc636" x="38.482813" y="394.798135" style="stroke: #000000; stroke-width: 0.8"/>
      </g>
     </g>
     <g id="text_27">
      <!-- −0.5 -->
      <g transform="translate(7.2 398.597354) scale(0.1 -0.1)">
       <use xlink:href="#DejaVuSans-2212"/>
       <use xlink:href="#DejaVuSans-30" x="83.789062"/>
       <use xlink:href="#DejaVuSans-2e" x="147.412109"/>
       <use xlink:href="#DejaVuSans-35" x="179.199219"/>
      </g>
     </g>
    </g>
    <g id="ytick_13">
     <g id="line2d_47">
      <path d="M 38.482813 346.771108 
L 484.882812 346.771108 
" clip-path="url(#pb65c0dd556)" style="fill: none; stroke: #b0b0b0; stroke-width: 0.8; stroke-linecap: square"/>
     </g>
     <g id="line2d_48">
      <g>
       <use xlink:href="#m07b92cc636" x="38.482813" y="346.771108" style="stroke: #000000; stroke-width: 0.8"/>
      </g>
     </g>
     <g id="text_28">
      <!-- 0.0 -->
      <g transform="translate(15.579688 350.570327) scale(0.1 -0.1)">
       <use xlink:href="#DejaVuSans-30"/>
       <use xlink:href="#DejaVuSans-2e" x="63.623047"/>
       <use xlink:href="#DejaVuSans-30" x="95.410156"/>
      </g>
     </g>
    </g>
    <g id="text_29">
     <!-- 1e15 -->
     <g transform="translate(38.482813 332.316563) scale(0.1 -0.1)">
      <use xlink:href="#DejaVuSans-31"/>
      <use xlink:href="#DejaVuSans-65" x="63.623047"/>
      <use xlink:href="#DejaVuSans-31" x="125.146484"/>
      <use xlink:href="#DejaVuSans-35" x="188.769531"/>
     </g>
    </g>
   </g>
   <g id="line2d_49">
    <path d="M 58.773722 398.116756 
L 66.577917 382.743906 
L 74.382113 401.141365 
L 82.186309 359.06894 
L 89.990505 354.847669 
L 97.794701 364.230394 
L 105.598896 442.253278 
L 113.403092 416.758108 
L 121.207288 378.043897 
L 129.011484 369.414766 
L 136.81568 407.89287 
L 144.619875 348.248203 
L 152.424071 394.97451 
L 160.228267 395.484437 
L 168.032463 385.405977 
L 175.836659 351.916385 
L 183.640854 524.173581 
L 191.44505 465.407629 
L 199.249246 360.2098 
L 207.053442 364.914937 
L 214.857638 373.834383 
L 222.661833 385.369503 
L 230.466029 575.862017 
L 238.270225 364.88376 
L 246.074421 355.323776 
L 253.878617 360.574689 
L 261.682813 346.771108 
L 269.487008 366.683949 
L 277.291204 363.238501 
L 285.0954 346.79239 
L 292.899596 380.340586 
L 300.703792 360.621358 
L 308.507987 373.942168 
L 316.312183 361.006812 
L 324.116379 362.90241 
L 331.920575 485.999759 
L 339.724771 522.530631 
L 347.528966 374.143419 
L 355.333162 388.196363 
L 363.137358 364.10301 
L 370.941554 350.76281 
L 378.74575 379.816346 
L 386.549945 367.255239 
L 394.354141 371.719199 
L 402.158337 411.511064 
L 409.962533 428.78323 
L 417.766729 384.711656 
L 425.570924 409.34746 
L 433.37512 363.207975 
L 441.179316 351.16483 
L 448.983512 413.919768 
L 456.787708 429.618187 
L 464.591903 441.217739 
" clip-path="url(#pb65c0dd556)" style="fill: none; stroke: #1f77b4; stroke-opacity: 0.7; stroke-width: 1.5; stroke-linecap: square"/>
   </g>
   <g id="patch_9">
    <path d="M 38.482813 587.316563 
L 38.482813 335.316563 
" style="fill: none; stroke: #000000; stroke-width: 0.8; stroke-linejoin: miter; stroke-linecap: square"/>
   </g>
   <g id="patch_10">
    <path d="M 484.882812 587.316563 
L 484.882812 335.316563 
" style="fill: none; stroke: #000000; stroke-width: 0.8; stroke-linejoin: miter; stroke-linecap: square"/>
   </g>
   <g id="patch_11">
    <path d="M 38.482813 587.316563 
L 484.882812 587.316563 
" style="fill: none; stroke: #000000; stroke-width: 0.8; stroke-linejoin: miter; stroke-linecap: square"/>
   </g>
   <g id="patch_12">
    <path d="M 38.482813 335.316563 
L 484.882812 335.316563 
" style="fill: none; stroke: #000000; stroke-width: 0.8; stroke-linejoin: miter; stroke-linecap: square"/>
   </g>
   <g id="text_30">
    <!-- Dif Radiation amplitude correlation reverse dev(0.8) amp(0.8) E-plane (Phi = 0.0) -->
    <g transform="translate(17.024375 318.718125) scale(0.12 -0.12)">
     <defs>
      <path id="DejaVuSans-45" d="M 628 4666 
L 3578 4666 
L 3578 4134 
L 1259 4134 
L 1259 2753 
L 3481 2753 
L 3481 2222 
L 1259 2222 
L 1259 531 
L 3634 531 
L 3634 0 
L 628 0 
L 628 4666 
z
" transform="scale(0.015625)"/>
     </defs>
     <use xlink:href="#DejaVuSans-44"/>
     <use xlink:href="#DejaVuSans-69" x="77.001953"/>
     <use xlink:href="#DejaVuSans-66" x="104.785156"/>
     <use xlink:href="#DejaVuSans-20" x="139.990234"/>
     <use xlink:href="#DejaVuSans-52" x="171.777344"/>
     <use xlink:href="#DejaVuSans-61" x="239.009766"/>
     <use xlink:href="#DejaVuSans-64" x="300.289062"/>
     <use xlink:href="#DejaVuSans-69" x="363.765625"/>
     <use xlink:href="#DejaVuSans-61" x="391.548828"/>
     <use xlink:href="#DejaVuSans-74" x="452.828125"/>
     <use xlink:href="#DejaVuSans-69" x="492.037109"/>
     <use xlink:href="#DejaVuSans-6f" x="519.820312"/>
     <use xlink:href="#DejaVuSans-6e" x="581.001953"/>
     <use xlink:href="#DejaVuSans-20" x="644.380859"/>
     <use xlink:href="#DejaVuSans-61" x="676.167969"/>
     <use xlink:href="#DejaVuSans-6d" x="737.447266"/>
     <use xlink:href="#DejaVuSans-70" x="834.859375"/>
     <use xlink:href="#DejaVuSans-6c" x="898.335938"/>
     <use xlink:href="#DejaVuSans-69" x="926.119141"/>
     <use xlink:href="#DejaVuSans-74" x="953.902344"/>
     <use xlink:href="#DejaVuSans-75" x="993.111328"/>
     <use xlink:href="#DejaVuSans-64" x="1056.490234"/>
     <use xlink:href="#DejaVuSans-65" x="1119.966797"/>
     <use xlink:href="#DejaVuSans-20" x="1181.490234"/>
     <use xlink:href="#DejaVuSans-63" x="1213.277344"/>
     <use xlink:href="#DejaVuSans-6f" x="1268.257812"/>
     <use xlink:href="#DejaVuSans-72" x="1329.439453"/>
     <use xlink:href="#DejaVuSans-72" x="1368.802734"/>
     <use xlink:href="#DejaVuSans-65" x="1407.666016"/>
     <use xlink:href="#DejaVuSans-6c" x="1469.189453"/>
     <use xlink:href="#DejaVuSans-61" x="1496.972656"/>
     <use xlink:href="#DejaVuSans-74" x="1558.251953"/>
     <use xlink:href="#DejaVuSans-69" x="1597.460938"/>
     <use xlink:href="#DejaVuSans-6f" x="1625.244141"/>
     <use xlink:href="#DejaVuSans-6e" x="1686.425781"/>
     <use xlink:href="#DejaVuSans-20" x="1749.804688"/>
     <use xlink:href="#DejaVuSans-72" x="1781.591797"/>
     <use xlink:href="#DejaVuSans-65" x="1820.455078"/>
     <use xlink:href="#DejaVuSans-76" x="1881.978516"/>
     <use xlink:href="#DejaVuSans-65" x="1941.158203"/>
     <use xlink:href="#DejaVuSans-72" x="2002.681641"/>
     <use xlink:href="#DejaVuSans-73" x="2043.794922"/>
     <use xlink:href="#DejaVuSans-65" x="2095.894531"/>
     <use xlink:href="#DejaVuSans-20" x="2157.417969"/>
     <use xlink:href="#DejaVuSans-64" x="2189.205078"/>
     <use xlink:href="#DejaVuSans-65" x="2252.681641"/>
     <use xlink:href="#DejaVuSans-76" x="2314.205078"/>
     <use xlink:href="#DejaVuSans-28" x="2373.384766"/>
     <use xlink:href="#DejaVuSans-30" x="2412.398438"/>
     <use xlink:href="#DejaVuSans-2e" x="2476.021484"/>
     <use xlink:href="#DejaVuSans-38" x="2507.808594"/>
     <use xlink:href="#DejaVuSans-29" x="2571.431641"/>
     <use xlink:href="#DejaVuSans-20" x="2610.445312"/>
     <use xlink:href="#DejaVuSans-61" x="2642.232422"/>
     <use xlink:href="#DejaVuSans-6d" x="2703.511719"/>
     <use xlink:href="#DejaVuSans-70" x="2800.923828"/>
     <use xlink:href="#DejaVuSans-28" x="2864.400391"/>
     <use xlink:href="#DejaVuSans-30" x="2903.414062"/>
     <use xlink:href="#DejaVuSans-2e" x="2967.037109"/>
     <use xlink:href="#DejaVuSans-38" x="2998.824219"/>
     <use xlink:href="#DejaVuSans-29" x="3062.447266"/>
     <use xlink:href="#DejaVuSans-20" x="3101.460938"/>
     <use xlink:href="#DejaVuSans-45" x="3133.248047"/>
     <use xlink:href="#DejaVuSans-2d" x="3196.431641"/>
     <use xlink:href="#DejaVuSans-70" x="3232.515625"/>
     <use xlink:href="#DejaVuSans-6c" x="3295.992188"/>
     <use xlink:href="#DejaVuSans-61" x="3323.775391"/>
     <use xlink:href="#DejaVuSans-6e" x="3385.054688"/>
     <use xlink:href="#DejaVuSans-65" x="3448.433594"/>
     <use xlink:href="#DejaVuSans-20" x="3509.957031"/>
     <use xlink:href="#DejaVuSans-28" x="3541.744141"/>
     <use xlink:href="#DejaVuSans-50" x="3580.757812"/>
     <use xlink:href="#DejaVuSans-68" x="3641.060547"/>
     <use xlink:href="#DejaVuSans-69" x="3704.439453"/>
     <use xlink:href="#DejaVuSans-20" x="3732.222656"/>
     <use xlink:href="#DejaVuSans-3d" x="3764.009766"/>
     <use xlink:href="#DejaVuSans-20" x="3847.798828"/>
     <use xlink:href="#DejaVuSans-30" x="3879.585938"/>
     <use xlink:href="#DejaVuSans-2e" x="3943.208984"/>
     <use xlink:href="#DejaVuSans-30" x="3974.996094"/>
     <use xlink:href="#DejaVuSans-29" x="4038.619141"/>
    </g>
   </g>
   <g id="legend_2">
    <g id="patch_13">
     <path d="M 45.482813 582.316563 
L 113.825 582.316563 
Q 115.825 582.316563 115.825 580.316563 
L 115.825 566.638438 
Q 115.825 564.638438 113.825 564.638438 
L 45.482813 564.638438 
Q 43.482813 564.638438 43.482813 566.638438 
L 43.482813 580.316563 
Q 43.482813 582.316563 45.482813 582.316563 
z
" style="fill: #ffffff; opacity: 0.8; stroke: #cccccc; stroke-linejoin: miter"/>
    </g>
    <g id="line2d_50">
     <path d="M 47.482813 572.736875 
L 57.482813 572.736875 
L 67.482813 572.736875 
" style="fill: none; stroke: #1f77b4; stroke-opacity: 0.7; stroke-width: 1.5; stroke-linecap: square"/>
    </g>
    <g id="text_31">
     <!-- Dif plot -->
     <g transform="translate(75.482813 576.236875) scale(0.1 -0.1)">
      <use xlink:href="#DejaVuSans-44"/>
      <use xlink:href="#DejaVuSans-69" x="77.001953"/>
      <use xlink:href="#DejaVuSans-66" x="104.785156"/>
      <use xlink:href="#DejaVuSans-20" x="139.990234"/>
      <use xlink:href="#DejaVuSans-70" x="171.777344"/>
      <use xlink:href="#DejaVuSans-6c" x="235.253906"/>
      <use xlink:href="#DejaVuSans-6f" x="263.037109"/>
      <use xlink:href="#DejaVuSans-74" x="324.21875"/>
     </g>
    </g>
   </g>
  </g>
 </g>
 <defs>
  <clipPath id="p037c034e09">
   <rect x="38.482813" y="32.916563" width="446.4" height="252"/>
  </clipPath>
  <clipPath id="pb65c0dd556">
   <rect x="38.482813" y="335.316563" width="446.4" height="252"/>
  </clipPath>
 </defs>
</svg>
