<?xml version="1.0" encoding="utf-8" standalone="no"?>
<!DOCTYPE svg PUBLIC "-//W3C//DTD SVG 1.1//EN"
  "http://www.w3.org/Graphics/SVG/1.1/DTD/svg11.dtd">
<svg xmlns:xlink="http://www.w3.org/1999/xlink" width="417.245pt" height="229.523523pt" viewBox="0 0 417.245 229.523523" xmlns="http://www.w3.org/2000/svg" version="1.1">
 <metadata>
  <rdf:RDF xmlns:dc="http://purl.org/dc/elements/1.1/" xmlns:cc="http://creativecommons.org/ns#" xmlns:rdf="http://www.w3.org/1999/02/22-rdf-syntax-ns#">
   <cc:Work>
    <dc:type rdf:resource="http://purl.org/dc/dcmitype/StillImage"/>
    <dc:date>2024-12-10T14:47:10.069216</dc:date>
    <dc:format>image/svg+xml</dc:format>
    <dc:creator>
     <cc:Agent>
      <dc:title>Matplotlib v3.8.3, https://matplotlib.org/</dc:title>
     </cc:Agent>
    </dc:creator>
   </cc:Work>
  </rdf:RDF>
 </metadata>
 <defs>
  <style type="text/css">*{stroke-linejoin: round; stroke-linecap: butt}</style>
 </defs>
 <g id="figure_1">
  <g id="patch_1">
   <path d="M 0 229.523523 
L 417.245 229.523523 
L 417.245 0 
L 0 0 
z
" style="fill: #ffffff"/>
  </g>
  <g id="axes_1">
   <g id="patch_2">
    <path d="M 195.571023 122.320824 
C 195.571023 111.662513 193.471568 101.10784 189.392809 91.260845 
C 185.31405 81.413849 179.335308 72.46603 171.798744 64.929466 
C 164.26218 57.392902 155.314361 51.414161 145.467365 47.335401 
C 135.62037 43.256642 125.065697 41.157188 114.407386 41.157188 
C 103.749075 41.157188 93.194403 43.256642 83.347407 47.335401 
C 73.500412 51.414161 64.552593 57.392902 57.016029 64.929466 
C 49.479465 72.46603 43.500723 81.413849 39.421964 91.260845 
C 35.343205 101.10784 33.24375 111.662513 33.24375 122.320824 
C 33.24375 132.979135 35.343205 143.533807 39.421964 153.380803 
C 43.500723 163.227798 49.479465 172.175617 57.016029 179.712182 
C 64.552593 187.248746 73.500412 193.227487 83.347407 197.306246 
C 93.194403 201.385005 103.749075 203.48446 114.407386 203.48446 
C 125.065697 203.48446 135.62037 201.385005 145.467365 197.306246 
C 155.314361 193.227487 164.26218 187.248746 171.798744 179.712182 
C 179.335308 172.175617 185.31405 163.227798 189.392809 153.380803 
C 193.471568 143.533807 195.571023 132.979135 195.571023 122.320824 
M 114.407386 122.320824 
C 114.407386 122.320824 114.407386 122.320824 114.407386 122.320824 
C 114.407386 122.320824 114.407386 122.320824 114.407386 122.320824 
C 114.407386 122.320824 114.407386 122.320824 114.407386 122.320824 
C 114.407386 122.320824 114.407386 122.320824 114.407386 122.320824 
C 114.407386 122.320824 114.407386 122.320824 114.407386 122.320824 
C 114.407386 122.320824 114.407386 122.320824 114.407386 122.320824 
C 114.407386 122.320824 114.407386 122.320824 114.407386 122.320824 
C 114.407386 122.320824 114.407386 122.320824 114.407386 122.320824 
C 114.407386 122.320824 114.407386 122.320824 114.407386 122.320824 
C 114.407386 122.320824 114.407386 122.320824 114.407386 122.320824 
C 114.407386 122.320824 114.407386 122.320824 114.407386 122.320824 
C 114.407386 122.320824 114.407386 122.320824 114.407386 122.320824 
C 114.407386 122.320824 114.407386 122.320824 114.407386 122.320824 
C 114.407386 122.320824 114.407386 122.320824 114.407386 122.320824 
C 114.407386 122.320824 114.407386 122.320824 114.407386 122.320824 
C 114.407386 122.320824 114.407386 122.320824 114.407386 122.320824 
z
" style="fill: #ffffff"/>
   </g>
   <g id="matplotlib.axis_1">
    <g id="xtick_1">
     <g id="line2d_1">
      <path d="M 114.407386 122.320824 
L 195.571023 122.320824 
" clip-path="url(#p1a8a95408e)" style="fill: none; stroke: #b0b0b0; stroke-width: 0.8; stroke-linecap: square"/>
     </g>
     <g id="text_1">
      <!-- 0° -->
      <g transform="translate(203.889773 125.080199) scale(0.1 -0.1)">
       <defs>
        <path id="DejaVuSans-30" d="M 2034 4250 
Q 1547 4250 1301 3770 
Q 1056 3291 1056 2328 
Q 1056 1369 1301 889 
Q 1547 409 2034 409 
Q 2525 409 2770 889 
Q 3016 1369 3016 2328 
Q 3016 3291 2770 3770 
Q 2525 4250 2034 4250 
z
M 2034 4750 
Q 2819 4750 3233 4129 
Q 3647 3509 3647 2328 
Q 3647 1150 3233 529 
Q 2819 -91 2034 -91 
Q 1250 -91 836 529 
Q 422 1150 422 2328 
Q 422 3509 836 4129 
Q 1250 4750 2034 4750 
z
" transform="scale(0.015625)"/>
        <path id="DejaVuSans-b0" d="M 1600 4347 
Q 1350 4347 1178 4173 
Q 1006 4000 1006 3750 
Q 1006 3503 1178 3333 
Q 1350 3163 1600 3163 
Q 1850 3163 2022 3333 
Q 2194 3503 2194 3750 
Q 2194 3997 2020 4172 
Q 1847 4347 1600 4347 
z
M 1600 4750 
Q 1800 4750 1984 4673 
Q 2169 4597 2303 4453 
Q 2447 4313 2519 4134 
Q 2591 3956 2591 3750 
Q 2591 3338 2302 3052 
Q 2013 2766 1594 2766 
Q 1172 2766 890 3047 
Q 609 3328 609 3750 
Q 609 4169 896 4459 
Q 1184 4750 1600 4750 
z
" transform="scale(0.015625)"/>
       </defs>
       <use xlink:href="#DejaVuSans-30"/>
       <use xlink:href="#DejaVuSans-b0" x="63.623047"/>
      </g>
     </g>
    </g>
    <g id="xtick_2">
     <g id="line2d_2">
      <path d="M 114.407386 122.320824 
L 171.798744 64.929466 
" clip-path="url(#p1a8a95408e)" style="fill: none; stroke: #b0b0b0; stroke-width: 0.8; stroke-linecap: square"/>
     </g>
     <g id="text_2">
      <!-- 45° -->
      <g transform="translate(172.835739 57.789346) scale(0.1 -0.1)">
       <defs>
        <path id="DejaVuSans-34" d="M 2419 4116 
L 825 1625 
L 2419 1625 
L 2419 4116 
z
M 2253 4666 
L 3047 4666 
L 3047 1625 
L 3713 1625 
L 3713 1100 
L 3047 1100 
L 3047 0 
L 2419 0 
L 2419 1100 
L 313 1100 
L 313 1709 
L 2253 4666 
z
" transform="scale(0.015625)"/>
        <path id="DejaVuSans-35" d="M 691 4666 
L 3169 4666 
L 3169 4134 
L 1269 4134 
L 1269 2991 
Q 1406 3038 1543 3061 
Q 1681 3084 1819 3084 
Q 2600 3084 3056 2656 
Q 3513 2228 3513 1497 
Q 3513 744 3044 326 
Q 2575 -91 1722 -91 
Q 1428 -91 1123 -41 
Q 819 9 494 109 
L 494 744 
Q 775 591 1075 516 
Q 1375 441 1709 441 
Q 2250 441 2565 725 
Q 2881 1009 2881 1497 
Q 2881 1984 2565 2268 
Q 2250 2553 1709 2553 
Q 1456 2553 1204 2497 
Q 953 2441 691 2322 
L 691 4666 
z
" transform="scale(0.015625)"/>
       </defs>
       <use xlink:href="#DejaVuSans-34"/>
       <use xlink:href="#DejaVuSans-35" x="63.623047"/>
       <use xlink:href="#DejaVuSans-b0" x="127.246094"/>
      </g>
     </g>
    </g>
    <g id="xtick_3">
     <g id="line2d_3">
      <path d="M 114.407386 122.320824 
L 114.407386 41.157188 
" clip-path="url(#p1a8a95408e)" style="fill: none; stroke: #b0b0b0; stroke-width: 0.8; stroke-linecap: square"/>
     </g>
     <g id="text_3">
      <!-- 90° -->
      <g transform="translate(105.544886 29.916563) scale(0.1 -0.1)">
       <defs>
        <path id="DejaVuSans-39" d="M 703 97 
L 703 672 
Q 941 559 1184 500 
Q 1428 441 1663 441 
Q 2288 441 2617 861 
Q 2947 1281 2994 2138 
Q 2813 1869 2534 1725 
Q 2256 1581 1919 1581 
Q 1219 1581 811 2004 
Q 403 2428 403 3163 
Q 403 3881 828 4315 
Q 1253 4750 1959 4750 
Q 2769 4750 3195 4129 
Q 3622 3509 3622 2328 
Q 3622 1225 3098 567 
Q 2575 -91 1691 -91 
Q 1453 -91 1209 -44 
Q 966 3 703 97 
z
M 1959 2075 
Q 2384 2075 2632 2365 
Q 2881 2656 2881 3163 
Q 2881 3666 2632 3958 
Q 2384 4250 1959 4250 
Q 1534 4250 1286 3958 
Q 1038 3666 1038 3163 
Q 1038 2656 1286 2365 
Q 1534 2075 1959 2075 
z
" transform="scale(0.015625)"/>
       </defs>
       <use xlink:href="#DejaVuSans-39"/>
       <use xlink:href="#DejaVuSans-30" x="63.623047"/>
       <use xlink:href="#DejaVuSans-b0" x="127.246094"/>
      </g>
     </g>
    </g>
    <g id="xtick_4">
     <g id="line2d_4">
      <path d="M 114.407386 122.320824 
L 57.016029 64.929466 
" clip-path="url(#p1a8a95408e)" style="fill: none; stroke: #b0b0b0; stroke-width: 0.8; stroke-linecap: square"/>
     </g>
     <g id="text_4">
      <!-- 135° -->
      <g transform="translate(35.072784 57.789346) scale(0.1 -0.1)">
       <defs>
        <path id="DejaVuSans-31" d="M 794 531 
L 1825 531 
L 1825 4091 
L 703 3866 
L 703 4441 
L 1819 4666 
L 2450 4666 
L 2450 531 
L 3481 531 
L 3481 0 
L 794 0 
L 794 531 
z
" transform="scale(0.015625)"/>
        <path id="DejaVuSans-33" d="M 2597 2516 
Q 3050 2419 3304 2112 
Q 3559 1806 3559 1356 
Q 3559 666 3084 287 
Q 2609 -91 1734 -91 
Q 1441 -91 1130 -33 
Q 819 25 488 141 
L 488 750 
Q 750 597 1062 519 
Q 1375 441 1716 441 
Q 2309 441 2620 675 
Q 2931 909 2931 1356 
Q 2931 1769 2642 2001 
Q 2353 2234 1838 2234 
L 1294 2234 
L 1294 2753 
L 1863 2753 
Q 2328 2753 2575 2939 
Q 2822 3125 2822 3475 
Q 2822 3834 2567 4026 
Q 2313 4219 1838 4219 
Q 1578 4219 1281 4162 
Q 984 4106 628 3988 
L 628 4550 
Q 988 4650 1302 4700 
Q 1616 4750 1894 4750 
Q 2613 4750 3031 4423 
Q 3450 4097 3450 3541 
Q 3450 3153 3228 2886 
Q 3006 2619 2597 2516 
z
" transform="scale(0.015625)"/>
       </defs>
       <use xlink:href="#DejaVuSans-31"/>
       <use xlink:href="#DejaVuSans-33" x="63.623047"/>
       <use xlink:href="#DejaVuSans-35" x="127.246094"/>
       <use xlink:href="#DejaVuSans-b0" x="190.869141"/>
      </g>
     </g>
    </g>
    <g id="xtick_5">
     <g id="line2d_5">
      <path d="M 114.407386 122.320824 
L 33.24375 122.320824 
" clip-path="url(#p1a8a95408e)" style="fill: none; stroke: #b0b0b0; stroke-width: 0.8; stroke-linecap: square"/>
     </g>
     <g id="text_5">
      <!-- 180° -->
      <g transform="translate(7.2 125.080199) scale(0.1 -0.1)">
       <defs>
        <path id="DejaVuSans-38" d="M 2034 2216 
Q 1584 2216 1326 1975 
Q 1069 1734 1069 1313 
Q 1069 891 1326 650 
Q 1584 409 2034 409 
Q 2484 409 2743 651 
Q 3003 894 3003 1313 
Q 3003 1734 2745 1975 
Q 2488 2216 2034 2216 
z
M 1403 2484 
Q 997 2584 770 2862 
Q 544 3141 544 3541 
Q 544 4100 942 4425 
Q 1341 4750 2034 4750 
Q 2731 4750 3128 4425 
Q 3525 4100 3525 3541 
Q 3525 3141 3298 2862 
Q 3072 2584 2669 2484 
Q 3125 2378 3379 2068 
Q 3634 1759 3634 1313 
Q 3634 634 3220 271 
Q 2806 -91 2034 -91 
Q 1263 -91 848 271 
Q 434 634 434 1313 
Q 434 1759 690 2068 
Q 947 2378 1403 2484 
z
M 1172 3481 
Q 1172 3119 1398 2916 
Q 1625 2713 2034 2713 
Q 2441 2713 2670 2916 
Q 2900 3119 2900 3481 
Q 2900 3844 2670 4047 
Q 2441 4250 2034 4250 
Q 1625 4250 1398 4047 
Q 1172 3844 1172 3481 
z
" transform="scale(0.015625)"/>
       </defs>
       <use xlink:href="#DejaVuSans-31"/>
       <use xlink:href="#DejaVuSans-38" x="63.623047"/>
       <use xlink:href="#DejaVuSans-30" x="127.246094"/>
       <use xlink:href="#DejaVuSans-b0" x="190.869141"/>
      </g>
     </g>
    </g>
    <g id="xtick_6">
     <g id="line2d_6">
      <path d="M 114.407386 122.320824 
L 57.016029 179.712182 
" clip-path="url(#p1a8a95408e)" style="fill: none; stroke: #b0b0b0; stroke-width: 0.8; stroke-linecap: square"/>
     </g>
     <g id="text_6">
      <!-- 225° -->
      <g transform="translate(35.072784 192.371051) scale(0.1 -0.1)">
       <defs>
        <path id="DejaVuSans-32" d="M 1228 531 
L 3431 531 
L 3431 0 
L 469 0 
L 469 531 
Q 828 903 1448 1529 
Q 2069 2156 2228 2338 
Q 2531 2678 2651 2914 
Q 2772 3150 2772 3378 
Q 2772 3750 2511 3984 
Q 2250 4219 1831 4219 
Q 1534 4219 1204 4116 
Q 875 4013 500 3803 
L 500 4441 
Q 881 4594 1212 4672 
Q 1544 4750 1819 4750 
Q 2544 4750 2975 4387 
Q 3406 4025 3406 3419 
Q 3406 3131 3298 2873 
Q 3191 2616 2906 2266 
Q 2828 2175 2409 1742 
Q 1991 1309 1228 531 
z
" transform="scale(0.015625)"/>
       </defs>
       <use xlink:href="#DejaVuSans-32"/>
       <use xlink:href="#DejaVuSans-32" x="63.623047"/>
       <use xlink:href="#DejaVuSans-35" x="127.246094"/>
       <use xlink:href="#DejaVuSans-b0" x="190.869141"/>
      </g>
     </g>
    </g>
    <g id="xtick_7">
     <g id="line2d_7">
      <path d="M 114.407386 122.320824 
L 114.407386 203.48446 
" clip-path="url(#p1a8a95408e)" style="fill: none; stroke: #b0b0b0; stroke-width: 0.8; stroke-linecap: square"/>
     </g>
     <g id="text_7">
      <!-- 270° -->
      <g transform="translate(102.363636 220.243835) scale(0.1 -0.1)">
       <defs>
        <path id="DejaVuSans-37" d="M 525 4666 
L 3525 4666 
L 3525 4397 
L 1831 0 
L 1172 0 
L 2766 4134 
L 525 4134 
L 525 4666 
z
" transform="scale(0.015625)"/>
       </defs>
       <use xlink:href="#DejaVuSans-32"/>
       <use xlink:href="#DejaVuSans-37" x="63.623047"/>
       <use xlink:href="#DejaVuSans-30" x="127.246094"/>
       <use xlink:href="#DejaVuSans-b0" x="190.869141"/>
      </g>
     </g>
    </g>
    <g id="xtick_8">
     <g id="line2d_8">
      <path d="M 114.407386 122.320824 
L 171.798744 179.712182 
" clip-path="url(#p1a8a95408e)" style="fill: none; stroke: #b0b0b0; stroke-width: 0.8; stroke-linecap: square"/>
     </g>
     <g id="text_8">
      <!-- 315° -->
      <g transform="translate(169.654489 192.371051) scale(0.1 -0.1)">
       <use xlink:href="#DejaVuSans-33"/>
       <use xlink:href="#DejaVuSans-31" x="63.623047"/>
       <use xlink:href="#DejaVuSans-35" x="127.246094"/>
       <use xlink:href="#DejaVuSans-b0" x="190.869141"/>
      </g>
     </g>
    </g>
   </g>
   <g id="matplotlib.axis_2">
    <g id="ytick_1">
     <g id="line2d_9">
      <path d="M 120.552822 122.320824 
C 120.552822 121.513813 120.393858 120.714649 120.085028 119.969068 
C 119.776199 119.223486 119.323509 118.545988 118.752865 117.975345 
C 118.182222 117.404702 117.504724 116.952012 116.759143 116.643182 
C 116.013562 116.334352 115.214398 116.175388 114.407386 116.175388 
C 113.600375 116.175388 112.801211 116.334352 112.05563 116.643182 
C 111.310049 116.952012 110.63255 117.404702 110.061907 117.975345 
C 109.491264 118.545988 109.038574 119.223486 108.729744 119.969068 
C 108.420914 120.714649 108.261951 121.513813 108.261951 122.320824 
C 108.261951 123.127835 108.420914 123.926999 108.729744 124.67258 
C 109.038574 125.418161 109.491264 126.09566 110.061907 126.666303 
C 110.63255 127.236946 111.310049 127.689636 112.05563 127.998466 
C 112.801211 128.307296 113.600375 128.466259 114.407386 128.466259 
C 115.214398 128.466259 116.013562 128.307296 116.759143 127.998466 
C 117.504724 127.689636 118.182222 127.236946 118.752865 126.666303 
C 119.323509 126.09566 119.776199 125.418161 120.085028 124.67258 
C 120.393858 123.926999 120.552822 123.127835 120.552822 122.320824 
" clip-path="url(#p1a8a95408e)" style="fill: none; stroke: #b0b0b0; stroke-width: 0.8; stroke-linecap: square"/>
     </g>
     <g id="text_9">
      <!-- −25 -->
      <g transform="translate(120.085028 117.88938) scale(0.1 -0.1)">
       <defs>
        <path id="DejaVuSans-2212" d="M 678 2272 
L 4684 2272 
L 4684 1741 
L 678 1741 
L 678 2272 
z
" transform="scale(0.015625)"/>
       </defs>
       <use xlink:href="#DejaVuSans-2212"/>
       <use xlink:href="#DejaVuSans-32" x="83.789062"/>
       <use xlink:href="#DejaVuSans-35" x="147.412109"/>
      </g>
     </g>
    </g>
    <g id="ytick_2">
     <g id="line2d_10">
      <path d="M 134.702587 122.320824 
C 134.702587 119.655683 134.177613 117.016456 133.157707 114.554187 
C 132.137802 112.091917 130.6428 109.854489 128.758261 107.96995 
C 126.873721 106.08541 124.636293 104.590409 122.174023 103.570503 
C 119.711754 102.550598 117.072528 102.025623 114.407386 102.025623 
C 111.742245 102.025623 109.103019 102.550598 106.640749 103.570503 
C 104.17848 104.590409 101.941052 106.08541 100.056512 107.96995 
C 98.171973 109.854489 96.676971 112.091917 95.657066 114.554187 
C 94.63716 117.016456 94.112185 119.655683 94.112185 122.320824 
C 94.112185 124.985965 94.63716 127.625191 95.657066 130.087461 
C 96.676971 132.549731 98.171973 134.787158 100.056512 136.671698 
C 101.941052 138.556238 104.17848 140.051239 106.640749 141.071145 
C 109.103019 142.09105 111.742245 142.616025 114.407386 142.616025 
C 117.072528 142.616025 119.711754 142.09105 122.174023 141.071145 
C 124.636293 140.051239 126.873721 138.556238 128.758261 136.671698 
C 130.6428 134.787158 132.137802 132.549731 133.157707 130.087461 
C 134.177613 127.625191 134.702587 124.985965 134.702587 122.320824 
" clip-path="url(#p1a8a95408e)" style="fill: none; stroke: #b0b0b0; stroke-width: 0.8; stroke-linecap: square"/>
     </g>
     <g id="text_10">
      <!-- −20 -->
      <g transform="translate(133.157707 112.474499) scale(0.1 -0.1)">
       <use xlink:href="#DejaVuSans-2212"/>
       <use xlink:href="#DejaVuSans-32" x="83.789062"/>
       <use xlink:href="#DejaVuSans-30" x="147.412109"/>
      </g>
     </g>
    </g>
    <g id="ytick_3">
     <g id="line2d_11">
      <path d="M 148.852353 122.320824 
C 148.852353 117.797552 147.961367 113.318264 146.230386 109.139306 
C 144.499405 104.960348 141.962092 101.162991 138.763656 97.964555 
C 135.56522 94.766119 131.767862 92.228806 127.588904 90.497825 
C 123.409946 88.766844 118.930658 87.875858 114.407386 87.875858 
C 109.884115 87.875858 105.404826 88.766844 101.225868 90.497825 
C 97.04691 92.228806 93.249553 94.766119 90.051117 97.964555 
C 86.852681 101.162991 84.315368 104.960348 82.584387 109.139306 
C 80.853406 113.318264 79.96242 117.797552 79.96242 122.320824 
C 79.96242 126.844095 80.853406 131.323384 82.584387 135.502342 
C 84.315368 139.6813 86.852681 143.478657 90.051117 146.677093 
C 93.249553 149.875529 97.04691 152.412842 101.225868 154.143823 
C 105.404826 155.874804 109.884115 156.76579 114.407386 156.76579 
C 118.930658 156.76579 123.409946 155.874804 127.588904 154.143823 
C 131.767862 152.412842 135.56522 149.875529 138.763656 146.677093 
C 141.962092 143.478657 144.499405 139.6813 146.230386 135.502342 
C 147.961367 131.323384 148.852353 126.844095 148.852353 122.320824 
" clip-path="url(#p1a8a95408e)" style="fill: none; stroke: #b0b0b0; stroke-width: 0.8; stroke-linecap: square"/>
     </g>
     <g id="text_11">
      <!-- −15 -->
      <g transform="translate(146.230386 107.059618) scale(0.1 -0.1)">
       <use xlink:href="#DejaVuSans-2212"/>
       <use xlink:href="#DejaVuSans-31" x="83.789062"/>
       <use xlink:href="#DejaVuSans-35" x="147.412109"/>
      </g>
     </g>
    </g>
    <g id="ytick_4">
     <g id="line2d_12">
      <path d="M 163.002118 122.320824 
C 163.002118 115.939422 161.745121 109.620072 159.303064 103.724425 
C 156.861008 97.828779 153.281383 92.471492 148.769051 87.95916 
C 144.256718 83.446827 138.899431 79.867203 133.003785 77.425146 
C 127.108139 74.983089 120.788788 73.726092 114.407386 73.726092 
C 108.025985 73.726092 101.706634 74.983089 95.810988 77.425146 
C 89.915341 79.867203 84.558055 83.446827 80.045722 87.95916 
C 75.53339 92.471492 71.953765 97.828779 69.511708 103.724425 
C 67.069652 109.620072 65.812655 115.939422 65.812655 122.320824 
C 65.812655 128.702226 67.069652 135.021576 69.511708 140.917223 
C 71.953765 146.812869 75.53339 152.170156 80.045722 156.682488 
C 84.558055 161.19482 89.915341 164.774445 95.810988 167.216502 
C 101.706634 169.658558 108.025985 170.915555 114.407386 170.915555 
C 120.788788 170.915555 127.108139 169.658558 133.003785 167.216502 
C 138.899431 164.774445 144.256718 161.19482 148.769051 156.682488 
C 153.281383 152.170156 156.861008 146.812869 159.303064 140.917223 
C 161.745121 135.021576 163.002118 128.702226 163.002118 122.320824 
" clip-path="url(#p1a8a95408e)" style="fill: none; stroke: #b0b0b0; stroke-width: 0.8; stroke-linecap: square"/>
     </g>
     <g id="text_12">
      <!-- −10 -->
      <g transform="translate(159.303064 101.644738) scale(0.1 -0.1)">
       <use xlink:href="#DejaVuSans-2212"/>
       <use xlink:href="#DejaVuSans-31" x="83.789062"/>
       <use xlink:href="#DejaVuSans-30" x="147.412109"/>
      </g>
     </g>
    </g>
    <g id="ytick_5">
     <g id="line2d_13">
      <path d="M 177.151883 122.320824 
C 177.151883 114.081292 175.528875 105.921879 172.375743 98.309544 
C 169.222611 90.69721 164.600674 83.779993 158.774446 77.953765 
C 152.948217 72.127536 146.031001 67.5056 138.418666 64.352467 
C 130.806331 61.199335 122.646918 59.576327 114.407386 59.576327 
C 106.167855 59.576327 98.008442 61.199335 90.396107 64.352467 
C 82.783772 67.5056 75.866556 72.127536 70.040327 77.953765 
C 64.214098 83.779993 59.592162 90.69721 56.43903 98.309544 
C 53.285898 105.921879 51.662889 114.081292 51.662889 122.320824 
C 51.662889 130.560356 53.285898 138.719768 56.43903 146.332103 
C 59.592162 153.944438 64.214098 160.861654 70.040327 166.687883 
C 75.866556 172.514112 82.783772 177.136048 90.396107 180.28918 
C 98.008442 183.442313 106.167855 185.065321 114.407386 185.065321 
C 122.646918 185.065321 130.806331 183.442313 138.418666 180.28918 
C 146.031001 177.136048 152.948217 172.514112 158.774446 166.687883 
C 164.600674 160.861654 169.222611 153.944438 172.375743 146.332103 
C 175.528875 138.719768 177.151883 130.560356 177.151883 122.320824 
" clip-path="url(#p1a8a95408e)" style="fill: none; stroke: #b0b0b0; stroke-width: 0.8; stroke-linecap: square"/>
     </g>
     <g id="text_13">
      <!-- −5 -->
      <g transform="translate(172.375743 96.229857) scale(0.1 -0.1)">
       <use xlink:href="#DejaVuSans-2212"/>
       <use xlink:href="#DejaVuSans-35" x="83.789062"/>
      </g>
     </g>
    </g>
    <g id="ytick_6">
     <g id="line2d_14">
      <path d="M 191.301649 122.320824 
C 191.301649 112.223162 189.312629 102.223687 185.448421 92.894664 
C 181.584213 83.56564 175.919966 75.088495 168.779841 67.94837 
C 161.639715 60.808244 153.16257 55.143997 143.833547 51.279789 
C 134.504523 47.415581 124.505048 45.426562 114.407386 45.426562 
C 104.309724 45.426562 94.310249 47.415581 84.981226 51.279789 
C 75.652203 55.143997 67.175057 60.808244 60.034932 67.94837 
C 52.894807 75.088495 47.230559 83.56564 43.366351 92.894664 
C 39.502143 102.223687 37.513124 112.223162 37.513124 122.320824 
C 37.513124 132.418486 39.502143 142.417961 43.366351 151.746984 
C 47.230559 161.076007 52.894807 169.553153 60.034932 176.693278 
C 67.175057 183.833403 75.652203 189.497651 84.981226 193.361859 
C 94.310249 197.226067 104.309724 199.215086 114.407386 199.215086 
C 124.505048 199.215086 134.504523 197.226067 143.833547 193.361859 
C 153.16257 189.497651 161.639715 183.833403 168.779841 176.693278 
C 175.919966 169.553153 181.584213 161.076007 185.448421 151.746984 
C 189.312629 142.417961 191.301649 132.418486 191.301649 122.320824 
" clip-path="url(#p1a8a95408e)" style="fill: none; stroke: #b0b0b0; stroke-width: 0.8; stroke-linecap: square"/>
     </g>
     <g id="text_14">
      <!-- 0 -->
      <g transform="translate(185.448421 90.814976) scale(0.1 -0.1)">
       <use xlink:href="#DejaVuSans-30"/>
      </g>
     </g>
    </g>
   </g>
   <g id="line2d_15">
    <path d="M 94.786821 145.703703 
L 100.182035 142.636732 
L 102.967728 142.134894 
L 102.86092 147.0823 
L 104.476061 149.606916 
L 110.424705 137.184392 
L 113.766754 125.954032 
L 113.966189 127.363728 
L 114.407386 138.840448 
L 116.11465 141.834931 
L 117.167925 137.976615 
L 118.003468 135.741584 
L 119.309229 135.788527 
L 122.114214 138.848168 
L 123.369915 137.844378 
L 120.373562 130.841406 
L 119.246602 128.087977 
L 125.553244 133.466682 
L 137.240079 141.479728 
L 144.99461 143.738229 
L 145.573275 140.314458 
L 142.165464 135.264628 
L 147.431209 134.340512 
L 163.536285 135.484873 
L 179.355984 133.773014 
L 188.063862 128.76493 
L 191.881767 122.320824 
L 188.960728 115.798252 
L 181.265391 110.531954 
L 163.853004 109.07191 
L 145.064172 111.162666 
L 138.886468 110.906041 
L 144.98922 104.664394 
L 148.935881 98.143712 
L 139.701273 101.096733 
L 125.263113 111.465097 
L 116.787138 119.484746 
L 119.825365 114.583149 
L 124.082824 105.562474 
L 123.445497 102.938533 
L 119.746933 107.650539 
L 117.664333 110.165735 
L 116.978692 107.738227 
L 116.131777 102.610946 
L 114.407386 107.694466 
L 114.001898 117.686073 
L 113.520948 117.293582 
L 109.617536 104.444859 
L 104.604235 95.386887 
L 102.271418 96.295156 
L 104.001711 104.297665 
L 101.465579 103.838007 
L 95.713592 100.042427 
" clip-path="url(#p1a8a95408e)" style="fill: none; stroke: #1f77b4; stroke-width: 1.5; stroke-linecap: square"/>
   </g>
   <g id="patch_3">
    <path d="M 195.571023 122.320824 
C 195.571023 111.662513 193.471568 101.10784 189.392809 91.260845 
C 185.31405 81.413849 179.335308 72.46603 171.798744 64.929466 
C 164.26218 57.392902 155.314361 51.414161 145.467365 47.335401 
C 135.62037 43.256642 125.065697 41.157188 114.407386 41.157188 
C 103.749075 41.157188 93.194403 43.256642 83.347407 47.335401 
C 73.500412 51.414161 64.552593 57.392902 57.016029 64.929466 
C 49.479465 72.46603 43.500723 81.413849 39.421964 91.260845 
C 35.343205 101.10784 33.24375 111.662513 33.24375 122.320824 
C 33.24375 132.979135 35.343205 143.533807 39.421964 153.380803 
C 43.500723 163.227798 49.479465 172.175617 57.016029 179.712182 
C 64.552593 187.248746 73.500412 193.227487 83.347407 197.306246 
C 93.194403 201.385005 103.749075 203.48446 114.407386 203.48446 
C 125.065697 203.48446 135.62037 201.385005 145.467365 197.306246 
C 155.314361 193.227487 164.26218 187.248746 171.798744 179.712182 
C 179.335308 172.175617 185.31405 163.227798 189.392809 153.380803 
C 193.471568 143.533807 195.571023 132.979135 195.571023 122.320824 
" style="fill: none; stroke: #000000; stroke-width: 0.8; stroke-linejoin: miter; stroke-linecap: square"/>
   </g>
   <g id="text_15">
    <!-- E-Plane (Phi = 0.0) -->
    <g transform="translate(57.936136 16.318125) scale(0.12 -0.12)">
     <defs>
      <path id="DejaVuSans-45" d="M 628 4666 
L 3578 4666 
L 3578 4134 
L 1259 4134 
L 1259 2753 
L 3481 2753 
L 3481 2222 
L 1259 2222 
L 1259 531 
L 3634 531 
L 3634 0 
L 628 0 
L 628 4666 
z
" transform="scale(0.015625)"/>
      <path id="DejaVuSans-2d" d="M 313 2009 
L 1997 2009 
L 1997 1497 
L 313 1497 
L 313 2009 
z
" transform="scale(0.015625)"/>
      <path id="DejaVuSans-50" d="M 1259 4147 
L 1259 2394 
L 2053 2394 
Q 2494 2394 2734 2622 
Q 2975 2850 2975 3272 
Q 2975 3691 2734 3919 
Q 2494 4147 2053 4147 
L 1259 4147 
z
M 628 4666 
L 2053 4666 
Q 2838 4666 3239 4311 
Q 3641 3956 3641 3272 
Q 3641 2581 3239 2228 
Q 2838 1875 2053 1875 
L 1259 1875 
L 1259 0 
L 628 0 
L 628 4666 
z
" transform="scale(0.015625)"/>
      <path id="DejaVuSans-6c" d="M 603 4863 
L 1178 4863 
L 1178 0 
L 603 0 
L 603 4863 
z
" transform="scale(0.015625)"/>
      <path id="DejaVuSans-61" d="M 2194 1759 
Q 1497 1759 1228 1600 
Q 959 1441 959 1056 
Q 959 750 1161 570 
Q 1363 391 1709 391 
Q 2188 391 2477 730 
Q 2766 1069 2766 1631 
L 2766 1759 
L 2194 1759 
z
M 3341 1997 
L 3341 0 
L 2766 0 
L 2766 531 
Q 2569 213 2275 61 
Q 1981 -91 1556 -91 
Q 1019 -91 701 211 
Q 384 513 384 1019 
Q 384 1609 779 1909 
Q 1175 2209 1959 2209 
L 2766 2209 
L 2766 2266 
Q 2766 2663 2505 2880 
Q 2244 3097 1772 3097 
Q 1472 3097 1187 3025 
Q 903 2953 641 2809 
L 641 3341 
Q 956 3463 1253 3523 
Q 1550 3584 1831 3584 
Q 2591 3584 2966 3190 
Q 3341 2797 3341 1997 
z
" transform="scale(0.015625)"/>
      <path id="DejaVuSans-6e" d="M 3513 2113 
L 3513 0 
L 2938 0 
L 2938 2094 
Q 2938 2591 2744 2837 
Q 2550 3084 2163 3084 
Q 1697 3084 1428 2787 
Q 1159 2491 1159 1978 
L 1159 0 
L 581 0 
L 581 3500 
L 1159 3500 
L 1159 2956 
Q 1366 3272 1645 3428 
Q 1925 3584 2291 3584 
Q 2894 3584 3203 3211 
Q 3513 2838 3513 2113 
z
" transform="scale(0.015625)"/>
      <path id="DejaVuSans-65" d="M 3597 1894 
L 3597 1613 
L 953 1613 
Q 991 1019 1311 708 
Q 1631 397 2203 397 
Q 2534 397 2845 478 
Q 3156 559 3463 722 
L 3463 178 
Q 3153 47 2828 -22 
Q 2503 -91 2169 -91 
Q 1331 -91 842 396 
Q 353 884 353 1716 
Q 353 2575 817 3079 
Q 1281 3584 2069 3584 
Q 2775 3584 3186 3129 
Q 3597 2675 3597 1894 
z
M 3022 2063 
Q 3016 2534 2758 2815 
Q 2500 3097 2075 3097 
Q 1594 3097 1305 2825 
Q 1016 2553 972 2059 
L 3022 2063 
z
" transform="scale(0.015625)"/>
      <path id="DejaVuSans-20" transform="scale(0.015625)"/>
      <path id="DejaVuSans-28" d="M 1984 4856 
Q 1566 4138 1362 3434 
Q 1159 2731 1159 2009 
Q 1159 1288 1364 580 
Q 1569 -128 1984 -844 
L 1484 -844 
Q 1016 -109 783 600 
Q 550 1309 550 2009 
Q 550 2706 781 3412 
Q 1013 4119 1484 4856 
L 1984 4856 
z
" transform="scale(0.015625)"/>
      <path id="DejaVuSans-68" d="M 3513 2113 
L 3513 0 
L 2938 0 
L 2938 2094 
Q 2938 2591 2744 2837 
Q 2550 3084 2163 3084 
Q 1697 3084 1428 2787 
Q 1159 2491 1159 1978 
L 1159 0 
L 581 0 
L 581 4863 
L 1159 4863 
L 1159 2956 
Q 1366 3272 1645 3428 
Q 1925 3584 2291 3584 
Q 2894 3584 3203 3211 
Q 3513 2838 3513 2113 
z
" transform="scale(0.015625)"/>
      <path id="DejaVuSans-69" d="M 603 3500 
L 1178 3500 
L 1178 0 
L 603 0 
L 603 3500 
z
M 603 4863 
L 1178 4863 
L 1178 4134 
L 603 4134 
L 603 4863 
z
" transform="scale(0.015625)"/>
      <path id="DejaVuSans-3d" d="M 678 2906 
L 4684 2906 
L 4684 2381 
L 678 2381 
L 678 2906 
z
M 678 1631 
L 4684 1631 
L 4684 1100 
L 678 1100 
L 678 1631 
z
" transform="scale(0.015625)"/>
      <path id="DejaVuSans-2e" d="M 684 794 
L 1344 794 
L 1344 0 
L 684 0 
L 684 794 
z
" transform="scale(0.015625)"/>
      <path id="DejaVuSans-29" d="M 513 4856 
L 1013 4856 
Q 1481 4119 1714 3412 
Q 1947 2706 1947 2009 
Q 1947 1309 1714 600 
Q 1481 -109 1013 -844 
L 513 -844 
Q 928 -128 1133 580 
Q 1338 1288 1338 2009 
Q 1338 2731 1133 3434 
Q 928 4138 513 4856 
z
" transform="scale(0.015625)"/>
     </defs>
     <use xlink:href="#DejaVuSans-45"/>
     <use xlink:href="#DejaVuSans-2d" x="63.183594"/>
     <use xlink:href="#DejaVuSans-50" x="99.267578"/>
     <use xlink:href="#DejaVuSans-6c" x="159.570312"/>
     <use xlink:href="#DejaVuSans-61" x="187.353516"/>
     <use xlink:href="#DejaVuSans-6e" x="248.632812"/>
     <use xlink:href="#DejaVuSans-65" x="312.011719"/>
     <use xlink:href="#DejaVuSans-20" x="373.535156"/>
     <use xlink:href="#DejaVuSans-28" x="405.322266"/>
     <use xlink:href="#DejaVuSans-50" x="444.335938"/>
     <use xlink:href="#DejaVuSans-68" x="504.638672"/>
     <use xlink:href="#DejaVuSans-69" x="568.017578"/>
     <use xlink:href="#DejaVuSans-20" x="595.800781"/>
     <use xlink:href="#DejaVuSans-3d" x="627.587891"/>
     <use xlink:href="#DejaVuSans-20" x="711.376953"/>
     <use xlink:href="#DejaVuSans-30" x="743.164062"/>
     <use xlink:href="#DejaVuSans-2e" x="806.787109"/>
     <use xlink:href="#DejaVuSans-30" x="838.574219"/>
     <use xlink:href="#DejaVuSans-29" x="902.197266"/>
    </g>
   </g>
  </g>
  <g id="axes_2">
   <g id="patch_4">
    <path d="M 390.36375 122.320824 
C 390.36375 111.662513 388.264295 101.10784 384.185536 91.260845 
C 380.106777 81.413849 374.128035 72.46603 366.591471 64.929466 
C 359.054907 57.392902 350.107088 51.414161 340.260093 47.335401 
C 330.413097 43.256642 319.858425 41.157188 309.200114 41.157188 
C 298.541803 41.157188 287.98713 43.256642 278.140135 47.335401 
C 268.293139 51.414161 259.34532 57.392902 251.808756 64.929466 
C 244.272192 72.46603 238.29345 81.413849 234.214691 91.260845 
C 230.135932 101.10784 228.036477 111.662513 228.036477 122.320824 
C 228.036477 132.979135 230.135932 143.533807 234.214691 153.380803 
C 238.29345 163.227798 244.272192 172.175617 251.808756 179.712182 
C 259.34532 187.248746 268.293139 193.227487 278.140135 197.306246 
C 287.98713 201.385005 298.541803 203.48446 309.200114 203.48446 
C 319.858425 203.48446 330.413097 201.385005 340.260093 197.306246 
C 350.107088 193.227487 359.054907 187.248746 366.591471 179.712182 
C 374.128035 172.175617 380.106777 163.227798 384.185536 153.380803 
C 388.264295 143.533807 390.36375 132.979135 390.36375 122.320824 
M 309.200114 122.320824 
C 309.200114 122.320824 309.200114 122.320824 309.200114 122.320824 
C 309.200114 122.320824 309.200114 122.320824 309.200114 122.320824 
C 309.200114 122.320824 309.200114 122.320824 309.200114 122.320824 
C 309.200114 122.320824 309.200114 122.320824 309.200114 122.320824 
C 309.200114 122.320824 309.200114 122.320824 309.200114 122.320824 
C 309.200114 122.320824 309.200114 122.320824 309.200114 122.320824 
C 309.200114 122.320824 309.200114 122.320824 309.200114 122.320824 
C 309.200114 122.320824 309.200114 122.320824 309.200114 122.320824 
C 309.200114 122.320824 309.200114 122.320824 309.200114 122.320824 
C 309.200114 122.320824 309.200114 122.320824 309.200114 122.320824 
C 309.200114 122.320824 309.200114 122.320824 309.200114 122.320824 
C 309.200114 122.320824 309.200114 122.320824 309.200114 122.320824 
C 309.200114 122.320824 309.200114 122.320824 309.200114 122.320824 
C 309.200114 122.320824 309.200114 122.320824 309.200114 122.320824 
C 309.200114 122.320824 309.200114 122.320824 309.200114 122.320824 
C 309.200114 122.320824 309.200114 122.320824 309.200114 122.320824 
z
" style="fill: #ffffff"/>
   </g>
   <g id="matplotlib.axis_3">
    <g id="xtick_9">
     <g id="line2d_16">
      <path d="M 309.200114 122.320824 
L 390.36375 122.320824 
" clip-path="url(#p154d0700dc)" style="fill: none; stroke: #b0b0b0; stroke-width: 0.8; stroke-linecap: square"/>
     </g>
     <g id="text_16">
      <!-- 0° -->
      <g transform="translate(398.6825 125.080199) scale(0.1 -0.1)">
       <use xlink:href="#DejaVuSans-30"/>
       <use xlink:href="#DejaVuSans-b0" x="63.623047"/>
      </g>
     </g>
    </g>
    <g id="xtick_10">
     <g id="line2d_17">
      <path d="M 309.200114 122.320824 
L 366.591471 64.929466 
" clip-path="url(#p154d0700dc)" style="fill: none; stroke: #b0b0b0; stroke-width: 0.8; stroke-linecap: square"/>
     </g>
     <g id="text_17">
      <!-- 45° -->
      <g transform="translate(367.628466 57.789346) scale(0.1 -0.1)">
       <use xlink:href="#DejaVuSans-34"/>
       <use xlink:href="#DejaVuSans-35" x="63.623047"/>
       <use xlink:href="#DejaVuSans-b0" x="127.246094"/>
      </g>
     </g>
    </g>
    <g id="xtick_11">
     <g id="line2d_18">
      <path d="M 309.200114 122.320824 
L 309.200114 41.157188 
" clip-path="url(#p154d0700dc)" style="fill: none; stroke: #b0b0b0; stroke-width: 0.8; stroke-linecap: square"/>
     </g>
     <g id="text_18">
      <!-- 90° -->
      <g transform="translate(300.337614 29.916563) scale(0.1 -0.1)">
       <use xlink:href="#DejaVuSans-39"/>
       <use xlink:href="#DejaVuSans-30" x="63.623047"/>
       <use xlink:href="#DejaVuSans-b0" x="127.246094"/>
      </g>
     </g>
    </g>
    <g id="xtick_12">
     <g id="line2d_19">
      <path d="M 309.200114 122.320824 
L 251.808756 64.929466 
" clip-path="url(#p154d0700dc)" style="fill: none; stroke: #b0b0b0; stroke-width: 0.8; stroke-linecap: square"/>
     </g>
     <g id="text_19">
      <!-- 135° -->
      <g transform="translate(229.865511 57.789346) scale(0.1 -0.1)">
       <use xlink:href="#DejaVuSans-31"/>
       <use xlink:href="#DejaVuSans-33" x="63.623047"/>
       <use xlink:href="#DejaVuSans-35" x="127.246094"/>
       <use xlink:href="#DejaVuSans-b0" x="190.869141"/>
      </g>
     </g>
    </g>
    <g id="xtick_13">
     <g id="line2d_20">
      <path d="M 309.200114 122.320824 
L 228.036477 122.320824 
" clip-path="url(#p154d0700dc)" style="fill: none; stroke: #b0b0b0; stroke-width: 0.8; stroke-linecap: square"/>
     </g>
     <g id="text_20">
      <!-- 180° -->
      <g transform="translate(201.992727 125.080199) scale(0.1 -0.1)">
       <use xlink:href="#DejaVuSans-31"/>
       <use xlink:href="#DejaVuSans-38" x="63.623047"/>
       <use xlink:href="#DejaVuSans-30" x="127.246094"/>
       <use xlink:href="#DejaVuSans-b0" x="190.869141"/>
      </g>
     </g>
    </g>
    <g id="xtick_14">
     <g id="line2d_21">
      <path d="M 309.200114 122.320824 
L 251.808756 179.712182 
" clip-path="url(#p154d0700dc)" style="fill: none; stroke: #b0b0b0; stroke-width: 0.8; stroke-linecap: square"/>
     </g>
     <g id="text_21">
      <!-- 225° -->
      <g transform="translate(229.865511 192.371051) scale(0.1 -0.1)">
       <use xlink:href="#DejaVuSans-32"/>
       <use xlink:href="#DejaVuSans-32" x="63.623047"/>
       <use xlink:href="#DejaVuSans-35" x="127.246094"/>
       <use xlink:href="#DejaVuSans-b0" x="190.869141"/>
      </g>
     </g>
    </g>
    <g id="xtick_15">
     <g id="line2d_22">
      <path d="M 309.200114 122.320824 
L 309.200114 203.48446 
" clip-path="url(#p154d0700dc)" style="fill: none; stroke: #b0b0b0; stroke-width: 0.8; stroke-linecap: square"/>
     </g>
     <g id="text_22">
      <!-- 270° -->
      <g transform="translate(297.156364 220.243835) scale(0.1 -0.1)">
       <use xlink:href="#DejaVuSans-32"/>
       <use xlink:href="#DejaVuSans-37" x="63.623047"/>
       <use xlink:href="#DejaVuSans-30" x="127.246094"/>
       <use xlink:href="#DejaVuSans-b0" x="190.869141"/>
      </g>
     </g>
    </g>
    <g id="xtick_16">
     <g id="line2d_23">
      <path d="M 309.200114 122.320824 
L 366.591471 179.712182 
" clip-path="url(#p154d0700dc)" style="fill: none; stroke: #b0b0b0; stroke-width: 0.8; stroke-linecap: square"/>
     </g>
     <g id="text_23">
      <!-- 315° -->
      <g transform="translate(364.447216 192.371051) scale(0.1 -0.1)">
       <use xlink:href="#DejaVuSans-33"/>
       <use xlink:href="#DejaVuSans-31" x="63.623047"/>
       <use xlink:href="#DejaVuSans-35" x="127.246094"/>
       <use xlink:href="#DejaVuSans-b0" x="190.869141"/>
      </g>
     </g>
    </g>
   </g>
   <g id="matplotlib.axis_4">
    <g id="ytick_7">
     <g id="line2d_24">
      <path d="M 311.956193 122.320824 
C 311.956193 121.958899 311.884902 121.600493 311.746399 121.266118 
C 311.607897 120.931743 311.404876 120.627901 311.148956 120.371981 
C 310.893037 120.116061 310.589195 119.913041 310.25482 119.774538 
C 309.920445 119.636035 309.562039 119.564744 309.200114 119.564744 
C 308.838189 119.564744 308.479783 119.636035 308.145408 119.774538 
C 307.811032 119.913041 307.507191 120.116061 307.251271 120.371981 
C 306.995351 120.627901 306.792331 120.931743 306.653828 121.266118 
C 306.515325 121.600493 306.444034 121.958899 306.444034 122.320824 
C 306.444034 122.682749 306.515325 123.041155 306.653828 123.37553 
C 306.792331 123.709905 306.995351 124.013747 307.251271 124.269667 
C 307.507191 124.525586 307.811032 124.728607 308.145408 124.86711 
C 308.479783 125.005612 308.838189 125.076904 309.200114 125.076904 
C 309.562039 125.076904 309.920445 125.005612 310.25482 124.86711 
C 310.589195 124.728607 310.893037 124.525586 311.148956 124.269667 
C 311.404876 124.013747 311.607897 123.709905 311.746399 123.37553 
C 311.884902 123.041155 311.956193 122.682749 311.956193 122.320824 
" clip-path="url(#p154d0700dc)" style="fill: none; stroke: #b0b0b0; stroke-width: 0.8; stroke-linecap: square"/>
     </g>
     <g id="text_24">
      <!-- −30 -->
      <g transform="translate(311.746399 119.18643) scale(0.1 -0.1)">
       <use xlink:href="#DejaVuSans-2212"/>
       <use xlink:href="#DejaVuSans-33" x="83.789062"/>
       <use xlink:href="#DejaVuSans-30" x="147.412109"/>
      </g>
     </g>
    </g>
    <g id="ytick_8">
     <g id="line2d_25">
      <path d="M 325.02412 122.320824 
C 325.02412 120.242834 324.614801 118.185051 323.819589 116.265239 
C 323.024377 114.345427 321.858736 112.600922 320.389376 111.131562 
C 318.920015 109.662202 317.17551 108.496561 315.255699 107.701349 
C 313.335887 106.906137 311.278103 106.496818 309.200114 106.496818 
C 307.122124 106.496818 305.064341 106.906137 303.144529 107.701349 
C 301.224717 108.496561 299.480212 109.662202 298.010852 111.131562 
C 296.541491 112.600922 295.375851 114.345427 294.580638 116.265239 
C 293.785426 118.185051 293.376108 120.242834 293.376108 122.320824 
C 293.376108 124.398813 293.785426 126.456597 294.580638 128.376409 
C 295.375851 130.296221 296.541491 132.040725 298.010852 133.510086 
C 299.480212 134.979446 301.224717 136.145087 303.144529 136.940299 
C 305.064341 137.735511 307.122124 138.14483 309.200114 138.14483 
C 311.278103 138.14483 313.335887 137.735511 315.255699 136.940299 
C 317.17551 136.145087 318.920015 134.979446 320.389376 133.510086 
C 321.858736 132.040725 323.024377 130.296221 323.819589 128.376409 
C 324.614801 126.456597 325.02412 124.398813 325.02412 122.320824 
" clip-path="url(#p154d0700dc)" style="fill: none; stroke: #b0b0b0; stroke-width: 0.8; stroke-linecap: square"/>
     </g>
     <g id="text_25">
      <!-- −25 -->
      <g transform="translate(323.819589 114.185551) scale(0.1 -0.1)">
       <use xlink:href="#DejaVuSans-2212"/>
       <use xlink:href="#DejaVuSans-32" x="83.789062"/>
       <use xlink:href="#DejaVuSans-35" x="147.412109"/>
      </g>
     </g>
    </g>
    <g id="ytick_9">
     <g id="line2d_26">
      <path d="M 338.092046 122.320824 
C 338.092046 118.52677 337.3447 114.769609 335.892778 111.26436 
C 334.440857 107.759112 332.312596 104.573944 329.629795 101.891143 
C 326.946994 99.208342 323.761826 97.080081 320.256577 95.628159 
C 316.751329 94.176238 312.994167 93.428892 309.200114 93.428892 
C 305.40606 93.428892 301.648899 94.176238 298.14365 95.628159 
C 294.638401 97.080081 291.453234 99.208342 288.770433 101.891143 
C 286.087631 104.573944 283.959371 107.759112 282.507449 111.26436 
C 281.055527 114.769609 280.308182 118.52677 280.308182 122.320824 
C 280.308182 126.114878 281.055527 129.872039 282.507449 133.377288 
C 283.959371 136.882536 286.087631 140.067704 288.770433 142.750505 
C 291.453234 145.433306 294.638401 147.561567 298.14365 149.013489 
C 301.648899 150.46541 305.40606 151.212756 309.200114 151.212756 
C 312.994167 151.212756 316.751329 150.46541 320.256577 149.013489 
C 323.761826 147.561567 326.946994 145.433306 329.629795 142.750505 
C 332.312596 140.067704 334.440857 136.882536 335.892778 133.377288 
C 337.3447 129.872039 338.092046 126.114878 338.092046 122.320824 
" clip-path="url(#p154d0700dc)" style="fill: none; stroke: #b0b0b0; stroke-width: 0.8; stroke-linecap: square"/>
     </g>
     <g id="text_26">
      <!-- −20 -->
      <g transform="translate(335.892778 109.184673) scale(0.1 -0.1)">
       <use xlink:href="#DejaVuSans-2212"/>
       <use xlink:href="#DejaVuSans-32" x="83.789062"/>
       <use xlink:href="#DejaVuSans-30" x="147.412109"/>
      </g>
     </g>
    </g>
    <g id="ytick_10">
     <g id="line2d_27">
      <path d="M 351.159972 122.320824 
C 351.159972 116.810706 350.074599 111.354167 347.965968 106.263481 
C 345.857337 101.172796 342.766456 96.546966 338.870214 92.650724 
C 334.973972 88.754482 330.348141 85.663601 325.257456 83.55497 
C 320.166771 81.446339 314.710232 80.360966 309.200114 80.360966 
C 303.689996 80.360966 298.233456 81.446339 293.142771 83.55497 
C 288.052086 85.663601 283.426255 88.754482 279.530013 92.650724 
C 275.633772 96.546966 272.54289 101.172796 270.43426 106.263481 
C 268.325629 111.354167 267.240256 116.810706 267.240256 122.320824 
C 267.240256 127.830942 268.325629 133.287481 270.43426 138.378166 
C 272.54289 143.468852 275.633772 148.094682 279.530013 151.990924 
C 283.426255 155.887166 288.052086 158.978047 293.142771 161.086678 
C 298.233456 163.195309 303.689996 164.280682 309.200114 164.280682 
C 314.710232 164.280682 320.166771 163.195309 325.257456 161.086678 
C 330.348141 158.978047 334.973972 155.887166 338.870214 151.990924 
C 342.766456 148.094682 345.857337 143.468852 347.965968 138.378166 
C 350.074599 133.287481 351.159972 127.830942 351.159972 122.320824 
" clip-path="url(#p154d0700dc)" style="fill: none; stroke: #b0b0b0; stroke-width: 0.8; stroke-linecap: square"/>
     </g>
     <g id="text_27">
      <!-- −15 -->
      <g transform="translate(347.965968 104.183794) scale(0.1 -0.1)">
       <use xlink:href="#DejaVuSans-2212"/>
       <use xlink:href="#DejaVuSans-31" x="83.789062"/>
       <use xlink:href="#DejaVuSans-35" x="147.412109"/>
      </g>
     </g>
    </g>
    <g id="ytick_11">
     <g id="line2d_28">
      <path d="M 364.227898 122.320824 
C 364.227898 115.094641 362.804497 107.938725 360.039157 101.262603 
C 357.273817 94.586481 353.220316 88.519987 348.110633 83.410305 
C 343.00095 78.300622 336.934457 74.247121 330.258335 71.48178 
C 323.582213 68.71644 316.426296 67.29304 309.200114 67.29304 
C 301.973931 67.29304 294.818014 68.71644 288.141892 71.48178 
C 281.46577 74.247121 275.399277 78.300622 270.289594 83.410305 
C 265.179912 88.519987 261.12641 94.586481 258.36107 101.262603 
C 255.59573 107.938725 254.172329 115.094641 254.172329 122.320824 
C 254.172329 129.547006 255.59573 136.702923 258.36107 143.379045 
C 261.12641 150.055167 265.179912 156.121661 270.289594 161.231343 
C 275.399277 166.341026 281.46577 170.394527 288.141892 173.159867 
C 294.818014 175.925208 301.973931 177.348608 309.200114 177.348608 
C 316.426296 177.348608 323.582213 175.925208 330.258335 173.159867 
C 336.934457 170.394527 343.00095 166.341026 348.110633 161.231343 
C 353.220316 156.121661 357.273817 150.055167 360.039157 143.379045 
C 362.804497 136.702923 364.227898 129.547006 364.227898 122.320824 
" clip-path="url(#p154d0700dc)" style="fill: none; stroke: #b0b0b0; stroke-width: 0.8; stroke-linecap: square"/>
     </g>
     <g id="text_28">
      <!-- −10 -->
      <g transform="translate(360.039157 99.182915) scale(0.1 -0.1)">
       <use xlink:href="#DejaVuSans-2212"/>
       <use xlink:href="#DejaVuSans-31" x="83.789062"/>
       <use xlink:href="#DejaVuSans-30" x="147.412109"/>
      </g>
     </g>
    </g>
    <g id="ytick_12">
     <g id="line2d_29">
      <path d="M 377.295824 122.320824 
C 377.295824 113.378577 375.534396 104.523282 372.112347 96.261724 
C 368.690297 88.000165 363.674175 80.493009 357.351052 74.169885 
C 351.027929 67.846762 343.520773 62.830641 335.259214 59.408591 
C 326.997655 55.986541 318.14236 54.225114 309.200114 54.225114 
C 300.257867 54.225114 291.402572 55.986541 283.141013 59.408591 
C 274.879455 62.830641 267.372298 67.846762 261.049175 74.169885 
C 254.726052 80.493009 249.70993 88.000165 246.287881 96.261724 
C 242.865831 104.523282 241.104403 113.378577 241.104403 122.320824 
C 241.104403 131.263071 242.865831 140.118365 246.287881 148.379924 
C 249.70993 156.641483 254.726052 164.148639 261.049175 170.471762 
C 267.372298 176.794886 274.879455 181.811007 283.141013 185.233057 
C 291.402572 188.655107 300.257867 190.416534 309.200114 190.416534 
C 318.14236 190.416534 326.997655 188.655107 335.259214 185.233057 
C 343.520773 181.811007 351.027929 176.794886 357.351052 170.471762 
C 363.674175 164.148639 368.690297 156.641483 372.112347 148.379924 
C 375.534396 140.118365 377.295824 131.263071 377.295824 122.320824 
" clip-path="url(#p154d0700dc)" style="fill: none; stroke: #b0b0b0; stroke-width: 0.8; stroke-linecap: square"/>
     </g>
     <g id="text_29">
      <!-- −5 -->
      <g transform="translate(372.112347 94.182036) scale(0.1 -0.1)">
       <use xlink:href="#DejaVuSans-2212"/>
       <use xlink:href="#DejaVuSans-35" x="83.789062"/>
      </g>
     </g>
    </g>
    <g id="ytick_13">
     <g id="line2d_30">
      <path d="M 390.36375 122.320824 
C 390.36375 111.662513 388.264295 101.10784 384.185536 91.260845 
C 380.106777 81.413849 374.128035 72.46603 366.591471 64.929466 
C 359.054907 57.392902 350.107088 51.414161 340.260093 47.335401 
C 330.413097 43.256642 319.858425 41.157188 309.200114 41.157188 
C 298.541803 41.157188 287.98713 43.256642 278.140135 47.335401 
C 268.293139 51.414161 259.34532 57.392902 251.808756 64.929466 
C 244.272192 72.46603 238.29345 81.413849 234.214691 91.260845 
C 230.135932 101.10784 228.036477 111.662513 228.036477 122.320824 
C 228.036477 132.979135 230.135932 143.533807 234.214691 153.380803 
C 238.29345 163.227798 244.272192 172.175617 251.808756 179.712182 
C 259.34532 187.248746 268.293139 193.227487 278.140135 197.306246 
C 287.98713 201.385005 298.541803 203.48446 309.200114 203.48446 
C 319.858425 203.48446 330.413097 201.385005 340.260093 197.306246 
C 350.107088 193.227487 359.054907 187.248746 366.591471 179.712182 
C 374.128035 172.175617 380.106777 163.227798 384.185536 153.380803 
C 388.264295 143.533807 390.36375 132.979135 390.36375 122.320824 
" clip-path="url(#p154d0700dc)" style="fill: none; stroke: #b0b0b0; stroke-width: 0.8; stroke-linecap: square"/>
     </g>
     <g id="text_30">
      <!-- 0 -->
      <g transform="translate(384.185536 89.181157) scale(0.1 -0.1)">
       <use xlink:href="#DejaVuSans-30"/>
      </g>
     </g>
    </g>
   </g>
   <g id="line2d_31">
    <path d="M 290.224913 144.934588 
L 292.101352 146.740387 
L 294.891424 147.104201 
L 298.141216 146.036706 
L 301.641551 143.087805 
L 304.403262 140.222916 
L 306.402999 138.18405 
L 308.073634 135.196546 
L 309.200114 132.41033 
L 310.046406 131.993985 
L 310.816844 131.489758 
L 310.920293 128.740622 
L 310.668159 126.354246 
L 310.901053 125.968501 
L 312.557432 128.135871 
L 313.501481 128.463814 
L 313.553622 127.509134 
L 314.391366 127.512077 
L 316.864641 128.752126 
L 322.832998 131.866672 
L 329.31781 133.935781 
L 337.282423 135.41582 
L 348.112195 136.483663 
L 364.739478 137.202552 
L 379.469345 134.711185 
L 387.287662 129.152599 
L 389.283058 122.320824 
L 387.018912 115.512561 
L 378.969353 110.018625 
L 368.211705 106.508716 
L 353.102418 106.341692 
L 340.788412 107.590958 
L 332.566117 108.830455 
L 322.918524 112.71509 
L 315.940766 116.664745 
L 312.026308 119.49463 
L 312.570698 118.303918 
L 311.554401 118.958553 
L 312.101474 117.295521 
L 310.913024 118.647475 
L 310.504398 118.737331 
L 310.820845 116.272172 
L 310.9376 112.467049 
L 310.068485 112.395292 
L 309.200114 112.852754 
L 308.188504 110.758073 
L 306.547161 107.275182 
L 304.383022 104.343194 
L 301.673378 101.641288 
L 298.277261 98.896691 
L 295.115264 97.925148 
L 291.849098 97.541006 
L 288.775661 97.979909 
" clip-path="url(#p154d0700dc)" style="fill: none; stroke: #1f77b4; stroke-width: 1.5; stroke-linecap: square"/>
   </g>
   <g id="patch_5">
    <path d="M 390.36375 122.320824 
C 390.36375 111.662513 388.264295 101.10784 384.185536 91.260845 
C 380.106777 81.413849 374.128035 72.46603 366.591471 64.929466 
C 359.054907 57.392902 350.107088 51.414161 340.260093 47.335401 
C 330.413097 43.256642 319.858425 41.157188 309.200114 41.157188 
C 298.541803 41.157188 287.98713 43.256642 278.140135 47.335401 
C 268.293139 51.414161 259.34532 57.392902 251.808756 64.929466 
C 244.272192 72.46603 238.29345 81.413849 234.214691 91.260845 
C 230.135932 101.10784 228.036477 111.662513 228.036477 122.320824 
C 228.036477 132.979135 230.135932 143.533807 234.214691 153.380803 
C 238.29345 163.227798 244.272192 172.175617 251.808756 179.712182 
C 259.34532 187.248746 268.293139 193.227487 278.140135 197.306246 
C 287.98713 201.385005 298.541803 203.48446 309.200114 203.48446 
C 319.858425 203.48446 330.413097 201.385005 340.260093 197.306246 
C 350.107088 193.227487 359.054907 187.248746 366.591471 179.712182 
C 374.128035 172.175617 380.106777 163.227798 384.185536 153.380803 
C 388.264295 143.533807 390.36375 132.979135 390.36375 122.320824 
" style="fill: none; stroke: #000000; stroke-width: 0.8; stroke-linejoin: miter; stroke-linecap: square"/>
   </g>
   <g id="text_31">
    <!-- H-Plane (Phi = 90.0) -->
    <g transform="translate(248.190426 16.318125) scale(0.12 -0.12)">
     <defs>
      <path id="DejaVuSans-48" d="M 628 4666 
L 1259 4666 
L 1259 2753 
L 3553 2753 
L 3553 4666 
L 4184 4666 
L 4184 0 
L 3553 0 
L 3553 2222 
L 1259 2222 
L 1259 0 
L 628 0 
L 628 4666 
z
" transform="scale(0.015625)"/>
     </defs>
     <use xlink:href="#DejaVuSans-48"/>
     <use xlink:href="#DejaVuSans-2d" x="75.195312"/>
     <use xlink:href="#DejaVuSans-50" x="111.279297"/>
     <use xlink:href="#DejaVuSans-6c" x="171.582031"/>
     <use xlink:href="#DejaVuSans-61" x="199.365234"/>
     <use xlink:href="#DejaVuSans-6e" x="260.644531"/>
     <use xlink:href="#DejaVuSans-65" x="324.023438"/>
     <use xlink:href="#DejaVuSans-20" x="385.546875"/>
     <use xlink:href="#DejaVuSans-28" x="417.333984"/>
     <use xlink:href="#DejaVuSans-50" x="456.347656"/>
     <use xlink:href="#DejaVuSans-68" x="516.650391"/>
     <use xlink:href="#DejaVuSans-69" x="580.029297"/>
     <use xlink:href="#DejaVuSans-20" x="607.8125"/>
     <use xlink:href="#DejaVuSans-3d" x="639.599609"/>
     <use xlink:href="#DejaVuSans-20" x="723.388672"/>
     <use xlink:href="#DejaVuSans-39" x="755.175781"/>
     <use xlink:href="#DejaVuSans-30" x="818.798828"/>
     <use xlink:href="#DejaVuSans-2e" x="882.421875"/>
     <use xlink:href="#DejaVuSans-30" x="914.208984"/>
     <use xlink:href="#DejaVuSans-29" x="977.832031"/>
    </g>
   </g>
  </g>
 </g>
 <defs>
  <clipPath id="p1a8a95408e">
   <path d="M 195.571023 122.320824 
C 195.571023 111.662513 193.471568 101.10784 189.392809 91.260845 
C 185.31405 81.413849 179.335308 72.46603 171.798744 64.929466 
C 164.26218 57.392902 155.314361 51.414161 145.467365 47.335401 
C 135.62037 43.256642 125.065697 41.157188 114.407386 41.157188 
C 103.749075 41.157188 93.194403 43.256642 83.347407 47.335401 
C 73.500412 51.414161 64.552593 57.392902 57.016029 64.929466 
C 49.479465 72.46603 43.500723 81.413849 39.421964 91.260845 
C 35.343205 101.10784 33.24375 111.662513 33.24375 122.320824 
C 33.24375 132.979135 35.343205 143.533807 39.421964 153.380803 
C 43.500723 163.227798 49.479465 172.175617 57.016029 179.712182 
C 64.552593 187.248746 73.500412 193.227487 83.347407 197.306246 
C 93.194403 201.385005 103.749075 203.48446 114.407386 203.48446 
C 125.065697 203.48446 135.62037 201.385005 145.467365 197.306246 
C 155.314361 193.227487 164.26218 187.248746 171.798744 179.712182 
C 179.335308 172.175617 185.31405 163.227798 189.392809 153.380803 
C 193.471568 143.533807 195.571023 132.979135 195.571023 122.320824 
M 114.407386 122.320824 
C 114.407386 122.320824 114.407386 122.320824 114.407386 122.320824 
C 114.407386 122.320824 114.407386 122.320824 114.407386 122.320824 
C 114.407386 122.320824 114.407386 122.320824 114.407386 122.320824 
C 114.407386 122.320824 114.407386 122.320824 114.407386 122.320824 
C 114.407386 122.320824 114.407386 122.320824 114.407386 122.320824 
C 114.407386 122.320824 114.407386 122.320824 114.407386 122.320824 
C 114.407386 122.320824 114.407386 122.320824 114.407386 122.320824 
C 114.407386 122.320824 114.407386 122.320824 114.407386 122.320824 
C 114.407386 122.320824 114.407386 122.320824 114.407386 122.320824 
C 114.407386 122.320824 114.407386 122.320824 114.407386 122.320824 
C 114.407386 122.320824 114.407386 122.320824 114.407386 122.320824 
C 114.407386 122.320824 114.407386 122.320824 114.407386 122.320824 
C 114.407386 122.320824 114.407386 122.320824 114.407386 122.320824 
C 114.407386 122.320824 114.407386 122.320824 114.407386 122.320824 
C 114.407386 122.320824 114.407386 122.320824 114.407386 122.320824 
C 114.407386 122.320824 114.407386 122.320824 114.407386 122.320824 
z
"/>
  </clipPath>
  <clipPath id="p154d0700dc">
   <path d="M 390.36375 122.320824 
C 390.36375 111.662513 388.264295 101.10784 384.185536 91.260845 
C 380.106777 81.413849 374.128035 72.46603 366.591471 64.929466 
C 359.054907 57.392902 350.107088 51.414161 340.260093 47.335401 
C 330.413097 43.256642 319.858425 41.157188 309.200114 41.157188 
C 298.541803 41.157188 287.98713 43.256642 278.140135 47.335401 
C 268.293139 51.414161 259.34532 57.392902 251.808756 64.929466 
C 244.272192 72.46603 238.29345 81.413849 234.214691 91.260845 
C 230.135932 101.10784 228.036477 111.662513 228.036477 122.320824 
C 228.036477 132.979135 230.135932 143.533807 234.214691 153.380803 
C 238.29345 163.227798 244.272192 172.175617 251.808756 179.712182 
C 259.34532 187.248746 268.293139 193.227487 278.140135 197.306246 
C 287.98713 201.385005 298.541803 203.48446 309.200114 203.48446 
C 319.858425 203.48446 330.413097 201.385005 340.260093 197.306246 
C 350.107088 193.227487 359.054907 187.248746 366.591471 179.712182 
C 374.128035 172.175617 380.106777 163.227798 384.185536 153.380803 
C 388.264295 143.533807 390.36375 132.979135 390.36375 122.320824 
M 309.200114 122.320824 
C 309.200114 122.320824 309.200114 122.320824 309.200114 122.320824 
C 309.200114 122.320824 309.200114 122.320824 309.200114 122.320824 
C 309.200114 122.320824 309.200114 122.320824 309.200114 122.320824 
C 309.200114 122.320824 309.200114 122.320824 309.200114 122.320824 
C 309.200114 122.320824 309.200114 122.320824 309.200114 122.320824 
C 309.200114 122.320824 309.200114 122.320824 309.200114 122.320824 
C 309.200114 122.320824 309.200114 122.320824 309.200114 122.320824 
C 309.200114 122.320824 309.200114 122.320824 309.200114 122.320824 
C 309.200114 122.320824 309.200114 122.320824 309.200114 122.320824 
C 309.200114 122.320824 309.200114 122.320824 309.200114 122.320824 
C 309.200114 122.320824 309.200114 122.320824 309.200114 122.320824 
C 309.200114 122.320824 309.200114 122.320824 309.200114 122.320824 
C 309.200114 122.320824 309.200114 122.320824 309.200114 122.320824 
C 309.200114 122.320824 309.200114 122.320824 309.200114 122.320824 
C 309.200114 122.320824 309.200114 122.320824 309.200114 122.320824 
C 309.200114 122.320824 309.200114 122.320824 309.200114 122.320824 
z
"/>
  </clipPath>
 </defs>
</svg>
