<?xml version="1.0" encoding="utf-8" standalone="no"?>
<!DOCTYPE svg PUBLIC "-//W3C//DTD SVG 1.1//EN"
  "http://www.w3.org/Graphics/SVG/1.1/DTD/svg11.dtd">
<svg xmlns:xlink="http://www.w3.org/1999/xlink" width="488.904687pt" height="614.274375pt" viewBox="0 0 488.904687 614.274375" xmlns="http://www.w3.org/2000/svg" version="1.1">
 <metadata>
  <rdf:RDF xmlns:dc="http://purl.org/dc/elements/1.1/" xmlns:cc="http://creativecommons.org/ns#" xmlns:rdf="http://www.w3.org/1999/02/22-rdf-syntax-ns#">
   <cc:Work>
    <dc:type rdf:resource="http://purl.org/dc/dcmitype/StillImage"/>
    <dc:date>2024-12-11T17:25:26.753739</dc:date>
    <dc:format>image/svg+xml</dc:format>
    <dc:creator>
     <cc:Agent>
      <dc:title>Matplotlib v3.7.1, https://matplotlib.org/</dc:title>
     </cc:Agent>
    </dc:creator>
   </cc:Work>
  </rdf:RDF>
 </metadata>
 <defs>
  <style type="text/css">*{stroke-linejoin: round; stroke-linecap: butt}</style>
 </defs>
 <g id="figure_1">
  <g id="patch_1">
   <path d="M 0 614.274375 
L 488.904687 614.274375 
L 488.904687 0 
L 0 0 
z
" style="fill: #ffffff"/>
  </g>
  <g id="axes_1">
   <g id="patch_2">
    <path d="M 35.304688 274.318125 
L 481.704687 274.318125 
L 481.704687 22.318125 
L 35.304688 22.318125 
z
" style="fill: #ffffff"/>
   </g>
   <g id="matplotlib.axis_1">
    <g id="xtick_1">
     <g id="line2d_1">
      <path d="M 102.420771 274.318125 
L 102.420771 22.318125 
" clip-path="url(#p949ae7c001)" style="fill: none; stroke: #b0b0b0; stroke-width: 0.8; stroke-linecap: square"/>
     </g>
     <g id="line2d_2">
      <defs>
       <path id="m5f2c0d87e1" d="M 0 0 
L 0 3.5 
" style="stroke: #000000; stroke-width: 0.8"/>
      </defs>
      <g>
       <use xlink:href="#m5f2c0d87e1" x="102.420771" y="274.318125" style="stroke: #000000; stroke-width: 0.8"/>
      </g>
     </g>
     <g id="text_1">
      <!-- −100 -->
      <g transform="translate(88.687178 288.916562) scale(0.1 -0.1)">
       <defs>
        <path id="DejaVuSans-2212" d="M 678 2272 
L 4684 2272 
L 4684 1741 
L 678 1741 
L 678 2272 
z
" transform="scale(0.015625)"/>
        <path id="DejaVuSans-31" d="M 794 531 
L 1825 531 
L 1825 4091 
L 703 3866 
L 703 4441 
L 1819 4666 
L 2450 4666 
L 2450 531 
L 3481 531 
L 3481 0 
L 794 0 
L 794 531 
z
" transform="scale(0.015625)"/>
        <path id="DejaVuSans-30" d="M 2034 4250 
Q 1547 4250 1301 3770 
Q 1056 3291 1056 2328 
Q 1056 1369 1301 889 
Q 1547 409 2034 409 
Q 2525 409 2770 889 
Q 3016 1369 3016 2328 
Q 3016 3291 2770 3770 
Q 2525 4250 2034 4250 
z
M 2034 4750 
Q 2819 4750 3233 4129 
Q 3647 3509 3647 2328 
Q 3647 1150 3233 529 
Q 2819 -91 2034 -91 
Q 1250 -91 836 529 
Q 422 1150 422 2328 
Q 422 3509 836 4129 
Q 1250 4750 2034 4750 
z
" transform="scale(0.015625)"/>
       </defs>
       <use xlink:href="#DejaVuSans-2212"/>
       <use xlink:href="#DejaVuSans-31" x="83.789062"/>
       <use xlink:href="#DejaVuSans-30" x="147.412109"/>
       <use xlink:href="#DejaVuSans-30" x="211.035156"/>
      </g>
     </g>
    </g>
    <g id="xtick_2">
     <g id="line2d_3">
      <path d="M 180.462729 274.318125 
L 180.462729 22.318125 
" clip-path="url(#p949ae7c001)" style="fill: none; stroke: #b0b0b0; stroke-width: 0.8; stroke-linecap: square"/>
     </g>
     <g id="line2d_4">
      <g>
       <use xlink:href="#m5f2c0d87e1" x="180.462729" y="274.318125" style="stroke: #000000; stroke-width: 0.8"/>
      </g>
     </g>
     <g id="text_2">
      <!-- −50 -->
      <g transform="translate(169.910386 288.916562) scale(0.1 -0.1)">
       <defs>
        <path id="DejaVuSans-35" d="M 691 4666 
L 3169 4666 
L 3169 4134 
L 1269 4134 
L 1269 2991 
Q 1406 3038 1543 3061 
Q 1681 3084 1819 3084 
Q 2600 3084 3056 2656 
Q 3513 2228 3513 1497 
Q 3513 744 3044 326 
Q 2575 -91 1722 -91 
Q 1428 -91 1123 -41 
Q 819 9 494 109 
L 494 744 
Q 775 591 1075 516 
Q 1375 441 1709 441 
Q 2250 441 2565 725 
Q 2881 1009 2881 1497 
Q 2881 1984 2565 2268 
Q 2250 2553 1709 2553 
Q 1456 2553 1204 2497 
Q 953 2441 691 2322 
L 691 4666 
z
" transform="scale(0.015625)"/>
       </defs>
       <use xlink:href="#DejaVuSans-2212"/>
       <use xlink:href="#DejaVuSans-35" x="83.789062"/>
       <use xlink:href="#DejaVuSans-30" x="147.412109"/>
      </g>
     </g>
    </g>
    <g id="xtick_3">
     <g id="line2d_5">
      <path d="M 258.504687 274.318125 
L 258.504687 22.318125 
" clip-path="url(#p949ae7c001)" style="fill: none; stroke: #b0b0b0; stroke-width: 0.8; stroke-linecap: square"/>
     </g>
     <g id="line2d_6">
      <g>
       <use xlink:href="#m5f2c0d87e1" x="258.504687" y="274.318125" style="stroke: #000000; stroke-width: 0.8"/>
      </g>
     </g>
     <g id="text_3">
      <!-- 0 -->
      <g transform="translate(255.323437 288.916562) scale(0.1 -0.1)">
       <use xlink:href="#DejaVuSans-30"/>
      </g>
     </g>
    </g>
    <g id="xtick_4">
     <g id="line2d_7">
      <path d="M 336.546646 274.318125 
L 336.546646 22.318125 
" clip-path="url(#p949ae7c001)" style="fill: none; stroke: #b0b0b0; stroke-width: 0.8; stroke-linecap: square"/>
     </g>
     <g id="line2d_8">
      <g>
       <use xlink:href="#m5f2c0d87e1" x="336.546646" y="274.318125" style="stroke: #000000; stroke-width: 0.8"/>
      </g>
     </g>
     <g id="text_4">
      <!-- 50 -->
      <g transform="translate(330.184146 288.916562) scale(0.1 -0.1)">
       <use xlink:href="#DejaVuSans-35"/>
       <use xlink:href="#DejaVuSans-30" x="63.623047"/>
      </g>
     </g>
    </g>
    <g id="xtick_5">
     <g id="line2d_9">
      <path d="M 414.588604 274.318125 
L 414.588604 22.318125 
" clip-path="url(#p949ae7c001)" style="fill: none; stroke: #b0b0b0; stroke-width: 0.8; stroke-linecap: square"/>
     </g>
     <g id="line2d_10">
      <g>
       <use xlink:href="#m5f2c0d87e1" x="414.588604" y="274.318125" style="stroke: #000000; stroke-width: 0.8"/>
      </g>
     </g>
     <g id="text_5">
      <!-- 100 -->
      <g transform="translate(405.044854 288.916562) scale(0.1 -0.1)">
       <use xlink:href="#DejaVuSans-31"/>
       <use xlink:href="#DejaVuSans-30" x="63.623047"/>
       <use xlink:href="#DejaVuSans-30" x="127.246094"/>
      </g>
     </g>
    </g>
    <g id="text_6">
     <!-- Theta -->
     <g transform="translate(244.18125 302.594687) scale(0.1 -0.1)">
      <defs>
       <path id="DejaVuSans-54" d="M -19 4666 
L 3928 4666 
L 3928 4134 
L 2272 4134 
L 2272 0 
L 1638 0 
L 1638 4134 
L -19 4134 
L -19 4666 
z
" transform="scale(0.015625)"/>
       <path id="DejaVuSans-68" d="M 3513 2113 
L 3513 0 
L 2938 0 
L 2938 2094 
Q 2938 2591 2744 2837 
Q 2550 3084 2163 3084 
Q 1697 3084 1428 2787 
Q 1159 2491 1159 1978 
L 1159 0 
L 581 0 
L 581 4863 
L 1159 4863 
L 1159 2956 
Q 1366 3272 1645 3428 
Q 1925 3584 2291 3584 
Q 2894 3584 3203 3211 
Q 3513 2838 3513 2113 
z
" transform="scale(0.015625)"/>
       <path id="DejaVuSans-65" d="M 3597 1894 
L 3597 1613 
L 953 1613 
Q 991 1019 1311 708 
Q 1631 397 2203 397 
Q 2534 397 2845 478 
Q 3156 559 3463 722 
L 3463 178 
Q 3153 47 2828 -22 
Q 2503 -91 2169 -91 
Q 1331 -91 842 396 
Q 353 884 353 1716 
Q 353 2575 817 3079 
Q 1281 3584 2069 3584 
Q 2775 3584 3186 3129 
Q 3597 2675 3597 1894 
z
M 3022 2063 
Q 3016 2534 2758 2815 
Q 2500 3097 2075 3097 
Q 1594 3097 1305 2825 
Q 1016 2553 972 2059 
L 3022 2063 
z
" transform="scale(0.015625)"/>
       <path id="DejaVuSans-74" d="M 1172 4494 
L 1172 3500 
L 2356 3500 
L 2356 3053 
L 1172 3053 
L 1172 1153 
Q 1172 725 1289 603 
Q 1406 481 1766 481 
L 2356 481 
L 2356 0 
L 1766 0 
Q 1100 0 847 248 
Q 594 497 594 1153 
L 594 3053 
L 172 3053 
L 172 3500 
L 594 3500 
L 594 4494 
L 1172 4494 
z
" transform="scale(0.015625)"/>
       <path id="DejaVuSans-61" d="M 2194 1759 
Q 1497 1759 1228 1600 
Q 959 1441 959 1056 
Q 959 750 1161 570 
Q 1363 391 1709 391 
Q 2188 391 2477 730 
Q 2766 1069 2766 1631 
L 2766 1759 
L 2194 1759 
z
M 3341 1997 
L 3341 0 
L 2766 0 
L 2766 531 
Q 2569 213 2275 61 
Q 1981 -91 1556 -91 
Q 1019 -91 701 211 
Q 384 513 384 1019 
Q 384 1609 779 1909 
Q 1175 2209 1959 2209 
L 2766 2209 
L 2766 2266 
Q 2766 2663 2505 2880 
Q 2244 3097 1772 3097 
Q 1472 3097 1187 3025 
Q 903 2953 641 2809 
L 641 3341 
Q 956 3463 1253 3523 
Q 1550 3584 1831 3584 
Q 2591 3584 2966 3190 
Q 3341 2797 3341 1997 
z
" transform="scale(0.015625)"/>
      </defs>
      <use xlink:href="#DejaVuSans-54"/>
      <use xlink:href="#DejaVuSans-68" x="61.083984"/>
      <use xlink:href="#DejaVuSans-65" x="124.462891"/>
      <use xlink:href="#DejaVuSans-74" x="185.986328"/>
      <use xlink:href="#DejaVuSans-61" x="225.195312"/>
     </g>
    </g>
   </g>
   <g id="matplotlib.axis_2">
    <g id="ytick_1">
     <g id="line2d_11">
      <path d="M 35.304688 245.335084 
L 481.704687 245.335084 
" clip-path="url(#p949ae7c001)" style="fill: none; stroke: #b0b0b0; stroke-width: 0.8; stroke-linecap: square"/>
     </g>
     <g id="line2d_12">
      <defs>
       <path id="m4fb7bcf958" d="M 0 0 
L -3.5 0 
" style="stroke: #000000; stroke-width: 0.8"/>
      </defs>
      <g>
       <use xlink:href="#m4fb7bcf958" x="35.304688" y="245.335084" style="stroke: #000000; stroke-width: 0.8"/>
      </g>
     </g>
     <g id="text_7">
      <!-- −30 -->
      <g transform="translate(7.2 249.134303) scale(0.1 -0.1)">
       <defs>
        <path id="DejaVuSans-33" d="M 2597 2516 
Q 3050 2419 3304 2112 
Q 3559 1806 3559 1356 
Q 3559 666 3084 287 
Q 2609 -91 1734 -91 
Q 1441 -91 1130 -33 
Q 819 25 488 141 
L 488 750 
Q 750 597 1062 519 
Q 1375 441 1716 441 
Q 2309 441 2620 675 
Q 2931 909 2931 1356 
Q 2931 1769 2642 2001 
Q 2353 2234 1838 2234 
L 1294 2234 
L 1294 2753 
L 1863 2753 
Q 2328 2753 2575 2939 
Q 2822 3125 2822 3475 
Q 2822 3834 2567 4026 
Q 2313 4219 1838 4219 
Q 1578 4219 1281 4162 
Q 984 4106 628 3988 
L 628 4550 
Q 988 4650 1302 4700 
Q 1616 4750 1894 4750 
Q 2613 4750 3031 4423 
Q 3450 4097 3450 3541 
Q 3450 3153 3228 2886 
Q 3006 2619 2597 2516 
z
" transform="scale(0.015625)"/>
       </defs>
       <use xlink:href="#DejaVuSans-2212"/>
       <use xlink:href="#DejaVuSans-33" x="83.789062"/>
       <use xlink:href="#DejaVuSans-30" x="147.412109"/>
      </g>
     </g>
    </g>
    <g id="ytick_2">
     <g id="line2d_13">
      <path d="M 35.304688 210.074682 
L 481.704687 210.074682 
" clip-path="url(#p949ae7c001)" style="fill: none; stroke: #b0b0b0; stroke-width: 0.8; stroke-linecap: square"/>
     </g>
     <g id="line2d_14">
      <g>
       <use xlink:href="#m4fb7bcf958" x="35.304688" y="210.074682" style="stroke: #000000; stroke-width: 0.8"/>
      </g>
     </g>
     <g id="text_8">
      <!-- −25 -->
      <g transform="translate(7.2 213.8739) scale(0.1 -0.1)">
       <defs>
        <path id="DejaVuSans-32" d="M 1228 531 
L 3431 531 
L 3431 0 
L 469 0 
L 469 531 
Q 828 903 1448 1529 
Q 2069 2156 2228 2338 
Q 2531 2678 2651 2914 
Q 2772 3150 2772 3378 
Q 2772 3750 2511 3984 
Q 2250 4219 1831 4219 
Q 1534 4219 1204 4116 
Q 875 4013 500 3803 
L 500 4441 
Q 881 4594 1212 4672 
Q 1544 4750 1819 4750 
Q 2544 4750 2975 4387 
Q 3406 4025 3406 3419 
Q 3406 3131 3298 2873 
Q 3191 2616 2906 2266 
Q 2828 2175 2409 1742 
Q 1991 1309 1228 531 
z
" transform="scale(0.015625)"/>
       </defs>
       <use xlink:href="#DejaVuSans-2212"/>
       <use xlink:href="#DejaVuSans-32" x="83.789062"/>
       <use xlink:href="#DejaVuSans-35" x="147.412109"/>
      </g>
     </g>
    </g>
    <g id="ytick_3">
     <g id="line2d_15">
      <path d="M 35.304688 174.814279 
L 481.704687 174.814279 
" clip-path="url(#p949ae7c001)" style="fill: none; stroke: #b0b0b0; stroke-width: 0.8; stroke-linecap: square"/>
     </g>
     <g id="line2d_16">
      <g>
       <use xlink:href="#m4fb7bcf958" x="35.304688" y="174.814279" style="stroke: #000000; stroke-width: 0.8"/>
      </g>
     </g>
     <g id="text_9">
      <!-- −20 -->
      <g transform="translate(7.2 178.613498) scale(0.1 -0.1)">
       <use xlink:href="#DejaVuSans-2212"/>
       <use xlink:href="#DejaVuSans-32" x="83.789062"/>
       <use xlink:href="#DejaVuSans-30" x="147.412109"/>
      </g>
     </g>
    </g>
    <g id="ytick_4">
     <g id="line2d_17">
      <path d="M 35.304688 139.553877 
L 481.704687 139.553877 
" clip-path="url(#p949ae7c001)" style="fill: none; stroke: #b0b0b0; stroke-width: 0.8; stroke-linecap: square"/>
     </g>
     <g id="line2d_18">
      <g>
       <use xlink:href="#m4fb7bcf958" x="35.304688" y="139.553877" style="stroke: #000000; stroke-width: 0.8"/>
      </g>
     </g>
     <g id="text_10">
      <!-- −15 -->
      <g transform="translate(7.2 143.353096) scale(0.1 -0.1)">
       <use xlink:href="#DejaVuSans-2212"/>
       <use xlink:href="#DejaVuSans-31" x="83.789062"/>
       <use xlink:href="#DejaVuSans-35" x="147.412109"/>
      </g>
     </g>
    </g>
    <g id="ytick_5">
     <g id="line2d_19">
      <path d="M 35.304688 104.293475 
L 481.704687 104.293475 
" clip-path="url(#p949ae7c001)" style="fill: none; stroke: #b0b0b0; stroke-width: 0.8; stroke-linecap: square"/>
     </g>
     <g id="line2d_20">
      <g>
       <use xlink:href="#m4fb7bcf958" x="35.304688" y="104.293475" style="stroke: #000000; stroke-width: 0.8"/>
      </g>
     </g>
     <g id="text_11">
      <!-- −10 -->
      <g transform="translate(7.2 108.092694) scale(0.1 -0.1)">
       <use xlink:href="#DejaVuSans-2212"/>
       <use xlink:href="#DejaVuSans-31" x="83.789062"/>
       <use xlink:href="#DejaVuSans-30" x="147.412109"/>
      </g>
     </g>
    </g>
    <g id="ytick_6">
     <g id="line2d_21">
      <path d="M 35.304688 69.033073 
L 481.704687 69.033073 
" clip-path="url(#p949ae7c001)" style="fill: none; stroke: #b0b0b0; stroke-width: 0.8; stroke-linecap: square"/>
     </g>
     <g id="line2d_22">
      <g>
       <use xlink:href="#m4fb7bcf958" x="35.304688" y="69.033073" style="stroke: #000000; stroke-width: 0.8"/>
      </g>
     </g>
     <g id="text_12">
      <!-- −5 -->
      <g transform="translate(13.5625 72.832291) scale(0.1 -0.1)">
       <use xlink:href="#DejaVuSans-2212"/>
       <use xlink:href="#DejaVuSans-35" x="83.789062"/>
      </g>
     </g>
    </g>
    <g id="ytick_7">
     <g id="line2d_23">
      <path d="M 35.304688 33.77267 
L 481.704687 33.77267 
" clip-path="url(#p949ae7c001)" style="fill: none; stroke: #b0b0b0; stroke-width: 0.8; stroke-linecap: square"/>
     </g>
     <g id="line2d_24">
      <g>
       <use xlink:href="#m4fb7bcf958" x="35.304688" y="33.77267" style="stroke: #000000; stroke-width: 0.8"/>
      </g>
     </g>
     <g id="text_13">
      <!-- 0 -->
      <g transform="translate(21.942187 37.571889) scale(0.1 -0.1)">
       <use xlink:href="#DejaVuSans-30"/>
      </g>
     </g>
    </g>
   </g>
   <g id="line2d_25">
    <path d="M 55.595597 169.325876 
L 63.399792 174.231229 
L 71.203988 175.332654 
L 79.008184 181.908295 
L 86.81238 194.654091 
L 94.616576 202.304899 
L 102.420771 208.798555 
L 110.224967 216.777751 
L 118.029163 227.387961 
L 125.833359 225.783779 
L 133.637555 226.196562 
L 141.44175 233.57607 
L 149.245946 246.363707 
L 157.050142 242.961209 
L 164.854338 233.928468 
L 172.658534 231.753943 
L 180.462729 233.937724 
L 188.266925 241.316064 
L 196.071121 237.558823 
L 203.875317 198.442137 
L 211.679513 175.792107 
L 219.483708 167.524665 
L 227.287904 133.49255 
L 235.0921 89.492483 
L 242.896296 56.988769 
L 250.700492 40.06936 
L 258.504687 33.77267 
L 266.308883 41.494784 
L 274.113079 59.426419 
L 281.917275 94.037474 
L 289.721471 139.702815 
L 297.525667 171.546372 
L 305.329862 178.554898 
L 313.134058 200.157859 
L 320.938254 240.951542 
L 328.74245 241.714571 
L 336.546646 234.93408 
L 344.350841 233.130114 
L 352.155037 234.615843 
L 359.959233 243.007205 
L 367.763429 244.932304 
L 375.567625 232.405698 
L 383.37182 226.145622 
L 391.176016 225.598446 
L 398.980212 226.55489 
L 406.784408 215.320011 
L 414.588604 207.511182 
L 422.392799 201.379856 
L 430.196995 192.605071 
L 438.001191 179.886829 
L 445.805387 174.389127 
L 453.609583 174.026155 
L 461.413778 166.269603 
" clip-path="url(#p949ae7c001)" style="fill: none; stroke: #1f77b4; stroke-opacity: 0.7; stroke-width: 1.5; stroke-linecap: square"/>
   </g>
   <g id="line2d_26">
    <path d="M 55.595597 165.492972 
L 63.399792 175.231375 
L 71.203988 173.373431 
L 79.008184 182.911643 
L 86.81238 194.257719 
L 94.616576 202.298964 
L 102.420771 207.735902 
L 110.224967 216.678945 
L 118.029163 226.745203 
L 125.833359 226.187391 
L 133.637555 224.18954 
L 141.44175 234.313788 
L 149.245946 245.450626 
L 157.050142 243.980968 
L 164.854338 234.211877 
L 172.658534 230.412522 
L 180.462729 231.753857 
L 188.266925 241.915095 
L 196.071121 237.451957 
L 203.875317 202.647087 
L 211.679513 191.051973 
L 219.483708 164.108433 
L 227.287904 133.443064 
L 235.0921 92.271832 
L 242.896296 56.769821 
L 250.700492 38.600528 
L 258.504687 33.77267 
L 266.308883 42.257271 
L 274.113079 60.389066 
L 281.917275 94.972612 
L 289.721471 136.529132 
L 297.525667 173.092261 
L 305.329862 182.986606 
L 313.134058 196.205472 
L 320.938254 249.685128 
L 328.74245 231.234732 
L 336.546646 239.446596 
L 344.350841 236.460312 
L 352.155037 230.236116 
L 359.959233 247.255458 
L 367.763429 242.591509 
L 375.567625 234.126124 
L 383.37182 223.428458 
L 391.176016 228.889314 
L 398.980212 223.620662 
L 406.784408 218.739471 
L 414.588604 204.74349 
L 422.392799 203.882304 
L 430.196995 190.883245 
L 438.001191 181.986418 
L 445.805387 172.637008 
L 453.609583 175.164151 
L 461.413778 166.164153 
" clip-path="url(#p949ae7c001)" style="fill: none; stroke: #ff7f0e; stroke-opacity: 0.7; stroke-width: 1.5; stroke-linecap: square"/>
   </g>
   <g id="line2d_27">
    <path d="M 55.595597 169.039441 
L 63.399792 174.162229 
L 71.203988 175.112587 
L 79.008184 181.969201 
L 86.81238 194.524552 
L 94.616576 202.263234 
L 102.420771 208.544264 
L 110.224967 216.903523 
L 118.029163 227.172907 
L 125.833359 225.741467 
L 133.637555 226.05058 
L 141.44175 233.619953 
L 149.245946 246.033163 
L 157.050142 243.160689 
L 164.854338 233.898179 
L 172.658534 231.596552 
L 180.462729 233.620894 
L 188.266925 241.59034 
L 196.071121 238.08289 
L 203.875317 197.326511 
L 211.679513 175.531241 
L 219.483708 167.757514 
L 227.287904 133.463056 
L 235.0921 89.374954 
L 242.896296 57.048931 
L 250.700492 40.101631 
L 258.504687 33.77267 
L 266.308883 41.44878 
L 274.113079 59.386423 
L 281.917275 93.987543 
L 289.721471 140.018599 
L 297.525667 171.268919 
L 305.329862 177.777851 
L 313.134058 199.834001 
L 320.938254 241.690612 
L 328.74245 241.317009 
L 336.546646 234.99836 
L 344.350841 232.94879 
L 352.155037 234.361825 
L 359.959233 243.024939 
L 367.763429 244.840055 
L 375.567625 232.451974 
L 383.37182 225.895867 
L 391.176016 225.622231 
L 398.980212 226.354489 
L 406.784408 215.270574 
L 414.588604 207.301868 
L 422.392799 201.316082 
L 430.196995 192.555953 
L 438.001191 179.872611 
L 445.805387 174.236732 
L 453.609583 174.104322 
L 461.413778 166.314369 
" clip-path="url(#p949ae7c001)" style="fill: none; stroke: #2ca02c; stroke-opacity: 0.7; stroke-width: 1.5; stroke-linecap: square"/>
   </g>
   <g id="line2d_28">
    <path d="M 55.595597 168.07803 
L 63.399792 176.937077 
L 71.203988 175.754965 
L 79.008184 181.219156 
L 86.81238 196.398943 
L 94.616576 204.276163 
L 102.420771 209.861488 
L 110.224967 219.284241 
L 118.029163 226.473143 
L 125.833359 229.036973 
L 133.637555 225.895434 
L 141.44175 235.042487 
L 149.245946 244.796771 
L 157.050142 241.337538 
L 164.854338 233.218069 
L 172.658534 236.249601 
L 180.462729 220.385709 
L 188.266925 241.900379 
L 196.071121 232.629518 
L 203.875317 197.927737 
L 211.679513 185.250894 
L 219.483708 164.884649 
L 227.287904 138.273247 
L 235.0921 92.021556 
L 242.896296 58.573516 
L 250.700492 40.658238 
L 258.504687 33.77267 
L 266.308883 42.070651 
L 274.113079 60.303813 
L 281.917275 92.422585 
L 289.721471 136.053487 
L 297.525667 188.630367 
L 305.329862 169.362349 
L 313.134058 193.707487 
L 320.938254 252.042164 
L 328.74245 238.532635 
L 336.546646 242.283822 
L 344.350841 232.092557 
L 352.155037 234.834706 
L 359.959233 241.38205 
L 367.763429 246.215685 
L 375.567625 232.378323 
L 383.37182 226.85113 
L 391.176016 225.022158 
L 398.980212 228.044507 
L 406.784408 212.875321 
L 414.588604 209.539082 
L 422.392799 199.873929 
L 430.196995 196.32288 
L 438.001191 176.265876 
L 445.805387 177.392623 
L 453.609583 167.228837 
L 461.413778 171.711015 
" clip-path="url(#p949ae7c001)" style="fill: none; stroke: #d62728; stroke-opacity: 0.7; stroke-width: 1.5; stroke-linecap: square"/>
   </g>
   <g id="line2d_29">
    <path d="M 55.595597 174.687876 
L 63.399792 175.353069 
L 71.203988 180.154159 
L 79.008184 179.453875 
L 86.81238 202.757453 
L 94.616576 199.346935 
L 102.420771 212.22824 
L 110.224967 218.634801 
L 118.029163 227.080511 
L 125.833359 228.194453 
L 133.637555 225.206211 
L 141.44175 237.294565 
L 149.245946 250.295529 
L 157.050142 241.861569 
L 164.854338 232.726019 
L 172.658534 247.474133 
L 180.462729 227.728935 
L 188.266925 219.00758 
L 196.071121 244.536269 
L 203.875317 167.13038 
L 211.679513 174.515952 
L 219.483708 175.146244 
L 227.287904 114.176922 
L 235.0921 100.17274 
L 242.896296 66.301372 
L 250.700492 46.141118 
L 258.504687 33.77267 
L 266.308883 39.262499 
L 274.113079 60.053511 
L 281.917275 103.13485 
L 289.721471 170.122965 
L 297.525667 162.596156 
L 305.329862 188.658597 
L 313.134058 219.049919 
L 320.938254 222.795626 
L 328.74245 250.794494 
L 336.546646 242.362469 
L 344.350841 234.528819 
L 352.155037 236.840467 
L 359.959233 241.358982 
L 367.763429 245.606039 
L 375.567625 231.861876 
L 383.37182 229.55866 
L 391.176016 225.434106 
L 398.980212 232.933341 
L 406.784408 215.712566 
L 414.588604 208.50971 
L 422.392799 203.066643 
L 430.196995 196.566787 
L 438.001191 183.526805 
L 445.805387 185.166918 
L 453.609583 169.121997 
L 461.413778 166.489164 
" clip-path="url(#p949ae7c001)" style="fill: none; stroke: #9467bd; stroke-opacity: 0.7; stroke-width: 1.5; stroke-linecap: square"/>
   </g>
   <g id="line2d_30">
    <path d="M 55.595597 185.764946 
L 63.399792 163.797248 
L 71.203988 178.811654 
L 79.008184 188.961616 
L 86.81238 191.377997 
L 94.616576 212.947882 
L 102.420771 202.545868 
L 110.224967 228.36289 
L 118.029163 224.128566 
L 125.833359 228.494342 
L 133.637555 231.554019 
L 141.44175 234.599843 
L 149.245946 245.278967 
L 157.050142 241.596426 
L 164.854338 241.368243 
L 172.658534 221.538469 
L 180.462729 246.389757 
L 188.266925 230.031198 
L 196.071121 262.86358 
L 203.875317 168.456972 
L 211.679513 130.432097 
L 219.483708 141.059136 
L 227.287904 144.59044 
L 235.0921 105.249069 
L 242.896296 60.981981 
L 250.700492 46.568058 
L 258.504687 33.77267 
L 266.308883 54.270636 
L 274.113079 70.466658 
L 281.917275 87.558914 
L 289.721471 169.393072 
L 297.525667 143.818232 
L 305.329862 175.356384 
L 313.134058 199.403518 
L 320.938254 183.115797 
L 328.74245 213.372307 
L 336.546646 195.220476 
L 344.350841 206.047996 
L 352.155037 245.904328 
L 359.959233 223.297057 
L 367.763429 251.809194 
L 375.567625 230.271994 
L 383.37182 229.073843 
L 391.176016 228.189577 
L 398.980212 230.157539 
L 406.784408 216.057533 
L 414.588604 214.391011 
L 422.392799 204.729392 
L 430.196995 200.758162 
L 438.001191 182.605814 
L 445.805387 180.975148 
L 453.609583 174.341308 
L 461.413778 165.684175 
" clip-path="url(#p949ae7c001)" style="fill: none; stroke: #8c564b; stroke-opacity: 0.7; stroke-width: 1.5; stroke-linecap: square"/>
   </g>
   <g id="line2d_31">
    <path d="M 55.595597 169.501505 
L 63.399792 173.949952 
L 71.203988 175.034546 
L 79.008184 181.955264 
L 86.81238 195.043586 
L 94.616576 202.308476 
L 102.420771 209.049194 
L 110.224967 216.822203 
L 118.029163 227.853843 
L 125.833359 225.853819 
L 133.637555 226.629903 
L 141.44175 233.593571 
L 149.245946 246.178153 
L 157.050142 244.003123 
L 164.854338 233.153796 
L 172.658534 229.983253 
L 180.462729 233.573949 
L 188.266925 242.064047 
L 196.071121 235.77632 
L 203.875317 196.559113 
L 211.679513 175.331264 
L 219.483708 169.31931 
L 227.287904 134.216979 
L 235.0921 89.341515 
L 242.896296 56.794019 
L 250.700492 39.562953 
L 258.504687 33.77267 
L 266.308883 41.64226 
L 274.113079 58.957127 
L 281.917275 94.228169 
L 289.721471 138.643656 
L 297.525667 170.658317 
L 305.329862 182.718627 
L 313.134058 200.445115 
L 320.938254 243.801425 
L 328.74245 239.258462 
L 336.546646 234.322729 
L 344.350841 233.745185 
L 352.155037 233.851566 
L 359.959233 243.810018 
L 367.763429 243.920882 
L 375.567625 232.813302 
L 383.37182 225.349095 
L 391.176016 226.634815 
L 398.980212 226.189146 
L 406.784408 216.248435 
L 414.588604 207.455139 
L 422.392799 201.731992 
L 430.196995 192.614783 
L 438.001191 180.385875 
L 445.805387 173.846277 
L 453.609583 174.569598 
L 461.413778 166.37736 
" clip-path="url(#p949ae7c001)" style="fill: none; stroke: #e377c2; stroke-opacity: 0.7; stroke-width: 1.5; stroke-linecap: square"/>
   </g>
   <g id="patch_3">
    <path d="M 35.304688 274.318125 
L 35.304688 22.318125 
" style="fill: none; stroke: #000000; stroke-width: 0.8; stroke-linejoin: miter; stroke-linecap: square"/>
   </g>
   <g id="patch_4">
    <path d="M 481.704687 274.318125 
L 481.704687 22.318125 
" style="fill: none; stroke: #000000; stroke-width: 0.8; stroke-linejoin: miter; stroke-linecap: square"/>
   </g>
   <g id="patch_5">
    <path d="M 35.304688 274.318125 
L 481.704687 274.318125 
" style="fill: none; stroke: #000000; stroke-width: 0.8; stroke-linejoin: miter; stroke-linecap: square"/>
   </g>
   <g id="patch_6">
    <path d="M 35.304688 22.318125 
L 481.704687 22.318125 
" style="fill: none; stroke: #000000; stroke-width: 0.8; stroke-linejoin: miter; stroke-linecap: square"/>
   </g>
   <g id="text_14">
    <!-- Radiation comparison of transform w/o error H-plane Phi = 90.0 -->
    <g transform="translate(66.835625 16.318125) scale(0.12 -0.12)">
     <defs>
      <path id="DejaVuSans-52" d="M 2841 2188 
Q 3044 2119 3236 1894 
Q 3428 1669 3622 1275 
L 4263 0 
L 3584 0 
L 2988 1197 
Q 2756 1666 2539 1819 
Q 2322 1972 1947 1972 
L 1259 1972 
L 1259 0 
L 628 0 
L 628 4666 
L 2053 4666 
Q 2853 4666 3247 4331 
Q 3641 3997 3641 3322 
Q 3641 2881 3436 2590 
Q 3231 2300 2841 2188 
z
M 1259 4147 
L 1259 2491 
L 2053 2491 
Q 2509 2491 2742 2702 
Q 2975 2913 2975 3322 
Q 2975 3731 2742 3939 
Q 2509 4147 2053 4147 
L 1259 4147 
z
" transform="scale(0.015625)"/>
      <path id="DejaVuSans-64" d="M 2906 2969 
L 2906 4863 
L 3481 4863 
L 3481 0 
L 2906 0 
L 2906 525 
Q 2725 213 2448 61 
Q 2172 -91 1784 -91 
Q 1150 -91 751 415 
Q 353 922 353 1747 
Q 353 2572 751 3078 
Q 1150 3584 1784 3584 
Q 2172 3584 2448 3432 
Q 2725 3281 2906 2969 
z
M 947 1747 
Q 947 1113 1208 752 
Q 1469 391 1925 391 
Q 2381 391 2643 752 
Q 2906 1113 2906 1747 
Q 2906 2381 2643 2742 
Q 2381 3103 1925 3103 
Q 1469 3103 1208 2742 
Q 947 2381 947 1747 
z
" transform="scale(0.015625)"/>
      <path id="DejaVuSans-69" d="M 603 3500 
L 1178 3500 
L 1178 0 
L 603 0 
L 603 3500 
z
M 603 4863 
L 1178 4863 
L 1178 4134 
L 603 4134 
L 603 4863 
z
" transform="scale(0.015625)"/>
      <path id="DejaVuSans-6f" d="M 1959 3097 
Q 1497 3097 1228 2736 
Q 959 2375 959 1747 
Q 959 1119 1226 758 
Q 1494 397 1959 397 
Q 2419 397 2687 759 
Q 2956 1122 2956 1747 
Q 2956 2369 2687 2733 
Q 2419 3097 1959 3097 
z
M 1959 3584 
Q 2709 3584 3137 3096 
Q 3566 2609 3566 1747 
Q 3566 888 3137 398 
Q 2709 -91 1959 -91 
Q 1206 -91 779 398 
Q 353 888 353 1747 
Q 353 2609 779 3096 
Q 1206 3584 1959 3584 
z
" transform="scale(0.015625)"/>
      <path id="DejaVuSans-6e" d="M 3513 2113 
L 3513 0 
L 2938 0 
L 2938 2094 
Q 2938 2591 2744 2837 
Q 2550 3084 2163 3084 
Q 1697 3084 1428 2787 
Q 1159 2491 1159 1978 
L 1159 0 
L 581 0 
L 581 3500 
L 1159 3500 
L 1159 2956 
Q 1366 3272 1645 3428 
Q 1925 3584 2291 3584 
Q 2894 3584 3203 3211 
Q 3513 2838 3513 2113 
z
" transform="scale(0.015625)"/>
      <path id="DejaVuSans-20" transform="scale(0.015625)"/>
      <path id="DejaVuSans-63" d="M 3122 3366 
L 3122 2828 
Q 2878 2963 2633 3030 
Q 2388 3097 2138 3097 
Q 1578 3097 1268 2742 
Q 959 2388 959 1747 
Q 959 1106 1268 751 
Q 1578 397 2138 397 
Q 2388 397 2633 464 
Q 2878 531 3122 666 
L 3122 134 
Q 2881 22 2623 -34 
Q 2366 -91 2075 -91 
Q 1284 -91 818 406 
Q 353 903 353 1747 
Q 353 2603 823 3093 
Q 1294 3584 2113 3584 
Q 2378 3584 2631 3529 
Q 2884 3475 3122 3366 
z
" transform="scale(0.015625)"/>
      <path id="DejaVuSans-6d" d="M 3328 2828 
Q 3544 3216 3844 3400 
Q 4144 3584 4550 3584 
Q 5097 3584 5394 3201 
Q 5691 2819 5691 2113 
L 5691 0 
L 5113 0 
L 5113 2094 
Q 5113 2597 4934 2840 
Q 4756 3084 4391 3084 
Q 3944 3084 3684 2787 
Q 3425 2491 3425 1978 
L 3425 0 
L 2847 0 
L 2847 2094 
Q 2847 2600 2669 2842 
Q 2491 3084 2119 3084 
Q 1678 3084 1418 2786 
Q 1159 2488 1159 1978 
L 1159 0 
L 581 0 
L 581 3500 
L 1159 3500 
L 1159 2956 
Q 1356 3278 1631 3431 
Q 1906 3584 2284 3584 
Q 2666 3584 2933 3390 
Q 3200 3197 3328 2828 
z
" transform="scale(0.015625)"/>
      <path id="DejaVuSans-70" d="M 1159 525 
L 1159 -1331 
L 581 -1331 
L 581 3500 
L 1159 3500 
L 1159 2969 
Q 1341 3281 1617 3432 
Q 1894 3584 2278 3584 
Q 2916 3584 3314 3078 
Q 3713 2572 3713 1747 
Q 3713 922 3314 415 
Q 2916 -91 2278 -91 
Q 1894 -91 1617 61 
Q 1341 213 1159 525 
z
M 3116 1747 
Q 3116 2381 2855 2742 
Q 2594 3103 2138 3103 
Q 1681 3103 1420 2742 
Q 1159 2381 1159 1747 
Q 1159 1113 1420 752 
Q 1681 391 2138 391 
Q 2594 391 2855 752 
Q 3116 1113 3116 1747 
z
" transform="scale(0.015625)"/>
      <path id="DejaVuSans-72" d="M 2631 2963 
Q 2534 3019 2420 3045 
Q 2306 3072 2169 3072 
Q 1681 3072 1420 2755 
Q 1159 2438 1159 1844 
L 1159 0 
L 581 0 
L 581 3500 
L 1159 3500 
L 1159 2956 
Q 1341 3275 1631 3429 
Q 1922 3584 2338 3584 
Q 2397 3584 2469 3576 
Q 2541 3569 2628 3553 
L 2631 2963 
z
" transform="scale(0.015625)"/>
      <path id="DejaVuSans-73" d="M 2834 3397 
L 2834 2853 
Q 2591 2978 2328 3040 
Q 2066 3103 1784 3103 
Q 1356 3103 1142 2972 
Q 928 2841 928 2578 
Q 928 2378 1081 2264 
Q 1234 2150 1697 2047 
L 1894 2003 
Q 2506 1872 2764 1633 
Q 3022 1394 3022 966 
Q 3022 478 2636 193 
Q 2250 -91 1575 -91 
Q 1294 -91 989 -36 
Q 684 19 347 128 
L 347 722 
Q 666 556 975 473 
Q 1284 391 1588 391 
Q 1994 391 2212 530 
Q 2431 669 2431 922 
Q 2431 1156 2273 1281 
Q 2116 1406 1581 1522 
L 1381 1569 
Q 847 1681 609 1914 
Q 372 2147 372 2553 
Q 372 3047 722 3315 
Q 1072 3584 1716 3584 
Q 2034 3584 2315 3537 
Q 2597 3491 2834 3397 
z
" transform="scale(0.015625)"/>
      <path id="DejaVuSans-66" d="M 2375 4863 
L 2375 4384 
L 1825 4384 
Q 1516 4384 1395 4259 
Q 1275 4134 1275 3809 
L 1275 3500 
L 2222 3500 
L 2222 3053 
L 1275 3053 
L 1275 0 
L 697 0 
L 697 3053 
L 147 3053 
L 147 3500 
L 697 3500 
L 697 3744 
Q 697 4328 969 4595 
Q 1241 4863 1831 4863 
L 2375 4863 
z
" transform="scale(0.015625)"/>
      <path id="DejaVuSans-77" d="M 269 3500 
L 844 3500 
L 1563 769 
L 2278 3500 
L 2956 3500 
L 3675 769 
L 4391 3500 
L 4966 3500 
L 4050 0 
L 3372 0 
L 2619 2869 
L 1863 0 
L 1184 0 
L 269 3500 
z
" transform="scale(0.015625)"/>
      <path id="DejaVuSans-2f" d="M 1625 4666 
L 2156 4666 
L 531 -594 
L 0 -594 
L 1625 4666 
z
" transform="scale(0.015625)"/>
      <path id="DejaVuSans-48" d="M 628 4666 
L 1259 4666 
L 1259 2753 
L 3553 2753 
L 3553 4666 
L 4184 4666 
L 4184 0 
L 3553 0 
L 3553 2222 
L 1259 2222 
L 1259 0 
L 628 0 
L 628 4666 
z
" transform="scale(0.015625)"/>
      <path id="DejaVuSans-2d" d="M 313 2009 
L 1997 2009 
L 1997 1497 
L 313 1497 
L 313 2009 
z
" transform="scale(0.015625)"/>
      <path id="DejaVuSans-6c" d="M 603 4863 
L 1178 4863 
L 1178 0 
L 603 0 
L 603 4863 
z
" transform="scale(0.015625)"/>
      <path id="DejaVuSans-50" d="M 1259 4147 
L 1259 2394 
L 2053 2394 
Q 2494 2394 2734 2622 
Q 2975 2850 2975 3272 
Q 2975 3691 2734 3919 
Q 2494 4147 2053 4147 
L 1259 4147 
z
M 628 4666 
L 2053 4666 
Q 2838 4666 3239 4311 
Q 3641 3956 3641 3272 
Q 3641 2581 3239 2228 
Q 2838 1875 2053 1875 
L 1259 1875 
L 1259 0 
L 628 0 
L 628 4666 
z
" transform="scale(0.015625)"/>
      <path id="DejaVuSans-3d" d="M 678 2906 
L 4684 2906 
L 4684 2381 
L 678 2381 
L 678 2906 
z
M 678 1631 
L 4684 1631 
L 4684 1100 
L 678 1100 
L 678 1631 
z
" transform="scale(0.015625)"/>
      <path id="DejaVuSans-39" d="M 703 97 
L 703 672 
Q 941 559 1184 500 
Q 1428 441 1663 441 
Q 2288 441 2617 861 
Q 2947 1281 2994 2138 
Q 2813 1869 2534 1725 
Q 2256 1581 1919 1581 
Q 1219 1581 811 2004 
Q 403 2428 403 3163 
Q 403 3881 828 4315 
Q 1253 4750 1959 4750 
Q 2769 4750 3195 4129 
Q 3622 3509 3622 2328 
Q 3622 1225 3098 567 
Q 2575 -91 1691 -91 
Q 1453 -91 1209 -44 
Q 966 3 703 97 
z
M 1959 2075 
Q 2384 2075 2632 2365 
Q 2881 2656 2881 3163 
Q 2881 3666 2632 3958 
Q 2384 4250 1959 4250 
Q 1534 4250 1286 3958 
Q 1038 3666 1038 3163 
Q 1038 2656 1286 2365 
Q 1534 2075 1959 2075 
z
" transform="scale(0.015625)"/>
      <path id="DejaVuSans-2e" d="M 684 794 
L 1344 794 
L 1344 0 
L 684 0 
L 684 794 
z
" transform="scale(0.015625)"/>
     </defs>
     <use xlink:href="#DejaVuSans-52"/>
     <use xlink:href="#DejaVuSans-61" x="67.232422"/>
     <use xlink:href="#DejaVuSans-64" x="128.511719"/>
     <use xlink:href="#DejaVuSans-69" x="191.988281"/>
     <use xlink:href="#DejaVuSans-61" x="219.771484"/>
     <use xlink:href="#DejaVuSans-74" x="281.050781"/>
     <use xlink:href="#DejaVuSans-69" x="320.259766"/>
     <use xlink:href="#DejaVuSans-6f" x="348.042969"/>
     <use xlink:href="#DejaVuSans-6e" x="409.224609"/>
     <use xlink:href="#DejaVuSans-20" x="472.603516"/>
     <use xlink:href="#DejaVuSans-63" x="504.390625"/>
     <use xlink:href="#DejaVuSans-6f" x="559.371094"/>
     <use xlink:href="#DejaVuSans-6d" x="620.552734"/>
     <use xlink:href="#DejaVuSans-70" x="717.964844"/>
     <use xlink:href="#DejaVuSans-61" x="781.441406"/>
     <use xlink:href="#DejaVuSans-72" x="842.720703"/>
     <use xlink:href="#DejaVuSans-69" x="883.833984"/>
     <use xlink:href="#DejaVuSans-73" x="911.617188"/>
     <use xlink:href="#DejaVuSans-6f" x="963.716797"/>
     <use xlink:href="#DejaVuSans-6e" x="1024.898438"/>
     <use xlink:href="#DejaVuSans-20" x="1088.277344"/>
     <use xlink:href="#DejaVuSans-6f" x="1120.064453"/>
     <use xlink:href="#DejaVuSans-66" x="1181.246094"/>
     <use xlink:href="#DejaVuSans-20" x="1216.451172"/>
     <use xlink:href="#DejaVuSans-74" x="1248.238281"/>
     <use xlink:href="#DejaVuSans-72" x="1287.447266"/>
     <use xlink:href="#DejaVuSans-61" x="1328.560547"/>
     <use xlink:href="#DejaVuSans-6e" x="1389.839844"/>
     <use xlink:href="#DejaVuSans-73" x="1453.21875"/>
     <use xlink:href="#DejaVuSans-66" x="1505.318359"/>
     <use xlink:href="#DejaVuSans-6f" x="1540.523438"/>
     <use xlink:href="#DejaVuSans-72" x="1601.705078"/>
     <use xlink:href="#DejaVuSans-6d" x="1641.068359"/>
     <use xlink:href="#DejaVuSans-20" x="1738.480469"/>
     <use xlink:href="#DejaVuSans-77" x="1770.267578"/>
     <use xlink:href="#DejaVuSans-2f" x="1852.054688"/>
     <use xlink:href="#DejaVuSans-6f" x="1885.746094"/>
     <use xlink:href="#DejaVuSans-20" x="1946.927734"/>
     <use xlink:href="#DejaVuSans-65" x="1978.714844"/>
     <use xlink:href="#DejaVuSans-72" x="2040.238281"/>
     <use xlink:href="#DejaVuSans-72" x="2079.601562"/>
     <use xlink:href="#DejaVuSans-6f" x="2118.464844"/>
     <use xlink:href="#DejaVuSans-72" x="2179.646484"/>
     <use xlink:href="#DejaVuSans-20" x="2220.759766"/>
     <use xlink:href="#DejaVuSans-48" x="2252.546875"/>
     <use xlink:href="#DejaVuSans-2d" x="2327.742188"/>
     <use xlink:href="#DejaVuSans-70" x="2363.826172"/>
     <use xlink:href="#DejaVuSans-6c" x="2427.302734"/>
     <use xlink:href="#DejaVuSans-61" x="2455.085938"/>
     <use xlink:href="#DejaVuSans-6e" x="2516.365234"/>
     <use xlink:href="#DejaVuSans-65" x="2579.744141"/>
     <use xlink:href="#DejaVuSans-20" x="2641.267578"/>
     <use xlink:href="#DejaVuSans-50" x="2673.054688"/>
     <use xlink:href="#DejaVuSans-68" x="2733.357422"/>
     <use xlink:href="#DejaVuSans-69" x="2796.736328"/>
     <use xlink:href="#DejaVuSans-20" x="2824.519531"/>
     <use xlink:href="#DejaVuSans-3d" x="2856.306641"/>
     <use xlink:href="#DejaVuSans-20" x="2940.095703"/>
     <use xlink:href="#DejaVuSans-39" x="2971.882812"/>
     <use xlink:href="#DejaVuSans-30" x="3035.505859"/>
     <use xlink:href="#DejaVuSans-2e" x="3099.128906"/>
     <use xlink:href="#DejaVuSans-30" x="3130.916016"/>
    </g>
   </g>
   <g id="legend_1">
    <g id="patch_7">
     <path d="M 295.271875 133.065 
L 474.704687 133.065 
Q 476.704687 133.065 476.704687 131.065 
L 476.704687 29.318125 
Q 476.704687 27.318125 474.704687 27.318125 
L 295.271875 27.318125 
Q 293.271875 27.318125 293.271875 29.318125 
L 293.271875 131.065 
Q 293.271875 133.065 295.271875 133.065 
z
" style="fill: #ffffff; opacity: 0.8; stroke: #cccccc; stroke-linejoin: miter"/>
    </g>
    <g id="line2d_32">
     <path d="M 297.271875 35.416562 
L 307.271875 35.416562 
L 317.271875 35.416562 
" style="fill: none; stroke: #1f77b4; stroke-opacity: 0.7; stroke-width: 1.5; stroke-linecap: square"/>
    </g>
    <g id="text_15">
     <!-- Radiation without errors -->
     <g transform="translate(325.271875 38.916562) scale(0.1 -0.1)">
      <defs>
       <path id="DejaVuSans-75" d="M 544 1381 
L 544 3500 
L 1119 3500 
L 1119 1403 
Q 1119 906 1312 657 
Q 1506 409 1894 409 
Q 2359 409 2629 706 
Q 2900 1003 2900 1516 
L 2900 3500 
L 3475 3500 
L 3475 0 
L 2900 0 
L 2900 538 
Q 2691 219 2414 64 
Q 2138 -91 1772 -91 
Q 1169 -91 856 284 
Q 544 659 544 1381 
z
M 1991 3584 
L 1991 3584 
z
" transform="scale(0.015625)"/>
      </defs>
      <use xlink:href="#DejaVuSans-52"/>
      <use xlink:href="#DejaVuSans-61" x="67.232422"/>
      <use xlink:href="#DejaVuSans-64" x="128.511719"/>
      <use xlink:href="#DejaVuSans-69" x="191.988281"/>
      <use xlink:href="#DejaVuSans-61" x="219.771484"/>
      <use xlink:href="#DejaVuSans-74" x="281.050781"/>
      <use xlink:href="#DejaVuSans-69" x="320.259766"/>
      <use xlink:href="#DejaVuSans-6f" x="348.042969"/>
      <use xlink:href="#DejaVuSans-6e" x="409.224609"/>
      <use xlink:href="#DejaVuSans-20" x="472.603516"/>
      <use xlink:href="#DejaVuSans-77" x="504.390625"/>
      <use xlink:href="#DejaVuSans-69" x="586.177734"/>
      <use xlink:href="#DejaVuSans-74" x="613.960938"/>
      <use xlink:href="#DejaVuSans-68" x="653.169922"/>
      <use xlink:href="#DejaVuSans-6f" x="716.548828"/>
      <use xlink:href="#DejaVuSans-75" x="777.730469"/>
      <use xlink:href="#DejaVuSans-74" x="841.109375"/>
      <use xlink:href="#DejaVuSans-20" x="880.318359"/>
      <use xlink:href="#DejaVuSans-65" x="912.105469"/>
      <use xlink:href="#DejaVuSans-72" x="973.628906"/>
      <use xlink:href="#DejaVuSans-72" x="1012.992188"/>
      <use xlink:href="#DejaVuSans-6f" x="1051.855469"/>
      <use xlink:href="#DejaVuSans-72" x="1113.037109"/>
      <use xlink:href="#DejaVuSans-73" x="1154.150391"/>
     </g>
    </g>
    <g id="line2d_33">
     <path d="M 297.271875 50.094687 
L 307.271875 50.094687 
L 317.271875 50.094687 
" style="fill: none; stroke: #ff7f0e; stroke-opacity: 0.7; stroke-width: 1.5; stroke-linecap: square"/>
    </g>
    <g id="text_16">
     <!-- Radiation with errors (1mm) -->
     <g transform="translate(325.271875 53.594687) scale(0.1 -0.1)">
      <defs>
       <path id="DejaVuSans-28" d="M 1984 4856 
Q 1566 4138 1362 3434 
Q 1159 2731 1159 2009 
Q 1159 1288 1364 580 
Q 1569 -128 1984 -844 
L 1484 -844 
Q 1016 -109 783 600 
Q 550 1309 550 2009 
Q 550 2706 781 3412 
Q 1013 4119 1484 4856 
L 1984 4856 
z
" transform="scale(0.015625)"/>
       <path id="DejaVuSans-29" d="M 513 4856 
L 1013 4856 
Q 1481 4119 1714 3412 
Q 1947 2706 1947 2009 
Q 1947 1309 1714 600 
Q 1481 -109 1013 -844 
L 513 -844 
Q 928 -128 1133 580 
Q 1338 1288 1338 2009 
Q 1338 2731 1133 3434 
Q 928 4138 513 4856 
z
" transform="scale(0.015625)"/>
      </defs>
      <use xlink:href="#DejaVuSans-52"/>
      <use xlink:href="#DejaVuSans-61" x="67.232422"/>
      <use xlink:href="#DejaVuSans-64" x="128.511719"/>
      <use xlink:href="#DejaVuSans-69" x="191.988281"/>
      <use xlink:href="#DejaVuSans-61" x="219.771484"/>
      <use xlink:href="#DejaVuSans-74" x="281.050781"/>
      <use xlink:href="#DejaVuSans-69" x="320.259766"/>
      <use xlink:href="#DejaVuSans-6f" x="348.042969"/>
      <use xlink:href="#DejaVuSans-6e" x="409.224609"/>
      <use xlink:href="#DejaVuSans-20" x="472.603516"/>
      <use xlink:href="#DejaVuSans-77" x="504.390625"/>
      <use xlink:href="#DejaVuSans-69" x="586.177734"/>
      <use xlink:href="#DejaVuSans-74" x="613.960938"/>
      <use xlink:href="#DejaVuSans-68" x="653.169922"/>
      <use xlink:href="#DejaVuSans-20" x="716.548828"/>
      <use xlink:href="#DejaVuSans-65" x="748.335938"/>
      <use xlink:href="#DejaVuSans-72" x="809.859375"/>
      <use xlink:href="#DejaVuSans-72" x="849.222656"/>
      <use xlink:href="#DejaVuSans-6f" x="888.085938"/>
      <use xlink:href="#DejaVuSans-72" x="949.267578"/>
      <use xlink:href="#DejaVuSans-73" x="990.380859"/>
      <use xlink:href="#DejaVuSans-20" x="1042.480469"/>
      <use xlink:href="#DejaVuSans-28" x="1074.267578"/>
      <use xlink:href="#DejaVuSans-31" x="1113.28125"/>
      <use xlink:href="#DejaVuSans-6d" x="1176.904297"/>
      <use xlink:href="#DejaVuSans-6d" x="1274.316406"/>
      <use xlink:href="#DejaVuSans-29" x="1371.728516"/>
     </g>
    </g>
    <g id="line2d_34">
     <path d="M 297.271875 64.772812 
L 307.271875 64.772812 
L 317.271875 64.772812 
" style="fill: none; stroke: #2ca02c; stroke-opacity: 0.7; stroke-width: 1.5; stroke-linecap: square"/>
    </g>
    <g id="text_17">
     <!-- Radiation with errors (5mm) -->
     <g transform="translate(325.271875 68.272812) scale(0.1 -0.1)">
      <use xlink:href="#DejaVuSans-52"/>
      <use xlink:href="#DejaVuSans-61" x="67.232422"/>
      <use xlink:href="#DejaVuSans-64" x="128.511719"/>
      <use xlink:href="#DejaVuSans-69" x="191.988281"/>
      <use xlink:href="#DejaVuSans-61" x="219.771484"/>
      <use xlink:href="#DejaVuSans-74" x="281.050781"/>
      <use xlink:href="#DejaVuSans-69" x="320.259766"/>
      <use xlink:href="#DejaVuSans-6f" x="348.042969"/>
      <use xlink:href="#DejaVuSans-6e" x="409.224609"/>
      <use xlink:href="#DejaVuSans-20" x="472.603516"/>
      <use xlink:href="#DejaVuSans-77" x="504.390625"/>
      <use xlink:href="#DejaVuSans-69" x="586.177734"/>
      <use xlink:href="#DejaVuSans-74" x="613.960938"/>
      <use xlink:href="#DejaVuSans-68" x="653.169922"/>
      <use xlink:href="#DejaVuSans-20" x="716.548828"/>
      <use xlink:href="#DejaVuSans-65" x="748.335938"/>
      <use xlink:href="#DejaVuSans-72" x="809.859375"/>
      <use xlink:href="#DejaVuSans-72" x="849.222656"/>
      <use xlink:href="#DejaVuSans-6f" x="888.085938"/>
      <use xlink:href="#DejaVuSans-72" x="949.267578"/>
      <use xlink:href="#DejaVuSans-73" x="990.380859"/>
      <use xlink:href="#DejaVuSans-20" x="1042.480469"/>
      <use xlink:href="#DejaVuSans-28" x="1074.267578"/>
      <use xlink:href="#DejaVuSans-35" x="1113.28125"/>
      <use xlink:href="#DejaVuSans-6d" x="1176.904297"/>
      <use xlink:href="#DejaVuSans-6d" x="1274.316406"/>
      <use xlink:href="#DejaVuSans-29" x="1371.728516"/>
     </g>
    </g>
    <g id="line2d_35">
     <path d="M 297.271875 79.450937 
L 307.271875 79.450937 
L 317.271875 79.450937 
" style="fill: none; stroke: #d62728; stroke-opacity: 0.7; stroke-width: 1.5; stroke-linecap: square"/>
    </g>
    <g id="text_18">
     <!-- Radiation with errors (10mm) -->
     <g transform="translate(325.271875 82.950937) scale(0.1 -0.1)">
      <use xlink:href="#DejaVuSans-52"/>
      <use xlink:href="#DejaVuSans-61" x="67.232422"/>
      <use xlink:href="#DejaVuSans-64" x="128.511719"/>
      <use xlink:href="#DejaVuSans-69" x="191.988281"/>
      <use xlink:href="#DejaVuSans-61" x="219.771484"/>
      <use xlink:href="#DejaVuSans-74" x="281.050781"/>
      <use xlink:href="#DejaVuSans-69" x="320.259766"/>
      <use xlink:href="#DejaVuSans-6f" x="348.042969"/>
      <use xlink:href="#DejaVuSans-6e" x="409.224609"/>
      <use xlink:href="#DejaVuSans-20" x="472.603516"/>
      <use xlink:href="#DejaVuSans-77" x="504.390625"/>
      <use xlink:href="#DejaVuSans-69" x="586.177734"/>
      <use xlink:href="#DejaVuSans-74" x="613.960938"/>
      <use xlink:href="#DejaVuSans-68" x="653.169922"/>
      <use xlink:href="#DejaVuSans-20" x="716.548828"/>
      <use xlink:href="#DejaVuSans-65" x="748.335938"/>
      <use xlink:href="#DejaVuSans-72" x="809.859375"/>
      <use xlink:href="#DejaVuSans-72" x="849.222656"/>
      <use xlink:href="#DejaVuSans-6f" x="888.085938"/>
      <use xlink:href="#DejaVuSans-72" x="949.267578"/>
      <use xlink:href="#DejaVuSans-73" x="990.380859"/>
      <use xlink:href="#DejaVuSans-20" x="1042.480469"/>
      <use xlink:href="#DejaVuSans-28" x="1074.267578"/>
      <use xlink:href="#DejaVuSans-31" x="1113.28125"/>
      <use xlink:href="#DejaVuSans-30" x="1176.904297"/>
      <use xlink:href="#DejaVuSans-6d" x="1240.527344"/>
      <use xlink:href="#DejaVuSans-6d" x="1337.939453"/>
      <use xlink:href="#DejaVuSans-29" x="1435.351562"/>
     </g>
    </g>
    <g id="line2d_36">
     <path d="M 297.271875 94.129062 
L 307.271875 94.129062 
L 317.271875 94.129062 
" style="fill: none; stroke: #9467bd; stroke-opacity: 0.7; stroke-width: 1.5; stroke-linecap: square"/>
    </g>
    <g id="text_19">
     <!-- Radiation with errors (20mm) -->
     <g transform="translate(325.271875 97.629062) scale(0.1 -0.1)">
      <use xlink:href="#DejaVuSans-52"/>
      <use xlink:href="#DejaVuSans-61" x="67.232422"/>
      <use xlink:href="#DejaVuSans-64" x="128.511719"/>
      <use xlink:href="#DejaVuSans-69" x="191.988281"/>
      <use xlink:href="#DejaVuSans-61" x="219.771484"/>
      <use xlink:href="#DejaVuSans-74" x="281.050781"/>
      <use xlink:href="#DejaVuSans-69" x="320.259766"/>
      <use xlink:href="#DejaVuSans-6f" x="348.042969"/>
      <use xlink:href="#DejaVuSans-6e" x="409.224609"/>
      <use xlink:href="#DejaVuSans-20" x="472.603516"/>
      <use xlink:href="#DejaVuSans-77" x="504.390625"/>
      <use xlink:href="#DejaVuSans-69" x="586.177734"/>
      <use xlink:href="#DejaVuSans-74" x="613.960938"/>
      <use xlink:href="#DejaVuSans-68" x="653.169922"/>
      <use xlink:href="#DejaVuSans-20" x="716.548828"/>
      <use xlink:href="#DejaVuSans-65" x="748.335938"/>
      <use xlink:href="#DejaVuSans-72" x="809.859375"/>
      <use xlink:href="#DejaVuSans-72" x="849.222656"/>
      <use xlink:href="#DejaVuSans-6f" x="888.085938"/>
      <use xlink:href="#DejaVuSans-72" x="949.267578"/>
      <use xlink:href="#DejaVuSans-73" x="990.380859"/>
      <use xlink:href="#DejaVuSans-20" x="1042.480469"/>
      <use xlink:href="#DejaVuSans-28" x="1074.267578"/>
      <use xlink:href="#DejaVuSans-32" x="1113.28125"/>
      <use xlink:href="#DejaVuSans-30" x="1176.904297"/>
      <use xlink:href="#DejaVuSans-6d" x="1240.527344"/>
      <use xlink:href="#DejaVuSans-6d" x="1337.939453"/>
      <use xlink:href="#DejaVuSans-29" x="1435.351562"/>
     </g>
    </g>
    <g id="line2d_37">
     <path d="M 297.271875 108.807187 
L 307.271875 108.807187 
L 317.271875 108.807187 
" style="fill: none; stroke: #8c564b; stroke-opacity: 0.7; stroke-width: 1.5; stroke-linecap: square"/>
    </g>
    <g id="text_20">
     <!-- Radiation with errors (30mm) -->
     <g transform="translate(325.271875 112.307187) scale(0.1 -0.1)">
      <use xlink:href="#DejaVuSans-52"/>
      <use xlink:href="#DejaVuSans-61" x="67.232422"/>
      <use xlink:href="#DejaVuSans-64" x="128.511719"/>
      <use xlink:href="#DejaVuSans-69" x="191.988281"/>
      <use xlink:href="#DejaVuSans-61" x="219.771484"/>
      <use xlink:href="#DejaVuSans-74" x="281.050781"/>
      <use xlink:href="#DejaVuSans-69" x="320.259766"/>
      <use xlink:href="#DejaVuSans-6f" x="348.042969"/>
      <use xlink:href="#DejaVuSans-6e" x="409.224609"/>
      <use xlink:href="#DejaVuSans-20" x="472.603516"/>
      <use xlink:href="#DejaVuSans-77" x="504.390625"/>
      <use xlink:href="#DejaVuSans-69" x="586.177734"/>
      <use xlink:href="#DejaVuSans-74" x="613.960938"/>
      <use xlink:href="#DejaVuSans-68" x="653.169922"/>
      <use xlink:href="#DejaVuSans-20" x="716.548828"/>
      <use xlink:href="#DejaVuSans-65" x="748.335938"/>
      <use xlink:href="#DejaVuSans-72" x="809.859375"/>
      <use xlink:href="#DejaVuSans-72" x="849.222656"/>
      <use xlink:href="#DejaVuSans-6f" x="888.085938"/>
      <use xlink:href="#DejaVuSans-72" x="949.267578"/>
      <use xlink:href="#DejaVuSans-73" x="990.380859"/>
      <use xlink:href="#DejaVuSans-20" x="1042.480469"/>
      <use xlink:href="#DejaVuSans-28" x="1074.267578"/>
      <use xlink:href="#DejaVuSans-33" x="1113.28125"/>
      <use xlink:href="#DejaVuSans-30" x="1176.904297"/>
      <use xlink:href="#DejaVuSans-6d" x="1240.527344"/>
      <use xlink:href="#DejaVuSans-6d" x="1337.939453"/>
      <use xlink:href="#DejaVuSans-29" x="1435.351562"/>
     </g>
    </g>
    <g id="line2d_38">
     <path d="M 297.271875 123.485312 
L 307.271875 123.485312 
L 317.271875 123.485312 
" style="fill: none; stroke: #e377c2; stroke-opacity: 0.7; stroke-width: 1.5; stroke-linecap: square"/>
    </g>
    <g id="text_21">
     <!-- Radiation with errors (50mm) -->
     <g transform="translate(325.271875 126.985312) scale(0.1 -0.1)">
      <use xlink:href="#DejaVuSans-52"/>
      <use xlink:href="#DejaVuSans-61" x="67.232422"/>
      <use xlink:href="#DejaVuSans-64" x="128.511719"/>
      <use xlink:href="#DejaVuSans-69" x="191.988281"/>
      <use xlink:href="#DejaVuSans-61" x="219.771484"/>
      <use xlink:href="#DejaVuSans-74" x="281.050781"/>
      <use xlink:href="#DejaVuSans-69" x="320.259766"/>
      <use xlink:href="#DejaVuSans-6f" x="348.042969"/>
      <use xlink:href="#DejaVuSans-6e" x="409.224609"/>
      <use xlink:href="#DejaVuSans-20" x="472.603516"/>
      <use xlink:href="#DejaVuSans-77" x="504.390625"/>
      <use xlink:href="#DejaVuSans-69" x="586.177734"/>
      <use xlink:href="#DejaVuSans-74" x="613.960938"/>
      <use xlink:href="#DejaVuSans-68" x="653.169922"/>
      <use xlink:href="#DejaVuSans-20" x="716.548828"/>
      <use xlink:href="#DejaVuSans-65" x="748.335938"/>
      <use xlink:href="#DejaVuSans-72" x="809.859375"/>
      <use xlink:href="#DejaVuSans-72" x="849.222656"/>
      <use xlink:href="#DejaVuSans-6f" x="888.085938"/>
      <use xlink:href="#DejaVuSans-72" x="949.267578"/>
      <use xlink:href="#DejaVuSans-73" x="990.380859"/>
      <use xlink:href="#DejaVuSans-20" x="1042.480469"/>
      <use xlink:href="#DejaVuSans-28" x="1074.267578"/>
      <use xlink:href="#DejaVuSans-35" x="1113.28125"/>
      <use xlink:href="#DejaVuSans-30" x="1176.904297"/>
      <use xlink:href="#DejaVuSans-6d" x="1240.527344"/>
      <use xlink:href="#DejaVuSans-6d" x="1337.939453"/>
      <use xlink:href="#DejaVuSans-29" x="1435.351562"/>
     </g>
    </g>
   </g>
  </g>
  <g id="axes_2">
   <g id="patch_8">
    <path d="M 35.304688 576.718125 
L 481.704687 576.718125 
L 481.704687 324.718125 
L 35.304688 324.718125 
z
" style="fill: #ffffff"/>
   </g>
   <g id="matplotlib.axis_3">
    <g id="xtick_6">
     <g id="line2d_39">
      <path d="M 102.420771 576.718125 
L 102.420771 324.718125 
" clip-path="url(#p632e82d003)" style="fill: none; stroke: #b0b0b0; stroke-width: 0.8; stroke-linecap: square"/>
     </g>
     <g id="line2d_40">
      <g>
       <use xlink:href="#m5f2c0d87e1" x="102.420771" y="576.718125" style="stroke: #000000; stroke-width: 0.8"/>
      </g>
     </g>
     <g id="text_22">
      <!-- −100 -->
      <g transform="translate(88.687178 591.316562) scale(0.1 -0.1)">
       <use xlink:href="#DejaVuSans-2212"/>
       <use xlink:href="#DejaVuSans-31" x="83.789062"/>
       <use xlink:href="#DejaVuSans-30" x="147.412109"/>
       <use xlink:href="#DejaVuSans-30" x="211.035156"/>
      </g>
     </g>
    </g>
    <g id="xtick_7">
     <g id="line2d_41">
      <path d="M 180.462729 576.718125 
L 180.462729 324.718125 
" clip-path="url(#p632e82d003)" style="fill: none; stroke: #b0b0b0; stroke-width: 0.8; stroke-linecap: square"/>
     </g>
     <g id="line2d_42">
      <g>
       <use xlink:href="#m5f2c0d87e1" x="180.462729" y="576.718125" style="stroke: #000000; stroke-width: 0.8"/>
      </g>
     </g>
     <g id="text_23">
      <!-- −50 -->
      <g transform="translate(169.910386 591.316562) scale(0.1 -0.1)">
       <use xlink:href="#DejaVuSans-2212"/>
       <use xlink:href="#DejaVuSans-35" x="83.789062"/>
       <use xlink:href="#DejaVuSans-30" x="147.412109"/>
      </g>
     </g>
    </g>
    <g id="xtick_8">
     <g id="line2d_43">
      <path d="M 258.504687 576.718125 
L 258.504687 324.718125 
" clip-path="url(#p632e82d003)" style="fill: none; stroke: #b0b0b0; stroke-width: 0.8; stroke-linecap: square"/>
     </g>
     <g id="line2d_44">
      <g>
       <use xlink:href="#m5f2c0d87e1" x="258.504687" y="576.718125" style="stroke: #000000; stroke-width: 0.8"/>
      </g>
     </g>
     <g id="text_24">
      <!-- 0 -->
      <g transform="translate(255.323437 591.316562) scale(0.1 -0.1)">
       <use xlink:href="#DejaVuSans-30"/>
      </g>
     </g>
    </g>
    <g id="xtick_9">
     <g id="line2d_45">
      <path d="M 336.546646 576.718125 
L 336.546646 324.718125 
" clip-path="url(#p632e82d003)" style="fill: none; stroke: #b0b0b0; stroke-width: 0.8; stroke-linecap: square"/>
     </g>
     <g id="line2d_46">
      <g>
       <use xlink:href="#m5f2c0d87e1" x="336.546646" y="576.718125" style="stroke: #000000; stroke-width: 0.8"/>
      </g>
     </g>
     <g id="text_25">
      <!-- 50 -->
      <g transform="translate(330.184146 591.316562) scale(0.1 -0.1)">
       <use xlink:href="#DejaVuSans-35"/>
       <use xlink:href="#DejaVuSans-30" x="63.623047"/>
      </g>
     </g>
    </g>
    <g id="xtick_10">
     <g id="line2d_47">
      <path d="M 414.588604 576.718125 
L 414.588604 324.718125 
" clip-path="url(#p632e82d003)" style="fill: none; stroke: #b0b0b0; stroke-width: 0.8; stroke-linecap: square"/>
     </g>
     <g id="line2d_48">
      <g>
       <use xlink:href="#m5f2c0d87e1" x="414.588604" y="576.718125" style="stroke: #000000; stroke-width: 0.8"/>
      </g>
     </g>
     <g id="text_26">
      <!-- 100 -->
      <g transform="translate(405.044854 591.316562) scale(0.1 -0.1)">
       <use xlink:href="#DejaVuSans-31"/>
       <use xlink:href="#DejaVuSans-30" x="63.623047"/>
       <use xlink:href="#DejaVuSans-30" x="127.246094"/>
      </g>
     </g>
    </g>
    <g id="text_27">
     <!-- Theta -->
     <g transform="translate(244.18125 604.994687) scale(0.1 -0.1)">
      <use xlink:href="#DejaVuSans-54"/>
      <use xlink:href="#DejaVuSans-68" x="61.083984"/>
      <use xlink:href="#DejaVuSans-65" x="124.462891"/>
      <use xlink:href="#DejaVuSans-74" x="185.986328"/>
      <use xlink:href="#DejaVuSans-61" x="225.195312"/>
     </g>
    </g>
   </g>
   <g id="matplotlib.axis_4">
    <g id="ytick_8">
     <g id="line2d_49">
      <path d="M 35.304688 551.328689 
L 481.704687 551.328689 
" clip-path="url(#p632e82d003)" style="fill: none; stroke: #b0b0b0; stroke-width: 0.8; stroke-linecap: square"/>
     </g>
     <g id="line2d_50">
      <g>
       <use xlink:href="#m4fb7bcf958" x="35.304688" y="551.328689" style="stroke: #000000; stroke-width: 0.8"/>
      </g>
     </g>
     <g id="text_28">
      <!-- −30 -->
      <g transform="translate(7.2 555.127908) scale(0.1 -0.1)">
       <use xlink:href="#DejaVuSans-2212"/>
       <use xlink:href="#DejaVuSans-33" x="83.789062"/>
       <use xlink:href="#DejaVuSans-30" x="147.412109"/>
      </g>
     </g>
    </g>
    <g id="ytick_9">
     <g id="line2d_51">
      <path d="M 35.304688 515.469353 
L 481.704687 515.469353 
" clip-path="url(#p632e82d003)" style="fill: none; stroke: #b0b0b0; stroke-width: 0.8; stroke-linecap: square"/>
     </g>
     <g id="line2d_52">
      <g>
       <use xlink:href="#m4fb7bcf958" x="35.304688" y="515.469353" style="stroke: #000000; stroke-width: 0.8"/>
      </g>
     </g>
     <g id="text_29">
      <!-- −25 -->
      <g transform="translate(7.2 519.268572) scale(0.1 -0.1)">
       <use xlink:href="#DejaVuSans-2212"/>
       <use xlink:href="#DejaVuSans-32" x="83.789062"/>
       <use xlink:href="#DejaVuSans-35" x="147.412109"/>
      </g>
     </g>
    </g>
    <g id="ytick_10">
     <g id="line2d_53">
      <path d="M 35.304688 479.610016 
L 481.704687 479.610016 
" clip-path="url(#p632e82d003)" style="fill: none; stroke: #b0b0b0; stroke-width: 0.8; stroke-linecap: square"/>
     </g>
     <g id="line2d_54">
      <g>
       <use xlink:href="#m4fb7bcf958" x="35.304688" y="479.610016" style="stroke: #000000; stroke-width: 0.8"/>
      </g>
     </g>
     <g id="text_30">
      <!-- −20 -->
      <g transform="translate(7.2 483.409235) scale(0.1 -0.1)">
       <use xlink:href="#DejaVuSans-2212"/>
       <use xlink:href="#DejaVuSans-32" x="83.789062"/>
       <use xlink:href="#DejaVuSans-30" x="147.412109"/>
      </g>
     </g>
    </g>
    <g id="ytick_11">
     <g id="line2d_55">
      <path d="M 35.304688 443.75068 
L 481.704687 443.75068 
" clip-path="url(#p632e82d003)" style="fill: none; stroke: #b0b0b0; stroke-width: 0.8; stroke-linecap: square"/>
     </g>
     <g id="line2d_56">
      <g>
       <use xlink:href="#m4fb7bcf958" x="35.304688" y="443.75068" style="stroke: #000000; stroke-width: 0.8"/>
      </g>
     </g>
     <g id="text_31">
      <!-- −15 -->
      <g transform="translate(7.2 447.549899) scale(0.1 -0.1)">
       <use xlink:href="#DejaVuSans-2212"/>
       <use xlink:href="#DejaVuSans-31" x="83.789062"/>
       <use xlink:href="#DejaVuSans-35" x="147.412109"/>
      </g>
     </g>
    </g>
    <g id="ytick_12">
     <g id="line2d_57">
      <path d="M 35.304688 407.891343 
L 481.704687 407.891343 
" clip-path="url(#p632e82d003)" style="fill: none; stroke: #b0b0b0; stroke-width: 0.8; stroke-linecap: square"/>
     </g>
     <g id="line2d_58">
      <g>
       <use xlink:href="#m4fb7bcf958" x="35.304688" y="407.891343" style="stroke: #000000; stroke-width: 0.8"/>
      </g>
     </g>
     <g id="text_32">
      <!-- −10 -->
      <g transform="translate(7.2 411.690562) scale(0.1 -0.1)">
       <use xlink:href="#DejaVuSans-2212"/>
       <use xlink:href="#DejaVuSans-31" x="83.789062"/>
       <use xlink:href="#DejaVuSans-30" x="147.412109"/>
      </g>
     </g>
    </g>
    <g id="ytick_13">
     <g id="line2d_59">
      <path d="M 35.304688 372.032007 
L 481.704687 372.032007 
" clip-path="url(#p632e82d003)" style="fill: none; stroke: #b0b0b0; stroke-width: 0.8; stroke-linecap: square"/>
     </g>
     <g id="line2d_60">
      <g>
       <use xlink:href="#m4fb7bcf958" x="35.304688" y="372.032007" style="stroke: #000000; stroke-width: 0.8"/>
      </g>
     </g>
     <g id="text_33">
      <!-- −5 -->
      <g transform="translate(13.5625 375.831226) scale(0.1 -0.1)">
       <use xlink:href="#DejaVuSans-2212"/>
       <use xlink:href="#DejaVuSans-35" x="83.789062"/>
      </g>
     </g>
    </g>
    <g id="ytick_14">
     <g id="line2d_61">
      <path d="M 35.304688 336.17267 
L 481.704687 336.17267 
" clip-path="url(#p632e82d003)" style="fill: none; stroke: #b0b0b0; stroke-width: 0.8; stroke-linecap: square"/>
     </g>
     <g id="line2d_62">
      <g>
       <use xlink:href="#m4fb7bcf958" x="35.304688" y="336.17267" style="stroke: #000000; stroke-width: 0.8"/>
      </g>
     </g>
     <g id="text_34">
      <!-- 0 -->
      <g transform="translate(21.942187 339.971889) scale(0.1 -0.1)">
       <use xlink:href="#DejaVuSans-30"/>
      </g>
     </g>
    </g>
   </g>
   <g id="line2d_63">
    <path d="M 55.595597 455.293223 
L 63.399792 477.05869 
L 71.203988 477.453286 
L 79.008184 459.765576 
L 86.81238 458.965768 
L 94.616576 477.222444 
L 102.420771 521.111552 
L 110.224967 524.874768 
L 118.029163 493.265477 
L 125.833359 482.951297 
L 133.637555 489.169714 
L 141.44175 497.294401 
L 149.245946 493.692131 
L 157.050142 481.6077 
L 164.854338 483.14027 
L 172.658534 506.372347 
L 180.462729 536.159714 
L 188.266925 486.503837 
L 196.071121 452.787459 
L 203.875317 434.536692 
L 211.679513 434.629824 
L 219.483708 460.51458 
L 227.287904 455.146201 
L 235.0921 395.557136 
L 242.896296 361.206808 
L 250.700492 342.941174 
L 258.504687 336.17267 
L 266.308883 342.797831 
L 274.113079 360.06141 
L 281.917275 393.383555 
L 289.721471 452.949826 
L 297.525667 463.184758 
L 305.329862 435.638872 
L 313.134058 435.21024 
L 320.938254 451.542287 
L 328.74245 484.460639 
L 336.546646 536.256065 
L 344.350841 507.915767 
L 352.155037 483.142574 
L 359.959233 480.460986 
L 367.763429 492.27018 
L 375.567625 498.554459 
L 383.37182 490.396888 
L 391.176016 482.591258 
L 398.980212 490.36928 
L 406.784408 520.87457 
L 414.588604 527.328379 
L 422.392799 480.496645 
L 430.196995 460.167496 
L 438.001191 459.286724 
L 445.805387 474.732121 
L 453.609583 476.138215 
L 461.413778 455.003173 
" clip-path="url(#p632e82d003)" style="fill: none; stroke: #1f77b4; stroke-opacity: 0.7; stroke-width: 1.5; stroke-linecap: square"/>
   </g>
   <g id="line2d_64">
    <path d="M 55.595597 452.404664 
L 63.399792 478.002114 
L 71.203988 476.938307 
L 79.008184 459.553651 
L 86.81238 459.615831 
L 94.616576 479.046512 
L 102.420771 526.600203 
L 110.224967 520.159658 
L 118.029163 495.026662 
L 125.833359 484.464864 
L 133.637555 490.958006 
L 141.44175 494.586987 
L 149.245946 494.380432 
L 157.050142 483.322371 
L 164.854338 485.262087 
L 172.658534 508.566057 
L 180.462729 542.436496 
L 188.266925 488.484235 
L 196.071121 452.901756 
L 203.875317 434.594853 
L 211.679513 433.485624 
L 219.483708 459.308867 
L 227.287904 450.550004 
L 235.0921 393.213484 
L 242.896296 360.76031 
L 250.700492 343.512409 
L 258.504687 336.17267 
L 266.308883 343.294933 
L 274.113079 360.421008 
L 281.917275 392.904956 
L 289.721471 450.637122 
L 297.525667 460.638923 
L 305.329862 431.131094 
L 313.134058 434.92743 
L 320.938254 453.915983 
L 328.74245 484.278961 
L 336.546646 541.994846 
L 344.350841 506.086787 
L 352.155037 484.128625 
L 359.959233 478.443156 
L 367.763429 491.106873 
L 375.567625 499.923097 
L 383.37182 493.242619 
L 391.176016 483.421866 
L 398.980212 491.086385 
L 406.784408 521.84284 
L 414.588604 529.788312 
L 422.392799 480.237569 
L 430.196995 460.806218 
L 438.001191 460.221571 
L 445.805387 472.778774 
L 453.609583 473.611516 
L 461.413778 454.083537 
" clip-path="url(#p632e82d003)" style="fill: none; stroke: #ff7f0e; stroke-opacity: 0.7; stroke-width: 1.5; stroke-linecap: square"/>
   </g>
   <g id="line2d_65">
    <path d="M 55.595597 455.267485 
L 63.399792 477.106708 
L 71.203988 477.168618 
L 79.008184 459.787706 
L 86.81238 458.705441 
L 94.616576 477.159415 
L 102.420771 521.083333 
L 110.224967 524.563807 
L 118.029163 492.874271 
L 125.833359 482.8321 
L 133.637555 489.037079 
L 141.44175 497.027898 
L 149.245946 493.360783 
L 157.050142 481.506331 
L 164.854338 482.769544 
L 172.658534 506.584609 
L 180.462729 536.420818 
L 188.266925 486.111 
L 196.071121 452.650372 
L 203.875317 434.147422 
L 211.679513 434.704675 
L 219.483708 460.594905 
L 227.287904 455.368099 
L 235.0921 395.590631 
L 242.896296 361.216145 
L 250.700492 342.954706 
L 258.504687 336.17267 
L 266.308883 342.666892 
L 274.113079 359.733809 
L 281.917275 392.731174 
L 289.721471 452.971989 
L 297.525667 463.035778 
L 305.329862 435.414995 
L 313.134058 435.25626 
L 320.938254 451.687673 
L 328.74245 484.557042 
L 336.546646 536.826057 
L 344.350841 507.346667 
L 352.155037 483.145788 
L 359.959233 480.587386 
L 367.763429 492.337302 
L 375.567625 498.837654 
L 383.37182 490.49476 
L 391.176016 482.394271 
L 398.980212 490.163414 
L 406.784408 520.951679 
L 414.588604 527.462447 
L 422.392799 480.241126 
L 430.196995 460.060085 
L 438.001191 459.247591 
L 445.805387 474.549244 
L 453.609583 476.169721 
L 461.413778 454.641285 
" clip-path="url(#p632e82d003)" style="fill: none; stroke: #2ca02c; stroke-opacity: 0.7; stroke-width: 1.5; stroke-linecap: square"/>
   </g>
   <g id="line2d_66">
    <path d="M 55.595597 464.834235 
L 63.399792 482.59137 
L 71.203988 476.286982 
L 79.008184 459.258199 
L 86.81238 458.943335 
L 94.616576 477.889611 
L 102.420771 518.359175 
L 110.224967 525.236636 
L 118.029163 496.759213 
L 125.833359 484.009248 
L 133.637555 493.354972 
L 141.44175 506.470258 
L 149.245946 499.09955 
L 157.050142 480.089274 
L 164.854338 485.291185 
L 172.658534 500.552671 
L 180.462729 535.703617 
L 188.266925 487.185487 
L 196.071121 447.825981 
L 203.875317 439.134263 
L 211.679513 435.672834 
L 219.483708 445.10909 
L 227.287904 463.189354 
L 235.0921 395.786748 
L 242.896296 363.875917 
L 250.700492 344.574279 
L 258.504687 336.17267 
L 266.308883 344.354573 
L 274.113079 360.849046 
L 281.917275 391.65178 
L 289.721471 457.485852 
L 297.525667 460.028519 
L 305.329862 443.317736 
L 313.134058 440.314352 
L 320.938254 453.317519 
L 328.74245 493.948558 
L 336.546646 534.689414 
L 344.350841 502.87459 
L 352.155037 482.03732 
L 359.959233 480.482471 
L 367.763429 496.31698 
L 375.567625 504.383367 
L 383.37182 497.325611 
L 391.176016 484.492131 
L 398.980212 489.977019 
L 406.784408 528.688912 
L 414.588604 526.227585 
L 422.392799 476.468041 
L 430.196995 457.645659 
L 438.001191 457.950082 
L 445.805387 476.070131 
L 453.609583 479.615528 
L 461.413778 457.681942 
" clip-path="url(#p632e82d003)" style="fill: none; stroke: #d62728; stroke-opacity: 0.7; stroke-width: 1.5; stroke-linecap: square"/>
   </g>
   <g id="line2d_67">
    <path d="M 55.595597 453.156155 
L 63.399792 483.221986 
L 71.203988 478.79529 
L 79.008184 464.644145 
L 86.81238 468.779562 
L 94.616576 486.391881 
L 102.420771 516.030426 
L 110.224967 524.289079 
L 118.029163 510.971772 
L 125.833359 485.910018 
L 133.637555 494.929736 
L 141.44175 500.394981 
L 149.245946 510.197996 
L 157.050142 485.871893 
L 164.854338 489.787453 
L 172.658534 494.299785 
L 180.462729 516.474759 
L 188.266925 490.536577 
L 196.071121 454.517434 
L 203.875317 439.865346 
L 211.679513 432.366917 
L 219.483708 441.806566 
L 227.287904 479.435222 
L 235.0921 388.514027 
L 242.896296 362.302112 
L 250.700492 345.265516 
L 258.504687 336.17267 
L 266.308883 342.225596 
L 274.113079 359.41769 
L 281.917275 386.663354 
L 289.721471 444.96064 
L 297.525667 459.780495 
L 305.329862 433.477013 
L 313.134058 446.483314 
L 320.938254 442.59821 
L 328.74245 481.29131 
L 336.546646 552.405404 
L 344.350841 506.874625 
L 352.155037 474.093993 
L 359.959233 471.390939 
L 367.763429 498.076703 
L 375.567625 509.29652 
L 383.37182 497.117658 
L 391.176016 485.796572 
L 398.980212 502.39029 
L 406.784408 522.141789 
L 414.588604 518.998976 
L 422.392799 469.589243 
L 430.196995 464.750718 
L 438.001191 462.250072 
L 445.805387 483.132436 
L 453.609583 465.630349 
L 461.413778 460.865729 
" clip-path="url(#p632e82d003)" style="fill: none; stroke: #9467bd; stroke-opacity: 0.7; stroke-width: 1.5; stroke-linecap: square"/>
   </g>
   <g id="line2d_68">
    <path d="M 55.595597 437.07347 
L 63.399792 470.195518 
L 71.203988 469.267083 
L 79.008184 453.504493 
L 86.81238 464.863947 
L 94.616576 479.25701 
L 102.420771 518.267384 
L 110.224967 520.994047 
L 118.029163 490.37376 
L 125.833359 497.44419 
L 133.637555 512.349665 
L 141.44175 500.425266 
L 149.245946 511.316484 
L 157.050142 496.501568 
L 164.854338 491.628909 
L 172.658534 545.170738 
L 180.462729 497.925219 
L 188.266925 468.415399 
L 196.071121 487.251256 
L 203.875317 447.220387 
L 211.679513 475.584022 
L 219.483708 478.618424 
L 227.287904 462.14555 
L 235.0921 395.824075 
L 242.896296 358.163107 
L 250.700492 340.376274 
L 258.504687 336.17267 
L 266.308883 346.07098 
L 274.113079 358.732355 
L 281.917275 384.870194 
L 289.721471 436.071201 
L 297.525667 476.287573 
L 305.329862 429.088282 
L 313.134058 427.550392 
L 320.938254 456.525205 
L 328.74245 470.195005 
L 336.546646 529.406316 
L 344.350841 491.472855 
L 352.155037 481.8834 
L 359.959233 483.191087 
L 367.763429 518.027424 
L 375.567625 565.26358 
L 383.37182 509.06568 
L 391.176016 486.458083 
L 398.980212 498.617112 
L 406.784408 522.081806 
L 414.588604 520.882731 
L 422.392799 468.500221 
L 430.196995 462.840339 
L 438.001191 477.597 
L 445.805387 482.060975 
L 453.609583 469.932062 
L 461.413778 457.260052 
" clip-path="url(#p632e82d003)" style="fill: none; stroke: #8c564b; stroke-opacity: 0.7; stroke-width: 1.5; stroke-linecap: square"/>
   </g>
   <g id="line2d_69">
    <path d="M 55.595597 457.027516 
L 63.399792 476.79973 
L 71.203988 477.046383 
L 79.008184 459.37422 
L 86.81238 458.733119 
L 94.616576 478.151426 
L 102.420771 521.760611 
L 110.224967 522.270801 
L 118.029163 493.055202 
L 125.833359 482.878269 
L 133.637555 488.941382 
L 141.44175 497.550758 
L 149.245946 494.604845 
L 157.050142 482.674615 
L 164.854338 482.779937 
L 172.658534 504.550084 
L 180.462729 543.387708 
L 188.266925 483.77805 
L 196.071121 451.22548 
L 203.875317 435.775378 
L 211.679513 435.611472 
L 219.483708 458.99359 
L 227.287904 460.388455 
L 235.0921 396.921981 
L 242.896296 361.687986 
L 250.700492 342.628394 
L 258.504687 336.17267 
L 266.308883 343.186733 
L 274.113079 360.689592 
L 281.917275 394.050854 
L 289.721471 454.374329 
L 297.525667 465.029677 
L 305.329862 435.930707 
L 313.134058 436.355673 
L 320.938254 454.230218 
L 328.74245 486.135774 
L 336.546646 529.88749 
L 344.350841 508.797426 
L 352.155037 482.62301 
L 359.959233 478.648813 
L 367.763429 489.947532 
L 375.567625 498.462351 
L 383.37182 491.436694 
L 391.176016 482.282261 
L 398.980212 489.286781 
L 406.784408 519.199676 
L 414.588604 526.439851 
L 422.392799 479.233013 
L 430.196995 460.341975 
L 438.001191 460.301946 
L 445.805387 474.519313 
L 453.609583 477.934197 
L 461.413778 453.953212 
" clip-path="url(#p632e82d003)" style="fill: none; stroke: #e377c2; stroke-opacity: 0.7; stroke-width: 1.5; stroke-linecap: square"/>
   </g>
   <g id="patch_9">
    <path d="M 35.304688 576.718125 
L 35.304688 324.718125 
" style="fill: none; stroke: #000000; stroke-width: 0.8; stroke-linejoin: miter; stroke-linecap: square"/>
   </g>
   <g id="patch_10">
    <path d="M 481.704687 576.718125 
L 481.704687 324.718125 
" style="fill: none; stroke: #000000; stroke-width: 0.8; stroke-linejoin: miter; stroke-linecap: square"/>
   </g>
   <g id="patch_11">
    <path d="M 35.304688 576.718125 
L 481.704687 576.718125 
" style="fill: none; stroke: #000000; stroke-width: 0.8; stroke-linejoin: miter; stroke-linecap: square"/>
   </g>
   <g id="patch_12">
    <path d="M 35.304688 324.718125 
L 481.704687 324.718125 
" style="fill: none; stroke: #000000; stroke-width: 0.8; stroke-linejoin: miter; stroke-linecap: square"/>
   </g>
   <g id="text_35">
    <!-- Radiation comparison of transform w/o error E-plane Phi = 0.0 -->
    <g transform="translate(71.374063 318.718125) scale(0.12 -0.12)">
     <defs>
      <path id="DejaVuSans-45" d="M 628 4666 
L 3578 4666 
L 3578 4134 
L 1259 4134 
L 1259 2753 
L 3481 2753 
L 3481 2222 
L 1259 2222 
L 1259 531 
L 3634 531 
L 3634 0 
L 628 0 
L 628 4666 
z
" transform="scale(0.015625)"/>
     </defs>
     <use xlink:href="#DejaVuSans-52"/>
     <use xlink:href="#DejaVuSans-61" x="67.232422"/>
     <use xlink:href="#DejaVuSans-64" x="128.511719"/>
     <use xlink:href="#DejaVuSans-69" x="191.988281"/>
     <use xlink:href="#DejaVuSans-61" x="219.771484"/>
     <use xlink:href="#DejaVuSans-74" x="281.050781"/>
     <use xlink:href="#DejaVuSans-69" x="320.259766"/>
     <use xlink:href="#DejaVuSans-6f" x="348.042969"/>
     <use xlink:href="#DejaVuSans-6e" x="409.224609"/>
     <use xlink:href="#DejaVuSans-20" x="472.603516"/>
     <use xlink:href="#DejaVuSans-63" x="504.390625"/>
     <use xlink:href="#DejaVuSans-6f" x="559.371094"/>
     <use xlink:href="#DejaVuSans-6d" x="620.552734"/>
     <use xlink:href="#DejaVuSans-70" x="717.964844"/>
     <use xlink:href="#DejaVuSans-61" x="781.441406"/>
     <use xlink:href="#DejaVuSans-72" x="842.720703"/>
     <use xlink:href="#DejaVuSans-69" x="883.833984"/>
     <use xlink:href="#DejaVuSans-73" x="911.617188"/>
     <use xlink:href="#DejaVuSans-6f" x="963.716797"/>
     <use xlink:href="#DejaVuSans-6e" x="1024.898438"/>
     <use xlink:href="#DejaVuSans-20" x="1088.277344"/>
     <use xlink:href="#DejaVuSans-6f" x="1120.064453"/>
     <use xlink:href="#DejaVuSans-66" x="1181.246094"/>
     <use xlink:href="#DejaVuSans-20" x="1216.451172"/>
     <use xlink:href="#DejaVuSans-74" x="1248.238281"/>
     <use xlink:href="#DejaVuSans-72" x="1287.447266"/>
     <use xlink:href="#DejaVuSans-61" x="1328.560547"/>
     <use xlink:href="#DejaVuSans-6e" x="1389.839844"/>
     <use xlink:href="#DejaVuSans-73" x="1453.21875"/>
     <use xlink:href="#DejaVuSans-66" x="1505.318359"/>
     <use xlink:href="#DejaVuSans-6f" x="1540.523438"/>
     <use xlink:href="#DejaVuSans-72" x="1601.705078"/>
     <use xlink:href="#DejaVuSans-6d" x="1641.068359"/>
     <use xlink:href="#DejaVuSans-20" x="1738.480469"/>
     <use xlink:href="#DejaVuSans-77" x="1770.267578"/>
     <use xlink:href="#DejaVuSans-2f" x="1852.054688"/>
     <use xlink:href="#DejaVuSans-6f" x="1885.746094"/>
     <use xlink:href="#DejaVuSans-20" x="1946.927734"/>
     <use xlink:href="#DejaVuSans-65" x="1978.714844"/>
     <use xlink:href="#DejaVuSans-72" x="2040.238281"/>
     <use xlink:href="#DejaVuSans-72" x="2079.601562"/>
     <use xlink:href="#DejaVuSans-6f" x="2118.464844"/>
     <use xlink:href="#DejaVuSans-72" x="2179.646484"/>
     <use xlink:href="#DejaVuSans-20" x="2220.759766"/>
     <use xlink:href="#DejaVuSans-45" x="2252.546875"/>
     <use xlink:href="#DejaVuSans-2d" x="2315.730469"/>
     <use xlink:href="#DejaVuSans-70" x="2351.814453"/>
     <use xlink:href="#DejaVuSans-6c" x="2415.291016"/>
     <use xlink:href="#DejaVuSans-61" x="2443.074219"/>
     <use xlink:href="#DejaVuSans-6e" x="2504.353516"/>
     <use xlink:href="#DejaVuSans-65" x="2567.732422"/>
     <use xlink:href="#DejaVuSans-20" x="2629.255859"/>
     <use xlink:href="#DejaVuSans-50" x="2661.042969"/>
     <use xlink:href="#DejaVuSans-68" x="2721.345703"/>
     <use xlink:href="#DejaVuSans-69" x="2784.724609"/>
     <use xlink:href="#DejaVuSans-20" x="2812.507812"/>
     <use xlink:href="#DejaVuSans-3d" x="2844.294922"/>
     <use xlink:href="#DejaVuSans-20" x="2928.083984"/>
     <use xlink:href="#DejaVuSans-30" x="2959.871094"/>
     <use xlink:href="#DejaVuSans-2e" x="3023.494141"/>
     <use xlink:href="#DejaVuSans-30" x="3055.28125"/>
    </g>
   </g>
   <g id="legend_2">
    <g id="patch_13">
     <path d="M 42.304688 435.465 
L 221.7375 435.465 
Q 223.7375 435.465 223.7375 433.465 
L 223.7375 331.718125 
Q 223.7375 329.718125 221.7375 329.718125 
L 42.304688 329.718125 
Q 40.304688 329.718125 40.304688 331.718125 
L 40.304688 433.465 
Q 40.304688 435.465 42.304688 435.465 
z
" style="fill: #ffffff; opacity: 0.8; stroke: #cccccc; stroke-linejoin: miter"/>
    </g>
    <g id="line2d_70">
     <path d="M 44.304688 337.816562 
L 54.304688 337.816562 
L 64.304688 337.816562 
" style="fill: none; stroke: #1f77b4; stroke-opacity: 0.7; stroke-width: 1.5; stroke-linecap: square"/>
    </g>
    <g id="text_36">
     <!-- Radiation without errors -->
     <g transform="translate(72.304688 341.316562) scale(0.1 -0.1)">
      <use xlink:href="#DejaVuSans-52"/>
      <use xlink:href="#DejaVuSans-61" x="67.232422"/>
      <use xlink:href="#DejaVuSans-64" x="128.511719"/>
      <use xlink:href="#DejaVuSans-69" x="191.988281"/>
      <use xlink:href="#DejaVuSans-61" x="219.771484"/>
      <use xlink:href="#DejaVuSans-74" x="281.050781"/>
      <use xlink:href="#DejaVuSans-69" x="320.259766"/>
      <use xlink:href="#DejaVuSans-6f" x="348.042969"/>
      <use xlink:href="#DejaVuSans-6e" x="409.224609"/>
      <use xlink:href="#DejaVuSans-20" x="472.603516"/>
      <use xlink:href="#DejaVuSans-77" x="504.390625"/>
      <use xlink:href="#DejaVuSans-69" x="586.177734"/>
      <use xlink:href="#DejaVuSans-74" x="613.960938"/>
      <use xlink:href="#DejaVuSans-68" x="653.169922"/>
      <use xlink:href="#DejaVuSans-6f" x="716.548828"/>
      <use xlink:href="#DejaVuSans-75" x="777.730469"/>
      <use xlink:href="#DejaVuSans-74" x="841.109375"/>
      <use xlink:href="#DejaVuSans-20" x="880.318359"/>
      <use xlink:href="#DejaVuSans-65" x="912.105469"/>
      <use xlink:href="#DejaVuSans-72" x="973.628906"/>
      <use xlink:href="#DejaVuSans-72" x="1012.992188"/>
      <use xlink:href="#DejaVuSans-6f" x="1051.855469"/>
      <use xlink:href="#DejaVuSans-72" x="1113.037109"/>
      <use xlink:href="#DejaVuSans-73" x="1154.150391"/>
     </g>
    </g>
    <g id="line2d_71">
     <path d="M 44.304688 352.494687 
L 54.304688 352.494687 
L 64.304688 352.494687 
" style="fill: none; stroke: #ff7f0e; stroke-opacity: 0.7; stroke-width: 1.5; stroke-linecap: square"/>
    </g>
    <g id="text_37">
     <!-- Radiation with errors (1mm) -->
     <g transform="translate(72.304688 355.994687) scale(0.1 -0.1)">
      <use xlink:href="#DejaVuSans-52"/>
      <use xlink:href="#DejaVuSans-61" x="67.232422"/>
      <use xlink:href="#DejaVuSans-64" x="128.511719"/>
      <use xlink:href="#DejaVuSans-69" x="191.988281"/>
      <use xlink:href="#DejaVuSans-61" x="219.771484"/>
      <use xlink:href="#DejaVuSans-74" x="281.050781"/>
      <use xlink:href="#DejaVuSans-69" x="320.259766"/>
      <use xlink:href="#DejaVuSans-6f" x="348.042969"/>
      <use xlink:href="#DejaVuSans-6e" x="409.224609"/>
      <use xlink:href="#DejaVuSans-20" x="472.603516"/>
      <use xlink:href="#DejaVuSans-77" x="504.390625"/>
      <use xlink:href="#DejaVuSans-69" x="586.177734"/>
      <use xlink:href="#DejaVuSans-74" x="613.960938"/>
      <use xlink:href="#DejaVuSans-68" x="653.169922"/>
      <use xlink:href="#DejaVuSans-20" x="716.548828"/>
      <use xlink:href="#DejaVuSans-65" x="748.335938"/>
      <use xlink:href="#DejaVuSans-72" x="809.859375"/>
      <use xlink:href="#DejaVuSans-72" x="849.222656"/>
      <use xlink:href="#DejaVuSans-6f" x="888.085938"/>
      <use xlink:href="#DejaVuSans-72" x="949.267578"/>
      <use xlink:href="#DejaVuSans-73" x="990.380859"/>
      <use xlink:href="#DejaVuSans-20" x="1042.480469"/>
      <use xlink:href="#DejaVuSans-28" x="1074.267578"/>
      <use xlink:href="#DejaVuSans-31" x="1113.28125"/>
      <use xlink:href="#DejaVuSans-6d" x="1176.904297"/>
      <use xlink:href="#DejaVuSans-6d" x="1274.316406"/>
      <use xlink:href="#DejaVuSans-29" x="1371.728516"/>
     </g>
    </g>
    <g id="line2d_72">
     <path d="M 44.304688 367.172812 
L 54.304688 367.172812 
L 64.304688 367.172812 
" style="fill: none; stroke: #2ca02c; stroke-opacity: 0.7; stroke-width: 1.5; stroke-linecap: square"/>
    </g>
    <g id="text_38">
     <!-- Radiation with errors (5mm) -->
     <g transform="translate(72.304688 370.672812) scale(0.1 -0.1)">
      <use xlink:href="#DejaVuSans-52"/>
      <use xlink:href="#DejaVuSans-61" x="67.232422"/>
      <use xlink:href="#DejaVuSans-64" x="128.511719"/>
      <use xlink:href="#DejaVuSans-69" x="191.988281"/>
      <use xlink:href="#DejaVuSans-61" x="219.771484"/>
      <use xlink:href="#DejaVuSans-74" x="281.050781"/>
      <use xlink:href="#DejaVuSans-69" x="320.259766"/>
      <use xlink:href="#DejaVuSans-6f" x="348.042969"/>
      <use xlink:href="#DejaVuSans-6e" x="409.224609"/>
      <use xlink:href="#DejaVuSans-20" x="472.603516"/>
      <use xlink:href="#DejaVuSans-77" x="504.390625"/>
      <use xlink:href="#DejaVuSans-69" x="586.177734"/>
      <use xlink:href="#DejaVuSans-74" x="613.960938"/>
      <use xlink:href="#DejaVuSans-68" x="653.169922"/>
      <use xlink:href="#DejaVuSans-20" x="716.548828"/>
      <use xlink:href="#DejaVuSans-65" x="748.335938"/>
      <use xlink:href="#DejaVuSans-72" x="809.859375"/>
      <use xlink:href="#DejaVuSans-72" x="849.222656"/>
      <use xlink:href="#DejaVuSans-6f" x="888.085938"/>
      <use xlink:href="#DejaVuSans-72" x="949.267578"/>
      <use xlink:href="#DejaVuSans-73" x="990.380859"/>
      <use xlink:href="#DejaVuSans-20" x="1042.480469"/>
      <use xlink:href="#DejaVuSans-28" x="1074.267578"/>
      <use xlink:href="#DejaVuSans-35" x="1113.28125"/>
      <use xlink:href="#DejaVuSans-6d" x="1176.904297"/>
      <use xlink:href="#DejaVuSans-6d" x="1274.316406"/>
      <use xlink:href="#DejaVuSans-29" x="1371.728516"/>
     </g>
    </g>
    <g id="line2d_73">
     <path d="M 44.304688 381.850937 
L 54.304688 381.850937 
L 64.304688 381.850937 
" style="fill: none; stroke: #d62728; stroke-opacity: 0.7; stroke-width: 1.5; stroke-linecap: square"/>
    </g>
    <g id="text_39">
     <!-- Radiation with errors (10mm) -->
     <g transform="translate(72.304688 385.350937) scale(0.1 -0.1)">
      <use xlink:href="#DejaVuSans-52"/>
      <use xlink:href="#DejaVuSans-61" x="67.232422"/>
      <use xlink:href="#DejaVuSans-64" x="128.511719"/>
      <use xlink:href="#DejaVuSans-69" x="191.988281"/>
      <use xlink:href="#DejaVuSans-61" x="219.771484"/>
      <use xlink:href="#DejaVuSans-74" x="281.050781"/>
      <use xlink:href="#DejaVuSans-69" x="320.259766"/>
      <use xlink:href="#DejaVuSans-6f" x="348.042969"/>
      <use xlink:href="#DejaVuSans-6e" x="409.224609"/>
      <use xlink:href="#DejaVuSans-20" x="472.603516"/>
      <use xlink:href="#DejaVuSans-77" x="504.390625"/>
      <use xlink:href="#DejaVuSans-69" x="586.177734"/>
      <use xlink:href="#DejaVuSans-74" x="613.960938"/>
      <use xlink:href="#DejaVuSans-68" x="653.169922"/>
      <use xlink:href="#DejaVuSans-20" x="716.548828"/>
      <use xlink:href="#DejaVuSans-65" x="748.335938"/>
      <use xlink:href="#DejaVuSans-72" x="809.859375"/>
      <use xlink:href="#DejaVuSans-72" x="849.222656"/>
      <use xlink:href="#DejaVuSans-6f" x="888.085938"/>
      <use xlink:href="#DejaVuSans-72" x="949.267578"/>
      <use xlink:href="#DejaVuSans-73" x="990.380859"/>
      <use xlink:href="#DejaVuSans-20" x="1042.480469"/>
      <use xlink:href="#DejaVuSans-28" x="1074.267578"/>
      <use xlink:href="#DejaVuSans-31" x="1113.28125"/>
      <use xlink:href="#DejaVuSans-30" x="1176.904297"/>
      <use xlink:href="#DejaVuSans-6d" x="1240.527344"/>
      <use xlink:href="#DejaVuSans-6d" x="1337.939453"/>
      <use xlink:href="#DejaVuSans-29" x="1435.351562"/>
     </g>
    </g>
    <g id="line2d_74">
     <path d="M 44.304688 396.529063 
L 54.304688 396.529063 
L 64.304688 396.529063 
" style="fill: none; stroke: #9467bd; stroke-opacity: 0.7; stroke-width: 1.5; stroke-linecap: square"/>
    </g>
    <g id="text_40">
     <!-- Radiation with errors (20mm) -->
     <g transform="translate(72.304688 400.029063) scale(0.1 -0.1)">
      <use xlink:href="#DejaVuSans-52"/>
      <use xlink:href="#DejaVuSans-61" x="67.232422"/>
      <use xlink:href="#DejaVuSans-64" x="128.511719"/>
      <use xlink:href="#DejaVuSans-69" x="191.988281"/>
      <use xlink:href="#DejaVuSans-61" x="219.771484"/>
      <use xlink:href="#DejaVuSans-74" x="281.050781"/>
      <use xlink:href="#DejaVuSans-69" x="320.259766"/>
      <use xlink:href="#DejaVuSans-6f" x="348.042969"/>
      <use xlink:href="#DejaVuSans-6e" x="409.224609"/>
      <use xlink:href="#DejaVuSans-20" x="472.603516"/>
      <use xlink:href="#DejaVuSans-77" x="504.390625"/>
      <use xlink:href="#DejaVuSans-69" x="586.177734"/>
      <use xlink:href="#DejaVuSans-74" x="613.960938"/>
      <use xlink:href="#DejaVuSans-68" x="653.169922"/>
      <use xlink:href="#DejaVuSans-20" x="716.548828"/>
      <use xlink:href="#DejaVuSans-65" x="748.335938"/>
      <use xlink:href="#DejaVuSans-72" x="809.859375"/>
      <use xlink:href="#DejaVuSans-72" x="849.222656"/>
      <use xlink:href="#DejaVuSans-6f" x="888.085938"/>
      <use xlink:href="#DejaVuSans-72" x="949.267578"/>
      <use xlink:href="#DejaVuSans-73" x="990.380859"/>
      <use xlink:href="#DejaVuSans-20" x="1042.480469"/>
      <use xlink:href="#DejaVuSans-28" x="1074.267578"/>
      <use xlink:href="#DejaVuSans-32" x="1113.28125"/>
      <use xlink:href="#DejaVuSans-30" x="1176.904297"/>
      <use xlink:href="#DejaVuSans-6d" x="1240.527344"/>
      <use xlink:href="#DejaVuSans-6d" x="1337.939453"/>
      <use xlink:href="#DejaVuSans-29" x="1435.351562"/>
     </g>
    </g>
    <g id="line2d_75">
     <path d="M 44.304688 411.207187 
L 54.304688 411.207187 
L 64.304688 411.207187 
" style="fill: none; stroke: #8c564b; stroke-opacity: 0.7; stroke-width: 1.5; stroke-linecap: square"/>
    </g>
    <g id="text_41">
     <!-- Radiation with errors (30mm) -->
     <g transform="translate(72.304688 414.707187) scale(0.1 -0.1)">
      <use xlink:href="#DejaVuSans-52"/>
      <use xlink:href="#DejaVuSans-61" x="67.232422"/>
      <use xlink:href="#DejaVuSans-64" x="128.511719"/>
      <use xlink:href="#DejaVuSans-69" x="191.988281"/>
      <use xlink:href="#DejaVuSans-61" x="219.771484"/>
      <use xlink:href="#DejaVuSans-74" x="281.050781"/>
      <use xlink:href="#DejaVuSans-69" x="320.259766"/>
      <use xlink:href="#DejaVuSans-6f" x="348.042969"/>
      <use xlink:href="#DejaVuSans-6e" x="409.224609"/>
      <use xlink:href="#DejaVuSans-20" x="472.603516"/>
      <use xlink:href="#DejaVuSans-77" x="504.390625"/>
      <use xlink:href="#DejaVuSans-69" x="586.177734"/>
      <use xlink:href="#DejaVuSans-74" x="613.960938"/>
      <use xlink:href="#DejaVuSans-68" x="653.169922"/>
      <use xlink:href="#DejaVuSans-20" x="716.548828"/>
      <use xlink:href="#DejaVuSans-65" x="748.335938"/>
      <use xlink:href="#DejaVuSans-72" x="809.859375"/>
      <use xlink:href="#DejaVuSans-72" x="849.222656"/>
      <use xlink:href="#DejaVuSans-6f" x="888.085938"/>
      <use xlink:href="#DejaVuSans-72" x="949.267578"/>
      <use xlink:href="#DejaVuSans-73" x="990.380859"/>
      <use xlink:href="#DejaVuSans-20" x="1042.480469"/>
      <use xlink:href="#DejaVuSans-28" x="1074.267578"/>
      <use xlink:href="#DejaVuSans-33" x="1113.28125"/>
      <use xlink:href="#DejaVuSans-30" x="1176.904297"/>
      <use xlink:href="#DejaVuSans-6d" x="1240.527344"/>
      <use xlink:href="#DejaVuSans-6d" x="1337.939453"/>
      <use xlink:href="#DejaVuSans-29" x="1435.351562"/>
     </g>
    </g>
    <g id="line2d_76">
     <path d="M 44.304688 425.885312 
L 54.304688 425.885312 
L 64.304688 425.885312 
" style="fill: none; stroke: #e377c2; stroke-opacity: 0.7; stroke-width: 1.5; stroke-linecap: square"/>
    </g>
    <g id="text_42">
     <!-- Radiation with errors (50mm) -->
     <g transform="translate(72.304688 429.385312) scale(0.1 -0.1)">
      <use xlink:href="#DejaVuSans-52"/>
      <use xlink:href="#DejaVuSans-61" x="67.232422"/>
      <use xlink:href="#DejaVuSans-64" x="128.511719"/>
      <use xlink:href="#DejaVuSans-69" x="191.988281"/>
      <use xlink:href="#DejaVuSans-61" x="219.771484"/>
      <use xlink:href="#DejaVuSans-74" x="281.050781"/>
      <use xlink:href="#DejaVuSans-69" x="320.259766"/>
      <use xlink:href="#DejaVuSans-6f" x="348.042969"/>
      <use xlink:href="#DejaVuSans-6e" x="409.224609"/>
      <use xlink:href="#DejaVuSans-20" x="472.603516"/>
      <use xlink:href="#DejaVuSans-77" x="504.390625"/>
      <use xlink:href="#DejaVuSans-69" x="586.177734"/>
      <use xlink:href="#DejaVuSans-74" x="613.960938"/>
      <use xlink:href="#DejaVuSans-68" x="653.169922"/>
      <use xlink:href="#DejaVuSans-20" x="716.548828"/>
      <use xlink:href="#DejaVuSans-65" x="748.335938"/>
      <use xlink:href="#DejaVuSans-72" x="809.859375"/>
      <use xlink:href="#DejaVuSans-72" x="849.222656"/>
      <use xlink:href="#DejaVuSans-6f" x="888.085938"/>
      <use xlink:href="#DejaVuSans-72" x="949.267578"/>
      <use xlink:href="#DejaVuSans-73" x="990.380859"/>
      <use xlink:href="#DejaVuSans-20" x="1042.480469"/>
      <use xlink:href="#DejaVuSans-28" x="1074.267578"/>
      <use xlink:href="#DejaVuSans-35" x="1113.28125"/>
      <use xlink:href="#DejaVuSans-30" x="1176.904297"/>
      <use xlink:href="#DejaVuSans-6d" x="1240.527344"/>
      <use xlink:href="#DejaVuSans-6d" x="1337.939453"/>
      <use xlink:href="#DejaVuSans-29" x="1435.351562"/>
     </g>
    </g>
   </g>
  </g>
 </g>
 <defs>
  <clipPath id="p949ae7c001">
   <rect x="35.304688" y="22.318125" width="446.4" height="252"/>
  </clipPath>
  <clipPath id="p632e82d003">
   <rect x="35.304688" y="324.718125" width="446.4" height="252"/>
  </clipPath>
 </defs>
</svg>
