<?xml version="1.0" encoding="utf-8" standalone="no"?>
<!DOCTYPE svg PUBLIC "-//W3C//DTD SVG 1.1//EN"
  "http://www.w3.org/Graphics/SVG/1.1/DTD/svg11.dtd">
<svg xmlns:xlink="http://www.w3.org/1999/xlink" width="488.904687pt" height="614.274375pt" viewBox="0 0 488.904687 614.274375" xmlns="http://www.w3.org/2000/svg" version="1.1">
 <metadata>
  <rdf:RDF xmlns:dc="http://purl.org/dc/elements/1.1/" xmlns:cc="http://creativecommons.org/ns#" xmlns:rdf="http://www.w3.org/1999/02/22-rdf-syntax-ns#">
   <cc:Work>
    <dc:type rdf:resource="http://purl.org/dc/dcmitype/StillImage"/>
    <dc:date>2024-12-12T10:50:37.567904</dc:date>
    <dc:format>image/svg+xml</dc:format>
    <dc:creator>
     <cc:Agent>
      <dc:title>Matplotlib v3.8.3, https://matplotlib.org/</dc:title>
     </cc:Agent>
    </dc:creator>
   </cc:Work>
  </rdf:RDF>
 </metadata>
 <defs>
  <style type="text/css">*{stroke-linejoin: round; stroke-linecap: butt}</style>
 </defs>
 <g id="figure_1">
  <g id="patch_1">
   <path d="M 0 614.274375 
L 488.904687 614.274375 
L 488.904687 0 
L 0 0 
z
" style="fill: #ffffff"/>
  </g>
  <g id="axes_1">
   <g id="patch_2">
    <path d="M 35.304688 274.318125 
L 481.704687 274.318125 
L 481.704687 22.318125 
L 35.304688 22.318125 
z
" style="fill: #ffffff"/>
   </g>
   <g id="matplotlib.axis_1">
    <g id="xtick_1">
     <g id="line2d_1">
      <path d="M 102.420771 274.318125 
L 102.420771 22.318125 
" clip-path="url(#pc7c0e908fc)" style="fill: none; stroke: #b0b0b0; stroke-width: 0.8; stroke-linecap: square"/>
     </g>
     <g id="line2d_2">
      <defs>
       <path id="m69a3b2de24" d="M 0 0 
L 0 3.5 
" style="stroke: #000000; stroke-width: 0.8"/>
      </defs>
      <g>
       <use xlink:href="#m69a3b2de24" x="102.420771" y="274.318125" style="stroke: #000000; stroke-width: 0.8"/>
      </g>
     </g>
     <g id="text_1">
      <!-- −100 -->
      <g transform="translate(88.687178 288.916562) scale(0.1 -0.1)">
       <defs>
        <path id="DejaVuSans-2212" d="M 678 2272 
L 4684 2272 
L 4684 1741 
L 678 1741 
L 678 2272 
z
" transform="scale(0.015625)"/>
        <path id="DejaVuSans-31" d="M 794 531 
L 1825 531 
L 1825 4091 
L 703 3866 
L 703 4441 
L 1819 4666 
L 2450 4666 
L 2450 531 
L 3481 531 
L 3481 0 
L 794 0 
L 794 531 
z
" transform="scale(0.015625)"/>
        <path id="DejaVuSans-30" d="M 2034 4250 
Q 1547 4250 1301 3770 
Q 1056 3291 1056 2328 
Q 1056 1369 1301 889 
Q 1547 409 2034 409 
Q 2525 409 2770 889 
Q 3016 1369 3016 2328 
Q 3016 3291 2770 3770 
Q 2525 4250 2034 4250 
z
M 2034 4750 
Q 2819 4750 3233 4129 
Q 3647 3509 3647 2328 
Q 3647 1150 3233 529 
Q 2819 -91 2034 -91 
Q 1250 -91 836 529 
Q 422 1150 422 2328 
Q 422 3509 836 4129 
Q 1250 4750 2034 4750 
z
" transform="scale(0.015625)"/>
       </defs>
       <use xlink:href="#DejaVuSans-2212"/>
       <use xlink:href="#DejaVuSans-31" x="83.789062"/>
       <use xlink:href="#DejaVuSans-30" x="147.412109"/>
       <use xlink:href="#DejaVuSans-30" x="211.035156"/>
      </g>
     </g>
    </g>
    <g id="xtick_2">
     <g id="line2d_3">
      <path d="M 180.462729 274.318125 
L 180.462729 22.318125 
" clip-path="url(#pc7c0e908fc)" style="fill: none; stroke: #b0b0b0; stroke-width: 0.8; stroke-linecap: square"/>
     </g>
     <g id="line2d_4">
      <g>
       <use xlink:href="#m69a3b2de24" x="180.462729" y="274.318125" style="stroke: #000000; stroke-width: 0.8"/>
      </g>
     </g>
     <g id="text_2">
      <!-- −50 -->
      <g transform="translate(169.910386 288.916562) scale(0.1 -0.1)">
       <defs>
        <path id="DejaVuSans-35" d="M 691 4666 
L 3169 4666 
L 3169 4134 
L 1269 4134 
L 1269 2991 
Q 1406 3038 1543 3061 
Q 1681 3084 1819 3084 
Q 2600 3084 3056 2656 
Q 3513 2228 3513 1497 
Q 3513 744 3044 326 
Q 2575 -91 1722 -91 
Q 1428 -91 1123 -41 
Q 819 9 494 109 
L 494 744 
Q 775 591 1075 516 
Q 1375 441 1709 441 
Q 2250 441 2565 725 
Q 2881 1009 2881 1497 
Q 2881 1984 2565 2268 
Q 2250 2553 1709 2553 
Q 1456 2553 1204 2497 
Q 953 2441 691 2322 
L 691 4666 
z
" transform="scale(0.015625)"/>
       </defs>
       <use xlink:href="#DejaVuSans-2212"/>
       <use xlink:href="#DejaVuSans-35" x="83.789062"/>
       <use xlink:href="#DejaVuSans-30" x="147.412109"/>
      </g>
     </g>
    </g>
    <g id="xtick_3">
     <g id="line2d_5">
      <path d="M 258.504687 274.318125 
L 258.504687 22.318125 
" clip-path="url(#pc7c0e908fc)" style="fill: none; stroke: #b0b0b0; stroke-width: 0.8; stroke-linecap: square"/>
     </g>
     <g id="line2d_6">
      <g>
       <use xlink:href="#m69a3b2de24" x="258.504687" y="274.318125" style="stroke: #000000; stroke-width: 0.8"/>
      </g>
     </g>
     <g id="text_3">
      <!-- 0 -->
      <g transform="translate(255.323437 288.916562) scale(0.1 -0.1)">
       <use xlink:href="#DejaVuSans-30"/>
      </g>
     </g>
    </g>
    <g id="xtick_4">
     <g id="line2d_7">
      <path d="M 336.546646 274.318125 
L 336.546646 22.318125 
" clip-path="url(#pc7c0e908fc)" style="fill: none; stroke: #b0b0b0; stroke-width: 0.8; stroke-linecap: square"/>
     </g>
     <g id="line2d_8">
      <g>
       <use xlink:href="#m69a3b2de24" x="336.546646" y="274.318125" style="stroke: #000000; stroke-width: 0.8"/>
      </g>
     </g>
     <g id="text_4">
      <!-- 50 -->
      <g transform="translate(330.184146 288.916562) scale(0.1 -0.1)">
       <use xlink:href="#DejaVuSans-35"/>
       <use xlink:href="#DejaVuSans-30" x="63.623047"/>
      </g>
     </g>
    </g>
    <g id="xtick_5">
     <g id="line2d_9">
      <path d="M 414.588604 274.318125 
L 414.588604 22.318125 
" clip-path="url(#pc7c0e908fc)" style="fill: none; stroke: #b0b0b0; stroke-width: 0.8; stroke-linecap: square"/>
     </g>
     <g id="line2d_10">
      <g>
       <use xlink:href="#m69a3b2de24" x="414.588604" y="274.318125" style="stroke: #000000; stroke-width: 0.8"/>
      </g>
     </g>
     <g id="text_5">
      <!-- 100 -->
      <g transform="translate(405.044854 288.916562) scale(0.1 -0.1)">
       <use xlink:href="#DejaVuSans-31"/>
       <use xlink:href="#DejaVuSans-30" x="63.623047"/>
       <use xlink:href="#DejaVuSans-30" x="127.246094"/>
      </g>
     </g>
    </g>
    <g id="text_6">
     <!-- Theta -->
     <g transform="translate(244.18125 302.594687) scale(0.1 -0.1)">
      <defs>
       <path id="DejaVuSans-54" d="M -19 4666 
L 3928 4666 
L 3928 4134 
L 2272 4134 
L 2272 0 
L 1638 0 
L 1638 4134 
L -19 4134 
L -19 4666 
z
" transform="scale(0.015625)"/>
       <path id="DejaVuSans-68" d="M 3513 2113 
L 3513 0 
L 2938 0 
L 2938 2094 
Q 2938 2591 2744 2837 
Q 2550 3084 2163 3084 
Q 1697 3084 1428 2787 
Q 1159 2491 1159 1978 
L 1159 0 
L 581 0 
L 581 4863 
L 1159 4863 
L 1159 2956 
Q 1366 3272 1645 3428 
Q 1925 3584 2291 3584 
Q 2894 3584 3203 3211 
Q 3513 2838 3513 2113 
z
" transform="scale(0.015625)"/>
       <path id="DejaVuSans-65" d="M 3597 1894 
L 3597 1613 
L 953 1613 
Q 991 1019 1311 708 
Q 1631 397 2203 397 
Q 2534 397 2845 478 
Q 3156 559 3463 722 
L 3463 178 
Q 3153 47 2828 -22 
Q 2503 -91 2169 -91 
Q 1331 -91 842 396 
Q 353 884 353 1716 
Q 353 2575 817 3079 
Q 1281 3584 2069 3584 
Q 2775 3584 3186 3129 
Q 3597 2675 3597 1894 
z
M 3022 2063 
Q 3016 2534 2758 2815 
Q 2500 3097 2075 3097 
Q 1594 3097 1305 2825 
Q 1016 2553 972 2059 
L 3022 2063 
z
" transform="scale(0.015625)"/>
       <path id="DejaVuSans-74" d="M 1172 4494 
L 1172 3500 
L 2356 3500 
L 2356 3053 
L 1172 3053 
L 1172 1153 
Q 1172 725 1289 603 
Q 1406 481 1766 481 
L 2356 481 
L 2356 0 
L 1766 0 
Q 1100 0 847 248 
Q 594 497 594 1153 
L 594 3053 
L 172 3053 
L 172 3500 
L 594 3500 
L 594 4494 
L 1172 4494 
z
" transform="scale(0.015625)"/>
       <path id="DejaVuSans-61" d="M 2194 1759 
Q 1497 1759 1228 1600 
Q 959 1441 959 1056 
Q 959 750 1161 570 
Q 1363 391 1709 391 
Q 2188 391 2477 730 
Q 2766 1069 2766 1631 
L 2766 1759 
L 2194 1759 
z
M 3341 1997 
L 3341 0 
L 2766 0 
L 2766 531 
Q 2569 213 2275 61 
Q 1981 -91 1556 -91 
Q 1019 -91 701 211 
Q 384 513 384 1019 
Q 384 1609 779 1909 
Q 1175 2209 1959 2209 
L 2766 2209 
L 2766 2266 
Q 2766 2663 2505 2880 
Q 2244 3097 1772 3097 
Q 1472 3097 1187 3025 
Q 903 2953 641 2809 
L 641 3341 
Q 956 3463 1253 3523 
Q 1550 3584 1831 3584 
Q 2591 3584 2966 3190 
Q 3341 2797 3341 1997 
z
" transform="scale(0.015625)"/>
      </defs>
      <use xlink:href="#DejaVuSans-54"/>
      <use xlink:href="#DejaVuSans-68" x="61.083984"/>
      <use xlink:href="#DejaVuSans-65" x="124.462891"/>
      <use xlink:href="#DejaVuSans-74" x="185.986328"/>
      <use xlink:href="#DejaVuSans-61" x="225.195312"/>
     </g>
    </g>
   </g>
   <g id="matplotlib.axis_2">
    <g id="ytick_1">
     <g id="line2d_11">
      <path d="M 35.304688 254.940998 
L 481.704687 254.940998 
" clip-path="url(#pc7c0e908fc)" style="fill: none; stroke: #b0b0b0; stroke-width: 0.8; stroke-linecap: square"/>
     </g>
     <g id="line2d_12">
      <defs>
       <path id="me2e33395eb" d="M 0 0 
L -3.5 0 
" style="stroke: #000000; stroke-width: 0.8"/>
      </defs>
      <g>
       <use xlink:href="#me2e33395eb" x="35.304688" y="254.940998" style="stroke: #000000; stroke-width: 0.8"/>
      </g>
     </g>
     <g id="text_7">
      <!-- −30 -->
      <g transform="translate(7.2 258.740217) scale(0.1 -0.1)">
       <defs>
        <path id="DejaVuSans-33" d="M 2597 2516 
Q 3050 2419 3304 2112 
Q 3559 1806 3559 1356 
Q 3559 666 3084 287 
Q 2609 -91 1734 -91 
Q 1441 -91 1130 -33 
Q 819 25 488 141 
L 488 750 
Q 750 597 1062 519 
Q 1375 441 1716 441 
Q 2309 441 2620 675 
Q 2931 909 2931 1356 
Q 2931 1769 2642 2001 
Q 2353 2234 1838 2234 
L 1294 2234 
L 1294 2753 
L 1863 2753 
Q 2328 2753 2575 2939 
Q 2822 3125 2822 3475 
Q 2822 3834 2567 4026 
Q 2313 4219 1838 4219 
Q 1578 4219 1281 4162 
Q 984 4106 628 3988 
L 628 4550 
Q 988 4650 1302 4700 
Q 1616 4750 1894 4750 
Q 2613 4750 3031 4423 
Q 3450 4097 3450 3541 
Q 3450 3153 3228 2886 
Q 3006 2619 2597 2516 
z
" transform="scale(0.015625)"/>
       </defs>
       <use xlink:href="#DejaVuSans-2212"/>
       <use xlink:href="#DejaVuSans-33" x="83.789062"/>
       <use xlink:href="#DejaVuSans-30" x="147.412109"/>
      </g>
     </g>
    </g>
    <g id="ytick_2">
     <g id="line2d_13">
      <path d="M 35.304688 218.025224 
L 481.704687 218.025224 
" clip-path="url(#pc7c0e908fc)" style="fill: none; stroke: #b0b0b0; stroke-width: 0.8; stroke-linecap: square"/>
     </g>
     <g id="line2d_14">
      <g>
       <use xlink:href="#me2e33395eb" x="35.304688" y="218.025224" style="stroke: #000000; stroke-width: 0.8"/>
      </g>
     </g>
     <g id="text_8">
      <!-- −25 -->
      <g transform="translate(7.2 221.824443) scale(0.1 -0.1)">
       <defs>
        <path id="DejaVuSans-32" d="M 1228 531 
L 3431 531 
L 3431 0 
L 469 0 
L 469 531 
Q 828 903 1448 1529 
Q 2069 2156 2228 2338 
Q 2531 2678 2651 2914 
Q 2772 3150 2772 3378 
Q 2772 3750 2511 3984 
Q 2250 4219 1831 4219 
Q 1534 4219 1204 4116 
Q 875 4013 500 3803 
L 500 4441 
Q 881 4594 1212 4672 
Q 1544 4750 1819 4750 
Q 2544 4750 2975 4387 
Q 3406 4025 3406 3419 
Q 3406 3131 3298 2873 
Q 3191 2616 2906 2266 
Q 2828 2175 2409 1742 
Q 1991 1309 1228 531 
z
" transform="scale(0.015625)"/>
       </defs>
       <use xlink:href="#DejaVuSans-2212"/>
       <use xlink:href="#DejaVuSans-32" x="83.789062"/>
       <use xlink:href="#DejaVuSans-35" x="147.412109"/>
      </g>
     </g>
    </g>
    <g id="ytick_3">
     <g id="line2d_15">
      <path d="M 35.304688 181.109451 
L 481.704687 181.109451 
" clip-path="url(#pc7c0e908fc)" style="fill: none; stroke: #b0b0b0; stroke-width: 0.8; stroke-linecap: square"/>
     </g>
     <g id="line2d_16">
      <g>
       <use xlink:href="#me2e33395eb" x="35.304688" y="181.109451" style="stroke: #000000; stroke-width: 0.8"/>
      </g>
     </g>
     <g id="text_9">
      <!-- −20 -->
      <g transform="translate(7.2 184.908669) scale(0.1 -0.1)">
       <use xlink:href="#DejaVuSans-2212"/>
       <use xlink:href="#DejaVuSans-32" x="83.789062"/>
       <use xlink:href="#DejaVuSans-30" x="147.412109"/>
      </g>
     </g>
    </g>
    <g id="ytick_4">
     <g id="line2d_17">
      <path d="M 35.304688 144.193677 
L 481.704687 144.193677 
" clip-path="url(#pc7c0e908fc)" style="fill: none; stroke: #b0b0b0; stroke-width: 0.8; stroke-linecap: square"/>
     </g>
     <g id="line2d_18">
      <g>
       <use xlink:href="#me2e33395eb" x="35.304688" y="144.193677" style="stroke: #000000; stroke-width: 0.8"/>
      </g>
     </g>
     <g id="text_10">
      <!-- −15 -->
      <g transform="translate(7.2 147.992896) scale(0.1 -0.1)">
       <use xlink:href="#DejaVuSans-2212"/>
       <use xlink:href="#DejaVuSans-31" x="83.789062"/>
       <use xlink:href="#DejaVuSans-35" x="147.412109"/>
      </g>
     </g>
    </g>
    <g id="ytick_5">
     <g id="line2d_19">
      <path d="M 35.304688 107.277904 
L 481.704687 107.277904 
" clip-path="url(#pc7c0e908fc)" style="fill: none; stroke: #b0b0b0; stroke-width: 0.8; stroke-linecap: square"/>
     </g>
     <g id="line2d_20">
      <g>
       <use xlink:href="#me2e33395eb" x="35.304688" y="107.277904" style="stroke: #000000; stroke-width: 0.8"/>
      </g>
     </g>
     <g id="text_11">
      <!-- −10 -->
      <g transform="translate(7.2 111.077122) scale(0.1 -0.1)">
       <use xlink:href="#DejaVuSans-2212"/>
       <use xlink:href="#DejaVuSans-31" x="83.789062"/>
       <use xlink:href="#DejaVuSans-30" x="147.412109"/>
      </g>
     </g>
    </g>
    <g id="ytick_6">
     <g id="line2d_21">
      <path d="M 35.304688 70.36213 
L 481.704687 70.36213 
" clip-path="url(#pc7c0e908fc)" style="fill: none; stroke: #b0b0b0; stroke-width: 0.8; stroke-linecap: square"/>
     </g>
     <g id="line2d_22">
      <g>
       <use xlink:href="#me2e33395eb" x="35.304688" y="70.36213" style="stroke: #000000; stroke-width: 0.8"/>
      </g>
     </g>
     <g id="text_12">
      <!-- −5 -->
      <g transform="translate(13.5625 74.161349) scale(0.1 -0.1)">
       <use xlink:href="#DejaVuSans-2212"/>
       <use xlink:href="#DejaVuSans-35" x="83.789062"/>
      </g>
     </g>
    </g>
    <g id="ytick_7">
     <g id="line2d_23">
      <path d="M 35.304688 33.446356 
L 481.704687 33.446356 
" clip-path="url(#pc7c0e908fc)" style="fill: none; stroke: #b0b0b0; stroke-width: 0.8; stroke-linecap: square"/>
     </g>
     <g id="line2d_24">
      <g>
       <use xlink:href="#me2e33395eb" x="35.304688" y="33.446356" style="stroke: #000000; stroke-width: 0.8"/>
      </g>
     </g>
     <g id="text_13">
      <!-- 0 -->
      <g transform="translate(21.942187 37.245575) scale(0.1 -0.1)">
       <use xlink:href="#DejaVuSans-30"/>
      </g>
     </g>
    </g>
   </g>
   <g id="line2d_25">
    <path d="M 55.595597 176.535976 
L 63.399792 177.897125 
L 71.203988 182.422314 
L 79.008184 189.609876 
L 86.81238 200.516393 
L 94.616576 210.006897 
L 102.420771 216.823545 
L 110.224967 226.477978 
L 118.029163 233.542011 
L 125.833359 235.304732 
L 133.637555 235.488027 
L 141.44175 244.428259 
L 149.245946 253.132093 
L 157.050142 252.28261 
L 164.854338 244.343906 
L 172.658534 240.422881 
L 180.462729 244.549049 
L 188.266925 251.441666 
L 196.071121 239.975069 
L 203.875317 210.684374 
L 211.679513 185.548911 
L 219.483708 168.457292 
L 227.287904 137.339189 
L 235.0921 93.341374 
L 242.896296 58.564472 
L 250.700492 39.288654 
L 258.504687 34.092954 
L 266.308883 40.608564 
L 274.113079 61.38986 
L 281.917275 98.26796 
L 289.721471 143.105581 
L 297.525667 173.161481 
L 305.329862 188.151551 
L 313.134058 213.369726 
L 320.938254 242.121894 
L 328.74245 252.942325 
L 336.546646 245.326598 
L 344.350841 241.687179 
L 352.155037 245.24298 
L 359.959233 252.020461 
L 367.763429 251.943489 
L 375.567625 243.313517 
L 383.37182 235.178699 
L 391.176016 235.12901 
L 398.980212 232.648692 
L 406.784408 225.075195 
L 414.588604 215.57222 
L 422.392799 208.651106 
L 430.196995 198.616969 
L 438.001191 187.609157 
L 445.805387 181.601431 
L 453.609583 176.599556 
L 461.413778 173.84983 
" clip-path="url(#pc7c0e908fc)" style="fill: none; stroke: #1f77b4; stroke-opacity: 0.7; stroke-width: 1.5; stroke-linecap: square"/>
   </g>
   <g id="line2d_26">
    <path d="M 55.595597 187.309762 
L 63.399792 181.270038 
L 71.203988 181.796723 
L 79.008184 193.25069 
L 86.81238 205.451495 
L 94.616576 210.326066 
L 102.420771 222.209288 
L 110.224967 227.756501 
L 118.029163 237.096378 
L 125.833359 236.304703 
L 133.637555 239.942674 
L 141.44175 246.361803 
L 149.245946 251.309675 
L 157.050142 254.694603 
L 164.854338 242.950306 
L 172.658534 243.503525 
L 180.462729 240.225065 
L 188.266925 262.86358 
L 196.071121 240.982065 
L 203.875317 191.625162 
L 211.679513 138.952696 
L 219.483708 143.977466 
L 227.287904 142.850833 
L 235.0921 108.562658 
L 242.896296 67.58779 
L 250.700492 41.466276 
L 258.504687 39.66254 
L 266.308883 51.066426 
L 274.113079 66.600091 
L 281.917275 110.93564 
L 289.721471 145.221275 
L 297.525667 169.219613 
L 305.329862 178.826901 
L 313.134058 196.109347 
L 320.938254 206.117967 
L 328.74245 206.012138 
L 336.546646 209.41386 
L 344.350841 222.024311 
L 352.155037 237.133843 
L 359.959233 251.139812 
L 367.763429 246.3238 
L 375.567625 247.2843 
L 383.37182 235.891529 
L 391.176016 238.916213 
L 398.980212 234.795373 
L 406.784408 228.679851 
L 414.588604 219.482853 
L 422.392799 215.440337 
L 430.196995 203.732868 
L 438.001191 193.953596 
L 445.805387 185.36054 
L 453.609583 178.197162 
L 461.413778 173.125773 
" clip-path="url(#pc7c0e908fc)" style="fill: none; stroke: #ff7f0e; stroke-opacity: 0.7; stroke-width: 1.5; stroke-linecap: square"/>
   </g>
   <g id="line2d_27">
    <path d="M 55.595597 176.677791 
L 63.399792 177.678197 
L 71.203988 182.135902 
L 79.008184 189.691485 
L 86.81238 200.736861 
L 94.616576 210.23029 
L 102.420771 216.891479 
L 110.224967 226.751173 
L 118.029163 233.758638 
L 125.833359 235.657568 
L 133.637555 235.714656 
L 141.44175 244.426318 
L 149.245946 253.448646 
L 157.050142 252.625093 
L 164.854338 243.737671 
L 172.658534 238.953183 
L 180.462729 244.226436 
L 188.266925 251.379493 
L 196.071121 238.735208 
L 203.875317 208.693396 
L 211.679513 185.37779 
L 219.483708 169.647041 
L 227.287904 138.356409 
L 235.0921 93.339129 
L 242.896296 58.164463 
L 250.700492 38.961545 
L 258.504687 34.023705 
L 266.308883 40.543435 
L 274.113079 61.367652 
L 281.917275 97.882748 
L 289.721471 141.985128 
L 297.525667 173.781394 
L 305.329862 189.892523 
L 313.134058 216.333459 
L 320.938254 242.473807 
L 328.74245 252.415907 
L 336.546646 244.167711 
L 344.350841 241.654531 
L 352.155037 245.508911 
L 359.959233 251.699538 
L 367.763429 252.003711 
L 375.567625 242.706777 
L 383.37182 235.415556 
L 391.176016 235.118928 
L 398.980212 233.244482 
L 406.784408 225.27131 
L 414.588604 216.035332 
L 422.392799 208.685444 
L 430.196995 198.981186 
L 438.001191 187.591191 
L 445.805387 181.689046 
L 453.609583 176.733149 
L 461.413778 174.071002 
" clip-path="url(#pc7c0e908fc)" style="fill: none; stroke: #2ca02c; stroke-opacity: 0.7; stroke-width: 1.5; stroke-linecap: square"/>
   </g>
   <g id="line2d_28">
    <path d="M 55.595597 176.250804 
L 63.399792 177.744493 
L 71.203988 182.34483 
L 79.008184 189.525287 
L 86.81238 200.499994 
L 94.616576 209.831181 
L 102.420771 216.755347 
L 110.224967 226.380998 
L 118.029163 233.49853 
L 125.833359 235.138396 
L 133.637555 235.463319 
L 141.44175 244.26542 
L 149.245946 253.06718 
L 157.050142 252.264713 
L 164.854338 244.401706 
L 172.658534 240.175731 
L 180.462729 244.385581 
L 188.266925 251.769767 
L 196.071121 239.991402 
L 203.875317 210.166027 
L 211.679513 185.054998 
L 219.483708 168.582135 
L 227.287904 137.383596 
L 235.0921 93.268825 
L 242.896296 58.567109 
L 250.700492 39.341335 
L 258.504687 34.086215 
L 266.308883 40.572398 
L 274.113079 61.306748 
L 281.917275 98.370591 
L 289.721471 143.221967 
L 297.525667 172.888362 
L 305.329862 187.445906 
L 313.134058 213.251981 
L 320.938254 242.30273 
L 328.74245 253.073858 
L 336.546646 245.107965 
L 344.350841 241.560951 
L 352.155037 245.057596 
L 359.959233 251.917304 
L 367.763429 251.964763 
L 375.567625 243.21056 
L 383.37182 235.103106 
L 391.176016 234.979805 
L 398.980212 232.578773 
L 406.784408 224.906575 
L 414.588604 215.447534 
L 422.392799 208.531623 
L 430.196995 198.596455 
L 438.001191 187.528301 
L 445.805387 181.547281 
L 453.609583 176.592096 
L 461.413778 173.923779 
" clip-path="url(#pc7c0e908fc)" style="fill: none; stroke: #d62728; stroke-opacity: 0.7; stroke-width: 1.5; stroke-linecap: square"/>
   </g>
   <g id="line2d_29">
    <path d="M 55.595597 176.32906 
L 63.399792 178.380338 
L 71.203988 183.316371 
L 79.008184 189.617632 
L 86.81238 201.73062 
L 94.616576 211.854096 
L 102.420771 218.896884 
L 110.224967 227.336903 
L 118.029163 235.075904 
L 125.833359 236.166047 
L 133.637555 237.251727 
L 141.44175 244.357179 
L 149.245946 252.369605 
L 157.050142 250.104462 
L 164.854338 246.370314 
L 172.658534 237.68273 
L 180.462729 239.987188 
L 188.266925 244.747599 
L 196.071121 237.860848 
L 203.875317 212.23314 
L 211.679513 189.239914 
L 219.483708 172.045314 
L 227.287904 138.739403 
L 235.0921 97.096413 
L 242.896296 60.06053 
L 250.700492 39.878326 
L 258.504687 34.290094 
L 266.308883 41.308418 
L 274.113079 61.790555 
L 281.917275 94.867001 
L 289.721471 147.54871 
L 297.525667 177.963114 
L 305.329862 186.626187 
L 313.134058 209.523373 
L 320.938254 244.469488 
L 328.74245 258.61544 
L 336.546646 246.534573 
L 344.350841 244.307719 
L 352.155037 243.623764 
L 359.959233 251.828842 
L 367.763429 251.919977 
L 375.567625 244.211068 
L 383.37182 235.071931 
L 391.176016 235.845745 
L 398.980212 232.076506 
L 406.784408 225.281507 
L 414.588604 214.718049 
L 422.392799 210.492078 
L 430.196995 198.215719 
L 438.001191 188.925594 
L 445.805387 178.567154 
L 453.609583 175.293408 
L 461.413778 177.671355 
" clip-path="url(#pc7c0e908fc)" style="fill: none; stroke: #9467bd; stroke-opacity: 0.7; stroke-width: 1.5; stroke-linecap: square"/>
   </g>
   <g id="line2d_30">
    <path d="M 55.595597 173.241176 
L 63.399792 176.790264 
L 71.203988 182.524704 
L 79.008184 189.185329 
L 86.81238 200.944034 
L 94.616576 209.398985 
L 102.420771 216.33882 
L 110.224967 225.779883 
L 118.029163 233.600036 
L 125.833359 234.501494 
L 133.637555 235.016725 
L 141.44175 243.62749 
L 149.245946 253.453302 
L 157.050142 252.629328 
L 164.854338 244.650478 
L 172.658534 238.913302 
L 180.462729 243.156189 
L 188.266925 250.66705 
L 196.071121 240.471712 
L 203.875317 218.514693 
L 211.679513 193.605958 
L 219.483708 171.553135 
L 227.287904 135.735667 
L 235.0921 95.096743 
L 242.896296 58.927989 
L 250.700492 38.145297 
L 258.504687 33.77267 
L 266.308883 41.389739 
L 274.113079 62.773551 
L 281.917275 97.742686 
L 289.721471 141.898201 
L 297.525667 174.669926 
L 305.329862 189.042394 
L 313.134058 216.887312 
L 320.938254 240.579938 
L 328.74245 252.423713 
L 336.546646 244.664195 
L 344.350841 243.987519 
L 352.155037 245.541237 
L 359.959233 251.315182 
L 367.763429 253.532494 
L 375.567625 241.696264 
L 383.37182 236.069167 
L 391.176016 234.312643 
L 398.980212 234.057482 
L 406.784408 224.247443 
L 414.588604 216.708316 
L 422.392799 207.816847 
L 430.196995 199.798908 
L 438.001191 187.103162 
L 445.805387 182.036567 
L 453.609583 177.019117 
L 461.413778 173.747108 
" clip-path="url(#pc7c0e908fc)" style="fill: none; stroke: #8c564b; stroke-opacity: 0.7; stroke-width: 1.5; stroke-linecap: square"/>
   </g>
   <g id="line2d_31">
    <path d="M 55.595597 182.471753 
L 63.399792 179.855115 
L 71.203988 183.187439 
L 79.008184 193.165956 
L 86.81238 201.953851 
L 94.616576 212.696154 
L 102.420771 217.47283 
L 110.224967 228.592168 
L 118.029163 234.698679 
L 125.833359 235.564411 
L 133.637555 236.859258 
L 141.44175 247.257378 
L 149.245946 256.268316 
L 157.050142 250.958747 
L 164.854338 249.184865 
L 172.658534 247.857184 
L 180.462729 238.508645 
L 188.266925 241.772493 
L 196.071121 224.947745 
L 203.875317 198.126284 
L 211.679513 177.503505 
L 219.483708 166.792943 
L 227.287904 133.365187 
L 235.0921 93.953031 
L 242.896296 71.046633 
L 250.700492 44.960929 
L 258.504687 34.579174 
L 266.308883 38.337253 
L 274.113079 61.443141 
L 281.917275 115.04214 
L 289.721471 157.664609 
L 297.525667 180.644585 
L 305.329862 195.75754 
L 313.134058 220.074652 
L 320.938254 241.356635 
L 328.74245 251.888082 
L 336.546646 254.295047 
L 344.350841 245.196517 
L 352.155037 245.557603 
L 359.959233 252.14597 
L 367.763429 250.993339 
L 375.567625 244.666591 
L 383.37182 236.027239 
L 391.176016 238.573702 
L 398.980212 235.578275 
L 406.784408 227.786185 
L 414.588604 215.898466 
L 422.392799 210.927489 
L 430.196995 201.486841 
L 438.001191 195.039662 
L 445.805387 186.253119 
L 453.609583 178.681089 
L 461.413778 171.577084 
" clip-path="url(#pc7c0e908fc)" style="fill: none; stroke: #e377c2; stroke-opacity: 0.7; stroke-width: 1.5; stroke-linecap: square"/>
   </g>
   <g id="patch_3">
    <path d="M 35.304688 274.318125 
L 35.304688 22.318125 
" style="fill: none; stroke: #000000; stroke-width: 0.8; stroke-linejoin: miter; stroke-linecap: square"/>
   </g>
   <g id="patch_4">
    <path d="M 481.704687 274.318125 
L 481.704687 22.318125 
" style="fill: none; stroke: #000000; stroke-width: 0.8; stroke-linejoin: miter; stroke-linecap: square"/>
   </g>
   <g id="patch_5">
    <path d="M 35.304688 274.318125 
L 481.704687 274.318125 
" style="fill: none; stroke: #000000; stroke-width: 0.8; stroke-linejoin: miter; stroke-linecap: square"/>
   </g>
   <g id="patch_6">
    <path d="M 35.304688 22.318125 
L 481.704687 22.318125 
" style="fill: none; stroke: #000000; stroke-width: 0.8; stroke-linejoin: miter; stroke-linecap: square"/>
   </g>
   <g id="text_14">
    <!-- Radiation comparison of transform w/o error H-plane Phi = 90.0 -->
    <g transform="translate(66.835625 16.318125) scale(0.12 -0.12)">
     <defs>
      <path id="DejaVuSans-52" d="M 2841 2188 
Q 3044 2119 3236 1894 
Q 3428 1669 3622 1275 
L 4263 0 
L 3584 0 
L 2988 1197 
Q 2756 1666 2539 1819 
Q 2322 1972 1947 1972 
L 1259 1972 
L 1259 0 
L 628 0 
L 628 4666 
L 2053 4666 
Q 2853 4666 3247 4331 
Q 3641 3997 3641 3322 
Q 3641 2881 3436 2590 
Q 3231 2300 2841 2188 
z
M 1259 4147 
L 1259 2491 
L 2053 2491 
Q 2509 2491 2742 2702 
Q 2975 2913 2975 3322 
Q 2975 3731 2742 3939 
Q 2509 4147 2053 4147 
L 1259 4147 
z
" transform="scale(0.015625)"/>
      <path id="DejaVuSans-64" d="M 2906 2969 
L 2906 4863 
L 3481 4863 
L 3481 0 
L 2906 0 
L 2906 525 
Q 2725 213 2448 61 
Q 2172 -91 1784 -91 
Q 1150 -91 751 415 
Q 353 922 353 1747 
Q 353 2572 751 3078 
Q 1150 3584 1784 3584 
Q 2172 3584 2448 3432 
Q 2725 3281 2906 2969 
z
M 947 1747 
Q 947 1113 1208 752 
Q 1469 391 1925 391 
Q 2381 391 2643 752 
Q 2906 1113 2906 1747 
Q 2906 2381 2643 2742 
Q 2381 3103 1925 3103 
Q 1469 3103 1208 2742 
Q 947 2381 947 1747 
z
" transform="scale(0.015625)"/>
      <path id="DejaVuSans-69" d="M 603 3500 
L 1178 3500 
L 1178 0 
L 603 0 
L 603 3500 
z
M 603 4863 
L 1178 4863 
L 1178 4134 
L 603 4134 
L 603 4863 
z
" transform="scale(0.015625)"/>
      <path id="DejaVuSans-6f" d="M 1959 3097 
Q 1497 3097 1228 2736 
Q 959 2375 959 1747 
Q 959 1119 1226 758 
Q 1494 397 1959 397 
Q 2419 397 2687 759 
Q 2956 1122 2956 1747 
Q 2956 2369 2687 2733 
Q 2419 3097 1959 3097 
z
M 1959 3584 
Q 2709 3584 3137 3096 
Q 3566 2609 3566 1747 
Q 3566 888 3137 398 
Q 2709 -91 1959 -91 
Q 1206 -91 779 398 
Q 353 888 353 1747 
Q 353 2609 779 3096 
Q 1206 3584 1959 3584 
z
" transform="scale(0.015625)"/>
      <path id="DejaVuSans-6e" d="M 3513 2113 
L 3513 0 
L 2938 0 
L 2938 2094 
Q 2938 2591 2744 2837 
Q 2550 3084 2163 3084 
Q 1697 3084 1428 2787 
Q 1159 2491 1159 1978 
L 1159 0 
L 581 0 
L 581 3500 
L 1159 3500 
L 1159 2956 
Q 1366 3272 1645 3428 
Q 1925 3584 2291 3584 
Q 2894 3584 3203 3211 
Q 3513 2838 3513 2113 
z
" transform="scale(0.015625)"/>
      <path id="DejaVuSans-20" transform="scale(0.015625)"/>
      <path id="DejaVuSans-63" d="M 3122 3366 
L 3122 2828 
Q 2878 2963 2633 3030 
Q 2388 3097 2138 3097 
Q 1578 3097 1268 2742 
Q 959 2388 959 1747 
Q 959 1106 1268 751 
Q 1578 397 2138 397 
Q 2388 397 2633 464 
Q 2878 531 3122 666 
L 3122 134 
Q 2881 22 2623 -34 
Q 2366 -91 2075 -91 
Q 1284 -91 818 406 
Q 353 903 353 1747 
Q 353 2603 823 3093 
Q 1294 3584 2113 3584 
Q 2378 3584 2631 3529 
Q 2884 3475 3122 3366 
z
" transform="scale(0.015625)"/>
      <path id="DejaVuSans-6d" d="M 3328 2828 
Q 3544 3216 3844 3400 
Q 4144 3584 4550 3584 
Q 5097 3584 5394 3201 
Q 5691 2819 5691 2113 
L 5691 0 
L 5113 0 
L 5113 2094 
Q 5113 2597 4934 2840 
Q 4756 3084 4391 3084 
Q 3944 3084 3684 2787 
Q 3425 2491 3425 1978 
L 3425 0 
L 2847 0 
L 2847 2094 
Q 2847 2600 2669 2842 
Q 2491 3084 2119 3084 
Q 1678 3084 1418 2786 
Q 1159 2488 1159 1978 
L 1159 0 
L 581 0 
L 581 3500 
L 1159 3500 
L 1159 2956 
Q 1356 3278 1631 3431 
Q 1906 3584 2284 3584 
Q 2666 3584 2933 3390 
Q 3200 3197 3328 2828 
z
" transform="scale(0.015625)"/>
      <path id="DejaVuSans-70" d="M 1159 525 
L 1159 -1331 
L 581 -1331 
L 581 3500 
L 1159 3500 
L 1159 2969 
Q 1341 3281 1617 3432 
Q 1894 3584 2278 3584 
Q 2916 3584 3314 3078 
Q 3713 2572 3713 1747 
Q 3713 922 3314 415 
Q 2916 -91 2278 -91 
Q 1894 -91 1617 61 
Q 1341 213 1159 525 
z
M 3116 1747 
Q 3116 2381 2855 2742 
Q 2594 3103 2138 3103 
Q 1681 3103 1420 2742 
Q 1159 2381 1159 1747 
Q 1159 1113 1420 752 
Q 1681 391 2138 391 
Q 2594 391 2855 752 
Q 3116 1113 3116 1747 
z
" transform="scale(0.015625)"/>
      <path id="DejaVuSans-72" d="M 2631 2963 
Q 2534 3019 2420 3045 
Q 2306 3072 2169 3072 
Q 1681 3072 1420 2755 
Q 1159 2438 1159 1844 
L 1159 0 
L 581 0 
L 581 3500 
L 1159 3500 
L 1159 2956 
Q 1341 3275 1631 3429 
Q 1922 3584 2338 3584 
Q 2397 3584 2469 3576 
Q 2541 3569 2628 3553 
L 2631 2963 
z
" transform="scale(0.015625)"/>
      <path id="DejaVuSans-73" d="M 2834 3397 
L 2834 2853 
Q 2591 2978 2328 3040 
Q 2066 3103 1784 3103 
Q 1356 3103 1142 2972 
Q 928 2841 928 2578 
Q 928 2378 1081 2264 
Q 1234 2150 1697 2047 
L 1894 2003 
Q 2506 1872 2764 1633 
Q 3022 1394 3022 966 
Q 3022 478 2636 193 
Q 2250 -91 1575 -91 
Q 1294 -91 989 -36 
Q 684 19 347 128 
L 347 722 
Q 666 556 975 473 
Q 1284 391 1588 391 
Q 1994 391 2212 530 
Q 2431 669 2431 922 
Q 2431 1156 2273 1281 
Q 2116 1406 1581 1522 
L 1381 1569 
Q 847 1681 609 1914 
Q 372 2147 372 2553 
Q 372 3047 722 3315 
Q 1072 3584 1716 3584 
Q 2034 3584 2315 3537 
Q 2597 3491 2834 3397 
z
" transform="scale(0.015625)"/>
      <path id="DejaVuSans-66" d="M 2375 4863 
L 2375 4384 
L 1825 4384 
Q 1516 4384 1395 4259 
Q 1275 4134 1275 3809 
L 1275 3500 
L 2222 3500 
L 2222 3053 
L 1275 3053 
L 1275 0 
L 697 0 
L 697 3053 
L 147 3053 
L 147 3500 
L 697 3500 
L 697 3744 
Q 697 4328 969 4595 
Q 1241 4863 1831 4863 
L 2375 4863 
z
" transform="scale(0.015625)"/>
      <path id="DejaVuSans-77" d="M 269 3500 
L 844 3500 
L 1563 769 
L 2278 3500 
L 2956 3500 
L 3675 769 
L 4391 3500 
L 4966 3500 
L 4050 0 
L 3372 0 
L 2619 2869 
L 1863 0 
L 1184 0 
L 269 3500 
z
" transform="scale(0.015625)"/>
      <path id="DejaVuSans-2f" d="M 1625 4666 
L 2156 4666 
L 531 -594 
L 0 -594 
L 1625 4666 
z
" transform="scale(0.015625)"/>
      <path id="DejaVuSans-48" d="M 628 4666 
L 1259 4666 
L 1259 2753 
L 3553 2753 
L 3553 4666 
L 4184 4666 
L 4184 0 
L 3553 0 
L 3553 2222 
L 1259 2222 
L 1259 0 
L 628 0 
L 628 4666 
z
" transform="scale(0.015625)"/>
      <path id="DejaVuSans-2d" d="M 313 2009 
L 1997 2009 
L 1997 1497 
L 313 1497 
L 313 2009 
z
" transform="scale(0.015625)"/>
      <path id="DejaVuSans-6c" d="M 603 4863 
L 1178 4863 
L 1178 0 
L 603 0 
L 603 4863 
z
" transform="scale(0.015625)"/>
      <path id="DejaVuSans-50" d="M 1259 4147 
L 1259 2394 
L 2053 2394 
Q 2494 2394 2734 2622 
Q 2975 2850 2975 3272 
Q 2975 3691 2734 3919 
Q 2494 4147 2053 4147 
L 1259 4147 
z
M 628 4666 
L 2053 4666 
Q 2838 4666 3239 4311 
Q 3641 3956 3641 3272 
Q 3641 2581 3239 2228 
Q 2838 1875 2053 1875 
L 1259 1875 
L 1259 0 
L 628 0 
L 628 4666 
z
" transform="scale(0.015625)"/>
      <path id="DejaVuSans-3d" d="M 678 2906 
L 4684 2906 
L 4684 2381 
L 678 2381 
L 678 2906 
z
M 678 1631 
L 4684 1631 
L 4684 1100 
L 678 1100 
L 678 1631 
z
" transform="scale(0.015625)"/>
      <path id="DejaVuSans-39" d="M 703 97 
L 703 672 
Q 941 559 1184 500 
Q 1428 441 1663 441 
Q 2288 441 2617 861 
Q 2947 1281 2994 2138 
Q 2813 1869 2534 1725 
Q 2256 1581 1919 1581 
Q 1219 1581 811 2004 
Q 403 2428 403 3163 
Q 403 3881 828 4315 
Q 1253 4750 1959 4750 
Q 2769 4750 3195 4129 
Q 3622 3509 3622 2328 
Q 3622 1225 3098 567 
Q 2575 -91 1691 -91 
Q 1453 -91 1209 -44 
Q 966 3 703 97 
z
M 1959 2075 
Q 2384 2075 2632 2365 
Q 2881 2656 2881 3163 
Q 2881 3666 2632 3958 
Q 2384 4250 1959 4250 
Q 1534 4250 1286 3958 
Q 1038 3666 1038 3163 
Q 1038 2656 1286 2365 
Q 1534 2075 1959 2075 
z
" transform="scale(0.015625)"/>
      <path id="DejaVuSans-2e" d="M 684 794 
L 1344 794 
L 1344 0 
L 684 0 
L 684 794 
z
" transform="scale(0.015625)"/>
     </defs>
     <use xlink:href="#DejaVuSans-52"/>
     <use xlink:href="#DejaVuSans-61" x="67.232422"/>
     <use xlink:href="#DejaVuSans-64" x="128.511719"/>
     <use xlink:href="#DejaVuSans-69" x="191.988281"/>
     <use xlink:href="#DejaVuSans-61" x="219.771484"/>
     <use xlink:href="#DejaVuSans-74" x="281.050781"/>
     <use xlink:href="#DejaVuSans-69" x="320.259766"/>
     <use xlink:href="#DejaVuSans-6f" x="348.042969"/>
     <use xlink:href="#DejaVuSans-6e" x="409.224609"/>
     <use xlink:href="#DejaVuSans-20" x="472.603516"/>
     <use xlink:href="#DejaVuSans-63" x="504.390625"/>
     <use xlink:href="#DejaVuSans-6f" x="559.371094"/>
     <use xlink:href="#DejaVuSans-6d" x="620.552734"/>
     <use xlink:href="#DejaVuSans-70" x="717.964844"/>
     <use xlink:href="#DejaVuSans-61" x="781.441406"/>
     <use xlink:href="#DejaVuSans-72" x="842.720703"/>
     <use xlink:href="#DejaVuSans-69" x="883.833984"/>
     <use xlink:href="#DejaVuSans-73" x="911.617188"/>
     <use xlink:href="#DejaVuSans-6f" x="963.716797"/>
     <use xlink:href="#DejaVuSans-6e" x="1024.898438"/>
     <use xlink:href="#DejaVuSans-20" x="1088.277344"/>
     <use xlink:href="#DejaVuSans-6f" x="1120.064453"/>
     <use xlink:href="#DejaVuSans-66" x="1181.246094"/>
     <use xlink:href="#DejaVuSans-20" x="1216.451172"/>
     <use xlink:href="#DejaVuSans-74" x="1248.238281"/>
     <use xlink:href="#DejaVuSans-72" x="1287.447266"/>
     <use xlink:href="#DejaVuSans-61" x="1328.560547"/>
     <use xlink:href="#DejaVuSans-6e" x="1389.839844"/>
     <use xlink:href="#DejaVuSans-73" x="1453.21875"/>
     <use xlink:href="#DejaVuSans-66" x="1505.318359"/>
     <use xlink:href="#DejaVuSans-6f" x="1540.523438"/>
     <use xlink:href="#DejaVuSans-72" x="1601.705078"/>
     <use xlink:href="#DejaVuSans-6d" x="1641.068359"/>
     <use xlink:href="#DejaVuSans-20" x="1738.480469"/>
     <use xlink:href="#DejaVuSans-77" x="1770.267578"/>
     <use xlink:href="#DejaVuSans-2f" x="1852.054688"/>
     <use xlink:href="#DejaVuSans-6f" x="1885.746094"/>
     <use xlink:href="#DejaVuSans-20" x="1946.927734"/>
     <use xlink:href="#DejaVuSans-65" x="1978.714844"/>
     <use xlink:href="#DejaVuSans-72" x="2040.238281"/>
     <use xlink:href="#DejaVuSans-72" x="2079.601562"/>
     <use xlink:href="#DejaVuSans-6f" x="2118.464844"/>
     <use xlink:href="#DejaVuSans-72" x="2179.646484"/>
     <use xlink:href="#DejaVuSans-20" x="2220.759766"/>
     <use xlink:href="#DejaVuSans-48" x="2252.546875"/>
     <use xlink:href="#DejaVuSans-2d" x="2327.742188"/>
     <use xlink:href="#DejaVuSans-70" x="2363.826172"/>
     <use xlink:href="#DejaVuSans-6c" x="2427.302734"/>
     <use xlink:href="#DejaVuSans-61" x="2455.085938"/>
     <use xlink:href="#DejaVuSans-6e" x="2516.365234"/>
     <use xlink:href="#DejaVuSans-65" x="2579.744141"/>
     <use xlink:href="#DejaVuSans-20" x="2641.267578"/>
     <use xlink:href="#DejaVuSans-50" x="2673.054688"/>
     <use xlink:href="#DejaVuSans-68" x="2733.357422"/>
     <use xlink:href="#DejaVuSans-69" x="2796.736328"/>
     <use xlink:href="#DejaVuSans-20" x="2824.519531"/>
     <use xlink:href="#DejaVuSans-3d" x="2856.306641"/>
     <use xlink:href="#DejaVuSans-20" x="2940.095703"/>
     <use xlink:href="#DejaVuSans-39" x="2971.882812"/>
     <use xlink:href="#DejaVuSans-30" x="3035.505859"/>
     <use xlink:href="#DejaVuSans-2e" x="3099.128906"/>
     <use xlink:href="#DejaVuSans-30" x="3130.916016"/>
    </g>
   </g>
   <g id="legend_1">
    <g id="patch_7">
     <path d="M 295.271875 133.065 
L 474.704687 133.065 
Q 476.704687 133.065 476.704687 131.065 
L 476.704687 29.318125 
Q 476.704687 27.318125 474.704687 27.318125 
L 295.271875 27.318125 
Q 293.271875 27.318125 293.271875 29.318125 
L 293.271875 131.065 
Q 293.271875 133.065 295.271875 133.065 
z
" style="fill: #ffffff; opacity: 0.8; stroke: #cccccc; stroke-linejoin: miter"/>
    </g>
    <g id="line2d_32">
     <path d="M 297.271875 35.416562 
L 307.271875 35.416562 
L 317.271875 35.416562 
" style="fill: none; stroke: #1f77b4; stroke-opacity: 0.7; stroke-width: 1.5; stroke-linecap: square"/>
    </g>
    <g id="text_15">
     <!-- Radiation without errors -->
     <g transform="translate(325.271875 38.916562) scale(0.1 -0.1)">
      <defs>
       <path id="DejaVuSans-75" d="M 544 1381 
L 544 3500 
L 1119 3500 
L 1119 1403 
Q 1119 906 1312 657 
Q 1506 409 1894 409 
Q 2359 409 2629 706 
Q 2900 1003 2900 1516 
L 2900 3500 
L 3475 3500 
L 3475 0 
L 2900 0 
L 2900 538 
Q 2691 219 2414 64 
Q 2138 -91 1772 -91 
Q 1169 -91 856 284 
Q 544 659 544 1381 
z
M 1991 3584 
L 1991 3584 
z
" transform="scale(0.015625)"/>
      </defs>
      <use xlink:href="#DejaVuSans-52"/>
      <use xlink:href="#DejaVuSans-61" x="67.232422"/>
      <use xlink:href="#DejaVuSans-64" x="128.511719"/>
      <use xlink:href="#DejaVuSans-69" x="191.988281"/>
      <use xlink:href="#DejaVuSans-61" x="219.771484"/>
      <use xlink:href="#DejaVuSans-74" x="281.050781"/>
      <use xlink:href="#DejaVuSans-69" x="320.259766"/>
      <use xlink:href="#DejaVuSans-6f" x="348.042969"/>
      <use xlink:href="#DejaVuSans-6e" x="409.224609"/>
      <use xlink:href="#DejaVuSans-20" x="472.603516"/>
      <use xlink:href="#DejaVuSans-77" x="504.390625"/>
      <use xlink:href="#DejaVuSans-69" x="586.177734"/>
      <use xlink:href="#DejaVuSans-74" x="613.960938"/>
      <use xlink:href="#DejaVuSans-68" x="653.169922"/>
      <use xlink:href="#DejaVuSans-6f" x="716.548828"/>
      <use xlink:href="#DejaVuSans-75" x="777.730469"/>
      <use xlink:href="#DejaVuSans-74" x="841.109375"/>
      <use xlink:href="#DejaVuSans-20" x="880.318359"/>
      <use xlink:href="#DejaVuSans-65" x="912.105469"/>
      <use xlink:href="#DejaVuSans-72" x="973.628906"/>
      <use xlink:href="#DejaVuSans-72" x="1012.992188"/>
      <use xlink:href="#DejaVuSans-6f" x="1051.855469"/>
      <use xlink:href="#DejaVuSans-72" x="1113.037109"/>
      <use xlink:href="#DejaVuSans-73" x="1154.150391"/>
     </g>
    </g>
    <g id="line2d_33">
     <path d="M 297.271875 50.094687 
L 307.271875 50.094687 
L 317.271875 50.094687 
" style="fill: none; stroke: #ff7f0e; stroke-opacity: 0.7; stroke-width: 1.5; stroke-linecap: square"/>
    </g>
    <g id="text_16">
     <!-- Radiation with errors (50mm) -->
     <g transform="translate(325.271875 53.594687) scale(0.1 -0.1)">
      <defs>
       <path id="DejaVuSans-28" d="M 1984 4856 
Q 1566 4138 1362 3434 
Q 1159 2731 1159 2009 
Q 1159 1288 1364 580 
Q 1569 -128 1984 -844 
L 1484 -844 
Q 1016 -109 783 600 
Q 550 1309 550 2009 
Q 550 2706 781 3412 
Q 1013 4119 1484 4856 
L 1984 4856 
z
" transform="scale(0.015625)"/>
       <path id="DejaVuSans-29" d="M 513 4856 
L 1013 4856 
Q 1481 4119 1714 3412 
Q 1947 2706 1947 2009 
Q 1947 1309 1714 600 
Q 1481 -109 1013 -844 
L 513 -844 
Q 928 -128 1133 580 
Q 1338 1288 1338 2009 
Q 1338 2731 1133 3434 
Q 928 4138 513 4856 
z
" transform="scale(0.015625)"/>
      </defs>
      <use xlink:href="#DejaVuSans-52"/>
      <use xlink:href="#DejaVuSans-61" x="67.232422"/>
      <use xlink:href="#DejaVuSans-64" x="128.511719"/>
      <use xlink:href="#DejaVuSans-69" x="191.988281"/>
      <use xlink:href="#DejaVuSans-61" x="219.771484"/>
      <use xlink:href="#DejaVuSans-74" x="281.050781"/>
      <use xlink:href="#DejaVuSans-69" x="320.259766"/>
      <use xlink:href="#DejaVuSans-6f" x="348.042969"/>
      <use xlink:href="#DejaVuSans-6e" x="409.224609"/>
      <use xlink:href="#DejaVuSans-20" x="472.603516"/>
      <use xlink:href="#DejaVuSans-77" x="504.390625"/>
      <use xlink:href="#DejaVuSans-69" x="586.177734"/>
      <use xlink:href="#DejaVuSans-74" x="613.960938"/>
      <use xlink:href="#DejaVuSans-68" x="653.169922"/>
      <use xlink:href="#DejaVuSans-20" x="716.548828"/>
      <use xlink:href="#DejaVuSans-65" x="748.335938"/>
      <use xlink:href="#DejaVuSans-72" x="809.859375"/>
      <use xlink:href="#DejaVuSans-72" x="849.222656"/>
      <use xlink:href="#DejaVuSans-6f" x="888.085938"/>
      <use xlink:href="#DejaVuSans-72" x="949.267578"/>
      <use xlink:href="#DejaVuSans-73" x="990.380859"/>
      <use xlink:href="#DejaVuSans-20" x="1042.480469"/>
      <use xlink:href="#DejaVuSans-28" x="1074.267578"/>
      <use xlink:href="#DejaVuSans-35" x="1113.28125"/>
      <use xlink:href="#DejaVuSans-30" x="1176.904297"/>
      <use xlink:href="#DejaVuSans-6d" x="1240.527344"/>
      <use xlink:href="#DejaVuSans-6d" x="1337.939453"/>
      <use xlink:href="#DejaVuSans-29" x="1435.351562"/>
     </g>
    </g>
    <g id="line2d_34">
     <path d="M 297.271875 64.772812 
L 307.271875 64.772812 
L 317.271875 64.772812 
" style="fill: none; stroke: #2ca02c; stroke-opacity: 0.7; stroke-width: 1.5; stroke-linecap: square"/>
    </g>
    <g id="text_17">
     <!-- Radiation with errors (5mm) -->
     <g transform="translate(325.271875 68.272812) scale(0.1 -0.1)">
      <use xlink:href="#DejaVuSans-52"/>
      <use xlink:href="#DejaVuSans-61" x="67.232422"/>
      <use xlink:href="#DejaVuSans-64" x="128.511719"/>
      <use xlink:href="#DejaVuSans-69" x="191.988281"/>
      <use xlink:href="#DejaVuSans-61" x="219.771484"/>
      <use xlink:href="#DejaVuSans-74" x="281.050781"/>
      <use xlink:href="#DejaVuSans-69" x="320.259766"/>
      <use xlink:href="#DejaVuSans-6f" x="348.042969"/>
      <use xlink:href="#DejaVuSans-6e" x="409.224609"/>
      <use xlink:href="#DejaVuSans-20" x="472.603516"/>
      <use xlink:href="#DejaVuSans-77" x="504.390625"/>
      <use xlink:href="#DejaVuSans-69" x="586.177734"/>
      <use xlink:href="#DejaVuSans-74" x="613.960938"/>
      <use xlink:href="#DejaVuSans-68" x="653.169922"/>
      <use xlink:href="#DejaVuSans-20" x="716.548828"/>
      <use xlink:href="#DejaVuSans-65" x="748.335938"/>
      <use xlink:href="#DejaVuSans-72" x="809.859375"/>
      <use xlink:href="#DejaVuSans-72" x="849.222656"/>
      <use xlink:href="#DejaVuSans-6f" x="888.085938"/>
      <use xlink:href="#DejaVuSans-72" x="949.267578"/>
      <use xlink:href="#DejaVuSans-73" x="990.380859"/>
      <use xlink:href="#DejaVuSans-20" x="1042.480469"/>
      <use xlink:href="#DejaVuSans-28" x="1074.267578"/>
      <use xlink:href="#DejaVuSans-35" x="1113.28125"/>
      <use xlink:href="#DejaVuSans-6d" x="1176.904297"/>
      <use xlink:href="#DejaVuSans-6d" x="1274.316406"/>
      <use xlink:href="#DejaVuSans-29" x="1371.728516"/>
     </g>
    </g>
    <g id="line2d_35">
     <path d="M 297.271875 79.450937 
L 307.271875 79.450937 
L 317.271875 79.450937 
" style="fill: none; stroke: #d62728; stroke-opacity: 0.7; stroke-width: 1.5; stroke-linecap: square"/>
    </g>
    <g id="text_18">
     <!-- Radiation with errors (1mm) -->
     <g transform="translate(325.271875 82.950937) scale(0.1 -0.1)">
      <use xlink:href="#DejaVuSans-52"/>
      <use xlink:href="#DejaVuSans-61" x="67.232422"/>
      <use xlink:href="#DejaVuSans-64" x="128.511719"/>
      <use xlink:href="#DejaVuSans-69" x="191.988281"/>
      <use xlink:href="#DejaVuSans-61" x="219.771484"/>
      <use xlink:href="#DejaVuSans-74" x="281.050781"/>
      <use xlink:href="#DejaVuSans-69" x="320.259766"/>
      <use xlink:href="#DejaVuSans-6f" x="348.042969"/>
      <use xlink:href="#DejaVuSans-6e" x="409.224609"/>
      <use xlink:href="#DejaVuSans-20" x="472.603516"/>
      <use xlink:href="#DejaVuSans-77" x="504.390625"/>
      <use xlink:href="#DejaVuSans-69" x="586.177734"/>
      <use xlink:href="#DejaVuSans-74" x="613.960938"/>
      <use xlink:href="#DejaVuSans-68" x="653.169922"/>
      <use xlink:href="#DejaVuSans-20" x="716.548828"/>
      <use xlink:href="#DejaVuSans-65" x="748.335938"/>
      <use xlink:href="#DejaVuSans-72" x="809.859375"/>
      <use xlink:href="#DejaVuSans-72" x="849.222656"/>
      <use xlink:href="#DejaVuSans-6f" x="888.085938"/>
      <use xlink:href="#DejaVuSans-72" x="949.267578"/>
      <use xlink:href="#DejaVuSans-73" x="990.380859"/>
      <use xlink:href="#DejaVuSans-20" x="1042.480469"/>
      <use xlink:href="#DejaVuSans-28" x="1074.267578"/>
      <use xlink:href="#DejaVuSans-31" x="1113.28125"/>
      <use xlink:href="#DejaVuSans-6d" x="1176.904297"/>
      <use xlink:href="#DejaVuSans-6d" x="1274.316406"/>
      <use xlink:href="#DejaVuSans-29" x="1371.728516"/>
     </g>
    </g>
    <g id="line2d_36">
     <path d="M 297.271875 94.129062 
L 307.271875 94.129062 
L 317.271875 94.129062 
" style="fill: none; stroke: #9467bd; stroke-opacity: 0.7; stroke-width: 1.5; stroke-linecap: square"/>
    </g>
    <g id="text_19">
     <!-- Radiation with errors (20mm) -->
     <g transform="translate(325.271875 97.629062) scale(0.1 -0.1)">
      <use xlink:href="#DejaVuSans-52"/>
      <use xlink:href="#DejaVuSans-61" x="67.232422"/>
      <use xlink:href="#DejaVuSans-64" x="128.511719"/>
      <use xlink:href="#DejaVuSans-69" x="191.988281"/>
      <use xlink:href="#DejaVuSans-61" x="219.771484"/>
      <use xlink:href="#DejaVuSans-74" x="281.050781"/>
      <use xlink:href="#DejaVuSans-69" x="320.259766"/>
      <use xlink:href="#DejaVuSans-6f" x="348.042969"/>
      <use xlink:href="#DejaVuSans-6e" x="409.224609"/>
      <use xlink:href="#DejaVuSans-20" x="472.603516"/>
      <use xlink:href="#DejaVuSans-77" x="504.390625"/>
      <use xlink:href="#DejaVuSans-69" x="586.177734"/>
      <use xlink:href="#DejaVuSans-74" x="613.960938"/>
      <use xlink:href="#DejaVuSans-68" x="653.169922"/>
      <use xlink:href="#DejaVuSans-20" x="716.548828"/>
      <use xlink:href="#DejaVuSans-65" x="748.335938"/>
      <use xlink:href="#DejaVuSans-72" x="809.859375"/>
      <use xlink:href="#DejaVuSans-72" x="849.222656"/>
      <use xlink:href="#DejaVuSans-6f" x="888.085938"/>
      <use xlink:href="#DejaVuSans-72" x="949.267578"/>
      <use xlink:href="#DejaVuSans-73" x="990.380859"/>
      <use xlink:href="#DejaVuSans-20" x="1042.480469"/>
      <use xlink:href="#DejaVuSans-28" x="1074.267578"/>
      <use xlink:href="#DejaVuSans-32" x="1113.28125"/>
      <use xlink:href="#DejaVuSans-30" x="1176.904297"/>
      <use xlink:href="#DejaVuSans-6d" x="1240.527344"/>
      <use xlink:href="#DejaVuSans-6d" x="1337.939453"/>
      <use xlink:href="#DejaVuSans-29" x="1435.351562"/>
     </g>
    </g>
    <g id="line2d_37">
     <path d="M 297.271875 108.807187 
L 307.271875 108.807187 
L 317.271875 108.807187 
" style="fill: none; stroke: #8c564b; stroke-opacity: 0.7; stroke-width: 1.5; stroke-linecap: square"/>
    </g>
    <g id="text_20">
     <!-- Radiation with errors (10mm) -->
     <g transform="translate(325.271875 112.307187) scale(0.1 -0.1)">
      <use xlink:href="#DejaVuSans-52"/>
      <use xlink:href="#DejaVuSans-61" x="67.232422"/>
      <use xlink:href="#DejaVuSans-64" x="128.511719"/>
      <use xlink:href="#DejaVuSans-69" x="191.988281"/>
      <use xlink:href="#DejaVuSans-61" x="219.771484"/>
      <use xlink:href="#DejaVuSans-74" x="281.050781"/>
      <use xlink:href="#DejaVuSans-69" x="320.259766"/>
      <use xlink:href="#DejaVuSans-6f" x="348.042969"/>
      <use xlink:href="#DejaVuSans-6e" x="409.224609"/>
      <use xlink:href="#DejaVuSans-20" x="472.603516"/>
      <use xlink:href="#DejaVuSans-77" x="504.390625"/>
      <use xlink:href="#DejaVuSans-69" x="586.177734"/>
      <use xlink:href="#DejaVuSans-74" x="613.960938"/>
      <use xlink:href="#DejaVuSans-68" x="653.169922"/>
      <use xlink:href="#DejaVuSans-20" x="716.548828"/>
      <use xlink:href="#DejaVuSans-65" x="748.335938"/>
      <use xlink:href="#DejaVuSans-72" x="809.859375"/>
      <use xlink:href="#DejaVuSans-72" x="849.222656"/>
      <use xlink:href="#DejaVuSans-6f" x="888.085938"/>
      <use xlink:href="#DejaVuSans-72" x="949.267578"/>
      <use xlink:href="#DejaVuSans-73" x="990.380859"/>
      <use xlink:href="#DejaVuSans-20" x="1042.480469"/>
      <use xlink:href="#DejaVuSans-28" x="1074.267578"/>
      <use xlink:href="#DejaVuSans-31" x="1113.28125"/>
      <use xlink:href="#DejaVuSans-30" x="1176.904297"/>
      <use xlink:href="#DejaVuSans-6d" x="1240.527344"/>
      <use xlink:href="#DejaVuSans-6d" x="1337.939453"/>
      <use xlink:href="#DejaVuSans-29" x="1435.351562"/>
     </g>
    </g>
    <g id="line2d_38">
     <path d="M 297.271875 123.485312 
L 307.271875 123.485312 
L 317.271875 123.485312 
" style="fill: none; stroke: #e377c2; stroke-opacity: 0.7; stroke-width: 1.5; stroke-linecap: square"/>
    </g>
    <g id="text_21">
     <!-- Radiation with errors (30mm) -->
     <g transform="translate(325.271875 126.985312) scale(0.1 -0.1)">
      <use xlink:href="#DejaVuSans-52"/>
      <use xlink:href="#DejaVuSans-61" x="67.232422"/>
      <use xlink:href="#DejaVuSans-64" x="128.511719"/>
      <use xlink:href="#DejaVuSans-69" x="191.988281"/>
      <use xlink:href="#DejaVuSans-61" x="219.771484"/>
      <use xlink:href="#DejaVuSans-74" x="281.050781"/>
      <use xlink:href="#DejaVuSans-69" x="320.259766"/>
      <use xlink:href="#DejaVuSans-6f" x="348.042969"/>
      <use xlink:href="#DejaVuSans-6e" x="409.224609"/>
      <use xlink:href="#DejaVuSans-20" x="472.603516"/>
      <use xlink:href="#DejaVuSans-77" x="504.390625"/>
      <use xlink:href="#DejaVuSans-69" x="586.177734"/>
      <use xlink:href="#DejaVuSans-74" x="613.960938"/>
      <use xlink:href="#DejaVuSans-68" x="653.169922"/>
      <use xlink:href="#DejaVuSans-20" x="716.548828"/>
      <use xlink:href="#DejaVuSans-65" x="748.335938"/>
      <use xlink:href="#DejaVuSans-72" x="809.859375"/>
      <use xlink:href="#DejaVuSans-72" x="849.222656"/>
      <use xlink:href="#DejaVuSans-6f" x="888.085938"/>
      <use xlink:href="#DejaVuSans-72" x="949.267578"/>
      <use xlink:href="#DejaVuSans-73" x="990.380859"/>
      <use xlink:href="#DejaVuSans-20" x="1042.480469"/>
      <use xlink:href="#DejaVuSans-28" x="1074.267578"/>
      <use xlink:href="#DejaVuSans-33" x="1113.28125"/>
      <use xlink:href="#DejaVuSans-30" x="1176.904297"/>
      <use xlink:href="#DejaVuSans-6d" x="1240.527344"/>
      <use xlink:href="#DejaVuSans-6d" x="1337.939453"/>
      <use xlink:href="#DejaVuSans-29" x="1435.351562"/>
     </g>
    </g>
   </g>
  </g>
  <g id="axes_2">
   <g id="patch_8">
    <path d="M 35.304688 576.718125 
L 481.704687 576.718125 
L 481.704687 324.718125 
L 35.304688 324.718125 
z
" style="fill: #ffffff"/>
   </g>
   <g id="matplotlib.axis_3">
    <g id="xtick_6">
     <g id="line2d_39">
      <path d="M 102.420771 576.718125 
L 102.420771 324.718125 
" clip-path="url(#p78e30901fe)" style="fill: none; stroke: #b0b0b0; stroke-width: 0.8; stroke-linecap: square"/>
     </g>
     <g id="line2d_40">
      <g>
       <use xlink:href="#m69a3b2de24" x="102.420771" y="576.718125" style="stroke: #000000; stroke-width: 0.8"/>
      </g>
     </g>
     <g id="text_22">
      <!-- −100 -->
      <g transform="translate(88.687178 591.316562) scale(0.1 -0.1)">
       <use xlink:href="#DejaVuSans-2212"/>
       <use xlink:href="#DejaVuSans-31" x="83.789062"/>
       <use xlink:href="#DejaVuSans-30" x="147.412109"/>
       <use xlink:href="#DejaVuSans-30" x="211.035156"/>
      </g>
     </g>
    </g>
    <g id="xtick_7">
     <g id="line2d_41">
      <path d="M 180.462729 576.718125 
L 180.462729 324.718125 
" clip-path="url(#p78e30901fe)" style="fill: none; stroke: #b0b0b0; stroke-width: 0.8; stroke-linecap: square"/>
     </g>
     <g id="line2d_42">
      <g>
       <use xlink:href="#m69a3b2de24" x="180.462729" y="576.718125" style="stroke: #000000; stroke-width: 0.8"/>
      </g>
     </g>
     <g id="text_23">
      <!-- −50 -->
      <g transform="translate(169.910386 591.316562) scale(0.1 -0.1)">
       <use xlink:href="#DejaVuSans-2212"/>
       <use xlink:href="#DejaVuSans-35" x="83.789062"/>
       <use xlink:href="#DejaVuSans-30" x="147.412109"/>
      </g>
     </g>
    </g>
    <g id="xtick_8">
     <g id="line2d_43">
      <path d="M 258.504687 576.718125 
L 258.504687 324.718125 
" clip-path="url(#p78e30901fe)" style="fill: none; stroke: #b0b0b0; stroke-width: 0.8; stroke-linecap: square"/>
     </g>
     <g id="line2d_44">
      <g>
       <use xlink:href="#m69a3b2de24" x="258.504687" y="576.718125" style="stroke: #000000; stroke-width: 0.8"/>
      </g>
     </g>
     <g id="text_24">
      <!-- 0 -->
      <g transform="translate(255.323437 591.316562) scale(0.1 -0.1)">
       <use xlink:href="#DejaVuSans-30"/>
      </g>
     </g>
    </g>
    <g id="xtick_9">
     <g id="line2d_45">
      <path d="M 336.546646 576.718125 
L 336.546646 324.718125 
" clip-path="url(#p78e30901fe)" style="fill: none; stroke: #b0b0b0; stroke-width: 0.8; stroke-linecap: square"/>
     </g>
     <g id="line2d_46">
      <g>
       <use xlink:href="#m69a3b2de24" x="336.546646" y="576.718125" style="stroke: #000000; stroke-width: 0.8"/>
      </g>
     </g>
     <g id="text_25">
      <!-- 50 -->
      <g transform="translate(330.184146 591.316562) scale(0.1 -0.1)">
       <use xlink:href="#DejaVuSans-35"/>
       <use xlink:href="#DejaVuSans-30" x="63.623047"/>
      </g>
     </g>
    </g>
    <g id="xtick_10">
     <g id="line2d_47">
      <path d="M 414.588604 576.718125 
L 414.588604 324.718125 
" clip-path="url(#p78e30901fe)" style="fill: none; stroke: #b0b0b0; stroke-width: 0.8; stroke-linecap: square"/>
     </g>
     <g id="line2d_48">
      <g>
       <use xlink:href="#m69a3b2de24" x="414.588604" y="576.718125" style="stroke: #000000; stroke-width: 0.8"/>
      </g>
     </g>
     <g id="text_26">
      <!-- 100 -->
      <g transform="translate(405.044854 591.316562) scale(0.1 -0.1)">
       <use xlink:href="#DejaVuSans-31"/>
       <use xlink:href="#DejaVuSans-30" x="63.623047"/>
       <use xlink:href="#DejaVuSans-30" x="127.246094"/>
      </g>
     </g>
    </g>
    <g id="text_27">
     <!-- Theta -->
     <g transform="translate(244.18125 604.994687) scale(0.1 -0.1)">
      <use xlink:href="#DejaVuSans-54"/>
      <use xlink:href="#DejaVuSans-68" x="61.083984"/>
      <use xlink:href="#DejaVuSans-65" x="124.462891"/>
      <use xlink:href="#DejaVuSans-74" x="185.986328"/>
      <use xlink:href="#DejaVuSans-61" x="225.195312"/>
     </g>
    </g>
   </g>
   <g id="matplotlib.axis_4">
    <g id="ytick_8">
     <g id="line2d_49">
      <path d="M 35.304688 573.824495 
L 481.704687 573.824495 
" clip-path="url(#p78e30901fe)" style="fill: none; stroke: #b0b0b0; stroke-width: 0.8; stroke-linecap: square"/>
     </g>
     <g id="line2d_50">
      <g>
       <use xlink:href="#me2e33395eb" x="35.304688" y="573.824495" style="stroke: #000000; stroke-width: 0.8"/>
      </g>
     </g>
     <g id="text_28">
      <!-- −30 -->
      <g transform="translate(7.2 577.623713) scale(0.1 -0.1)">
       <use xlink:href="#DejaVuSans-2212"/>
       <use xlink:href="#DejaVuSans-33" x="83.789062"/>
       <use xlink:href="#DejaVuSans-30" x="147.412109"/>
      </g>
     </g>
    </g>
    <g id="ytick_9">
     <g id="line2d_51">
      <path d="M 35.304688 534.155062 
L 481.704687 534.155062 
" clip-path="url(#p78e30901fe)" style="fill: none; stroke: #b0b0b0; stroke-width: 0.8; stroke-linecap: square"/>
     </g>
     <g id="line2d_52">
      <g>
       <use xlink:href="#me2e33395eb" x="35.304688" y="534.155062" style="stroke: #000000; stroke-width: 0.8"/>
      </g>
     </g>
     <g id="text_29">
      <!-- −25 -->
      <g transform="translate(7.2 537.954281) scale(0.1 -0.1)">
       <use xlink:href="#DejaVuSans-2212"/>
       <use xlink:href="#DejaVuSans-32" x="83.789062"/>
       <use xlink:href="#DejaVuSans-35" x="147.412109"/>
      </g>
     </g>
    </g>
    <g id="ytick_10">
     <g id="line2d_53">
      <path d="M 35.304688 494.48563 
L 481.704687 494.48563 
" clip-path="url(#p78e30901fe)" style="fill: none; stroke: #b0b0b0; stroke-width: 0.8; stroke-linecap: square"/>
     </g>
     <g id="line2d_54">
      <g>
       <use xlink:href="#me2e33395eb" x="35.304688" y="494.48563" style="stroke: #000000; stroke-width: 0.8"/>
      </g>
     </g>
     <g id="text_30">
      <!-- −20 -->
      <g transform="translate(7.2 498.284849) scale(0.1 -0.1)">
       <use xlink:href="#DejaVuSans-2212"/>
       <use xlink:href="#DejaVuSans-32" x="83.789062"/>
       <use xlink:href="#DejaVuSans-30" x="147.412109"/>
      </g>
     </g>
    </g>
    <g id="ytick_11">
     <g id="line2d_55">
      <path d="M 35.304688 454.816198 
L 481.704687 454.816198 
" clip-path="url(#p78e30901fe)" style="fill: none; stroke: #b0b0b0; stroke-width: 0.8; stroke-linecap: square"/>
     </g>
     <g id="line2d_56">
      <g>
       <use xlink:href="#me2e33395eb" x="35.304688" y="454.816198" style="stroke: #000000; stroke-width: 0.8"/>
      </g>
     </g>
     <g id="text_31">
      <!-- −15 -->
      <g transform="translate(7.2 458.615417) scale(0.1 -0.1)">
       <use xlink:href="#DejaVuSans-2212"/>
       <use xlink:href="#DejaVuSans-31" x="83.789062"/>
       <use xlink:href="#DejaVuSans-35" x="147.412109"/>
      </g>
     </g>
    </g>
    <g id="ytick_12">
     <g id="line2d_57">
      <path d="M 35.304688 415.146766 
L 481.704687 415.146766 
" clip-path="url(#p78e30901fe)" style="fill: none; stroke: #b0b0b0; stroke-width: 0.8; stroke-linecap: square"/>
     </g>
     <g id="line2d_58">
      <g>
       <use xlink:href="#me2e33395eb" x="35.304688" y="415.146766" style="stroke: #000000; stroke-width: 0.8"/>
      </g>
     </g>
     <g id="text_32">
      <!-- −10 -->
      <g transform="translate(7.2 418.945984) scale(0.1 -0.1)">
       <use xlink:href="#DejaVuSans-2212"/>
       <use xlink:href="#DejaVuSans-31" x="83.789062"/>
       <use xlink:href="#DejaVuSans-30" x="147.412109"/>
      </g>
     </g>
    </g>
    <g id="ytick_13">
     <g id="line2d_59">
      <path d="M 35.304688 375.477333 
L 481.704687 375.477333 
" clip-path="url(#p78e30901fe)" style="fill: none; stroke: #b0b0b0; stroke-width: 0.8; stroke-linecap: square"/>
     </g>
     <g id="line2d_60">
      <g>
       <use xlink:href="#me2e33395eb" x="35.304688" y="375.477333" style="stroke: #000000; stroke-width: 0.8"/>
      </g>
     </g>
     <g id="text_33">
      <!-- −5 -->
      <g transform="translate(13.5625 379.276552) scale(0.1 -0.1)">
       <use xlink:href="#DejaVuSans-2212"/>
       <use xlink:href="#DejaVuSans-35" x="83.789062"/>
      </g>
     </g>
    </g>
    <g id="ytick_14">
     <g id="line2d_61">
      <path d="M 35.304688 335.807901 
L 481.704687 335.807901 
" clip-path="url(#p78e30901fe)" style="fill: none; stroke: #b0b0b0; stroke-width: 0.8; stroke-linecap: square"/>
     </g>
     <g id="line2d_62">
      <g>
       <use xlink:href="#me2e33395eb" x="35.304688" y="335.807901" style="stroke: #000000; stroke-width: 0.8"/>
      </g>
     </g>
     <g id="text_34">
      <!-- 0 -->
      <g transform="translate(21.942187 339.60712) scale(0.1 -0.1)">
       <use xlink:href="#DejaVuSans-30"/>
      </g>
     </g>
    </g>
   </g>
   <g id="line2d_63">
    <path d="M 55.595597 471.316847 
L 63.399792 485.201195 
L 71.203988 489.095643 
L 79.008184 475.642996 
L 86.81238 471.229994 
L 94.616576 498.703222 
L 102.420771 533.710724 
L 110.224967 539.637227 
L 118.029163 515.416898 
L 125.833359 499.117228 
L 133.637555 504.96689 
L 141.44175 512.448601 
L 149.245946 508.276186 
L 157.050142 498.024651 
L 164.854338 500.593371 
L 172.658534 530.810004 
L 180.462729 539.844948 
L 188.266925 511.201199 
L 196.071121 464.495287 
L 203.875317 444.189932 
L 211.679513 450.841516 
L 219.483708 470.130029 
L 227.287904 457.710224 
L 235.0921 409.904499 
L 242.896296 363.068944 
L 250.700492 342.680734 
L 258.504687 336.24899 
L 266.308883 342.361789 
L 274.113079 361.782983 
L 281.917275 407.2295 
L 289.721471 456.731345 
L 297.525667 471.256673 
L 305.329862 452.978262 
L 313.134058 444.402835 
L 320.938254 463.201924 
L 328.74245 509.457396 
L 336.546646 539.825012 
L 344.350841 531.979208 
L 352.155037 500.870769 
L 359.959233 496.604213 
L 367.763429 507.438549 
L 375.567625 513.194655 
L 383.37182 506.377095 
L 391.176016 498.550558 
L 398.980212 511.501079 
L 406.784408 538.470976 
L 414.588604 536.936473 
L 422.392799 503.700987 
L 430.196995 472.604481 
L 438.001191 474.586212 
L 445.805387 487.016309 
L 453.609583 483.427642 
L 461.413778 471.218458 
" clip-path="url(#p78e30901fe)" style="fill: none; stroke: #1f77b4; stroke-opacity: 0.7; stroke-width: 1.5; stroke-linecap: square"/>
   </g>
   <g id="line2d_64">
    <path d="M 55.595597 453.837373 
L 63.399792 471.973881 
L 71.203988 480.887519 
L 79.008184 471.868818 
L 86.81238 473.842072 
L 94.616576 501.916444 
L 102.420771 531.197192 
L 110.224967 533.80933 
L 118.029163 515.959895 
L 125.833359 514.670726 
L 133.637555 522.709462 
L 141.44175 526.820892 
L 149.245946 521.579805 
L 157.050142 511.955953 
L 164.854338 527.473517 
L 172.658534 540.677957 
L 180.462729 523.082896 
L 188.266925 495.1701 
L 196.071121 480.705612 
L 203.875317 479.608697 
L 211.679513 480.592794 
L 219.483708 496.817738 
L 227.287904 464.844181 
L 235.0921 410.074827 
L 242.896296 359.898223 
L 250.700492 339.812446 
L 258.504687 336.93225 
L 266.308883 344.66689 
L 274.113079 360.68177 
L 281.917275 394.196369 
L 289.721471 450.149965 
L 297.525667 470.944297 
L 305.329862 452.650897 
L 313.134058 439.802694 
L 320.938254 458.833965 
L 328.74245 503.369555 
L 336.546646 524.144075 
L 344.350841 521.162285 
L 352.155037 493.200271 
L 359.959233 502.596616 
L 367.763429 545.965008 
L 375.567625 565.26358 
L 383.37182 539.95231 
L 391.176016 504.397457 
L 398.980212 516.698324 
L 406.784408 540.574055 
L 414.588604 528.34538 
L 422.392799 493.973392 
L 430.196995 476.351668 
L 438.001191 489.944228 
L 445.805387 495.077746 
L 453.609583 487.349321 
L 461.413778 468.329197 
" clip-path="url(#p78e30901fe)" style="fill: none; stroke: #ff7f0e; stroke-opacity: 0.7; stroke-width: 1.5; stroke-linecap: square"/>
   </g>
   <g id="line2d_65">
    <path d="M 55.595597 473.020852 
L 63.399792 485.396351 
L 71.203988 488.487961 
L 79.008184 475.126605 
L 86.81238 471.285939 
L 94.616576 499.644344 
L 102.420771 533.466178 
L 110.224967 538.32332 
L 118.029163 514.248672 
L 125.833359 499.134234 
L 133.637555 504.84713 
L 141.44175 512.751682 
L 149.245946 509.324324 
L 157.050142 498.95592 
L 164.854338 499.341349 
L 172.658534 532.592967 
L 180.462729 542.185973 
L 188.266925 511.940951 
L 196.071121 462.313513 
L 203.875317 445.038079 
L 211.679513 450.912934 
L 219.483708 471.426536 
L 227.287904 460.329071 
L 235.0921 412.982559 
L 242.896296 363.229447 
L 250.700492 342.528882 
L 258.504687 336.17267 
L 266.308883 342.7754 
L 274.113079 362.386048 
L 281.917275 408.154795 
L 289.721471 458.362374 
L 297.525667 472.727086 
L 305.329862 453.879323 
L 313.134058 445.814708 
L 320.938254 466.292216 
L 328.74245 508.769254 
L 336.546646 537.167186 
L 344.350841 529.853362 
L 352.155037 501.06278 
L 359.959233 494.477615 
L 367.763429 505.418942 
L 375.567625 512.859731 
L 383.37182 507.106553 
L 391.176016 498.535884 
L 398.980212 510.152622 
L 406.784408 536.972555 
L 414.588604 535.430605 
L 422.392799 502.813732 
L 430.196995 472.708445 
L 438.001191 475.066698 
L 445.805387 488.051228 
L 453.609583 483.951162 
L 461.413778 470.576857 
" clip-path="url(#p78e30901fe)" style="fill: none; stroke: #2ca02c; stroke-opacity: 0.7; stroke-width: 1.5; stroke-linecap: square"/>
   </g>
   <g id="line2d_66">
    <path d="M 55.595597 471.304098 
L 63.399792 485.15097 
L 71.203988 488.996415 
L 79.008184 475.449601 
L 86.81238 471.10427 
L 94.616576 498.587301 
L 102.420771 533.615492 
L 110.224967 539.328338 
L 118.029163 515.058794 
L 125.833359 498.909251 
L 133.637555 504.817845 
L 141.44175 512.150335 
L 149.245946 508.006346 
L 157.050142 497.709039 
L 164.854338 500.442892 
L 172.658534 530.92934 
L 180.462729 539.964908 
L 188.266925 511.053942 
L 196.071121 464.093129 
L 203.875317 443.986797 
L 211.679513 450.756515 
L 219.483708 470.319477 
L 227.287904 457.864642 
L 235.0921 410.001301 
L 242.896296 363.070757 
L 250.700492 342.700786 
L 258.504687 336.234637 
L 266.308883 342.227755 
L 274.113079 361.307752 
L 281.917275 406.789655 
L 289.721471 456.4916 
L 297.525667 471.157612 
L 305.329862 452.803029 
L 313.134058 444.402777 
L 320.938254 463.301243 
L 328.74245 509.830128 
L 336.546646 539.937903 
L 344.350841 531.869701 
L 352.155037 500.644174 
L 359.959233 496.725919 
L 367.763429 507.620384 
L 375.567625 513.416095 
L 383.37182 506.475538 
L 391.176016 498.369587 
L 398.980212 511.323001 
L 406.784408 538.528084 
L 414.588604 536.970548 
L 422.392799 503.570201 
L 430.196995 472.439638 
L 438.001191 474.476325 
L 445.805387 486.959652 
L 453.609583 483.277834 
L 461.413778 470.886174 
" clip-path="url(#p78e30901fe)" style="fill: none; stroke: #d62728; stroke-opacity: 0.7; stroke-width: 1.5; stroke-linecap: square"/>
   </g>
   <g id="line2d_67">
    <path d="M 55.595597 482.427844 
L 63.399792 489.653578 
L 71.203988 489.472424 
L 79.008184 474.331621 
L 86.81238 471.650121 
L 94.616576 498.023056 
L 102.420771 532.292956 
L 110.224967 539.949276 
L 118.029163 517.696809 
L 125.833359 501.693842 
L 133.637555 510.253241 
L 141.44175 521.061023 
L 149.245946 513.485263 
L 157.050142 499.7573 
L 164.854338 498.496373 
L 172.658534 528.405129 
L 180.462729 537.917598 
L 188.266925 509.628536 
L 196.071121 463.776059 
L 203.875317 446.570224 
L 211.679513 447.010446 
L 219.483708 464.840855 
L 227.287904 455.923999 
L 235.0921 415.396805 
L 242.896296 364.446953 
L 250.700492 344.401208 
L 258.504687 337.131081 
L 266.308883 343.506356 
L 274.113079 361.709697 
L 281.917275 408.469836 
L 289.721471 456.511889 
L 297.525667 473.873924 
L 305.329862 457.244642 
L 313.134058 450.130814 
L 320.938254 469.11078 
L 328.74245 514.628608 
L 336.546646 540.606276 
L 344.350841 527.355361 
L 352.155037 498.137821 
L 359.959233 497.656752 
L 367.763429 511.279766 
L 375.567625 520.307237 
L 383.37182 512.68532 
L 391.176016 500.757454 
L 398.980212 514.422542 
L 406.784408 542.305254 
L 414.588604 538.05719 
L 422.392799 499.548091 
L 430.196995 469.191986 
L 438.001191 473.47127 
L 445.805387 488.532298 
L 453.609583 486.271006 
L 461.413778 474.677589 
" clip-path="url(#p78e30901fe)" style="fill: none; stroke: #9467bd; stroke-opacity: 0.7; stroke-width: 1.5; stroke-linecap: square"/>
   </g>
   <g id="line2d_68">
    <path d="M 55.595597 468.898906 
L 63.399792 484.428901 
L 71.203988 489.308639 
L 79.008184 475.317941 
L 86.81238 471.719139 
L 94.616576 502.478852 
L 102.420771 535.334726 
L 110.224967 539.536977 
L 118.029163 514.45891 
L 125.833359 501.980583 
L 133.637555 505.242705 
L 141.44175 511.627079 
L 149.245946 507.898729 
L 157.050142 500.06053 
L 164.854338 502.555425 
L 172.658534 534.823832 
L 180.462729 544.588751 
L 188.266925 514.475832 
L 196.071121 464.843219 
L 203.875317 443.757099 
L 211.679513 450.216443 
L 219.483708 467.521634 
L 227.287904 454.045194 
L 235.0921 406.792741 
L 242.896296 362.592596 
L 250.700492 342.993413 
L 258.504687 336.662435 
L 266.308883 342.7565 
L 274.113079 362.202515 
L 281.917275 406.425816 
L 289.721471 454.73489 
L 297.525667 467.374024 
L 305.329862 449.477484 
L 313.134058 443.700074 
L 320.938254 464.184463 
L 328.74245 512.636969 
L 336.546646 541.827394 
L 344.350841 533.755653 
L 352.155037 499.507701 
L 359.959233 495.496409 
L 367.763429 506.203914 
L 375.567625 514.680748 
L 383.37182 508.782622 
L 391.176016 500.126607 
L 398.980212 512.065593 
L 406.784408 540.142062 
L 414.588604 538.398675 
L 422.392799 504.556601 
L 430.196995 473.155956 
L 438.001191 474.854059 
L 445.805387 485.389602 
L 453.609583 481.463302 
L 461.413778 469.696666 
" clip-path="url(#p78e30901fe)" style="fill: none; stroke: #8c564b; stroke-opacity: 0.7; stroke-width: 1.5; stroke-linecap: square"/>
   </g>
   <g id="line2d_69">
    <path d="M 55.595597 471.008458 
L 63.399792 487.00899 
L 71.203988 493.276838 
L 79.008184 481.041724 
L 86.81238 482.185924 
L 94.616576 505.01814 
L 102.420771 531.626723 
L 110.224967 542.961064 
L 118.029163 525.766564 
L 125.833359 509.368996 
L 133.637555 507.116035 
L 141.44175 521.874865 
L 149.245946 518.762036 
L 157.050142 509.948262 
L 164.854338 501.504889 
L 172.658534 518.591377 
L 180.462729 525.424062 
L 188.266925 507.197473 
L 196.071121 471.056617 
L 203.875317 448.242533 
L 211.679513 442.08384 
L 219.483708 468.594568 
L 227.287904 461.10492 
L 235.0921 417.301528 
L 242.896296 359.56459 
L 250.700492 345.067186 
L 258.504687 336.87072 
L 266.308883 342.226983 
L 274.113079 359.428725 
L 281.917275 400.721304 
L 289.721471 448.86454 
L 297.525667 465.145627 
L 305.329862 456.406816 
L 313.134058 446.871096 
L 320.938254 460.143398 
L 328.74245 509.517094 
L 336.546646 548.611525 
L 344.350841 535.273555 
L 352.155037 490.091846 
L 359.959233 489.581154 
L 367.763429 511.41342 
L 375.567625 524.274131 
L 383.37182 513.587925 
L 391.176016 506.242602 
L 398.980212 519.809135 
L 406.784408 541.28238 
L 414.588604 527.230076 
L 422.392799 496.018177 
L 430.196995 472.047354 
L 438.001191 483.133588 
L 445.805387 487.677968 
L 453.609583 483.801507 
L 461.413778 473.143348 
" clip-path="url(#p78e30901fe)" style="fill: none; stroke: #e377c2; stroke-opacity: 0.7; stroke-width: 1.5; stroke-linecap: square"/>
   </g>
   <g id="patch_9">
    <path d="M 35.304688 576.718125 
L 35.304688 324.718125 
" style="fill: none; stroke: #000000; stroke-width: 0.8; stroke-linejoin: miter; stroke-linecap: square"/>
   </g>
   <g id="patch_10">
    <path d="M 481.704687 576.718125 
L 481.704687 324.718125 
" style="fill: none; stroke: #000000; stroke-width: 0.8; stroke-linejoin: miter; stroke-linecap: square"/>
   </g>
   <g id="patch_11">
    <path d="M 35.304688 576.718125 
L 481.704687 576.718125 
" style="fill: none; stroke: #000000; stroke-width: 0.8; stroke-linejoin: miter; stroke-linecap: square"/>
   </g>
   <g id="patch_12">
    <path d="M 35.304688 324.718125 
L 481.704687 324.718125 
" style="fill: none; stroke: #000000; stroke-width: 0.8; stroke-linejoin: miter; stroke-linecap: square"/>
   </g>
   <g id="text_35">
    <!-- Radiation comparison of transform w/o error E-plane Phi = 0.0 -->
    <g transform="translate(71.374063 318.718125) scale(0.12 -0.12)">
     <defs>
      <path id="DejaVuSans-45" d="M 628 4666 
L 3578 4666 
L 3578 4134 
L 1259 4134 
L 1259 2753 
L 3481 2753 
L 3481 2222 
L 1259 2222 
L 1259 531 
L 3634 531 
L 3634 0 
L 628 0 
L 628 4666 
z
" transform="scale(0.015625)"/>
     </defs>
     <use xlink:href="#DejaVuSans-52"/>
     <use xlink:href="#DejaVuSans-61" x="67.232422"/>
     <use xlink:href="#DejaVuSans-64" x="128.511719"/>
     <use xlink:href="#DejaVuSans-69" x="191.988281"/>
     <use xlink:href="#DejaVuSans-61" x="219.771484"/>
     <use xlink:href="#DejaVuSans-74" x="281.050781"/>
     <use xlink:href="#DejaVuSans-69" x="320.259766"/>
     <use xlink:href="#DejaVuSans-6f" x="348.042969"/>
     <use xlink:href="#DejaVuSans-6e" x="409.224609"/>
     <use xlink:href="#DejaVuSans-20" x="472.603516"/>
     <use xlink:href="#DejaVuSans-63" x="504.390625"/>
     <use xlink:href="#DejaVuSans-6f" x="559.371094"/>
     <use xlink:href="#DejaVuSans-6d" x="620.552734"/>
     <use xlink:href="#DejaVuSans-70" x="717.964844"/>
     <use xlink:href="#DejaVuSans-61" x="781.441406"/>
     <use xlink:href="#DejaVuSans-72" x="842.720703"/>
     <use xlink:href="#DejaVuSans-69" x="883.833984"/>
     <use xlink:href="#DejaVuSans-73" x="911.617188"/>
     <use xlink:href="#DejaVuSans-6f" x="963.716797"/>
     <use xlink:href="#DejaVuSans-6e" x="1024.898438"/>
     <use xlink:href="#DejaVuSans-20" x="1088.277344"/>
     <use xlink:href="#DejaVuSans-6f" x="1120.064453"/>
     <use xlink:href="#DejaVuSans-66" x="1181.246094"/>
     <use xlink:href="#DejaVuSans-20" x="1216.451172"/>
     <use xlink:href="#DejaVuSans-74" x="1248.238281"/>
     <use xlink:href="#DejaVuSans-72" x="1287.447266"/>
     <use xlink:href="#DejaVuSans-61" x="1328.560547"/>
     <use xlink:href="#DejaVuSans-6e" x="1389.839844"/>
     <use xlink:href="#DejaVuSans-73" x="1453.21875"/>
     <use xlink:href="#DejaVuSans-66" x="1505.318359"/>
     <use xlink:href="#DejaVuSans-6f" x="1540.523438"/>
     <use xlink:href="#DejaVuSans-72" x="1601.705078"/>
     <use xlink:href="#DejaVuSans-6d" x="1641.068359"/>
     <use xlink:href="#DejaVuSans-20" x="1738.480469"/>
     <use xlink:href="#DejaVuSans-77" x="1770.267578"/>
     <use xlink:href="#DejaVuSans-2f" x="1852.054688"/>
     <use xlink:href="#DejaVuSans-6f" x="1885.746094"/>
     <use xlink:href="#DejaVuSans-20" x="1946.927734"/>
     <use xlink:href="#DejaVuSans-65" x="1978.714844"/>
     <use xlink:href="#DejaVuSans-72" x="2040.238281"/>
     <use xlink:href="#DejaVuSans-72" x="2079.601562"/>
     <use xlink:href="#DejaVuSans-6f" x="2118.464844"/>
     <use xlink:href="#DejaVuSans-72" x="2179.646484"/>
     <use xlink:href="#DejaVuSans-20" x="2220.759766"/>
     <use xlink:href="#DejaVuSans-45" x="2252.546875"/>
     <use xlink:href="#DejaVuSans-2d" x="2315.730469"/>
     <use xlink:href="#DejaVuSans-70" x="2351.814453"/>
     <use xlink:href="#DejaVuSans-6c" x="2415.291016"/>
     <use xlink:href="#DejaVuSans-61" x="2443.074219"/>
     <use xlink:href="#DejaVuSans-6e" x="2504.353516"/>
     <use xlink:href="#DejaVuSans-65" x="2567.732422"/>
     <use xlink:href="#DejaVuSans-20" x="2629.255859"/>
     <use xlink:href="#DejaVuSans-50" x="2661.042969"/>
     <use xlink:href="#DejaVuSans-68" x="2721.345703"/>
     <use xlink:href="#DejaVuSans-69" x="2784.724609"/>
     <use xlink:href="#DejaVuSans-20" x="2812.507812"/>
     <use xlink:href="#DejaVuSans-3d" x="2844.294922"/>
     <use xlink:href="#DejaVuSans-20" x="2928.083984"/>
     <use xlink:href="#DejaVuSans-30" x="2959.871094"/>
     <use xlink:href="#DejaVuSans-2e" x="3023.494141"/>
     <use xlink:href="#DejaVuSans-30" x="3055.28125"/>
    </g>
   </g>
   <g id="legend_2">
    <g id="patch_13">
     <path d="M 295.271875 435.465 
L 474.704687 435.465 
Q 476.704687 435.465 476.704687 433.465 
L 476.704687 331.718125 
Q 476.704687 329.718125 474.704687 329.718125 
L 295.271875 329.718125 
Q 293.271875 329.718125 293.271875 331.718125 
L 293.271875 433.465 
Q 293.271875 435.465 295.271875 435.465 
z
" style="fill: #ffffff; opacity: 0.8; stroke: #cccccc; stroke-linejoin: miter"/>
    </g>
    <g id="line2d_70">
     <path d="M 297.271875 337.816562 
L 307.271875 337.816562 
L 317.271875 337.816562 
" style="fill: none; stroke: #1f77b4; stroke-opacity: 0.7; stroke-width: 1.5; stroke-linecap: square"/>
    </g>
    <g id="text_36">
     <!-- Radiation without errors -->
     <g transform="translate(325.271875 341.316562) scale(0.1 -0.1)">
      <use xlink:href="#DejaVuSans-52"/>
      <use xlink:href="#DejaVuSans-61" x="67.232422"/>
      <use xlink:href="#DejaVuSans-64" x="128.511719"/>
      <use xlink:href="#DejaVuSans-69" x="191.988281"/>
      <use xlink:href="#DejaVuSans-61" x="219.771484"/>
      <use xlink:href="#DejaVuSans-74" x="281.050781"/>
      <use xlink:href="#DejaVuSans-69" x="320.259766"/>
      <use xlink:href="#DejaVuSans-6f" x="348.042969"/>
      <use xlink:href="#DejaVuSans-6e" x="409.224609"/>
      <use xlink:href="#DejaVuSans-20" x="472.603516"/>
      <use xlink:href="#DejaVuSans-77" x="504.390625"/>
      <use xlink:href="#DejaVuSans-69" x="586.177734"/>
      <use xlink:href="#DejaVuSans-74" x="613.960938"/>
      <use xlink:href="#DejaVuSans-68" x="653.169922"/>
      <use xlink:href="#DejaVuSans-6f" x="716.548828"/>
      <use xlink:href="#DejaVuSans-75" x="777.730469"/>
      <use xlink:href="#DejaVuSans-74" x="841.109375"/>
      <use xlink:href="#DejaVuSans-20" x="880.318359"/>
      <use xlink:href="#DejaVuSans-65" x="912.105469"/>
      <use xlink:href="#DejaVuSans-72" x="973.628906"/>
      <use xlink:href="#DejaVuSans-72" x="1012.992188"/>
      <use xlink:href="#DejaVuSans-6f" x="1051.855469"/>
      <use xlink:href="#DejaVuSans-72" x="1113.037109"/>
      <use xlink:href="#DejaVuSans-73" x="1154.150391"/>
     </g>
    </g>
    <g id="line2d_71">
     <path d="M 297.271875 352.494687 
L 307.271875 352.494687 
L 317.271875 352.494687 
" style="fill: none; stroke: #ff7f0e; stroke-opacity: 0.7; stroke-width: 1.5; stroke-linecap: square"/>
    </g>
    <g id="text_37">
     <!-- Radiation with errors (50mm) -->
     <g transform="translate(325.271875 355.994687) scale(0.1 -0.1)">
      <use xlink:href="#DejaVuSans-52"/>
      <use xlink:href="#DejaVuSans-61" x="67.232422"/>
      <use xlink:href="#DejaVuSans-64" x="128.511719"/>
      <use xlink:href="#DejaVuSans-69" x="191.988281"/>
      <use xlink:href="#DejaVuSans-61" x="219.771484"/>
      <use xlink:href="#DejaVuSans-74" x="281.050781"/>
      <use xlink:href="#DejaVuSans-69" x="320.259766"/>
      <use xlink:href="#DejaVuSans-6f" x="348.042969"/>
      <use xlink:href="#DejaVuSans-6e" x="409.224609"/>
      <use xlink:href="#DejaVuSans-20" x="472.603516"/>
      <use xlink:href="#DejaVuSans-77" x="504.390625"/>
      <use xlink:href="#DejaVuSans-69" x="586.177734"/>
      <use xlink:href="#DejaVuSans-74" x="613.960938"/>
      <use xlink:href="#DejaVuSans-68" x="653.169922"/>
      <use xlink:href="#DejaVuSans-20" x="716.548828"/>
      <use xlink:href="#DejaVuSans-65" x="748.335938"/>
      <use xlink:href="#DejaVuSans-72" x="809.859375"/>
      <use xlink:href="#DejaVuSans-72" x="849.222656"/>
      <use xlink:href="#DejaVuSans-6f" x="888.085938"/>
      <use xlink:href="#DejaVuSans-72" x="949.267578"/>
      <use xlink:href="#DejaVuSans-73" x="990.380859"/>
      <use xlink:href="#DejaVuSans-20" x="1042.480469"/>
      <use xlink:href="#DejaVuSans-28" x="1074.267578"/>
      <use xlink:href="#DejaVuSans-35" x="1113.28125"/>
      <use xlink:href="#DejaVuSans-30" x="1176.904297"/>
      <use xlink:href="#DejaVuSans-6d" x="1240.527344"/>
      <use xlink:href="#DejaVuSans-6d" x="1337.939453"/>
      <use xlink:href="#DejaVuSans-29" x="1435.351562"/>
     </g>
    </g>
    <g id="line2d_72">
     <path d="M 297.271875 367.172812 
L 307.271875 367.172812 
L 317.271875 367.172812 
" style="fill: none; stroke: #2ca02c; stroke-opacity: 0.7; stroke-width: 1.5; stroke-linecap: square"/>
    </g>
    <g id="text_38">
     <!-- Radiation with errors (5mm) -->
     <g transform="translate(325.271875 370.672812) scale(0.1 -0.1)">
      <use xlink:href="#DejaVuSans-52"/>
      <use xlink:href="#DejaVuSans-61" x="67.232422"/>
      <use xlink:href="#DejaVuSans-64" x="128.511719"/>
      <use xlink:href="#DejaVuSans-69" x="191.988281"/>
      <use xlink:href="#DejaVuSans-61" x="219.771484"/>
      <use xlink:href="#DejaVuSans-74" x="281.050781"/>
      <use xlink:href="#DejaVuSans-69" x="320.259766"/>
      <use xlink:href="#DejaVuSans-6f" x="348.042969"/>
      <use xlink:href="#DejaVuSans-6e" x="409.224609"/>
      <use xlink:href="#DejaVuSans-20" x="472.603516"/>
      <use xlink:href="#DejaVuSans-77" x="504.390625"/>
      <use xlink:href="#DejaVuSans-69" x="586.177734"/>
      <use xlink:href="#DejaVuSans-74" x="613.960938"/>
      <use xlink:href="#DejaVuSans-68" x="653.169922"/>
      <use xlink:href="#DejaVuSans-20" x="716.548828"/>
      <use xlink:href="#DejaVuSans-65" x="748.335938"/>
      <use xlink:href="#DejaVuSans-72" x="809.859375"/>
      <use xlink:href="#DejaVuSans-72" x="849.222656"/>
      <use xlink:href="#DejaVuSans-6f" x="888.085938"/>
      <use xlink:href="#DejaVuSans-72" x="949.267578"/>
      <use xlink:href="#DejaVuSans-73" x="990.380859"/>
      <use xlink:href="#DejaVuSans-20" x="1042.480469"/>
      <use xlink:href="#DejaVuSans-28" x="1074.267578"/>
      <use xlink:href="#DejaVuSans-35" x="1113.28125"/>
      <use xlink:href="#DejaVuSans-6d" x="1176.904297"/>
      <use xlink:href="#DejaVuSans-6d" x="1274.316406"/>
      <use xlink:href="#DejaVuSans-29" x="1371.728516"/>
     </g>
    </g>
    <g id="line2d_73">
     <path d="M 297.271875 381.850937 
L 307.271875 381.850937 
L 317.271875 381.850937 
" style="fill: none; stroke: #d62728; stroke-opacity: 0.7; stroke-width: 1.5; stroke-linecap: square"/>
    </g>
    <g id="text_39">
     <!-- Radiation with errors (1mm) -->
     <g transform="translate(325.271875 385.350937) scale(0.1 -0.1)">
      <use xlink:href="#DejaVuSans-52"/>
      <use xlink:href="#DejaVuSans-61" x="67.232422"/>
      <use xlink:href="#DejaVuSans-64" x="128.511719"/>
      <use xlink:href="#DejaVuSans-69" x="191.988281"/>
      <use xlink:href="#DejaVuSans-61" x="219.771484"/>
      <use xlink:href="#DejaVuSans-74" x="281.050781"/>
      <use xlink:href="#DejaVuSans-69" x="320.259766"/>
      <use xlink:href="#DejaVuSans-6f" x="348.042969"/>
      <use xlink:href="#DejaVuSans-6e" x="409.224609"/>
      <use xlink:href="#DejaVuSans-20" x="472.603516"/>
      <use xlink:href="#DejaVuSans-77" x="504.390625"/>
      <use xlink:href="#DejaVuSans-69" x="586.177734"/>
      <use xlink:href="#DejaVuSans-74" x="613.960938"/>
      <use xlink:href="#DejaVuSans-68" x="653.169922"/>
      <use xlink:href="#DejaVuSans-20" x="716.548828"/>
      <use xlink:href="#DejaVuSans-65" x="748.335938"/>
      <use xlink:href="#DejaVuSans-72" x="809.859375"/>
      <use xlink:href="#DejaVuSans-72" x="849.222656"/>
      <use xlink:href="#DejaVuSans-6f" x="888.085938"/>
      <use xlink:href="#DejaVuSans-72" x="949.267578"/>
      <use xlink:href="#DejaVuSans-73" x="990.380859"/>
      <use xlink:href="#DejaVuSans-20" x="1042.480469"/>
      <use xlink:href="#DejaVuSans-28" x="1074.267578"/>
      <use xlink:href="#DejaVuSans-31" x="1113.28125"/>
      <use xlink:href="#DejaVuSans-6d" x="1176.904297"/>
      <use xlink:href="#DejaVuSans-6d" x="1274.316406"/>
      <use xlink:href="#DejaVuSans-29" x="1371.728516"/>
     </g>
    </g>
    <g id="line2d_74">
     <path d="M 297.271875 396.529063 
L 307.271875 396.529063 
L 317.271875 396.529063 
" style="fill: none; stroke: #9467bd; stroke-opacity: 0.7; stroke-width: 1.5; stroke-linecap: square"/>
    </g>
    <g id="text_40">
     <!-- Radiation with errors (20mm) -->
     <g transform="translate(325.271875 400.029063) scale(0.1 -0.1)">
      <use xlink:href="#DejaVuSans-52"/>
      <use xlink:href="#DejaVuSans-61" x="67.232422"/>
      <use xlink:href="#DejaVuSans-64" x="128.511719"/>
      <use xlink:href="#DejaVuSans-69" x="191.988281"/>
      <use xlink:href="#DejaVuSans-61" x="219.771484"/>
      <use xlink:href="#DejaVuSans-74" x="281.050781"/>
      <use xlink:href="#DejaVuSans-69" x="320.259766"/>
      <use xlink:href="#DejaVuSans-6f" x="348.042969"/>
      <use xlink:href="#DejaVuSans-6e" x="409.224609"/>
      <use xlink:href="#DejaVuSans-20" x="472.603516"/>
      <use xlink:href="#DejaVuSans-77" x="504.390625"/>
      <use xlink:href="#DejaVuSans-69" x="586.177734"/>
      <use xlink:href="#DejaVuSans-74" x="613.960938"/>
      <use xlink:href="#DejaVuSans-68" x="653.169922"/>
      <use xlink:href="#DejaVuSans-20" x="716.548828"/>
      <use xlink:href="#DejaVuSans-65" x="748.335938"/>
      <use xlink:href="#DejaVuSans-72" x="809.859375"/>
      <use xlink:href="#DejaVuSans-72" x="849.222656"/>
      <use xlink:href="#DejaVuSans-6f" x="888.085938"/>
      <use xlink:href="#DejaVuSans-72" x="949.267578"/>
      <use xlink:href="#DejaVuSans-73" x="990.380859"/>
      <use xlink:href="#DejaVuSans-20" x="1042.480469"/>
      <use xlink:href="#DejaVuSans-28" x="1074.267578"/>
      <use xlink:href="#DejaVuSans-32" x="1113.28125"/>
      <use xlink:href="#DejaVuSans-30" x="1176.904297"/>
      <use xlink:href="#DejaVuSans-6d" x="1240.527344"/>
      <use xlink:href="#DejaVuSans-6d" x="1337.939453"/>
      <use xlink:href="#DejaVuSans-29" x="1435.351562"/>
     </g>
    </g>
    <g id="line2d_75">
     <path d="M 297.271875 411.207187 
L 307.271875 411.207187 
L 317.271875 411.207187 
" style="fill: none; stroke: #8c564b; stroke-opacity: 0.7; stroke-width: 1.5; stroke-linecap: square"/>
    </g>
    <g id="text_41">
     <!-- Radiation with errors (10mm) -->
     <g transform="translate(325.271875 414.707187) scale(0.1 -0.1)">
      <use xlink:href="#DejaVuSans-52"/>
      <use xlink:href="#DejaVuSans-61" x="67.232422"/>
      <use xlink:href="#DejaVuSans-64" x="128.511719"/>
      <use xlink:href="#DejaVuSans-69" x="191.988281"/>
      <use xlink:href="#DejaVuSans-61" x="219.771484"/>
      <use xlink:href="#DejaVuSans-74" x="281.050781"/>
      <use xlink:href="#DejaVuSans-69" x="320.259766"/>
      <use xlink:href="#DejaVuSans-6f" x="348.042969"/>
      <use xlink:href="#DejaVuSans-6e" x="409.224609"/>
      <use xlink:href="#DejaVuSans-20" x="472.603516"/>
      <use xlink:href="#DejaVuSans-77" x="504.390625"/>
      <use xlink:href="#DejaVuSans-69" x="586.177734"/>
      <use xlink:href="#DejaVuSans-74" x="613.960938"/>
      <use xlink:href="#DejaVuSans-68" x="653.169922"/>
      <use xlink:href="#DejaVuSans-20" x="716.548828"/>
      <use xlink:href="#DejaVuSans-65" x="748.335938"/>
      <use xlink:href="#DejaVuSans-72" x="809.859375"/>
      <use xlink:href="#DejaVuSans-72" x="849.222656"/>
      <use xlink:href="#DejaVuSans-6f" x="888.085938"/>
      <use xlink:href="#DejaVuSans-72" x="949.267578"/>
      <use xlink:href="#DejaVuSans-73" x="990.380859"/>
      <use xlink:href="#DejaVuSans-20" x="1042.480469"/>
      <use xlink:href="#DejaVuSans-28" x="1074.267578"/>
      <use xlink:href="#DejaVuSans-31" x="1113.28125"/>
      <use xlink:href="#DejaVuSans-30" x="1176.904297"/>
      <use xlink:href="#DejaVuSans-6d" x="1240.527344"/>
      <use xlink:href="#DejaVuSans-6d" x="1337.939453"/>
      <use xlink:href="#DejaVuSans-29" x="1435.351562"/>
     </g>
    </g>
    <g id="line2d_76">
     <path d="M 297.271875 425.885312 
L 307.271875 425.885312 
L 317.271875 425.885312 
" style="fill: none; stroke: #e377c2; stroke-opacity: 0.7; stroke-width: 1.5; stroke-linecap: square"/>
    </g>
    <g id="text_42">
     <!-- Radiation with errors (30mm) -->
     <g transform="translate(325.271875 429.385312) scale(0.1 -0.1)">
      <use xlink:href="#DejaVuSans-52"/>
      <use xlink:href="#DejaVuSans-61" x="67.232422"/>
      <use xlink:href="#DejaVuSans-64" x="128.511719"/>
      <use xlink:href="#DejaVuSans-69" x="191.988281"/>
      <use xlink:href="#DejaVuSans-61" x="219.771484"/>
      <use xlink:href="#DejaVuSans-74" x="281.050781"/>
      <use xlink:href="#DejaVuSans-69" x="320.259766"/>
      <use xlink:href="#DejaVuSans-6f" x="348.042969"/>
      <use xlink:href="#DejaVuSans-6e" x="409.224609"/>
      <use xlink:href="#DejaVuSans-20" x="472.603516"/>
      <use xlink:href="#DejaVuSans-77" x="504.390625"/>
      <use xlink:href="#DejaVuSans-69" x="586.177734"/>
      <use xlink:href="#DejaVuSans-74" x="613.960938"/>
      <use xlink:href="#DejaVuSans-68" x="653.169922"/>
      <use xlink:href="#DejaVuSans-20" x="716.548828"/>
      <use xlink:href="#DejaVuSans-65" x="748.335938"/>
      <use xlink:href="#DejaVuSans-72" x="809.859375"/>
      <use xlink:href="#DejaVuSans-72" x="849.222656"/>
      <use xlink:href="#DejaVuSans-6f" x="888.085938"/>
      <use xlink:href="#DejaVuSans-72" x="949.267578"/>
      <use xlink:href="#DejaVuSans-73" x="990.380859"/>
      <use xlink:href="#DejaVuSans-20" x="1042.480469"/>
      <use xlink:href="#DejaVuSans-28" x="1074.267578"/>
      <use xlink:href="#DejaVuSans-33" x="1113.28125"/>
      <use xlink:href="#DejaVuSans-30" x="1176.904297"/>
      <use xlink:href="#DejaVuSans-6d" x="1240.527344"/>
      <use xlink:href="#DejaVuSans-6d" x="1337.939453"/>
      <use xlink:href="#DejaVuSans-29" x="1435.351562"/>
     </g>
    </g>
   </g>
  </g>
 </g>
 <defs>
  <clipPath id="pc7c0e908fc">
   <rect x="35.304688" y="22.318125" width="446.4" height="252"/>
  </clipPath>
  <clipPath id="p78e30901fe">
   <rect x="35.304688" y="324.718125" width="446.4" height="252"/>
  </clipPath>
 </defs>
</svg>
