<?xml version="1.0" encoding="utf-8" standalone="no"?>
<!DOCTYPE svg PUBLIC "-//W3C//DTD SVG 1.1//EN"
  "http://www.w3.org/Graphics/SVG/1.1/DTD/svg11.dtd">
<svg xmlns:xlink="http://www.w3.org/1999/xlink" width="488.904687pt" height="614.274375pt" viewBox="0 0 488.904687 614.274375" xmlns="http://www.w3.org/2000/svg" version="1.1">
 <metadata>
  <rdf:RDF xmlns:dc="http://purl.org/dc/elements/1.1/" xmlns:cc="http://creativecommons.org/ns#" xmlns:rdf="http://www.w3.org/1999/02/22-rdf-syntax-ns#">
   <cc:Work>
    <dc:type rdf:resource="http://purl.org/dc/dcmitype/StillImage"/>
    <dc:date>2025-01-23T11:15:45.064956</dc:date>
    <dc:format>image/svg+xml</dc:format>
    <dc:creator>
     <cc:Agent>
      <dc:title>Matplotlib v3.8.3, https://matplotlib.org/</dc:title>
     </cc:Agent>
    </dc:creator>
   </cc:Work>
  </rdf:RDF>
 </metadata>
 <defs>
  <style type="text/css">*{stroke-linejoin: round; stroke-linecap: butt}</style>
 </defs>
 <g id="figure_1">
  <g id="patch_1">
   <path d="M 0 614.274375 
L 488.904687 614.274375 
L 488.904687 0 
L 0 0 
z
" style="fill: #ffffff"/>
  </g>
  <g id="axes_1">
   <g id="patch_2">
    <path d="M 35.304688 274.318125 
L 481.704687 274.318125 
L 481.704687 22.318125 
L 35.304688 22.318125 
z
" style="fill: #ffffff"/>
   </g>
   <g id="matplotlib.axis_1">
    <g id="xtick_1">
     <g id="line2d_1">
      <path d="M 102.420771 274.318125 
L 102.420771 22.318125 
" clip-path="url(#p25c7cf1187)" style="fill: none; stroke: #b0b0b0; stroke-width: 0.8; stroke-linecap: square"/>
     </g>
     <g id="line2d_2">
      <defs>
       <path id="m74608ab20b" d="M 0 0 
L 0 3.5 
" style="stroke: #000000; stroke-width: 0.8"/>
      </defs>
      <g>
       <use xlink:href="#m74608ab20b" x="102.420771" y="274.318125" style="stroke: #000000; stroke-width: 0.8"/>
      </g>
     </g>
     <g id="text_1">
      <!-- −100 -->
      <g transform="translate(88.687178 288.916562) scale(0.1 -0.1)">
       <defs>
        <path id="DejaVuSans-2212" d="M 678 2272 
L 4684 2272 
L 4684 1741 
L 678 1741 
L 678 2272 
z
" transform="scale(0.015625)"/>
        <path id="DejaVuSans-31" d="M 794 531 
L 1825 531 
L 1825 4091 
L 703 3866 
L 703 4441 
L 1819 4666 
L 2450 4666 
L 2450 531 
L 3481 531 
L 3481 0 
L 794 0 
L 794 531 
z
" transform="scale(0.015625)"/>
        <path id="DejaVuSans-30" d="M 2034 4250 
Q 1547 4250 1301 3770 
Q 1056 3291 1056 2328 
Q 1056 1369 1301 889 
Q 1547 409 2034 409 
Q 2525 409 2770 889 
Q 3016 1369 3016 2328 
Q 3016 3291 2770 3770 
Q 2525 4250 2034 4250 
z
M 2034 4750 
Q 2819 4750 3233 4129 
Q 3647 3509 3647 2328 
Q 3647 1150 3233 529 
Q 2819 -91 2034 -91 
Q 1250 -91 836 529 
Q 422 1150 422 2328 
Q 422 3509 836 4129 
Q 1250 4750 2034 4750 
z
" transform="scale(0.015625)"/>
       </defs>
       <use xlink:href="#DejaVuSans-2212"/>
       <use xlink:href="#DejaVuSans-31" x="83.789062"/>
       <use xlink:href="#DejaVuSans-30" x="147.412109"/>
       <use xlink:href="#DejaVuSans-30" x="211.035156"/>
      </g>
     </g>
    </g>
    <g id="xtick_2">
     <g id="line2d_3">
      <path d="M 180.462729 274.318125 
L 180.462729 22.318125 
" clip-path="url(#p25c7cf1187)" style="fill: none; stroke: #b0b0b0; stroke-width: 0.8; stroke-linecap: square"/>
     </g>
     <g id="line2d_4">
      <g>
       <use xlink:href="#m74608ab20b" x="180.462729" y="274.318125" style="stroke: #000000; stroke-width: 0.8"/>
      </g>
     </g>
     <g id="text_2">
      <!-- −50 -->
      <g transform="translate(169.910386 288.916562) scale(0.1 -0.1)">
       <defs>
        <path id="DejaVuSans-35" d="M 691 4666 
L 3169 4666 
L 3169 4134 
L 1269 4134 
L 1269 2991 
Q 1406 3038 1543 3061 
Q 1681 3084 1819 3084 
Q 2600 3084 3056 2656 
Q 3513 2228 3513 1497 
Q 3513 744 3044 326 
Q 2575 -91 1722 -91 
Q 1428 -91 1123 -41 
Q 819 9 494 109 
L 494 744 
Q 775 591 1075 516 
Q 1375 441 1709 441 
Q 2250 441 2565 725 
Q 2881 1009 2881 1497 
Q 2881 1984 2565 2268 
Q 2250 2553 1709 2553 
Q 1456 2553 1204 2497 
Q 953 2441 691 2322 
L 691 4666 
z
" transform="scale(0.015625)"/>
       </defs>
       <use xlink:href="#DejaVuSans-2212"/>
       <use xlink:href="#DejaVuSans-35" x="83.789062"/>
       <use xlink:href="#DejaVuSans-30" x="147.412109"/>
      </g>
     </g>
    </g>
    <g id="xtick_3">
     <g id="line2d_5">
      <path d="M 258.504687 274.318125 
L 258.504687 22.318125 
" clip-path="url(#p25c7cf1187)" style="fill: none; stroke: #b0b0b0; stroke-width: 0.8; stroke-linecap: square"/>
     </g>
     <g id="line2d_6">
      <g>
       <use xlink:href="#m74608ab20b" x="258.504687" y="274.318125" style="stroke: #000000; stroke-width: 0.8"/>
      </g>
     </g>
     <g id="text_3">
      <!-- 0 -->
      <g transform="translate(255.323437 288.916562) scale(0.1 -0.1)">
       <use xlink:href="#DejaVuSans-30"/>
      </g>
     </g>
    </g>
    <g id="xtick_4">
     <g id="line2d_7">
      <path d="M 336.546646 274.318125 
L 336.546646 22.318125 
" clip-path="url(#p25c7cf1187)" style="fill: none; stroke: #b0b0b0; stroke-width: 0.8; stroke-linecap: square"/>
     </g>
     <g id="line2d_8">
      <g>
       <use xlink:href="#m74608ab20b" x="336.546646" y="274.318125" style="stroke: #000000; stroke-width: 0.8"/>
      </g>
     </g>
     <g id="text_4">
      <!-- 50 -->
      <g transform="translate(330.184146 288.916562) scale(0.1 -0.1)">
       <use xlink:href="#DejaVuSans-35"/>
       <use xlink:href="#DejaVuSans-30" x="63.623047"/>
      </g>
     </g>
    </g>
    <g id="xtick_5">
     <g id="line2d_9">
      <path d="M 414.588604 274.318125 
L 414.588604 22.318125 
" clip-path="url(#p25c7cf1187)" style="fill: none; stroke: #b0b0b0; stroke-width: 0.8; stroke-linecap: square"/>
     </g>
     <g id="line2d_10">
      <g>
       <use xlink:href="#m74608ab20b" x="414.588604" y="274.318125" style="stroke: #000000; stroke-width: 0.8"/>
      </g>
     </g>
     <g id="text_5">
      <!-- 100 -->
      <g transform="translate(405.044854 288.916562) scale(0.1 -0.1)">
       <use xlink:href="#DejaVuSans-31"/>
       <use xlink:href="#DejaVuSans-30" x="63.623047"/>
       <use xlink:href="#DejaVuSans-30" x="127.246094"/>
      </g>
     </g>
    </g>
    <g id="text_6">
     <!-- Theta -->
     <g transform="translate(244.18125 302.594687) scale(0.1 -0.1)">
      <defs>
       <path id="DejaVuSans-54" d="M -19 4666 
L 3928 4666 
L 3928 4134 
L 2272 4134 
L 2272 0 
L 1638 0 
L 1638 4134 
L -19 4134 
L -19 4666 
z
" transform="scale(0.015625)"/>
       <path id="DejaVuSans-68" d="M 3513 2113 
L 3513 0 
L 2938 0 
L 2938 2094 
Q 2938 2591 2744 2837 
Q 2550 3084 2163 3084 
Q 1697 3084 1428 2787 
Q 1159 2491 1159 1978 
L 1159 0 
L 581 0 
L 581 4863 
L 1159 4863 
L 1159 2956 
Q 1366 3272 1645 3428 
Q 1925 3584 2291 3584 
Q 2894 3584 3203 3211 
Q 3513 2838 3513 2113 
z
" transform="scale(0.015625)"/>
       <path id="DejaVuSans-65" d="M 3597 1894 
L 3597 1613 
L 953 1613 
Q 991 1019 1311 708 
Q 1631 397 2203 397 
Q 2534 397 2845 478 
Q 3156 559 3463 722 
L 3463 178 
Q 3153 47 2828 -22 
Q 2503 -91 2169 -91 
Q 1331 -91 842 396 
Q 353 884 353 1716 
Q 353 2575 817 3079 
Q 1281 3584 2069 3584 
Q 2775 3584 3186 3129 
Q 3597 2675 3597 1894 
z
M 3022 2063 
Q 3016 2534 2758 2815 
Q 2500 3097 2075 3097 
Q 1594 3097 1305 2825 
Q 1016 2553 972 2059 
L 3022 2063 
z
" transform="scale(0.015625)"/>
       <path id="DejaVuSans-74" d="M 1172 4494 
L 1172 3500 
L 2356 3500 
L 2356 3053 
L 1172 3053 
L 1172 1153 
Q 1172 725 1289 603 
Q 1406 481 1766 481 
L 2356 481 
L 2356 0 
L 1766 0 
Q 1100 0 847 248 
Q 594 497 594 1153 
L 594 3053 
L 172 3053 
L 172 3500 
L 594 3500 
L 594 4494 
L 1172 4494 
z
" transform="scale(0.015625)"/>
       <path id="DejaVuSans-61" d="M 2194 1759 
Q 1497 1759 1228 1600 
Q 959 1441 959 1056 
Q 959 750 1161 570 
Q 1363 391 1709 391 
Q 2188 391 2477 730 
Q 2766 1069 2766 1631 
L 2766 1759 
L 2194 1759 
z
M 3341 1997 
L 3341 0 
L 2766 0 
L 2766 531 
Q 2569 213 2275 61 
Q 1981 -91 1556 -91 
Q 1019 -91 701 211 
Q 384 513 384 1019 
Q 384 1609 779 1909 
Q 1175 2209 1959 2209 
L 2766 2209 
L 2766 2266 
Q 2766 2663 2505 2880 
Q 2244 3097 1772 3097 
Q 1472 3097 1187 3025 
Q 903 2953 641 2809 
L 641 3341 
Q 956 3463 1253 3523 
Q 1550 3584 1831 3584 
Q 2591 3584 2966 3190 
Q 3341 2797 3341 1997 
z
" transform="scale(0.015625)"/>
      </defs>
      <use xlink:href="#DejaVuSans-54"/>
      <use xlink:href="#DejaVuSans-68" x="61.083984"/>
      <use xlink:href="#DejaVuSans-65" x="124.462891"/>
      <use xlink:href="#DejaVuSans-74" x="185.986328"/>
      <use xlink:href="#DejaVuSans-61" x="225.195312"/>
     </g>
    </g>
   </g>
   <g id="matplotlib.axis_2">
    <g id="ytick_1">
     <g id="line2d_11">
      <path d="M 35.304688 265.292518 
L 481.704687 265.292518 
" clip-path="url(#p25c7cf1187)" style="fill: none; stroke: #b0b0b0; stroke-width: 0.8; stroke-linecap: square"/>
     </g>
     <g id="line2d_12">
      <defs>
       <path id="mc815741bae" d="M 0 0 
L -3.5 0 
" style="stroke: #000000; stroke-width: 0.8"/>
      </defs>
      <g>
       <use xlink:href="#mc815741bae" x="35.304688" y="265.292518" style="stroke: #000000; stroke-width: 0.8"/>
      </g>
     </g>
     <g id="text_7">
      <!-- −30 -->
      <g transform="translate(7.2 269.091737) scale(0.1 -0.1)">
       <defs>
        <path id="DejaVuSans-33" d="M 2597 2516 
Q 3050 2419 3304 2112 
Q 3559 1806 3559 1356 
Q 3559 666 3084 287 
Q 2609 -91 1734 -91 
Q 1441 -91 1130 -33 
Q 819 25 488 141 
L 488 750 
Q 750 597 1062 519 
Q 1375 441 1716 441 
Q 2309 441 2620 675 
Q 2931 909 2931 1356 
Q 2931 1769 2642 2001 
Q 2353 2234 1838 2234 
L 1294 2234 
L 1294 2753 
L 1863 2753 
Q 2328 2753 2575 2939 
Q 2822 3125 2822 3475 
Q 2822 3834 2567 4026 
Q 2313 4219 1838 4219 
Q 1578 4219 1281 4162 
Q 984 4106 628 3988 
L 628 4550 
Q 988 4650 1302 4700 
Q 1616 4750 1894 4750 
Q 2613 4750 3031 4423 
Q 3450 4097 3450 3541 
Q 3450 3153 3228 2886 
Q 3006 2619 2597 2516 
z
" transform="scale(0.015625)"/>
       </defs>
       <use xlink:href="#DejaVuSans-2212"/>
       <use xlink:href="#DejaVuSans-33" x="83.789062"/>
       <use xlink:href="#DejaVuSans-30" x="147.412109"/>
      </g>
     </g>
    </g>
    <g id="ytick_2">
     <g id="line2d_13">
      <path d="M 35.304688 226.723669 
L 481.704687 226.723669 
" clip-path="url(#p25c7cf1187)" style="fill: none; stroke: #b0b0b0; stroke-width: 0.8; stroke-linecap: square"/>
     </g>
     <g id="line2d_14">
      <g>
       <use xlink:href="#mc815741bae" x="35.304688" y="226.723669" style="stroke: #000000; stroke-width: 0.8"/>
      </g>
     </g>
     <g id="text_8">
      <!-- −25 -->
      <g transform="translate(7.2 230.522888) scale(0.1 -0.1)">
       <defs>
        <path id="DejaVuSans-32" d="M 1228 531 
L 3431 531 
L 3431 0 
L 469 0 
L 469 531 
Q 828 903 1448 1529 
Q 2069 2156 2228 2338 
Q 2531 2678 2651 2914 
Q 2772 3150 2772 3378 
Q 2772 3750 2511 3984 
Q 2250 4219 1831 4219 
Q 1534 4219 1204 4116 
Q 875 4013 500 3803 
L 500 4441 
Q 881 4594 1212 4672 
Q 1544 4750 1819 4750 
Q 2544 4750 2975 4387 
Q 3406 4025 3406 3419 
Q 3406 3131 3298 2873 
Q 3191 2616 2906 2266 
Q 2828 2175 2409 1742 
Q 1991 1309 1228 531 
z
" transform="scale(0.015625)"/>
       </defs>
       <use xlink:href="#DejaVuSans-2212"/>
       <use xlink:href="#DejaVuSans-32" x="83.789062"/>
       <use xlink:href="#DejaVuSans-35" x="147.412109"/>
      </g>
     </g>
    </g>
    <g id="ytick_3">
     <g id="line2d_15">
      <path d="M 35.304688 188.154821 
L 481.704687 188.154821 
" clip-path="url(#p25c7cf1187)" style="fill: none; stroke: #b0b0b0; stroke-width: 0.8; stroke-linecap: square"/>
     </g>
     <g id="line2d_16">
      <g>
       <use xlink:href="#mc815741bae" x="35.304688" y="188.154821" style="stroke: #000000; stroke-width: 0.8"/>
      </g>
     </g>
     <g id="text_9">
      <!-- −20 -->
      <g transform="translate(7.2 191.954039) scale(0.1 -0.1)">
       <use xlink:href="#DejaVuSans-2212"/>
       <use xlink:href="#DejaVuSans-32" x="83.789062"/>
       <use xlink:href="#DejaVuSans-30" x="147.412109"/>
      </g>
     </g>
    </g>
    <g id="ytick_4">
     <g id="line2d_17">
      <path d="M 35.304688 149.585972 
L 481.704687 149.585972 
" clip-path="url(#p25c7cf1187)" style="fill: none; stroke: #b0b0b0; stroke-width: 0.8; stroke-linecap: square"/>
     </g>
     <g id="line2d_18">
      <g>
       <use xlink:href="#mc815741bae" x="35.304688" y="149.585972" style="stroke: #000000; stroke-width: 0.8"/>
      </g>
     </g>
     <g id="text_10">
      <!-- −15 -->
      <g transform="translate(7.2 153.38519) scale(0.1 -0.1)">
       <use xlink:href="#DejaVuSans-2212"/>
       <use xlink:href="#DejaVuSans-31" x="83.789062"/>
       <use xlink:href="#DejaVuSans-35" x="147.412109"/>
      </g>
     </g>
    </g>
    <g id="ytick_5">
     <g id="line2d_19">
      <path d="M 35.304688 111.017123 
L 481.704687 111.017123 
" clip-path="url(#p25c7cf1187)" style="fill: none; stroke: #b0b0b0; stroke-width: 0.8; stroke-linecap: square"/>
     </g>
     <g id="line2d_20">
      <g>
       <use xlink:href="#mc815741bae" x="35.304688" y="111.017123" style="stroke: #000000; stroke-width: 0.8"/>
      </g>
     </g>
     <g id="text_11">
      <!-- −10 -->
      <g transform="translate(7.2 114.816342) scale(0.1 -0.1)">
       <use xlink:href="#DejaVuSans-2212"/>
       <use xlink:href="#DejaVuSans-31" x="83.789062"/>
       <use xlink:href="#DejaVuSans-30" x="147.412109"/>
      </g>
     </g>
    </g>
    <g id="ytick_6">
     <g id="line2d_21">
      <path d="M 35.304688 72.448274 
L 481.704687 72.448274 
" clip-path="url(#p25c7cf1187)" style="fill: none; stroke: #b0b0b0; stroke-width: 0.8; stroke-linecap: square"/>
     </g>
     <g id="line2d_22">
      <g>
       <use xlink:href="#mc815741bae" x="35.304688" y="72.448274" style="stroke: #000000; stroke-width: 0.8"/>
      </g>
     </g>
     <g id="text_12">
      <!-- −5 -->
      <g transform="translate(13.5625 76.247493) scale(0.1 -0.1)">
       <use xlink:href="#DejaVuSans-2212"/>
       <use xlink:href="#DejaVuSans-35" x="83.789062"/>
      </g>
     </g>
    </g>
    <g id="ytick_7">
     <g id="line2d_23">
      <path d="M 35.304688 33.879425 
L 481.704687 33.879425 
" clip-path="url(#p25c7cf1187)" style="fill: none; stroke: #b0b0b0; stroke-width: 0.8; stroke-linecap: square"/>
     </g>
     <g id="line2d_24">
      <g>
       <use xlink:href="#mc815741bae" x="35.304688" y="33.879425" style="stroke: #000000; stroke-width: 0.8"/>
      </g>
     </g>
     <g id="text_13">
      <!-- 0 -->
      <g transform="translate(21.942187 37.678644) scale(0.1 -0.1)">
       <use xlink:href="#DejaVuSans-30"/>
      </g>
     </g>
    </g>
   </g>
   <g id="line2d_25">
    <path d="M 55.595597 176.370366 
L 63.399792 185.487409 
L 71.203988 194.513963 
L 79.008184 202.778246 
L 86.81238 214.365521 
L 94.616576 221.220322 
L 102.420771 226.379047 
L 110.224967 231.287922 
L 118.029163 240.929001 
L 125.833359 245.680526 
L 133.637555 250.973271 
L 141.44175 254.929178 
L 149.245946 260.774745 
L 157.050142 259.660887 
L 164.854338 256.389711 
L 172.658534 249.93184 
L 180.462729 254.166413 
L 188.266925 260.053727 
L 196.071121 248.954595 
L 203.875317 217.539798 
L 211.679513 192.815153 
L 219.483708 174.70199 
L 227.287904 142.755813 
L 235.0921 96.81905 
L 242.896296 60.245031 
L 250.700492 39.907878 
L 258.504687 34.479084 
L 266.308883 41.427955 
L 274.113079 63.168807 
L 281.917275 101.522664 
L 289.721471 148.300623 
L 297.525667 179.353197 
L 305.329862 195.776906 
L 313.134058 220.739974 
L 320.938254 251.120143 
L 328.74245 260.434005 
L 336.546646 252.805309 
L 344.350841 249.750762 
L 352.155037 255.847067 
L 359.959233 259.529373 
L 367.763429 259.816483 
L 375.567625 254.536772 
L 383.37182 249.956 
L 391.176016 245.028763 
L 398.980212 240.189801 
L 406.784408 230.451745 
L 414.588604 225.035591 
L 422.392799 219.524797 
L 430.196995 212.583102 
L 438.001191 200.802183 
L 445.805387 193.059004 
L 453.609583 183.24628 
L 461.413778 172.626106 
" clip-path="url(#p25c7cf1187)" style="fill: none; stroke: #1f77b4; stroke-opacity: 0.7; stroke-width: 1.5; stroke-linecap: square"/>
   </g>
   <g id="line2d_26">
    <path d="M 55.595597 175.949226 
L 63.399792 186.641456 
L 71.203988 193.578667 
L 79.008184 203.543043 
L 86.81238 212.404984 
L 94.616576 224.957518 
L 102.420771 223.120747 
L 110.224967 232.415395 
L 118.029163 240.348691 
L 125.833359 247.581721 
L 133.637555 248.005286 
L 141.44175 257.6908 
L 149.245946 258.083183 
L 157.050142 262.846283 
L 164.854338 254.242391 
L 172.658534 251.696752 
L 180.462729 249.582543 
L 188.266925 262.86358 
L 196.071121 253.025195 
L 203.875317 214.334336 
L 211.679513 188.548288 
L 219.483708 180.027283 
L 227.287904 143.351461 
L 235.0921 95.229376 
L 242.896296 59.318812 
L 250.700492 40.731349 
L 258.504687 33.77267 
L 266.308883 42.355626 
L 274.113079 62.15158 
L 281.917275 99.654727 
L 289.721471 149.491611 
L 297.525667 184.496175 
L 305.329862 191.397223 
L 313.134058 216.924966 
L 320.938254 256.713314 
L 328.74245 261.887752 
L 336.546646 248.827428 
L 344.350841 250.871869 
L 352.155037 254.951986 
L 359.959233 261.078265 
L 367.763429 258.818578 
L 375.567625 255.811208 
L 383.37182 248.05222 
L 391.176016 246.406108 
L 398.980212 239.526604 
L 406.784408 232.136468 
L 414.588604 221.221168 
L 422.392799 223.421284 
L 430.196995 210.8758 
L 438.001191 201.182714 
L 445.805387 192.021504 
L 453.609583 185.511177 
L 461.413778 171.666575 
" clip-path="url(#p25c7cf1187)" style="fill: none; stroke: #ff7f0e; stroke-opacity: 0.7; stroke-width: 1.5; stroke-linecap: square"/>
   </g>
   <g id="patch_3">
    <path d="M 35.304688 274.318125 
L 35.304688 22.318125 
" style="fill: none; stroke: #000000; stroke-width: 0.8; stroke-linejoin: miter; stroke-linecap: square"/>
   </g>
   <g id="patch_4">
    <path d="M 481.704687 274.318125 
L 481.704687 22.318125 
" style="fill: none; stroke: #000000; stroke-width: 0.8; stroke-linejoin: miter; stroke-linecap: square"/>
   </g>
   <g id="patch_5">
    <path d="M 35.304688 274.318125 
L 481.704687 274.318125 
" style="fill: none; stroke: #000000; stroke-width: 0.8; stroke-linejoin: miter; stroke-linecap: square"/>
   </g>
   <g id="patch_6">
    <path d="M 35.304688 22.318125 
L 481.704687 22.318125 
" style="fill: none; stroke: #000000; stroke-width: 0.8; stroke-linejoin: miter; stroke-linecap: square"/>
   </g>
   <g id="text_14">
    <!-- Far-field Pattern H-plane Phi = 90.0 -->
    <g transform="translate(152.810937 16.318125) scale(0.12 -0.12)">
     <defs>
      <path id="DejaVuSans-46" d="M 628 4666 
L 3309 4666 
L 3309 4134 
L 1259 4134 
L 1259 2759 
L 3109 2759 
L 3109 2228 
L 1259 2228 
L 1259 0 
L 628 0 
L 628 4666 
z
" transform="scale(0.015625)"/>
      <path id="DejaVuSans-72" d="M 2631 2963 
Q 2534 3019 2420 3045 
Q 2306 3072 2169 3072 
Q 1681 3072 1420 2755 
Q 1159 2438 1159 1844 
L 1159 0 
L 581 0 
L 581 3500 
L 1159 3500 
L 1159 2956 
Q 1341 3275 1631 3429 
Q 1922 3584 2338 3584 
Q 2397 3584 2469 3576 
Q 2541 3569 2628 3553 
L 2631 2963 
z
" transform="scale(0.015625)"/>
      <path id="DejaVuSans-2d" d="M 313 2009 
L 1997 2009 
L 1997 1497 
L 313 1497 
L 313 2009 
z
" transform="scale(0.015625)"/>
      <path id="DejaVuSans-66" d="M 2375 4863 
L 2375 4384 
L 1825 4384 
Q 1516 4384 1395 4259 
Q 1275 4134 1275 3809 
L 1275 3500 
L 2222 3500 
L 2222 3053 
L 1275 3053 
L 1275 0 
L 697 0 
L 697 3053 
L 147 3053 
L 147 3500 
L 697 3500 
L 697 3744 
Q 697 4328 969 4595 
Q 1241 4863 1831 4863 
L 2375 4863 
z
" transform="scale(0.015625)"/>
      <path id="DejaVuSans-69" d="M 603 3500 
L 1178 3500 
L 1178 0 
L 603 0 
L 603 3500 
z
M 603 4863 
L 1178 4863 
L 1178 4134 
L 603 4134 
L 603 4863 
z
" transform="scale(0.015625)"/>
      <path id="DejaVuSans-6c" d="M 603 4863 
L 1178 4863 
L 1178 0 
L 603 0 
L 603 4863 
z
" transform="scale(0.015625)"/>
      <path id="DejaVuSans-64" d="M 2906 2969 
L 2906 4863 
L 3481 4863 
L 3481 0 
L 2906 0 
L 2906 525 
Q 2725 213 2448 61 
Q 2172 -91 1784 -91 
Q 1150 -91 751 415 
Q 353 922 353 1747 
Q 353 2572 751 3078 
Q 1150 3584 1784 3584 
Q 2172 3584 2448 3432 
Q 2725 3281 2906 2969 
z
M 947 1747 
Q 947 1113 1208 752 
Q 1469 391 1925 391 
Q 2381 391 2643 752 
Q 2906 1113 2906 1747 
Q 2906 2381 2643 2742 
Q 2381 3103 1925 3103 
Q 1469 3103 1208 2742 
Q 947 2381 947 1747 
z
" transform="scale(0.015625)"/>
      <path id="DejaVuSans-20" transform="scale(0.015625)"/>
      <path id="DejaVuSans-50" d="M 1259 4147 
L 1259 2394 
L 2053 2394 
Q 2494 2394 2734 2622 
Q 2975 2850 2975 3272 
Q 2975 3691 2734 3919 
Q 2494 4147 2053 4147 
L 1259 4147 
z
M 628 4666 
L 2053 4666 
Q 2838 4666 3239 4311 
Q 3641 3956 3641 3272 
Q 3641 2581 3239 2228 
Q 2838 1875 2053 1875 
L 1259 1875 
L 1259 0 
L 628 0 
L 628 4666 
z
" transform="scale(0.015625)"/>
      <path id="DejaVuSans-6e" d="M 3513 2113 
L 3513 0 
L 2938 0 
L 2938 2094 
Q 2938 2591 2744 2837 
Q 2550 3084 2163 3084 
Q 1697 3084 1428 2787 
Q 1159 2491 1159 1978 
L 1159 0 
L 581 0 
L 581 3500 
L 1159 3500 
L 1159 2956 
Q 1366 3272 1645 3428 
Q 1925 3584 2291 3584 
Q 2894 3584 3203 3211 
Q 3513 2838 3513 2113 
z
" transform="scale(0.015625)"/>
      <path id="DejaVuSans-48" d="M 628 4666 
L 1259 4666 
L 1259 2753 
L 3553 2753 
L 3553 4666 
L 4184 4666 
L 4184 0 
L 3553 0 
L 3553 2222 
L 1259 2222 
L 1259 0 
L 628 0 
L 628 4666 
z
" transform="scale(0.015625)"/>
      <path id="DejaVuSans-70" d="M 1159 525 
L 1159 -1331 
L 581 -1331 
L 581 3500 
L 1159 3500 
L 1159 2969 
Q 1341 3281 1617 3432 
Q 1894 3584 2278 3584 
Q 2916 3584 3314 3078 
Q 3713 2572 3713 1747 
Q 3713 922 3314 415 
Q 2916 -91 2278 -91 
Q 1894 -91 1617 61 
Q 1341 213 1159 525 
z
M 3116 1747 
Q 3116 2381 2855 2742 
Q 2594 3103 2138 3103 
Q 1681 3103 1420 2742 
Q 1159 2381 1159 1747 
Q 1159 1113 1420 752 
Q 1681 391 2138 391 
Q 2594 391 2855 752 
Q 3116 1113 3116 1747 
z
" transform="scale(0.015625)"/>
      <path id="DejaVuSans-3d" d="M 678 2906 
L 4684 2906 
L 4684 2381 
L 678 2381 
L 678 2906 
z
M 678 1631 
L 4684 1631 
L 4684 1100 
L 678 1100 
L 678 1631 
z
" transform="scale(0.015625)"/>
      <path id="DejaVuSans-39" d="M 703 97 
L 703 672 
Q 941 559 1184 500 
Q 1428 441 1663 441 
Q 2288 441 2617 861 
Q 2947 1281 2994 2138 
Q 2813 1869 2534 1725 
Q 2256 1581 1919 1581 
Q 1219 1581 811 2004 
Q 403 2428 403 3163 
Q 403 3881 828 4315 
Q 1253 4750 1959 4750 
Q 2769 4750 3195 4129 
Q 3622 3509 3622 2328 
Q 3622 1225 3098 567 
Q 2575 -91 1691 -91 
Q 1453 -91 1209 -44 
Q 966 3 703 97 
z
M 1959 2075 
Q 2384 2075 2632 2365 
Q 2881 2656 2881 3163 
Q 2881 3666 2632 3958 
Q 2384 4250 1959 4250 
Q 1534 4250 1286 3958 
Q 1038 3666 1038 3163 
Q 1038 2656 1286 2365 
Q 1534 2075 1959 2075 
z
" transform="scale(0.015625)"/>
      <path id="DejaVuSans-2e" d="M 684 794 
L 1344 794 
L 1344 0 
L 684 0 
L 684 794 
z
" transform="scale(0.015625)"/>
     </defs>
     <use xlink:href="#DejaVuSans-46"/>
     <use xlink:href="#DejaVuSans-61" x="48.394531"/>
     <use xlink:href="#DejaVuSans-72" x="109.673828"/>
     <use xlink:href="#DejaVuSans-2d" x="144.412109"/>
     <use xlink:href="#DejaVuSans-66" x="180.496094"/>
     <use xlink:href="#DejaVuSans-69" x="215.701172"/>
     <use xlink:href="#DejaVuSans-65" x="243.484375"/>
     <use xlink:href="#DejaVuSans-6c" x="305.007812"/>
     <use xlink:href="#DejaVuSans-64" x="332.791016"/>
     <use xlink:href="#DejaVuSans-20" x="396.267578"/>
     <use xlink:href="#DejaVuSans-50" x="428.054688"/>
     <use xlink:href="#DejaVuSans-61" x="483.857422"/>
     <use xlink:href="#DejaVuSans-74" x="545.136719"/>
     <use xlink:href="#DejaVuSans-74" x="584.345703"/>
     <use xlink:href="#DejaVuSans-65" x="623.554688"/>
     <use xlink:href="#DejaVuSans-72" x="685.078125"/>
     <use xlink:href="#DejaVuSans-6e" x="724.441406"/>
     <use xlink:href="#DejaVuSans-20" x="787.820312"/>
     <use xlink:href="#DejaVuSans-48" x="819.607422"/>
     <use xlink:href="#DejaVuSans-2d" x="894.802734"/>
     <use xlink:href="#DejaVuSans-70" x="930.886719"/>
     <use xlink:href="#DejaVuSans-6c" x="994.363281"/>
     <use xlink:href="#DejaVuSans-61" x="1022.146484"/>
     <use xlink:href="#DejaVuSans-6e" x="1083.425781"/>
     <use xlink:href="#DejaVuSans-65" x="1146.804688"/>
     <use xlink:href="#DejaVuSans-20" x="1208.328125"/>
     <use xlink:href="#DejaVuSans-50" x="1240.115234"/>
     <use xlink:href="#DejaVuSans-68" x="1300.417969"/>
     <use xlink:href="#DejaVuSans-69" x="1363.796875"/>
     <use xlink:href="#DejaVuSans-20" x="1391.580078"/>
     <use xlink:href="#DejaVuSans-3d" x="1423.367188"/>
     <use xlink:href="#DejaVuSans-20" x="1507.15625"/>
     <use xlink:href="#DejaVuSans-39" x="1538.943359"/>
     <use xlink:href="#DejaVuSans-30" x="1602.566406"/>
     <use xlink:href="#DejaVuSans-2e" x="1666.189453"/>
     <use xlink:href="#DejaVuSans-30" x="1697.976562"/>
    </g>
   </g>
   <g id="legend_1">
    <g id="patch_7">
     <path d="M 264.571875 59.674375 
L 474.704687 59.674375 
Q 476.704687 59.674375 476.704687 57.674375 
L 476.704687 29.318125 
Q 476.704687 27.318125 474.704687 27.318125 
L 264.571875 27.318125 
Q 262.571875 27.318125 262.571875 29.318125 
L 262.571875 57.674375 
Q 262.571875 59.674375 264.571875 59.674375 
z
" style="fill: #ffffff; opacity: 0.8; stroke: #cccccc; stroke-linejoin: miter"/>
    </g>
    <g id="line2d_27">
     <path d="M 266.571875 35.416562 
L 276.571875 35.416562 
L 286.571875 35.416562 
" style="fill: none; stroke: #1f77b4; stroke-opacity: 0.7; stroke-width: 1.5; stroke-linecap: square"/>
    </g>
    <g id="text_15">
     <!-- smoothed with Savitzky-Golay filter -->
     <g transform="translate(294.571875 38.916562) scale(0.1 -0.1)">
      <defs>
       <path id="DejaVuSans-73" d="M 2834 3397 
L 2834 2853 
Q 2591 2978 2328 3040 
Q 2066 3103 1784 3103 
Q 1356 3103 1142 2972 
Q 928 2841 928 2578 
Q 928 2378 1081 2264 
Q 1234 2150 1697 2047 
L 1894 2003 
Q 2506 1872 2764 1633 
Q 3022 1394 3022 966 
Q 3022 478 2636 193 
Q 2250 -91 1575 -91 
Q 1294 -91 989 -36 
Q 684 19 347 128 
L 347 722 
Q 666 556 975 473 
Q 1284 391 1588 391 
Q 1994 391 2212 530 
Q 2431 669 2431 922 
Q 2431 1156 2273 1281 
Q 2116 1406 1581 1522 
L 1381 1569 
Q 847 1681 609 1914 
Q 372 2147 372 2553 
Q 372 3047 722 3315 
Q 1072 3584 1716 3584 
Q 2034 3584 2315 3537 
Q 2597 3491 2834 3397 
z
" transform="scale(0.015625)"/>
       <path id="DejaVuSans-6d" d="M 3328 2828 
Q 3544 3216 3844 3400 
Q 4144 3584 4550 3584 
Q 5097 3584 5394 3201 
Q 5691 2819 5691 2113 
L 5691 0 
L 5113 0 
L 5113 2094 
Q 5113 2597 4934 2840 
Q 4756 3084 4391 3084 
Q 3944 3084 3684 2787 
Q 3425 2491 3425 1978 
L 3425 0 
L 2847 0 
L 2847 2094 
Q 2847 2600 2669 2842 
Q 2491 3084 2119 3084 
Q 1678 3084 1418 2786 
Q 1159 2488 1159 1978 
L 1159 0 
L 581 0 
L 581 3500 
L 1159 3500 
L 1159 2956 
Q 1356 3278 1631 3431 
Q 1906 3584 2284 3584 
Q 2666 3584 2933 3390 
Q 3200 3197 3328 2828 
z
" transform="scale(0.015625)"/>
       <path id="DejaVuSans-6f" d="M 1959 3097 
Q 1497 3097 1228 2736 
Q 959 2375 959 1747 
Q 959 1119 1226 758 
Q 1494 397 1959 397 
Q 2419 397 2687 759 
Q 2956 1122 2956 1747 
Q 2956 2369 2687 2733 
Q 2419 3097 1959 3097 
z
M 1959 3584 
Q 2709 3584 3137 3096 
Q 3566 2609 3566 1747 
Q 3566 888 3137 398 
Q 2709 -91 1959 -91 
Q 1206 -91 779 398 
Q 353 888 353 1747 
Q 353 2609 779 3096 
Q 1206 3584 1959 3584 
z
" transform="scale(0.015625)"/>
       <path id="DejaVuSans-77" d="M 269 3500 
L 844 3500 
L 1563 769 
L 2278 3500 
L 2956 3500 
L 3675 769 
L 4391 3500 
L 4966 3500 
L 4050 0 
L 3372 0 
L 2619 2869 
L 1863 0 
L 1184 0 
L 269 3500 
z
" transform="scale(0.015625)"/>
       <path id="DejaVuSans-53" d="M 3425 4513 
L 3425 3897 
Q 3066 4069 2747 4153 
Q 2428 4238 2131 4238 
Q 1616 4238 1336 4038 
Q 1056 3838 1056 3469 
Q 1056 3159 1242 3001 
Q 1428 2844 1947 2747 
L 2328 2669 
Q 3034 2534 3370 2195 
Q 3706 1856 3706 1288 
Q 3706 609 3251 259 
Q 2797 -91 1919 -91 
Q 1588 -91 1214 -16 
Q 841 59 441 206 
L 441 856 
Q 825 641 1194 531 
Q 1563 422 1919 422 
Q 2459 422 2753 634 
Q 3047 847 3047 1241 
Q 3047 1584 2836 1778 
Q 2625 1972 2144 2069 
L 1759 2144 
Q 1053 2284 737 2584 
Q 422 2884 422 3419 
Q 422 4038 858 4394 
Q 1294 4750 2059 4750 
Q 2388 4750 2728 4690 
Q 3069 4631 3425 4513 
z
" transform="scale(0.015625)"/>
       <path id="DejaVuSans-76" d="M 191 3500 
L 800 3500 
L 1894 563 
L 2988 3500 
L 3597 3500 
L 2284 0 
L 1503 0 
L 191 3500 
z
" transform="scale(0.015625)"/>
       <path id="DejaVuSans-7a" d="M 353 3500 
L 3084 3500 
L 3084 2975 
L 922 459 
L 3084 459 
L 3084 0 
L 275 0 
L 275 525 
L 2438 3041 
L 353 3041 
L 353 3500 
z
" transform="scale(0.015625)"/>
       <path id="DejaVuSans-6b" d="M 581 4863 
L 1159 4863 
L 1159 1991 
L 2875 3500 
L 3609 3500 
L 1753 1863 
L 3688 0 
L 2938 0 
L 1159 1709 
L 1159 0 
L 581 0 
L 581 4863 
z
" transform="scale(0.015625)"/>
       <path id="DejaVuSans-79" d="M 2059 -325 
Q 1816 -950 1584 -1140 
Q 1353 -1331 966 -1331 
L 506 -1331 
L 506 -850 
L 844 -850 
Q 1081 -850 1212 -737 
Q 1344 -625 1503 -206 
L 1606 56 
L 191 3500 
L 800 3500 
L 1894 763 
L 2988 3500 
L 3597 3500 
L 2059 -325 
z
" transform="scale(0.015625)"/>
       <path id="DejaVuSans-47" d="M 3809 666 
L 3809 1919 
L 2778 1919 
L 2778 2438 
L 4434 2438 
L 4434 434 
Q 4069 175 3628 42 
Q 3188 -91 2688 -91 
Q 1594 -91 976 548 
Q 359 1188 359 2328 
Q 359 3472 976 4111 
Q 1594 4750 2688 4750 
Q 3144 4750 3555 4637 
Q 3966 4525 4313 4306 
L 4313 3634 
Q 3963 3931 3569 4081 
Q 3175 4231 2741 4231 
Q 1884 4231 1454 3753 
Q 1025 3275 1025 2328 
Q 1025 1384 1454 906 
Q 1884 428 2741 428 
Q 3075 428 3337 486 
Q 3600 544 3809 666 
z
" transform="scale(0.015625)"/>
      </defs>
      <use xlink:href="#DejaVuSans-73"/>
      <use xlink:href="#DejaVuSans-6d" x="52.099609"/>
      <use xlink:href="#DejaVuSans-6f" x="149.511719"/>
      <use xlink:href="#DejaVuSans-6f" x="210.693359"/>
      <use xlink:href="#DejaVuSans-74" x="271.875"/>
      <use xlink:href="#DejaVuSans-68" x="311.083984"/>
      <use xlink:href="#DejaVuSans-65" x="374.462891"/>
      <use xlink:href="#DejaVuSans-64" x="435.986328"/>
      <use xlink:href="#DejaVuSans-20" x="499.462891"/>
      <use xlink:href="#DejaVuSans-77" x="531.25"/>
      <use xlink:href="#DejaVuSans-69" x="613.037109"/>
      <use xlink:href="#DejaVuSans-74" x="640.820312"/>
      <use xlink:href="#DejaVuSans-68" x="680.029297"/>
      <use xlink:href="#DejaVuSans-20" x="743.408203"/>
      <use xlink:href="#DejaVuSans-53" x="775.195312"/>
      <use xlink:href="#DejaVuSans-61" x="838.671875"/>
      <use xlink:href="#DejaVuSans-76" x="899.951172"/>
      <use xlink:href="#DejaVuSans-69" x="959.130859"/>
      <use xlink:href="#DejaVuSans-74" x="986.914062"/>
      <use xlink:href="#DejaVuSans-7a" x="1026.123047"/>
      <use xlink:href="#DejaVuSans-6b" x="1078.613281"/>
      <use xlink:href="#DejaVuSans-79" x="1132.898438"/>
      <use xlink:href="#DejaVuSans-2d" x="1190.328125"/>
      <use xlink:href="#DejaVuSans-47" x="1230.037109"/>
      <use xlink:href="#DejaVuSans-6f" x="1307.527344"/>
      <use xlink:href="#DejaVuSans-6c" x="1368.708984"/>
      <use xlink:href="#DejaVuSans-61" x="1396.492188"/>
      <use xlink:href="#DejaVuSans-79" x="1457.771484"/>
      <use xlink:href="#DejaVuSans-20" x="1516.951172"/>
      <use xlink:href="#DejaVuSans-66" x="1548.738281"/>
      <use xlink:href="#DejaVuSans-69" x="1583.943359"/>
      <use xlink:href="#DejaVuSans-6c" x="1611.726562"/>
      <use xlink:href="#DejaVuSans-74" x="1639.509766"/>
      <use xlink:href="#DejaVuSans-65" x="1678.71875"/>
      <use xlink:href="#DejaVuSans-72" x="1740.242188"/>
     </g>
    </g>
    <g id="line2d_28">
     <path d="M 266.571875 50.094687 
L 276.571875 50.094687 
L 286.571875 50.094687 
" style="fill: none; stroke: #ff7f0e; stroke-opacity: 0.7; stroke-width: 1.5; stroke-linecap: square"/>
    </g>
    <g id="text_16">
     <!-- no smoothing -->
     <g transform="translate(294.571875 53.594687) scale(0.1 -0.1)">
      <defs>
       <path id="DejaVuSans-67" d="M 2906 1791 
Q 2906 2416 2648 2759 
Q 2391 3103 1925 3103 
Q 1463 3103 1205 2759 
Q 947 2416 947 1791 
Q 947 1169 1205 825 
Q 1463 481 1925 481 
Q 2391 481 2648 825 
Q 2906 1169 2906 1791 
z
M 3481 434 
Q 3481 -459 3084 -895 
Q 2688 -1331 1869 -1331 
Q 1566 -1331 1297 -1286 
Q 1028 -1241 775 -1147 
L 775 -588 
Q 1028 -725 1275 -790 
Q 1522 -856 1778 -856 
Q 2344 -856 2625 -561 
Q 2906 -266 2906 331 
L 2906 616 
Q 2728 306 2450 153 
Q 2172 0 1784 0 
Q 1141 0 747 490 
Q 353 981 353 1791 
Q 353 2603 747 3093 
Q 1141 3584 1784 3584 
Q 2172 3584 2450 3431 
Q 2728 3278 2906 2969 
L 2906 3500 
L 3481 3500 
L 3481 434 
z
" transform="scale(0.015625)"/>
      </defs>
      <use xlink:href="#DejaVuSans-6e"/>
      <use xlink:href="#DejaVuSans-6f" x="63.378906"/>
      <use xlink:href="#DejaVuSans-20" x="124.560547"/>
      <use xlink:href="#DejaVuSans-73" x="156.347656"/>
      <use xlink:href="#DejaVuSans-6d" x="208.447266"/>
      <use xlink:href="#DejaVuSans-6f" x="305.859375"/>
      <use xlink:href="#DejaVuSans-6f" x="367.041016"/>
      <use xlink:href="#DejaVuSans-74" x="428.222656"/>
      <use xlink:href="#DejaVuSans-68" x="467.431641"/>
      <use xlink:href="#DejaVuSans-69" x="530.810547"/>
      <use xlink:href="#DejaVuSans-6e" x="558.59375"/>
      <use xlink:href="#DejaVuSans-67" x="621.972656"/>
     </g>
    </g>
   </g>
  </g>
  <g id="axes_2">
   <g id="patch_8">
    <path d="M 35.304688 576.718125 
L 481.704687 576.718125 
L 481.704687 324.718125 
L 35.304688 324.718125 
z
" style="fill: #ffffff"/>
   </g>
   <g id="matplotlib.axis_3">
    <g id="xtick_6">
     <g id="line2d_29">
      <path d="M 102.420771 576.718125 
L 102.420771 324.718125 
" clip-path="url(#p1f02156ce9)" style="fill: none; stroke: #b0b0b0; stroke-width: 0.8; stroke-linecap: square"/>
     </g>
     <g id="line2d_30">
      <g>
       <use xlink:href="#m74608ab20b" x="102.420771" y="576.718125" style="stroke: #000000; stroke-width: 0.8"/>
      </g>
     </g>
     <g id="text_17">
      <!-- −100 -->
      <g transform="translate(88.687178 591.316562) scale(0.1 -0.1)">
       <use xlink:href="#DejaVuSans-2212"/>
       <use xlink:href="#DejaVuSans-31" x="83.789062"/>
       <use xlink:href="#DejaVuSans-30" x="147.412109"/>
       <use xlink:href="#DejaVuSans-30" x="211.035156"/>
      </g>
     </g>
    </g>
    <g id="xtick_7">
     <g id="line2d_31">
      <path d="M 180.462729 576.718125 
L 180.462729 324.718125 
" clip-path="url(#p1f02156ce9)" style="fill: none; stroke: #b0b0b0; stroke-width: 0.8; stroke-linecap: square"/>
     </g>
     <g id="line2d_32">
      <g>
       <use xlink:href="#m74608ab20b" x="180.462729" y="576.718125" style="stroke: #000000; stroke-width: 0.8"/>
      </g>
     </g>
     <g id="text_18">
      <!-- −50 -->
      <g transform="translate(169.910386 591.316562) scale(0.1 -0.1)">
       <use xlink:href="#DejaVuSans-2212"/>
       <use xlink:href="#DejaVuSans-35" x="83.789062"/>
       <use xlink:href="#DejaVuSans-30" x="147.412109"/>
      </g>
     </g>
    </g>
    <g id="xtick_8">
     <g id="line2d_33">
      <path d="M 258.504687 576.718125 
L 258.504687 324.718125 
" clip-path="url(#p1f02156ce9)" style="fill: none; stroke: #b0b0b0; stroke-width: 0.8; stroke-linecap: square"/>
     </g>
     <g id="line2d_34">
      <g>
       <use xlink:href="#m74608ab20b" x="258.504687" y="576.718125" style="stroke: #000000; stroke-width: 0.8"/>
      </g>
     </g>
     <g id="text_19">
      <!-- 0 -->
      <g transform="translate(255.323437 591.316562) scale(0.1 -0.1)">
       <use xlink:href="#DejaVuSans-30"/>
      </g>
     </g>
    </g>
    <g id="xtick_9">
     <g id="line2d_35">
      <path d="M 336.546646 576.718125 
L 336.546646 324.718125 
" clip-path="url(#p1f02156ce9)" style="fill: none; stroke: #b0b0b0; stroke-width: 0.8; stroke-linecap: square"/>
     </g>
     <g id="line2d_36">
      <g>
       <use xlink:href="#m74608ab20b" x="336.546646" y="576.718125" style="stroke: #000000; stroke-width: 0.8"/>
      </g>
     </g>
     <g id="text_20">
      <!-- 50 -->
      <g transform="translate(330.184146 591.316562) scale(0.1 -0.1)">
       <use xlink:href="#DejaVuSans-35"/>
       <use xlink:href="#DejaVuSans-30" x="63.623047"/>
      </g>
     </g>
    </g>
    <g id="xtick_10">
     <g id="line2d_37">
      <path d="M 414.588604 576.718125 
L 414.588604 324.718125 
" clip-path="url(#p1f02156ce9)" style="fill: none; stroke: #b0b0b0; stroke-width: 0.8; stroke-linecap: square"/>
     </g>
     <g id="line2d_38">
      <g>
       <use xlink:href="#m74608ab20b" x="414.588604" y="576.718125" style="stroke: #000000; stroke-width: 0.8"/>
      </g>
     </g>
     <g id="text_21">
      <!-- 100 -->
      <g transform="translate(405.044854 591.316562) scale(0.1 -0.1)">
       <use xlink:href="#DejaVuSans-31"/>
       <use xlink:href="#DejaVuSans-30" x="63.623047"/>
       <use xlink:href="#DejaVuSans-30" x="127.246094"/>
      </g>
     </g>
    </g>
    <g id="text_22">
     <!-- Theta -->
     <g transform="translate(244.18125 604.994687) scale(0.1 -0.1)">
      <use xlink:href="#DejaVuSans-54"/>
      <use xlink:href="#DejaVuSans-68" x="61.083984"/>
      <use xlink:href="#DejaVuSans-65" x="124.462891"/>
      <use xlink:href="#DejaVuSans-74" x="185.986328"/>
      <use xlink:href="#DejaVuSans-61" x="225.195312"/>
     </g>
    </g>
   </g>
   <g id="matplotlib.axis_4">
    <g id="ytick_8">
     <g id="line2d_39">
      <path d="M 35.304688 554.810727 
L 481.704687 554.810727 
" clip-path="url(#p1f02156ce9)" style="fill: none; stroke: #b0b0b0; stroke-width: 0.8; stroke-linecap: square"/>
     </g>
     <g id="line2d_40">
      <g>
       <use xlink:href="#mc815741bae" x="35.304688" y="554.810727" style="stroke: #000000; stroke-width: 0.8"/>
      </g>
     </g>
     <g id="text_23">
      <!-- −25 -->
      <g transform="translate(7.2 558.609945) scale(0.1 -0.1)">
       <use xlink:href="#DejaVuSans-2212"/>
       <use xlink:href="#DejaVuSans-32" x="83.789062"/>
       <use xlink:href="#DejaVuSans-35" x="147.412109"/>
      </g>
     </g>
    </g>
    <g id="ytick_9">
     <g id="line2d_41">
      <path d="M 35.304688 511.107309 
L 481.704687 511.107309 
" clip-path="url(#p1f02156ce9)" style="fill: none; stroke: #b0b0b0; stroke-width: 0.8; stroke-linecap: square"/>
     </g>
     <g id="line2d_42">
      <g>
       <use xlink:href="#mc815741bae" x="35.304688" y="511.107309" style="stroke: #000000; stroke-width: 0.8"/>
      </g>
     </g>
     <g id="text_24">
      <!-- −20 -->
      <g transform="translate(7.2 514.906528) scale(0.1 -0.1)">
       <use xlink:href="#DejaVuSans-2212"/>
       <use xlink:href="#DejaVuSans-32" x="83.789062"/>
       <use xlink:href="#DejaVuSans-30" x="147.412109"/>
      </g>
     </g>
    </g>
    <g id="ytick_10">
     <g id="line2d_43">
      <path d="M 35.304688 467.403891 
L 481.704687 467.403891 
" clip-path="url(#p1f02156ce9)" style="fill: none; stroke: #b0b0b0; stroke-width: 0.8; stroke-linecap: square"/>
     </g>
     <g id="line2d_44">
      <g>
       <use xlink:href="#mc815741bae" x="35.304688" y="467.403891" style="stroke: #000000; stroke-width: 0.8"/>
      </g>
     </g>
     <g id="text_25">
      <!-- −15 -->
      <g transform="translate(7.2 471.20311) scale(0.1 -0.1)">
       <use xlink:href="#DejaVuSans-2212"/>
       <use xlink:href="#DejaVuSans-31" x="83.789062"/>
       <use xlink:href="#DejaVuSans-35" x="147.412109"/>
      </g>
     </g>
    </g>
    <g id="ytick_11">
     <g id="line2d_45">
      <path d="M 35.304688 423.700473 
L 481.704687 423.700473 
" clip-path="url(#p1f02156ce9)" style="fill: none; stroke: #b0b0b0; stroke-width: 0.8; stroke-linecap: square"/>
     </g>
     <g id="line2d_46">
      <g>
       <use xlink:href="#mc815741bae" x="35.304688" y="423.700473" style="stroke: #000000; stroke-width: 0.8"/>
      </g>
     </g>
     <g id="text_26">
      <!-- −10 -->
      <g transform="translate(7.2 427.499692) scale(0.1 -0.1)">
       <use xlink:href="#DejaVuSans-2212"/>
       <use xlink:href="#DejaVuSans-31" x="83.789062"/>
       <use xlink:href="#DejaVuSans-30" x="147.412109"/>
      </g>
     </g>
    </g>
    <g id="ytick_12">
     <g id="line2d_47">
      <path d="M 35.304688 379.997055 
L 481.704687 379.997055 
" clip-path="url(#p1f02156ce9)" style="fill: none; stroke: #b0b0b0; stroke-width: 0.8; stroke-linecap: square"/>
     </g>
     <g id="line2d_48">
      <g>
       <use xlink:href="#mc815741bae" x="35.304688" y="379.997055" style="stroke: #000000; stroke-width: 0.8"/>
      </g>
     </g>
     <g id="text_27">
      <!-- −5 -->
      <g transform="translate(13.5625 383.796274) scale(0.1 -0.1)">
       <use xlink:href="#DejaVuSans-2212"/>
       <use xlink:href="#DejaVuSans-35" x="83.789062"/>
      </g>
     </g>
    </g>
    <g id="ytick_13">
     <g id="line2d_49">
      <path d="M 35.304688 336.293637 
L 481.704687 336.293637 
" clip-path="url(#p1f02156ce9)" style="fill: none; stroke: #b0b0b0; stroke-width: 0.8; stroke-linecap: square"/>
     </g>
     <g id="line2d_50">
      <g>
       <use xlink:href="#mc815741bae" x="35.304688" y="336.293637" style="stroke: #000000; stroke-width: 0.8"/>
      </g>
     </g>
     <g id="text_28">
      <!-- 0 -->
      <g transform="translate(21.942187 340.092856) scale(0.1 -0.1)">
       <use xlink:href="#DejaVuSans-30"/>
      </g>
     </g>
    </g>
   </g>
   <g id="line2d_51">
    <path d="M 55.595597 470.908678 
L 63.399792 474.755249 
L 71.203988 490.951761 
L 79.008184 528.533987 
L 86.81238 548.113866 
L 94.616576 535.103998 
L 102.420771 518.00644 
L 110.224967 531.829237 
L 118.029163 549.094077 
L 125.833359 545.96381 
L 133.637555 529.822361 
L 141.44175 523.368162 
L 149.245946 521.762992 
L 157.050142 521.49632 
L 164.854338 530.770669 
L 172.658534 551.838714 
L 180.462729 554.445504 
L 188.266925 524.042196 
L 196.071121 480.409746 
L 203.875317 455.344403 
L 211.679513 463.15853 
L 219.483708 484.317264 
L 227.287904 470.591408 
L 235.0921 417.476755 
L 242.896296 366.255855 
L 250.700492 343.794666 
L 258.504687 336.685267 
L 266.308883 343.418465 
L 274.113079 364.841777 
L 281.917275 415.206235 
L 289.721471 470.011521 
L 297.525667 486.029861 
L 305.329862 465.7263 
L 313.134058 456.075488 
L 320.938254 478.519698 
L 328.74245 522.787697 
L 336.546646 554.699861 
L 344.350841 552.615022 
L 352.155037 530.014528 
L 359.959233 521.224487 
L 367.763429 522.206984 
L 375.567625 523.218273 
L 383.37182 527.979954 
L 391.176016 544.433612 
L 398.980212 550.612943 
L 406.784408 534.852081 
L 414.588604 518.061895 
L 422.392799 531.984456 
L 430.196995 547.381507 
L 438.001191 531.051107 
L 445.805387 494.187265 
L 453.609583 476.492086 
L 461.413778 468.753864 
" clip-path="url(#p1f02156ce9)" style="fill: none; stroke: #1f77b4; stroke-opacity: 0.7; stroke-width: 1.5; stroke-linecap: square"/>
   </g>
   <g id="line2d_52">
    <path d="M 55.595597 473.49909 
L 63.399792 470.688117 
L 71.203988 487.610678 
L 79.008184 528.020125 
L 86.81238 556.690504 
L 94.616576 532.4008 
L 102.420771 513.990777 
L 110.224967 528.762899 
L 118.029163 557.170233 
L 125.833359 543.891898 
L 133.637555 527.828838 
L 141.44175 523.709692 
L 149.245946 523.005335 
L 157.050142 521.171159 
L 164.854338 528.156565 
L 172.658534 550.117413 
L 180.462729 562.71169 
L 188.266925 521.515538 
L 196.071121 478.543933 
L 203.875317 456.334169 
L 211.679513 455.655719 
L 219.483708 488.825333 
L 227.287904 480.626966 
L 235.0921 408.438714 
L 242.896296 366.720185 
L 250.700492 344.487178 
L 258.504687 336.17267 
L 266.308883 344.288946 
L 274.113079 365.367997 
L 281.917275 406.097422 
L 289.721471 479.304048 
L 297.525667 491.545214 
L 305.329862 457.79107 
L 313.134058 457.35755 
L 320.938254 476.982906 
L 328.74245 518.362782 
L 336.546646 565.26358 
L 344.350841 549.827688 
L 352.155037 527.440878 
L 359.959233 520.970026 
L 367.763429 523.256087 
L 375.567625 524.171304 
L 383.37182 525.827449 
L 391.176016 541.45499 
L 398.980212 559.171831 
L 406.784408 532.34529 
L 414.588604 514.196373 
L 422.392799 528.700186 
L 430.196995 554.734072 
L 438.001191 532.858882 
L 445.805387 489.415396 
L 453.609583 471.8351 
L 461.413778 471.877669 
" clip-path="url(#p1f02156ce9)" style="fill: none; stroke: #ff7f0e; stroke-opacity: 0.7; stroke-width: 1.5; stroke-linecap: square"/>
   </g>
   <g id="patch_9">
    <path d="M 35.304688 576.718125 
L 35.304688 324.718125 
" style="fill: none; stroke: #000000; stroke-width: 0.8; stroke-linejoin: miter; stroke-linecap: square"/>
   </g>
   <g id="patch_10">
    <path d="M 481.704687 576.718125 
L 481.704687 324.718125 
" style="fill: none; stroke: #000000; stroke-width: 0.8; stroke-linejoin: miter; stroke-linecap: square"/>
   </g>
   <g id="patch_11">
    <path d="M 35.304688 576.718125 
L 481.704687 576.718125 
" style="fill: none; stroke: #000000; stroke-width: 0.8; stroke-linejoin: miter; stroke-linecap: square"/>
   </g>
   <g id="patch_12">
    <path d="M 35.304688 324.718125 
L 481.704687 324.718125 
" style="fill: none; stroke: #000000; stroke-width: 0.8; stroke-linejoin: miter; stroke-linecap: square"/>
   </g>
   <g id="text_29">
    <!-- Far-field Pattern E-plane Phi = 0.0 -->
    <g transform="translate(157.349375 318.718125) scale(0.12 -0.12)">
     <defs>
      <path id="DejaVuSans-45" d="M 628 4666 
L 3578 4666 
L 3578 4134 
L 1259 4134 
L 1259 2753 
L 3481 2753 
L 3481 2222 
L 1259 2222 
L 1259 531 
L 3634 531 
L 3634 0 
L 628 0 
L 628 4666 
z
" transform="scale(0.015625)"/>
     </defs>
     <use xlink:href="#DejaVuSans-46"/>
     <use xlink:href="#DejaVuSans-61" x="48.394531"/>
     <use xlink:href="#DejaVuSans-72" x="109.673828"/>
     <use xlink:href="#DejaVuSans-2d" x="144.412109"/>
     <use xlink:href="#DejaVuSans-66" x="180.496094"/>
     <use xlink:href="#DejaVuSans-69" x="215.701172"/>
     <use xlink:href="#DejaVuSans-65" x="243.484375"/>
     <use xlink:href="#DejaVuSans-6c" x="305.007812"/>
     <use xlink:href="#DejaVuSans-64" x="332.791016"/>
     <use xlink:href="#DejaVuSans-20" x="396.267578"/>
     <use xlink:href="#DejaVuSans-50" x="428.054688"/>
     <use xlink:href="#DejaVuSans-61" x="483.857422"/>
     <use xlink:href="#DejaVuSans-74" x="545.136719"/>
     <use xlink:href="#DejaVuSans-74" x="584.345703"/>
     <use xlink:href="#DejaVuSans-65" x="623.554688"/>
     <use xlink:href="#DejaVuSans-72" x="685.078125"/>
     <use xlink:href="#DejaVuSans-6e" x="724.441406"/>
     <use xlink:href="#DejaVuSans-20" x="787.820312"/>
     <use xlink:href="#DejaVuSans-45" x="819.607422"/>
     <use xlink:href="#DejaVuSans-2d" x="882.791016"/>
     <use xlink:href="#DejaVuSans-70" x="918.875"/>
     <use xlink:href="#DejaVuSans-6c" x="982.351562"/>
     <use xlink:href="#DejaVuSans-61" x="1010.134766"/>
     <use xlink:href="#DejaVuSans-6e" x="1071.414062"/>
     <use xlink:href="#DejaVuSans-65" x="1134.792969"/>
     <use xlink:href="#DejaVuSans-20" x="1196.316406"/>
     <use xlink:href="#DejaVuSans-50" x="1228.103516"/>
     <use xlink:href="#DejaVuSans-68" x="1288.40625"/>
     <use xlink:href="#DejaVuSans-69" x="1351.785156"/>
     <use xlink:href="#DejaVuSans-20" x="1379.568359"/>
     <use xlink:href="#DejaVuSans-3d" x="1411.355469"/>
     <use xlink:href="#DejaVuSans-20" x="1495.144531"/>
     <use xlink:href="#DejaVuSans-30" x="1526.931641"/>
     <use xlink:href="#DejaVuSans-2e" x="1590.554688"/>
     <use xlink:href="#DejaVuSans-30" x="1622.341797"/>
    </g>
   </g>
   <g id="legend_2">
    <g id="patch_13">
     <path d="M 264.571875 362.074375 
L 474.704687 362.074375 
Q 476.704687 362.074375 476.704687 360.074375 
L 476.704687 331.718125 
Q 476.704687 329.718125 474.704687 329.718125 
L 264.571875 329.718125 
Q 262.571875 329.718125 262.571875 331.718125 
L 262.571875 360.074375 
Q 262.571875 362.074375 264.571875 362.074375 
z
" style="fill: #ffffff; opacity: 0.8; stroke: #cccccc; stroke-linejoin: miter"/>
    </g>
    <g id="line2d_53">
     <path d="M 266.571875 337.816563 
L 276.571875 337.816563 
L 286.571875 337.816563 
" style="fill: none; stroke: #1f77b4; stroke-opacity: 0.7; stroke-width: 1.5; stroke-linecap: square"/>
    </g>
    <g id="text_30">
     <!-- smoothed with Savitzky-Golay filter -->
     <g transform="translate(294.571875 341.316563) scale(0.1 -0.1)">
      <use xlink:href="#DejaVuSans-73"/>
      <use xlink:href="#DejaVuSans-6d" x="52.099609"/>
      <use xlink:href="#DejaVuSans-6f" x="149.511719"/>
      <use xlink:href="#DejaVuSans-6f" x="210.693359"/>
      <use xlink:href="#DejaVuSans-74" x="271.875"/>
      <use xlink:href="#DejaVuSans-68" x="311.083984"/>
      <use xlink:href="#DejaVuSans-65" x="374.462891"/>
      <use xlink:href="#DejaVuSans-64" x="435.986328"/>
      <use xlink:href="#DejaVuSans-20" x="499.462891"/>
      <use xlink:href="#DejaVuSans-77" x="531.25"/>
      <use xlink:href="#DejaVuSans-69" x="613.037109"/>
      <use xlink:href="#DejaVuSans-74" x="640.820312"/>
      <use xlink:href="#DejaVuSans-68" x="680.029297"/>
      <use xlink:href="#DejaVuSans-20" x="743.408203"/>
      <use xlink:href="#DejaVuSans-53" x="775.195312"/>
      <use xlink:href="#DejaVuSans-61" x="838.671875"/>
      <use xlink:href="#DejaVuSans-76" x="899.951172"/>
      <use xlink:href="#DejaVuSans-69" x="959.130859"/>
      <use xlink:href="#DejaVuSans-74" x="986.914062"/>
      <use xlink:href="#DejaVuSans-7a" x="1026.123047"/>
      <use xlink:href="#DejaVuSans-6b" x="1078.613281"/>
      <use xlink:href="#DejaVuSans-79" x="1132.898438"/>
      <use xlink:href="#DejaVuSans-2d" x="1190.328125"/>
      <use xlink:href="#DejaVuSans-47" x="1230.037109"/>
      <use xlink:href="#DejaVuSans-6f" x="1307.527344"/>
      <use xlink:href="#DejaVuSans-6c" x="1368.708984"/>
      <use xlink:href="#DejaVuSans-61" x="1396.492188"/>
      <use xlink:href="#DejaVuSans-79" x="1457.771484"/>
      <use xlink:href="#DejaVuSans-20" x="1516.951172"/>
      <use xlink:href="#DejaVuSans-66" x="1548.738281"/>
      <use xlink:href="#DejaVuSans-69" x="1583.943359"/>
      <use xlink:href="#DejaVuSans-6c" x="1611.726562"/>
      <use xlink:href="#DejaVuSans-74" x="1639.509766"/>
      <use xlink:href="#DejaVuSans-65" x="1678.71875"/>
      <use xlink:href="#DejaVuSans-72" x="1740.242188"/>
     </g>
    </g>
    <g id="line2d_54">
     <path d="M 266.571875 352.494688 
L 276.571875 352.494688 
L 286.571875 352.494688 
" style="fill: none; stroke: #ff7f0e; stroke-opacity: 0.7; stroke-width: 1.5; stroke-linecap: square"/>
    </g>
    <g id="text_31">
     <!-- no smoothing -->
     <g transform="translate(294.571875 355.994688) scale(0.1 -0.1)">
      <use xlink:href="#DejaVuSans-6e"/>
      <use xlink:href="#DejaVuSans-6f" x="63.378906"/>
      <use xlink:href="#DejaVuSans-20" x="124.560547"/>
      <use xlink:href="#DejaVuSans-73" x="156.347656"/>
      <use xlink:href="#DejaVuSans-6d" x="208.447266"/>
      <use xlink:href="#DejaVuSans-6f" x="305.859375"/>
      <use xlink:href="#DejaVuSans-6f" x="367.041016"/>
      <use xlink:href="#DejaVuSans-74" x="428.222656"/>
      <use xlink:href="#DejaVuSans-68" x="467.431641"/>
      <use xlink:href="#DejaVuSans-69" x="530.810547"/>
      <use xlink:href="#DejaVuSans-6e" x="558.59375"/>
      <use xlink:href="#DejaVuSans-67" x="621.972656"/>
     </g>
    </g>
   </g>
  </g>
 </g>
 <defs>
  <clipPath id="p25c7cf1187">
   <rect x="35.304688" y="22.318125" width="446.4" height="252"/>
  </clipPath>
  <clipPath id="p1f02156ce9">
   <rect x="35.304688" y="324.718125" width="446.4" height="252"/>
  </clipPath>
 </defs>
</svg>
